G04 #@! TF.GenerationSoftware,KiCad,Pcbnew,5.0.2-bee76a0~70~ubuntu18.04.1*
G04 #@! TF.CreationDate,2019-07-24T00:54:38+02:00*
G04 #@! TF.ProjectId,DummyLoad,44756d6d-794c-46f6-9164-2e6b69636164,1.1*
G04 #@! TF.SameCoordinates,Original*
G04 #@! TF.FileFunction,Legend,Bot*
G04 #@! TF.FilePolarity,Positive*
%FSLAX46Y46*%
G04 Gerber Fmt 4.6, Leading zero omitted, Abs format (unit mm)*
G04 Created by KiCad (PCBNEW 5.0.2-bee76a0~70~ubuntu18.04.1) date Mi 24 Jul 2019 00:54:38 CEST*
%MOMM*%
%LPD*%
G01*
G04 APERTURE LIST*
%ADD10C,0.250000*%
%ADD11C,0.150000*%
G04 APERTURE END LIST*
D10*
X87077380Y-108119047D02*
X87077380Y-107642857D01*
X86077380Y-107642857D01*
X87077380Y-108452380D02*
X86410714Y-108452380D01*
X86077380Y-108452380D02*
X86125000Y-108404761D01*
X86172619Y-108452380D01*
X86125000Y-108500000D01*
X86077380Y-108452380D01*
X86172619Y-108452380D01*
X87029761Y-109357142D02*
X87077380Y-109261904D01*
X87077380Y-109071428D01*
X87029761Y-108976190D01*
X86982142Y-108928571D01*
X86886904Y-108880952D01*
X86601190Y-108880952D01*
X86505952Y-108928571D01*
X86458333Y-108976190D01*
X86410714Y-109071428D01*
X86410714Y-109261904D01*
X86458333Y-109357142D01*
X87029761Y-110166666D02*
X87077380Y-110071428D01*
X87077380Y-109880952D01*
X87029761Y-109785714D01*
X86934523Y-109738095D01*
X86553571Y-109738095D01*
X86458333Y-109785714D01*
X86410714Y-109880952D01*
X86410714Y-110071428D01*
X86458333Y-110166666D01*
X86553571Y-110214285D01*
X86648809Y-110214285D01*
X86744047Y-109738095D01*
X86410714Y-110642857D02*
X87077380Y-110642857D01*
X86505952Y-110642857D02*
X86458333Y-110690476D01*
X86410714Y-110785714D01*
X86410714Y-110928571D01*
X86458333Y-111023809D01*
X86553571Y-111071428D01*
X87077380Y-111071428D01*
X87029761Y-111500000D02*
X87077380Y-111595238D01*
X87077380Y-111785714D01*
X87029761Y-111880952D01*
X86934523Y-111928571D01*
X86886904Y-111928571D01*
X86791666Y-111880952D01*
X86744047Y-111785714D01*
X86744047Y-111642857D01*
X86696428Y-111547619D01*
X86601190Y-111500000D01*
X86553571Y-111500000D01*
X86458333Y-111547619D01*
X86410714Y-111642857D01*
X86410714Y-111785714D01*
X86458333Y-111880952D01*
X87029761Y-112738095D02*
X87077380Y-112642857D01*
X87077380Y-112452380D01*
X87029761Y-112357142D01*
X86934523Y-112309523D01*
X86553571Y-112309523D01*
X86458333Y-112357142D01*
X86410714Y-112452380D01*
X86410714Y-112642857D01*
X86458333Y-112738095D01*
X86553571Y-112785714D01*
X86648809Y-112785714D01*
X86744047Y-112309523D01*
X87077380Y-113642857D02*
X86077380Y-113642857D01*
X87029761Y-113642857D02*
X87077380Y-113547619D01*
X87077380Y-113357142D01*
X87029761Y-113261904D01*
X86982142Y-113214285D01*
X86886904Y-113166666D01*
X86601190Y-113166666D01*
X86505952Y-113214285D01*
X86458333Y-113261904D01*
X86410714Y-113357142D01*
X86410714Y-113547619D01*
X86458333Y-113642857D01*
X86410714Y-115309523D02*
X87077380Y-115309523D01*
X86410714Y-114880952D02*
X86934523Y-114880952D01*
X87029761Y-114928571D01*
X87077380Y-115023809D01*
X87077380Y-115166666D01*
X87029761Y-115261904D01*
X86982142Y-115309523D01*
X86410714Y-115785714D02*
X87077380Y-115785714D01*
X86505952Y-115785714D02*
X86458333Y-115833333D01*
X86410714Y-115928571D01*
X86410714Y-116071428D01*
X86458333Y-116166666D01*
X86553571Y-116214285D01*
X87077380Y-116214285D01*
X87077380Y-117119047D02*
X86077380Y-117119047D01*
X87029761Y-117119047D02*
X87077380Y-117023809D01*
X87077380Y-116833333D01*
X87029761Y-116738095D01*
X86982142Y-116690476D01*
X86886904Y-116642857D01*
X86601190Y-116642857D01*
X86505952Y-116690476D01*
X86458333Y-116738095D01*
X86410714Y-116833333D01*
X86410714Y-117023809D01*
X86458333Y-117119047D01*
X87029761Y-117976190D02*
X87077380Y-117880952D01*
X87077380Y-117690476D01*
X87029761Y-117595238D01*
X86934523Y-117547619D01*
X86553571Y-117547619D01*
X86458333Y-117595238D01*
X86410714Y-117690476D01*
X86410714Y-117880952D01*
X86458333Y-117976190D01*
X86553571Y-118023809D01*
X86648809Y-118023809D01*
X86744047Y-117547619D01*
X87077380Y-118452380D02*
X86410714Y-118452380D01*
X86601190Y-118452380D02*
X86505952Y-118500000D01*
X86458333Y-118547619D01*
X86410714Y-118642857D01*
X86410714Y-118738095D01*
X88732142Y-108166666D02*
X88779761Y-108119047D01*
X88827380Y-107976190D01*
X88827380Y-107880952D01*
X88779761Y-107738095D01*
X88684523Y-107642857D01*
X88589285Y-107595238D01*
X88398809Y-107547619D01*
X88255952Y-107547619D01*
X88065476Y-107595238D01*
X87970238Y-107642857D01*
X87875000Y-107738095D01*
X87827380Y-107880952D01*
X87827380Y-107976190D01*
X87875000Y-108119047D01*
X87922619Y-108166666D01*
X88303571Y-108595238D02*
X88303571Y-108928571D01*
X88827380Y-109071428D02*
X88827380Y-108595238D01*
X87827380Y-108595238D01*
X87827380Y-109071428D01*
X88827380Y-110071428D02*
X88351190Y-109738095D01*
X88827380Y-109500000D02*
X87827380Y-109500000D01*
X87827380Y-109880952D01*
X87875000Y-109976190D01*
X87922619Y-110023809D01*
X88017857Y-110071428D01*
X88160714Y-110071428D01*
X88255952Y-110023809D01*
X88303571Y-109976190D01*
X88351190Y-109880952D01*
X88351190Y-109500000D01*
X88827380Y-110500000D02*
X87827380Y-110500000D01*
X88827380Y-111071428D01*
X87827380Y-111071428D01*
X87827380Y-112500000D02*
X87827380Y-112690476D01*
X87875000Y-112785714D01*
X87970238Y-112880952D01*
X88160714Y-112928571D01*
X88494047Y-112928571D01*
X88684523Y-112880952D01*
X88779761Y-112785714D01*
X88827380Y-112690476D01*
X88827380Y-112500000D01*
X88779761Y-112404761D01*
X88684523Y-112309523D01*
X88494047Y-112261904D01*
X88160714Y-112261904D01*
X87970238Y-112309523D01*
X87875000Y-112404761D01*
X87827380Y-112500000D01*
X88827380Y-113357142D02*
X87827380Y-113357142D01*
X88303571Y-113357142D02*
X88303571Y-113928571D01*
X88827380Y-113928571D02*
X87827380Y-113928571D01*
X88827380Y-114880952D02*
X88827380Y-114404761D01*
X87827380Y-114404761D01*
X88160714Y-115880952D02*
X88827380Y-116119047D01*
X88160714Y-116357142D01*
X88827380Y-118023809D02*
X88827380Y-117452380D01*
X88827380Y-117738095D02*
X87827380Y-117738095D01*
X87970238Y-117642857D01*
X88065476Y-117547619D01*
X88113095Y-117452380D01*
X88732142Y-118452380D02*
X88779761Y-118500000D01*
X88827380Y-118452380D01*
X88779761Y-118404761D01*
X88732142Y-118452380D01*
X88827380Y-118452380D01*
X87922619Y-118880952D02*
X87875000Y-118928571D01*
X87827380Y-119023809D01*
X87827380Y-119261904D01*
X87875000Y-119357142D01*
X87922619Y-119404761D01*
X88017857Y-119452380D01*
X88113095Y-119452380D01*
X88255952Y-119404761D01*
X88827380Y-118833333D01*
X88827380Y-119452380D01*
D11*
G04 #@! TO.C,R26*
X103418819Y-111951456D02*
X103829243Y-113079087D01*
X105473705Y-112480552D02*
X105063281Y-111352921D01*
G04 #@! TO.C,R27*
X104786899Y-115710227D02*
X105197323Y-116837858D01*
X106841785Y-116239323D02*
X106431361Y-115111692D01*
G04 #@! TO.C,R28*
X108209866Y-119998093D02*
X107799442Y-118870462D01*
X106154980Y-119468997D02*
X106565404Y-120596628D01*
G04 #@! TO.C,R29*
X107523061Y-123227767D02*
X107933485Y-124355398D01*
X109577947Y-123756863D02*
X109167523Y-122629232D01*
G04 #@! TO.C,R30*
X110946027Y-127515634D02*
X110535603Y-126388003D01*
X108891141Y-126986538D02*
X109301565Y-128114169D01*
G04 #@! TO.C,R31*
X101291530Y-112363558D02*
X101499908Y-113545327D01*
X103223322Y-113241442D02*
X103014944Y-112059673D01*
G04 #@! TO.C,R32*
X103917914Y-117180673D02*
X103709536Y-115998904D01*
X101986122Y-116302789D02*
X102194500Y-117484558D01*
G04 #@! TO.C,R33*
X102680715Y-120242020D02*
X102889093Y-121423789D01*
X104612507Y-121119904D02*
X104404129Y-119938135D01*
G04 #@! TO.C,R34*
X105307100Y-125059135D02*
X105098722Y-123877366D01*
X103375308Y-124181251D02*
X103583686Y-125363020D01*
G04 #@! TO.C,R35*
X104069900Y-128120482D02*
X104278278Y-129302251D01*
X106001692Y-128998366D02*
X105793314Y-127816597D01*
G04 #@! TO.C,R36*
X100875000Y-113600000D02*
X100875000Y-112400000D01*
X99125000Y-112400000D02*
X99125000Y-113600000D01*
G04 #@! TO.C,R37*
X99125000Y-116400000D02*
X99125000Y-117600000D01*
X100875000Y-117600000D02*
X100875000Y-116400000D01*
G04 #@! TO.C,R38*
X100875000Y-121600000D02*
X100875000Y-120400000D01*
X99125000Y-120400000D02*
X99125000Y-121600000D01*
G04 #@! TO.C,R39*
X100875000Y-125600000D02*
X100875000Y-124400000D01*
X99125000Y-124400000D02*
X99125000Y-125600000D01*
G04 #@! TO.C,R40*
X100875000Y-129600000D02*
X100875000Y-128400000D01*
X99125000Y-128400000D02*
X99125000Y-129600000D01*
G04 #@! TO.C,R41*
X96985056Y-112059673D02*
X96776678Y-113241442D01*
X98500092Y-113545327D02*
X98708470Y-112363558D01*
G04 #@! TO.C,R42*
X97805500Y-117484558D02*
X98013878Y-116302789D01*
X96290464Y-115998904D02*
X96082086Y-117180673D01*
G04 #@! TO.C,R43*
X95595871Y-119938135D02*
X95387493Y-121119904D01*
X97110907Y-121423789D02*
X97319285Y-120242020D01*
G04 #@! TO.C,R44*
X96416314Y-125363020D02*
X96624692Y-124181251D01*
X94901278Y-123877366D02*
X94692900Y-125059135D01*
G04 #@! TO.C,R45*
X94206686Y-127816597D02*
X93998308Y-128998366D01*
X95721722Y-129302251D02*
X95930100Y-128120482D01*
G04 #@! TO.C,R46*
X96170757Y-113079087D02*
X96581181Y-111951456D01*
X94936719Y-111352921D02*
X94526295Y-112480552D01*
G04 #@! TO.C,R47*
X93568639Y-115111692D02*
X93158215Y-116239323D01*
X94802677Y-116837858D02*
X95213101Y-115710227D01*
G04 #@! TO.C,R48*
X93434596Y-120596628D02*
X93845020Y-119468997D01*
X92200558Y-118870462D02*
X91790134Y-119998093D01*
G04 #@! TO.C,R49*
X90832477Y-122629232D02*
X90422053Y-123756863D01*
X92066515Y-124355398D02*
X92476939Y-123227767D01*
G04 #@! TO.C,R50*
X90698435Y-128114169D02*
X91108859Y-126986538D01*
X89464397Y-126388003D02*
X89053973Y-127515634D01*
G04 #@! TO.C,R26*
X106214388Y-112256573D02*
X106775867Y-112406937D01*
X106409828Y-112793540D02*
X107349520Y-112451520D01*
X107219227Y-112093542D01*
X107141906Y-112020334D01*
X107080872Y-111991873D01*
X106975091Y-111979700D01*
X106840849Y-112028560D01*
X106767641Y-112105880D01*
X106739181Y-112166914D01*
X106727007Y-112272695D01*
X106857300Y-112630673D01*
X106934292Y-111589148D02*
X106962753Y-111528114D01*
X106974927Y-111422333D01*
X106893493Y-111198597D01*
X106816173Y-111125389D01*
X106755139Y-111096928D01*
X106649358Y-111084754D01*
X106559863Y-111117328D01*
X106441908Y-111210935D01*
X106100381Y-111943342D01*
X105888654Y-111361628D01*
X106535187Y-110214157D02*
X106600333Y-110393146D01*
X106588159Y-110498927D01*
X106559699Y-110559961D01*
X106458030Y-110698315D01*
X106295328Y-110808209D01*
X105937350Y-110938503D01*
X105831569Y-110926329D01*
X105770535Y-110897868D01*
X105693214Y-110824660D01*
X105628067Y-110645671D01*
X105640241Y-110539890D01*
X105668702Y-110478856D01*
X105741910Y-110401536D01*
X105965646Y-110320102D01*
X106071427Y-110332276D01*
X106132461Y-110360737D01*
X106209782Y-110433945D01*
X106274928Y-110612934D01*
X106262755Y-110718715D01*
X106234294Y-110779749D01*
X106161086Y-110857069D01*
G04 #@! TO.C,R27*
X107582468Y-116015344D02*
X108143947Y-116165708D01*
X107777908Y-116552311D02*
X108717600Y-116210291D01*
X108587307Y-115852313D01*
X108509986Y-115779105D01*
X108448952Y-115750644D01*
X108343171Y-115738471D01*
X108208929Y-115787331D01*
X108135721Y-115864651D01*
X108107261Y-115925685D01*
X108095087Y-116031466D01*
X108225380Y-116389444D01*
X108302372Y-115347919D02*
X108330833Y-115286885D01*
X108343007Y-115181104D01*
X108261573Y-114957368D01*
X108184253Y-114884160D01*
X108123219Y-114855699D01*
X108017438Y-114843525D01*
X107927943Y-114876099D01*
X107809988Y-114969706D01*
X107468461Y-115702113D01*
X107256734Y-115120399D01*
X108082420Y-114465148D02*
X107854407Y-113838686D01*
X107061294Y-114583431D01*
G04 #@! TO.C,R28*
X108950549Y-119774114D02*
X109512028Y-119924478D01*
X109145989Y-120311081D02*
X110085681Y-119969061D01*
X109955388Y-119611083D01*
X109878067Y-119537875D01*
X109817033Y-119509414D01*
X109711252Y-119497241D01*
X109577010Y-119546101D01*
X109503802Y-119623421D01*
X109475342Y-119684455D01*
X109463168Y-119790236D01*
X109593461Y-120148214D01*
X109670453Y-119106689D02*
X109698914Y-119045655D01*
X109711088Y-118939874D01*
X109629654Y-118716138D01*
X109552334Y-118642930D01*
X109491300Y-118614469D01*
X109385519Y-118602295D01*
X109296024Y-118634869D01*
X109178069Y-118728476D01*
X108836542Y-119460883D01*
X108624815Y-118879169D01*
X108966342Y-118146761D02*
X109043663Y-118219969D01*
X109104697Y-118248430D01*
X109210478Y-118260604D01*
X109255225Y-118244317D01*
X109328433Y-118166996D01*
X109356894Y-118105963D01*
X109369068Y-118000181D01*
X109303921Y-117821192D01*
X109226600Y-117747984D01*
X109165566Y-117719524D01*
X109059785Y-117707350D01*
X109015038Y-117723637D01*
X108941830Y-117800957D01*
X108913369Y-117861991D01*
X108901196Y-117967772D01*
X108966342Y-118146761D01*
X108954168Y-118252543D01*
X108925708Y-118313577D01*
X108852500Y-118390897D01*
X108673511Y-118456044D01*
X108567730Y-118443870D01*
X108506696Y-118415409D01*
X108429375Y-118342201D01*
X108364228Y-118163212D01*
X108376402Y-118057431D01*
X108404863Y-117996397D01*
X108478071Y-117919077D01*
X108657060Y-117853930D01*
X108762841Y-117866104D01*
X108823875Y-117894564D01*
X108901196Y-117967772D01*
G04 #@! TO.C,R29*
X110318630Y-123532884D02*
X110880109Y-123683248D01*
X110514070Y-124069851D02*
X111453762Y-123727831D01*
X111323469Y-123369853D01*
X111246148Y-123296645D01*
X111185114Y-123268184D01*
X111079333Y-123256011D01*
X110945091Y-123304871D01*
X110871883Y-123382191D01*
X110843423Y-123443225D01*
X110831249Y-123549006D01*
X110961542Y-123906984D01*
X111038534Y-122865459D02*
X111066995Y-122804425D01*
X111079169Y-122698644D01*
X110997735Y-122474908D01*
X110920415Y-122401700D01*
X110859381Y-122373239D01*
X110753600Y-122361065D01*
X110664105Y-122393639D01*
X110546150Y-122487246D01*
X110204623Y-123219653D01*
X109992896Y-122637939D01*
X109830029Y-122190466D02*
X109764883Y-122011477D01*
X109777057Y-121905696D01*
X109805517Y-121844662D01*
X109907186Y-121706307D01*
X110069888Y-121596413D01*
X110427866Y-121466120D01*
X110533647Y-121478294D01*
X110594681Y-121506754D01*
X110672002Y-121579962D01*
X110737149Y-121758951D01*
X110724975Y-121864733D01*
X110696514Y-121925766D01*
X110623306Y-122003087D01*
X110399570Y-122084520D01*
X110293789Y-122072347D01*
X110232755Y-122043886D01*
X110155434Y-121970678D01*
X110090287Y-121791689D01*
X110102461Y-121685908D01*
X110130922Y-121624874D01*
X110204130Y-121547553D01*
G04 #@! TO.C,R30*
X111686710Y-127291655D02*
X112248189Y-127442019D01*
X111882150Y-127828622D02*
X112821842Y-127486602D01*
X112691549Y-127128624D01*
X112614228Y-127055416D01*
X112553194Y-127026955D01*
X112447413Y-127014782D01*
X112313171Y-127063642D01*
X112239963Y-127140962D01*
X112211503Y-127201996D01*
X112199329Y-127307777D01*
X112329622Y-127665755D01*
X112512395Y-126636404D02*
X112300669Y-126054690D01*
X112056697Y-126498214D01*
X112007837Y-126363972D01*
X111930517Y-126290764D01*
X111869483Y-126262304D01*
X111763701Y-126250130D01*
X111539965Y-126331563D01*
X111466757Y-126408884D01*
X111438297Y-126469918D01*
X111426123Y-126575699D01*
X111523843Y-126844182D01*
X111601163Y-126917390D01*
X111662197Y-126945851D01*
X112088942Y-125472975D02*
X112056369Y-125383481D01*
X111979048Y-125310273D01*
X111918014Y-125281812D01*
X111812233Y-125269638D01*
X111616957Y-125290038D01*
X111393221Y-125371471D01*
X111230518Y-125481365D01*
X111157310Y-125558685D01*
X111128850Y-125619719D01*
X111116676Y-125725501D01*
X111149249Y-125814995D01*
X111226570Y-125888203D01*
X111287604Y-125916664D01*
X111393385Y-125928838D01*
X111588661Y-125908438D01*
X111812397Y-125827005D01*
X111975100Y-125717111D01*
X112048307Y-125639790D01*
X112076768Y-125578756D01*
X112088942Y-125472975D01*
G04 #@! TO.C,R31*
X101402603Y-110559722D02*
X101929442Y-110805302D01*
X101501831Y-111122470D02*
X102486638Y-110948821D01*
X102420487Y-110573657D01*
X102357053Y-110488134D01*
X102301889Y-110449508D01*
X102199829Y-110419150D01*
X102059142Y-110443957D01*
X101973619Y-110507390D01*
X101934993Y-110562555D01*
X101904635Y-110664615D01*
X101970787Y-111039780D01*
X102329528Y-110057805D02*
X102222032Y-109448162D01*
X101904750Y-109842583D01*
X101879943Y-109701896D01*
X101816509Y-109616374D01*
X101761345Y-109577747D01*
X101659284Y-109547390D01*
X101424806Y-109588734D01*
X101339284Y-109652168D01*
X101300658Y-109707332D01*
X101270300Y-109809393D01*
X101319914Y-110090766D01*
X101383347Y-110176289D01*
X101438512Y-110214915D01*
X101071845Y-108683898D02*
X101171072Y-109246645D01*
X101121459Y-108965272D02*
X102106266Y-108791624D01*
X101982117Y-108910222D01*
X101904864Y-109020551D01*
X101874506Y-109122611D01*
G04 #@! TO.C,R32*
X104541129Y-119145154D02*
X105067968Y-119390734D01*
X104640357Y-119707902D02*
X105625164Y-119534253D01*
X105559013Y-119159089D01*
X105495579Y-119073566D01*
X105440415Y-119034940D01*
X105338355Y-119004582D01*
X105197668Y-119029389D01*
X105112145Y-119092822D01*
X105073519Y-119147987D01*
X105043161Y-119250047D01*
X105109313Y-119625212D01*
X105468054Y-118643237D02*
X105360558Y-118033594D01*
X105043276Y-118428015D01*
X105018469Y-118287328D01*
X104955035Y-118201806D01*
X104899871Y-118163179D01*
X104797810Y-118132822D01*
X104563332Y-118174166D01*
X104477810Y-118237600D01*
X104439184Y-118292764D01*
X104408826Y-118394825D01*
X104458440Y-118676198D01*
X104521873Y-118761721D01*
X104577038Y-118800347D01*
X105200615Y-117674967D02*
X105239241Y-117619802D01*
X105269599Y-117517742D01*
X105228254Y-117283264D01*
X105164821Y-117197742D01*
X105109656Y-117159115D01*
X105007596Y-117128758D01*
X104913805Y-117145296D01*
X104781387Y-117216998D01*
X104317867Y-117878973D01*
X104210371Y-117269330D01*
G04 #@! TO.C,R33*
X105259035Y-122064848D02*
X105785874Y-122310428D01*
X105358263Y-122627596D02*
X106343070Y-122453947D01*
X106276919Y-122078783D01*
X106213485Y-121993260D01*
X106158321Y-121954634D01*
X106056261Y-121924276D01*
X105915574Y-121949083D01*
X105830051Y-122012516D01*
X105791425Y-122067681D01*
X105761067Y-122169741D01*
X105827219Y-122544906D01*
X106185960Y-121562931D02*
X106078464Y-120953288D01*
X105761182Y-121347709D01*
X105736375Y-121207022D01*
X105672941Y-121121500D01*
X105617777Y-121082873D01*
X105515716Y-121052516D01*
X105281238Y-121093860D01*
X105195716Y-121157294D01*
X105157090Y-121212458D01*
X105126732Y-121314519D01*
X105176346Y-121595892D01*
X105239779Y-121681415D01*
X105294944Y-121720041D01*
X106020581Y-120625019D02*
X105913085Y-120015376D01*
X105595802Y-120409797D01*
X105570996Y-120269110D01*
X105507562Y-120183588D01*
X105452397Y-120144961D01*
X105350337Y-120114603D01*
X105115859Y-120155948D01*
X105030337Y-120219382D01*
X104991710Y-120274546D01*
X104961353Y-120376606D01*
X105010966Y-120657980D01*
X105074400Y-120743502D01*
X105129564Y-120782129D01*
G04 #@! TO.C,R34*
X106075422Y-124967177D02*
X106602261Y-125212757D01*
X106174650Y-125529925D02*
X107159457Y-125356276D01*
X107093306Y-124981112D01*
X107029872Y-124895589D01*
X106974708Y-124856963D01*
X106872648Y-124826605D01*
X106731961Y-124851412D01*
X106646438Y-124914845D01*
X106607812Y-124970010D01*
X106577454Y-125072070D01*
X106643606Y-125447235D01*
X107002347Y-124465260D02*
X106894851Y-123855617D01*
X106577569Y-124250038D01*
X106552762Y-124109351D01*
X106489328Y-124023829D01*
X106434164Y-123985202D01*
X106332103Y-123954845D01*
X106097625Y-123996189D01*
X106012103Y-124059623D01*
X105973477Y-124114787D01*
X105943119Y-124216848D01*
X105992733Y-124498221D01*
X106056166Y-124583744D01*
X106111331Y-124622370D01*
X106417740Y-123069379D02*
X105761202Y-123185144D01*
X106834250Y-123237705D02*
X106172161Y-123596218D01*
X106064664Y-122986575D01*
G04 #@! TO.C,R35*
X106770014Y-128906408D02*
X107296853Y-129151988D01*
X106869242Y-129469156D02*
X107854049Y-129295507D01*
X107787898Y-128920343D01*
X107724464Y-128834820D01*
X107669300Y-128796194D01*
X107567240Y-128765836D01*
X107426553Y-128790643D01*
X107341030Y-128854076D01*
X107302404Y-128909241D01*
X107272046Y-129011301D01*
X107338198Y-129386466D01*
X107696939Y-128404491D02*
X107589443Y-127794848D01*
X107272161Y-128189269D01*
X107247354Y-128048582D01*
X107183920Y-127963060D01*
X107128756Y-127924433D01*
X107026695Y-127894076D01*
X106792217Y-127935420D01*
X106706695Y-127998854D01*
X106668069Y-128054018D01*
X106637711Y-128156079D01*
X106687325Y-128437452D01*
X106750758Y-128522975D01*
X106805923Y-128561601D01*
X107432332Y-126903831D02*
X107515022Y-127372788D01*
X107054335Y-127502373D01*
X107092962Y-127447208D01*
X107123319Y-127345148D01*
X107081975Y-127110670D01*
X107018541Y-127025148D01*
X106963376Y-126986521D01*
X106861316Y-126956163D01*
X106626838Y-126997508D01*
X106541316Y-127060942D01*
X106502689Y-127116106D01*
X106472332Y-127218166D01*
X106513676Y-127452645D01*
X106577110Y-127538167D01*
X106632275Y-127576793D01*
G04 #@! TO.C,R36*
X100452380Y-109357142D02*
X99976190Y-109023809D01*
X100452380Y-108785714D02*
X99452380Y-108785714D01*
X99452380Y-109166666D01*
X99500000Y-109261904D01*
X99547619Y-109309523D01*
X99642857Y-109357142D01*
X99785714Y-109357142D01*
X99880952Y-109309523D01*
X99928571Y-109261904D01*
X99976190Y-109166666D01*
X99976190Y-108785714D01*
X99452380Y-109690476D02*
X99452380Y-110309523D01*
X99833333Y-109976190D01*
X99833333Y-110119047D01*
X99880952Y-110214285D01*
X99928571Y-110261904D01*
X100023809Y-110309523D01*
X100261904Y-110309523D01*
X100357142Y-110261904D01*
X100404761Y-110214285D01*
X100452380Y-110119047D01*
X100452380Y-109833333D01*
X100404761Y-109738095D01*
X100357142Y-109690476D01*
X99452380Y-111166666D02*
X99452380Y-110976190D01*
X99500000Y-110880952D01*
X99547619Y-110833333D01*
X99690476Y-110738095D01*
X99880952Y-110690476D01*
X100261904Y-110690476D01*
X100357142Y-110738095D01*
X100404761Y-110785714D01*
X100452380Y-110880952D01*
X100452380Y-111071428D01*
X100404761Y-111166666D01*
X100357142Y-111214285D01*
X100261904Y-111261904D01*
X100023809Y-111261904D01*
X99928571Y-111214285D01*
X99880952Y-111166666D01*
X99833333Y-111071428D01*
X99833333Y-110880952D01*
X99880952Y-110785714D01*
X99928571Y-110738095D01*
X100023809Y-110690476D01*
G04 #@! TO.C,R37*
X98852380Y-118357142D02*
X98376190Y-118023809D01*
X98852380Y-117785714D02*
X97852380Y-117785714D01*
X97852380Y-118166666D01*
X97900000Y-118261904D01*
X97947619Y-118309523D01*
X98042857Y-118357142D01*
X98185714Y-118357142D01*
X98280952Y-118309523D01*
X98328571Y-118261904D01*
X98376190Y-118166666D01*
X98376190Y-117785714D01*
X97852380Y-118690476D02*
X97852380Y-119309523D01*
X98233333Y-118976190D01*
X98233333Y-119119047D01*
X98280952Y-119214285D01*
X98328571Y-119261904D01*
X98423809Y-119309523D01*
X98661904Y-119309523D01*
X98757142Y-119261904D01*
X98804761Y-119214285D01*
X98852380Y-119119047D01*
X98852380Y-118833333D01*
X98804761Y-118738095D01*
X98757142Y-118690476D01*
X97852380Y-119642857D02*
X97852380Y-120309523D01*
X98852380Y-119880952D01*
G04 #@! TO.C,R38*
X98652380Y-121357142D02*
X98176190Y-121023809D01*
X98652380Y-120785714D02*
X97652380Y-120785714D01*
X97652380Y-121166666D01*
X97700000Y-121261904D01*
X97747619Y-121309523D01*
X97842857Y-121357142D01*
X97985714Y-121357142D01*
X98080952Y-121309523D01*
X98128571Y-121261904D01*
X98176190Y-121166666D01*
X98176190Y-120785714D01*
X97652380Y-121690476D02*
X97652380Y-122309523D01*
X98033333Y-121976190D01*
X98033333Y-122119047D01*
X98080952Y-122214285D01*
X98128571Y-122261904D01*
X98223809Y-122309523D01*
X98461904Y-122309523D01*
X98557142Y-122261904D01*
X98604761Y-122214285D01*
X98652380Y-122119047D01*
X98652380Y-121833333D01*
X98604761Y-121738095D01*
X98557142Y-121690476D01*
X98080952Y-122880952D02*
X98033333Y-122785714D01*
X97985714Y-122738095D01*
X97890476Y-122690476D01*
X97842857Y-122690476D01*
X97747619Y-122738095D01*
X97700000Y-122785714D01*
X97652380Y-122880952D01*
X97652380Y-123071428D01*
X97700000Y-123166666D01*
X97747619Y-123214285D01*
X97842857Y-123261904D01*
X97890476Y-123261904D01*
X97985714Y-123214285D01*
X98033333Y-123166666D01*
X98080952Y-123071428D01*
X98080952Y-122880952D01*
X98128571Y-122785714D01*
X98176190Y-122738095D01*
X98271428Y-122690476D01*
X98461904Y-122690476D01*
X98557142Y-122738095D01*
X98604761Y-122785714D01*
X98652380Y-122880952D01*
X98652380Y-123071428D01*
X98604761Y-123166666D01*
X98557142Y-123214285D01*
X98461904Y-123261904D01*
X98271428Y-123261904D01*
X98176190Y-123214285D01*
X98128571Y-123166666D01*
X98080952Y-123071428D01*
G04 #@! TO.C,R39*
X98352380Y-124357142D02*
X97876190Y-124023809D01*
X98352380Y-123785714D02*
X97352380Y-123785714D01*
X97352380Y-124166666D01*
X97400000Y-124261904D01*
X97447619Y-124309523D01*
X97542857Y-124357142D01*
X97685714Y-124357142D01*
X97780952Y-124309523D01*
X97828571Y-124261904D01*
X97876190Y-124166666D01*
X97876190Y-123785714D01*
X97352380Y-124690476D02*
X97352380Y-125309523D01*
X97733333Y-124976190D01*
X97733333Y-125119047D01*
X97780952Y-125214285D01*
X97828571Y-125261904D01*
X97923809Y-125309523D01*
X98161904Y-125309523D01*
X98257142Y-125261904D01*
X98304761Y-125214285D01*
X98352380Y-125119047D01*
X98352380Y-124833333D01*
X98304761Y-124738095D01*
X98257142Y-124690476D01*
X98352380Y-125785714D02*
X98352380Y-125976190D01*
X98304761Y-126071428D01*
X98257142Y-126119047D01*
X98114285Y-126214285D01*
X97923809Y-126261904D01*
X97542857Y-126261904D01*
X97447619Y-126214285D01*
X97400000Y-126166666D01*
X97352380Y-126071428D01*
X97352380Y-125880952D01*
X97400000Y-125785714D01*
X97447619Y-125738095D01*
X97542857Y-125690476D01*
X97780952Y-125690476D01*
X97876190Y-125738095D01*
X97923809Y-125785714D01*
X97971428Y-125880952D01*
X97971428Y-126071428D01*
X97923809Y-126166666D01*
X97876190Y-126214285D01*
X97780952Y-126261904D01*
G04 #@! TO.C,R40*
X98352380Y-128357142D02*
X97876190Y-128023809D01*
X98352380Y-127785714D02*
X97352380Y-127785714D01*
X97352380Y-128166666D01*
X97400000Y-128261904D01*
X97447619Y-128309523D01*
X97542857Y-128357142D01*
X97685714Y-128357142D01*
X97780952Y-128309523D01*
X97828571Y-128261904D01*
X97876190Y-128166666D01*
X97876190Y-127785714D01*
X97685714Y-129214285D02*
X98352380Y-129214285D01*
X97304761Y-128976190D02*
X98019047Y-128738095D01*
X98019047Y-129357142D01*
X97352380Y-129928571D02*
X97352380Y-130023809D01*
X97400000Y-130119047D01*
X97447619Y-130166666D01*
X97542857Y-130214285D01*
X97733333Y-130261904D01*
X97971428Y-130261904D01*
X98161904Y-130214285D01*
X98257142Y-130166666D01*
X98304761Y-130119047D01*
X98352380Y-130023809D01*
X98352380Y-129928571D01*
X98304761Y-129833333D01*
X98257142Y-129785714D01*
X98161904Y-129738095D01*
X97971428Y-129690476D01*
X97733333Y-129690476D01*
X97542857Y-129738095D01*
X97447619Y-129785714D01*
X97400000Y-129833333D01*
X97352380Y-129928571D01*
G04 #@! TO.C,R41*
X98820658Y-109293541D02*
X98409584Y-108882582D01*
X98919885Y-108730794D02*
X97935078Y-108557145D01*
X97868926Y-108932310D01*
X97899284Y-109034370D01*
X97937910Y-109089535D01*
X98023432Y-109152969D01*
X98164119Y-109177775D01*
X98266179Y-109147418D01*
X98321344Y-109108791D01*
X98384778Y-109023269D01*
X98450929Y-108648104D01*
X98015278Y-110021896D02*
X98671816Y-110137662D01*
X97681458Y-109721267D02*
X98426237Y-109610823D01*
X98318740Y-110220466D01*
X98489899Y-111169365D02*
X98589127Y-110606618D01*
X98539513Y-110887992D02*
X97554705Y-110714343D01*
X97711930Y-110645359D01*
X97822259Y-110568106D01*
X97885693Y-110482584D01*
G04 #@! TO.C,R42*
X95682132Y-117878973D02*
X95271058Y-117468014D01*
X95781359Y-117316226D02*
X94796552Y-117142577D01*
X94730400Y-117517742D01*
X94760758Y-117619802D01*
X94799384Y-117674967D01*
X94884906Y-117738401D01*
X95025593Y-117763207D01*
X95127653Y-117732850D01*
X95182818Y-117694223D01*
X95246252Y-117608701D01*
X95312403Y-117233536D01*
X94876752Y-118607328D02*
X95533290Y-118723094D01*
X94542932Y-118306699D02*
X95287711Y-118196255D01*
X95180214Y-118805898D01*
X94559584Y-119034940D02*
X94504420Y-119073566D01*
X94440986Y-119159089D01*
X94399641Y-119393567D01*
X94429999Y-119495627D01*
X94468626Y-119550791D01*
X94554148Y-119614225D01*
X94647939Y-119630763D01*
X94796895Y-119608674D01*
X95458870Y-119145154D01*
X95351373Y-119754797D01*
G04 #@! TO.C,R43*
X94964226Y-120798667D02*
X94553152Y-120387708D01*
X95063453Y-120235920D02*
X94078646Y-120062271D01*
X94012494Y-120437436D01*
X94042852Y-120539496D01*
X94081478Y-120594661D01*
X94167000Y-120658095D01*
X94307687Y-120682901D01*
X94409747Y-120652544D01*
X94464912Y-120613917D01*
X94528346Y-120528395D01*
X94594497Y-120153230D01*
X94158846Y-121527022D02*
X94815384Y-121642788D01*
X93825026Y-121226393D02*
X94569805Y-121115949D01*
X94462308Y-121725592D01*
X93756156Y-121891200D02*
X93648660Y-122500843D01*
X94081707Y-122238725D01*
X94056900Y-122379412D01*
X94087258Y-122481472D01*
X94125885Y-122536637D01*
X94211407Y-122600071D01*
X94445885Y-122641415D01*
X94547945Y-122611058D01*
X94603110Y-122572431D01*
X94666543Y-122486909D01*
X94716157Y-122205535D01*
X94685799Y-122103475D01*
X94647173Y-122048310D01*
G04 #@! TO.C,R44*
X94147839Y-123700996D02*
X93736765Y-123290037D01*
X94247066Y-123138249D02*
X93262259Y-122964600D01*
X93196107Y-123339765D01*
X93226465Y-123441825D01*
X93265091Y-123496990D01*
X93350613Y-123560424D01*
X93491300Y-123585230D01*
X93593360Y-123554873D01*
X93648525Y-123516246D01*
X93711959Y-123430724D01*
X93778110Y-123055559D01*
X93342459Y-124429351D02*
X93998997Y-124545117D01*
X93008639Y-124128722D02*
X93753418Y-124018278D01*
X93645921Y-124627921D01*
X93177080Y-125367264D02*
X93833618Y-125483029D01*
X92843260Y-125066634D02*
X93588039Y-124956190D01*
X93480542Y-125565833D01*
G04 #@! TO.C,R45*
X93453247Y-127640227D02*
X93042173Y-127229268D01*
X93552474Y-127077480D02*
X92567667Y-126903831D01*
X92501515Y-127278996D01*
X92531873Y-127381056D01*
X92570499Y-127436221D01*
X92656021Y-127499655D01*
X92796708Y-127524461D01*
X92898768Y-127494104D01*
X92953933Y-127455477D01*
X93017367Y-127369955D01*
X93083518Y-126994790D01*
X92647867Y-128368582D02*
X93304405Y-128484348D01*
X92314047Y-128067953D02*
X93058826Y-127957509D01*
X92951329Y-128567152D01*
X92145950Y-129295507D02*
X92228639Y-128826551D01*
X92705864Y-128862345D01*
X92650700Y-128900972D01*
X92587266Y-128986494D01*
X92545921Y-129220972D01*
X92576279Y-129323032D01*
X92614906Y-129378197D01*
X92700428Y-129441631D01*
X92934906Y-129482975D01*
X93036966Y-129452618D01*
X93092131Y-129413991D01*
X93155564Y-129328469D01*
X93196909Y-129093991D01*
X93166551Y-128991931D01*
X93127925Y-128936766D01*
G04 #@! TO.C,R46*
X94225352Y-111048397D02*
X93891886Y-110572299D01*
X94420792Y-110511430D02*
X93481099Y-110169409D01*
X93350806Y-110527388D01*
X93362980Y-110633169D01*
X93391440Y-110694203D01*
X93464648Y-110771523D01*
X93598890Y-110820383D01*
X93704671Y-110808209D01*
X93765705Y-110779749D01*
X93843026Y-110706541D01*
X93973319Y-110348563D01*
X93305730Y-111625834D02*
X93932192Y-111853848D01*
X93029185Y-111271804D02*
X93781827Y-111292368D01*
X93570101Y-111874083D01*
X92666765Y-112406773D02*
X92731912Y-112227784D01*
X92809233Y-112154576D01*
X92870267Y-112126115D01*
X93037082Y-112085481D01*
X93232358Y-112105880D01*
X93590336Y-112236174D01*
X93663544Y-112313494D01*
X93692004Y-112374528D01*
X93704178Y-112480309D01*
X93639031Y-112659298D01*
X93561711Y-112732506D01*
X93500677Y-112760967D01*
X93394896Y-112773141D01*
X93171159Y-112691707D01*
X93097951Y-112614387D01*
X93069491Y-112553353D01*
X93057317Y-112447572D01*
X93122464Y-112268583D01*
X93199784Y-112195375D01*
X93260818Y-112166914D01*
X93366599Y-112154740D01*
G04 #@! TO.C,R47*
X92857272Y-114807168D02*
X92523806Y-114331070D01*
X93052712Y-114270201D02*
X92113019Y-113928180D01*
X91982726Y-114286159D01*
X91994900Y-114391940D01*
X92023360Y-114452974D01*
X92096568Y-114530294D01*
X92230810Y-114579154D01*
X92336591Y-114566980D01*
X92397625Y-114538520D01*
X92474946Y-114465312D01*
X92605239Y-114107334D01*
X91937650Y-115384605D02*
X92564112Y-115612619D01*
X91661105Y-115030575D02*
X92413747Y-115051139D01*
X92202021Y-115632854D01*
X91477839Y-115673324D02*
X91249825Y-116299786D01*
X92336098Y-116239080D01*
G04 #@! TO.C,R48*
X91489191Y-118565938D02*
X91155725Y-118089840D01*
X91684631Y-118028971D02*
X90744938Y-117686950D01*
X90614645Y-118044929D01*
X90626819Y-118150710D01*
X90655279Y-118211744D01*
X90728487Y-118289064D01*
X90862729Y-118337924D01*
X90968510Y-118325750D01*
X91029544Y-118297290D01*
X91106865Y-118224082D01*
X91237158Y-117866104D01*
X90569569Y-119143375D02*
X91196031Y-119371389D01*
X90293024Y-118789345D02*
X91045666Y-118809909D01*
X90833940Y-119391624D01*
X90431050Y-119802410D02*
X90418876Y-119696629D01*
X90390415Y-119635595D01*
X90317207Y-119558275D01*
X90272460Y-119541988D01*
X90166679Y-119554162D01*
X90105645Y-119582622D01*
X90028324Y-119655830D01*
X89963178Y-119834819D01*
X89975352Y-119940600D01*
X90003812Y-120001634D01*
X90077020Y-120078955D01*
X90121767Y-120095242D01*
X90227549Y-120083068D01*
X90288583Y-120054607D01*
X90365903Y-119981399D01*
X90431050Y-119802410D01*
X90508370Y-119729202D01*
X90569404Y-119700742D01*
X90675186Y-119688568D01*
X90854175Y-119753715D01*
X90927383Y-119831035D01*
X90955843Y-119892069D01*
X90968017Y-119997850D01*
X90902870Y-120176839D01*
X90825550Y-120250047D01*
X90764516Y-120278508D01*
X90658735Y-120290682D01*
X90479746Y-120225535D01*
X90406538Y-120148214D01*
X90378077Y-120087181D01*
X90365903Y-119981399D01*
G04 #@! TO.C,R49*
X90121110Y-122324708D02*
X89787644Y-121848610D01*
X90316550Y-121787741D02*
X89376857Y-121445720D01*
X89246564Y-121803699D01*
X89258738Y-121909480D01*
X89287198Y-121970514D01*
X89360406Y-122047834D01*
X89494648Y-122096694D01*
X89600429Y-122084520D01*
X89661463Y-122056060D01*
X89738784Y-121982852D01*
X89869077Y-121624874D01*
X89201488Y-122902145D02*
X89827950Y-123130159D01*
X88924943Y-122548115D02*
X89677585Y-122568679D01*
X89465859Y-123150394D01*
X89632509Y-123667126D02*
X89567363Y-123846115D01*
X89490042Y-123919323D01*
X89429008Y-123947783D01*
X89262193Y-123988418D01*
X89066917Y-123968018D01*
X88708939Y-123837725D01*
X88635731Y-123760404D01*
X88607271Y-123699370D01*
X88595097Y-123593589D01*
X88660243Y-123414600D01*
X88737564Y-123341392D01*
X88798598Y-123312932D01*
X88904379Y-123300758D01*
X89128116Y-123382191D01*
X89201323Y-123459512D01*
X89229784Y-123520546D01*
X89241958Y-123626327D01*
X89176811Y-123805316D01*
X89099491Y-123878524D01*
X89038457Y-123906984D01*
X88932675Y-123919158D01*
G04 #@! TO.C,R50*
X88753030Y-126083479D02*
X88419564Y-125607381D01*
X88948470Y-125546512D02*
X88008777Y-125204491D01*
X87878484Y-125562470D01*
X87890658Y-125668251D01*
X87919118Y-125729285D01*
X87992326Y-125806605D01*
X88126568Y-125855465D01*
X88232349Y-125843291D01*
X88293383Y-125814831D01*
X88370704Y-125741623D01*
X88500997Y-125383645D01*
X87503890Y-126591657D02*
X87666757Y-126144184D01*
X88130516Y-126262304D01*
X88069482Y-126290764D01*
X87992162Y-126363972D01*
X87910728Y-126587708D01*
X87922902Y-126693490D01*
X87951363Y-126754523D01*
X88024571Y-126831844D01*
X88248307Y-126913277D01*
X88354088Y-126901104D01*
X88415122Y-126872643D01*
X88492443Y-126799435D01*
X88573876Y-126575699D01*
X88561702Y-126469918D01*
X88533242Y-126408884D01*
X87275877Y-127218118D02*
X87243303Y-127307613D01*
X87255477Y-127413394D01*
X87283938Y-127474428D01*
X87357146Y-127551749D01*
X87519848Y-127661643D01*
X87743585Y-127743076D01*
X87938860Y-127763476D01*
X88044642Y-127751302D01*
X88105675Y-127722841D01*
X88182996Y-127649633D01*
X88215569Y-127560139D01*
X88203395Y-127454357D01*
X88174935Y-127393323D01*
X88101727Y-127316003D01*
X87939025Y-127206109D01*
X87715288Y-127124676D01*
X87520013Y-127104276D01*
X87414231Y-127116450D01*
X87353197Y-127144911D01*
X87275877Y-127218118D01*
G04 #@! TD*
M02*
