M48
;DRILL file {KiCad 5.0.2-bee76a0~70~ubuntu18.04.1} date Mi 24 Jul 2019 00:54:43 CEST
;FORMAT={-:-/ absolute / metric / decimal}
FMAT,2
METRIC,TZ
T1C0.400
T2C3.200
%
G90
G05
T1
X85.Y-106.
X85.Y-108.
X85.Y-110.
X85.Y-112.
X85.Y-114.
X85.Y-116.
X85.Y-118.
X85.Y-120.
X85.Y-122.
X85.Y-124.
X85.Y-126.
X85.Y-128.
X85.Y-130.
X85.Y-132.
X85.Y-134.
X88.Y-123.
X89.Y-102.
X89.Y-130.
X89.Y-138.
X91.Y-102.
X91.Y-115.
X91.Y-138.
X93.Y-102.
X93.Y-126.
X93.Y-138.
X94.Y-107.5
X95.Y-131.
X97.Y-110.
X97.Y-127.
X100.Y-106.
X103.Y-110.
X103.Y-127.
X105.Y-131.
X106.Y-107.5
X107.Y-102.
X107.Y-126.
X107.Y-138.
X109.Y-102.
X109.Y-115.
X109.Y-138.
X111.Y-102.
X111.Y-130.
X111.Y-138.
X112.Y-123.
X115.Y-106.
X115.Y-108.
X115.Y-110.
X115.Y-112.
X115.Y-114.
X115.Y-116.
X115.Y-118.
X115.Y-120.
X115.Y-122.
X115.Y-124.
X115.Y-126.
X115.Y-128.
X115.Y-130.
X115.Y-132.
X115.Y-134.
T2
X87.Y-104.
X87.Y-136.
X113.Y-104.
X113.Y-136.
T0
M30
