G04 #@! TF.GenerationSoftware,KiCad,Pcbnew,5.0.2-bee76a0~70~ubuntu18.04.1*
G04 #@! TF.CreationDate,2019-05-30T10:34:00+02:00*
G04 #@! TF.ProjectId,DummyLoad,44756d6d-794c-46f6-9164-2e6b69636164,1.0*
G04 #@! TF.SameCoordinates,Original*
G04 #@! TF.FileFunction,Soldermask,Bot*
G04 #@! TF.FilePolarity,Negative*
%FSLAX46Y46*%
G04 Gerber Fmt 4.6, Leading zero omitted, Abs format (unit mm)*
G04 Created by KiCad (PCBNEW 5.0.2-bee76a0~70~ubuntu18.04.1) date Do 30 Mai 2019 10:34:00 CEST*
%MOMM*%
%LPD*%
G01*
G04 APERTURE LIST*
%ADD10C,2.000000*%
%ADD11C,0.100000*%
G04 APERTURE END LIST*
D10*
X89000000Y-104000000D02*
G75*
G03X89000000Y-104000000I-2000000J0D01*
G01*
X115000000Y-104000000D02*
G75*
G03X115000000Y-104000000I-2000000J0D01*
G01*
X115000000Y-136000000D02*
G75*
G03X115000000Y-136000000I-2000000J0D01*
G01*
X89000000Y-136000000D02*
G75*
G03X89000000Y-136000000I-2000000J0D01*
G01*
D11*
G36*
X105001000Y-140051000D02*
X103249000Y-140051000D01*
X103249000Y-134349000D01*
X105001000Y-134349000D01*
X105001000Y-140051000D01*
X105001000Y-140051000D01*
G37*
G36*
X96751000Y-140051000D02*
X94999000Y-140051000D01*
X94999000Y-134349000D01*
X96751000Y-134349000D01*
X96751000Y-140051000D01*
X96751000Y-140051000D01*
G37*
G36*
X100701000Y-130351000D02*
X99299000Y-130351000D01*
X99299000Y-129549000D01*
X100701000Y-129549000D01*
X100701000Y-130351000D01*
X100701000Y-130351000D01*
G37*
G36*
X95559221Y-129221810D02*
X95419955Y-130011626D01*
X94039255Y-129768172D01*
X94178521Y-128978356D01*
X95559221Y-129221810D01*
X95559221Y-129221810D01*
G37*
G36*
X105960745Y-129768172D02*
X104580045Y-130011626D01*
X104440779Y-129221811D01*
X104440779Y-129221810D01*
X105821479Y-128978356D01*
X105960745Y-129768172D01*
X105960745Y-129768172D01*
G37*
G36*
X90250987Y-127897038D02*
X90552372Y-128006733D01*
X90278072Y-128760367D01*
X90278071Y-128760367D01*
X88960622Y-128280855D01*
X89100320Y-127897038D01*
X89234922Y-127527221D01*
X89234923Y-127527221D01*
X90250987Y-127897038D01*
X90250987Y-127897038D01*
G37*
G36*
X110899680Y-127897038D02*
X111039378Y-128280855D01*
X109721929Y-128760367D01*
X109721928Y-128760367D01*
X109447628Y-128006733D01*
X109749013Y-127897038D01*
X110765077Y-127527221D01*
X110765078Y-127527221D01*
X110899680Y-127897038D01*
X110899680Y-127897038D01*
G37*
G36*
X100701000Y-128451000D02*
X99299000Y-128451000D01*
X99299000Y-127649000D01*
X100701000Y-127649000D01*
X100701000Y-128451000D01*
X100701000Y-128451000D01*
G37*
G36*
X95889153Y-127350676D02*
X95889153Y-127350677D01*
X95749887Y-128140492D01*
X94369187Y-127897038D01*
X94508453Y-127107222D01*
X95889153Y-127350676D01*
X95889153Y-127350676D01*
G37*
G36*
X105630813Y-127897038D02*
X104250113Y-128140492D01*
X104110847Y-127350677D01*
X104110847Y-127350676D01*
X105491547Y-127107222D01*
X105630813Y-127897038D01*
X105630813Y-127897038D01*
G37*
G36*
X110389540Y-126495439D02*
X109072091Y-126974951D01*
X109072090Y-126974951D01*
X108797790Y-126221317D01*
X109206950Y-126072395D01*
X110115239Y-125741805D01*
X110115240Y-125741805D01*
X110389540Y-126495439D01*
X110389540Y-126495439D01*
G37*
G36*
X90793050Y-126072395D02*
X91202210Y-126221317D01*
X90927910Y-126974951D01*
X90927909Y-126974951D01*
X89610460Y-126495439D01*
X89884760Y-125741805D01*
X89884761Y-125741805D01*
X90793050Y-126072395D01*
X90793050Y-126072395D01*
G37*
G36*
X100701000Y-126351000D02*
X99299000Y-126351000D01*
X99299000Y-125549000D01*
X100701000Y-125549000D01*
X100701000Y-126351000D01*
X100701000Y-126351000D01*
G37*
G36*
X105266153Y-125828941D02*
X103885453Y-126072395D01*
X103746187Y-125282579D01*
X105126887Y-125039125D01*
X105266153Y-125828941D01*
X105266153Y-125828941D01*
G37*
G36*
X96253813Y-125282579D02*
X96253813Y-125282580D01*
X96114547Y-126072395D01*
X94733847Y-125828941D01*
X94873113Y-125039125D01*
X96253813Y-125282579D01*
X96253813Y-125282579D01*
G37*
G36*
X109671298Y-124522084D02*
X108353849Y-125001596D01*
X108353848Y-125001596D01*
X108079548Y-124247962D01*
X108876743Y-123957807D01*
X109396997Y-123768450D01*
X109396998Y-123768450D01*
X109671298Y-124522084D01*
X109671298Y-124522084D01*
G37*
G36*
X91123257Y-123957807D02*
X91920452Y-124247962D01*
X91646152Y-125001596D01*
X91646151Y-125001596D01*
X90328702Y-124522084D01*
X90603002Y-123768450D01*
X90603003Y-123768450D01*
X91123257Y-123957807D01*
X91123257Y-123957807D01*
G37*
G36*
X100701000Y-124451000D02*
X99299000Y-124451000D01*
X99299000Y-123649000D01*
X100701000Y-123649000D01*
X100701000Y-124451000D01*
X100701000Y-124451000D01*
G37*
G36*
X104936221Y-123957807D02*
X103555521Y-124201261D01*
X103416255Y-123411445D01*
X104796955Y-123167991D01*
X104936221Y-123957807D01*
X104936221Y-123957807D01*
G37*
G36*
X96583745Y-123411445D02*
X96583745Y-123411446D01*
X96444479Y-124201261D01*
X95063779Y-123957807D01*
X95203045Y-123167991D01*
X96583745Y-123411445D01*
X96583745Y-123411445D01*
G37*
G36*
X108921688Y-122462546D02*
X109021460Y-122736668D01*
X107704011Y-123216180D01*
X107704010Y-123216180D01*
X107429710Y-122462546D01*
X107736180Y-122351000D01*
X108747159Y-121983034D01*
X108747160Y-121983034D01*
X108921688Y-122462546D01*
X108921688Y-122462546D01*
G37*
G36*
X92263820Y-122351000D02*
X92570290Y-122462546D01*
X92295990Y-123216180D01*
X92295989Y-123216180D01*
X90978540Y-122736668D01*
X91078312Y-122462546D01*
X91252840Y-121983034D01*
X91252841Y-121983034D01*
X92263820Y-122351000D01*
X92263820Y-122351000D01*
G37*
G36*
X100701000Y-122351000D02*
X99299000Y-122351000D01*
X99299000Y-121549000D01*
X100701000Y-121549000D01*
X100701000Y-122351000D01*
X100701000Y-122351000D01*
G37*
G36*
X96948406Y-121343348D02*
X96948406Y-121343349D01*
X96809140Y-122133164D01*
X95428440Y-121889710D01*
X95567706Y-121099894D01*
X96948406Y-121343348D01*
X96948406Y-121343348D01*
G37*
G36*
X104571560Y-121889710D02*
X103190860Y-122133164D01*
X103051594Y-121343348D01*
X104432294Y-121099894D01*
X104571560Y-121889710D01*
X104571560Y-121889710D01*
G37*
G36*
X108189544Y-120451000D02*
X108303217Y-120763314D01*
X106985768Y-121242826D01*
X106985767Y-121242826D01*
X106711467Y-120489192D01*
X107335590Y-120262030D01*
X108028916Y-120009680D01*
X108028917Y-120009680D01*
X108189544Y-120451000D01*
X108189544Y-120451000D01*
G37*
G36*
X92664410Y-120262030D02*
X93288533Y-120489192D01*
X93014233Y-121242826D01*
X93014232Y-121242826D01*
X91696783Y-120763314D01*
X91810456Y-120451000D01*
X91971083Y-120009680D01*
X91971084Y-120009680D01*
X92664410Y-120262030D01*
X92664410Y-120262030D01*
G37*
G36*
X100701000Y-120451000D02*
X99299000Y-120451000D01*
X99299000Y-119649000D01*
X100701000Y-119649000D01*
X100701000Y-120451000D01*
X100701000Y-120451000D01*
G37*
G36*
X97278338Y-119472214D02*
X97278338Y-119472215D01*
X97139072Y-120262030D01*
X95758372Y-120018576D01*
X95759941Y-120009680D01*
X95897638Y-119228760D01*
X97278338Y-119472214D01*
X97278338Y-119472214D01*
G37*
G36*
X104240060Y-120009680D02*
X104241628Y-120018576D01*
X102860928Y-120262030D01*
X102721662Y-119472214D01*
X104102362Y-119228760D01*
X104240060Y-120009680D01*
X104240060Y-120009680D01*
G37*
G36*
X92969126Y-118351000D02*
X93938371Y-118703776D01*
X93664071Y-119457410D01*
X93664070Y-119457410D01*
X92346621Y-118977898D01*
X92446393Y-118703776D01*
X92620921Y-118224264D01*
X92620922Y-118224264D01*
X92969126Y-118351000D01*
X92969126Y-118351000D01*
G37*
G36*
X107553607Y-118703776D02*
X107653379Y-118977898D01*
X106335930Y-119457410D01*
X106335929Y-119457410D01*
X106061629Y-118703776D01*
X107030874Y-118351000D01*
X107379078Y-118224264D01*
X107379079Y-118224264D01*
X107553607Y-118703776D01*
X107553607Y-118703776D01*
G37*
G36*
X100701000Y-118351000D02*
X99299000Y-118351000D01*
X99299000Y-117549000D01*
X100701000Y-117549000D01*
X100701000Y-118351000D01*
X100701000Y-118351000D01*
G37*
G36*
X97642999Y-117404117D02*
X97503733Y-118193933D01*
X96123033Y-117950479D01*
X96262299Y-117160663D01*
X97642999Y-117404117D01*
X97642999Y-117404117D01*
G37*
G36*
X103876967Y-117950479D02*
X102496267Y-118193933D01*
X102357001Y-117404118D01*
X102357001Y-117404117D01*
X103737701Y-117160663D01*
X103876967Y-117950479D01*
X103876967Y-117950479D01*
G37*
G36*
X106835364Y-116730422D02*
X106935136Y-117004544D01*
X105617687Y-117484056D01*
X105617686Y-117484056D01*
X105343386Y-116730422D01*
X106660835Y-116250910D01*
X106660836Y-116250910D01*
X106835364Y-116730422D01*
X106835364Y-116730422D01*
G37*
G36*
X94656614Y-116730422D02*
X94382314Y-117484056D01*
X94382313Y-117484056D01*
X93064864Y-117004544D01*
X93164636Y-116730422D01*
X93339164Y-116250910D01*
X93339165Y-116250910D01*
X94656614Y-116730422D01*
X94656614Y-116730422D01*
G37*
G36*
X100701000Y-116451000D02*
X99299000Y-116451000D01*
X99299000Y-115649000D01*
X100701000Y-115649000D01*
X100701000Y-116451000D01*
X100701000Y-116451000D01*
G37*
G36*
X97972931Y-115532983D02*
X97972931Y-115532984D01*
X97833665Y-116322799D01*
X96452965Y-116079345D01*
X96528847Y-115649000D01*
X96592231Y-115289529D01*
X97972931Y-115532983D01*
X97972931Y-115532983D01*
G37*
G36*
X103471154Y-115649000D02*
X103547035Y-116079345D01*
X102166335Y-116322799D01*
X102027069Y-115532984D01*
X102027069Y-115532983D01*
X103407769Y-115289529D01*
X103471154Y-115649000D01*
X103471154Y-115649000D01*
G37*
G36*
X106185526Y-114945006D02*
X106285298Y-115219128D01*
X104967849Y-115698640D01*
X104967848Y-115698640D01*
X104693548Y-114945006D01*
X106010997Y-114465494D01*
X106010998Y-114465494D01*
X106185526Y-114945006D01*
X106185526Y-114945006D01*
G37*
G36*
X95306452Y-114945006D02*
X95032152Y-115698640D01*
X95032151Y-115698640D01*
X93714702Y-115219128D01*
X93814474Y-114945006D01*
X93989002Y-114465494D01*
X93989003Y-114465494D01*
X95306452Y-114945006D01*
X95306452Y-114945006D01*
G37*
G36*
X100701000Y-114351000D02*
X99299000Y-114351000D01*
X99299000Y-113549000D01*
X100701000Y-113549000D01*
X100701000Y-114351000D01*
X100701000Y-114351000D01*
G37*
G36*
X103182375Y-114011248D02*
X101801675Y-114254702D01*
X101662409Y-113464887D01*
X101662409Y-113464886D01*
X103043109Y-113221432D01*
X103182375Y-114011248D01*
X103182375Y-114011248D01*
G37*
G36*
X98337591Y-113464886D02*
X98337591Y-113464887D01*
X98291676Y-113725285D01*
X98198325Y-114254702D01*
X96817625Y-114011248D01*
X96956891Y-113221432D01*
X98337591Y-113464886D01*
X98337591Y-113464886D01*
G37*
G36*
X96024694Y-112971651D02*
X95750394Y-113725285D01*
X95750393Y-113725285D01*
X94432944Y-113245773D01*
X94532716Y-112971651D01*
X94707244Y-112492139D01*
X94707245Y-112492139D01*
X96024694Y-112971651D01*
X96024694Y-112971651D01*
G37*
G36*
X105467284Y-112971651D02*
X105567056Y-113245773D01*
X104249607Y-113725285D01*
X104249606Y-113725285D01*
X103975306Y-112971651D01*
X105292755Y-112492139D01*
X105292756Y-112492139D01*
X105467284Y-112971651D01*
X105467284Y-112971651D01*
G37*
G36*
X100701000Y-112451000D02*
X99299000Y-112451000D01*
X99299000Y-111649000D01*
X100701000Y-111649000D01*
X100701000Y-112451000D01*
X100701000Y-112451000D01*
G37*
G36*
X102817135Y-111939869D02*
X102852443Y-112140114D01*
X101471743Y-112383568D01*
X101332477Y-111593753D01*
X101332477Y-111593752D01*
X102713177Y-111350298D01*
X102817135Y-111939869D01*
X102817135Y-111939869D01*
G37*
G36*
X98667523Y-111593752D02*
X98528257Y-112383568D01*
X97147557Y-112140114D01*
X97182866Y-111939869D01*
X97286823Y-111350298D01*
X98667523Y-111593752D01*
X98667523Y-111593752D01*
G37*
G36*
X104817446Y-111186235D02*
X104917218Y-111460357D01*
X103599769Y-111939869D01*
X103599768Y-111939869D01*
X103325468Y-111186235D01*
X104642917Y-110706723D01*
X104642918Y-110706723D01*
X104817446Y-111186235D01*
X104817446Y-111186235D01*
G37*
G36*
X96674532Y-111186235D02*
X96400232Y-111939869D01*
X96400231Y-111939869D01*
X95082782Y-111460357D01*
X95182554Y-111186235D01*
X95357082Y-110706723D01*
X95357083Y-110706723D01*
X96674532Y-111186235D01*
X96674532Y-111186235D01*
G37*
G36*
X96751000Y-105651000D02*
X94999000Y-105651000D01*
X94999000Y-99949000D01*
X96751000Y-99949000D01*
X96751000Y-105651000D01*
X96751000Y-105651000D01*
G37*
G36*
X105001000Y-105651000D02*
X103249000Y-105651000D01*
X103249000Y-99949000D01*
X105001000Y-99949000D01*
X105001000Y-105651000D01*
X105001000Y-105651000D01*
G37*
M02*
