G04 #@! TF.GenerationSoftware,KiCad,Pcbnew,5.0.2-bee76a0~70~ubuntu18.04.1*
G04 #@! TF.CreationDate,2019-07-24T00:54:38+02:00*
G04 #@! TF.ProjectId,DummyLoad,44756d6d-794c-46f6-9164-2e6b69636164,1.1*
G04 #@! TF.SameCoordinates,Original*
G04 #@! TF.FileFunction,Soldermask,Top*
G04 #@! TF.FilePolarity,Negative*
%FSLAX46Y46*%
G04 Gerber Fmt 4.6, Leading zero omitted, Abs format (unit mm)*
G04 Created by KiCad (PCBNEW 5.0.2-bee76a0~70~ubuntu18.04.1) date Mi 24 Jul 2019 00:54:38 CEST*
%MOMM*%
%LPD*%
G01*
G04 APERTURE LIST*
%ADD10C,2.000000*%
%ADD11C,0.300000*%
%ADD12C,0.010000*%
%ADD13C,0.100000*%
G04 APERTURE END LIST*
D10*
X89000000Y-104000000D02*
G75*
G03X89000000Y-104000000I-2000000J0D01*
G01*
X89000000Y-136000000D02*
G75*
G03X89000000Y-136000000I-2000000J0D01*
G01*
X115000000Y-136000000D02*
G75*
G03X115000000Y-136000000I-2000000J0D01*
G01*
X115000000Y-104000000D02*
G75*
G03X115000000Y-104000000I-2000000J0D01*
G01*
D11*
X93678571Y-137000000D02*
X93607142Y-137142857D01*
X93535714Y-137214285D01*
X93392857Y-137285714D01*
X92964285Y-137285714D01*
X92821428Y-137214285D01*
X92750000Y-137142857D01*
X92678571Y-137000000D01*
X92678571Y-136785714D01*
X92750000Y-136642857D01*
X92821428Y-136571428D01*
X92964285Y-136500000D01*
X93392857Y-136500000D01*
X93535714Y-136571428D01*
X93607142Y-136642857D01*
X93678571Y-136785714D01*
X93678571Y-137000000D01*
X92678571Y-135214285D02*
X93678571Y-135214285D01*
X92678571Y-135857142D02*
X93464285Y-135857142D01*
X93607142Y-135785714D01*
X93678571Y-135642857D01*
X93678571Y-135428571D01*
X93607142Y-135285714D01*
X93535714Y-135214285D01*
X92678571Y-134714285D02*
X92678571Y-134142857D01*
X92178571Y-134500000D02*
X93464285Y-134500000D01*
X93607142Y-134428571D01*
X93678571Y-134285714D01*
X93678571Y-134142857D01*
X92678571Y-133642857D02*
X94178571Y-133642857D01*
X92750000Y-133642857D02*
X92678571Y-133500000D01*
X92678571Y-133214285D01*
X92750000Y-133071428D01*
X92821428Y-133000000D01*
X92964285Y-132928571D01*
X93392857Y-132928571D01*
X93535714Y-133000000D01*
X93607142Y-133071428D01*
X93678571Y-133214285D01*
X93678571Y-133500000D01*
X93607142Y-133642857D01*
X92678571Y-131642857D02*
X93678571Y-131642857D01*
X92678571Y-132285714D02*
X93464285Y-132285714D01*
X93607142Y-132214285D01*
X93678571Y-132071428D01*
X93678571Y-131857142D01*
X93607142Y-131714285D01*
X93535714Y-131642857D01*
X92678571Y-131142857D02*
X92678571Y-130571428D01*
X92178571Y-130928571D02*
X93464285Y-130928571D01*
X93607142Y-130857142D01*
X93678571Y-130714285D01*
X93678571Y-130571428D01*
X92678571Y-108464285D02*
X91678571Y-108464285D01*
X91178571Y-108464285D02*
X91250000Y-108535714D01*
X91321428Y-108464285D01*
X91250000Y-108392857D01*
X91178571Y-108464285D01*
X91321428Y-108464285D01*
X91678571Y-107750000D02*
X92678571Y-107750000D01*
X91821428Y-107750000D02*
X91750000Y-107678571D01*
X91678571Y-107535714D01*
X91678571Y-107321428D01*
X91750000Y-107178571D01*
X91892857Y-107107142D01*
X92678571Y-107107142D01*
X91678571Y-106392857D02*
X93178571Y-106392857D01*
X91750000Y-106392857D02*
X91678571Y-106250000D01*
X91678571Y-105964285D01*
X91750000Y-105821428D01*
X91821428Y-105750000D01*
X91964285Y-105678571D01*
X92392857Y-105678571D01*
X92535714Y-105750000D01*
X92607142Y-105821428D01*
X92678571Y-105964285D01*
X92678571Y-106250000D01*
X92607142Y-106392857D01*
X91678571Y-104392857D02*
X92678571Y-104392857D01*
X91678571Y-105035714D02*
X92464285Y-105035714D01*
X92607142Y-104964285D01*
X92678571Y-104821428D01*
X92678571Y-104607142D01*
X92607142Y-104464285D01*
X92535714Y-104392857D01*
X91678571Y-103892857D02*
X91678571Y-103321428D01*
X91178571Y-103678571D02*
X92464285Y-103678571D01*
X92607142Y-103607142D01*
X92678571Y-103464285D01*
X92678571Y-103321428D01*
D12*
G04 #@! TO.C,G\002A\002A\002A*
G36*
X87747400Y-108404000D02*
X87747400Y-120557900D01*
X86045600Y-120557900D01*
X86045600Y-120507100D01*
X87696600Y-120507100D01*
X87696600Y-112633100D01*
X86515500Y-112633100D01*
X86515500Y-112506100D01*
X87264800Y-112506100D01*
X87264800Y-112239400D01*
X87052075Y-112239330D01*
X86977239Y-112238519D01*
X86907836Y-112236326D01*
X86849357Y-112233030D01*
X86807295Y-112228913D01*
X86791604Y-112226000D01*
X86744635Y-112202496D01*
X86715603Y-112165440D01*
X86707963Y-112119372D01*
X86708252Y-112116490D01*
X86713760Y-112093573D01*
X86726320Y-112075797D01*
X86748854Y-112062445D01*
X86784284Y-112052800D01*
X86835532Y-112046144D01*
X86905521Y-112041760D01*
X86997173Y-112038930D01*
X87026675Y-112038327D01*
X87264800Y-112033821D01*
X87264800Y-111782200D01*
X87096525Y-111781945D01*
X86980118Y-111779866D01*
X86887008Y-111773660D01*
X86815345Y-111762789D01*
X86763278Y-111746712D01*
X86728960Y-111724892D01*
X86710539Y-111696788D01*
X86706000Y-111668114D01*
X86710336Y-111638031D01*
X86724923Y-111614218D01*
X86752125Y-111596028D01*
X86794308Y-111582813D01*
X86853838Y-111573926D01*
X86933080Y-111568718D01*
X87034399Y-111566541D01*
X87077475Y-111566374D01*
X87264800Y-111566300D01*
X87264800Y-111312300D01*
X87042550Y-111312300D01*
X87042550Y-111165704D01*
X87125396Y-111155917D01*
X87191246Y-111127894D01*
X87239419Y-111082141D01*
X87269234Y-111019167D01*
X87275409Y-110992000D01*
X87279876Y-110929279D01*
X87274075Y-110863999D01*
X87259467Y-110805700D01*
X87241142Y-110768648D01*
X87217571Y-110738730D01*
X87196250Y-110716489D01*
X87195542Y-110715893D01*
X87179125Y-110698357D01*
X87181506Y-110684167D01*
X87204866Y-110668481D01*
X87220350Y-110660808D01*
X87264800Y-110639611D01*
X87264800Y-110446251D01*
X87264800Y-110270900D01*
X87264800Y-110004200D01*
X87160025Y-110003981D01*
X87108302Y-110003462D01*
X87075471Y-110000857D01*
X87055023Y-109994195D01*
X87040450Y-109981506D01*
X87027329Y-109963806D01*
X86999409Y-109923851D01*
X87132104Y-109842414D01*
X87264800Y-109760977D01*
X87264800Y-109615889D01*
X87264133Y-109558593D01*
X87262322Y-109511971D01*
X87259648Y-109481052D01*
X87256646Y-109470800D01*
X87243932Y-109477374D01*
X87213325Y-109495687D01*
X87168224Y-109523632D01*
X87112028Y-109559100D01*
X87048135Y-109599983D01*
X87040902Y-109604643D01*
X86906219Y-109691479D01*
X86906219Y-109393645D01*
X86992036Y-109385235D01*
X87031816Y-109375676D01*
X87117326Y-109338639D01*
X87184849Y-109283675D01*
X87234358Y-109210818D01*
X87265826Y-109120103D01*
X87274670Y-109069000D01*
X87278971Y-108997479D01*
X87276293Y-108918605D01*
X87267477Y-108842350D01*
X87253364Y-108778684D01*
X87249123Y-108765950D01*
X87230579Y-108715150D01*
X87139739Y-108711419D01*
X87088852Y-108710419D01*
X87059880Y-108714921D01*
X87049419Y-108728417D01*
X87054066Y-108754399D01*
X87066416Y-108786625D01*
X87083644Y-108845589D01*
X87093218Y-108913604D01*
X87094134Y-108979343D01*
X87087473Y-109024543D01*
X87067068Y-109069301D01*
X87035561Y-109105137D01*
X86999516Y-109125515D01*
X86983687Y-109127900D01*
X86975253Y-109126444D01*
X86969095Y-109119786D01*
X86964857Y-109104494D01*
X86962185Y-109077136D01*
X86960722Y-109034279D01*
X86960112Y-108972492D01*
X86960000Y-108899300D01*
X86960000Y-108670700D01*
X86858657Y-108670700D01*
X86755968Y-108679178D01*
X86671359Y-108704942D01*
X86603847Y-108748490D01*
X86552454Y-108810320D01*
X86540145Y-108832287D01*
X86525326Y-108864767D01*
X86516072Y-108896692D01*
X86511143Y-108935567D01*
X86509302Y-108988894D01*
X86509150Y-109019950D01*
X86512965Y-109107645D01*
X86525749Y-109176826D01*
X86549511Y-109233408D01*
X86586257Y-109283307D01*
X86605194Y-109302868D01*
X86661125Y-109342008D01*
X86734269Y-109370924D01*
X86818132Y-109388505D01*
X86906219Y-109393645D01*
X86906219Y-109691479D01*
X86833313Y-109738485D01*
X86677581Y-109611591D01*
X86521850Y-109484697D01*
X86518157Y-109626974D01*
X86516336Y-109676931D01*
X86515486Y-109714455D01*
X86518055Y-109743337D01*
X86526490Y-109767365D01*
X86543238Y-109790327D01*
X86570747Y-109816014D01*
X86611464Y-109848214D01*
X86667836Y-109890716D01*
X86708224Y-109921242D01*
X86831098Y-110014649D01*
X86530424Y-110012600D01*
X86229750Y-110010550D01*
X86226130Y-110140725D01*
X86222511Y-110270900D01*
X87264800Y-110270900D01*
X87264800Y-110446251D01*
X86982225Y-110451561D01*
X86883630Y-110453780D01*
X86807136Y-110456446D01*
X86749443Y-110459817D01*
X86707253Y-110464153D01*
X86677266Y-110469712D01*
X86656184Y-110476752D01*
X86655200Y-110477196D01*
X86593273Y-110514641D01*
X86548399Y-110564003D01*
X86519169Y-110628103D01*
X86504172Y-110709760D01*
X86501424Y-110785001D01*
X86507677Y-110881716D01*
X86523596Y-110973454D01*
X86547484Y-111050535D01*
X86548296Y-111052497D01*
X86566094Y-111095094D01*
X86639222Y-111062981D01*
X86679215Y-111044600D01*
X86709764Y-111029055D01*
X86722747Y-111020852D01*
X86724300Y-111004718D01*
X86718890Y-110971239D01*
X86707671Y-110927136D01*
X86705326Y-110919252D01*
X86688579Y-110848366D01*
X86687560Y-110794881D01*
X86702707Y-110755915D01*
X86734254Y-110728701D01*
X86760075Y-110717468D01*
X86775175Y-110716847D01*
X86775269Y-110716937D01*
X86779466Y-110731910D01*
X86784916Y-110766362D01*
X86790778Y-110814457D01*
X86794232Y-110848373D01*
X86809938Y-110953321D01*
X86835639Y-111035767D01*
X86872304Y-111096951D01*
X86920905Y-111138112D01*
X86982412Y-111160493D01*
X87042550Y-111165704D01*
X87042550Y-111312300D01*
X86987662Y-111312300D01*
X86879454Y-111312916D01*
X86793273Y-111315193D01*
X86725768Y-111319775D01*
X86673585Y-111327304D01*
X86633373Y-111338424D01*
X86601779Y-111353779D01*
X86575452Y-111374012D01*
X86554840Y-111395378D01*
X86521954Y-111450551D01*
X86504614Y-111518786D01*
X86502881Y-111593011D01*
X86516819Y-111666151D01*
X86546488Y-111731136D01*
X86551827Y-111739075D01*
X86577409Y-111776958D01*
X86588817Y-111800882D01*
X86587297Y-111817073D01*
X86574096Y-111831758D01*
X86570914Y-111834441D01*
X86539052Y-111875010D01*
X86517642Y-111931048D01*
X86506575Y-111996473D01*
X86505746Y-112065205D01*
X86515048Y-112131163D01*
X86534374Y-112188268D01*
X86563616Y-112230440D01*
X86578071Y-112241768D01*
X86599748Y-112258807D01*
X86599454Y-112271942D01*
X86575909Y-112284593D01*
X86559950Y-112290200D01*
X86515500Y-112304870D01*
X86515500Y-112506100D01*
X86515500Y-112633100D01*
X86045600Y-112633100D01*
X86045600Y-120507100D01*
X86045600Y-120557900D01*
X85982100Y-120557900D01*
X85982100Y-108404000D01*
X87747400Y-108404000D01*
X87747400Y-108404000D01*
G37*
X87747400Y-108404000D02*
X87747400Y-120557900D01*
X86045600Y-120557900D01*
X86045600Y-120507100D01*
X87696600Y-120507100D01*
X87696600Y-112633100D01*
X86515500Y-112633100D01*
X86515500Y-112506100D01*
X87264800Y-112506100D01*
X87264800Y-112239400D01*
X87052075Y-112239330D01*
X86977239Y-112238519D01*
X86907836Y-112236326D01*
X86849357Y-112233030D01*
X86807295Y-112228913D01*
X86791604Y-112226000D01*
X86744635Y-112202496D01*
X86715603Y-112165440D01*
X86707963Y-112119372D01*
X86708252Y-112116490D01*
X86713760Y-112093573D01*
X86726320Y-112075797D01*
X86748854Y-112062445D01*
X86784284Y-112052800D01*
X86835532Y-112046144D01*
X86905521Y-112041760D01*
X86997173Y-112038930D01*
X87026675Y-112038327D01*
X87264800Y-112033821D01*
X87264800Y-111782200D01*
X87096525Y-111781945D01*
X86980118Y-111779866D01*
X86887008Y-111773660D01*
X86815345Y-111762789D01*
X86763278Y-111746712D01*
X86728960Y-111724892D01*
X86710539Y-111696788D01*
X86706000Y-111668114D01*
X86710336Y-111638031D01*
X86724923Y-111614218D01*
X86752125Y-111596028D01*
X86794308Y-111582813D01*
X86853838Y-111573926D01*
X86933080Y-111568718D01*
X87034399Y-111566541D01*
X87077475Y-111566374D01*
X87264800Y-111566300D01*
X87264800Y-111312300D01*
X87042550Y-111312300D01*
X87042550Y-111165704D01*
X87125396Y-111155917D01*
X87191246Y-111127894D01*
X87239419Y-111082141D01*
X87269234Y-111019167D01*
X87275409Y-110992000D01*
X87279876Y-110929279D01*
X87274075Y-110863999D01*
X87259467Y-110805700D01*
X87241142Y-110768648D01*
X87217571Y-110738730D01*
X87196250Y-110716489D01*
X87195542Y-110715893D01*
X87179125Y-110698357D01*
X87181506Y-110684167D01*
X87204866Y-110668481D01*
X87220350Y-110660808D01*
X87264800Y-110639611D01*
X87264800Y-110446251D01*
X87264800Y-110270900D01*
X87264800Y-110004200D01*
X87160025Y-110003981D01*
X87108302Y-110003462D01*
X87075471Y-110000857D01*
X87055023Y-109994195D01*
X87040450Y-109981506D01*
X87027329Y-109963806D01*
X86999409Y-109923851D01*
X87132104Y-109842414D01*
X87264800Y-109760977D01*
X87264800Y-109615889D01*
X87264133Y-109558593D01*
X87262322Y-109511971D01*
X87259648Y-109481052D01*
X87256646Y-109470800D01*
X87243932Y-109477374D01*
X87213325Y-109495687D01*
X87168224Y-109523632D01*
X87112028Y-109559100D01*
X87048135Y-109599983D01*
X87040902Y-109604643D01*
X86906219Y-109691479D01*
X86906219Y-109393645D01*
X86992036Y-109385235D01*
X87031816Y-109375676D01*
X87117326Y-109338639D01*
X87184849Y-109283675D01*
X87234358Y-109210818D01*
X87265826Y-109120103D01*
X87274670Y-109069000D01*
X87278971Y-108997479D01*
X87276293Y-108918605D01*
X87267477Y-108842350D01*
X87253364Y-108778684D01*
X87249123Y-108765950D01*
X87230579Y-108715150D01*
X87139739Y-108711419D01*
X87088852Y-108710419D01*
X87059880Y-108714921D01*
X87049419Y-108728417D01*
X87054066Y-108754399D01*
X87066416Y-108786625D01*
X87083644Y-108845589D01*
X87093218Y-108913604D01*
X87094134Y-108979343D01*
X87087473Y-109024543D01*
X87067068Y-109069301D01*
X87035561Y-109105137D01*
X86999516Y-109125515D01*
X86983687Y-109127900D01*
X86975253Y-109126444D01*
X86969095Y-109119786D01*
X86964857Y-109104494D01*
X86962185Y-109077136D01*
X86960722Y-109034279D01*
X86960112Y-108972492D01*
X86960000Y-108899300D01*
X86960000Y-108670700D01*
X86858657Y-108670700D01*
X86755968Y-108679178D01*
X86671359Y-108704942D01*
X86603847Y-108748490D01*
X86552454Y-108810320D01*
X86540145Y-108832287D01*
X86525326Y-108864767D01*
X86516072Y-108896692D01*
X86511143Y-108935567D01*
X86509302Y-108988894D01*
X86509150Y-109019950D01*
X86512965Y-109107645D01*
X86525749Y-109176826D01*
X86549511Y-109233408D01*
X86586257Y-109283307D01*
X86605194Y-109302868D01*
X86661125Y-109342008D01*
X86734269Y-109370924D01*
X86818132Y-109388505D01*
X86906219Y-109393645D01*
X86906219Y-109691479D01*
X86833313Y-109738485D01*
X86677581Y-109611591D01*
X86521850Y-109484697D01*
X86518157Y-109626974D01*
X86516336Y-109676931D01*
X86515486Y-109714455D01*
X86518055Y-109743337D01*
X86526490Y-109767365D01*
X86543238Y-109790327D01*
X86570747Y-109816014D01*
X86611464Y-109848214D01*
X86667836Y-109890716D01*
X86708224Y-109921242D01*
X86831098Y-110014649D01*
X86530424Y-110012600D01*
X86229750Y-110010550D01*
X86226130Y-110140725D01*
X86222511Y-110270900D01*
X87264800Y-110270900D01*
X87264800Y-110446251D01*
X86982225Y-110451561D01*
X86883630Y-110453780D01*
X86807136Y-110456446D01*
X86749443Y-110459817D01*
X86707253Y-110464153D01*
X86677266Y-110469712D01*
X86656184Y-110476752D01*
X86655200Y-110477196D01*
X86593273Y-110514641D01*
X86548399Y-110564003D01*
X86519169Y-110628103D01*
X86504172Y-110709760D01*
X86501424Y-110785001D01*
X86507677Y-110881716D01*
X86523596Y-110973454D01*
X86547484Y-111050535D01*
X86548296Y-111052497D01*
X86566094Y-111095094D01*
X86639222Y-111062981D01*
X86679215Y-111044600D01*
X86709764Y-111029055D01*
X86722747Y-111020852D01*
X86724300Y-111004718D01*
X86718890Y-110971239D01*
X86707671Y-110927136D01*
X86705326Y-110919252D01*
X86688579Y-110848366D01*
X86687560Y-110794881D01*
X86702707Y-110755915D01*
X86734254Y-110728701D01*
X86760075Y-110717468D01*
X86775175Y-110716847D01*
X86775269Y-110716937D01*
X86779466Y-110731910D01*
X86784916Y-110766362D01*
X86790778Y-110814457D01*
X86794232Y-110848373D01*
X86809938Y-110953321D01*
X86835639Y-111035767D01*
X86872304Y-111096951D01*
X86920905Y-111138112D01*
X86982412Y-111160493D01*
X87042550Y-111165704D01*
X87042550Y-111312300D01*
X86987662Y-111312300D01*
X86879454Y-111312916D01*
X86793273Y-111315193D01*
X86725768Y-111319775D01*
X86673585Y-111327304D01*
X86633373Y-111338424D01*
X86601779Y-111353779D01*
X86575452Y-111374012D01*
X86554840Y-111395378D01*
X86521954Y-111450551D01*
X86504614Y-111518786D01*
X86502881Y-111593011D01*
X86516819Y-111666151D01*
X86546488Y-111731136D01*
X86551827Y-111739075D01*
X86577409Y-111776958D01*
X86588817Y-111800882D01*
X86587297Y-111817073D01*
X86574096Y-111831758D01*
X86570914Y-111834441D01*
X86539052Y-111875010D01*
X86517642Y-111931048D01*
X86506575Y-111996473D01*
X86505746Y-112065205D01*
X86515048Y-112131163D01*
X86534374Y-112188268D01*
X86563616Y-112230440D01*
X86578071Y-112241768D01*
X86599748Y-112258807D01*
X86599454Y-112271942D01*
X86575909Y-112284593D01*
X86559950Y-112290200D01*
X86515500Y-112304870D01*
X86515500Y-112506100D01*
X86515500Y-112633100D01*
X86045600Y-112633100D01*
X86045600Y-120507100D01*
X86045600Y-120557900D01*
X85982100Y-120557900D01*
X85982100Y-108404000D01*
X87747400Y-108404000D01*
G36*
X86506245Y-119983020D02*
X86508975Y-119900753D01*
X86509663Y-119881625D01*
X86518738Y-119630800D01*
X86578586Y-119630800D01*
X86615248Y-119632005D01*
X86635240Y-119639486D01*
X86647291Y-119659049D01*
X86655262Y-119681791D01*
X86667950Y-119713787D01*
X86680818Y-119726151D01*
X86698570Y-119724325D01*
X86757279Y-119716234D01*
X86822883Y-119723752D01*
X86883456Y-119745436D01*
X86886609Y-119747122D01*
X86941187Y-119791375D01*
X86981874Y-119856631D01*
X87008486Y-119942508D01*
X87019205Y-120021597D01*
X87023946Y-120073640D01*
X87029277Y-120105149D01*
X87036654Y-120120976D01*
X87047531Y-120125973D01*
X87050540Y-120126100D01*
X87063474Y-120123545D01*
X87072885Y-120113350D01*
X87079644Y-120091719D01*
X87084624Y-120054858D01*
X87088696Y-119998973D01*
X87091385Y-119948300D01*
X87096948Y-119881358D01*
X87106076Y-119821626D01*
X87117417Y-119777675D01*
X87118875Y-119773837D01*
X87156286Y-119709042D01*
X87206963Y-119665107D01*
X87268664Y-119642780D01*
X87339147Y-119642805D01*
X87416169Y-119665930D01*
X87427562Y-119671157D01*
X87484148Y-119711973D01*
X87530002Y-119773899D01*
X87564179Y-119854605D01*
X87585738Y-119951763D01*
X87593734Y-120063044D01*
X87593700Y-120081376D01*
X87592026Y-120137767D01*
X87588691Y-120188721D01*
X87584312Y-120225773D01*
X87582605Y-120234050D01*
X87554103Y-120313127D01*
X87514669Y-120369651D01*
X87463541Y-120404346D01*
X87399957Y-120417936D01*
X87388480Y-120418200D01*
X87379334Y-120416095D01*
X87379334Y-120197961D01*
X87404127Y-120182461D01*
X87423902Y-120144568D01*
X87439722Y-120082930D01*
X87441300Y-120074458D01*
X87439875Y-120059063D01*
X87434857Y-120026405D01*
X87428833Y-119991908D01*
X87415144Y-119941839D01*
X87395292Y-119899030D01*
X87372775Y-119869546D01*
X87352393Y-119859400D01*
X87329846Y-119871643D01*
X87312112Y-119907185D01*
X87299967Y-119964250D01*
X87297577Y-119984827D01*
X87294867Y-120066001D01*
X87304049Y-120129412D01*
X87324652Y-120173145D01*
X87348460Y-120192417D01*
X87379334Y-120197961D01*
X87379334Y-120416095D01*
X87342470Y-120407609D01*
X87295497Y-120380181D01*
X87256575Y-120342439D01*
X87237112Y-120308706D01*
X87222111Y-120276036D01*
X87208269Y-120267655D01*
X87193391Y-120282675D01*
X87189532Y-120289459D01*
X87169149Y-120310944D01*
X87138285Y-120329099D01*
X87090018Y-120336769D01*
X87044822Y-120320303D01*
X87006111Y-120280965D01*
X87005426Y-120279953D01*
X86981136Y-120243813D01*
X86935643Y-120291587D01*
X86875643Y-120338104D01*
X86806555Y-120360994D01*
X86756368Y-120360591D01*
X86756368Y-120113400D01*
X86813907Y-120106087D01*
X86852266Y-120084784D01*
X86870010Y-120050445D01*
X86871100Y-120037200D01*
X86859915Y-119998246D01*
X86842874Y-119980771D01*
X86802925Y-119964843D01*
X86754065Y-119961725D01*
X86705500Y-119970287D01*
X86666437Y-119989399D01*
X86652219Y-120004177D01*
X86641838Y-120037983D01*
X86653044Y-120069610D01*
X86682085Y-120095122D01*
X86725209Y-120110584D01*
X86756368Y-120113400D01*
X86756368Y-120360591D01*
X86728015Y-120360363D01*
X86709218Y-120357034D01*
X86635057Y-120332241D01*
X86579141Y-120290864D01*
X86538684Y-120230560D01*
X86527582Y-120204340D01*
X86518332Y-120178213D01*
X86511681Y-120153557D01*
X86507387Y-120126041D01*
X86505210Y-120091333D01*
X86504909Y-120045104D01*
X86506245Y-119983020D01*
X86506245Y-119983020D01*
G37*
X86506245Y-119983020D02*
X86508975Y-119900753D01*
X86509663Y-119881625D01*
X86518738Y-119630800D01*
X86578586Y-119630800D01*
X86615248Y-119632005D01*
X86635240Y-119639486D01*
X86647291Y-119659049D01*
X86655262Y-119681791D01*
X86667950Y-119713787D01*
X86680818Y-119726151D01*
X86698570Y-119724325D01*
X86757279Y-119716234D01*
X86822883Y-119723752D01*
X86883456Y-119745436D01*
X86886609Y-119747122D01*
X86941187Y-119791375D01*
X86981874Y-119856631D01*
X87008486Y-119942508D01*
X87019205Y-120021597D01*
X87023946Y-120073640D01*
X87029277Y-120105149D01*
X87036654Y-120120976D01*
X87047531Y-120125973D01*
X87050540Y-120126100D01*
X87063474Y-120123545D01*
X87072885Y-120113350D01*
X87079644Y-120091719D01*
X87084624Y-120054858D01*
X87088696Y-119998973D01*
X87091385Y-119948300D01*
X87096948Y-119881358D01*
X87106076Y-119821626D01*
X87117417Y-119777675D01*
X87118875Y-119773837D01*
X87156286Y-119709042D01*
X87206963Y-119665107D01*
X87268664Y-119642780D01*
X87339147Y-119642805D01*
X87416169Y-119665930D01*
X87427562Y-119671157D01*
X87484148Y-119711973D01*
X87530002Y-119773899D01*
X87564179Y-119854605D01*
X87585738Y-119951763D01*
X87593734Y-120063044D01*
X87593700Y-120081376D01*
X87592026Y-120137767D01*
X87588691Y-120188721D01*
X87584312Y-120225773D01*
X87582605Y-120234050D01*
X87554103Y-120313127D01*
X87514669Y-120369651D01*
X87463541Y-120404346D01*
X87399957Y-120417936D01*
X87388480Y-120418200D01*
X87379334Y-120416095D01*
X87379334Y-120197961D01*
X87404127Y-120182461D01*
X87423902Y-120144568D01*
X87439722Y-120082930D01*
X87441300Y-120074458D01*
X87439875Y-120059063D01*
X87434857Y-120026405D01*
X87428833Y-119991908D01*
X87415144Y-119941839D01*
X87395292Y-119899030D01*
X87372775Y-119869546D01*
X87352393Y-119859400D01*
X87329846Y-119871643D01*
X87312112Y-119907185D01*
X87299967Y-119964250D01*
X87297577Y-119984827D01*
X87294867Y-120066001D01*
X87304049Y-120129412D01*
X87324652Y-120173145D01*
X87348460Y-120192417D01*
X87379334Y-120197961D01*
X87379334Y-120416095D01*
X87342470Y-120407609D01*
X87295497Y-120380181D01*
X87256575Y-120342439D01*
X87237112Y-120308706D01*
X87222111Y-120276036D01*
X87208269Y-120267655D01*
X87193391Y-120282675D01*
X87189532Y-120289459D01*
X87169149Y-120310944D01*
X87138285Y-120329099D01*
X87090018Y-120336769D01*
X87044822Y-120320303D01*
X87006111Y-120280965D01*
X87005426Y-120279953D01*
X86981136Y-120243813D01*
X86935643Y-120291587D01*
X86875643Y-120338104D01*
X86806555Y-120360994D01*
X86756368Y-120360591D01*
X86756368Y-120113400D01*
X86813907Y-120106087D01*
X86852266Y-120084784D01*
X86870010Y-120050445D01*
X86871100Y-120037200D01*
X86859915Y-119998246D01*
X86842874Y-119980771D01*
X86802925Y-119964843D01*
X86754065Y-119961725D01*
X86705500Y-119970287D01*
X86666437Y-119989399D01*
X86652219Y-120004177D01*
X86641838Y-120037983D01*
X86653044Y-120069610D01*
X86682085Y-120095122D01*
X86725209Y-120110584D01*
X86756368Y-120113400D01*
X86756368Y-120360591D01*
X86728015Y-120360363D01*
X86709218Y-120357034D01*
X86635057Y-120332241D01*
X86579141Y-120290864D01*
X86538684Y-120230560D01*
X86527582Y-120204340D01*
X86518332Y-120178213D01*
X86511681Y-120153557D01*
X86507387Y-120126041D01*
X86505210Y-120091333D01*
X86504909Y-120045104D01*
X86506245Y-119983020D01*
G36*
X86505329Y-119137032D02*
X86518359Y-119042008D01*
X86546362Y-118965281D01*
X86590881Y-118905420D01*
X86653459Y-118860996D01*
X86735640Y-118830579D01*
X86838966Y-118812739D01*
X86857234Y-118810985D01*
X86960000Y-118802021D01*
X86960000Y-119038611D01*
X86960142Y-119121608D01*
X86960796Y-119182581D01*
X86962299Y-119224904D01*
X86964988Y-119251953D01*
X86969202Y-119267102D01*
X86975278Y-119273726D01*
X86983555Y-119275200D01*
X86983687Y-119275200D01*
X87018797Y-119264083D01*
X87053507Y-119235205D01*
X87080624Y-119195283D01*
X87087553Y-119178273D01*
X87095654Y-119128852D01*
X87094540Y-119065171D01*
X87084958Y-118996337D01*
X87067650Y-118931458D01*
X87067287Y-118930423D01*
X87055950Y-118895794D01*
X87049479Y-118871192D01*
X87048900Y-118866647D01*
X87060514Y-118861442D01*
X87091140Y-118858548D01*
X87134448Y-118858516D01*
X87139921Y-118858719D01*
X87230942Y-118862450D01*
X87253236Y-118925950D01*
X87267223Y-118985693D01*
X87274802Y-119060960D01*
X87275975Y-119142697D01*
X87270742Y-119221849D01*
X87259103Y-119289363D01*
X87253207Y-119309482D01*
X87214173Y-119391694D01*
X87159042Y-119455164D01*
X87086866Y-119500575D01*
X86996699Y-119528608D01*
X86937485Y-119537017D01*
X86826760Y-119537512D01*
X86784315Y-119528855D01*
X86784315Y-119270834D01*
X86790291Y-119261038D01*
X86793516Y-119236585D01*
X86794769Y-119193241D01*
X86794900Y-119160900D01*
X86794381Y-119105736D01*
X86792305Y-119071725D01*
X86787895Y-119054631D01*
X86780371Y-119050219D01*
X86774811Y-119051592D01*
X86750615Y-119058445D01*
X86743061Y-119059300D01*
X86718240Y-119070618D01*
X86696467Y-119099201D01*
X86682812Y-119136995D01*
X86680600Y-119158506D01*
X86687404Y-119196922D01*
X86704514Y-119232337D01*
X86726978Y-119256570D01*
X86743556Y-119262500D01*
X86764334Y-119266670D01*
X86774811Y-119270209D01*
X86784315Y-119270834D01*
X86784315Y-119528855D01*
X86730412Y-119517861D01*
X86649589Y-119479127D01*
X86585442Y-119422377D01*
X86539122Y-119348673D01*
X86511778Y-119259080D01*
X86504561Y-119154664D01*
X86505329Y-119137032D01*
X86505329Y-119137032D01*
G37*
X86505329Y-119137032D02*
X86518359Y-119042008D01*
X86546362Y-118965281D01*
X86590881Y-118905420D01*
X86653459Y-118860996D01*
X86735640Y-118830579D01*
X86838966Y-118812739D01*
X86857234Y-118810985D01*
X86960000Y-118802021D01*
X86960000Y-119038611D01*
X86960142Y-119121608D01*
X86960796Y-119182581D01*
X86962299Y-119224904D01*
X86964988Y-119251953D01*
X86969202Y-119267102D01*
X86975278Y-119273726D01*
X86983555Y-119275200D01*
X86983687Y-119275200D01*
X87018797Y-119264083D01*
X87053507Y-119235205D01*
X87080624Y-119195283D01*
X87087553Y-119178273D01*
X87095654Y-119128852D01*
X87094540Y-119065171D01*
X87084958Y-118996337D01*
X87067650Y-118931458D01*
X87067287Y-118930423D01*
X87055950Y-118895794D01*
X87049479Y-118871192D01*
X87048900Y-118866647D01*
X87060514Y-118861442D01*
X87091140Y-118858548D01*
X87134448Y-118858516D01*
X87139921Y-118858719D01*
X87230942Y-118862450D01*
X87253236Y-118925950D01*
X87267223Y-118985693D01*
X87274802Y-119060960D01*
X87275975Y-119142697D01*
X87270742Y-119221849D01*
X87259103Y-119289363D01*
X87253207Y-119309482D01*
X87214173Y-119391694D01*
X87159042Y-119455164D01*
X87086866Y-119500575D01*
X86996699Y-119528608D01*
X86937485Y-119537017D01*
X86826760Y-119537512D01*
X86784315Y-119528855D01*
X86784315Y-119270834D01*
X86790291Y-119261038D01*
X86793516Y-119236585D01*
X86794769Y-119193241D01*
X86794900Y-119160900D01*
X86794381Y-119105736D01*
X86792305Y-119071725D01*
X86787895Y-119054631D01*
X86780371Y-119050219D01*
X86774811Y-119051592D01*
X86750615Y-119058445D01*
X86743061Y-119059300D01*
X86718240Y-119070618D01*
X86696467Y-119099201D01*
X86682812Y-119136995D01*
X86680600Y-119158506D01*
X86687404Y-119196922D01*
X86704514Y-119232337D01*
X86726978Y-119256570D01*
X86743556Y-119262500D01*
X86764334Y-119266670D01*
X86774811Y-119270209D01*
X86784315Y-119270834D01*
X86784315Y-119528855D01*
X86730412Y-119517861D01*
X86649589Y-119479127D01*
X86585442Y-119422377D01*
X86539122Y-119348673D01*
X86511778Y-119259080D01*
X86504561Y-119154664D01*
X86505329Y-119137032D01*
G36*
X86505109Y-117339338D02*
X86521562Y-117258127D01*
X86527391Y-117241335D01*
X86562792Y-117169986D01*
X86609989Y-117116205D01*
X86671820Y-117078236D01*
X86751127Y-117054323D01*
X86848295Y-117042846D01*
X86960000Y-117036477D01*
X86960000Y-117273189D01*
X86960386Y-117347572D01*
X86961463Y-117412373D01*
X86963103Y-117463652D01*
X86965179Y-117497473D01*
X86967564Y-117509897D01*
X86967605Y-117509900D01*
X86983060Y-117504938D01*
X87011351Y-117492714D01*
X87017418Y-117489872D01*
X87060056Y-117456114D01*
X87086295Y-117403573D01*
X87095815Y-117333131D01*
X87093234Y-117281356D01*
X87085737Y-117230287D01*
X87075312Y-117182857D01*
X87066689Y-117155925D01*
X87054871Y-117124500D01*
X87049032Y-117103140D01*
X87048900Y-117101393D01*
X87060521Y-117096189D01*
X87091190Y-117093273D01*
X87134614Y-117093189D01*
X87140975Y-117093419D01*
X87233050Y-117097150D01*
X87254719Y-117160650D01*
X87268760Y-117222472D01*
X87275945Y-117299172D01*
X87276287Y-117381238D01*
X87269800Y-117459155D01*
X87256498Y-117523408D01*
X87254161Y-117530575D01*
X87227357Y-117596562D01*
X87197039Y-117644880D01*
X87158115Y-117683210D01*
X87147586Y-117691290D01*
X87069281Y-117734287D01*
X86978655Y-117759607D01*
X86881671Y-117767200D01*
X86794900Y-117758126D01*
X86794900Y-117499954D01*
X86794900Y-117390627D01*
X86794373Y-117337565D01*
X86792087Y-117305011D01*
X86786984Y-117288081D01*
X86778007Y-117281894D01*
X86771212Y-117281300D01*
X86745036Y-117288857D01*
X86714746Y-117307088D01*
X86714062Y-117307622D01*
X86686872Y-117343052D01*
X86678880Y-117385921D01*
X86688353Y-117429283D01*
X86713557Y-117466189D01*
X86752760Y-117489691D01*
X86759975Y-117491686D01*
X86794900Y-117499954D01*
X86794900Y-117758126D01*
X86784296Y-117757017D01*
X86692493Y-117729008D01*
X86629818Y-117695570D01*
X86581451Y-117649467D01*
X86543546Y-117585242D01*
X86517353Y-117508445D01*
X86504123Y-117424627D01*
X86505109Y-117339338D01*
X86505109Y-117339338D01*
G37*
X86505109Y-117339338D02*
X86521562Y-117258127D01*
X86527391Y-117241335D01*
X86562792Y-117169986D01*
X86609989Y-117116205D01*
X86671820Y-117078236D01*
X86751127Y-117054323D01*
X86848295Y-117042846D01*
X86960000Y-117036477D01*
X86960000Y-117273189D01*
X86960386Y-117347572D01*
X86961463Y-117412373D01*
X86963103Y-117463652D01*
X86965179Y-117497473D01*
X86967564Y-117509897D01*
X86967605Y-117509900D01*
X86983060Y-117504938D01*
X87011351Y-117492714D01*
X87017418Y-117489872D01*
X87060056Y-117456114D01*
X87086295Y-117403573D01*
X87095815Y-117333131D01*
X87093234Y-117281356D01*
X87085737Y-117230287D01*
X87075312Y-117182857D01*
X87066689Y-117155925D01*
X87054871Y-117124500D01*
X87049032Y-117103140D01*
X87048900Y-117101393D01*
X87060521Y-117096189D01*
X87091190Y-117093273D01*
X87134614Y-117093189D01*
X87140975Y-117093419D01*
X87233050Y-117097150D01*
X87254719Y-117160650D01*
X87268760Y-117222472D01*
X87275945Y-117299172D01*
X87276287Y-117381238D01*
X87269800Y-117459155D01*
X87256498Y-117523408D01*
X87254161Y-117530575D01*
X87227357Y-117596562D01*
X87197039Y-117644880D01*
X87158115Y-117683210D01*
X87147586Y-117691290D01*
X87069281Y-117734287D01*
X86978655Y-117759607D01*
X86881671Y-117767200D01*
X86794900Y-117758126D01*
X86794900Y-117499954D01*
X86794900Y-117390627D01*
X86794373Y-117337565D01*
X86792087Y-117305011D01*
X86786984Y-117288081D01*
X86778007Y-117281894D01*
X86771212Y-117281300D01*
X86745036Y-117288857D01*
X86714746Y-117307088D01*
X86714062Y-117307622D01*
X86686872Y-117343052D01*
X86678880Y-117385921D01*
X86688353Y-117429283D01*
X86713557Y-117466189D01*
X86752760Y-117489691D01*
X86759975Y-117491686D01*
X86794900Y-117499954D01*
X86794900Y-117758126D01*
X86784296Y-117757017D01*
X86692493Y-117729008D01*
X86629818Y-117695570D01*
X86581451Y-117649467D01*
X86543546Y-117585242D01*
X86517353Y-117508445D01*
X86504123Y-117424627D01*
X86505109Y-117339338D01*
G36*
X86513650Y-115779707D02*
X86532337Y-115711530D01*
X86562932Y-115659326D01*
X86607366Y-115619036D01*
X86629959Y-115605060D01*
X86649172Y-115594778D01*
X86667764Y-115586921D01*
X86689441Y-115581105D01*
X86717911Y-115576943D01*
X86756880Y-115574052D01*
X86810056Y-115572045D01*
X86881145Y-115570538D01*
X86973854Y-115569145D01*
X86975875Y-115569117D01*
X87264800Y-115565084D01*
X87264800Y-115659651D01*
X87264361Y-115708104D01*
X87261586Y-115737456D01*
X87254288Y-115754003D01*
X87240279Y-115764046D01*
X87226427Y-115770113D01*
X87193119Y-115786775D01*
X87182957Y-115803233D01*
X87194480Y-115825576D01*
X87209126Y-115842148D01*
X87237145Y-115878179D01*
X87259231Y-115916747D01*
X87260133Y-115918818D01*
X87271306Y-115962839D01*
X87276182Y-116020398D01*
X87274788Y-116080895D01*
X87267149Y-116133727D01*
X87259572Y-116157350D01*
X87222687Y-116214193D01*
X87170049Y-116252671D01*
X87100318Y-116273510D01*
X87037251Y-116278000D01*
X87020617Y-116275766D01*
X87020617Y-116011106D01*
X87064948Y-116001740D01*
X87091134Y-115976280D01*
X87097705Y-115937793D01*
X87083193Y-115889343D01*
X87081035Y-115885047D01*
X87051820Y-115852671D01*
X87007152Y-115829611D01*
X86956596Y-115820801D01*
X86956489Y-115820800D01*
X86941756Y-115823548D01*
X86935478Y-115836005D01*
X86935731Y-115864496D01*
X86937400Y-115883579D01*
X86949948Y-115946283D01*
X86972996Y-115988745D01*
X87005487Y-116009347D01*
X87020617Y-116011106D01*
X87020617Y-116275766D01*
X86963433Y-116268082D01*
X86902941Y-116237287D01*
X86855969Y-116188681D01*
X86833702Y-116146427D01*
X86814516Y-116087945D01*
X86800798Y-116022397D01*
X86794935Y-115958944D01*
X86794877Y-115954150D01*
X86791178Y-115890532D01*
X86780418Y-115850640D01*
X86761939Y-115833619D01*
X86735083Y-115838617D01*
X86715568Y-115851147D01*
X86692084Y-115883079D01*
X86685091Y-115931465D01*
X86694523Y-115997507D01*
X86705325Y-116037348D01*
X86718018Y-116081567D01*
X86726303Y-116115268D01*
X86728658Y-116132135D01*
X86728365Y-116132868D01*
X86715245Y-116139985D01*
X86685485Y-116154069D01*
X86648775Y-116170622D01*
X86607651Y-116188042D01*
X86583099Y-116195310D01*
X86568800Y-116193286D01*
X86558496Y-116182911D01*
X86539593Y-116143962D01*
X86523672Y-116086267D01*
X86511853Y-116016413D01*
X86505256Y-115940986D01*
X86504940Y-115867917D01*
X86513650Y-115779707D01*
X86513650Y-115779707D01*
G37*
X86513650Y-115779707D02*
X86532337Y-115711530D01*
X86562932Y-115659326D01*
X86607366Y-115619036D01*
X86629959Y-115605060D01*
X86649172Y-115594778D01*
X86667764Y-115586921D01*
X86689441Y-115581105D01*
X86717911Y-115576943D01*
X86756880Y-115574052D01*
X86810056Y-115572045D01*
X86881145Y-115570538D01*
X86973854Y-115569145D01*
X86975875Y-115569117D01*
X87264800Y-115565084D01*
X87264800Y-115659651D01*
X87264361Y-115708104D01*
X87261586Y-115737456D01*
X87254288Y-115754003D01*
X87240279Y-115764046D01*
X87226427Y-115770113D01*
X87193119Y-115786775D01*
X87182957Y-115803233D01*
X87194480Y-115825576D01*
X87209126Y-115842148D01*
X87237145Y-115878179D01*
X87259231Y-115916747D01*
X87260133Y-115918818D01*
X87271306Y-115962839D01*
X87276182Y-116020398D01*
X87274788Y-116080895D01*
X87267149Y-116133727D01*
X87259572Y-116157350D01*
X87222687Y-116214193D01*
X87170049Y-116252671D01*
X87100318Y-116273510D01*
X87037251Y-116278000D01*
X87020617Y-116275766D01*
X87020617Y-116011106D01*
X87064948Y-116001740D01*
X87091134Y-115976280D01*
X87097705Y-115937793D01*
X87083193Y-115889343D01*
X87081035Y-115885047D01*
X87051820Y-115852671D01*
X87007152Y-115829611D01*
X86956596Y-115820801D01*
X86956489Y-115820800D01*
X86941756Y-115823548D01*
X86935478Y-115836005D01*
X86935731Y-115864496D01*
X86937400Y-115883579D01*
X86949948Y-115946283D01*
X86972996Y-115988745D01*
X87005487Y-116009347D01*
X87020617Y-116011106D01*
X87020617Y-116275766D01*
X86963433Y-116268082D01*
X86902941Y-116237287D01*
X86855969Y-116188681D01*
X86833702Y-116146427D01*
X86814516Y-116087945D01*
X86800798Y-116022397D01*
X86794935Y-115958944D01*
X86794877Y-115954150D01*
X86791178Y-115890532D01*
X86780418Y-115850640D01*
X86761939Y-115833619D01*
X86735083Y-115838617D01*
X86715568Y-115851147D01*
X86692084Y-115883079D01*
X86685091Y-115931465D01*
X86694523Y-115997507D01*
X86705325Y-116037348D01*
X86718018Y-116081567D01*
X86726303Y-116115268D01*
X86728658Y-116132135D01*
X86728365Y-116132868D01*
X86715245Y-116139985D01*
X86685485Y-116154069D01*
X86648775Y-116170622D01*
X86607651Y-116188042D01*
X86583099Y-116195310D01*
X86568800Y-116193286D01*
X86558496Y-116182911D01*
X86539593Y-116143962D01*
X86523672Y-116086267D01*
X86511853Y-116016413D01*
X86505256Y-115940986D01*
X86504940Y-115867917D01*
X86513650Y-115779707D01*
G36*
X86515500Y-115084200D02*
X86515500Y-114893700D01*
X86706000Y-114893700D01*
X86706000Y-115084200D01*
X86869131Y-115084200D01*
X86949593Y-115083067D01*
X87007509Y-115077889D01*
X87045695Y-115065998D01*
X87066967Y-115044725D01*
X87074141Y-115011402D01*
X87070034Y-114963361D01*
X87058837Y-114904463D01*
X87063726Y-114894767D01*
X87085677Y-114888394D01*
X87128292Y-114884482D01*
X87145951Y-114883647D01*
X87236652Y-114879943D01*
X87257076Y-114939884D01*
X87273143Y-115010345D01*
X87277864Y-115087467D01*
X87271492Y-115162019D01*
X87254281Y-115224769D01*
X87248925Y-115236349D01*
X87228109Y-115271628D01*
X87203974Y-115298437D01*
X87172789Y-115318025D01*
X87130824Y-115331639D01*
X87074346Y-115340528D01*
X86999625Y-115345940D01*
X86912442Y-115348899D01*
X86706000Y-115353883D01*
X86706000Y-115396842D01*
X86704543Y-115423775D01*
X86695437Y-115436148D01*
X86671573Y-115439614D01*
X86652025Y-115439773D01*
X86619033Y-115437822D01*
X86596618Y-115428340D01*
X86575850Y-115405823D01*
X86559950Y-115382997D01*
X86529778Y-115345355D01*
X86493222Y-115317290D01*
X86442475Y-115292219D01*
X86363100Y-115258190D01*
X86363100Y-115084200D01*
X86515500Y-115084200D01*
X86515500Y-115084200D01*
G37*
X86515500Y-115084200D02*
X86515500Y-114893700D01*
X86706000Y-114893700D01*
X86706000Y-115084200D01*
X86869131Y-115084200D01*
X86949593Y-115083067D01*
X87007509Y-115077889D01*
X87045695Y-115065998D01*
X87066967Y-115044725D01*
X87074141Y-115011402D01*
X87070034Y-114963361D01*
X87058837Y-114904463D01*
X87063726Y-114894767D01*
X87085677Y-114888394D01*
X87128292Y-114884482D01*
X87145951Y-114883647D01*
X87236652Y-114879943D01*
X87257076Y-114939884D01*
X87273143Y-115010345D01*
X87277864Y-115087467D01*
X87271492Y-115162019D01*
X87254281Y-115224769D01*
X87248925Y-115236349D01*
X87228109Y-115271628D01*
X87203974Y-115298437D01*
X87172789Y-115318025D01*
X87130824Y-115331639D01*
X87074346Y-115340528D01*
X86999625Y-115345940D01*
X86912442Y-115348899D01*
X86706000Y-115353883D01*
X86706000Y-115396842D01*
X86704543Y-115423775D01*
X86695437Y-115436148D01*
X86671573Y-115439614D01*
X86652025Y-115439773D01*
X86619033Y-115437822D01*
X86596618Y-115428340D01*
X86575850Y-115405823D01*
X86559950Y-115382997D01*
X86529778Y-115345355D01*
X86493222Y-115317290D01*
X86442475Y-115292219D01*
X86363100Y-115258190D01*
X86363100Y-115084200D01*
X86515500Y-115084200D01*
G36*
X86508275Y-113880863D02*
X86531140Y-113792265D01*
X86574542Y-113718064D01*
X86638873Y-113657481D01*
X86682434Y-113630162D01*
X86721252Y-113611052D01*
X86758100Y-113599078D01*
X86801976Y-113592164D01*
X86861879Y-113588234D01*
X86864750Y-113588109D01*
X86968898Y-113591113D01*
X87056120Y-113610621D01*
X87129657Y-113647697D01*
X87182623Y-113692576D01*
X87228642Y-113756739D01*
X87260256Y-113835903D01*
X87276339Y-113923415D01*
X87275761Y-114012622D01*
X87257394Y-114096871D01*
X87253147Y-114108385D01*
X87221412Y-114175782D01*
X87183502Y-114225139D01*
X87132825Y-114263810D01*
X87096063Y-114283712D01*
X86997168Y-114319014D01*
X86892362Y-114332363D01*
X86888027Y-114332008D01*
X86888027Y-114061850D01*
X86948559Y-114061418D01*
X86989451Y-114059411D01*
X87016459Y-114054763D01*
X87035339Y-114046407D01*
X87051845Y-114033278D01*
X87054226Y-114031062D01*
X87080764Y-113991618D01*
X87086850Y-113947359D01*
X87072199Y-113906049D01*
X87059374Y-113891053D01*
X87028026Y-113870226D01*
X86985219Y-113857741D01*
X86926449Y-113852796D01*
X86852959Y-113854288D01*
X86800203Y-113858331D01*
X86765247Y-113865385D01*
X86740507Y-113877557D01*
X86725853Y-113889646D01*
X86698836Y-113929586D01*
X86696196Y-113973693D01*
X86717974Y-114018845D01*
X86723950Y-114026217D01*
X86738676Y-114042108D01*
X86753736Y-114052395D01*
X86774734Y-114058297D01*
X86807275Y-114061030D01*
X86856962Y-114061811D01*
X86888027Y-114061850D01*
X86888027Y-114332008D01*
X86787454Y-114323763D01*
X86688253Y-114293214D01*
X86667900Y-114283612D01*
X86604301Y-114237576D01*
X86555444Y-114172000D01*
X86522313Y-114088693D01*
X86505890Y-113989467D01*
X86505559Y-113984642D01*
X86508275Y-113880863D01*
X86508275Y-113880863D01*
G37*
X86508275Y-113880863D02*
X86531140Y-113792265D01*
X86574542Y-113718064D01*
X86638873Y-113657481D01*
X86682434Y-113630162D01*
X86721252Y-113611052D01*
X86758100Y-113599078D01*
X86801976Y-113592164D01*
X86861879Y-113588234D01*
X86864750Y-113588109D01*
X86968898Y-113591113D01*
X87056120Y-113610621D01*
X87129657Y-113647697D01*
X87182623Y-113692576D01*
X87228642Y-113756739D01*
X87260256Y-113835903D01*
X87276339Y-113923415D01*
X87275761Y-114012622D01*
X87257394Y-114096871D01*
X87253147Y-114108385D01*
X87221412Y-114175782D01*
X87183502Y-114225139D01*
X87132825Y-114263810D01*
X87096063Y-114283712D01*
X86997168Y-114319014D01*
X86892362Y-114332363D01*
X86888027Y-114332008D01*
X86888027Y-114061850D01*
X86948559Y-114061418D01*
X86989451Y-114059411D01*
X87016459Y-114054763D01*
X87035339Y-114046407D01*
X87051845Y-114033278D01*
X87054226Y-114031062D01*
X87080764Y-113991618D01*
X87086850Y-113947359D01*
X87072199Y-113906049D01*
X87059374Y-113891053D01*
X87028026Y-113870226D01*
X86985219Y-113857741D01*
X86926449Y-113852796D01*
X86852959Y-113854288D01*
X86800203Y-113858331D01*
X86765247Y-113865385D01*
X86740507Y-113877557D01*
X86725853Y-113889646D01*
X86698836Y-113929586D01*
X86696196Y-113973693D01*
X86717974Y-114018845D01*
X86723950Y-114026217D01*
X86738676Y-114042108D01*
X86753736Y-114052395D01*
X86774734Y-114058297D01*
X86807275Y-114061030D01*
X86856962Y-114061811D01*
X86888027Y-114061850D01*
X86888027Y-114332008D01*
X86787454Y-114323763D01*
X86688253Y-114293214D01*
X86667900Y-114283612D01*
X86604301Y-114237576D01*
X86555444Y-114172000D01*
X86522313Y-114088693D01*
X86505890Y-113989467D01*
X86505559Y-113984642D01*
X86508275Y-113880863D01*
G36*
X86509291Y-118127312D02*
X86528732Y-118058963D01*
X86559722Y-118005272D01*
X86574496Y-117989810D01*
X86599638Y-117969651D01*
X86626571Y-117953928D01*
X86658846Y-117942022D01*
X86700014Y-117933313D01*
X86753625Y-117927184D01*
X86823233Y-117923016D01*
X86912387Y-117920190D01*
X86982225Y-117918785D01*
X87264800Y-117913851D01*
X87264800Y-118181094D01*
X87012104Y-118185222D01*
X86924794Y-118186852D01*
X86859257Y-118188740D01*
X86811866Y-118191254D01*
X86778994Y-118194760D01*
X86757014Y-118199627D01*
X86742299Y-118206222D01*
X86732704Y-118213544D01*
X86711208Y-118248391D01*
X86706647Y-118291593D01*
X86719190Y-118332421D01*
X86730575Y-118347276D01*
X86754283Y-118365395D01*
X86786562Y-118378986D01*
X86830833Y-118388586D01*
X86890518Y-118394734D01*
X86969038Y-118397967D01*
X87058425Y-118398830D01*
X87264800Y-118398900D01*
X87264800Y-118665600D01*
X86514472Y-118665600D01*
X86518161Y-118561848D01*
X86520331Y-118510693D01*
X86523747Y-118479182D01*
X86530477Y-118461575D01*
X86542589Y-118452128D01*
X86559950Y-118445809D01*
X86587887Y-118436088D01*
X86602608Y-118429620D01*
X86602734Y-118429519D01*
X86597860Y-118418587D01*
X86580347Y-118394686D01*
X86562934Y-118373545D01*
X86535612Y-118336004D01*
X86515832Y-118298583D01*
X86510624Y-118282450D01*
X86502790Y-118203936D01*
X86509291Y-118127312D01*
X86509291Y-118127312D01*
G37*
X86509291Y-118127312D02*
X86528732Y-118058963D01*
X86559722Y-118005272D01*
X86574496Y-117989810D01*
X86599638Y-117969651D01*
X86626571Y-117953928D01*
X86658846Y-117942022D01*
X86700014Y-117933313D01*
X86753625Y-117927184D01*
X86823233Y-117923016D01*
X86912387Y-117920190D01*
X86982225Y-117918785D01*
X87264800Y-117913851D01*
X87264800Y-118181094D01*
X87012104Y-118185222D01*
X86924794Y-118186852D01*
X86859257Y-118188740D01*
X86811866Y-118191254D01*
X86778994Y-118194760D01*
X86757014Y-118199627D01*
X86742299Y-118206222D01*
X86732704Y-118213544D01*
X86711208Y-118248391D01*
X86706647Y-118291593D01*
X86719190Y-118332421D01*
X86730575Y-118347276D01*
X86754283Y-118365395D01*
X86786562Y-118378986D01*
X86830833Y-118388586D01*
X86890518Y-118394734D01*
X86969038Y-118397967D01*
X87058425Y-118398830D01*
X87264800Y-118398900D01*
X87264800Y-118665600D01*
X86514472Y-118665600D01*
X86518161Y-118561848D01*
X86520331Y-118510693D01*
X86523747Y-118479182D01*
X86530477Y-118461575D01*
X86542589Y-118452128D01*
X86559950Y-118445809D01*
X86587887Y-118436088D01*
X86602608Y-118429620D01*
X86602734Y-118429519D01*
X86597860Y-118418587D01*
X86580347Y-118394686D01*
X86562934Y-118373545D01*
X86535612Y-118336004D01*
X86515832Y-118298583D01*
X86510624Y-118282450D01*
X86502790Y-118203936D01*
X86509291Y-118127312D01*
G36*
X86580862Y-116358741D02*
X86630912Y-116363232D01*
X86677509Y-116366196D01*
X86701512Y-116366900D01*
X86744100Y-116366900D01*
X86744100Y-116438006D01*
X86751619Y-116510115D01*
X86773315Y-116566188D01*
X86807889Y-116603217D01*
X86817737Y-116608827D01*
X86848328Y-116616918D01*
X86903585Y-116623446D01*
X86982815Y-116628348D01*
X87058425Y-116630942D01*
X87264800Y-116636211D01*
X87264800Y-116887600D01*
X86515500Y-116887600D01*
X86515500Y-116687702D01*
X86572650Y-116671700D01*
X86612365Y-116657919D01*
X86627815Y-116644754D01*
X86620042Y-116630633D01*
X86605795Y-116621647D01*
X86585512Y-116604135D01*
X86559267Y-116573002D01*
X86542295Y-116549173D01*
X86516961Y-116504876D01*
X86505290Y-116463907D01*
X86502800Y-116420064D01*
X86502800Y-116350582D01*
X86580862Y-116358741D01*
X86580862Y-116358741D01*
G37*
X86580862Y-116358741D02*
X86630912Y-116363232D01*
X86677509Y-116366196D01*
X86701512Y-116366900D01*
X86744100Y-116366900D01*
X86744100Y-116438006D01*
X86751619Y-116510115D01*
X86773315Y-116566188D01*
X86807889Y-116603217D01*
X86817737Y-116608827D01*
X86848328Y-116616918D01*
X86903585Y-116623446D01*
X86982815Y-116628348D01*
X87058425Y-116630942D01*
X87264800Y-116636211D01*
X87264800Y-116887600D01*
X86515500Y-116887600D01*
X86515500Y-116687702D01*
X86572650Y-116671700D01*
X86612365Y-116657919D01*
X86627815Y-116644754D01*
X86620042Y-116630633D01*
X86605795Y-116621647D01*
X86585512Y-116604135D01*
X86559267Y-116573002D01*
X86542295Y-116549173D01*
X86516961Y-116504876D01*
X86505290Y-116463907D01*
X86502800Y-116420064D01*
X86502800Y-116350582D01*
X86580862Y-116358741D01*
G36*
X87264800Y-114487300D02*
X87264800Y-114754000D01*
X86515500Y-114754000D01*
X86515500Y-114487300D01*
X87264800Y-114487300D01*
X87264800Y-114487300D01*
G37*
X87264800Y-114487300D02*
X87264800Y-114754000D01*
X86515500Y-114754000D01*
X86515500Y-114487300D01*
X87264800Y-114487300D01*
G36*
X86512815Y-112865931D02*
X86543256Y-112798101D01*
X86594713Y-112744093D01*
X86636150Y-112717776D01*
X86654474Y-112708998D01*
X86674509Y-112702246D01*
X86699914Y-112697181D01*
X86734348Y-112693461D01*
X86781473Y-112690747D01*
X86844948Y-112688697D01*
X86928433Y-112686971D01*
X86975875Y-112686171D01*
X87264800Y-112681488D01*
X87264800Y-112948694D01*
X87012104Y-112952822D01*
X86924794Y-112954452D01*
X86859257Y-112956340D01*
X86811866Y-112958854D01*
X86778994Y-112962360D01*
X86757014Y-112967227D01*
X86742299Y-112973822D01*
X86732704Y-112981144D01*
X86712238Y-113014073D01*
X86706345Y-113055422D01*
X86715615Y-113093933D01*
X86726040Y-113108527D01*
X86745566Y-113126019D01*
X86766956Y-113139142D01*
X86794185Y-113148617D01*
X86831229Y-113155169D01*
X86882060Y-113159519D01*
X86950654Y-113162390D01*
X87033025Y-113164350D01*
X87264800Y-113168923D01*
X87264800Y-113433200D01*
X86514472Y-113433200D01*
X86518161Y-113329448D01*
X86520331Y-113278293D01*
X86523747Y-113246782D01*
X86530477Y-113229175D01*
X86542589Y-113219728D01*
X86559950Y-113213409D01*
X86587887Y-113203688D01*
X86602608Y-113197220D01*
X86602734Y-113197119D01*
X86597860Y-113186187D01*
X86580347Y-113162286D01*
X86562934Y-113141145D01*
X86531782Y-113098549D01*
X86513179Y-113054596D01*
X86504459Y-113000744D01*
X86502800Y-112948605D01*
X86512815Y-112865931D01*
X86512815Y-112865931D01*
G37*
X86512815Y-112865931D02*
X86543256Y-112798101D01*
X86594713Y-112744093D01*
X86636150Y-112717776D01*
X86654474Y-112708998D01*
X86674509Y-112702246D01*
X86699914Y-112697181D01*
X86734348Y-112693461D01*
X86781473Y-112690747D01*
X86844948Y-112688697D01*
X86928433Y-112686971D01*
X86975875Y-112686171D01*
X87264800Y-112681488D01*
X87264800Y-112948694D01*
X87012104Y-112952822D01*
X86924794Y-112954452D01*
X86859257Y-112956340D01*
X86811866Y-112958854D01*
X86778994Y-112962360D01*
X86757014Y-112967227D01*
X86742299Y-112973822D01*
X86732704Y-112981144D01*
X86712238Y-113014073D01*
X86706345Y-113055422D01*
X86715615Y-113093933D01*
X86726040Y-113108527D01*
X86745566Y-113126019D01*
X86766956Y-113139142D01*
X86794185Y-113148617D01*
X86831229Y-113155169D01*
X86882060Y-113159519D01*
X86950654Y-113162390D01*
X87033025Y-113164350D01*
X87264800Y-113168923D01*
X87264800Y-113433200D01*
X86514472Y-113433200D01*
X86518161Y-113329448D01*
X86520331Y-113278293D01*
X86523747Y-113246782D01*
X86530477Y-113229175D01*
X86542589Y-113219728D01*
X86559950Y-113213409D01*
X86587887Y-113203688D01*
X86602608Y-113197220D01*
X86602734Y-113197119D01*
X86597860Y-113186187D01*
X86580347Y-113162286D01*
X86562934Y-113141145D01*
X86531782Y-113098549D01*
X86513179Y-113054596D01*
X86504459Y-113000744D01*
X86502800Y-112948605D01*
X86512815Y-112865931D01*
G36*
X86211147Y-114574013D02*
X86226208Y-114528351D01*
X86252906Y-114500440D01*
X86292466Y-114486884D01*
X86336849Y-114487610D01*
X86378017Y-114502541D01*
X86406978Y-114530053D01*
X86425509Y-114575895D01*
X86432995Y-114629596D01*
X86430587Y-114660876D01*
X86410629Y-114705909D01*
X86375522Y-114737036D01*
X86331802Y-114752109D01*
X86286003Y-114748985D01*
X86244660Y-114725517D01*
X86241872Y-114722828D01*
X86218180Y-114683229D01*
X86207694Y-114630594D01*
X86211147Y-114574013D01*
X86211147Y-114574013D01*
G37*
X86211147Y-114574013D02*
X86226208Y-114528351D01*
X86252906Y-114500440D01*
X86292466Y-114486884D01*
X86336849Y-114487610D01*
X86378017Y-114502541D01*
X86406978Y-114530053D01*
X86425509Y-114575895D01*
X86432995Y-114629596D01*
X86430587Y-114660876D01*
X86410629Y-114705909D01*
X86375522Y-114737036D01*
X86331802Y-114752109D01*
X86286003Y-114748985D01*
X86244660Y-114725517D01*
X86241872Y-114722828D01*
X86218180Y-114683229D01*
X86207694Y-114630594D01*
X86211147Y-114574013D01*
G36*
X86937100Y-110727899D02*
X86949773Y-110717340D01*
X86978341Y-110715400D01*
X87023492Y-110724945D01*
X87060442Y-110749856D01*
X87085876Y-110784549D01*
X87096476Y-110823440D01*
X87088927Y-110860947D01*
X87075622Y-110879178D01*
X87052201Y-110898428D01*
X87035365Y-110905900D01*
X87000057Y-110894188D01*
X86968943Y-110863000D01*
X86945949Y-110818259D01*
X86935001Y-110765887D01*
X86934600Y-110753908D01*
X86937100Y-110727899D01*
X86937100Y-110727899D01*
G37*
X86937100Y-110727899D02*
X86949773Y-110717340D01*
X86978341Y-110715400D01*
X87023492Y-110724945D01*
X87060442Y-110749856D01*
X87085876Y-110784549D01*
X87096476Y-110823440D01*
X87088927Y-110860947D01*
X87075622Y-110879178D01*
X87052201Y-110898428D01*
X87035365Y-110905900D01*
X87000057Y-110894188D01*
X86968943Y-110863000D01*
X86945949Y-110818259D01*
X86935001Y-110765887D01*
X86934600Y-110753908D01*
X86937100Y-110727899D01*
G36*
X86697347Y-108958409D02*
X86729845Y-108924665D01*
X86766325Y-108908592D01*
X86779839Y-108906385D01*
X86788238Y-108910791D01*
X86792736Y-108926389D01*
X86794551Y-108957756D01*
X86794899Y-109009472D01*
X86794900Y-109016148D01*
X86794364Y-109070584D01*
X86792222Y-109103900D01*
X86787670Y-109120368D01*
X86779905Y-109124255D01*
X86774811Y-109122909D01*
X86750939Y-109116066D01*
X86743556Y-109115200D01*
X86727708Y-109106769D01*
X86706494Y-109087406D01*
X86683449Y-109046420D01*
X86681141Y-109001207D01*
X86697347Y-108958409D01*
X86697347Y-108958409D01*
G37*
X86697347Y-108958409D02*
X86729845Y-108924665D01*
X86766325Y-108908592D01*
X86779839Y-108906385D01*
X86788238Y-108910791D01*
X86792736Y-108926389D01*
X86794551Y-108957756D01*
X86794899Y-109009472D01*
X86794900Y-109016148D01*
X86794364Y-109070584D01*
X86792222Y-109103900D01*
X86787670Y-109120368D01*
X86779905Y-109124255D01*
X86774811Y-109122909D01*
X86750939Y-109116066D01*
X86743556Y-109115200D01*
X86727708Y-109106769D01*
X86706494Y-109087406D01*
X86683449Y-109046420D01*
X86681141Y-109001207D01*
X86697347Y-108958409D01*
D13*
G36*
X96751000Y-140051000D02*
X94999000Y-140051000D01*
X94999000Y-134349000D01*
X96751000Y-134349000D01*
X96751000Y-140051000D01*
X96751000Y-140051000D01*
G37*
G36*
X100501000Y-140051000D02*
X99499000Y-140051000D01*
X99499000Y-134349000D01*
X100501000Y-134349000D01*
X100501000Y-140051000D01*
X100501000Y-140051000D01*
G37*
G36*
X105001000Y-140051000D02*
X103249000Y-140051000D01*
X103249000Y-134349000D01*
X105001000Y-134349000D01*
X105001000Y-140051000D01*
X105001000Y-140051000D01*
G37*
G36*
X100651000Y-133701000D02*
X99849000Y-133701000D01*
X99849000Y-132299000D01*
X100651000Y-132299000D01*
X100651000Y-133701000D01*
X100651000Y-133701000D01*
G37*
G36*
X102551000Y-133701000D02*
X101749000Y-133701000D01*
X101749000Y-132299000D01*
X102551000Y-132299000D01*
X102551000Y-133701000D01*
X102551000Y-133701000D01*
G37*
G36*
X100701000Y-130351000D02*
X99299000Y-130351000D01*
X99299000Y-129549000D01*
X100701000Y-129549000D01*
X100701000Y-130351000D01*
X100701000Y-130351000D01*
G37*
G36*
X105960745Y-129768172D02*
X104580045Y-130011626D01*
X104440779Y-129221810D01*
X105821479Y-128978356D01*
X105960745Y-129768172D01*
X105960745Y-129768172D01*
G37*
G36*
X95559221Y-129221810D02*
X95559221Y-129221811D01*
X95419955Y-130011626D01*
X94039255Y-129768172D01*
X94178521Y-128978356D01*
X95559221Y-129221810D01*
X95559221Y-129221810D01*
G37*
G36*
X110899680Y-127897038D02*
X111039378Y-128280855D01*
X109721929Y-128760367D01*
X109721928Y-128760367D01*
X109447628Y-128006733D01*
X109749013Y-127897038D01*
X110765077Y-127527221D01*
X110765078Y-127527221D01*
X110899680Y-127897038D01*
X110899680Y-127897038D01*
G37*
G36*
X90250987Y-127897038D02*
X90552372Y-128006733D01*
X90278072Y-128760367D01*
X90278071Y-128760367D01*
X88960622Y-128280855D01*
X89100320Y-127897038D01*
X89234922Y-127527221D01*
X89234923Y-127527221D01*
X90250987Y-127897038D01*
X90250987Y-127897038D01*
G37*
G36*
X100701000Y-128451000D02*
X99299000Y-128451000D01*
X99299000Y-127649000D01*
X100701000Y-127649000D01*
X100701000Y-128451000D01*
X100701000Y-128451000D01*
G37*
G36*
X95889153Y-127350676D02*
X95749887Y-128140492D01*
X94369187Y-127897038D01*
X94508453Y-127107222D01*
X95889153Y-127350676D01*
X95889153Y-127350676D01*
G37*
G36*
X105630813Y-127897038D02*
X104250113Y-128140492D01*
X104110847Y-127350676D01*
X105491547Y-127107222D01*
X105630813Y-127897038D01*
X105630813Y-127897038D01*
G37*
G36*
X110389540Y-126495439D02*
X109072091Y-126974951D01*
X109072090Y-126974951D01*
X108797790Y-126221317D01*
X109206950Y-126072395D01*
X110115239Y-125741805D01*
X110115240Y-125741805D01*
X110389540Y-126495439D01*
X110389540Y-126495439D01*
G37*
G36*
X90793050Y-126072395D02*
X91202210Y-126221317D01*
X90927910Y-126974951D01*
X90927909Y-126974951D01*
X89610460Y-126495439D01*
X89884760Y-125741805D01*
X89884761Y-125741805D01*
X90793050Y-126072395D01*
X90793050Y-126072395D01*
G37*
G36*
X100701000Y-126351000D02*
X99299000Y-126351000D01*
X99299000Y-125549000D01*
X100701000Y-125549000D01*
X100701000Y-126351000D01*
X100701000Y-126351000D01*
G37*
G36*
X96253813Y-125282579D02*
X96253813Y-125282580D01*
X96114547Y-126072395D01*
X94733847Y-125828941D01*
X94873113Y-125039125D01*
X96253813Y-125282579D01*
X96253813Y-125282579D01*
G37*
G36*
X105266153Y-125828941D02*
X103885453Y-126072395D01*
X103746187Y-125282579D01*
X105126887Y-125039125D01*
X105266153Y-125828941D01*
X105266153Y-125828941D01*
G37*
G36*
X91123257Y-123957807D02*
X91920452Y-124247962D01*
X91646152Y-125001596D01*
X91646151Y-125001596D01*
X90328702Y-124522084D01*
X90603002Y-123768450D01*
X90603003Y-123768450D01*
X91123257Y-123957807D01*
X91123257Y-123957807D01*
G37*
G36*
X109671298Y-124522084D02*
X108353849Y-125001596D01*
X108353848Y-125001596D01*
X108079548Y-124247962D01*
X108876743Y-123957807D01*
X109396997Y-123768450D01*
X109396998Y-123768450D01*
X109671298Y-124522084D01*
X109671298Y-124522084D01*
G37*
G36*
X100701000Y-124451000D02*
X99299000Y-124451000D01*
X99299000Y-123649000D01*
X100701000Y-123649000D01*
X100701000Y-124451000D01*
X100701000Y-124451000D01*
G37*
G36*
X96583745Y-123411445D02*
X96444479Y-124201261D01*
X95063779Y-123957807D01*
X95203045Y-123167991D01*
X96583745Y-123411445D01*
X96583745Y-123411445D01*
G37*
G36*
X104936221Y-123957807D02*
X103555521Y-124201261D01*
X103416255Y-123411445D01*
X104796955Y-123167991D01*
X104936221Y-123957807D01*
X104936221Y-123957807D01*
G37*
G36*
X108921688Y-122462546D02*
X109021460Y-122736668D01*
X107704011Y-123216180D01*
X107704010Y-123216180D01*
X107429710Y-122462546D01*
X107736180Y-122351000D01*
X108747159Y-121983034D01*
X108747160Y-121983034D01*
X108921688Y-122462546D01*
X108921688Y-122462546D01*
G37*
G36*
X92263820Y-122351000D02*
X92570290Y-122462546D01*
X92295990Y-123216180D01*
X92295989Y-123216180D01*
X90978540Y-122736668D01*
X91078312Y-122462546D01*
X91252840Y-121983034D01*
X91252841Y-121983034D01*
X92263820Y-122351000D01*
X92263820Y-122351000D01*
G37*
G36*
X100701000Y-122351000D02*
X99299000Y-122351000D01*
X99299000Y-121549000D01*
X100701000Y-121549000D01*
X100701000Y-122351000D01*
X100701000Y-122351000D01*
G37*
G36*
X96948406Y-121343348D02*
X96809140Y-122133164D01*
X95428440Y-121889710D01*
X95567706Y-121099894D01*
X96948406Y-121343348D01*
X96948406Y-121343348D01*
G37*
G36*
X104571560Y-121889710D02*
X103190860Y-122133164D01*
X103051594Y-121343349D01*
X103051594Y-121343348D01*
X104432294Y-121099894D01*
X104571560Y-121889710D01*
X104571560Y-121889710D01*
G37*
G36*
X92664410Y-120262030D02*
X93288533Y-120489192D01*
X93014233Y-121242826D01*
X93014232Y-121242826D01*
X91696783Y-120763314D01*
X91810456Y-120451000D01*
X91971083Y-120009680D01*
X91971084Y-120009680D01*
X92664410Y-120262030D01*
X92664410Y-120262030D01*
G37*
G36*
X108189544Y-120451000D02*
X108303217Y-120763314D01*
X106985768Y-121242826D01*
X106985767Y-121242826D01*
X106711467Y-120489192D01*
X107335590Y-120262030D01*
X108028916Y-120009680D01*
X108028917Y-120009680D01*
X108189544Y-120451000D01*
X108189544Y-120451000D01*
G37*
G36*
X100701000Y-120451000D02*
X99299000Y-120451000D01*
X99299000Y-119649000D01*
X100701000Y-119649000D01*
X100701000Y-120451000D01*
X100701000Y-120451000D01*
G37*
G36*
X104240060Y-120009680D02*
X104241628Y-120018576D01*
X102860928Y-120262030D01*
X102721662Y-119472214D01*
X104102362Y-119228760D01*
X104240060Y-120009680D01*
X104240060Y-120009680D01*
G37*
G36*
X97278338Y-119472214D02*
X97139072Y-120262030D01*
X95758372Y-120018576D01*
X95759941Y-120009680D01*
X95897638Y-119228760D01*
X97278338Y-119472214D01*
X97278338Y-119472214D01*
G37*
G36*
X92969126Y-118351000D02*
X93938371Y-118703776D01*
X93664071Y-119457410D01*
X93664070Y-119457410D01*
X92346621Y-118977898D01*
X92446393Y-118703776D01*
X92620921Y-118224264D01*
X92620922Y-118224264D01*
X92969126Y-118351000D01*
X92969126Y-118351000D01*
G37*
G36*
X107553607Y-118703776D02*
X107653379Y-118977898D01*
X106335930Y-119457410D01*
X106335929Y-119457410D01*
X106061629Y-118703776D01*
X107030874Y-118351000D01*
X107379078Y-118224264D01*
X107379079Y-118224264D01*
X107553607Y-118703776D01*
X107553607Y-118703776D01*
G37*
G36*
X100701000Y-118351000D02*
X99299000Y-118351000D01*
X99299000Y-117549000D01*
X100701000Y-117549000D01*
X100701000Y-118351000D01*
X100701000Y-118351000D01*
G37*
G36*
X103876967Y-117950479D02*
X102496267Y-118193933D01*
X102357001Y-117404118D01*
X102357001Y-117404117D01*
X103737701Y-117160663D01*
X103876967Y-117950479D01*
X103876967Y-117950479D01*
G37*
G36*
X97642999Y-117404117D02*
X97642999Y-117404118D01*
X97503733Y-118193933D01*
X96123033Y-117950479D01*
X96262299Y-117160663D01*
X97642999Y-117404117D01*
X97642999Y-117404117D01*
G37*
G36*
X94656614Y-116730422D02*
X94382314Y-117484056D01*
X94382313Y-117484056D01*
X93064864Y-117004544D01*
X93164636Y-116730422D01*
X93339164Y-116250910D01*
X93339165Y-116250910D01*
X94656614Y-116730422D01*
X94656614Y-116730422D01*
G37*
G36*
X106835364Y-116730422D02*
X106935136Y-117004544D01*
X105617687Y-117484056D01*
X105617686Y-117484056D01*
X105343386Y-116730422D01*
X106660835Y-116250910D01*
X106660836Y-116250910D01*
X106835364Y-116730422D01*
X106835364Y-116730422D01*
G37*
G36*
X100701000Y-116451000D02*
X99299000Y-116451000D01*
X99299000Y-115649000D01*
X100701000Y-115649000D01*
X100701000Y-116451000D01*
X100701000Y-116451000D01*
G37*
G36*
X103471154Y-115649000D02*
X103547035Y-116079345D01*
X102166335Y-116322799D01*
X102027069Y-115532983D01*
X103407769Y-115289529D01*
X103471154Y-115649000D01*
X103471154Y-115649000D01*
G37*
G36*
X97972931Y-115532983D02*
X97972931Y-115532984D01*
X97833665Y-116322799D01*
X96452965Y-116079345D01*
X96528847Y-115649000D01*
X96592231Y-115289529D01*
X97972931Y-115532983D01*
X97972931Y-115532983D01*
G37*
G36*
X95306452Y-114945006D02*
X95032152Y-115698640D01*
X95032151Y-115698640D01*
X93714702Y-115219128D01*
X93814474Y-114945006D01*
X93989002Y-114465494D01*
X93989003Y-114465494D01*
X95306452Y-114945006D01*
X95306452Y-114945006D01*
G37*
G36*
X106185526Y-114945006D02*
X106285298Y-115219128D01*
X104967849Y-115698640D01*
X104967848Y-115698640D01*
X104693548Y-114945006D01*
X106010997Y-114465494D01*
X106010998Y-114465494D01*
X106185526Y-114945006D01*
X106185526Y-114945006D01*
G37*
G36*
X100701000Y-114351000D02*
X99299000Y-114351000D01*
X99299000Y-113549000D01*
X100701000Y-113549000D01*
X100701000Y-114351000D01*
X100701000Y-114351000D01*
G37*
G36*
X98337591Y-113464886D02*
X98337591Y-113464887D01*
X98198325Y-114254702D01*
X96817625Y-114011248D01*
X96956891Y-113221432D01*
X98337591Y-113464886D01*
X98337591Y-113464886D01*
G37*
G36*
X103182375Y-114011248D02*
X101801675Y-114254702D01*
X101662409Y-113464887D01*
X101662409Y-113464886D01*
X103043109Y-113221432D01*
X103182375Y-114011248D01*
X103182375Y-114011248D01*
G37*
G36*
X96024694Y-112971651D02*
X95750394Y-113725285D01*
X95750393Y-113725285D01*
X94432944Y-113245773D01*
X94532716Y-112971651D01*
X94707244Y-112492139D01*
X94707245Y-112492139D01*
X96024694Y-112971651D01*
X96024694Y-112971651D01*
G37*
G36*
X105467284Y-112971651D02*
X105567056Y-113245773D01*
X104249607Y-113725285D01*
X104249606Y-113725285D01*
X103975306Y-112971651D01*
X105292755Y-112492139D01*
X105292756Y-112492139D01*
X105467284Y-112971651D01*
X105467284Y-112971651D01*
G37*
G36*
X100701000Y-112451000D02*
X99299000Y-112451000D01*
X99299000Y-111649000D01*
X100701000Y-111649000D01*
X100701000Y-112451000D01*
X100701000Y-112451000D01*
G37*
G36*
X102817135Y-111939869D02*
X102852443Y-112140114D01*
X101471743Y-112383568D01*
X101332477Y-111593753D01*
X101332477Y-111593752D01*
X102713177Y-111350298D01*
X102817135Y-111939869D01*
X102817135Y-111939869D01*
G37*
G36*
X98667523Y-111593752D02*
X98528257Y-112383568D01*
X97147557Y-112140114D01*
X97182866Y-111939869D01*
X97286823Y-111350298D01*
X98667523Y-111593752D01*
X98667523Y-111593752D01*
G37*
G36*
X96674532Y-111186235D02*
X96400232Y-111939869D01*
X96400231Y-111939869D01*
X95082782Y-111460357D01*
X95182554Y-111186235D01*
X95357082Y-110706723D01*
X95357083Y-110706723D01*
X96674532Y-111186235D01*
X96674532Y-111186235D01*
G37*
G36*
X104817446Y-111186235D02*
X104917218Y-111460357D01*
X103599769Y-111939869D01*
X103599768Y-111939869D01*
X103325468Y-111186235D01*
X104642917Y-110706723D01*
X104642918Y-110706723D01*
X104817446Y-111186235D01*
X104817446Y-111186235D01*
G37*
G36*
X105001000Y-105651000D02*
X103249000Y-105651000D01*
X103249000Y-99949000D01*
X105001000Y-99949000D01*
X105001000Y-105651000D01*
X105001000Y-105651000D01*
G37*
G36*
X100501000Y-105651000D02*
X99499000Y-105651000D01*
X99499000Y-99949000D01*
X100501000Y-99949000D01*
X100501000Y-105651000D01*
X100501000Y-105651000D01*
G37*
G36*
X96751000Y-105651000D02*
X94999000Y-105651000D01*
X94999000Y-99949000D01*
X96751000Y-99949000D01*
X96751000Y-105651000D01*
X96751000Y-105651000D01*
G37*
M02*
