G04 #@! TF.GenerationSoftware,KiCad,Pcbnew,5.0.2-bee76a0~70~ubuntu18.04.1*
G04 #@! TF.CreationDate,2019-05-30T10:34:00+02:00*
G04 #@! TF.ProjectId,DummyLoad,44756d6d-794c-46f6-9164-2e6b69636164,1.0*
G04 #@! TF.SameCoordinates,Original*
G04 #@! TF.FileFunction,Copper,L1,Top*
G04 #@! TF.FilePolarity,Positive*
%FSLAX46Y46*%
G04 Gerber Fmt 4.6, Leading zero omitted, Abs format (unit mm)*
G04 Created by KiCad (PCBNEW 5.0.2-bee76a0~70~ubuntu18.04.1) date Do 30 Mai 2019 10:34:00 CEST*
%MOMM*%
%LPD*%
G01*
G04 APERTURE LIST*
G04 #@! TA.AperFunction,NonConductor*
%ADD10C,0.250000*%
G04 #@! TD*
G04 #@! TA.AperFunction,SMDPad,CuDef*
%ADD11R,0.900000X5.600000*%
G04 #@! TD*
G04 #@! TA.AperFunction,SMDPad,CuDef*
%ADD12R,1.650000X5.600000*%
G04 #@! TD*
G04 #@! TA.AperFunction,SMDPad,CuDef*
%ADD13C,0.700000*%
G04 #@! TD*
G04 #@! TA.AperFunction,Conductor*
%ADD14C,0.100000*%
G04 #@! TD*
G04 #@! TA.AperFunction,SMDPad,CuDef*
%ADD15R,1.300000X0.700000*%
G04 #@! TD*
G04 #@! TA.AperFunction,ViaPad*
%ADD16C,0.800000*%
G04 #@! TD*
G04 #@! TA.AperFunction,ViaPad*
%ADD17C,6.000000*%
G04 #@! TD*
G04 #@! TA.AperFunction,Conductor*
%ADD18C,1.300000*%
G04 #@! TD*
G04 #@! TA.AperFunction,Conductor*
%ADD19C,0.254000*%
G04 #@! TD*
G04 APERTURE END LIST*
D10*
X110904761Y-107910714D02*
X111285714Y-107910714D01*
X111047619Y-107577380D02*
X111047619Y-108434523D01*
X111095238Y-108529761D01*
X111190476Y-108577380D01*
X111285714Y-108577380D01*
X111761904Y-108577380D02*
X111666666Y-108529761D01*
X111619047Y-108482142D01*
X111571428Y-108386904D01*
X111571428Y-108101190D01*
X111619047Y-108005952D01*
X111666666Y-107958333D01*
X111761904Y-107910714D01*
X111904761Y-107910714D01*
X112000000Y-107958333D01*
X112047619Y-108005952D01*
X112095238Y-108101190D01*
X112095238Y-108386904D01*
X112047619Y-108482142D01*
X112000000Y-108529761D01*
X111904761Y-108577380D01*
X111761904Y-108577380D01*
X112523809Y-107910714D02*
X112523809Y-108910714D01*
X112523809Y-107958333D02*
X112619047Y-107910714D01*
X112809523Y-107910714D01*
X112904761Y-107958333D01*
X112952380Y-108005952D01*
X113000000Y-108101190D01*
X113000000Y-108386904D01*
X112952380Y-108482142D01*
X112904761Y-108529761D01*
X112809523Y-108577380D01*
X112619047Y-108577380D01*
X112523809Y-108529761D01*
X111571428Y-110327380D02*
X111000000Y-110327380D01*
X111285714Y-110327380D02*
X111285714Y-109327380D01*
X111190476Y-109470238D01*
X111095238Y-109565476D01*
X111000000Y-109613095D01*
X112000000Y-110232142D02*
X112047619Y-110279761D01*
X112000000Y-110327380D01*
X111952380Y-110279761D01*
X112000000Y-110232142D01*
X112000000Y-110327380D01*
X112666666Y-109327380D02*
X112761904Y-109327380D01*
X112857142Y-109375000D01*
X112904761Y-109422619D01*
X112952380Y-109517857D01*
X113000000Y-109708333D01*
X113000000Y-109946428D01*
X112952380Y-110136904D01*
X112904761Y-110232142D01*
X112857142Y-110279761D01*
X112761904Y-110327380D01*
X112666666Y-110327380D01*
X112571428Y-110279761D01*
X112523809Y-110232142D01*
X112476190Y-110136904D01*
X112428571Y-109946428D01*
X112428571Y-109708333D01*
X112476190Y-109517857D01*
X112523809Y-109422619D01*
X112571428Y-109375000D01*
X112666666Y-109327380D01*
D11*
G04 #@! TO.P,CN1,1*
G04 #@! TO.N,/HF_IN*
X100000000Y-102800000D03*
D12*
G04 #@! TO.P,CN1,2*
G04 #@! TO.N,GND*
X104125000Y-102800000D03*
G04 #@! TO.P,CN1,3*
X95875000Y-102800000D03*
G04 #@! TD*
G04 #@! TO.P,CN2,3*
G04 #@! TO.N,GND*
X104125000Y-137200000D03*
G04 #@! TO.P,CN2,2*
X95875000Y-137200000D03*
D11*
G04 #@! TO.P,CN2,1*
G04 #@! TO.N,/HF_OUT*
X100000000Y-137200000D03*
G04 #@! TD*
D13*
G04 #@! TO.P,R1,1*
G04 #@! TO.N,/HF_IN*
X95878657Y-111323296D03*
D14*
G04 #@! TD*
G04 #@! TO.N,/HF_IN*
G04 #@! TO.C,R1*
G36*
X95387564Y-110772090D02*
X96609164Y-111216717D01*
X96369750Y-111874502D01*
X95148150Y-111429875D01*
X95387564Y-110772090D01*
X95387564Y-110772090D01*
G37*
D13*
G04 #@! TO.P,R1,2*
G04 #@! TO.N,Net-(R1-Pad2)*
X95228819Y-113108712D03*
D14*
G04 #@! TD*
G04 #@! TO.N,Net-(R1-Pad2)*
G04 #@! TO.C,R1*
G36*
X94737726Y-112557506D02*
X95959326Y-113002133D01*
X95719912Y-113659918D01*
X94498312Y-113215291D01*
X94737726Y-112557506D01*
X94737726Y-112557506D01*
G37*
D13*
G04 #@! TO.P,R2,2*
G04 #@! TO.N,Net-(R2-Pad2)*
X93860739Y-116867483D03*
D14*
G04 #@! TD*
G04 #@! TO.N,Net-(R2-Pad2)*
G04 #@! TO.C,R2*
G36*
X93369646Y-116316277D02*
X94591246Y-116760904D01*
X94351832Y-117418689D01*
X93130232Y-116974062D01*
X93369646Y-116316277D01*
X93369646Y-116316277D01*
G37*
D13*
G04 #@! TO.P,R2,1*
G04 #@! TO.N,Net-(R1-Pad2)*
X94510577Y-115082067D03*
D14*
G04 #@! TD*
G04 #@! TO.N,Net-(R1-Pad2)*
G04 #@! TO.C,R2*
G36*
X94019484Y-114530861D02*
X95241084Y-114975488D01*
X95001670Y-115633273D01*
X93780070Y-115188646D01*
X94019484Y-114530861D01*
X94019484Y-114530861D01*
G37*
D13*
G04 #@! TO.P,R3,1*
G04 #@! TO.N,Net-(R2-Pad2)*
X93142496Y-118840837D03*
D14*
G04 #@! TD*
G04 #@! TO.N,Net-(R2-Pad2)*
G04 #@! TO.C,R3*
G36*
X92651403Y-118289631D02*
X93873003Y-118734258D01*
X93633589Y-119392043D01*
X92411989Y-118947416D01*
X92651403Y-118289631D01*
X92651403Y-118289631D01*
G37*
D13*
G04 #@! TO.P,R3,2*
G04 #@! TO.N,Net-(R3-Pad2)*
X92492658Y-120626253D03*
D14*
G04 #@! TD*
G04 #@! TO.N,Net-(R3-Pad2)*
G04 #@! TO.C,R3*
G36*
X92001565Y-120075047D02*
X93223165Y-120519674D01*
X92983751Y-121177459D01*
X91762151Y-120732832D01*
X92001565Y-120075047D01*
X92001565Y-120075047D01*
G37*
D13*
G04 #@! TO.P,R4,2*
G04 #@! TO.N,Net-(R4-Pad2)*
X91124577Y-124385023D03*
D14*
G04 #@! TD*
G04 #@! TO.N,Net-(R4-Pad2)*
G04 #@! TO.C,R4*
G36*
X90633484Y-123833817D02*
X91855084Y-124278444D01*
X91615670Y-124936229D01*
X90394070Y-124491602D01*
X90633484Y-123833817D01*
X90633484Y-123833817D01*
G37*
D13*
G04 #@! TO.P,R4,1*
G04 #@! TO.N,Net-(R3-Pad2)*
X91774415Y-122599607D03*
D14*
G04 #@! TD*
G04 #@! TO.N,Net-(R3-Pad2)*
G04 #@! TO.C,R4*
G36*
X91283322Y-122048401D02*
X92504922Y-122493028D01*
X92265508Y-123150813D01*
X91043908Y-122706186D01*
X91283322Y-122048401D01*
X91283322Y-122048401D01*
G37*
D13*
G04 #@! TO.P,R5,1*
G04 #@! TO.N,Net-(R4-Pad2)*
X90406335Y-126358378D03*
D14*
G04 #@! TD*
G04 #@! TO.N,Net-(R4-Pad2)*
G04 #@! TO.C,R5*
G36*
X89915242Y-125807172D02*
X91136842Y-126251799D01*
X90897428Y-126909584D01*
X89675828Y-126464957D01*
X89915242Y-125807172D01*
X89915242Y-125807172D01*
G37*
D13*
G04 #@! TO.P,R5,2*
G04 #@! TO.N,GND*
X89756497Y-128143794D03*
D14*
G04 #@! TD*
G04 #@! TO.N,GND*
G04 #@! TO.C,R5*
G36*
X89265404Y-127592588D02*
X90487004Y-128037215D01*
X90247590Y-128695000D01*
X89025990Y-128250373D01*
X89265404Y-127592588D01*
X89265404Y-127592588D01*
G37*
D13*
G04 #@! TO.P,R6,1*
G04 #@! TO.N,/HF_IN*
X97907540Y-111866933D03*
D14*
G04 #@! TD*
G04 #@! TO.N,/HF_IN*
G04 #@! TO.C,R6*
G36*
X97328192Y-111409379D02*
X98608442Y-111635122D01*
X98486888Y-112324487D01*
X97206638Y-112098744D01*
X97328192Y-111409379D01*
X97328192Y-111409379D01*
G37*
D13*
G04 #@! TO.P,R6,2*
G04 #@! TO.N,Net-(R6-Pad2)*
X97577608Y-113738067D03*
D14*
G04 #@! TD*
G04 #@! TO.N,Net-(R6-Pad2)*
G04 #@! TO.C,R6*
G36*
X96998260Y-113280513D02*
X98278510Y-113506256D01*
X98156956Y-114195621D01*
X96876706Y-113969878D01*
X96998260Y-113280513D01*
X96998260Y-113280513D01*
G37*
D13*
G04 #@! TO.P,R7,2*
G04 #@! TO.N,Net-(R7-Pad2)*
X96883016Y-117677298D03*
D14*
G04 #@! TD*
G04 #@! TO.N,Net-(R7-Pad2)*
G04 #@! TO.C,R7*
G36*
X96303668Y-117219744D02*
X97583918Y-117445487D01*
X97462364Y-118134852D01*
X96182114Y-117909109D01*
X96303668Y-117219744D01*
X96303668Y-117219744D01*
G37*
D13*
G04 #@! TO.P,R7,1*
G04 #@! TO.N,Net-(R6-Pad2)*
X97212948Y-115806164D03*
D14*
G04 #@! TD*
G04 #@! TO.N,Net-(R6-Pad2)*
G04 #@! TO.C,R7*
G36*
X96633600Y-115348610D02*
X97913850Y-115574353D01*
X97792296Y-116263718D01*
X96512046Y-116037975D01*
X96633600Y-115348610D01*
X96633600Y-115348610D01*
G37*
D13*
G04 #@! TO.P,R8,1*
G04 #@! TO.N,Net-(R7-Pad2)*
X96518355Y-119745395D03*
D14*
G04 #@! TD*
G04 #@! TO.N,Net-(R7-Pad2)*
G04 #@! TO.C,R8*
G36*
X95939007Y-119287841D02*
X97219257Y-119513584D01*
X97097703Y-120202949D01*
X95817453Y-119977206D01*
X95939007Y-119287841D01*
X95939007Y-119287841D01*
G37*
D13*
G04 #@! TO.P,R8,2*
G04 #@! TO.N,Net-(R8-Pad2)*
X96188423Y-121616529D03*
D14*
G04 #@! TD*
G04 #@! TO.N,Net-(R8-Pad2)*
G04 #@! TO.C,R8*
G36*
X95609075Y-121158975D02*
X96889325Y-121384718D01*
X96767771Y-122074083D01*
X95487521Y-121848340D01*
X95609075Y-121158975D01*
X95609075Y-121158975D01*
G37*
D13*
G04 #@! TO.P,R9,2*
G04 #@! TO.N,Net-(R10-Pad1)*
X95493830Y-125555760D03*
D14*
G04 #@! TD*
G04 #@! TO.N,Net-(R10-Pad1)*
G04 #@! TO.C,R9*
G36*
X94914482Y-125098206D02*
X96194732Y-125323949D01*
X96073178Y-126013314D01*
X94792928Y-125787571D01*
X94914482Y-125098206D01*
X94914482Y-125098206D01*
G37*
D13*
G04 #@! TO.P,R9,1*
G04 #@! TO.N,Net-(R8-Pad2)*
X95823762Y-123684626D03*
D14*
G04 #@! TD*
G04 #@! TO.N,Net-(R8-Pad2)*
G04 #@! TO.C,R9*
G36*
X95244414Y-123227072D02*
X96524664Y-123452815D01*
X96403110Y-124142180D01*
X95122860Y-123916437D01*
X95244414Y-123227072D01*
X95244414Y-123227072D01*
G37*
D13*
G04 #@! TO.P,R10,1*
G04 #@! TO.N,Net-(R10-Pad1)*
X95129170Y-127623857D03*
D14*
G04 #@! TD*
G04 #@! TO.N,Net-(R10-Pad1)*
G04 #@! TO.C,R10*
G36*
X94549822Y-127166303D02*
X95830072Y-127392046D01*
X95708518Y-128081411D01*
X94428268Y-127855668D01*
X94549822Y-127166303D01*
X94549822Y-127166303D01*
G37*
D13*
G04 #@! TO.P,R10,2*
G04 #@! TO.N,GND*
X94799238Y-129494991D03*
D14*
G04 #@! TD*
G04 #@! TO.N,GND*
G04 #@! TO.C,R10*
G36*
X94219890Y-129037437D02*
X95500140Y-129263180D01*
X95378586Y-129952545D01*
X94098336Y-129726802D01*
X94219890Y-129037437D01*
X94219890Y-129037437D01*
G37*
D15*
G04 #@! TO.P,R11,1*
G04 #@! TO.N,/HF_IN*
X100000000Y-112050000D03*
G04 #@! TO.P,R11,2*
G04 #@! TO.N,Net-(R11-Pad2)*
X100000000Y-113950000D03*
G04 #@! TD*
G04 #@! TO.P,R12,2*
G04 #@! TO.N,Net-(R12-Pad2)*
X100000000Y-117950000D03*
G04 #@! TO.P,R12,1*
G04 #@! TO.N,Net-(R11-Pad2)*
X100000000Y-116050000D03*
G04 #@! TD*
G04 #@! TO.P,R13,1*
G04 #@! TO.N,Net-(R12-Pad2)*
X100000000Y-120050000D03*
G04 #@! TO.P,R13,2*
G04 #@! TO.N,Net-(R13-Pad2)*
X100000000Y-121950000D03*
G04 #@! TD*
G04 #@! TO.P,R14,2*
G04 #@! TO.N,Net-(R14-Pad2)*
X100000000Y-125950000D03*
G04 #@! TO.P,R14,1*
G04 #@! TO.N,Net-(R13-Pad2)*
X100000000Y-124050000D03*
G04 #@! TD*
G04 #@! TO.P,R15,1*
G04 #@! TO.N,Net-(R14-Pad2)*
X99000000Y-128050000D03*
G04 #@! TO.P,R15,2*
G04 #@! TO.N,/HF_OUT*
X99000000Y-129950000D03*
G04 #@! TD*
D13*
G04 #@! TO.P,R16,2*
G04 #@! TO.N,Net-(R16-Pad2)*
X102422392Y-113738067D03*
D14*
G04 #@! TD*
G04 #@! TO.N,Net-(R16-Pad2)*
G04 #@! TO.C,R16*
G36*
X101721490Y-113506256D02*
X103001740Y-113280513D01*
X103123294Y-113969878D01*
X101843044Y-114195621D01*
X101721490Y-113506256D01*
X101721490Y-113506256D01*
G37*
D13*
G04 #@! TO.P,R16,1*
G04 #@! TO.N,/HF_IN*
X102092460Y-111866933D03*
D14*
G04 #@! TD*
G04 #@! TO.N,/HF_IN*
G04 #@! TO.C,R16*
G36*
X101391558Y-111635122D02*
X102671808Y-111409379D01*
X102793362Y-112098744D01*
X101513112Y-112324487D01*
X101391558Y-111635122D01*
X101391558Y-111635122D01*
G37*
D13*
G04 #@! TO.P,R17,1*
G04 #@! TO.N,Net-(R16-Pad2)*
X102787052Y-115806164D03*
D14*
G04 #@! TD*
G04 #@! TO.N,Net-(R16-Pad2)*
G04 #@! TO.C,R17*
G36*
X102086150Y-115574353D02*
X103366400Y-115348610D01*
X103487954Y-116037975D01*
X102207704Y-116263718D01*
X102086150Y-115574353D01*
X102086150Y-115574353D01*
G37*
D13*
G04 #@! TO.P,R17,2*
G04 #@! TO.N,Net-(R17-Pad2)*
X103116984Y-117677298D03*
D14*
G04 #@! TD*
G04 #@! TO.N,Net-(R17-Pad2)*
G04 #@! TO.C,R17*
G36*
X102416082Y-117445487D02*
X103696332Y-117219744D01*
X103817886Y-117909109D01*
X102537636Y-118134852D01*
X102416082Y-117445487D01*
X102416082Y-117445487D01*
G37*
D13*
G04 #@! TO.P,R18,2*
G04 #@! TO.N,Net-(R18-Pad2)*
X103811577Y-121616529D03*
D14*
G04 #@! TD*
G04 #@! TO.N,Net-(R18-Pad2)*
G04 #@! TO.C,R18*
G36*
X103110675Y-121384718D02*
X104390925Y-121158975D01*
X104512479Y-121848340D01*
X103232229Y-122074083D01*
X103110675Y-121384718D01*
X103110675Y-121384718D01*
G37*
D13*
G04 #@! TO.P,R18,1*
G04 #@! TO.N,Net-(R17-Pad2)*
X103481645Y-119745395D03*
D14*
G04 #@! TD*
G04 #@! TO.N,Net-(R17-Pad2)*
G04 #@! TO.C,R18*
G36*
X102780743Y-119513584D02*
X104060993Y-119287841D01*
X104182547Y-119977206D01*
X102902297Y-120202949D01*
X102780743Y-119513584D01*
X102780743Y-119513584D01*
G37*
D13*
G04 #@! TO.P,R19,1*
G04 #@! TO.N,Net-(R18-Pad2)*
X104176238Y-123684626D03*
D14*
G04 #@! TD*
G04 #@! TO.N,Net-(R18-Pad2)*
G04 #@! TO.C,R19*
G36*
X103475336Y-123452815D02*
X104755586Y-123227072D01*
X104877140Y-123916437D01*
X103596890Y-124142180D01*
X103475336Y-123452815D01*
X103475336Y-123452815D01*
G37*
D13*
G04 #@! TO.P,R19,2*
G04 #@! TO.N,Net-(R19-Pad2)*
X104506170Y-125555760D03*
D14*
G04 #@! TD*
G04 #@! TO.N,Net-(R19-Pad2)*
G04 #@! TO.C,R19*
G36*
X103805268Y-125323949D02*
X105085518Y-125098206D01*
X105207072Y-125787571D01*
X103926822Y-126013314D01*
X103805268Y-125323949D01*
X103805268Y-125323949D01*
G37*
D13*
G04 #@! TO.P,R20,2*
G04 #@! TO.N,GND*
X105200762Y-129494991D03*
D14*
G04 #@! TD*
G04 #@! TO.N,GND*
G04 #@! TO.C,R20*
G36*
X104499860Y-129263180D02*
X105780110Y-129037437D01*
X105901664Y-129726802D01*
X104621414Y-129952545D01*
X104499860Y-129263180D01*
X104499860Y-129263180D01*
G37*
D13*
G04 #@! TO.P,R20,1*
G04 #@! TO.N,Net-(R19-Pad2)*
X104870830Y-127623857D03*
D14*
G04 #@! TD*
G04 #@! TO.N,Net-(R19-Pad2)*
G04 #@! TO.C,R20*
G36*
X104169928Y-127392046D02*
X105450178Y-127166303D01*
X105571732Y-127855668D01*
X104291482Y-128081411D01*
X104169928Y-127392046D01*
X104169928Y-127392046D01*
G37*
D13*
G04 #@! TO.P,R21,1*
G04 #@! TO.N,/HF_IN*
X104121343Y-111323296D03*
D14*
G04 #@! TD*
G04 #@! TO.N,/HF_IN*
G04 #@! TO.C,R21*
G36*
X103390836Y-111216717D02*
X104612436Y-110772090D01*
X104851850Y-111429875D01*
X103630250Y-111874502D01*
X103390836Y-111216717D01*
X103390836Y-111216717D01*
G37*
D13*
G04 #@! TO.P,R21,2*
G04 #@! TO.N,Net-(R21-Pad2)*
X104771181Y-113108712D03*
D14*
G04 #@! TD*
G04 #@! TO.N,Net-(R21-Pad2)*
G04 #@! TO.C,R21*
G36*
X104040674Y-113002133D02*
X105262274Y-112557506D01*
X105501688Y-113215291D01*
X104280088Y-113659918D01*
X104040674Y-113002133D01*
X104040674Y-113002133D01*
G37*
D13*
G04 #@! TO.P,R22,2*
G04 #@! TO.N,Net-(R22-Pad2)*
X106139261Y-116867483D03*
D14*
G04 #@! TD*
G04 #@! TO.N,Net-(R22-Pad2)*
G04 #@! TO.C,R22*
G36*
X105408754Y-116760904D02*
X106630354Y-116316277D01*
X106869768Y-116974062D01*
X105648168Y-117418689D01*
X105408754Y-116760904D01*
X105408754Y-116760904D01*
G37*
D13*
G04 #@! TO.P,R22,1*
G04 #@! TO.N,Net-(R21-Pad2)*
X105489423Y-115082067D03*
D14*
G04 #@! TD*
G04 #@! TO.N,Net-(R21-Pad2)*
G04 #@! TO.C,R22*
G36*
X104758916Y-114975488D02*
X105980516Y-114530861D01*
X106219930Y-115188646D01*
X104998330Y-115633273D01*
X104758916Y-114975488D01*
X104758916Y-114975488D01*
G37*
D13*
G04 #@! TO.P,R23,1*
G04 #@! TO.N,Net-(R22-Pad2)*
X106857504Y-118840837D03*
D14*
G04 #@! TD*
G04 #@! TO.N,Net-(R22-Pad2)*
G04 #@! TO.C,R23*
G36*
X106126997Y-118734258D02*
X107348597Y-118289631D01*
X107588011Y-118947416D01*
X106366411Y-119392043D01*
X106126997Y-118734258D01*
X106126997Y-118734258D01*
G37*
D13*
G04 #@! TO.P,R23,2*
G04 #@! TO.N,Net-(R23-Pad2)*
X107507342Y-120626253D03*
D14*
G04 #@! TD*
G04 #@! TO.N,Net-(R23-Pad2)*
G04 #@! TO.C,R23*
G36*
X106776835Y-120519674D02*
X107998435Y-120075047D01*
X108237849Y-120732832D01*
X107016249Y-121177459D01*
X106776835Y-120519674D01*
X106776835Y-120519674D01*
G37*
D13*
G04 #@! TO.P,R24,2*
G04 #@! TO.N,Net-(R24-Pad2)*
X108875423Y-124385023D03*
D14*
G04 #@! TD*
G04 #@! TO.N,Net-(R24-Pad2)*
G04 #@! TO.C,R24*
G36*
X108144916Y-124278444D02*
X109366516Y-123833817D01*
X109605930Y-124491602D01*
X108384330Y-124936229D01*
X108144916Y-124278444D01*
X108144916Y-124278444D01*
G37*
D13*
G04 #@! TO.P,R24,1*
G04 #@! TO.N,Net-(R23-Pad2)*
X108225585Y-122599607D03*
D14*
G04 #@! TD*
G04 #@! TO.N,Net-(R23-Pad2)*
G04 #@! TO.C,R24*
G36*
X107495078Y-122493028D02*
X108716678Y-122048401D01*
X108956092Y-122706186D01*
X107734492Y-123150813D01*
X107495078Y-122493028D01*
X107495078Y-122493028D01*
G37*
D13*
G04 #@! TO.P,R25,1*
G04 #@! TO.N,Net-(R24-Pad2)*
X109593665Y-126358378D03*
D14*
G04 #@! TD*
G04 #@! TO.N,Net-(R24-Pad2)*
G04 #@! TO.C,R25*
G36*
X108863158Y-126251799D02*
X110084758Y-125807172D01*
X110324172Y-126464957D01*
X109102572Y-126909584D01*
X108863158Y-126251799D01*
X108863158Y-126251799D01*
G37*
D13*
G04 #@! TO.P,R25,2*
G04 #@! TO.N,GND*
X110243503Y-128143794D03*
D14*
G04 #@! TD*
G04 #@! TO.N,GND*
G04 #@! TO.C,R25*
G36*
X109512996Y-128037215D02*
X110734596Y-127592588D01*
X110974010Y-128250373D01*
X109752410Y-128695000D01*
X109512996Y-128037215D01*
X109512996Y-128037215D01*
G37*
D15*
G04 #@! TO.P,R51,2*
G04 #@! TO.N,/HF_OUT*
X101000000Y-129950000D03*
G04 #@! TO.P,R51,1*
G04 #@! TO.N,Net-(R14-Pad2)*
X101000000Y-128050000D03*
G04 #@! TD*
D16*
G04 #@! TO.N,/HF_IN*
X100000000Y-106000000D03*
X97000000Y-110000000D03*
X103000000Y-110000000D03*
D17*
G04 #@! TO.N,GND*
X87000000Y-104000000D03*
D16*
X89000000Y-102000000D03*
X91000000Y-102000000D03*
X93000000Y-102000000D03*
X85000000Y-106000000D03*
X85000000Y-108000000D03*
X85000000Y-110000000D03*
X85000000Y-112000000D03*
X85000000Y-114000000D03*
X85000000Y-116000000D03*
X85000000Y-118000000D03*
X85000000Y-120000000D03*
X85000000Y-122000000D03*
X85000000Y-124000000D03*
X85000000Y-126000000D03*
X85000000Y-128000000D03*
X85000000Y-130000000D03*
X85000000Y-132000000D03*
X85000000Y-134000000D03*
D17*
X87000000Y-136000000D03*
D16*
X89000000Y-138000000D03*
X91000000Y-138000000D03*
X93000000Y-138000000D03*
D17*
X113000000Y-136000000D03*
D16*
X111000000Y-138000000D03*
X109000000Y-138000000D03*
X107000000Y-138000000D03*
X115000000Y-134000000D03*
X115000000Y-132000000D03*
X115000000Y-130000000D03*
X115000000Y-128000000D03*
X115000000Y-126000000D03*
X115000000Y-124000000D03*
X115000000Y-122000000D03*
X115000000Y-120000000D03*
X115000000Y-118000000D03*
X115000000Y-116000000D03*
X115000000Y-114000000D03*
X115000000Y-112000000D03*
X115000000Y-110000000D03*
X115000000Y-108000000D03*
X115000000Y-106000000D03*
D17*
X113000000Y-104000000D03*
D16*
X111000000Y-102000000D03*
X109000000Y-102000000D03*
X107000000Y-102000000D03*
X89000000Y-130000000D03*
X95000000Y-131000000D03*
X105000000Y-131000000D03*
X111000000Y-130000000D03*
X94000000Y-107500000D03*
X106000000Y-107500000D03*
X91000000Y-115000000D03*
X109000000Y-115000000D03*
X112000000Y-123000000D03*
X88000000Y-123000000D03*
G04 #@! TD*
D18*
G04 #@! TO.N,/HF_IN*
X100000000Y-103000000D02*
X100000000Y-110500000D01*
G04 #@! TO.N,GND*
X85000000Y-138000000D02*
X85000000Y-138000000D01*
X95075000Y-138000000D02*
X95875000Y-137200000D01*
X85000000Y-102000000D02*
X85000000Y-102000000D01*
X94000000Y-102000000D02*
X93000000Y-102000000D01*
X95875000Y-102800000D02*
X94800000Y-102800000D01*
X94800000Y-102800000D02*
X94000000Y-102000000D01*
X115000000Y-138000000D02*
X115000000Y-138000000D01*
X115000000Y-102000000D02*
X115000000Y-102000000D01*
X104925000Y-138000000D02*
X104125000Y-137200000D01*
X106000000Y-102000000D02*
X107000000Y-102000000D01*
X104125000Y-102800000D02*
X105200000Y-102800000D01*
X105200000Y-102800000D02*
X106000000Y-102000000D01*
X85000000Y-102000000D02*
X85000000Y-104000000D01*
X87000000Y-102000000D02*
X85000000Y-102000000D01*
X89000000Y-102000000D02*
X87000000Y-102000000D01*
X91000000Y-102000000D02*
X89000000Y-102000000D01*
X93000000Y-102000000D02*
X91000000Y-102000000D01*
X85000000Y-104000000D02*
X85000000Y-106000000D01*
X85000000Y-106000000D02*
X85000000Y-108000000D01*
X85000000Y-108000000D02*
X85000000Y-110000000D01*
X85000000Y-110000000D02*
X85000000Y-112000000D01*
X85000000Y-112000000D02*
X85000000Y-114000000D01*
X85000000Y-114000000D02*
X85000000Y-116000000D01*
X85000000Y-116000000D02*
X85000000Y-118000000D01*
X85000000Y-118000000D02*
X85000000Y-120000000D01*
X85000000Y-120000000D02*
X85000000Y-122000000D01*
X85000000Y-122000000D02*
X85000000Y-124000000D01*
X85000000Y-124000000D02*
X85000000Y-126000000D01*
X85000000Y-126000000D02*
X85000000Y-128000000D01*
X85000000Y-128000000D02*
X85000000Y-130000000D01*
X85000000Y-130000000D02*
X85000000Y-132000000D01*
X85000000Y-132000000D02*
X85000000Y-134000000D01*
X85000000Y-134000000D02*
X85000000Y-136000000D01*
X85000000Y-136000000D02*
X85000000Y-138000000D01*
X85000000Y-138000000D02*
X87000000Y-138000000D01*
X87000000Y-138000000D02*
X89000000Y-138000000D01*
X89000000Y-138000000D02*
X91000000Y-138000000D01*
X91000000Y-138000000D02*
X93000000Y-138000000D01*
X93000000Y-138000000D02*
X95075000Y-138000000D01*
X115000000Y-138000000D02*
X113000000Y-138000000D01*
X113000000Y-138000000D02*
X111000000Y-138000000D01*
X111000000Y-138000000D02*
X109000000Y-138000000D01*
X109000000Y-138000000D02*
X107000000Y-138000000D01*
X107000000Y-138000000D02*
X104925000Y-138000000D01*
X115000000Y-136000000D02*
X115000000Y-138000000D01*
X115000000Y-134000000D02*
X115000000Y-136000000D01*
X115000000Y-132000000D02*
X115000000Y-134000000D01*
X115000000Y-130000000D02*
X115000000Y-132000000D01*
X115000000Y-128000000D02*
X115000000Y-130000000D01*
X115000000Y-126000000D02*
X115000000Y-128000000D01*
X115000000Y-124000000D02*
X115000000Y-126000000D01*
X115000000Y-122000000D02*
X115000000Y-124000000D01*
X115000000Y-120000000D02*
X115000000Y-122000000D01*
X115000000Y-118000000D02*
X115000000Y-120000000D01*
X115000000Y-116000000D02*
X115000000Y-118000000D01*
X115000000Y-114000000D02*
X115000000Y-116000000D01*
X115000000Y-112000000D02*
X115000000Y-114000000D01*
X115000000Y-110000000D02*
X115000000Y-112000000D01*
X115000000Y-108000000D02*
X115000000Y-110000000D01*
X115000000Y-106000000D02*
X115000000Y-108000000D01*
X115000000Y-104000000D02*
X115000000Y-106000000D01*
X115000000Y-102000000D02*
X115000000Y-104000000D01*
X113000000Y-102000000D02*
X115000000Y-102000000D01*
X111000000Y-102000000D02*
X113000000Y-102000000D01*
X109000000Y-102000000D02*
X111000000Y-102000000D01*
X107000000Y-102000000D02*
X109000000Y-102000000D01*
X89756497Y-129243503D02*
X89000000Y-130000000D01*
X89756497Y-128143794D02*
X89756497Y-129243503D01*
X94799238Y-130799238D02*
X95000000Y-131000000D01*
X94799238Y-129494991D02*
X94799238Y-130799238D01*
X105200762Y-130799238D02*
X105000000Y-131000000D01*
X105200762Y-129494991D02*
X105200762Y-130799238D01*
X110243503Y-129243503D02*
X111000000Y-130000000D01*
X110243503Y-128143794D02*
X110243503Y-129243503D01*
G04 #@! TO.N,/HF_OUT*
X100000000Y-130950000D02*
X99000000Y-129950000D01*
X100000000Y-130950000D02*
X101000000Y-129950000D01*
X100000000Y-137200000D02*
X100000000Y-130950000D01*
G04 #@! TO.N,Net-(R1-Pad2)*
X95228819Y-113108712D02*
X94510577Y-115082067D01*
G04 #@! TO.N,Net-(R2-Pad2)*
X93860738Y-116867483D02*
X93142496Y-118840837D01*
G04 #@! TO.N,Net-(R3-Pad2)*
X92492658Y-120626253D02*
X91774416Y-122599607D01*
G04 #@! TO.N,Net-(R4-Pad2)*
X91124577Y-124385023D02*
X90406335Y-126358378D01*
G04 #@! TO.N,Net-(R6-Pad2)*
X97577609Y-113738067D02*
X97212947Y-115806164D01*
G04 #@! TO.N,Net-(R7-Pad2)*
X96883016Y-117677298D02*
X96518355Y-119745395D01*
G04 #@! TO.N,Net-(R8-Pad2)*
X96188423Y-121616529D02*
X95823762Y-123684626D01*
G04 #@! TO.N,Net-(R10-Pad1)*
X95493831Y-125555760D02*
X95129169Y-127623857D01*
G04 #@! TO.N,Net-(R11-Pad2)*
X100000000Y-113950000D02*
X100000000Y-116050000D01*
G04 #@! TO.N,Net-(R12-Pad2)*
X100000000Y-117950000D02*
X100000000Y-120050000D01*
G04 #@! TO.N,Net-(R13-Pad2)*
X100000000Y-121950000D02*
X100000000Y-124050000D01*
G04 #@! TO.N,Net-(R14-Pad2)*
X100000000Y-127050000D02*
X99000000Y-128050000D01*
X100000000Y-127050000D02*
X101000000Y-128050000D01*
X100000000Y-125950000D02*
X100000000Y-127050000D01*
G04 #@! TO.N,Net-(R16-Pad2)*
X102422391Y-113738067D02*
X102787053Y-115806164D01*
G04 #@! TO.N,Net-(R17-Pad2)*
X103116984Y-117677298D02*
X103481645Y-119745395D01*
G04 #@! TO.N,Net-(R18-Pad2)*
X103811577Y-121616529D02*
X104167556Y-123635385D01*
X104167556Y-123635385D02*
X104176238Y-123684626D01*
G04 #@! TO.N,Net-(R19-Pad2)*
X104506169Y-125555760D02*
X104870831Y-127623857D01*
G04 #@! TO.N,Net-(R21-Pad2)*
X104771181Y-113108712D02*
X105489423Y-115082067D01*
G04 #@! TO.N,Net-(R22-Pad2)*
X106139262Y-116867483D02*
X106857504Y-118840837D01*
G04 #@! TO.N,Net-(R23-Pad2)*
X107507342Y-120626253D02*
X108225584Y-122599607D01*
G04 #@! TO.N,Net-(R24-Pad2)*
X108875423Y-124385023D02*
X109593665Y-126358378D01*
G04 #@! TD*
D19*
G04 #@! TO.N,/HF_IN*
G36*
X100376586Y-103226852D02*
X100673640Y-103502129D01*
X104370089Y-109214823D01*
X104578102Y-109663722D01*
X104652216Y-110143765D01*
X104590420Y-110625548D01*
X104397552Y-111071347D01*
X104088718Y-111446250D01*
X103688093Y-111720907D01*
X103218491Y-111876647D01*
X100660342Y-112341766D01*
X100313944Y-112373000D01*
X99686056Y-112373000D01*
X99339658Y-112341766D01*
X96781509Y-111876647D01*
X96311907Y-111720907D01*
X95911282Y-111446250D01*
X95602448Y-111071347D01*
X95409580Y-110625548D01*
X95347784Y-110143765D01*
X95421898Y-109663722D01*
X95629911Y-109214823D01*
X99326360Y-103502129D01*
X99623414Y-103226852D01*
X100000000Y-103131045D01*
X100376586Y-103226852D01*
X100376586Y-103226852D01*
G37*
X100376586Y-103226852D02*
X100673640Y-103502129D01*
X104370089Y-109214823D01*
X104578102Y-109663722D01*
X104652216Y-110143765D01*
X104590420Y-110625548D01*
X104397552Y-111071347D01*
X104088718Y-111446250D01*
X103688093Y-111720907D01*
X103218491Y-111876647D01*
X100660342Y-112341766D01*
X100313944Y-112373000D01*
X99686056Y-112373000D01*
X99339658Y-112341766D01*
X96781509Y-111876647D01*
X96311907Y-111720907D01*
X95911282Y-111446250D01*
X95602448Y-111071347D01*
X95409580Y-110625548D01*
X95347784Y-110143765D01*
X95421898Y-109663722D01*
X95629911Y-109214823D01*
X99326360Y-103502129D01*
X99623414Y-103226852D01*
X100000000Y-103131045D01*
X100376586Y-103226852D01*
G04 #@! TO.N,GND*
G36*
X97258271Y-102549174D02*
X93732667Y-107997835D01*
X93588562Y-108259056D01*
X93369252Y-108732334D01*
X93197028Y-109302066D01*
X93117438Y-109817580D01*
X93109817Y-110412724D01*
X93136056Y-110617292D01*
X93110267Y-110688147D01*
X93017205Y-111292781D01*
X92699843Y-111815778D01*
X92460429Y-112473563D01*
X92427936Y-112684673D01*
X92092409Y-113606527D01*
X91981601Y-113789133D01*
X91742187Y-114446918D01*
X91649125Y-115051552D01*
X91331763Y-115574549D01*
X91092349Y-116232334D01*
X91059857Y-116443439D01*
X90724327Y-117365298D01*
X90613520Y-117547903D01*
X90374106Y-118205688D01*
X90281044Y-118810322D01*
X89963682Y-119333319D01*
X89724268Y-119991104D01*
X89691775Y-120202213D01*
X89356249Y-121124063D01*
X89245439Y-121306673D01*
X89006025Y-121964458D01*
X88912963Y-122569092D01*
X88595601Y-123092089D01*
X88356187Y-123749874D01*
X88323694Y-123960984D01*
X87988167Y-124882838D01*
X87877359Y-125065444D01*
X87637945Y-125723229D01*
X87509222Y-126559552D01*
X87710345Y-127381475D01*
X88210695Y-128063867D01*
X88215466Y-128066762D01*
X88493468Y-128445908D01*
X89437939Y-129019027D01*
X90529839Y-129187086D01*
X90986506Y-129075341D01*
X90992025Y-129076190D01*
X91813948Y-128875066D01*
X92372735Y-128465347D01*
X92651797Y-129099565D01*
X93263042Y-129684705D01*
X93268242Y-129686727D01*
X93607857Y-130011838D01*
X94637500Y-130412245D01*
X95741995Y-130388145D01*
X96172322Y-130198797D01*
X96177903Y-130198675D01*
X96181330Y-130197167D01*
X96181330Y-130300000D01*
X96346410Y-131129914D01*
X96816519Y-131833481D01*
X97223001Y-132105084D01*
X97223000Y-137473506D01*
X97287546Y-137798000D01*
X85202000Y-137798000D01*
X85202000Y-102202000D01*
X97327328Y-102202000D01*
X97258271Y-102549174D01*
X97258271Y-102549174D01*
G37*
X97258271Y-102549174D02*
X93732667Y-107997835D01*
X93588562Y-108259056D01*
X93369252Y-108732334D01*
X93197028Y-109302066D01*
X93117438Y-109817580D01*
X93109817Y-110412724D01*
X93136056Y-110617292D01*
X93110267Y-110688147D01*
X93017205Y-111292781D01*
X92699843Y-111815778D01*
X92460429Y-112473563D01*
X92427936Y-112684673D01*
X92092409Y-113606527D01*
X91981601Y-113789133D01*
X91742187Y-114446918D01*
X91649125Y-115051552D01*
X91331763Y-115574549D01*
X91092349Y-116232334D01*
X91059857Y-116443439D01*
X90724327Y-117365298D01*
X90613520Y-117547903D01*
X90374106Y-118205688D01*
X90281044Y-118810322D01*
X89963682Y-119333319D01*
X89724268Y-119991104D01*
X89691775Y-120202213D01*
X89356249Y-121124063D01*
X89245439Y-121306673D01*
X89006025Y-121964458D01*
X88912963Y-122569092D01*
X88595601Y-123092089D01*
X88356187Y-123749874D01*
X88323694Y-123960984D01*
X87988167Y-124882838D01*
X87877359Y-125065444D01*
X87637945Y-125723229D01*
X87509222Y-126559552D01*
X87710345Y-127381475D01*
X88210695Y-128063867D01*
X88215466Y-128066762D01*
X88493468Y-128445908D01*
X89437939Y-129019027D01*
X90529839Y-129187086D01*
X90986506Y-129075341D01*
X90992025Y-129076190D01*
X91813948Y-128875066D01*
X92372735Y-128465347D01*
X92651797Y-129099565D01*
X93263042Y-129684705D01*
X93268242Y-129686727D01*
X93607857Y-130011838D01*
X94637500Y-130412245D01*
X95741995Y-130388145D01*
X96172322Y-130198797D01*
X96177903Y-130198675D01*
X96181330Y-130197167D01*
X96181330Y-130300000D01*
X96346410Y-131129914D01*
X96816519Y-131833481D01*
X97223001Y-132105084D01*
X97223000Y-137473506D01*
X97287546Y-137798000D01*
X85202000Y-137798000D01*
X85202000Y-102202000D01*
X97327328Y-102202000D01*
X97258271Y-102549174D01*
G36*
X114798001Y-104760150D02*
X108477462Y-104760150D01*
X108428554Y-104769945D01*
X108387425Y-104797583D01*
X108360003Y-104838856D01*
X108350462Y-104887482D01*
X108373000Y-113500332D01*
X108382667Y-113548601D01*
X108410197Y-113589803D01*
X108451399Y-113617333D01*
X108500000Y-113627000D01*
X114798001Y-113627000D01*
X114798000Y-137798000D01*
X102712454Y-137798000D01*
X102777000Y-137473507D01*
X102777000Y-132105083D01*
X103183481Y-131833481D01*
X103653590Y-131129914D01*
X103818670Y-130300000D01*
X103818670Y-130197167D01*
X103822097Y-130198675D01*
X103827677Y-130198797D01*
X104258005Y-130388145D01*
X105362500Y-130412245D01*
X106392143Y-130011838D01*
X106731758Y-129686727D01*
X106736958Y-129684705D01*
X107348203Y-129099565D01*
X107627265Y-128465347D01*
X108186054Y-128875067D01*
X109007977Y-129076190D01*
X109013495Y-129075341D01*
X109470160Y-129187086D01*
X110562061Y-129019027D01*
X111506532Y-128445908D01*
X111784532Y-128066765D01*
X111789304Y-128063869D01*
X112289654Y-127381477D01*
X112490778Y-126559554D01*
X112362055Y-125723229D01*
X112122641Y-125065444D01*
X112011835Y-124882841D01*
X111676306Y-123960983D01*
X111643813Y-123749874D01*
X111404399Y-123092089D01*
X111087038Y-122569094D01*
X110993975Y-121964458D01*
X110754561Y-121306673D01*
X110643753Y-121124066D01*
X110308225Y-120202211D01*
X110275732Y-119991104D01*
X110036318Y-119333319D01*
X109718957Y-118810324D01*
X109625894Y-118205688D01*
X109386480Y-117547903D01*
X109275674Y-117365300D01*
X108940143Y-116443437D01*
X108907651Y-116232334D01*
X108668237Y-115574549D01*
X108350876Y-115051554D01*
X108257813Y-114446918D01*
X108018399Y-113789133D01*
X107907593Y-113606530D01*
X107572064Y-112684672D01*
X107539571Y-112473563D01*
X107300157Y-111815778D01*
X106982796Y-111292783D01*
X106889733Y-110688147D01*
X106863944Y-110617292D01*
X106890183Y-110412724D01*
X106882562Y-109817580D01*
X106802972Y-109302066D01*
X106630748Y-108732334D01*
X106411438Y-108259056D01*
X106267333Y-107997835D01*
X102741729Y-102549175D01*
X102672672Y-102202000D01*
X114798001Y-102202000D01*
X114798001Y-104760150D01*
X114798001Y-104760150D01*
G37*
X114798001Y-104760150D02*
X108477462Y-104760150D01*
X108428554Y-104769945D01*
X108387425Y-104797583D01*
X108360003Y-104838856D01*
X108350462Y-104887482D01*
X108373000Y-113500332D01*
X108382667Y-113548601D01*
X108410197Y-113589803D01*
X108451399Y-113617333D01*
X108500000Y-113627000D01*
X114798001Y-113627000D01*
X114798000Y-137798000D01*
X102712454Y-137798000D01*
X102777000Y-137473507D01*
X102777000Y-132105083D01*
X103183481Y-131833481D01*
X103653590Y-131129914D01*
X103818670Y-130300000D01*
X103818670Y-130197167D01*
X103822097Y-130198675D01*
X103827677Y-130198797D01*
X104258005Y-130388145D01*
X105362500Y-130412245D01*
X106392143Y-130011838D01*
X106731758Y-129686727D01*
X106736958Y-129684705D01*
X107348203Y-129099565D01*
X107627265Y-128465347D01*
X108186054Y-128875067D01*
X109007977Y-129076190D01*
X109013495Y-129075341D01*
X109470160Y-129187086D01*
X110562061Y-129019027D01*
X111506532Y-128445908D01*
X111784532Y-128066765D01*
X111789304Y-128063869D01*
X112289654Y-127381477D01*
X112490778Y-126559554D01*
X112362055Y-125723229D01*
X112122641Y-125065444D01*
X112011835Y-124882841D01*
X111676306Y-123960983D01*
X111643813Y-123749874D01*
X111404399Y-123092089D01*
X111087038Y-122569094D01*
X110993975Y-121964458D01*
X110754561Y-121306673D01*
X110643753Y-121124066D01*
X110308225Y-120202211D01*
X110275732Y-119991104D01*
X110036318Y-119333319D01*
X109718957Y-118810324D01*
X109625894Y-118205688D01*
X109386480Y-117547903D01*
X109275674Y-117365300D01*
X108940143Y-116443437D01*
X108907651Y-116232334D01*
X108668237Y-115574549D01*
X108350876Y-115051554D01*
X108257813Y-114446918D01*
X108018399Y-113789133D01*
X107907593Y-113606530D01*
X107572064Y-112684672D01*
X107539571Y-112473563D01*
X107300157Y-111815778D01*
X106982796Y-111292783D01*
X106889733Y-110688147D01*
X106863944Y-110617292D01*
X106890183Y-110412724D01*
X106882562Y-109817580D01*
X106802972Y-109302066D01*
X106630748Y-108732334D01*
X106411438Y-108259056D01*
X106267333Y-107997835D01*
X102741729Y-102549175D01*
X102672672Y-102202000D01*
X114798001Y-102202000D01*
X114798001Y-104760150D01*
G36*
X114872667Y-113373000D02*
X108626669Y-113373000D01*
X108609227Y-106707500D01*
X110049524Y-106707500D01*
X110049524Y-111477500D01*
X113950476Y-111477500D01*
X113950476Y-106707500D01*
X110049524Y-106707500D01*
X108609227Y-106707500D01*
X108604795Y-105014150D01*
X114850793Y-105014150D01*
X114872667Y-113373000D01*
X114872667Y-113373000D01*
G37*
X114872667Y-113373000D02*
X108626669Y-113373000D01*
X108609227Y-106707500D01*
X110049524Y-106707500D01*
X110049524Y-111477500D01*
X113950476Y-111477500D01*
X113950476Y-106707500D01*
X110049524Y-106707500D01*
X108609227Y-106707500D01*
X108604795Y-105014150D01*
X114850793Y-105014150D01*
X114872667Y-113373000D01*
G04 #@! TD*
M02*
