G04 #@! TF.GenerationSoftware,KiCad,Pcbnew,5.0.2-bee76a0~70~ubuntu18.04.1*
G04 #@! TF.CreationDate,2019-05-30T10:34:00+02:00*
G04 #@! TF.ProjectId,DummyLoad,44756d6d-794c-46f6-9164-2e6b69636164,1.0*
G04 #@! TF.SameCoordinates,Original*
G04 #@! TF.FileFunction,Paste,Top*
G04 #@! TF.FilePolarity,Positive*
%FSLAX46Y46*%
G04 Gerber Fmt 4.6, Leading zero omitted, Abs format (unit mm)*
G04 Created by KiCad (PCBNEW 5.0.2-bee76a0~70~ubuntu18.04.1) date Do 30 Mai 2019 10:34:00 CEST*
%MOMM*%
%LPD*%
G01*
G04 APERTURE LIST*
%ADD10R,0.900000X5.600000*%
%ADD11R,1.650000X5.600000*%
%ADD12C,0.700000*%
%ADD13C,0.100000*%
%ADD14R,1.300000X0.700000*%
G04 APERTURE END LIST*
D10*
G04 #@! TO.C,CN1*
X100000000Y-102800000D03*
D11*
X104125000Y-102800000D03*
X95875000Y-102800000D03*
G04 #@! TD*
G04 #@! TO.C,CN2*
X104125000Y-137200000D03*
X95875000Y-137200000D03*
D10*
X100000000Y-137200000D03*
G04 #@! TD*
D12*
G04 #@! TO.C,R1*
X95878657Y-111323296D03*
D13*
G36*
X95387564Y-110772090D02*
X96609164Y-111216717D01*
X96369750Y-111874502D01*
X95148150Y-111429875D01*
X95387564Y-110772090D01*
X95387564Y-110772090D01*
G37*
D12*
X95228819Y-113108712D03*
D13*
G36*
X94737726Y-112557506D02*
X95959326Y-113002133D01*
X95719912Y-113659918D01*
X94498312Y-113215291D01*
X94737726Y-112557506D01*
X94737726Y-112557506D01*
G37*
G04 #@! TD*
D12*
G04 #@! TO.C,R2*
X93860739Y-116867483D03*
D13*
G36*
X93369646Y-116316277D02*
X94591246Y-116760904D01*
X94351832Y-117418689D01*
X93130232Y-116974062D01*
X93369646Y-116316277D01*
X93369646Y-116316277D01*
G37*
D12*
X94510577Y-115082067D03*
D13*
G36*
X94019484Y-114530861D02*
X95241084Y-114975488D01*
X95001670Y-115633273D01*
X93780070Y-115188646D01*
X94019484Y-114530861D01*
X94019484Y-114530861D01*
G37*
G04 #@! TD*
D12*
G04 #@! TO.C,R3*
X93142496Y-118840837D03*
D13*
G36*
X92651403Y-118289631D02*
X93873003Y-118734258D01*
X93633589Y-119392043D01*
X92411989Y-118947416D01*
X92651403Y-118289631D01*
X92651403Y-118289631D01*
G37*
D12*
X92492658Y-120626253D03*
D13*
G36*
X92001565Y-120075047D02*
X93223165Y-120519674D01*
X92983751Y-121177459D01*
X91762151Y-120732832D01*
X92001565Y-120075047D01*
X92001565Y-120075047D01*
G37*
G04 #@! TD*
D12*
G04 #@! TO.C,R4*
X91124577Y-124385023D03*
D13*
G36*
X90633484Y-123833817D02*
X91855084Y-124278444D01*
X91615670Y-124936229D01*
X90394070Y-124491602D01*
X90633484Y-123833817D01*
X90633484Y-123833817D01*
G37*
D12*
X91774415Y-122599607D03*
D13*
G36*
X91283322Y-122048401D02*
X92504922Y-122493028D01*
X92265508Y-123150813D01*
X91043908Y-122706186D01*
X91283322Y-122048401D01*
X91283322Y-122048401D01*
G37*
G04 #@! TD*
D12*
G04 #@! TO.C,R5*
X90406335Y-126358378D03*
D13*
G36*
X89915242Y-125807172D02*
X91136842Y-126251799D01*
X90897428Y-126909584D01*
X89675828Y-126464957D01*
X89915242Y-125807172D01*
X89915242Y-125807172D01*
G37*
D12*
X89756497Y-128143794D03*
D13*
G36*
X89265404Y-127592588D02*
X90487004Y-128037215D01*
X90247590Y-128695000D01*
X89025990Y-128250373D01*
X89265404Y-127592588D01*
X89265404Y-127592588D01*
G37*
G04 #@! TD*
D12*
G04 #@! TO.C,R6*
X97907540Y-111866933D03*
D13*
G36*
X97328192Y-111409379D02*
X98608442Y-111635122D01*
X98486888Y-112324487D01*
X97206638Y-112098744D01*
X97328192Y-111409379D01*
X97328192Y-111409379D01*
G37*
D12*
X97577608Y-113738067D03*
D13*
G36*
X96998260Y-113280513D02*
X98278510Y-113506256D01*
X98156956Y-114195621D01*
X96876706Y-113969878D01*
X96998260Y-113280513D01*
X96998260Y-113280513D01*
G37*
G04 #@! TD*
D12*
G04 #@! TO.C,R7*
X96883016Y-117677298D03*
D13*
G36*
X96303668Y-117219744D02*
X97583918Y-117445487D01*
X97462364Y-118134852D01*
X96182114Y-117909109D01*
X96303668Y-117219744D01*
X96303668Y-117219744D01*
G37*
D12*
X97212948Y-115806164D03*
D13*
G36*
X96633600Y-115348610D02*
X97913850Y-115574353D01*
X97792296Y-116263718D01*
X96512046Y-116037975D01*
X96633600Y-115348610D01*
X96633600Y-115348610D01*
G37*
G04 #@! TD*
D12*
G04 #@! TO.C,R8*
X96518355Y-119745395D03*
D13*
G36*
X95939007Y-119287841D02*
X97219257Y-119513584D01*
X97097703Y-120202949D01*
X95817453Y-119977206D01*
X95939007Y-119287841D01*
X95939007Y-119287841D01*
G37*
D12*
X96188423Y-121616529D03*
D13*
G36*
X95609075Y-121158975D02*
X96889325Y-121384718D01*
X96767771Y-122074083D01*
X95487521Y-121848340D01*
X95609075Y-121158975D01*
X95609075Y-121158975D01*
G37*
G04 #@! TD*
D12*
G04 #@! TO.C,R9*
X95493830Y-125555760D03*
D13*
G36*
X94914482Y-125098206D02*
X96194732Y-125323949D01*
X96073178Y-126013314D01*
X94792928Y-125787571D01*
X94914482Y-125098206D01*
X94914482Y-125098206D01*
G37*
D12*
X95823762Y-123684626D03*
D13*
G36*
X95244414Y-123227072D02*
X96524664Y-123452815D01*
X96403110Y-124142180D01*
X95122860Y-123916437D01*
X95244414Y-123227072D01*
X95244414Y-123227072D01*
G37*
G04 #@! TD*
D12*
G04 #@! TO.C,R10*
X95129170Y-127623857D03*
D13*
G36*
X94549822Y-127166303D02*
X95830072Y-127392046D01*
X95708518Y-128081411D01*
X94428268Y-127855668D01*
X94549822Y-127166303D01*
X94549822Y-127166303D01*
G37*
D12*
X94799238Y-129494991D03*
D13*
G36*
X94219890Y-129037437D02*
X95500140Y-129263180D01*
X95378586Y-129952545D01*
X94098336Y-129726802D01*
X94219890Y-129037437D01*
X94219890Y-129037437D01*
G37*
G04 #@! TD*
D14*
G04 #@! TO.C,R11*
X100000000Y-112050000D03*
X100000000Y-113950000D03*
G04 #@! TD*
G04 #@! TO.C,R12*
X100000000Y-117950000D03*
X100000000Y-116050000D03*
G04 #@! TD*
G04 #@! TO.C,R13*
X100000000Y-120050000D03*
X100000000Y-121950000D03*
G04 #@! TD*
G04 #@! TO.C,R14*
X100000000Y-125950000D03*
X100000000Y-124050000D03*
G04 #@! TD*
G04 #@! TO.C,R15*
X99000000Y-128050000D03*
X99000000Y-129950000D03*
G04 #@! TD*
D12*
G04 #@! TO.C,R16*
X102422392Y-113738067D03*
D13*
G36*
X101721490Y-113506256D02*
X103001740Y-113280513D01*
X103123294Y-113969878D01*
X101843044Y-114195621D01*
X101721490Y-113506256D01*
X101721490Y-113506256D01*
G37*
D12*
X102092460Y-111866933D03*
D13*
G36*
X101391558Y-111635122D02*
X102671808Y-111409379D01*
X102793362Y-112098744D01*
X101513112Y-112324487D01*
X101391558Y-111635122D01*
X101391558Y-111635122D01*
G37*
G04 #@! TD*
D12*
G04 #@! TO.C,R17*
X102787052Y-115806164D03*
D13*
G36*
X102086150Y-115574353D02*
X103366400Y-115348610D01*
X103487954Y-116037975D01*
X102207704Y-116263718D01*
X102086150Y-115574353D01*
X102086150Y-115574353D01*
G37*
D12*
X103116984Y-117677298D03*
D13*
G36*
X102416082Y-117445487D02*
X103696332Y-117219744D01*
X103817886Y-117909109D01*
X102537636Y-118134852D01*
X102416082Y-117445487D01*
X102416082Y-117445487D01*
G37*
G04 #@! TD*
D12*
G04 #@! TO.C,R18*
X103811577Y-121616529D03*
D13*
G36*
X103110675Y-121384718D02*
X104390925Y-121158975D01*
X104512479Y-121848340D01*
X103232229Y-122074083D01*
X103110675Y-121384718D01*
X103110675Y-121384718D01*
G37*
D12*
X103481645Y-119745395D03*
D13*
G36*
X102780743Y-119513584D02*
X104060993Y-119287841D01*
X104182547Y-119977206D01*
X102902297Y-120202949D01*
X102780743Y-119513584D01*
X102780743Y-119513584D01*
G37*
G04 #@! TD*
D12*
G04 #@! TO.C,R19*
X104176238Y-123684626D03*
D13*
G36*
X103475336Y-123452815D02*
X104755586Y-123227072D01*
X104877140Y-123916437D01*
X103596890Y-124142180D01*
X103475336Y-123452815D01*
X103475336Y-123452815D01*
G37*
D12*
X104506170Y-125555760D03*
D13*
G36*
X103805268Y-125323949D02*
X105085518Y-125098206D01*
X105207072Y-125787571D01*
X103926822Y-126013314D01*
X103805268Y-125323949D01*
X103805268Y-125323949D01*
G37*
G04 #@! TD*
D12*
G04 #@! TO.C,R20*
X105200762Y-129494991D03*
D13*
G36*
X104499860Y-129263180D02*
X105780110Y-129037437D01*
X105901664Y-129726802D01*
X104621414Y-129952545D01*
X104499860Y-129263180D01*
X104499860Y-129263180D01*
G37*
D12*
X104870830Y-127623857D03*
D13*
G36*
X104169928Y-127392046D02*
X105450178Y-127166303D01*
X105571732Y-127855668D01*
X104291482Y-128081411D01*
X104169928Y-127392046D01*
X104169928Y-127392046D01*
G37*
G04 #@! TD*
D12*
G04 #@! TO.C,R21*
X104121343Y-111323296D03*
D13*
G36*
X103390836Y-111216717D02*
X104612436Y-110772090D01*
X104851850Y-111429875D01*
X103630250Y-111874502D01*
X103390836Y-111216717D01*
X103390836Y-111216717D01*
G37*
D12*
X104771181Y-113108712D03*
D13*
G36*
X104040674Y-113002133D02*
X105262274Y-112557506D01*
X105501688Y-113215291D01*
X104280088Y-113659918D01*
X104040674Y-113002133D01*
X104040674Y-113002133D01*
G37*
G04 #@! TD*
D12*
G04 #@! TO.C,R22*
X106139261Y-116867483D03*
D13*
G36*
X105408754Y-116760904D02*
X106630354Y-116316277D01*
X106869768Y-116974062D01*
X105648168Y-117418689D01*
X105408754Y-116760904D01*
X105408754Y-116760904D01*
G37*
D12*
X105489423Y-115082067D03*
D13*
G36*
X104758916Y-114975488D02*
X105980516Y-114530861D01*
X106219930Y-115188646D01*
X104998330Y-115633273D01*
X104758916Y-114975488D01*
X104758916Y-114975488D01*
G37*
G04 #@! TD*
D12*
G04 #@! TO.C,R23*
X106857504Y-118840837D03*
D13*
G36*
X106126997Y-118734258D02*
X107348597Y-118289631D01*
X107588011Y-118947416D01*
X106366411Y-119392043D01*
X106126997Y-118734258D01*
X106126997Y-118734258D01*
G37*
D12*
X107507342Y-120626253D03*
D13*
G36*
X106776835Y-120519674D02*
X107998435Y-120075047D01*
X108237849Y-120732832D01*
X107016249Y-121177459D01*
X106776835Y-120519674D01*
X106776835Y-120519674D01*
G37*
G04 #@! TD*
D12*
G04 #@! TO.C,R24*
X108875423Y-124385023D03*
D13*
G36*
X108144916Y-124278444D02*
X109366516Y-123833817D01*
X109605930Y-124491602D01*
X108384330Y-124936229D01*
X108144916Y-124278444D01*
X108144916Y-124278444D01*
G37*
D12*
X108225585Y-122599607D03*
D13*
G36*
X107495078Y-122493028D02*
X108716678Y-122048401D01*
X108956092Y-122706186D01*
X107734492Y-123150813D01*
X107495078Y-122493028D01*
X107495078Y-122493028D01*
G37*
G04 #@! TD*
D12*
G04 #@! TO.C,R25*
X109593665Y-126358378D03*
D13*
G36*
X108863158Y-126251799D02*
X110084758Y-125807172D01*
X110324172Y-126464957D01*
X109102572Y-126909584D01*
X108863158Y-126251799D01*
X108863158Y-126251799D01*
G37*
D12*
X110243503Y-128143794D03*
D13*
G36*
X109512996Y-128037215D02*
X110734596Y-127592588D01*
X110974010Y-128250373D01*
X109752410Y-128695000D01*
X109512996Y-128037215D01*
X109512996Y-128037215D01*
G37*
G04 #@! TD*
D14*
G04 #@! TO.C,R51*
X101000000Y-129950000D03*
X101000000Y-128050000D03*
G04 #@! TD*
M02*
