G04 #@! TF.GenerationSoftware,KiCad,Pcbnew,5.0.2-bee76a0~70~ubuntu18.04.1*
G04 #@! TF.CreationDate,2019-05-30T10:34:00+02:00*
G04 #@! TF.ProjectId,DummyLoad,44756d6d-794c-46f6-9164-2e6b69636164,1.0*
G04 #@! TF.SameCoordinates,Original*
G04 #@! TF.FileFunction,Legend,Bot*
G04 #@! TF.FilePolarity,Positive*
%FSLAX46Y46*%
G04 Gerber Fmt 4.6, Leading zero omitted, Abs format (unit mm)*
G04 Created by KiCad (PCBNEW 5.0.2-bee76a0~70~ubuntu18.04.1) date Do 30 Mai 2019 10:34:00 CEST*
%MOMM*%
%LPD*%
G01*
G04 APERTURE LIST*
%ADD10C,0.250000*%
%ADD11C,0.150000*%
%ADD12C,0.010000*%
G04 APERTURE END LIST*
D10*
X87077380Y-108119047D02*
X87077380Y-107642857D01*
X86077380Y-107642857D01*
X87077380Y-108452380D02*
X86410714Y-108452380D01*
X86077380Y-108452380D02*
X86125000Y-108404761D01*
X86172619Y-108452380D01*
X86125000Y-108500000D01*
X86077380Y-108452380D01*
X86172619Y-108452380D01*
X87029761Y-109357142D02*
X87077380Y-109261904D01*
X87077380Y-109071428D01*
X87029761Y-108976190D01*
X86982142Y-108928571D01*
X86886904Y-108880952D01*
X86601190Y-108880952D01*
X86505952Y-108928571D01*
X86458333Y-108976190D01*
X86410714Y-109071428D01*
X86410714Y-109261904D01*
X86458333Y-109357142D01*
X87029761Y-110166666D02*
X87077380Y-110071428D01*
X87077380Y-109880952D01*
X87029761Y-109785714D01*
X86934523Y-109738095D01*
X86553571Y-109738095D01*
X86458333Y-109785714D01*
X86410714Y-109880952D01*
X86410714Y-110071428D01*
X86458333Y-110166666D01*
X86553571Y-110214285D01*
X86648809Y-110214285D01*
X86744047Y-109738095D01*
X86410714Y-110642857D02*
X87077380Y-110642857D01*
X86505952Y-110642857D02*
X86458333Y-110690476D01*
X86410714Y-110785714D01*
X86410714Y-110928571D01*
X86458333Y-111023809D01*
X86553571Y-111071428D01*
X87077380Y-111071428D01*
X87029761Y-111500000D02*
X87077380Y-111595238D01*
X87077380Y-111785714D01*
X87029761Y-111880952D01*
X86934523Y-111928571D01*
X86886904Y-111928571D01*
X86791666Y-111880952D01*
X86744047Y-111785714D01*
X86744047Y-111642857D01*
X86696428Y-111547619D01*
X86601190Y-111500000D01*
X86553571Y-111500000D01*
X86458333Y-111547619D01*
X86410714Y-111642857D01*
X86410714Y-111785714D01*
X86458333Y-111880952D01*
X87029761Y-112738095D02*
X87077380Y-112642857D01*
X87077380Y-112452380D01*
X87029761Y-112357142D01*
X86934523Y-112309523D01*
X86553571Y-112309523D01*
X86458333Y-112357142D01*
X86410714Y-112452380D01*
X86410714Y-112642857D01*
X86458333Y-112738095D01*
X86553571Y-112785714D01*
X86648809Y-112785714D01*
X86744047Y-112309523D01*
X87077380Y-113642857D02*
X86077380Y-113642857D01*
X87029761Y-113642857D02*
X87077380Y-113547619D01*
X87077380Y-113357142D01*
X87029761Y-113261904D01*
X86982142Y-113214285D01*
X86886904Y-113166666D01*
X86601190Y-113166666D01*
X86505952Y-113214285D01*
X86458333Y-113261904D01*
X86410714Y-113357142D01*
X86410714Y-113547619D01*
X86458333Y-113642857D01*
X86410714Y-115309523D02*
X87077380Y-115309523D01*
X86410714Y-114880952D02*
X86934523Y-114880952D01*
X87029761Y-114928571D01*
X87077380Y-115023809D01*
X87077380Y-115166666D01*
X87029761Y-115261904D01*
X86982142Y-115309523D01*
X86410714Y-115785714D02*
X87077380Y-115785714D01*
X86505952Y-115785714D02*
X86458333Y-115833333D01*
X86410714Y-115928571D01*
X86410714Y-116071428D01*
X86458333Y-116166666D01*
X86553571Y-116214285D01*
X87077380Y-116214285D01*
X87077380Y-117119047D02*
X86077380Y-117119047D01*
X87029761Y-117119047D02*
X87077380Y-117023809D01*
X87077380Y-116833333D01*
X87029761Y-116738095D01*
X86982142Y-116690476D01*
X86886904Y-116642857D01*
X86601190Y-116642857D01*
X86505952Y-116690476D01*
X86458333Y-116738095D01*
X86410714Y-116833333D01*
X86410714Y-117023809D01*
X86458333Y-117119047D01*
X87029761Y-117976190D02*
X87077380Y-117880952D01*
X87077380Y-117690476D01*
X87029761Y-117595238D01*
X86934523Y-117547619D01*
X86553571Y-117547619D01*
X86458333Y-117595238D01*
X86410714Y-117690476D01*
X86410714Y-117880952D01*
X86458333Y-117976190D01*
X86553571Y-118023809D01*
X86648809Y-118023809D01*
X86744047Y-117547619D01*
X87077380Y-118452380D02*
X86410714Y-118452380D01*
X86601190Y-118452380D02*
X86505952Y-118500000D01*
X86458333Y-118547619D01*
X86410714Y-118642857D01*
X86410714Y-118738095D01*
X88732142Y-108166666D02*
X88779761Y-108119047D01*
X88827380Y-107976190D01*
X88827380Y-107880952D01*
X88779761Y-107738095D01*
X88684523Y-107642857D01*
X88589285Y-107595238D01*
X88398809Y-107547619D01*
X88255952Y-107547619D01*
X88065476Y-107595238D01*
X87970238Y-107642857D01*
X87875000Y-107738095D01*
X87827380Y-107880952D01*
X87827380Y-107976190D01*
X87875000Y-108119047D01*
X87922619Y-108166666D01*
X88303571Y-108595238D02*
X88303571Y-108928571D01*
X88827380Y-109071428D02*
X88827380Y-108595238D01*
X87827380Y-108595238D01*
X87827380Y-109071428D01*
X88827380Y-110071428D02*
X88351190Y-109738095D01*
X88827380Y-109500000D02*
X87827380Y-109500000D01*
X87827380Y-109880952D01*
X87875000Y-109976190D01*
X87922619Y-110023809D01*
X88017857Y-110071428D01*
X88160714Y-110071428D01*
X88255952Y-110023809D01*
X88303571Y-109976190D01*
X88351190Y-109880952D01*
X88351190Y-109500000D01*
X88827380Y-110500000D02*
X87827380Y-110500000D01*
X88827380Y-111071428D01*
X87827380Y-111071428D01*
X87827380Y-112500000D02*
X87827380Y-112690476D01*
X87875000Y-112785714D01*
X87970238Y-112880952D01*
X88160714Y-112928571D01*
X88494047Y-112928571D01*
X88684523Y-112880952D01*
X88779761Y-112785714D01*
X88827380Y-112690476D01*
X88827380Y-112500000D01*
X88779761Y-112404761D01*
X88684523Y-112309523D01*
X88494047Y-112261904D01*
X88160714Y-112261904D01*
X87970238Y-112309523D01*
X87875000Y-112404761D01*
X87827380Y-112500000D01*
X88827380Y-113357142D02*
X87827380Y-113357142D01*
X88303571Y-113357142D02*
X88303571Y-113928571D01*
X88827380Y-113928571D02*
X87827380Y-113928571D01*
X88827380Y-114880952D02*
X88827380Y-114404761D01*
X87827380Y-114404761D01*
X88160714Y-115880952D02*
X88827380Y-116119047D01*
X88160714Y-116357142D01*
X88827380Y-118023809D02*
X88827380Y-117452380D01*
X88827380Y-117738095D02*
X87827380Y-117738095D01*
X87970238Y-117642857D01*
X88065476Y-117547619D01*
X88113095Y-117452380D01*
X88732142Y-118452380D02*
X88779761Y-118500000D01*
X88827380Y-118452380D01*
X88779761Y-118404761D01*
X88732142Y-118452380D01*
X88827380Y-118452380D01*
X87922619Y-118880952D02*
X87875000Y-118928571D01*
X87827380Y-119023809D01*
X87827380Y-119261904D01*
X87875000Y-119357142D01*
X87922619Y-119404761D01*
X88017857Y-119452380D01*
X88113095Y-119452380D01*
X88255952Y-119404761D01*
X88827380Y-118833333D01*
X88827380Y-119452380D01*
D11*
G04 #@! TO.C,R26*
X103418819Y-111951456D02*
X103829243Y-113079087D01*
X105473705Y-112480552D02*
X105063281Y-111352921D01*
G04 #@! TO.C,R27*
X104786899Y-115710227D02*
X105197323Y-116837858D01*
X106841785Y-116239323D02*
X106431361Y-115111692D01*
G04 #@! TO.C,R28*
X108209866Y-119998093D02*
X107799442Y-118870462D01*
X106154980Y-119468997D02*
X106565404Y-120596628D01*
G04 #@! TO.C,R29*
X107523061Y-123227767D02*
X107933485Y-124355398D01*
X109577947Y-123756863D02*
X109167523Y-122629232D01*
G04 #@! TO.C,R30*
X110946027Y-127515634D02*
X110535603Y-126388003D01*
X108891141Y-126986538D02*
X109301565Y-128114169D01*
G04 #@! TO.C,R31*
X101291530Y-112363558D02*
X101499908Y-113545327D01*
X103223322Y-113241442D02*
X103014944Y-112059673D01*
G04 #@! TO.C,R32*
X103917914Y-117180673D02*
X103709536Y-115998904D01*
X101986122Y-116302789D02*
X102194500Y-117484558D01*
G04 #@! TO.C,R33*
X102680715Y-120242020D02*
X102889093Y-121423789D01*
X104612507Y-121119904D02*
X104404129Y-119938135D01*
G04 #@! TO.C,R34*
X105307100Y-125059135D02*
X105098722Y-123877366D01*
X103375308Y-124181251D02*
X103583686Y-125363020D01*
G04 #@! TO.C,R35*
X104069900Y-128120482D02*
X104278278Y-129302251D01*
X106001692Y-128998366D02*
X105793314Y-127816597D01*
G04 #@! TO.C,R36*
X100875000Y-113600000D02*
X100875000Y-112400000D01*
X99125000Y-112400000D02*
X99125000Y-113600000D01*
G04 #@! TO.C,R37*
X99125000Y-116400000D02*
X99125000Y-117600000D01*
X100875000Y-117600000D02*
X100875000Y-116400000D01*
G04 #@! TO.C,R38*
X100875000Y-121600000D02*
X100875000Y-120400000D01*
X99125000Y-120400000D02*
X99125000Y-121600000D01*
G04 #@! TO.C,R39*
X100875000Y-125600000D02*
X100875000Y-124400000D01*
X99125000Y-124400000D02*
X99125000Y-125600000D01*
G04 #@! TO.C,R40*
X100875000Y-129600000D02*
X100875000Y-128400000D01*
X99125000Y-128400000D02*
X99125000Y-129600000D01*
G04 #@! TO.C,R41*
X96985056Y-112059673D02*
X96776678Y-113241442D01*
X98500092Y-113545327D02*
X98708470Y-112363558D01*
G04 #@! TO.C,R42*
X97805500Y-117484558D02*
X98013878Y-116302789D01*
X96290464Y-115998904D02*
X96082086Y-117180673D01*
G04 #@! TO.C,R43*
X95595871Y-119938135D02*
X95387493Y-121119904D01*
X97110907Y-121423789D02*
X97319285Y-120242020D01*
G04 #@! TO.C,R44*
X96416314Y-125363020D02*
X96624692Y-124181251D01*
X94901278Y-123877366D02*
X94692900Y-125059135D01*
G04 #@! TO.C,R45*
X94206686Y-127816597D02*
X93998308Y-128998366D01*
X95721722Y-129302251D02*
X95930100Y-128120482D01*
G04 #@! TO.C,R46*
X96170757Y-113079087D02*
X96581181Y-111951456D01*
X94936719Y-111352921D02*
X94526295Y-112480552D01*
G04 #@! TO.C,R47*
X93568639Y-115111692D02*
X93158215Y-116239323D01*
X94802677Y-116837858D02*
X95213101Y-115710227D01*
G04 #@! TO.C,R48*
X93434596Y-120596628D02*
X93845020Y-119468997D01*
X92200558Y-118870462D02*
X91790134Y-119998093D01*
G04 #@! TO.C,R49*
X90832477Y-122629232D02*
X90422053Y-123756863D01*
X92066515Y-124355398D02*
X92476939Y-123227767D01*
G04 #@! TO.C,R50*
X90698435Y-128114169D02*
X91108859Y-126986538D01*
X89464397Y-126388003D02*
X89053973Y-127515634D01*
D12*
G04 #@! TO.C,G\002A\002A\002A*
G36*
X93904000Y-133747400D02*
X106057900Y-133747400D01*
X106057900Y-132045600D01*
X106007100Y-132045600D01*
X106007100Y-133696600D01*
X98133100Y-133696600D01*
X98133100Y-132515500D01*
X98006100Y-132515500D01*
X98006100Y-133264800D01*
X97739400Y-133264800D01*
X97739330Y-133052075D01*
X97738519Y-132977239D01*
X97736326Y-132907836D01*
X97733030Y-132849357D01*
X97728913Y-132807295D01*
X97726000Y-132791604D01*
X97702496Y-132744635D01*
X97665440Y-132715603D01*
X97619372Y-132707963D01*
X97616490Y-132708252D01*
X97593573Y-132713760D01*
X97575797Y-132726320D01*
X97562445Y-132748854D01*
X97552800Y-132784284D01*
X97546144Y-132835532D01*
X97541760Y-132905521D01*
X97538930Y-132997173D01*
X97538327Y-133026675D01*
X97533821Y-133264800D01*
X97282200Y-133264800D01*
X97281945Y-133096525D01*
X97279866Y-132980118D01*
X97273660Y-132887008D01*
X97262789Y-132815345D01*
X97246712Y-132763278D01*
X97224892Y-132728960D01*
X97196788Y-132710539D01*
X97168114Y-132706000D01*
X97138031Y-132710336D01*
X97114218Y-132724923D01*
X97096028Y-132752125D01*
X97082813Y-132794308D01*
X97073926Y-132853838D01*
X97068718Y-132933080D01*
X97066541Y-133034399D01*
X97066374Y-133077475D01*
X97066300Y-133264800D01*
X96812300Y-133264800D01*
X96812300Y-133042550D01*
X96665704Y-133042550D01*
X96655917Y-133125396D01*
X96627894Y-133191246D01*
X96582141Y-133239419D01*
X96519167Y-133269234D01*
X96492000Y-133275409D01*
X96429279Y-133279876D01*
X96363999Y-133274075D01*
X96305700Y-133259467D01*
X96268648Y-133241142D01*
X96238730Y-133217571D01*
X96216489Y-133196250D01*
X96215893Y-133195542D01*
X96198357Y-133179125D01*
X96184167Y-133181506D01*
X96168481Y-133204866D01*
X96160808Y-133220350D01*
X96139611Y-133264800D01*
X95946251Y-133264800D01*
X95770900Y-133264800D01*
X95504200Y-133264800D01*
X95503981Y-133160025D01*
X95503462Y-133108302D01*
X95500857Y-133075471D01*
X95494195Y-133055023D01*
X95481506Y-133040450D01*
X95463806Y-133027329D01*
X95423851Y-132999409D01*
X95342414Y-133132104D01*
X95260977Y-133264800D01*
X95115889Y-133264800D01*
X95058593Y-133264133D01*
X95011971Y-133262322D01*
X94981052Y-133259648D01*
X94970800Y-133256646D01*
X94977374Y-133243932D01*
X94995687Y-133213325D01*
X95023632Y-133168224D01*
X95059100Y-133112028D01*
X95099983Y-133048135D01*
X95104643Y-133040902D01*
X95191479Y-132906219D01*
X94893645Y-132906219D01*
X94885235Y-132992036D01*
X94875676Y-133031816D01*
X94838639Y-133117326D01*
X94783675Y-133184849D01*
X94710818Y-133234358D01*
X94620103Y-133265826D01*
X94569000Y-133274670D01*
X94497479Y-133278971D01*
X94418605Y-133276293D01*
X94342350Y-133267477D01*
X94278684Y-133253364D01*
X94265950Y-133249123D01*
X94215150Y-133230579D01*
X94211419Y-133139739D01*
X94210419Y-133088852D01*
X94214921Y-133059880D01*
X94228417Y-133049419D01*
X94254399Y-133054066D01*
X94286625Y-133066416D01*
X94345589Y-133083644D01*
X94413604Y-133093218D01*
X94479343Y-133094134D01*
X94524543Y-133087473D01*
X94569301Y-133067068D01*
X94605137Y-133035561D01*
X94625515Y-132999516D01*
X94627900Y-132983687D01*
X94626444Y-132975253D01*
X94619786Y-132969095D01*
X94604494Y-132964857D01*
X94577136Y-132962185D01*
X94534279Y-132960722D01*
X94472492Y-132960112D01*
X94399300Y-132960000D01*
X94170700Y-132960000D01*
X94170700Y-132858657D01*
X94179178Y-132755968D01*
X94204942Y-132671359D01*
X94248490Y-132603847D01*
X94310320Y-132552454D01*
X94332287Y-132540145D01*
X94364767Y-132525326D01*
X94396692Y-132516072D01*
X94435567Y-132511143D01*
X94488894Y-132509302D01*
X94519950Y-132509150D01*
X94607645Y-132512965D01*
X94676826Y-132525749D01*
X94733408Y-132549511D01*
X94783307Y-132586257D01*
X94802868Y-132605194D01*
X94842008Y-132661125D01*
X94870924Y-132734269D01*
X94888505Y-132818132D01*
X94893645Y-132906219D01*
X95191479Y-132906219D01*
X95238485Y-132833313D01*
X95111591Y-132677581D01*
X94984697Y-132521850D01*
X95126974Y-132518157D01*
X95176931Y-132516336D01*
X95214455Y-132515486D01*
X95243337Y-132518055D01*
X95267365Y-132526490D01*
X95290327Y-132543238D01*
X95316014Y-132570747D01*
X95348214Y-132611464D01*
X95390716Y-132667836D01*
X95421242Y-132708224D01*
X95514649Y-132831098D01*
X95512600Y-132530424D01*
X95510550Y-132229750D01*
X95640725Y-132226130D01*
X95770900Y-132222511D01*
X95770900Y-133264800D01*
X95946251Y-133264800D01*
X95951561Y-132982225D01*
X95953780Y-132883630D01*
X95956446Y-132807136D01*
X95959817Y-132749443D01*
X95964153Y-132707253D01*
X95969712Y-132677266D01*
X95976752Y-132656184D01*
X95977196Y-132655200D01*
X96014641Y-132593273D01*
X96064003Y-132548399D01*
X96128103Y-132519169D01*
X96209760Y-132504172D01*
X96285001Y-132501424D01*
X96381716Y-132507677D01*
X96473454Y-132523596D01*
X96550535Y-132547484D01*
X96552497Y-132548296D01*
X96595094Y-132566094D01*
X96562981Y-132639222D01*
X96544600Y-132679215D01*
X96529055Y-132709764D01*
X96520852Y-132722747D01*
X96504718Y-132724300D01*
X96471239Y-132718890D01*
X96427136Y-132707671D01*
X96419252Y-132705326D01*
X96348366Y-132688579D01*
X96294881Y-132687560D01*
X96255915Y-132702707D01*
X96228701Y-132734254D01*
X96217468Y-132760075D01*
X96216847Y-132775175D01*
X96216937Y-132775269D01*
X96231910Y-132779466D01*
X96266362Y-132784916D01*
X96314457Y-132790778D01*
X96348373Y-132794232D01*
X96453321Y-132809938D01*
X96535767Y-132835639D01*
X96596951Y-132872304D01*
X96638112Y-132920905D01*
X96660493Y-132982412D01*
X96665704Y-133042550D01*
X96812300Y-133042550D01*
X96812300Y-132987662D01*
X96812916Y-132879454D01*
X96815193Y-132793273D01*
X96819775Y-132725768D01*
X96827304Y-132673585D01*
X96838424Y-132633373D01*
X96853779Y-132601779D01*
X96874012Y-132575452D01*
X96895378Y-132554840D01*
X96950551Y-132521954D01*
X97018786Y-132504614D01*
X97093011Y-132502881D01*
X97166151Y-132516819D01*
X97231136Y-132546488D01*
X97239075Y-132551827D01*
X97276958Y-132577409D01*
X97300882Y-132588817D01*
X97317073Y-132587297D01*
X97331758Y-132574096D01*
X97334441Y-132570914D01*
X97375010Y-132539052D01*
X97431048Y-132517642D01*
X97496473Y-132506575D01*
X97565205Y-132505746D01*
X97631163Y-132515048D01*
X97688268Y-132534374D01*
X97730440Y-132563616D01*
X97741768Y-132578071D01*
X97758807Y-132599748D01*
X97771942Y-132599454D01*
X97784593Y-132575909D01*
X97790200Y-132559950D01*
X97804870Y-132515500D01*
X98006100Y-132515500D01*
X98133100Y-132515500D01*
X98133100Y-132045600D01*
X106007100Y-132045600D01*
X106057900Y-132045600D01*
X106057900Y-131982100D01*
X93904000Y-131982100D01*
X93904000Y-133747400D01*
X93904000Y-133747400D01*
G37*
X93904000Y-133747400D02*
X106057900Y-133747400D01*
X106057900Y-132045600D01*
X106007100Y-132045600D01*
X106007100Y-133696600D01*
X98133100Y-133696600D01*
X98133100Y-132515500D01*
X98006100Y-132515500D01*
X98006100Y-133264800D01*
X97739400Y-133264800D01*
X97739330Y-133052075D01*
X97738519Y-132977239D01*
X97736326Y-132907836D01*
X97733030Y-132849357D01*
X97728913Y-132807295D01*
X97726000Y-132791604D01*
X97702496Y-132744635D01*
X97665440Y-132715603D01*
X97619372Y-132707963D01*
X97616490Y-132708252D01*
X97593573Y-132713760D01*
X97575797Y-132726320D01*
X97562445Y-132748854D01*
X97552800Y-132784284D01*
X97546144Y-132835532D01*
X97541760Y-132905521D01*
X97538930Y-132997173D01*
X97538327Y-133026675D01*
X97533821Y-133264800D01*
X97282200Y-133264800D01*
X97281945Y-133096525D01*
X97279866Y-132980118D01*
X97273660Y-132887008D01*
X97262789Y-132815345D01*
X97246712Y-132763278D01*
X97224892Y-132728960D01*
X97196788Y-132710539D01*
X97168114Y-132706000D01*
X97138031Y-132710336D01*
X97114218Y-132724923D01*
X97096028Y-132752125D01*
X97082813Y-132794308D01*
X97073926Y-132853838D01*
X97068718Y-132933080D01*
X97066541Y-133034399D01*
X97066374Y-133077475D01*
X97066300Y-133264800D01*
X96812300Y-133264800D01*
X96812300Y-133042550D01*
X96665704Y-133042550D01*
X96655917Y-133125396D01*
X96627894Y-133191246D01*
X96582141Y-133239419D01*
X96519167Y-133269234D01*
X96492000Y-133275409D01*
X96429279Y-133279876D01*
X96363999Y-133274075D01*
X96305700Y-133259467D01*
X96268648Y-133241142D01*
X96238730Y-133217571D01*
X96216489Y-133196250D01*
X96215893Y-133195542D01*
X96198357Y-133179125D01*
X96184167Y-133181506D01*
X96168481Y-133204866D01*
X96160808Y-133220350D01*
X96139611Y-133264800D01*
X95946251Y-133264800D01*
X95770900Y-133264800D01*
X95504200Y-133264800D01*
X95503981Y-133160025D01*
X95503462Y-133108302D01*
X95500857Y-133075471D01*
X95494195Y-133055023D01*
X95481506Y-133040450D01*
X95463806Y-133027329D01*
X95423851Y-132999409D01*
X95342414Y-133132104D01*
X95260977Y-133264800D01*
X95115889Y-133264800D01*
X95058593Y-133264133D01*
X95011971Y-133262322D01*
X94981052Y-133259648D01*
X94970800Y-133256646D01*
X94977374Y-133243932D01*
X94995687Y-133213325D01*
X95023632Y-133168224D01*
X95059100Y-133112028D01*
X95099983Y-133048135D01*
X95104643Y-133040902D01*
X95191479Y-132906219D01*
X94893645Y-132906219D01*
X94885235Y-132992036D01*
X94875676Y-133031816D01*
X94838639Y-133117326D01*
X94783675Y-133184849D01*
X94710818Y-133234358D01*
X94620103Y-133265826D01*
X94569000Y-133274670D01*
X94497479Y-133278971D01*
X94418605Y-133276293D01*
X94342350Y-133267477D01*
X94278684Y-133253364D01*
X94265950Y-133249123D01*
X94215150Y-133230579D01*
X94211419Y-133139739D01*
X94210419Y-133088852D01*
X94214921Y-133059880D01*
X94228417Y-133049419D01*
X94254399Y-133054066D01*
X94286625Y-133066416D01*
X94345589Y-133083644D01*
X94413604Y-133093218D01*
X94479343Y-133094134D01*
X94524543Y-133087473D01*
X94569301Y-133067068D01*
X94605137Y-133035561D01*
X94625515Y-132999516D01*
X94627900Y-132983687D01*
X94626444Y-132975253D01*
X94619786Y-132969095D01*
X94604494Y-132964857D01*
X94577136Y-132962185D01*
X94534279Y-132960722D01*
X94472492Y-132960112D01*
X94399300Y-132960000D01*
X94170700Y-132960000D01*
X94170700Y-132858657D01*
X94179178Y-132755968D01*
X94204942Y-132671359D01*
X94248490Y-132603847D01*
X94310320Y-132552454D01*
X94332287Y-132540145D01*
X94364767Y-132525326D01*
X94396692Y-132516072D01*
X94435567Y-132511143D01*
X94488894Y-132509302D01*
X94519950Y-132509150D01*
X94607645Y-132512965D01*
X94676826Y-132525749D01*
X94733408Y-132549511D01*
X94783307Y-132586257D01*
X94802868Y-132605194D01*
X94842008Y-132661125D01*
X94870924Y-132734269D01*
X94888505Y-132818132D01*
X94893645Y-132906219D01*
X95191479Y-132906219D01*
X95238485Y-132833313D01*
X95111591Y-132677581D01*
X94984697Y-132521850D01*
X95126974Y-132518157D01*
X95176931Y-132516336D01*
X95214455Y-132515486D01*
X95243337Y-132518055D01*
X95267365Y-132526490D01*
X95290327Y-132543238D01*
X95316014Y-132570747D01*
X95348214Y-132611464D01*
X95390716Y-132667836D01*
X95421242Y-132708224D01*
X95514649Y-132831098D01*
X95512600Y-132530424D01*
X95510550Y-132229750D01*
X95640725Y-132226130D01*
X95770900Y-132222511D01*
X95770900Y-133264800D01*
X95946251Y-133264800D01*
X95951561Y-132982225D01*
X95953780Y-132883630D01*
X95956446Y-132807136D01*
X95959817Y-132749443D01*
X95964153Y-132707253D01*
X95969712Y-132677266D01*
X95976752Y-132656184D01*
X95977196Y-132655200D01*
X96014641Y-132593273D01*
X96064003Y-132548399D01*
X96128103Y-132519169D01*
X96209760Y-132504172D01*
X96285001Y-132501424D01*
X96381716Y-132507677D01*
X96473454Y-132523596D01*
X96550535Y-132547484D01*
X96552497Y-132548296D01*
X96595094Y-132566094D01*
X96562981Y-132639222D01*
X96544600Y-132679215D01*
X96529055Y-132709764D01*
X96520852Y-132722747D01*
X96504718Y-132724300D01*
X96471239Y-132718890D01*
X96427136Y-132707671D01*
X96419252Y-132705326D01*
X96348366Y-132688579D01*
X96294881Y-132687560D01*
X96255915Y-132702707D01*
X96228701Y-132734254D01*
X96217468Y-132760075D01*
X96216847Y-132775175D01*
X96216937Y-132775269D01*
X96231910Y-132779466D01*
X96266362Y-132784916D01*
X96314457Y-132790778D01*
X96348373Y-132794232D01*
X96453321Y-132809938D01*
X96535767Y-132835639D01*
X96596951Y-132872304D01*
X96638112Y-132920905D01*
X96660493Y-132982412D01*
X96665704Y-133042550D01*
X96812300Y-133042550D01*
X96812300Y-132987662D01*
X96812916Y-132879454D01*
X96815193Y-132793273D01*
X96819775Y-132725768D01*
X96827304Y-132673585D01*
X96838424Y-132633373D01*
X96853779Y-132601779D01*
X96874012Y-132575452D01*
X96895378Y-132554840D01*
X96950551Y-132521954D01*
X97018786Y-132504614D01*
X97093011Y-132502881D01*
X97166151Y-132516819D01*
X97231136Y-132546488D01*
X97239075Y-132551827D01*
X97276958Y-132577409D01*
X97300882Y-132588817D01*
X97317073Y-132587297D01*
X97331758Y-132574096D01*
X97334441Y-132570914D01*
X97375010Y-132539052D01*
X97431048Y-132517642D01*
X97496473Y-132506575D01*
X97565205Y-132505746D01*
X97631163Y-132515048D01*
X97688268Y-132534374D01*
X97730440Y-132563616D01*
X97741768Y-132578071D01*
X97758807Y-132599748D01*
X97771942Y-132599454D01*
X97784593Y-132575909D01*
X97790200Y-132559950D01*
X97804870Y-132515500D01*
X98006100Y-132515500D01*
X98133100Y-132515500D01*
X98133100Y-132045600D01*
X106007100Y-132045600D01*
X106057900Y-132045600D01*
X106057900Y-131982100D01*
X93904000Y-131982100D01*
X93904000Y-133747400D01*
G36*
X105483020Y-132506245D02*
X105400753Y-132508975D01*
X105381625Y-132509663D01*
X105130800Y-132518738D01*
X105130800Y-132578586D01*
X105132005Y-132615248D01*
X105139486Y-132635240D01*
X105159049Y-132647291D01*
X105181791Y-132655262D01*
X105213787Y-132667950D01*
X105226151Y-132680818D01*
X105224325Y-132698570D01*
X105216234Y-132757279D01*
X105223752Y-132822883D01*
X105245436Y-132883456D01*
X105247122Y-132886609D01*
X105291375Y-132941187D01*
X105356631Y-132981874D01*
X105442508Y-133008486D01*
X105521597Y-133019205D01*
X105573640Y-133023946D01*
X105605149Y-133029277D01*
X105620976Y-133036654D01*
X105625973Y-133047531D01*
X105626100Y-133050540D01*
X105623545Y-133063474D01*
X105613350Y-133072885D01*
X105591719Y-133079644D01*
X105554858Y-133084624D01*
X105498973Y-133088696D01*
X105448300Y-133091385D01*
X105381358Y-133096948D01*
X105321626Y-133106076D01*
X105277675Y-133117417D01*
X105273837Y-133118875D01*
X105209042Y-133156286D01*
X105165107Y-133206963D01*
X105142780Y-133268664D01*
X105142805Y-133339147D01*
X105165930Y-133416169D01*
X105171157Y-133427562D01*
X105211973Y-133484148D01*
X105273899Y-133530002D01*
X105354605Y-133564179D01*
X105451763Y-133585738D01*
X105563044Y-133593734D01*
X105581376Y-133593700D01*
X105637767Y-133592026D01*
X105688721Y-133588691D01*
X105725773Y-133584312D01*
X105734050Y-133582605D01*
X105813127Y-133554103D01*
X105869651Y-133514669D01*
X105904346Y-133463541D01*
X105917936Y-133399957D01*
X105918200Y-133388480D01*
X105916095Y-133379334D01*
X105697961Y-133379334D01*
X105682461Y-133404127D01*
X105644568Y-133423902D01*
X105582930Y-133439722D01*
X105574458Y-133441300D01*
X105559063Y-133439875D01*
X105526405Y-133434857D01*
X105491908Y-133428833D01*
X105441839Y-133415144D01*
X105399030Y-133395292D01*
X105369546Y-133372775D01*
X105359400Y-133352393D01*
X105371643Y-133329846D01*
X105407185Y-133312112D01*
X105464250Y-133299967D01*
X105484827Y-133297577D01*
X105566001Y-133294867D01*
X105629412Y-133304049D01*
X105673145Y-133324652D01*
X105692417Y-133348460D01*
X105697961Y-133379334D01*
X105916095Y-133379334D01*
X105907609Y-133342470D01*
X105880181Y-133295497D01*
X105842439Y-133256575D01*
X105808706Y-133237112D01*
X105776036Y-133222111D01*
X105767655Y-133208269D01*
X105782675Y-133193391D01*
X105789459Y-133189532D01*
X105810944Y-133169149D01*
X105829099Y-133138285D01*
X105836769Y-133090018D01*
X105820303Y-133044822D01*
X105780965Y-133006111D01*
X105779953Y-133005426D01*
X105743813Y-132981136D01*
X105791587Y-132935643D01*
X105838104Y-132875643D01*
X105860994Y-132806555D01*
X105860591Y-132756368D01*
X105613400Y-132756368D01*
X105606087Y-132813907D01*
X105584784Y-132852266D01*
X105550445Y-132870010D01*
X105537200Y-132871100D01*
X105498246Y-132859915D01*
X105480771Y-132842874D01*
X105464843Y-132802925D01*
X105461725Y-132754065D01*
X105470287Y-132705500D01*
X105489399Y-132666437D01*
X105504177Y-132652219D01*
X105537983Y-132641838D01*
X105569610Y-132653044D01*
X105595122Y-132682085D01*
X105610584Y-132725209D01*
X105613400Y-132756368D01*
X105860591Y-132756368D01*
X105860363Y-132728015D01*
X105857034Y-132709218D01*
X105832241Y-132635057D01*
X105790864Y-132579141D01*
X105730560Y-132538684D01*
X105704340Y-132527582D01*
X105678213Y-132518332D01*
X105653557Y-132511681D01*
X105626041Y-132507387D01*
X105591333Y-132505210D01*
X105545104Y-132504909D01*
X105483020Y-132506245D01*
X105483020Y-132506245D01*
G37*
X105483020Y-132506245D02*
X105400753Y-132508975D01*
X105381625Y-132509663D01*
X105130800Y-132518738D01*
X105130800Y-132578586D01*
X105132005Y-132615248D01*
X105139486Y-132635240D01*
X105159049Y-132647291D01*
X105181791Y-132655262D01*
X105213787Y-132667950D01*
X105226151Y-132680818D01*
X105224325Y-132698570D01*
X105216234Y-132757279D01*
X105223752Y-132822883D01*
X105245436Y-132883456D01*
X105247122Y-132886609D01*
X105291375Y-132941187D01*
X105356631Y-132981874D01*
X105442508Y-133008486D01*
X105521597Y-133019205D01*
X105573640Y-133023946D01*
X105605149Y-133029277D01*
X105620976Y-133036654D01*
X105625973Y-133047531D01*
X105626100Y-133050540D01*
X105623545Y-133063474D01*
X105613350Y-133072885D01*
X105591719Y-133079644D01*
X105554858Y-133084624D01*
X105498973Y-133088696D01*
X105448300Y-133091385D01*
X105381358Y-133096948D01*
X105321626Y-133106076D01*
X105277675Y-133117417D01*
X105273837Y-133118875D01*
X105209042Y-133156286D01*
X105165107Y-133206963D01*
X105142780Y-133268664D01*
X105142805Y-133339147D01*
X105165930Y-133416169D01*
X105171157Y-133427562D01*
X105211973Y-133484148D01*
X105273899Y-133530002D01*
X105354605Y-133564179D01*
X105451763Y-133585738D01*
X105563044Y-133593734D01*
X105581376Y-133593700D01*
X105637767Y-133592026D01*
X105688721Y-133588691D01*
X105725773Y-133584312D01*
X105734050Y-133582605D01*
X105813127Y-133554103D01*
X105869651Y-133514669D01*
X105904346Y-133463541D01*
X105917936Y-133399957D01*
X105918200Y-133388480D01*
X105916095Y-133379334D01*
X105697961Y-133379334D01*
X105682461Y-133404127D01*
X105644568Y-133423902D01*
X105582930Y-133439722D01*
X105574458Y-133441300D01*
X105559063Y-133439875D01*
X105526405Y-133434857D01*
X105491908Y-133428833D01*
X105441839Y-133415144D01*
X105399030Y-133395292D01*
X105369546Y-133372775D01*
X105359400Y-133352393D01*
X105371643Y-133329846D01*
X105407185Y-133312112D01*
X105464250Y-133299967D01*
X105484827Y-133297577D01*
X105566001Y-133294867D01*
X105629412Y-133304049D01*
X105673145Y-133324652D01*
X105692417Y-133348460D01*
X105697961Y-133379334D01*
X105916095Y-133379334D01*
X105907609Y-133342470D01*
X105880181Y-133295497D01*
X105842439Y-133256575D01*
X105808706Y-133237112D01*
X105776036Y-133222111D01*
X105767655Y-133208269D01*
X105782675Y-133193391D01*
X105789459Y-133189532D01*
X105810944Y-133169149D01*
X105829099Y-133138285D01*
X105836769Y-133090018D01*
X105820303Y-133044822D01*
X105780965Y-133006111D01*
X105779953Y-133005426D01*
X105743813Y-132981136D01*
X105791587Y-132935643D01*
X105838104Y-132875643D01*
X105860994Y-132806555D01*
X105860591Y-132756368D01*
X105613400Y-132756368D01*
X105606087Y-132813907D01*
X105584784Y-132852266D01*
X105550445Y-132870010D01*
X105537200Y-132871100D01*
X105498246Y-132859915D01*
X105480771Y-132842874D01*
X105464843Y-132802925D01*
X105461725Y-132754065D01*
X105470287Y-132705500D01*
X105489399Y-132666437D01*
X105504177Y-132652219D01*
X105537983Y-132641838D01*
X105569610Y-132653044D01*
X105595122Y-132682085D01*
X105610584Y-132725209D01*
X105613400Y-132756368D01*
X105860591Y-132756368D01*
X105860363Y-132728015D01*
X105857034Y-132709218D01*
X105832241Y-132635057D01*
X105790864Y-132579141D01*
X105730560Y-132538684D01*
X105704340Y-132527582D01*
X105678213Y-132518332D01*
X105653557Y-132511681D01*
X105626041Y-132507387D01*
X105591333Y-132505210D01*
X105545104Y-132504909D01*
X105483020Y-132506245D01*
G36*
X104637032Y-132505329D02*
X104542008Y-132518359D01*
X104465281Y-132546362D01*
X104405420Y-132590881D01*
X104360996Y-132653459D01*
X104330579Y-132735640D01*
X104312739Y-132838966D01*
X104310985Y-132857234D01*
X104302021Y-132960000D01*
X104538611Y-132960000D01*
X104621608Y-132960142D01*
X104682581Y-132960796D01*
X104724904Y-132962299D01*
X104751953Y-132964988D01*
X104767102Y-132969202D01*
X104773726Y-132975278D01*
X104775200Y-132983555D01*
X104775200Y-132983687D01*
X104764083Y-133018797D01*
X104735205Y-133053507D01*
X104695283Y-133080624D01*
X104678273Y-133087553D01*
X104628852Y-133095654D01*
X104565171Y-133094540D01*
X104496337Y-133084958D01*
X104431458Y-133067650D01*
X104430423Y-133067287D01*
X104395794Y-133055950D01*
X104371192Y-133049479D01*
X104366647Y-133048900D01*
X104361442Y-133060514D01*
X104358548Y-133091140D01*
X104358516Y-133134448D01*
X104358719Y-133139921D01*
X104362450Y-133230942D01*
X104425950Y-133253236D01*
X104485693Y-133267223D01*
X104560960Y-133274802D01*
X104642697Y-133275975D01*
X104721849Y-133270742D01*
X104789363Y-133259103D01*
X104809482Y-133253207D01*
X104891694Y-133214173D01*
X104955164Y-133159042D01*
X105000575Y-133086866D01*
X105028608Y-132996699D01*
X105037017Y-132937485D01*
X105037512Y-132826760D01*
X105028855Y-132784315D01*
X104770834Y-132784315D01*
X104761038Y-132790291D01*
X104736585Y-132793516D01*
X104693241Y-132794769D01*
X104660900Y-132794900D01*
X104605736Y-132794381D01*
X104571725Y-132792305D01*
X104554631Y-132787895D01*
X104550219Y-132780371D01*
X104551592Y-132774811D01*
X104558445Y-132750615D01*
X104559300Y-132743061D01*
X104570618Y-132718240D01*
X104599201Y-132696467D01*
X104636995Y-132682812D01*
X104658506Y-132680600D01*
X104696922Y-132687404D01*
X104732337Y-132704514D01*
X104756570Y-132726978D01*
X104762500Y-132743556D01*
X104766670Y-132764334D01*
X104770209Y-132774811D01*
X104770834Y-132784315D01*
X105028855Y-132784315D01*
X105017861Y-132730412D01*
X104979127Y-132649589D01*
X104922377Y-132585442D01*
X104848673Y-132539122D01*
X104759080Y-132511778D01*
X104654664Y-132504561D01*
X104637032Y-132505329D01*
X104637032Y-132505329D01*
G37*
X104637032Y-132505329D02*
X104542008Y-132518359D01*
X104465281Y-132546362D01*
X104405420Y-132590881D01*
X104360996Y-132653459D01*
X104330579Y-132735640D01*
X104312739Y-132838966D01*
X104310985Y-132857234D01*
X104302021Y-132960000D01*
X104538611Y-132960000D01*
X104621608Y-132960142D01*
X104682581Y-132960796D01*
X104724904Y-132962299D01*
X104751953Y-132964988D01*
X104767102Y-132969202D01*
X104773726Y-132975278D01*
X104775200Y-132983555D01*
X104775200Y-132983687D01*
X104764083Y-133018797D01*
X104735205Y-133053507D01*
X104695283Y-133080624D01*
X104678273Y-133087553D01*
X104628852Y-133095654D01*
X104565171Y-133094540D01*
X104496337Y-133084958D01*
X104431458Y-133067650D01*
X104430423Y-133067287D01*
X104395794Y-133055950D01*
X104371192Y-133049479D01*
X104366647Y-133048900D01*
X104361442Y-133060514D01*
X104358548Y-133091140D01*
X104358516Y-133134448D01*
X104358719Y-133139921D01*
X104362450Y-133230942D01*
X104425950Y-133253236D01*
X104485693Y-133267223D01*
X104560960Y-133274802D01*
X104642697Y-133275975D01*
X104721849Y-133270742D01*
X104789363Y-133259103D01*
X104809482Y-133253207D01*
X104891694Y-133214173D01*
X104955164Y-133159042D01*
X105000575Y-133086866D01*
X105028608Y-132996699D01*
X105037017Y-132937485D01*
X105037512Y-132826760D01*
X105028855Y-132784315D01*
X104770834Y-132784315D01*
X104761038Y-132790291D01*
X104736585Y-132793516D01*
X104693241Y-132794769D01*
X104660900Y-132794900D01*
X104605736Y-132794381D01*
X104571725Y-132792305D01*
X104554631Y-132787895D01*
X104550219Y-132780371D01*
X104551592Y-132774811D01*
X104558445Y-132750615D01*
X104559300Y-132743061D01*
X104570618Y-132718240D01*
X104599201Y-132696467D01*
X104636995Y-132682812D01*
X104658506Y-132680600D01*
X104696922Y-132687404D01*
X104732337Y-132704514D01*
X104756570Y-132726978D01*
X104762500Y-132743556D01*
X104766670Y-132764334D01*
X104770209Y-132774811D01*
X104770834Y-132784315D01*
X105028855Y-132784315D01*
X105017861Y-132730412D01*
X104979127Y-132649589D01*
X104922377Y-132585442D01*
X104848673Y-132539122D01*
X104759080Y-132511778D01*
X104654664Y-132504561D01*
X104637032Y-132505329D01*
G36*
X102839338Y-132505109D02*
X102758127Y-132521562D01*
X102741335Y-132527391D01*
X102669986Y-132562792D01*
X102616205Y-132609989D01*
X102578236Y-132671820D01*
X102554323Y-132751127D01*
X102542846Y-132848295D01*
X102536477Y-132960000D01*
X102773189Y-132960000D01*
X102847572Y-132960386D01*
X102912373Y-132961463D01*
X102963652Y-132963103D01*
X102997473Y-132965179D01*
X103009897Y-132967564D01*
X103009900Y-132967605D01*
X103004938Y-132983060D01*
X102992714Y-133011351D01*
X102989872Y-133017418D01*
X102956114Y-133060056D01*
X102903573Y-133086295D01*
X102833131Y-133095815D01*
X102781356Y-133093234D01*
X102730287Y-133085737D01*
X102682857Y-133075312D01*
X102655925Y-133066689D01*
X102624500Y-133054871D01*
X102603140Y-133049032D01*
X102601393Y-133048900D01*
X102596189Y-133060521D01*
X102593273Y-133091190D01*
X102593189Y-133134614D01*
X102593419Y-133140975D01*
X102597150Y-133233050D01*
X102660650Y-133254719D01*
X102722472Y-133268760D01*
X102799172Y-133275945D01*
X102881238Y-133276287D01*
X102959155Y-133269800D01*
X103023408Y-133256498D01*
X103030575Y-133254161D01*
X103096562Y-133227357D01*
X103144880Y-133197039D01*
X103183210Y-133158115D01*
X103191290Y-133147586D01*
X103234287Y-133069281D01*
X103259607Y-132978655D01*
X103267200Y-132881671D01*
X103258126Y-132794900D01*
X102999954Y-132794900D01*
X102890627Y-132794900D01*
X102837565Y-132794373D01*
X102805011Y-132792087D01*
X102788081Y-132786984D01*
X102781894Y-132778007D01*
X102781300Y-132771212D01*
X102788857Y-132745036D01*
X102807088Y-132714746D01*
X102807622Y-132714062D01*
X102843052Y-132686872D01*
X102885921Y-132678880D01*
X102929283Y-132688353D01*
X102966189Y-132713557D01*
X102989691Y-132752760D01*
X102991686Y-132759975D01*
X102999954Y-132794900D01*
X103258126Y-132794900D01*
X103257017Y-132784296D01*
X103229008Y-132692493D01*
X103195570Y-132629818D01*
X103149467Y-132581451D01*
X103085242Y-132543546D01*
X103008445Y-132517353D01*
X102924627Y-132504123D01*
X102839338Y-132505109D01*
X102839338Y-132505109D01*
G37*
X102839338Y-132505109D02*
X102758127Y-132521562D01*
X102741335Y-132527391D01*
X102669986Y-132562792D01*
X102616205Y-132609989D01*
X102578236Y-132671820D01*
X102554323Y-132751127D01*
X102542846Y-132848295D01*
X102536477Y-132960000D01*
X102773189Y-132960000D01*
X102847572Y-132960386D01*
X102912373Y-132961463D01*
X102963652Y-132963103D01*
X102997473Y-132965179D01*
X103009897Y-132967564D01*
X103009900Y-132967605D01*
X103004938Y-132983060D01*
X102992714Y-133011351D01*
X102989872Y-133017418D01*
X102956114Y-133060056D01*
X102903573Y-133086295D01*
X102833131Y-133095815D01*
X102781356Y-133093234D01*
X102730287Y-133085737D01*
X102682857Y-133075312D01*
X102655925Y-133066689D01*
X102624500Y-133054871D01*
X102603140Y-133049032D01*
X102601393Y-133048900D01*
X102596189Y-133060521D01*
X102593273Y-133091190D01*
X102593189Y-133134614D01*
X102593419Y-133140975D01*
X102597150Y-133233050D01*
X102660650Y-133254719D01*
X102722472Y-133268760D01*
X102799172Y-133275945D01*
X102881238Y-133276287D01*
X102959155Y-133269800D01*
X103023408Y-133256498D01*
X103030575Y-133254161D01*
X103096562Y-133227357D01*
X103144880Y-133197039D01*
X103183210Y-133158115D01*
X103191290Y-133147586D01*
X103234287Y-133069281D01*
X103259607Y-132978655D01*
X103267200Y-132881671D01*
X103258126Y-132794900D01*
X102999954Y-132794900D01*
X102890627Y-132794900D01*
X102837565Y-132794373D01*
X102805011Y-132792087D01*
X102788081Y-132786984D01*
X102781894Y-132778007D01*
X102781300Y-132771212D01*
X102788857Y-132745036D01*
X102807088Y-132714746D01*
X102807622Y-132714062D01*
X102843052Y-132686872D01*
X102885921Y-132678880D01*
X102929283Y-132688353D01*
X102966189Y-132713557D01*
X102989691Y-132752760D01*
X102991686Y-132759975D01*
X102999954Y-132794900D01*
X103258126Y-132794900D01*
X103257017Y-132784296D01*
X103229008Y-132692493D01*
X103195570Y-132629818D01*
X103149467Y-132581451D01*
X103085242Y-132543546D01*
X103008445Y-132517353D01*
X102924627Y-132504123D01*
X102839338Y-132505109D01*
G36*
X101279707Y-132513650D02*
X101211530Y-132532337D01*
X101159326Y-132562932D01*
X101119036Y-132607366D01*
X101105060Y-132629959D01*
X101094778Y-132649172D01*
X101086921Y-132667764D01*
X101081105Y-132689441D01*
X101076943Y-132717911D01*
X101074052Y-132756880D01*
X101072045Y-132810056D01*
X101070538Y-132881145D01*
X101069145Y-132973854D01*
X101069117Y-132975875D01*
X101065084Y-133264800D01*
X101159651Y-133264800D01*
X101208104Y-133264361D01*
X101237456Y-133261586D01*
X101254003Y-133254288D01*
X101264046Y-133240279D01*
X101270113Y-133226427D01*
X101286775Y-133193119D01*
X101303233Y-133182957D01*
X101325576Y-133194480D01*
X101342148Y-133209126D01*
X101378179Y-133237145D01*
X101416747Y-133259231D01*
X101418818Y-133260133D01*
X101462839Y-133271306D01*
X101520398Y-133276182D01*
X101580895Y-133274788D01*
X101633727Y-133267149D01*
X101657350Y-133259572D01*
X101714193Y-133222687D01*
X101752671Y-133170049D01*
X101773510Y-133100318D01*
X101778000Y-133037251D01*
X101775766Y-133020617D01*
X101511106Y-133020617D01*
X101501740Y-133064948D01*
X101476280Y-133091134D01*
X101437793Y-133097705D01*
X101389343Y-133083193D01*
X101385047Y-133081035D01*
X101352671Y-133051820D01*
X101329611Y-133007152D01*
X101320801Y-132956596D01*
X101320800Y-132956489D01*
X101323548Y-132941756D01*
X101336005Y-132935478D01*
X101364496Y-132935731D01*
X101383579Y-132937400D01*
X101446283Y-132949948D01*
X101488745Y-132972996D01*
X101509347Y-133005487D01*
X101511106Y-133020617D01*
X101775766Y-133020617D01*
X101768082Y-132963433D01*
X101737287Y-132902941D01*
X101688681Y-132855969D01*
X101646427Y-132833702D01*
X101587945Y-132814516D01*
X101522397Y-132800798D01*
X101458944Y-132794935D01*
X101454150Y-132794877D01*
X101390532Y-132791178D01*
X101350640Y-132780418D01*
X101333619Y-132761939D01*
X101338617Y-132735083D01*
X101351147Y-132715568D01*
X101383079Y-132692084D01*
X101431465Y-132685091D01*
X101497507Y-132694523D01*
X101537348Y-132705325D01*
X101581567Y-132718018D01*
X101615268Y-132726303D01*
X101632135Y-132728658D01*
X101632868Y-132728365D01*
X101639985Y-132715245D01*
X101654069Y-132685485D01*
X101670622Y-132648775D01*
X101688042Y-132607651D01*
X101695310Y-132583099D01*
X101693286Y-132568800D01*
X101682911Y-132558496D01*
X101643962Y-132539593D01*
X101586267Y-132523672D01*
X101516413Y-132511853D01*
X101440986Y-132505256D01*
X101367917Y-132504940D01*
X101279707Y-132513650D01*
X101279707Y-132513650D01*
G37*
X101279707Y-132513650D02*
X101211530Y-132532337D01*
X101159326Y-132562932D01*
X101119036Y-132607366D01*
X101105060Y-132629959D01*
X101094778Y-132649172D01*
X101086921Y-132667764D01*
X101081105Y-132689441D01*
X101076943Y-132717911D01*
X101074052Y-132756880D01*
X101072045Y-132810056D01*
X101070538Y-132881145D01*
X101069145Y-132973854D01*
X101069117Y-132975875D01*
X101065084Y-133264800D01*
X101159651Y-133264800D01*
X101208104Y-133264361D01*
X101237456Y-133261586D01*
X101254003Y-133254288D01*
X101264046Y-133240279D01*
X101270113Y-133226427D01*
X101286775Y-133193119D01*
X101303233Y-133182957D01*
X101325576Y-133194480D01*
X101342148Y-133209126D01*
X101378179Y-133237145D01*
X101416747Y-133259231D01*
X101418818Y-133260133D01*
X101462839Y-133271306D01*
X101520398Y-133276182D01*
X101580895Y-133274788D01*
X101633727Y-133267149D01*
X101657350Y-133259572D01*
X101714193Y-133222687D01*
X101752671Y-133170049D01*
X101773510Y-133100318D01*
X101778000Y-133037251D01*
X101775766Y-133020617D01*
X101511106Y-133020617D01*
X101501740Y-133064948D01*
X101476280Y-133091134D01*
X101437793Y-133097705D01*
X101389343Y-133083193D01*
X101385047Y-133081035D01*
X101352671Y-133051820D01*
X101329611Y-133007152D01*
X101320801Y-132956596D01*
X101320800Y-132956489D01*
X101323548Y-132941756D01*
X101336005Y-132935478D01*
X101364496Y-132935731D01*
X101383579Y-132937400D01*
X101446283Y-132949948D01*
X101488745Y-132972996D01*
X101509347Y-133005487D01*
X101511106Y-133020617D01*
X101775766Y-133020617D01*
X101768082Y-132963433D01*
X101737287Y-132902941D01*
X101688681Y-132855969D01*
X101646427Y-132833702D01*
X101587945Y-132814516D01*
X101522397Y-132800798D01*
X101458944Y-132794935D01*
X101454150Y-132794877D01*
X101390532Y-132791178D01*
X101350640Y-132780418D01*
X101333619Y-132761939D01*
X101338617Y-132735083D01*
X101351147Y-132715568D01*
X101383079Y-132692084D01*
X101431465Y-132685091D01*
X101497507Y-132694523D01*
X101537348Y-132705325D01*
X101581567Y-132718018D01*
X101615268Y-132726303D01*
X101632135Y-132728658D01*
X101632868Y-132728365D01*
X101639985Y-132715245D01*
X101654069Y-132685485D01*
X101670622Y-132648775D01*
X101688042Y-132607651D01*
X101695310Y-132583099D01*
X101693286Y-132568800D01*
X101682911Y-132558496D01*
X101643962Y-132539593D01*
X101586267Y-132523672D01*
X101516413Y-132511853D01*
X101440986Y-132505256D01*
X101367917Y-132504940D01*
X101279707Y-132513650D01*
G36*
X100584200Y-132515500D02*
X100393700Y-132515500D01*
X100393700Y-132706000D01*
X100584200Y-132706000D01*
X100584200Y-132869131D01*
X100583067Y-132949593D01*
X100577889Y-133007509D01*
X100565998Y-133045695D01*
X100544725Y-133066967D01*
X100511402Y-133074141D01*
X100463361Y-133070034D01*
X100404463Y-133058837D01*
X100394767Y-133063726D01*
X100388394Y-133085677D01*
X100384482Y-133128292D01*
X100383647Y-133145951D01*
X100379943Y-133236652D01*
X100439884Y-133257076D01*
X100510345Y-133273143D01*
X100587467Y-133277864D01*
X100662019Y-133271492D01*
X100724769Y-133254281D01*
X100736349Y-133248925D01*
X100771628Y-133228109D01*
X100798437Y-133203974D01*
X100818025Y-133172789D01*
X100831639Y-133130824D01*
X100840528Y-133074346D01*
X100845940Y-132999625D01*
X100848899Y-132912442D01*
X100853883Y-132706000D01*
X100896842Y-132706000D01*
X100923775Y-132704543D01*
X100936148Y-132695437D01*
X100939614Y-132671573D01*
X100939773Y-132652025D01*
X100937822Y-132619033D01*
X100928340Y-132596618D01*
X100905823Y-132575850D01*
X100882997Y-132559950D01*
X100845355Y-132529778D01*
X100817290Y-132493222D01*
X100792219Y-132442475D01*
X100758190Y-132363100D01*
X100584200Y-132363100D01*
X100584200Y-132515500D01*
X100584200Y-132515500D01*
G37*
X100584200Y-132515500D02*
X100393700Y-132515500D01*
X100393700Y-132706000D01*
X100584200Y-132706000D01*
X100584200Y-132869131D01*
X100583067Y-132949593D01*
X100577889Y-133007509D01*
X100565998Y-133045695D01*
X100544725Y-133066967D01*
X100511402Y-133074141D01*
X100463361Y-133070034D01*
X100404463Y-133058837D01*
X100394767Y-133063726D01*
X100388394Y-133085677D01*
X100384482Y-133128292D01*
X100383647Y-133145951D01*
X100379943Y-133236652D01*
X100439884Y-133257076D01*
X100510345Y-133273143D01*
X100587467Y-133277864D01*
X100662019Y-133271492D01*
X100724769Y-133254281D01*
X100736349Y-133248925D01*
X100771628Y-133228109D01*
X100798437Y-133203974D01*
X100818025Y-133172789D01*
X100831639Y-133130824D01*
X100840528Y-133074346D01*
X100845940Y-132999625D01*
X100848899Y-132912442D01*
X100853883Y-132706000D01*
X100896842Y-132706000D01*
X100923775Y-132704543D01*
X100936148Y-132695437D01*
X100939614Y-132671573D01*
X100939773Y-132652025D01*
X100937822Y-132619033D01*
X100928340Y-132596618D01*
X100905823Y-132575850D01*
X100882997Y-132559950D01*
X100845355Y-132529778D01*
X100817290Y-132493222D01*
X100792219Y-132442475D01*
X100758190Y-132363100D01*
X100584200Y-132363100D01*
X100584200Y-132515500D01*
G36*
X99380863Y-132508275D02*
X99292265Y-132531140D01*
X99218064Y-132574542D01*
X99157481Y-132638873D01*
X99130162Y-132682434D01*
X99111052Y-132721252D01*
X99099078Y-132758100D01*
X99092164Y-132801976D01*
X99088234Y-132861879D01*
X99088109Y-132864750D01*
X99091113Y-132968898D01*
X99110621Y-133056120D01*
X99147697Y-133129657D01*
X99192576Y-133182623D01*
X99256739Y-133228642D01*
X99335903Y-133260256D01*
X99423415Y-133276339D01*
X99512622Y-133275761D01*
X99596871Y-133257394D01*
X99608385Y-133253147D01*
X99675782Y-133221412D01*
X99725139Y-133183502D01*
X99763810Y-133132825D01*
X99783712Y-133096063D01*
X99819014Y-132997168D01*
X99832363Y-132892362D01*
X99832008Y-132888027D01*
X99561850Y-132888027D01*
X99561418Y-132948559D01*
X99559411Y-132989451D01*
X99554763Y-133016459D01*
X99546407Y-133035339D01*
X99533278Y-133051845D01*
X99531062Y-133054226D01*
X99491618Y-133080764D01*
X99447359Y-133086850D01*
X99406049Y-133072199D01*
X99391053Y-133059374D01*
X99370226Y-133028026D01*
X99357741Y-132985219D01*
X99352796Y-132926449D01*
X99354288Y-132852959D01*
X99358331Y-132800203D01*
X99365385Y-132765247D01*
X99377557Y-132740507D01*
X99389646Y-132725853D01*
X99429586Y-132698836D01*
X99473693Y-132696196D01*
X99518845Y-132717974D01*
X99526217Y-132723950D01*
X99542108Y-132738676D01*
X99552395Y-132753736D01*
X99558297Y-132774734D01*
X99561030Y-132807275D01*
X99561811Y-132856962D01*
X99561850Y-132888027D01*
X99832008Y-132888027D01*
X99823763Y-132787454D01*
X99793214Y-132688253D01*
X99783612Y-132667900D01*
X99737576Y-132604301D01*
X99672000Y-132555444D01*
X99588693Y-132522313D01*
X99489467Y-132505890D01*
X99484642Y-132505559D01*
X99380863Y-132508275D01*
X99380863Y-132508275D01*
G37*
X99380863Y-132508275D02*
X99292265Y-132531140D01*
X99218064Y-132574542D01*
X99157481Y-132638873D01*
X99130162Y-132682434D01*
X99111052Y-132721252D01*
X99099078Y-132758100D01*
X99092164Y-132801976D01*
X99088234Y-132861879D01*
X99088109Y-132864750D01*
X99091113Y-132968898D01*
X99110621Y-133056120D01*
X99147697Y-133129657D01*
X99192576Y-133182623D01*
X99256739Y-133228642D01*
X99335903Y-133260256D01*
X99423415Y-133276339D01*
X99512622Y-133275761D01*
X99596871Y-133257394D01*
X99608385Y-133253147D01*
X99675782Y-133221412D01*
X99725139Y-133183502D01*
X99763810Y-133132825D01*
X99783712Y-133096063D01*
X99819014Y-132997168D01*
X99832363Y-132892362D01*
X99832008Y-132888027D01*
X99561850Y-132888027D01*
X99561418Y-132948559D01*
X99559411Y-132989451D01*
X99554763Y-133016459D01*
X99546407Y-133035339D01*
X99533278Y-133051845D01*
X99531062Y-133054226D01*
X99491618Y-133080764D01*
X99447359Y-133086850D01*
X99406049Y-133072199D01*
X99391053Y-133059374D01*
X99370226Y-133028026D01*
X99357741Y-132985219D01*
X99352796Y-132926449D01*
X99354288Y-132852959D01*
X99358331Y-132800203D01*
X99365385Y-132765247D01*
X99377557Y-132740507D01*
X99389646Y-132725853D01*
X99429586Y-132698836D01*
X99473693Y-132696196D01*
X99518845Y-132717974D01*
X99526217Y-132723950D01*
X99542108Y-132738676D01*
X99552395Y-132753736D01*
X99558297Y-132774734D01*
X99561030Y-132807275D01*
X99561811Y-132856962D01*
X99561850Y-132888027D01*
X99832008Y-132888027D01*
X99823763Y-132787454D01*
X99793214Y-132688253D01*
X99783612Y-132667900D01*
X99737576Y-132604301D01*
X99672000Y-132555444D01*
X99588693Y-132522313D01*
X99489467Y-132505890D01*
X99484642Y-132505559D01*
X99380863Y-132508275D01*
G36*
X103627312Y-132509291D02*
X103558963Y-132528732D01*
X103505272Y-132559722D01*
X103489810Y-132574496D01*
X103469651Y-132599638D01*
X103453928Y-132626571D01*
X103442022Y-132658846D01*
X103433313Y-132700014D01*
X103427184Y-132753625D01*
X103423016Y-132823233D01*
X103420190Y-132912387D01*
X103418785Y-132982225D01*
X103413851Y-133264800D01*
X103681094Y-133264800D01*
X103685222Y-133012104D01*
X103686852Y-132924794D01*
X103688740Y-132859257D01*
X103691254Y-132811866D01*
X103694760Y-132778994D01*
X103699627Y-132757014D01*
X103706222Y-132742299D01*
X103713544Y-132732704D01*
X103748391Y-132711208D01*
X103791593Y-132706647D01*
X103832421Y-132719190D01*
X103847276Y-132730575D01*
X103865395Y-132754283D01*
X103878986Y-132786562D01*
X103888586Y-132830833D01*
X103894734Y-132890518D01*
X103897967Y-132969038D01*
X103898830Y-133058425D01*
X103898900Y-133264800D01*
X104165600Y-133264800D01*
X104165600Y-132514472D01*
X104061848Y-132518161D01*
X104010693Y-132520331D01*
X103979182Y-132523747D01*
X103961575Y-132530477D01*
X103952128Y-132542589D01*
X103945809Y-132559950D01*
X103936088Y-132587887D01*
X103929620Y-132602608D01*
X103929519Y-132602734D01*
X103918587Y-132597860D01*
X103894686Y-132580347D01*
X103873545Y-132562934D01*
X103836004Y-132535612D01*
X103798583Y-132515832D01*
X103782450Y-132510624D01*
X103703936Y-132502790D01*
X103627312Y-132509291D01*
X103627312Y-132509291D01*
G37*
X103627312Y-132509291D02*
X103558963Y-132528732D01*
X103505272Y-132559722D01*
X103489810Y-132574496D01*
X103469651Y-132599638D01*
X103453928Y-132626571D01*
X103442022Y-132658846D01*
X103433313Y-132700014D01*
X103427184Y-132753625D01*
X103423016Y-132823233D01*
X103420190Y-132912387D01*
X103418785Y-132982225D01*
X103413851Y-133264800D01*
X103681094Y-133264800D01*
X103685222Y-133012104D01*
X103686852Y-132924794D01*
X103688740Y-132859257D01*
X103691254Y-132811866D01*
X103694760Y-132778994D01*
X103699627Y-132757014D01*
X103706222Y-132742299D01*
X103713544Y-132732704D01*
X103748391Y-132711208D01*
X103791593Y-132706647D01*
X103832421Y-132719190D01*
X103847276Y-132730575D01*
X103865395Y-132754283D01*
X103878986Y-132786562D01*
X103888586Y-132830833D01*
X103894734Y-132890518D01*
X103897967Y-132969038D01*
X103898830Y-133058425D01*
X103898900Y-133264800D01*
X104165600Y-133264800D01*
X104165600Y-132514472D01*
X104061848Y-132518161D01*
X104010693Y-132520331D01*
X103979182Y-132523747D01*
X103961575Y-132530477D01*
X103952128Y-132542589D01*
X103945809Y-132559950D01*
X103936088Y-132587887D01*
X103929620Y-132602608D01*
X103929519Y-132602734D01*
X103918587Y-132597860D01*
X103894686Y-132580347D01*
X103873545Y-132562934D01*
X103836004Y-132535612D01*
X103798583Y-132515832D01*
X103782450Y-132510624D01*
X103703936Y-132502790D01*
X103627312Y-132509291D01*
G36*
X101858741Y-132580862D02*
X101863232Y-132630912D01*
X101866196Y-132677509D01*
X101866900Y-132701512D01*
X101866900Y-132744100D01*
X101938006Y-132744100D01*
X102010115Y-132751619D01*
X102066188Y-132773315D01*
X102103217Y-132807889D01*
X102108827Y-132817737D01*
X102116918Y-132848328D01*
X102123446Y-132903585D01*
X102128348Y-132982815D01*
X102130942Y-133058425D01*
X102136211Y-133264800D01*
X102387600Y-133264800D01*
X102387600Y-132515500D01*
X102187702Y-132515500D01*
X102171700Y-132572650D01*
X102157919Y-132612365D01*
X102144754Y-132627815D01*
X102130633Y-132620042D01*
X102121647Y-132605795D01*
X102104135Y-132585512D01*
X102073002Y-132559267D01*
X102049173Y-132542295D01*
X102004876Y-132516961D01*
X101963907Y-132505290D01*
X101920064Y-132502800D01*
X101850582Y-132502800D01*
X101858741Y-132580862D01*
X101858741Y-132580862D01*
G37*
X101858741Y-132580862D02*
X101863232Y-132630912D01*
X101866196Y-132677509D01*
X101866900Y-132701512D01*
X101866900Y-132744100D01*
X101938006Y-132744100D01*
X102010115Y-132751619D01*
X102066188Y-132773315D01*
X102103217Y-132807889D01*
X102108827Y-132817737D01*
X102116918Y-132848328D01*
X102123446Y-132903585D01*
X102128348Y-132982815D01*
X102130942Y-133058425D01*
X102136211Y-133264800D01*
X102387600Y-133264800D01*
X102387600Y-132515500D01*
X102187702Y-132515500D01*
X102171700Y-132572650D01*
X102157919Y-132612365D01*
X102144754Y-132627815D01*
X102130633Y-132620042D01*
X102121647Y-132605795D01*
X102104135Y-132585512D01*
X102073002Y-132559267D01*
X102049173Y-132542295D01*
X102004876Y-132516961D01*
X101963907Y-132505290D01*
X101920064Y-132502800D01*
X101850582Y-132502800D01*
X101858741Y-132580862D01*
G36*
X99987300Y-133264800D02*
X100254000Y-133264800D01*
X100254000Y-132515500D01*
X99987300Y-132515500D01*
X99987300Y-133264800D01*
X99987300Y-133264800D01*
G37*
X99987300Y-133264800D02*
X100254000Y-133264800D01*
X100254000Y-132515500D01*
X99987300Y-132515500D01*
X99987300Y-133264800D01*
G36*
X98365931Y-132512815D02*
X98298101Y-132543256D01*
X98244093Y-132594713D01*
X98217776Y-132636150D01*
X98208998Y-132654474D01*
X98202246Y-132674509D01*
X98197181Y-132699914D01*
X98193461Y-132734348D01*
X98190747Y-132781473D01*
X98188697Y-132844948D01*
X98186971Y-132928433D01*
X98186171Y-132975875D01*
X98181488Y-133264800D01*
X98448694Y-133264800D01*
X98452822Y-133012104D01*
X98454452Y-132924794D01*
X98456340Y-132859257D01*
X98458854Y-132811866D01*
X98462360Y-132778994D01*
X98467227Y-132757014D01*
X98473822Y-132742299D01*
X98481144Y-132732704D01*
X98514073Y-132712238D01*
X98555422Y-132706345D01*
X98593933Y-132715615D01*
X98608527Y-132726040D01*
X98626019Y-132745566D01*
X98639142Y-132766956D01*
X98648617Y-132794185D01*
X98655169Y-132831229D01*
X98659519Y-132882060D01*
X98662390Y-132950654D01*
X98664350Y-133033025D01*
X98668923Y-133264800D01*
X98933200Y-133264800D01*
X98933200Y-132514472D01*
X98829448Y-132518161D01*
X98778293Y-132520331D01*
X98746782Y-132523747D01*
X98729175Y-132530477D01*
X98719728Y-132542589D01*
X98713409Y-132559950D01*
X98703688Y-132587887D01*
X98697220Y-132602608D01*
X98697119Y-132602734D01*
X98686187Y-132597860D01*
X98662286Y-132580347D01*
X98641145Y-132562934D01*
X98598549Y-132531782D01*
X98554596Y-132513179D01*
X98500744Y-132504459D01*
X98448605Y-132502800D01*
X98365931Y-132512815D01*
X98365931Y-132512815D01*
G37*
X98365931Y-132512815D02*
X98298101Y-132543256D01*
X98244093Y-132594713D01*
X98217776Y-132636150D01*
X98208998Y-132654474D01*
X98202246Y-132674509D01*
X98197181Y-132699914D01*
X98193461Y-132734348D01*
X98190747Y-132781473D01*
X98188697Y-132844948D01*
X98186971Y-132928433D01*
X98186171Y-132975875D01*
X98181488Y-133264800D01*
X98448694Y-133264800D01*
X98452822Y-133012104D01*
X98454452Y-132924794D01*
X98456340Y-132859257D01*
X98458854Y-132811866D01*
X98462360Y-132778994D01*
X98467227Y-132757014D01*
X98473822Y-132742299D01*
X98481144Y-132732704D01*
X98514073Y-132712238D01*
X98555422Y-132706345D01*
X98593933Y-132715615D01*
X98608527Y-132726040D01*
X98626019Y-132745566D01*
X98639142Y-132766956D01*
X98648617Y-132794185D01*
X98655169Y-132831229D01*
X98659519Y-132882060D01*
X98662390Y-132950654D01*
X98664350Y-133033025D01*
X98668923Y-133264800D01*
X98933200Y-133264800D01*
X98933200Y-132514472D01*
X98829448Y-132518161D01*
X98778293Y-132520331D01*
X98746782Y-132523747D01*
X98729175Y-132530477D01*
X98719728Y-132542589D01*
X98713409Y-132559950D01*
X98703688Y-132587887D01*
X98697220Y-132602608D01*
X98697119Y-132602734D01*
X98686187Y-132597860D01*
X98662286Y-132580347D01*
X98641145Y-132562934D01*
X98598549Y-132531782D01*
X98554596Y-132513179D01*
X98500744Y-132504459D01*
X98448605Y-132502800D01*
X98365931Y-132512815D01*
G36*
X100074013Y-132211147D02*
X100028351Y-132226208D01*
X100000440Y-132252906D01*
X99986884Y-132292466D01*
X99987610Y-132336849D01*
X100002541Y-132378017D01*
X100030053Y-132406978D01*
X100075895Y-132425509D01*
X100129596Y-132432995D01*
X100160876Y-132430587D01*
X100205909Y-132410629D01*
X100237036Y-132375522D01*
X100252109Y-132331802D01*
X100248985Y-132286003D01*
X100225517Y-132244660D01*
X100222828Y-132241872D01*
X100183229Y-132218180D01*
X100130594Y-132207694D01*
X100074013Y-132211147D01*
X100074013Y-132211147D01*
G37*
X100074013Y-132211147D02*
X100028351Y-132226208D01*
X100000440Y-132252906D01*
X99986884Y-132292466D01*
X99987610Y-132336849D01*
X100002541Y-132378017D01*
X100030053Y-132406978D01*
X100075895Y-132425509D01*
X100129596Y-132432995D01*
X100160876Y-132430587D01*
X100205909Y-132410629D01*
X100237036Y-132375522D01*
X100252109Y-132331802D01*
X100248985Y-132286003D01*
X100225517Y-132244660D01*
X100222828Y-132241872D01*
X100183229Y-132218180D01*
X100130594Y-132207694D01*
X100074013Y-132211147D01*
G36*
X96227899Y-132937100D02*
X96217340Y-132949773D01*
X96215400Y-132978341D01*
X96224945Y-133023492D01*
X96249856Y-133060442D01*
X96284549Y-133085876D01*
X96323440Y-133096476D01*
X96360947Y-133088927D01*
X96379178Y-133075622D01*
X96398428Y-133052201D01*
X96405900Y-133035365D01*
X96394188Y-133000057D01*
X96363000Y-132968943D01*
X96318259Y-132945949D01*
X96265887Y-132935001D01*
X96253908Y-132934600D01*
X96227899Y-132937100D01*
X96227899Y-132937100D01*
G37*
X96227899Y-132937100D02*
X96217340Y-132949773D01*
X96215400Y-132978341D01*
X96224945Y-133023492D01*
X96249856Y-133060442D01*
X96284549Y-133085876D01*
X96323440Y-133096476D01*
X96360947Y-133088927D01*
X96379178Y-133075622D01*
X96398428Y-133052201D01*
X96405900Y-133035365D01*
X96394188Y-133000057D01*
X96363000Y-132968943D01*
X96318259Y-132945949D01*
X96265887Y-132935001D01*
X96253908Y-132934600D01*
X96227899Y-132937100D01*
G36*
X94458409Y-132697347D02*
X94424665Y-132729845D01*
X94408592Y-132766325D01*
X94406385Y-132779839D01*
X94410791Y-132788238D01*
X94426389Y-132792736D01*
X94457756Y-132794551D01*
X94509472Y-132794899D01*
X94516148Y-132794900D01*
X94570584Y-132794364D01*
X94603900Y-132792222D01*
X94620368Y-132787670D01*
X94624255Y-132779905D01*
X94622909Y-132774811D01*
X94616066Y-132750939D01*
X94615200Y-132743556D01*
X94606769Y-132727708D01*
X94587406Y-132706494D01*
X94546420Y-132683449D01*
X94501207Y-132681141D01*
X94458409Y-132697347D01*
X94458409Y-132697347D01*
G37*
X94458409Y-132697347D02*
X94424665Y-132729845D01*
X94408592Y-132766325D01*
X94406385Y-132779839D01*
X94410791Y-132788238D01*
X94426389Y-132792736D01*
X94457756Y-132794551D01*
X94509472Y-132794899D01*
X94516148Y-132794900D01*
X94570584Y-132794364D01*
X94603900Y-132792222D01*
X94620368Y-132787670D01*
X94624255Y-132779905D01*
X94622909Y-132774811D01*
X94616066Y-132750939D01*
X94615200Y-132743556D01*
X94606769Y-132727708D01*
X94587406Y-132706494D01*
X94546420Y-132683449D01*
X94501207Y-132681141D01*
X94458409Y-132697347D01*
G04 #@! TO.C,R26*
D11*
X106214388Y-112256573D02*
X106775867Y-112406937D01*
X106409828Y-112793540D02*
X107349520Y-112451520D01*
X107219227Y-112093542D01*
X107141906Y-112020334D01*
X107080872Y-111991873D01*
X106975091Y-111979700D01*
X106840849Y-112028560D01*
X106767641Y-112105880D01*
X106739181Y-112166914D01*
X106727007Y-112272695D01*
X106857300Y-112630673D01*
X106934292Y-111589148D02*
X106962753Y-111528114D01*
X106974927Y-111422333D01*
X106893493Y-111198597D01*
X106816173Y-111125389D01*
X106755139Y-111096928D01*
X106649358Y-111084754D01*
X106559863Y-111117328D01*
X106441908Y-111210935D01*
X106100381Y-111943342D01*
X105888654Y-111361628D01*
X106535187Y-110214157D02*
X106600333Y-110393146D01*
X106588159Y-110498927D01*
X106559699Y-110559961D01*
X106458030Y-110698315D01*
X106295328Y-110808209D01*
X105937350Y-110938503D01*
X105831569Y-110926329D01*
X105770535Y-110897868D01*
X105693214Y-110824660D01*
X105628067Y-110645671D01*
X105640241Y-110539890D01*
X105668702Y-110478856D01*
X105741910Y-110401536D01*
X105965646Y-110320102D01*
X106071427Y-110332276D01*
X106132461Y-110360737D01*
X106209782Y-110433945D01*
X106274928Y-110612934D01*
X106262755Y-110718715D01*
X106234294Y-110779749D01*
X106161086Y-110857069D01*
G04 #@! TO.C,R27*
X107582468Y-116015344D02*
X108143947Y-116165708D01*
X107777908Y-116552311D02*
X108717600Y-116210291D01*
X108587307Y-115852313D01*
X108509986Y-115779105D01*
X108448952Y-115750644D01*
X108343171Y-115738471D01*
X108208929Y-115787331D01*
X108135721Y-115864651D01*
X108107261Y-115925685D01*
X108095087Y-116031466D01*
X108225380Y-116389444D01*
X108302372Y-115347919D02*
X108330833Y-115286885D01*
X108343007Y-115181104D01*
X108261573Y-114957368D01*
X108184253Y-114884160D01*
X108123219Y-114855699D01*
X108017438Y-114843525D01*
X107927943Y-114876099D01*
X107809988Y-114969706D01*
X107468461Y-115702113D01*
X107256734Y-115120399D01*
X108082420Y-114465148D02*
X107854407Y-113838686D01*
X107061294Y-114583431D01*
G04 #@! TO.C,R28*
X108950549Y-119774114D02*
X109512028Y-119924478D01*
X109145989Y-120311081D02*
X110085681Y-119969061D01*
X109955388Y-119611083D01*
X109878067Y-119537875D01*
X109817033Y-119509414D01*
X109711252Y-119497241D01*
X109577010Y-119546101D01*
X109503802Y-119623421D01*
X109475342Y-119684455D01*
X109463168Y-119790236D01*
X109593461Y-120148214D01*
X109670453Y-119106689D02*
X109698914Y-119045655D01*
X109711088Y-118939874D01*
X109629654Y-118716138D01*
X109552334Y-118642930D01*
X109491300Y-118614469D01*
X109385519Y-118602295D01*
X109296024Y-118634869D01*
X109178069Y-118728476D01*
X108836542Y-119460883D01*
X108624815Y-118879169D01*
X108966342Y-118146761D02*
X109043663Y-118219969D01*
X109104697Y-118248430D01*
X109210478Y-118260604D01*
X109255225Y-118244317D01*
X109328433Y-118166996D01*
X109356894Y-118105963D01*
X109369068Y-118000181D01*
X109303921Y-117821192D01*
X109226600Y-117747984D01*
X109165566Y-117719524D01*
X109059785Y-117707350D01*
X109015038Y-117723637D01*
X108941830Y-117800957D01*
X108913369Y-117861991D01*
X108901196Y-117967772D01*
X108966342Y-118146761D01*
X108954168Y-118252543D01*
X108925708Y-118313577D01*
X108852500Y-118390897D01*
X108673511Y-118456044D01*
X108567730Y-118443870D01*
X108506696Y-118415409D01*
X108429375Y-118342201D01*
X108364228Y-118163212D01*
X108376402Y-118057431D01*
X108404863Y-117996397D01*
X108478071Y-117919077D01*
X108657060Y-117853930D01*
X108762841Y-117866104D01*
X108823875Y-117894564D01*
X108901196Y-117967772D01*
G04 #@! TO.C,R29*
X110318630Y-123532884D02*
X110880109Y-123683248D01*
X110514070Y-124069851D02*
X111453762Y-123727831D01*
X111323469Y-123369853D01*
X111246148Y-123296645D01*
X111185114Y-123268184D01*
X111079333Y-123256011D01*
X110945091Y-123304871D01*
X110871883Y-123382191D01*
X110843423Y-123443225D01*
X110831249Y-123549006D01*
X110961542Y-123906984D01*
X111038534Y-122865459D02*
X111066995Y-122804425D01*
X111079169Y-122698644D01*
X110997735Y-122474908D01*
X110920415Y-122401700D01*
X110859381Y-122373239D01*
X110753600Y-122361065D01*
X110664105Y-122393639D01*
X110546150Y-122487246D01*
X110204623Y-123219653D01*
X109992896Y-122637939D01*
X109830029Y-122190466D02*
X109764883Y-122011477D01*
X109777057Y-121905696D01*
X109805517Y-121844662D01*
X109907186Y-121706307D01*
X110069888Y-121596413D01*
X110427866Y-121466120D01*
X110533647Y-121478294D01*
X110594681Y-121506754D01*
X110672002Y-121579962D01*
X110737149Y-121758951D01*
X110724975Y-121864733D01*
X110696514Y-121925766D01*
X110623306Y-122003087D01*
X110399570Y-122084520D01*
X110293789Y-122072347D01*
X110232755Y-122043886D01*
X110155434Y-121970678D01*
X110090287Y-121791689D01*
X110102461Y-121685908D01*
X110130922Y-121624874D01*
X110204130Y-121547553D01*
G04 #@! TO.C,R30*
X111686710Y-127291655D02*
X112248189Y-127442019D01*
X111882150Y-127828622D02*
X112821842Y-127486602D01*
X112691549Y-127128624D01*
X112614228Y-127055416D01*
X112553194Y-127026955D01*
X112447413Y-127014782D01*
X112313171Y-127063642D01*
X112239963Y-127140962D01*
X112211503Y-127201996D01*
X112199329Y-127307777D01*
X112329622Y-127665755D01*
X112512395Y-126636404D02*
X112300669Y-126054690D01*
X112056697Y-126498214D01*
X112007837Y-126363972D01*
X111930517Y-126290764D01*
X111869483Y-126262304D01*
X111763701Y-126250130D01*
X111539965Y-126331563D01*
X111466757Y-126408884D01*
X111438297Y-126469918D01*
X111426123Y-126575699D01*
X111523843Y-126844182D01*
X111601163Y-126917390D01*
X111662197Y-126945851D01*
X112088942Y-125472975D02*
X112056369Y-125383481D01*
X111979048Y-125310273D01*
X111918014Y-125281812D01*
X111812233Y-125269638D01*
X111616957Y-125290038D01*
X111393221Y-125371471D01*
X111230518Y-125481365D01*
X111157310Y-125558685D01*
X111128850Y-125619719D01*
X111116676Y-125725501D01*
X111149249Y-125814995D01*
X111226570Y-125888203D01*
X111287604Y-125916664D01*
X111393385Y-125928838D01*
X111588661Y-125908438D01*
X111812397Y-125827005D01*
X111975100Y-125717111D01*
X112048307Y-125639790D01*
X112076768Y-125578756D01*
X112088942Y-125472975D01*
G04 #@! TO.C,R31*
X101402603Y-110559722D02*
X101929442Y-110805302D01*
X101501831Y-111122470D02*
X102486638Y-110948821D01*
X102420487Y-110573657D01*
X102357053Y-110488134D01*
X102301889Y-110449508D01*
X102199829Y-110419150D01*
X102059142Y-110443957D01*
X101973619Y-110507390D01*
X101934993Y-110562555D01*
X101904635Y-110664615D01*
X101970787Y-111039780D01*
X102329528Y-110057805D02*
X102222032Y-109448162D01*
X101904750Y-109842583D01*
X101879943Y-109701896D01*
X101816509Y-109616374D01*
X101761345Y-109577747D01*
X101659284Y-109547390D01*
X101424806Y-109588734D01*
X101339284Y-109652168D01*
X101300658Y-109707332D01*
X101270300Y-109809393D01*
X101319914Y-110090766D01*
X101383347Y-110176289D01*
X101438512Y-110214915D01*
X101071845Y-108683898D02*
X101171072Y-109246645D01*
X101121459Y-108965272D02*
X102106266Y-108791624D01*
X101982117Y-108910222D01*
X101904864Y-109020551D01*
X101874506Y-109122611D01*
G04 #@! TO.C,R32*
X104541129Y-119145154D02*
X105067968Y-119390734D01*
X104640357Y-119707902D02*
X105625164Y-119534253D01*
X105559013Y-119159089D01*
X105495579Y-119073566D01*
X105440415Y-119034940D01*
X105338355Y-119004582D01*
X105197668Y-119029389D01*
X105112145Y-119092822D01*
X105073519Y-119147987D01*
X105043161Y-119250047D01*
X105109313Y-119625212D01*
X105468054Y-118643237D02*
X105360558Y-118033594D01*
X105043276Y-118428015D01*
X105018469Y-118287328D01*
X104955035Y-118201806D01*
X104899871Y-118163179D01*
X104797810Y-118132822D01*
X104563332Y-118174166D01*
X104477810Y-118237600D01*
X104439184Y-118292764D01*
X104408826Y-118394825D01*
X104458440Y-118676198D01*
X104521873Y-118761721D01*
X104577038Y-118800347D01*
X105200615Y-117674967D02*
X105239241Y-117619802D01*
X105269599Y-117517742D01*
X105228254Y-117283264D01*
X105164821Y-117197742D01*
X105109656Y-117159115D01*
X105007596Y-117128758D01*
X104913805Y-117145296D01*
X104781387Y-117216998D01*
X104317867Y-117878973D01*
X104210371Y-117269330D01*
G04 #@! TO.C,R33*
X105259035Y-122064848D02*
X105785874Y-122310428D01*
X105358263Y-122627596D02*
X106343070Y-122453947D01*
X106276919Y-122078783D01*
X106213485Y-121993260D01*
X106158321Y-121954634D01*
X106056261Y-121924276D01*
X105915574Y-121949083D01*
X105830051Y-122012516D01*
X105791425Y-122067681D01*
X105761067Y-122169741D01*
X105827219Y-122544906D01*
X106185960Y-121562931D02*
X106078464Y-120953288D01*
X105761182Y-121347709D01*
X105736375Y-121207022D01*
X105672941Y-121121500D01*
X105617777Y-121082873D01*
X105515716Y-121052516D01*
X105281238Y-121093860D01*
X105195716Y-121157294D01*
X105157090Y-121212458D01*
X105126732Y-121314519D01*
X105176346Y-121595892D01*
X105239779Y-121681415D01*
X105294944Y-121720041D01*
X106020581Y-120625019D02*
X105913085Y-120015376D01*
X105595802Y-120409797D01*
X105570996Y-120269110D01*
X105507562Y-120183588D01*
X105452397Y-120144961D01*
X105350337Y-120114603D01*
X105115859Y-120155948D01*
X105030337Y-120219382D01*
X104991710Y-120274546D01*
X104961353Y-120376606D01*
X105010966Y-120657980D01*
X105074400Y-120743502D01*
X105129564Y-120782129D01*
G04 #@! TO.C,R34*
X106075422Y-124967177D02*
X106602261Y-125212757D01*
X106174650Y-125529925D02*
X107159457Y-125356276D01*
X107093306Y-124981112D01*
X107029872Y-124895589D01*
X106974708Y-124856963D01*
X106872648Y-124826605D01*
X106731961Y-124851412D01*
X106646438Y-124914845D01*
X106607812Y-124970010D01*
X106577454Y-125072070D01*
X106643606Y-125447235D01*
X107002347Y-124465260D02*
X106894851Y-123855617D01*
X106577569Y-124250038D01*
X106552762Y-124109351D01*
X106489328Y-124023829D01*
X106434164Y-123985202D01*
X106332103Y-123954845D01*
X106097625Y-123996189D01*
X106012103Y-124059623D01*
X105973477Y-124114787D01*
X105943119Y-124216848D01*
X105992733Y-124498221D01*
X106056166Y-124583744D01*
X106111331Y-124622370D01*
X106417740Y-123069379D02*
X105761202Y-123185144D01*
X106834250Y-123237705D02*
X106172161Y-123596218D01*
X106064664Y-122986575D01*
G04 #@! TO.C,R35*
X106770014Y-128906408D02*
X107296853Y-129151988D01*
X106869242Y-129469156D02*
X107854049Y-129295507D01*
X107787898Y-128920343D01*
X107724464Y-128834820D01*
X107669300Y-128796194D01*
X107567240Y-128765836D01*
X107426553Y-128790643D01*
X107341030Y-128854076D01*
X107302404Y-128909241D01*
X107272046Y-129011301D01*
X107338198Y-129386466D01*
X107696939Y-128404491D02*
X107589443Y-127794848D01*
X107272161Y-128189269D01*
X107247354Y-128048582D01*
X107183920Y-127963060D01*
X107128756Y-127924433D01*
X107026695Y-127894076D01*
X106792217Y-127935420D01*
X106706695Y-127998854D01*
X106668069Y-128054018D01*
X106637711Y-128156079D01*
X106687325Y-128437452D01*
X106750758Y-128522975D01*
X106805923Y-128561601D01*
X107432332Y-126903831D02*
X107515022Y-127372788D01*
X107054335Y-127502373D01*
X107092962Y-127447208D01*
X107123319Y-127345148D01*
X107081975Y-127110670D01*
X107018541Y-127025148D01*
X106963376Y-126986521D01*
X106861316Y-126956163D01*
X106626838Y-126997508D01*
X106541316Y-127060942D01*
X106502689Y-127116106D01*
X106472332Y-127218166D01*
X106513676Y-127452645D01*
X106577110Y-127538167D01*
X106632275Y-127576793D01*
G04 #@! TO.C,R36*
X100452380Y-109357142D02*
X99976190Y-109023809D01*
X100452380Y-108785714D02*
X99452380Y-108785714D01*
X99452380Y-109166666D01*
X99500000Y-109261904D01*
X99547619Y-109309523D01*
X99642857Y-109357142D01*
X99785714Y-109357142D01*
X99880952Y-109309523D01*
X99928571Y-109261904D01*
X99976190Y-109166666D01*
X99976190Y-108785714D01*
X99452380Y-109690476D02*
X99452380Y-110309523D01*
X99833333Y-109976190D01*
X99833333Y-110119047D01*
X99880952Y-110214285D01*
X99928571Y-110261904D01*
X100023809Y-110309523D01*
X100261904Y-110309523D01*
X100357142Y-110261904D01*
X100404761Y-110214285D01*
X100452380Y-110119047D01*
X100452380Y-109833333D01*
X100404761Y-109738095D01*
X100357142Y-109690476D01*
X99452380Y-111166666D02*
X99452380Y-110976190D01*
X99500000Y-110880952D01*
X99547619Y-110833333D01*
X99690476Y-110738095D01*
X99880952Y-110690476D01*
X100261904Y-110690476D01*
X100357142Y-110738095D01*
X100404761Y-110785714D01*
X100452380Y-110880952D01*
X100452380Y-111071428D01*
X100404761Y-111166666D01*
X100357142Y-111214285D01*
X100261904Y-111261904D01*
X100023809Y-111261904D01*
X99928571Y-111214285D01*
X99880952Y-111166666D01*
X99833333Y-111071428D01*
X99833333Y-110880952D01*
X99880952Y-110785714D01*
X99928571Y-110738095D01*
X100023809Y-110690476D01*
G04 #@! TO.C,R37*
X98852380Y-118357142D02*
X98376190Y-118023809D01*
X98852380Y-117785714D02*
X97852380Y-117785714D01*
X97852380Y-118166666D01*
X97900000Y-118261904D01*
X97947619Y-118309523D01*
X98042857Y-118357142D01*
X98185714Y-118357142D01*
X98280952Y-118309523D01*
X98328571Y-118261904D01*
X98376190Y-118166666D01*
X98376190Y-117785714D01*
X97852380Y-118690476D02*
X97852380Y-119309523D01*
X98233333Y-118976190D01*
X98233333Y-119119047D01*
X98280952Y-119214285D01*
X98328571Y-119261904D01*
X98423809Y-119309523D01*
X98661904Y-119309523D01*
X98757142Y-119261904D01*
X98804761Y-119214285D01*
X98852380Y-119119047D01*
X98852380Y-118833333D01*
X98804761Y-118738095D01*
X98757142Y-118690476D01*
X97852380Y-119642857D02*
X97852380Y-120309523D01*
X98852380Y-119880952D01*
G04 #@! TO.C,R38*
X98652380Y-121357142D02*
X98176190Y-121023809D01*
X98652380Y-120785714D02*
X97652380Y-120785714D01*
X97652380Y-121166666D01*
X97700000Y-121261904D01*
X97747619Y-121309523D01*
X97842857Y-121357142D01*
X97985714Y-121357142D01*
X98080952Y-121309523D01*
X98128571Y-121261904D01*
X98176190Y-121166666D01*
X98176190Y-120785714D01*
X97652380Y-121690476D02*
X97652380Y-122309523D01*
X98033333Y-121976190D01*
X98033333Y-122119047D01*
X98080952Y-122214285D01*
X98128571Y-122261904D01*
X98223809Y-122309523D01*
X98461904Y-122309523D01*
X98557142Y-122261904D01*
X98604761Y-122214285D01*
X98652380Y-122119047D01*
X98652380Y-121833333D01*
X98604761Y-121738095D01*
X98557142Y-121690476D01*
X98080952Y-122880952D02*
X98033333Y-122785714D01*
X97985714Y-122738095D01*
X97890476Y-122690476D01*
X97842857Y-122690476D01*
X97747619Y-122738095D01*
X97700000Y-122785714D01*
X97652380Y-122880952D01*
X97652380Y-123071428D01*
X97700000Y-123166666D01*
X97747619Y-123214285D01*
X97842857Y-123261904D01*
X97890476Y-123261904D01*
X97985714Y-123214285D01*
X98033333Y-123166666D01*
X98080952Y-123071428D01*
X98080952Y-122880952D01*
X98128571Y-122785714D01*
X98176190Y-122738095D01*
X98271428Y-122690476D01*
X98461904Y-122690476D01*
X98557142Y-122738095D01*
X98604761Y-122785714D01*
X98652380Y-122880952D01*
X98652380Y-123071428D01*
X98604761Y-123166666D01*
X98557142Y-123214285D01*
X98461904Y-123261904D01*
X98271428Y-123261904D01*
X98176190Y-123214285D01*
X98128571Y-123166666D01*
X98080952Y-123071428D01*
G04 #@! TO.C,R39*
X98352380Y-124357142D02*
X97876190Y-124023809D01*
X98352380Y-123785714D02*
X97352380Y-123785714D01*
X97352380Y-124166666D01*
X97400000Y-124261904D01*
X97447619Y-124309523D01*
X97542857Y-124357142D01*
X97685714Y-124357142D01*
X97780952Y-124309523D01*
X97828571Y-124261904D01*
X97876190Y-124166666D01*
X97876190Y-123785714D01*
X97352380Y-124690476D02*
X97352380Y-125309523D01*
X97733333Y-124976190D01*
X97733333Y-125119047D01*
X97780952Y-125214285D01*
X97828571Y-125261904D01*
X97923809Y-125309523D01*
X98161904Y-125309523D01*
X98257142Y-125261904D01*
X98304761Y-125214285D01*
X98352380Y-125119047D01*
X98352380Y-124833333D01*
X98304761Y-124738095D01*
X98257142Y-124690476D01*
X98352380Y-125785714D02*
X98352380Y-125976190D01*
X98304761Y-126071428D01*
X98257142Y-126119047D01*
X98114285Y-126214285D01*
X97923809Y-126261904D01*
X97542857Y-126261904D01*
X97447619Y-126214285D01*
X97400000Y-126166666D01*
X97352380Y-126071428D01*
X97352380Y-125880952D01*
X97400000Y-125785714D01*
X97447619Y-125738095D01*
X97542857Y-125690476D01*
X97780952Y-125690476D01*
X97876190Y-125738095D01*
X97923809Y-125785714D01*
X97971428Y-125880952D01*
X97971428Y-126071428D01*
X97923809Y-126166666D01*
X97876190Y-126214285D01*
X97780952Y-126261904D01*
G04 #@! TO.C,R40*
X98352380Y-128357142D02*
X97876190Y-128023809D01*
X98352380Y-127785714D02*
X97352380Y-127785714D01*
X97352380Y-128166666D01*
X97400000Y-128261904D01*
X97447619Y-128309523D01*
X97542857Y-128357142D01*
X97685714Y-128357142D01*
X97780952Y-128309523D01*
X97828571Y-128261904D01*
X97876190Y-128166666D01*
X97876190Y-127785714D01*
X97685714Y-129214285D02*
X98352380Y-129214285D01*
X97304761Y-128976190D02*
X98019047Y-128738095D01*
X98019047Y-129357142D01*
X97352380Y-129928571D02*
X97352380Y-130023809D01*
X97400000Y-130119047D01*
X97447619Y-130166666D01*
X97542857Y-130214285D01*
X97733333Y-130261904D01*
X97971428Y-130261904D01*
X98161904Y-130214285D01*
X98257142Y-130166666D01*
X98304761Y-130119047D01*
X98352380Y-130023809D01*
X98352380Y-129928571D01*
X98304761Y-129833333D01*
X98257142Y-129785714D01*
X98161904Y-129738095D01*
X97971428Y-129690476D01*
X97733333Y-129690476D01*
X97542857Y-129738095D01*
X97447619Y-129785714D01*
X97400000Y-129833333D01*
X97352380Y-129928571D01*
G04 #@! TO.C,R41*
X98820658Y-109293541D02*
X98409584Y-108882582D01*
X98919885Y-108730794D02*
X97935078Y-108557145D01*
X97868926Y-108932310D01*
X97899284Y-109034370D01*
X97937910Y-109089535D01*
X98023432Y-109152969D01*
X98164119Y-109177775D01*
X98266179Y-109147418D01*
X98321344Y-109108791D01*
X98384778Y-109023269D01*
X98450929Y-108648104D01*
X98015278Y-110021896D02*
X98671816Y-110137662D01*
X97681458Y-109721267D02*
X98426237Y-109610823D01*
X98318740Y-110220466D01*
X98489899Y-111169365D02*
X98589127Y-110606618D01*
X98539513Y-110887992D02*
X97554705Y-110714343D01*
X97711930Y-110645359D01*
X97822259Y-110568106D01*
X97885693Y-110482584D01*
G04 #@! TO.C,R42*
X95682132Y-117878973D02*
X95271058Y-117468014D01*
X95781359Y-117316226D02*
X94796552Y-117142577D01*
X94730400Y-117517742D01*
X94760758Y-117619802D01*
X94799384Y-117674967D01*
X94884906Y-117738401D01*
X95025593Y-117763207D01*
X95127653Y-117732850D01*
X95182818Y-117694223D01*
X95246252Y-117608701D01*
X95312403Y-117233536D01*
X94876752Y-118607328D02*
X95533290Y-118723094D01*
X94542932Y-118306699D02*
X95287711Y-118196255D01*
X95180214Y-118805898D01*
X94559584Y-119034940D02*
X94504420Y-119073566D01*
X94440986Y-119159089D01*
X94399641Y-119393567D01*
X94429999Y-119495627D01*
X94468626Y-119550791D01*
X94554148Y-119614225D01*
X94647939Y-119630763D01*
X94796895Y-119608674D01*
X95458870Y-119145154D01*
X95351373Y-119754797D01*
G04 #@! TO.C,R43*
X94964226Y-120798667D02*
X94553152Y-120387708D01*
X95063453Y-120235920D02*
X94078646Y-120062271D01*
X94012494Y-120437436D01*
X94042852Y-120539496D01*
X94081478Y-120594661D01*
X94167000Y-120658095D01*
X94307687Y-120682901D01*
X94409747Y-120652544D01*
X94464912Y-120613917D01*
X94528346Y-120528395D01*
X94594497Y-120153230D01*
X94158846Y-121527022D02*
X94815384Y-121642788D01*
X93825026Y-121226393D02*
X94569805Y-121115949D01*
X94462308Y-121725592D01*
X93756156Y-121891200D02*
X93648660Y-122500843D01*
X94081707Y-122238725D01*
X94056900Y-122379412D01*
X94087258Y-122481472D01*
X94125885Y-122536637D01*
X94211407Y-122600071D01*
X94445885Y-122641415D01*
X94547945Y-122611058D01*
X94603110Y-122572431D01*
X94666543Y-122486909D01*
X94716157Y-122205535D01*
X94685799Y-122103475D01*
X94647173Y-122048310D01*
G04 #@! TO.C,R44*
X94147839Y-123700996D02*
X93736765Y-123290037D01*
X94247066Y-123138249D02*
X93262259Y-122964600D01*
X93196107Y-123339765D01*
X93226465Y-123441825D01*
X93265091Y-123496990D01*
X93350613Y-123560424D01*
X93491300Y-123585230D01*
X93593360Y-123554873D01*
X93648525Y-123516246D01*
X93711959Y-123430724D01*
X93778110Y-123055559D01*
X93342459Y-124429351D02*
X93998997Y-124545117D01*
X93008639Y-124128722D02*
X93753418Y-124018278D01*
X93645921Y-124627921D01*
X93177080Y-125367264D02*
X93833618Y-125483029D01*
X92843260Y-125066634D02*
X93588039Y-124956190D01*
X93480542Y-125565833D01*
G04 #@! TO.C,R45*
X93453247Y-127640227D02*
X93042173Y-127229268D01*
X93552474Y-127077480D02*
X92567667Y-126903831D01*
X92501515Y-127278996D01*
X92531873Y-127381056D01*
X92570499Y-127436221D01*
X92656021Y-127499655D01*
X92796708Y-127524461D01*
X92898768Y-127494104D01*
X92953933Y-127455477D01*
X93017367Y-127369955D01*
X93083518Y-126994790D01*
X92647867Y-128368582D02*
X93304405Y-128484348D01*
X92314047Y-128067953D02*
X93058826Y-127957509D01*
X92951329Y-128567152D01*
X92145950Y-129295507D02*
X92228639Y-128826551D01*
X92705864Y-128862345D01*
X92650700Y-128900972D01*
X92587266Y-128986494D01*
X92545921Y-129220972D01*
X92576279Y-129323032D01*
X92614906Y-129378197D01*
X92700428Y-129441631D01*
X92934906Y-129482975D01*
X93036966Y-129452618D01*
X93092131Y-129413991D01*
X93155564Y-129328469D01*
X93196909Y-129093991D01*
X93166551Y-128991931D01*
X93127925Y-128936766D01*
G04 #@! TO.C,R46*
X94225352Y-111048397D02*
X93891886Y-110572299D01*
X94420792Y-110511430D02*
X93481099Y-110169409D01*
X93350806Y-110527388D01*
X93362980Y-110633169D01*
X93391440Y-110694203D01*
X93464648Y-110771523D01*
X93598890Y-110820383D01*
X93704671Y-110808209D01*
X93765705Y-110779749D01*
X93843026Y-110706541D01*
X93973319Y-110348563D01*
X93305730Y-111625834D02*
X93932192Y-111853848D01*
X93029185Y-111271804D02*
X93781827Y-111292368D01*
X93570101Y-111874083D01*
X92666765Y-112406773D02*
X92731912Y-112227784D01*
X92809233Y-112154576D01*
X92870267Y-112126115D01*
X93037082Y-112085481D01*
X93232358Y-112105880D01*
X93590336Y-112236174D01*
X93663544Y-112313494D01*
X93692004Y-112374528D01*
X93704178Y-112480309D01*
X93639031Y-112659298D01*
X93561711Y-112732506D01*
X93500677Y-112760967D01*
X93394896Y-112773141D01*
X93171159Y-112691707D01*
X93097951Y-112614387D01*
X93069491Y-112553353D01*
X93057317Y-112447572D01*
X93122464Y-112268583D01*
X93199784Y-112195375D01*
X93260818Y-112166914D01*
X93366599Y-112154740D01*
G04 #@! TO.C,R47*
X92857272Y-114807168D02*
X92523806Y-114331070D01*
X93052712Y-114270201D02*
X92113019Y-113928180D01*
X91982726Y-114286159D01*
X91994900Y-114391940D01*
X92023360Y-114452974D01*
X92096568Y-114530294D01*
X92230810Y-114579154D01*
X92336591Y-114566980D01*
X92397625Y-114538520D01*
X92474946Y-114465312D01*
X92605239Y-114107334D01*
X91937650Y-115384605D02*
X92564112Y-115612619D01*
X91661105Y-115030575D02*
X92413747Y-115051139D01*
X92202021Y-115632854D01*
X91477839Y-115673324D02*
X91249825Y-116299786D01*
X92336098Y-116239080D01*
G04 #@! TO.C,R48*
X91489191Y-118565938D02*
X91155725Y-118089840D01*
X91684631Y-118028971D02*
X90744938Y-117686950D01*
X90614645Y-118044929D01*
X90626819Y-118150710D01*
X90655279Y-118211744D01*
X90728487Y-118289064D01*
X90862729Y-118337924D01*
X90968510Y-118325750D01*
X91029544Y-118297290D01*
X91106865Y-118224082D01*
X91237158Y-117866104D01*
X90569569Y-119143375D02*
X91196031Y-119371389D01*
X90293024Y-118789345D02*
X91045666Y-118809909D01*
X90833940Y-119391624D01*
X90431050Y-119802410D02*
X90418876Y-119696629D01*
X90390415Y-119635595D01*
X90317207Y-119558275D01*
X90272460Y-119541988D01*
X90166679Y-119554162D01*
X90105645Y-119582622D01*
X90028324Y-119655830D01*
X89963178Y-119834819D01*
X89975352Y-119940600D01*
X90003812Y-120001634D01*
X90077020Y-120078955D01*
X90121767Y-120095242D01*
X90227549Y-120083068D01*
X90288583Y-120054607D01*
X90365903Y-119981399D01*
X90431050Y-119802410D01*
X90508370Y-119729202D01*
X90569404Y-119700742D01*
X90675186Y-119688568D01*
X90854175Y-119753715D01*
X90927383Y-119831035D01*
X90955843Y-119892069D01*
X90968017Y-119997850D01*
X90902870Y-120176839D01*
X90825550Y-120250047D01*
X90764516Y-120278508D01*
X90658735Y-120290682D01*
X90479746Y-120225535D01*
X90406538Y-120148214D01*
X90378077Y-120087181D01*
X90365903Y-119981399D01*
G04 #@! TO.C,R49*
X90121110Y-122324708D02*
X89787644Y-121848610D01*
X90316550Y-121787741D02*
X89376857Y-121445720D01*
X89246564Y-121803699D01*
X89258738Y-121909480D01*
X89287198Y-121970514D01*
X89360406Y-122047834D01*
X89494648Y-122096694D01*
X89600429Y-122084520D01*
X89661463Y-122056060D01*
X89738784Y-121982852D01*
X89869077Y-121624874D01*
X89201488Y-122902145D02*
X89827950Y-123130159D01*
X88924943Y-122548115D02*
X89677585Y-122568679D01*
X89465859Y-123150394D01*
X89632509Y-123667126D02*
X89567363Y-123846115D01*
X89490042Y-123919323D01*
X89429008Y-123947783D01*
X89262193Y-123988418D01*
X89066917Y-123968018D01*
X88708939Y-123837725D01*
X88635731Y-123760404D01*
X88607271Y-123699370D01*
X88595097Y-123593589D01*
X88660243Y-123414600D01*
X88737564Y-123341392D01*
X88798598Y-123312932D01*
X88904379Y-123300758D01*
X89128116Y-123382191D01*
X89201323Y-123459512D01*
X89229784Y-123520546D01*
X89241958Y-123626327D01*
X89176811Y-123805316D01*
X89099491Y-123878524D01*
X89038457Y-123906984D01*
X88932675Y-123919158D01*
G04 #@! TO.C,R50*
X88753030Y-126083479D02*
X88419564Y-125607381D01*
X88948470Y-125546512D02*
X88008777Y-125204491D01*
X87878484Y-125562470D01*
X87890658Y-125668251D01*
X87919118Y-125729285D01*
X87992326Y-125806605D01*
X88126568Y-125855465D01*
X88232349Y-125843291D01*
X88293383Y-125814831D01*
X88370704Y-125741623D01*
X88500997Y-125383645D01*
X87503890Y-126591657D02*
X87666757Y-126144184D01*
X88130516Y-126262304D01*
X88069482Y-126290764D01*
X87992162Y-126363972D01*
X87910728Y-126587708D01*
X87922902Y-126693490D01*
X87951363Y-126754523D01*
X88024571Y-126831844D01*
X88248307Y-126913277D01*
X88354088Y-126901104D01*
X88415122Y-126872643D01*
X88492443Y-126799435D01*
X88573876Y-126575699D01*
X88561702Y-126469918D01*
X88533242Y-126408884D01*
X87275877Y-127218118D02*
X87243303Y-127307613D01*
X87255477Y-127413394D01*
X87283938Y-127474428D01*
X87357146Y-127551749D01*
X87519848Y-127661643D01*
X87743585Y-127743076D01*
X87938860Y-127763476D01*
X88044642Y-127751302D01*
X88105675Y-127722841D01*
X88182996Y-127649633D01*
X88215569Y-127560139D01*
X88203395Y-127454357D01*
X88174935Y-127393323D01*
X88101727Y-127316003D01*
X87939025Y-127206109D01*
X87715288Y-127124676D01*
X87520013Y-127104276D01*
X87414231Y-127116450D01*
X87353197Y-127144911D01*
X87275877Y-127218118D01*
G04 #@! TD*
M02*
