G04 #@! TF.GenerationSoftware,KiCad,Pcbnew,5.0.2-bee76a0~70~ubuntu18.04.1*
G04 #@! TF.CreationDate,2019-07-24T00:54:38+02:00*
G04 #@! TF.ProjectId,DummyLoad,44756d6d-794c-46f6-9164-2e6b69636164,1.1*
G04 #@! TF.SameCoordinates,Original*
G04 #@! TF.FileFunction,Legend,Top*
G04 #@! TF.FilePolarity,Positive*
%FSLAX46Y46*%
G04 Gerber Fmt 4.6, Leading zero omitted, Abs format (unit mm)*
G04 Created by KiCad (PCBNEW 5.0.2-bee76a0~70~ubuntu18.04.1) date Mi 24 Jul 2019 00:54:38 CEST*
%MOMM*%
%LPD*%
G01*
G04 APERTURE LIST*
%ADD10C,0.300000*%
%ADD11C,0.150000*%
G04 APERTURE END LIST*
D10*
X104342857Y-132963095D02*
X104342857Y-131663095D01*
X104652380Y-131663095D01*
X104838095Y-131725000D01*
X104961904Y-131848809D01*
X105023809Y-131972619D01*
X105085714Y-132220238D01*
X105085714Y-132405952D01*
X105023809Y-132653571D01*
X104961904Y-132777380D01*
X104838095Y-132901190D01*
X104652380Y-132963095D01*
X104342857Y-132963095D01*
X106200000Y-132096428D02*
X106200000Y-132963095D01*
X105642857Y-132096428D02*
X105642857Y-132777380D01*
X105704761Y-132901190D01*
X105828571Y-132963095D01*
X106014285Y-132963095D01*
X106138095Y-132901190D01*
X106200000Y-132839285D01*
X106819047Y-132963095D02*
X106819047Y-132096428D01*
X106819047Y-132220238D02*
X106880952Y-132158333D01*
X107004761Y-132096428D01*
X107190476Y-132096428D01*
X107314285Y-132158333D01*
X107376190Y-132282142D01*
X107376190Y-132963095D01*
X107376190Y-132282142D02*
X107438095Y-132158333D01*
X107561904Y-132096428D01*
X107747619Y-132096428D01*
X107871428Y-132158333D01*
X107933333Y-132282142D01*
X107933333Y-132963095D01*
X108552380Y-132963095D02*
X108552380Y-132096428D01*
X108552380Y-132220238D02*
X108614285Y-132158333D01*
X108738095Y-132096428D01*
X108923809Y-132096428D01*
X109047619Y-132158333D01*
X109109523Y-132282142D01*
X109109523Y-132963095D01*
X109109523Y-132282142D02*
X109171428Y-132158333D01*
X109295238Y-132096428D01*
X109480952Y-132096428D01*
X109604761Y-132158333D01*
X109666666Y-132282142D01*
X109666666Y-132963095D01*
X110161904Y-132096428D02*
X110471428Y-132963095D01*
X110780952Y-132096428D02*
X110471428Y-132963095D01*
X110347619Y-133272619D01*
X110285714Y-133334523D01*
X110161904Y-133396428D01*
X106138095Y-135213095D02*
X105519047Y-135213095D01*
X105519047Y-133913095D01*
X106757142Y-135213095D02*
X106633333Y-135151190D01*
X106571428Y-135089285D01*
X106509523Y-134965476D01*
X106509523Y-134594047D01*
X106571428Y-134470238D01*
X106633333Y-134408333D01*
X106757142Y-134346428D01*
X106942857Y-134346428D01*
X107066666Y-134408333D01*
X107128571Y-134470238D01*
X107190476Y-134594047D01*
X107190476Y-134965476D01*
X107128571Y-135089285D01*
X107066666Y-135151190D01*
X106942857Y-135213095D01*
X106757142Y-135213095D01*
X108304761Y-135213095D02*
X108304761Y-134532142D01*
X108242857Y-134408333D01*
X108119047Y-134346428D01*
X107871428Y-134346428D01*
X107747619Y-134408333D01*
X108304761Y-135151190D02*
X108180952Y-135213095D01*
X107871428Y-135213095D01*
X107747619Y-135151190D01*
X107685714Y-135027380D01*
X107685714Y-134903571D01*
X107747619Y-134779761D01*
X107871428Y-134717857D01*
X108180952Y-134717857D01*
X108304761Y-134655952D01*
X109480952Y-135213095D02*
X109480952Y-133913095D01*
X109480952Y-135151190D02*
X109357142Y-135213095D01*
X109109523Y-135213095D01*
X108985714Y-135151190D01*
X108923809Y-135089285D01*
X108861904Y-134965476D01*
X108861904Y-134594047D01*
X108923809Y-134470238D01*
X108985714Y-134408333D01*
X109109523Y-134346428D01*
X109357142Y-134346428D01*
X109480952Y-134408333D01*
D11*
G04 #@! TO.C,R15*
X99125000Y-129600000D02*
X99125000Y-128400000D01*
X100875000Y-128400000D02*
X100875000Y-129600000D01*
G04 #@! TO.C,CN1*
X104800000Y-98700000D02*
X104800000Y-105400000D01*
X95200000Y-98700000D02*
X104800000Y-98700000D01*
X95200000Y-105400000D02*
X95200000Y-98700000D01*
X104800000Y-105400000D02*
X95200000Y-105400000D01*
X105500000Y-100000000D02*
X94500000Y-100000000D01*
X96800000Y-91100000D02*
X96800000Y-98700000D01*
X103200000Y-91100000D02*
X96800000Y-91100000D01*
X103200000Y-98700000D02*
X103200000Y-91100000D01*
G04 #@! TO.C,CN2*
X96800000Y-141300000D02*
X96800000Y-148900000D01*
X96800000Y-148900000D02*
X103200000Y-148900000D01*
X103200000Y-148900000D02*
X103200000Y-141300000D01*
X94500000Y-140000000D02*
X105500000Y-140000000D01*
X95200000Y-134600000D02*
X104800000Y-134600000D01*
X104800000Y-134600000D02*
X104800000Y-141300000D01*
X104800000Y-141300000D02*
X95200000Y-141300000D01*
X95200000Y-141300000D02*
X95200000Y-134600000D01*
G04 #@! TO.C,R1*
X94526295Y-112480552D02*
X94936719Y-111352921D01*
X96581181Y-111951456D02*
X96170757Y-113079087D01*
G04 #@! TO.C,R2*
X95213101Y-115710227D02*
X94802677Y-116837858D01*
X93158215Y-116239323D02*
X93568639Y-115111692D01*
G04 #@! TO.C,R3*
X91790134Y-119998093D02*
X92200558Y-118870462D01*
X93845020Y-119468997D02*
X93434596Y-120596628D01*
G04 #@! TO.C,R4*
X92476939Y-123227767D02*
X92066515Y-124355398D01*
X90422053Y-123756863D02*
X90832477Y-122629232D01*
G04 #@! TO.C,R5*
X89053973Y-127515634D02*
X89464397Y-126388003D01*
X91108859Y-126986538D02*
X90698435Y-128114169D01*
G04 #@! TO.C,R6*
X96776678Y-113241442D02*
X96985056Y-112059673D01*
X98708470Y-112363558D02*
X98500092Y-113545327D01*
G04 #@! TO.C,R7*
X98013878Y-116302789D02*
X97805500Y-117484558D01*
X96082086Y-117180673D02*
X96290464Y-115998904D01*
G04 #@! TO.C,R8*
X95387493Y-121119904D02*
X95595871Y-119938135D01*
X97319285Y-120242020D02*
X97110907Y-121423789D01*
G04 #@! TO.C,R9*
X96624692Y-124181251D02*
X96416314Y-125363020D01*
X94692900Y-125059135D02*
X94901278Y-123877366D01*
G04 #@! TO.C,R10*
X93998308Y-128998366D02*
X94206686Y-127816597D01*
X95930100Y-128120482D02*
X95721722Y-129302251D01*
G04 #@! TO.C,R11*
X99125000Y-113600000D02*
X99125000Y-112400000D01*
X100875000Y-112400000D02*
X100875000Y-113600000D01*
G04 #@! TO.C,R12*
X100875000Y-116400000D02*
X100875000Y-117600000D01*
X99125000Y-117600000D02*
X99125000Y-116400000D01*
G04 #@! TO.C,R13*
X99125000Y-121600000D02*
X99125000Y-120400000D01*
X100875000Y-120400000D02*
X100875000Y-121600000D01*
G04 #@! TO.C,R14*
X100875000Y-124400000D02*
X100875000Y-125600000D01*
X99125000Y-125600000D02*
X99125000Y-124400000D01*
G04 #@! TO.C,R16*
X103014944Y-112059673D02*
X103223322Y-113241442D01*
X101499908Y-113545327D02*
X101291530Y-112363558D01*
G04 #@! TO.C,R17*
X102194500Y-117484558D02*
X101986122Y-116302789D01*
X103709536Y-115998904D02*
X103917914Y-117180673D01*
G04 #@! TO.C,R18*
X104404129Y-119938135D02*
X104612507Y-121119904D01*
X102889093Y-121423789D02*
X102680715Y-120242020D01*
G04 #@! TO.C,R19*
X103583686Y-125363020D02*
X103375308Y-124181251D01*
X105098722Y-123877366D02*
X105307100Y-125059135D01*
G04 #@! TO.C,R20*
X105793314Y-127816597D02*
X106001692Y-128998366D01*
X104278278Y-129302251D02*
X104069900Y-128120482D01*
G04 #@! TO.C,R21*
X103829243Y-113079087D02*
X103418819Y-111951456D01*
X105063281Y-111352921D02*
X105473705Y-112480552D01*
G04 #@! TO.C,R22*
X106431361Y-115111692D02*
X106841785Y-116239323D01*
X105197323Y-116837858D02*
X104786899Y-115710227D01*
G04 #@! TO.C,R23*
X106565404Y-120596628D02*
X106154980Y-119468997D01*
X107799442Y-118870462D02*
X108209866Y-119998093D01*
G04 #@! TO.C,R24*
X109167523Y-122629232D02*
X109577947Y-123756863D01*
X107933485Y-124355398D02*
X107523061Y-123227767D01*
G04 #@! TO.C,R25*
X109301565Y-128114169D02*
X108891141Y-126986538D01*
X110535603Y-126388003D02*
X110946027Y-127515634D01*
G04 #@! TO.C,R51*
X100600000Y-132125000D02*
X101800000Y-132125000D01*
X101800000Y-133875000D02*
X100600000Y-133875000D01*
G04 #@! TO.C,R15*
X98352380Y-129642857D02*
X97876190Y-129976190D01*
X98352380Y-130214285D02*
X97352380Y-130214285D01*
X97352380Y-129833333D01*
X97400000Y-129738095D01*
X97447619Y-129690476D01*
X97542857Y-129642857D01*
X97685714Y-129642857D01*
X97780952Y-129690476D01*
X97828571Y-129738095D01*
X97876190Y-129833333D01*
X97876190Y-130214285D01*
X98352380Y-128690476D02*
X98352380Y-129261904D01*
X98352380Y-128976190D02*
X97352380Y-128976190D01*
X97495238Y-129071428D01*
X97590476Y-129166666D01*
X97638095Y-129261904D01*
X97352380Y-127785714D02*
X97352380Y-128261904D01*
X97828571Y-128309523D01*
X97780952Y-128261904D01*
X97733333Y-128166666D01*
X97733333Y-127928571D01*
X97780952Y-127833333D01*
X97828571Y-127785714D01*
X97923809Y-127738095D01*
X98161904Y-127738095D01*
X98257142Y-127785714D01*
X98304761Y-127833333D01*
X98352380Y-127928571D01*
X98352380Y-128166666D01*
X98304761Y-128261904D01*
X98257142Y-128309523D01*
G04 #@! TO.C,CN1*
X99309523Y-107357142D02*
X99261904Y-107404761D01*
X99119047Y-107452380D01*
X99023809Y-107452380D01*
X98880952Y-107404761D01*
X98785714Y-107309523D01*
X98738095Y-107214285D01*
X98690476Y-107023809D01*
X98690476Y-106880952D01*
X98738095Y-106690476D01*
X98785714Y-106595238D01*
X98880952Y-106500000D01*
X99023809Y-106452380D01*
X99119047Y-106452380D01*
X99261904Y-106500000D01*
X99309523Y-106547619D01*
X99738095Y-107452380D02*
X99738095Y-106452380D01*
X100309523Y-107452380D01*
X100309523Y-106452380D01*
X101309523Y-107452380D02*
X100738095Y-107452380D01*
X101023809Y-107452380D02*
X101023809Y-106452380D01*
X100928571Y-106595238D01*
X100833333Y-106690476D01*
X100738095Y-106738095D01*
G04 #@! TO.C,CN2*
X97009523Y-133857142D02*
X96961904Y-133904761D01*
X96819047Y-133952380D01*
X96723809Y-133952380D01*
X96580952Y-133904761D01*
X96485714Y-133809523D01*
X96438095Y-133714285D01*
X96390476Y-133523809D01*
X96390476Y-133380952D01*
X96438095Y-133190476D01*
X96485714Y-133095238D01*
X96580952Y-133000000D01*
X96723809Y-132952380D01*
X96819047Y-132952380D01*
X96961904Y-133000000D01*
X97009523Y-133047619D01*
X97438095Y-133952380D02*
X97438095Y-132952380D01*
X98009523Y-133952380D01*
X98009523Y-132952380D01*
X98438095Y-133047619D02*
X98485714Y-133000000D01*
X98580952Y-132952380D01*
X98819047Y-132952380D01*
X98914285Y-133000000D01*
X98961904Y-133047619D01*
X99009523Y-133142857D01*
X99009523Y-133238095D01*
X98961904Y-133380952D01*
X98390476Y-133952380D01*
X99009523Y-133952380D01*
G04 #@! TO.C,R1*
X93948478Y-111809100D02*
X93386999Y-111959464D01*
X93753038Y-112346068D02*
X92813345Y-112004047D01*
X92943639Y-111646069D01*
X93020959Y-111572861D01*
X93081993Y-111544401D01*
X93187775Y-111532227D01*
X93322016Y-111581087D01*
X93395224Y-111658408D01*
X93423685Y-111719441D01*
X93435859Y-111825223D01*
X93305565Y-112183201D01*
X94274212Y-110914155D02*
X94078772Y-111451122D01*
X94176492Y-111182639D02*
X93236799Y-110840618D01*
X93338467Y-110978973D01*
X93395389Y-111101041D01*
X93407563Y-111206822D01*
G04 #@! TO.C,R2*
X92580398Y-115567871D02*
X92018919Y-115718235D01*
X92384958Y-116104839D02*
X91445265Y-115762818D01*
X91575559Y-115404840D01*
X91652879Y-115331632D01*
X91713913Y-115303172D01*
X91819695Y-115290998D01*
X91953936Y-115339858D01*
X92027144Y-115417179D01*
X92055605Y-115478212D01*
X92067779Y-115583994D01*
X91937485Y-115941972D01*
X91860493Y-114900446D02*
X91832033Y-114839412D01*
X91819859Y-114733631D01*
X91901292Y-114509895D01*
X91978613Y-114436687D01*
X92039647Y-114408226D01*
X92145428Y-114396053D01*
X92234923Y-114428626D01*
X92352878Y-114522233D01*
X92694405Y-115254640D01*
X92906132Y-114672926D01*
G04 #@! TO.C,R3*
X91212317Y-119326641D02*
X90650838Y-119477005D01*
X91016877Y-119863609D02*
X90077184Y-119521588D01*
X90207478Y-119163610D01*
X90284798Y-119090402D01*
X90345832Y-119061942D01*
X90451614Y-119049768D01*
X90585855Y-119098628D01*
X90659063Y-119175949D01*
X90687524Y-119236982D01*
X90699698Y-119342764D01*
X90569404Y-119700742D01*
X90386631Y-118671390D02*
X90598358Y-118089676D01*
X90842329Y-118533200D01*
X90891189Y-118398958D01*
X90968510Y-118325750D01*
X91029544Y-118297290D01*
X91135325Y-118285116D01*
X91359062Y-118366549D01*
X91432269Y-118443870D01*
X91460730Y-118504904D01*
X91472904Y-118610685D01*
X91375184Y-118879169D01*
X91297863Y-118952377D01*
X91236829Y-118980837D01*
G04 #@! TO.C,R4*
X89844236Y-123085411D02*
X89282757Y-123235775D01*
X89648796Y-123622379D02*
X88709103Y-123280358D01*
X88839397Y-122922380D01*
X88916717Y-122849172D01*
X88977751Y-122820712D01*
X89083533Y-122808538D01*
X89217774Y-122857398D01*
X89290982Y-122934719D01*
X89319443Y-122995752D01*
X89331617Y-123101534D01*
X89201323Y-123459512D01*
X89510935Y-122051947D02*
X90137396Y-122279961D01*
X89071523Y-122145390D02*
X89661299Y-122613426D01*
X89873025Y-122031712D01*
G04 #@! TO.C,R5*
X88476156Y-126844182D02*
X87914677Y-126994546D01*
X88280716Y-127381150D02*
X87341023Y-127039129D01*
X87471317Y-126681151D01*
X87548637Y-126607943D01*
X87609671Y-126579483D01*
X87715453Y-126567309D01*
X87849694Y-126616169D01*
X87922902Y-126693490D01*
X87951363Y-126754523D01*
X87963537Y-126860305D01*
X87833243Y-127218283D01*
X87845910Y-125651964D02*
X87683044Y-126099437D01*
X88114230Y-126307051D01*
X88085769Y-126246017D01*
X88073595Y-126140236D01*
X88155028Y-125916499D01*
X88232349Y-125843291D01*
X88293383Y-125814831D01*
X88399164Y-125802657D01*
X88622901Y-125884090D01*
X88696108Y-125961411D01*
X88724569Y-126022445D01*
X88736743Y-126128226D01*
X88655310Y-126351962D01*
X88577989Y-126425170D01*
X88516955Y-126453631D01*
G04 #@! TO.C,R6*
X98680085Y-110090766D02*
X98153247Y-110336346D01*
X98580858Y-110653514D02*
X97596050Y-110479865D01*
X97662202Y-110104701D01*
X97725635Y-110019178D01*
X97780800Y-109980552D01*
X97882860Y-109950194D01*
X98023547Y-109975001D01*
X98109069Y-110038434D01*
X98147696Y-110093599D01*
X98178053Y-110195659D01*
X98111902Y-110570824D01*
X97844119Y-109072997D02*
X97811043Y-109260580D01*
X97841401Y-109362640D01*
X97880027Y-109417804D01*
X98004176Y-109536402D01*
X98183490Y-109616374D01*
X98558655Y-109682526D01*
X98660715Y-109652168D01*
X98715879Y-109613541D01*
X98779313Y-109528019D01*
X98812389Y-109340437D01*
X98782031Y-109238376D01*
X98743404Y-109183212D01*
X98657882Y-109119778D01*
X98423404Y-109078433D01*
X98321344Y-109108791D01*
X98266179Y-109147418D01*
X98202746Y-109232940D01*
X98169670Y-109420522D01*
X98200028Y-109522583D01*
X98238654Y-109577747D01*
X98324177Y-109641181D01*
G04 #@! TO.C,R7*
X95541559Y-118676198D02*
X95014721Y-118921778D01*
X95442332Y-119238946D02*
X94457524Y-119065297D01*
X94523676Y-118690133D01*
X94587109Y-118604610D01*
X94642274Y-118565984D01*
X94744334Y-118535626D01*
X94885021Y-118560433D01*
X94970543Y-118623866D01*
X95009170Y-118679031D01*
X95039527Y-118781091D01*
X94973376Y-119156256D01*
X94614634Y-118174281D02*
X94730400Y-117517742D01*
X95640787Y-118113451D01*
G04 #@! TO.C,R8*
X94823653Y-121595892D02*
X94296815Y-121841472D01*
X94724426Y-122158640D02*
X93739618Y-121984991D01*
X93805770Y-121609827D01*
X93869203Y-121524304D01*
X93924368Y-121485678D01*
X94026428Y-121455320D01*
X94167115Y-121480127D01*
X94252637Y-121543560D01*
X94291264Y-121598725D01*
X94321621Y-121700785D01*
X94255470Y-122075950D01*
X94360134Y-120933917D02*
X94296700Y-121019440D01*
X94241536Y-121058066D01*
X94139475Y-121088424D01*
X94092580Y-121080155D01*
X94007058Y-121016722D01*
X93968431Y-120961557D01*
X93938073Y-120859497D01*
X93971149Y-120671914D01*
X94034583Y-120586392D01*
X94089747Y-120547765D01*
X94191807Y-120517408D01*
X94238703Y-120525677D01*
X94324225Y-120589110D01*
X94362852Y-120644275D01*
X94393209Y-120746335D01*
X94360134Y-120933917D01*
X94390491Y-121035978D01*
X94429118Y-121091142D01*
X94514640Y-121154576D01*
X94702223Y-121187652D01*
X94804283Y-121157294D01*
X94859447Y-121118667D01*
X94922881Y-121033145D01*
X94955957Y-120845563D01*
X94925599Y-120743502D01*
X94886972Y-120688338D01*
X94801450Y-120624904D01*
X94613868Y-120591828D01*
X94511808Y-120622186D01*
X94456643Y-120660813D01*
X94393209Y-120746335D01*
G04 #@! TO.C,R9*
X94007266Y-124498221D02*
X93480428Y-124743801D01*
X93908039Y-125060969D02*
X92923231Y-124887320D01*
X92989383Y-124512156D01*
X93052816Y-124426633D01*
X93107981Y-124388007D01*
X93210041Y-124357649D01*
X93350728Y-124382456D01*
X93436250Y-124445889D01*
X93474877Y-124501054D01*
X93505234Y-124603114D01*
X93439083Y-124978279D01*
X94089956Y-124029265D02*
X94123032Y-123841683D01*
X94092674Y-123739623D01*
X94054048Y-123684458D01*
X93929899Y-123565860D01*
X93750585Y-123485888D01*
X93375420Y-123419737D01*
X93273360Y-123450094D01*
X93218196Y-123488721D01*
X93154762Y-123574243D01*
X93121686Y-123761826D01*
X93152044Y-123863886D01*
X93190671Y-123919051D01*
X93276193Y-123982484D01*
X93510671Y-124023829D01*
X93612731Y-123993471D01*
X93667896Y-123954845D01*
X93731329Y-123869322D01*
X93764405Y-123681740D01*
X93734047Y-123579680D01*
X93695421Y-123524515D01*
X93609898Y-123461082D01*
G04 #@! TO.C,R10*
X93229985Y-128906408D02*
X92703146Y-129151988D01*
X93130757Y-129469156D02*
X92145950Y-129295507D01*
X92212101Y-128920343D01*
X92275535Y-128834820D01*
X92330699Y-128796194D01*
X92432759Y-128765836D01*
X92573446Y-128790643D01*
X92658969Y-128854076D01*
X92697595Y-128909241D01*
X92727953Y-129011301D01*
X92661801Y-129386466D01*
X93395364Y-127968496D02*
X93296136Y-128531243D01*
X93345750Y-128249870D02*
X92360942Y-128076222D01*
X92485091Y-128194820D01*
X92562345Y-128305149D01*
X92592702Y-128407209D01*
X92518053Y-127185205D02*
X92534591Y-127091414D01*
X92598024Y-127005892D01*
X92653189Y-126967265D01*
X92755249Y-126936907D01*
X92951100Y-126923088D01*
X93185578Y-126964432D01*
X93364892Y-127044404D01*
X93450414Y-127107837D01*
X93489041Y-127163002D01*
X93519398Y-127265062D01*
X93502861Y-127358853D01*
X93439427Y-127444376D01*
X93384262Y-127483002D01*
X93282202Y-127513360D01*
X93086351Y-127527180D01*
X92851873Y-127485835D01*
X92672559Y-127405863D01*
X92587037Y-127342430D01*
X92548410Y-127287265D01*
X92518053Y-127185205D01*
G04 #@! TO.C,R11*
X100452380Y-110642857D02*
X99976190Y-110976190D01*
X100452380Y-111214285D02*
X99452380Y-111214285D01*
X99452380Y-110833333D01*
X99500000Y-110738095D01*
X99547619Y-110690476D01*
X99642857Y-110642857D01*
X99785714Y-110642857D01*
X99880952Y-110690476D01*
X99928571Y-110738095D01*
X99976190Y-110833333D01*
X99976190Y-111214285D01*
X100452380Y-109690476D02*
X100452380Y-110261904D01*
X100452380Y-109976190D02*
X99452380Y-109976190D01*
X99595238Y-110071428D01*
X99690476Y-110166666D01*
X99738095Y-110261904D01*
X100452380Y-108738095D02*
X100452380Y-109309523D01*
X100452380Y-109023809D02*
X99452380Y-109023809D01*
X99595238Y-109119047D01*
X99690476Y-109214285D01*
X99738095Y-109309523D01*
G04 #@! TO.C,R12*
X98852380Y-119642857D02*
X98376190Y-119976190D01*
X98852380Y-120214285D02*
X97852380Y-120214285D01*
X97852380Y-119833333D01*
X97900000Y-119738095D01*
X97947619Y-119690476D01*
X98042857Y-119642857D01*
X98185714Y-119642857D01*
X98280952Y-119690476D01*
X98328571Y-119738095D01*
X98376190Y-119833333D01*
X98376190Y-120214285D01*
X98852380Y-118690476D02*
X98852380Y-119261904D01*
X98852380Y-118976190D02*
X97852380Y-118976190D01*
X97995238Y-119071428D01*
X98090476Y-119166666D01*
X98138095Y-119261904D01*
X97947619Y-118309523D02*
X97900000Y-118261904D01*
X97852380Y-118166666D01*
X97852380Y-117928571D01*
X97900000Y-117833333D01*
X97947619Y-117785714D01*
X98042857Y-117738095D01*
X98138095Y-117738095D01*
X98280952Y-117785714D01*
X98852380Y-118357142D01*
X98852380Y-117738095D01*
G04 #@! TO.C,R13*
X98652380Y-122642857D02*
X98176190Y-122976190D01*
X98652380Y-123214285D02*
X97652380Y-123214285D01*
X97652380Y-122833333D01*
X97700000Y-122738095D01*
X97747619Y-122690476D01*
X97842857Y-122642857D01*
X97985714Y-122642857D01*
X98080952Y-122690476D01*
X98128571Y-122738095D01*
X98176190Y-122833333D01*
X98176190Y-123214285D01*
X98652380Y-121690476D02*
X98652380Y-122261904D01*
X98652380Y-121976190D02*
X97652380Y-121976190D01*
X97795238Y-122071428D01*
X97890476Y-122166666D01*
X97938095Y-122261904D01*
X97652380Y-121357142D02*
X97652380Y-120738095D01*
X98033333Y-121071428D01*
X98033333Y-120928571D01*
X98080952Y-120833333D01*
X98128571Y-120785714D01*
X98223809Y-120738095D01*
X98461904Y-120738095D01*
X98557142Y-120785714D01*
X98604761Y-120833333D01*
X98652380Y-120928571D01*
X98652380Y-121214285D01*
X98604761Y-121309523D01*
X98557142Y-121357142D01*
G04 #@! TO.C,R14*
X98352380Y-125642857D02*
X97876190Y-125976190D01*
X98352380Y-126214285D02*
X97352380Y-126214285D01*
X97352380Y-125833333D01*
X97400000Y-125738095D01*
X97447619Y-125690476D01*
X97542857Y-125642857D01*
X97685714Y-125642857D01*
X97780952Y-125690476D01*
X97828571Y-125738095D01*
X97876190Y-125833333D01*
X97876190Y-126214285D01*
X98352380Y-124690476D02*
X98352380Y-125261904D01*
X98352380Y-124976190D02*
X97352380Y-124976190D01*
X97495238Y-125071428D01*
X97590476Y-125166666D01*
X97638095Y-125261904D01*
X97685714Y-123833333D02*
X98352380Y-123833333D01*
X97304761Y-124071428D02*
X98019047Y-124309523D01*
X98019047Y-123690476D01*
G04 #@! TO.C,R16*
X101179341Y-109293541D02*
X101590415Y-108882582D01*
X101080114Y-108730794D02*
X102064921Y-108557145D01*
X102131073Y-108932310D01*
X102100715Y-109034370D01*
X102062089Y-109089535D01*
X101976567Y-109152969D01*
X101835880Y-109177775D01*
X101733820Y-109147418D01*
X101678655Y-109108791D01*
X101615221Y-109023269D01*
X101549070Y-108648104D01*
X101344720Y-110231453D02*
X101245493Y-109668706D01*
X101295107Y-109950079D02*
X102279914Y-109776431D01*
X102122690Y-109707447D01*
X102012361Y-109630194D01*
X101948927Y-109544671D01*
X102478370Y-110901926D02*
X102445294Y-110714343D01*
X102381860Y-110628821D01*
X102326696Y-110590194D01*
X102169471Y-110521210D01*
X101973619Y-110507390D01*
X101598455Y-110573542D01*
X101512932Y-110636976D01*
X101474306Y-110692140D01*
X101443948Y-110794200D01*
X101477024Y-110981783D01*
X101540457Y-111067305D01*
X101595622Y-111105932D01*
X101697682Y-111136289D01*
X101932160Y-111094945D01*
X102017682Y-111031511D01*
X102056309Y-110976346D01*
X102086667Y-110874286D01*
X102053591Y-110686704D01*
X101990157Y-110601182D01*
X101934993Y-110562555D01*
X101832933Y-110532197D01*
G04 #@! TO.C,R17*
X104317867Y-117878973D02*
X104728941Y-117468014D01*
X104218640Y-117316226D02*
X105203447Y-117142577D01*
X105269599Y-117517742D01*
X105239241Y-117619802D01*
X105200615Y-117674967D01*
X105115093Y-117738401D01*
X104974406Y-117763207D01*
X104872346Y-117732850D01*
X104817181Y-117694223D01*
X104753747Y-117608701D01*
X104687596Y-117233536D01*
X104483246Y-118816885D02*
X104384019Y-118254138D01*
X104433633Y-118535511D02*
X105418440Y-118361863D01*
X105261216Y-118292879D01*
X105150887Y-118215626D01*
X105087453Y-118130103D01*
X105525937Y-118971506D02*
X105641702Y-119628045D01*
X104582474Y-119379632D01*
G04 #@! TO.C,R18*
X105035773Y-120798667D02*
X105446847Y-120387708D01*
X104936546Y-120235920D02*
X105921353Y-120062271D01*
X105987505Y-120437436D01*
X105957147Y-120539496D01*
X105918521Y-120594661D01*
X105832999Y-120658095D01*
X105692312Y-120682901D01*
X105590252Y-120652544D01*
X105535087Y-120613917D01*
X105471653Y-120528395D01*
X105405502Y-120153230D01*
X105201152Y-121736579D02*
X105101925Y-121173832D01*
X105151539Y-121455205D02*
X106136346Y-121281557D01*
X105979122Y-121212573D01*
X105868793Y-121135320D01*
X105805359Y-121049797D01*
X105863127Y-122200099D02*
X105893485Y-122098039D01*
X105932112Y-122042874D01*
X106017634Y-121979441D01*
X106064529Y-121971172D01*
X106166590Y-122001529D01*
X106221754Y-122040156D01*
X106285188Y-122125678D01*
X106318264Y-122313261D01*
X106287906Y-122415321D01*
X106249279Y-122470485D01*
X106163757Y-122533919D01*
X106116861Y-122542188D01*
X106014801Y-122511830D01*
X105959637Y-122473204D01*
X105896203Y-122387681D01*
X105863127Y-122200099D01*
X105799694Y-122114577D01*
X105744529Y-122075950D01*
X105642469Y-122045592D01*
X105454887Y-122078668D01*
X105369364Y-122142102D01*
X105330738Y-122197266D01*
X105300380Y-122299326D01*
X105333456Y-122486909D01*
X105396889Y-122572431D01*
X105452054Y-122611058D01*
X105554114Y-122641415D01*
X105741697Y-122608340D01*
X105827219Y-122544906D01*
X105865845Y-122489741D01*
X105896203Y-122387681D01*
G04 #@! TO.C,R19*
X105852160Y-123700996D02*
X106263234Y-123290037D01*
X105752933Y-123138249D02*
X106737740Y-122964600D01*
X106803892Y-123339765D01*
X106773534Y-123441825D01*
X106734908Y-123496990D01*
X106649386Y-123560424D01*
X106508699Y-123585230D01*
X106406639Y-123554873D01*
X106351474Y-123516246D01*
X106288040Y-123430724D01*
X106221889Y-123055559D01*
X106017539Y-124638908D02*
X105918312Y-124076161D01*
X105967926Y-124357534D02*
X106952733Y-124183886D01*
X106795509Y-124114902D01*
X106685180Y-124037649D01*
X106621746Y-123952126D01*
X106100229Y-125107864D02*
X106133305Y-125295447D01*
X106196738Y-125380969D01*
X106251903Y-125419595D01*
X106409128Y-125488580D01*
X106604979Y-125502400D01*
X106980144Y-125436248D01*
X107065666Y-125372814D01*
X107104293Y-125317650D01*
X107134651Y-125215590D01*
X107101575Y-125028007D01*
X107038141Y-124942485D01*
X106982977Y-124903858D01*
X106880916Y-124873501D01*
X106646438Y-124914845D01*
X106560916Y-124978279D01*
X106522290Y-125033444D01*
X106491932Y-125135504D01*
X106525008Y-125323086D01*
X106588441Y-125408608D01*
X106643606Y-125447235D01*
X106745666Y-125477593D01*
G04 #@! TO.C,R20*
X106546752Y-127640227D02*
X106957826Y-127229268D01*
X106447525Y-127077480D02*
X107432332Y-126903831D01*
X107498484Y-127278996D01*
X107468126Y-127381056D01*
X107429500Y-127436221D01*
X107343978Y-127499655D01*
X107203291Y-127524461D01*
X107101231Y-127494104D01*
X107046066Y-127455477D01*
X106982632Y-127369955D01*
X106916481Y-126994790D01*
X107503920Y-127858282D02*
X107559085Y-127896908D01*
X107622519Y-127982430D01*
X107663863Y-128216908D01*
X107633506Y-128318969D01*
X107594879Y-128374133D01*
X107509357Y-128437567D01*
X107415566Y-128454105D01*
X107266610Y-128432016D01*
X106604635Y-127968496D01*
X106712131Y-128578139D01*
X107804436Y-129014134D02*
X107820974Y-129107925D01*
X107790616Y-129209985D01*
X107751989Y-129265150D01*
X107666467Y-129328583D01*
X107487154Y-129408555D01*
X107252676Y-129449900D01*
X107056824Y-129436080D01*
X106954764Y-129405722D01*
X106899599Y-129367095D01*
X106836166Y-129281573D01*
X106819628Y-129187782D01*
X106849986Y-129085722D01*
X106888612Y-129030557D01*
X106974135Y-128967124D01*
X107153448Y-128887152D01*
X107387926Y-128845807D01*
X107583777Y-128859627D01*
X107685838Y-128889985D01*
X107741002Y-128928612D01*
X107804436Y-129014134D01*
G04 #@! TO.C,R21*
X105774647Y-111048397D02*
X106108113Y-110572299D01*
X105579207Y-110511430D02*
X106518900Y-110169409D01*
X106649193Y-110527388D01*
X106637019Y-110633169D01*
X106608559Y-110694203D01*
X106535351Y-110771523D01*
X106401109Y-110820383D01*
X106295328Y-110808209D01*
X106234294Y-110779749D01*
X106156973Y-110706541D01*
X106026680Y-110348563D01*
X106755139Y-111096928D02*
X106816173Y-111125389D01*
X106893493Y-111198597D01*
X106974927Y-111422333D01*
X106962753Y-111528114D01*
X106934292Y-111589148D01*
X106861084Y-111666469D01*
X106771590Y-111699042D01*
X106621061Y-111703155D01*
X105888654Y-111361628D01*
X106100381Y-111943342D01*
X106426114Y-112838287D02*
X106230674Y-112301320D01*
X106328394Y-112569804D02*
X107268087Y-112227784D01*
X107101272Y-112187149D01*
X106979204Y-112130228D01*
X106901883Y-112057020D01*
G04 #@! TO.C,R22*
X107142727Y-114807168D02*
X107476193Y-114331070D01*
X106947287Y-114270201D02*
X107886980Y-113928180D01*
X108017273Y-114286159D01*
X108005099Y-114391940D01*
X107976639Y-114452974D01*
X107903431Y-114530294D01*
X107769189Y-114579154D01*
X107663408Y-114566980D01*
X107602374Y-114538520D01*
X107525053Y-114465312D01*
X107394760Y-114107334D01*
X108123219Y-114855699D02*
X108184253Y-114884160D01*
X108261573Y-114957368D01*
X108343007Y-115181104D01*
X108330833Y-115286885D01*
X108302372Y-115347919D01*
X108229164Y-115425240D01*
X108139670Y-115457813D01*
X107989141Y-115461926D01*
X107256734Y-115120399D01*
X107468461Y-115702113D01*
X108448952Y-115750644D02*
X108509986Y-115779105D01*
X108587307Y-115852313D01*
X108668740Y-116076049D01*
X108656566Y-116181830D01*
X108628106Y-116242864D01*
X108554898Y-116320185D01*
X108465403Y-116352758D01*
X108314875Y-116356871D01*
X107582468Y-116015344D01*
X107794194Y-116597058D01*
G04 #@! TO.C,R23*
X108510808Y-118565938D02*
X108844274Y-118089840D01*
X108315368Y-118028971D02*
X109255061Y-117686950D01*
X109385354Y-118044929D01*
X109373180Y-118150710D01*
X109344720Y-118211744D01*
X109271512Y-118289064D01*
X109137270Y-118337924D01*
X109031489Y-118325750D01*
X108970455Y-118297290D01*
X108893134Y-118224082D01*
X108762841Y-117866104D01*
X109491300Y-118614469D02*
X109552334Y-118642930D01*
X109629654Y-118716138D01*
X109711088Y-118939874D01*
X109698914Y-119045655D01*
X109670453Y-119106689D01*
X109597245Y-119184010D01*
X109507751Y-119216583D01*
X109357222Y-119220696D01*
X108624815Y-118879169D01*
X108836542Y-119460883D01*
X109890241Y-119432094D02*
X110101968Y-120013808D01*
X109629983Y-119830871D01*
X109678843Y-119965113D01*
X109666669Y-120070894D01*
X109638209Y-120131928D01*
X109565001Y-120209248D01*
X109341264Y-120290682D01*
X109235483Y-120278508D01*
X109174449Y-120250047D01*
X109097129Y-120176839D01*
X108999409Y-119908356D01*
X109011582Y-119802575D01*
X109040043Y-119741541D01*
G04 #@! TO.C,R24*
X109878889Y-122324708D02*
X110212355Y-121848610D01*
X109683449Y-121787741D02*
X110623142Y-121445720D01*
X110753435Y-121803699D01*
X110741261Y-121909480D01*
X110712801Y-121970514D01*
X110639593Y-122047834D01*
X110505351Y-122096694D01*
X110399570Y-122084520D01*
X110338536Y-122056060D01*
X110261215Y-121982852D01*
X110130922Y-121624874D01*
X110859381Y-122373239D02*
X110920415Y-122401700D01*
X110997735Y-122474908D01*
X111079169Y-122698644D01*
X111066995Y-122804425D01*
X111038534Y-122865459D01*
X110965326Y-122942780D01*
X110875832Y-122975353D01*
X110725303Y-122979466D01*
X109992896Y-122637939D01*
X110204623Y-123219653D01*
X111124245Y-123797091D02*
X110497783Y-124025104D01*
X111400789Y-123443061D02*
X110648147Y-123463625D01*
X110859874Y-124045339D01*
G04 #@! TO.C,R25*
X111246969Y-126083479D02*
X111580435Y-125607381D01*
X111051529Y-125546512D02*
X111991222Y-125204491D01*
X112121515Y-125562470D01*
X112109341Y-125668251D01*
X112080881Y-125729285D01*
X112007673Y-125806605D01*
X111873431Y-125855465D01*
X111767650Y-125843291D01*
X111706616Y-125814831D01*
X111629295Y-125741623D01*
X111499002Y-125383645D01*
X112227461Y-126132010D02*
X112288495Y-126160471D01*
X112365815Y-126233679D01*
X112447249Y-126457415D01*
X112435075Y-126563196D01*
X112406614Y-126624230D01*
X112333406Y-126701551D01*
X112243912Y-126734124D01*
X112093383Y-126738237D01*
X111360976Y-126396710D01*
X111572703Y-126978424D01*
X112821842Y-127486602D02*
X112658976Y-127039129D01*
X112195216Y-127157249D01*
X112256250Y-127185709D01*
X112333571Y-127258917D01*
X112415004Y-127482654D01*
X112402830Y-127588435D01*
X112374370Y-127649469D01*
X112301162Y-127726789D01*
X112077425Y-127808223D01*
X111971644Y-127796049D01*
X111910610Y-127767588D01*
X111833290Y-127694380D01*
X111751856Y-127470644D01*
X111764030Y-127364863D01*
X111792491Y-127303829D01*
G04 #@! TO.C,R51*
X100557142Y-131752380D02*
X100223809Y-131276190D01*
X99985714Y-131752380D02*
X99985714Y-130752380D01*
X100366666Y-130752380D01*
X100461904Y-130800000D01*
X100509523Y-130847619D01*
X100557142Y-130942857D01*
X100557142Y-131085714D01*
X100509523Y-131180952D01*
X100461904Y-131228571D01*
X100366666Y-131276190D01*
X99985714Y-131276190D01*
X101461904Y-130752380D02*
X100985714Y-130752380D01*
X100938095Y-131228571D01*
X100985714Y-131180952D01*
X101080952Y-131133333D01*
X101319047Y-131133333D01*
X101414285Y-131180952D01*
X101461904Y-131228571D01*
X101509523Y-131323809D01*
X101509523Y-131561904D01*
X101461904Y-131657142D01*
X101414285Y-131704761D01*
X101319047Y-131752380D01*
X101080952Y-131752380D01*
X100985714Y-131704761D01*
X100938095Y-131657142D01*
X102461904Y-131752380D02*
X101890476Y-131752380D01*
X102176190Y-131752380D02*
X102176190Y-130752380D01*
X102080952Y-130895238D01*
X101985714Y-130990476D01*
X101890476Y-131038095D01*
G04 #@! TD*
M02*
