G04 #@! TF.FileFunction,Copper,L1,Top,Signal*
%FSLAX46Y46*%
G04 Gerber Fmt 4.6, Leading zero omitted, Abs format (unit mm)*
G04 Created by KiCad (PCBNEW 4.0.2+dfsg1-stable) date Mo 16 Jul 2018 11:21:53 CEST*
%MOMM*%
G01*
G04 APERTURE LIST*
%ADD10C,0.100000*%
%ADD11C,0.300000*%
%ADD12R,1.000000X1.600000*%
%ADD13R,1.600000X1.000000*%
%ADD14R,1.650000X5.600000*%
%ADD15R,0.900000X5.600000*%
%ADD16C,1.600000*%
%ADD17R,5.160000X1.480000*%
%ADD18R,1.480000X5.160000*%
%ADD19R,0.900000X1.700000*%
%ADD20R,1.700000X0.900000*%
%ADD21R,1.800000X3.600000*%
%ADD22R,3.600000X1.800000*%
%ADD23R,1.390000X4.600000*%
%ADD24R,10.800000X9.400000*%
%ADD25R,0.600000X1.550000*%
%ADD26R,1.597660X1.800860*%
%ADD27R,0.800100X0.800100*%
%ADD28C,3.400000*%
%ADD29C,1.524000*%
%ADD30C,1.700000*%
%ADD31C,2.200000*%
%ADD32R,1.727200X2.032000*%
%ADD33O,1.727200X2.032000*%
%ADD34R,2.032000X2.032000*%
%ADD35O,2.032000X2.032000*%
%ADD36R,3.500120X2.400300*%
%ADD37C,1.100000*%
%ADD38C,0.400000*%
%ADD39C,1.000000*%
%ADD40C,2.000000*%
%ADD41C,0.254000*%
G04 APERTURE END LIST*
D10*
D11*
X58121429Y-122478571D02*
X58907143Y-121478571D01*
X58121429Y-121478571D02*
X58907143Y-122478571D01*
X60264286Y-122478571D02*
X59407143Y-122478571D01*
X59835715Y-122478571D02*
X59835715Y-120978571D01*
X59692858Y-121192857D01*
X59550000Y-121335714D01*
X59407143Y-121407143D01*
X60907143Y-122335714D02*
X60978571Y-122407143D01*
X60907143Y-122478571D01*
X60835714Y-122407143D01*
X60907143Y-122335714D01*
X60907143Y-122478571D01*
X62407143Y-122478571D02*
X61550000Y-122478571D01*
X61978572Y-122478571D02*
X61978572Y-120978571D01*
X61835715Y-121192857D01*
X61692857Y-121335714D01*
X61550000Y-121407143D01*
X58078572Y-118750000D02*
X58792858Y-118750000D01*
X57935715Y-119178571D02*
X58435715Y-117678571D01*
X58935715Y-119178571D01*
X59435715Y-119178571D02*
X59435715Y-118178571D01*
X59435715Y-118464286D02*
X59507143Y-118321429D01*
X59578572Y-118250000D01*
X59721429Y-118178571D01*
X59864286Y-118178571D01*
X61007143Y-119178571D02*
X61007143Y-117678571D01*
X61007143Y-119107143D02*
X60864286Y-119178571D01*
X60578572Y-119178571D01*
X60435714Y-119107143D01*
X60364286Y-119035714D01*
X60292857Y-118892857D01*
X60292857Y-118464286D01*
X60364286Y-118321429D01*
X60435714Y-118250000D01*
X60578572Y-118178571D01*
X60864286Y-118178571D01*
X61007143Y-118250000D01*
X62364286Y-118178571D02*
X62364286Y-119178571D01*
X61721429Y-118178571D02*
X61721429Y-118964286D01*
X61792857Y-119107143D01*
X61935715Y-119178571D01*
X62150000Y-119178571D01*
X62292857Y-119107143D01*
X62364286Y-119035714D01*
X62864286Y-117678571D02*
X63721429Y-117678571D01*
X63292858Y-119178571D02*
X63292858Y-117678571D01*
X64221429Y-119178571D02*
X64221429Y-118178571D01*
X64221429Y-118464286D02*
X64292857Y-118321429D01*
X64364286Y-118250000D01*
X64507143Y-118178571D01*
X64650000Y-118178571D01*
X65007143Y-119178571D02*
X65792857Y-118178571D01*
X65007143Y-118178571D02*
X65792857Y-119178571D01*
D12*
X59500000Y-89700000D03*
X56500000Y-89700000D03*
X59500000Y-95200000D03*
X56500000Y-95200000D03*
X59500000Y-105000000D03*
X56500000Y-105000000D03*
X59500000Y-109500000D03*
X56500000Y-109500000D03*
D13*
X100100000Y-87300000D03*
X100100000Y-84300000D03*
D12*
X107000000Y-122600000D03*
X104000000Y-122600000D03*
X102200000Y-124900000D03*
X99200000Y-124900000D03*
D13*
X95000000Y-120800000D03*
X95000000Y-123800000D03*
X92400000Y-120800000D03*
X92400000Y-123800000D03*
D12*
X98800000Y-93700000D03*
X95800000Y-93700000D03*
D13*
X117500000Y-92900000D03*
X117500000Y-95900000D03*
D12*
X119500000Y-99100000D03*
X122500000Y-99100000D03*
X115800000Y-90500000D03*
X118800000Y-90500000D03*
D14*
X57175000Y-79800000D03*
X65425000Y-79800000D03*
D15*
X61300000Y-79800000D03*
D16*
X105500000Y-127460000D03*
X108040000Y-127460000D03*
X110580000Y-127460000D03*
X113120000Y-127460000D03*
X115660000Y-127460000D03*
X118200000Y-127460000D03*
X82640000Y-127460000D03*
X85180000Y-127460000D03*
X87720000Y-127460000D03*
X90260000Y-127460000D03*
X92800000Y-127460000D03*
X95340000Y-127460000D03*
X97880000Y-127460000D03*
X100420000Y-127460000D03*
X100420000Y-79200000D03*
X102960000Y-79200000D03*
X105500000Y-79200000D03*
X108040000Y-79200000D03*
X110580000Y-79200000D03*
X113120000Y-79200000D03*
X115660000Y-79200000D03*
X73496000Y-79200000D03*
X76036000Y-79200000D03*
X78576000Y-79200000D03*
X81116000Y-79200000D03*
X83656000Y-79200000D03*
X86196000Y-79200000D03*
X88736000Y-79200000D03*
X91276000Y-79200000D03*
X93816000Y-79200000D03*
X96356000Y-79200000D03*
X118200000Y-79200000D03*
D17*
X65710000Y-93965000D03*
X63090000Y-89635000D03*
D18*
X61335000Y-100910000D03*
X65665000Y-98290000D03*
D17*
X65810000Y-109465000D03*
X63190000Y-105135000D03*
D19*
X134450000Y-82500000D03*
X131550000Y-82500000D03*
X97550000Y-113400000D03*
X94650000Y-113400000D03*
X101150000Y-115900000D03*
X98250000Y-115900000D03*
D20*
X105100000Y-84350000D03*
X105100000Y-87250000D03*
X107600000Y-84250000D03*
X107600000Y-87150000D03*
D19*
X134450000Y-86000000D03*
X131550000Y-86000000D03*
X134450000Y-79000000D03*
X131550000Y-79000000D03*
X97550000Y-107400000D03*
X94650000Y-107400000D03*
X100950000Y-110800000D03*
X98050000Y-110800000D03*
X97450000Y-101300000D03*
X94550000Y-101300000D03*
X100950000Y-104800000D03*
X98050000Y-104800000D03*
D20*
X110900000Y-85950000D03*
X110900000Y-83050000D03*
X102600000Y-84350000D03*
X102600000Y-87250000D03*
X97600000Y-87250000D03*
X97600000Y-84350000D03*
X98500000Y-122750000D03*
X98500000Y-119850000D03*
D19*
X98750000Y-96200000D03*
X95850000Y-96200000D03*
D20*
X101100000Y-119850000D03*
X101100000Y-122750000D03*
X72800000Y-128250000D03*
X72800000Y-125350000D03*
X107600000Y-97250000D03*
X107600000Y-94350000D03*
D19*
X103550000Y-93700000D03*
X100650000Y-93700000D03*
X118750000Y-88000000D03*
X115850000Y-88000000D03*
X114050000Y-88100000D03*
X111150000Y-88100000D03*
D20*
X124000000Y-96650000D03*
X124000000Y-93750000D03*
D21*
X87900000Y-118500000D03*
X83300000Y-118500000D03*
X74100000Y-118500000D03*
X78700000Y-118500000D03*
D22*
X90000000Y-87350000D03*
X90000000Y-91800000D03*
X90000000Y-96250000D03*
X90000000Y-100700000D03*
X90000000Y-105150000D03*
X90000000Y-109600000D03*
X72000000Y-87350000D03*
X72000000Y-91800000D03*
X72000000Y-96250000D03*
X72000000Y-100700000D03*
X72000000Y-105150000D03*
X72000000Y-109600000D03*
X72000000Y-114050000D03*
X90000000Y-114050000D03*
D23*
X109900000Y-117600000D03*
D24*
X109900000Y-108450000D03*
D23*
X112440000Y-117600000D03*
X107360000Y-117600000D03*
D25*
X113908500Y-93195500D03*
X112638500Y-93195500D03*
X111368500Y-93195500D03*
X110098500Y-93195500D03*
X110098500Y-98595500D03*
X111368500Y-98595500D03*
X112638500Y-98595500D03*
X113908500Y-98595500D03*
D26*
X139419860Y-82500000D03*
X136580140Y-82500000D03*
X139419860Y-86000000D03*
X136580140Y-86000000D03*
X139419860Y-79000000D03*
X136580140Y-79000000D03*
D27*
X96500760Y-117450000D03*
X96500760Y-115550000D03*
X94501780Y-116500000D03*
X96500760Y-111350000D03*
X96500760Y-109450000D03*
X94501780Y-110400000D03*
X96500760Y-105350000D03*
X96500760Y-103450000D03*
X94501780Y-104400000D03*
D20*
X118700000Y-111450000D03*
X118700000Y-114350000D03*
X121900000Y-111450000D03*
X121900000Y-114350000D03*
X124400000Y-111450000D03*
X124400000Y-114350000D03*
D28*
X131600000Y-128000000D03*
X131600000Y-115600000D03*
D29*
X138600000Y-119300000D03*
X124100000Y-124300000D03*
X138600000Y-124300000D03*
X124100000Y-121800000D03*
X124100000Y-119300000D03*
D12*
X117100000Y-83900000D03*
X114100000Y-83900000D03*
D19*
X139550000Y-89100000D03*
X136650000Y-89100000D03*
D30*
X129500000Y-95000000D03*
X136500000Y-95000000D03*
D31*
X127000000Y-98200000D03*
X127000000Y-91800000D03*
X135000000Y-91800000D03*
X135000000Y-98200000D03*
D30*
X132000000Y-108850000D03*
X136000000Y-105150000D03*
X137300000Y-108850000D03*
D16*
X122800000Y-83100000D03*
X129800000Y-83100000D03*
X128550000Y-80600000D03*
X124050000Y-80600000D03*
D20*
X64400000Y-93250000D03*
X64400000Y-90350000D03*
D19*
X62050000Y-99600000D03*
X64950000Y-99600000D03*
D20*
X64500000Y-108750000D03*
X64500000Y-105850000D03*
D32*
X58200000Y-127300000D03*
D33*
X60740000Y-127300000D03*
X63280000Y-127300000D03*
D34*
X116700000Y-101300000D03*
D35*
X116700000Y-98760000D03*
D36*
X120848800Y-105400000D03*
X127351200Y-105400000D03*
D37*
X57300000Y-85200000D03*
X65500000Y-85100000D03*
X130100000Y-110600000D03*
X130100000Y-101500000D03*
X78200000Y-129100000D03*
X103200000Y-129000000D03*
X112100000Y-91400000D03*
X112000000Y-125000000D03*
X101200000Y-98600000D03*
X101100000Y-81900000D03*
X99800000Y-81100000D03*
X99900000Y-99400000D03*
X98000000Y-80000000D03*
X98000000Y-99400000D03*
D38*
X65425000Y-79800000D02*
X65425000Y-85025000D01*
X57225000Y-85125000D02*
X57175000Y-85125000D01*
X57300000Y-85200000D02*
X57225000Y-85125000D01*
X65425000Y-85025000D02*
X65500000Y-85100000D01*
X57175000Y-85125000D02*
X57175000Y-79800000D01*
X57175000Y-79800000D02*
X57175000Y-85125000D01*
X57175000Y-85125000D02*
X57100000Y-85200000D01*
X129800000Y-83100000D02*
X129800000Y-84250000D01*
X129800000Y-84250000D02*
X131550000Y-86000000D01*
X128550000Y-80600000D02*
X128550000Y-81850000D01*
X128550000Y-81850000D02*
X129800000Y-83100000D01*
X122800000Y-83100000D02*
X129800000Y-83100000D01*
X95340000Y-127460000D02*
X95340000Y-124140000D01*
X95340000Y-124140000D02*
X95000000Y-123800000D01*
X97880000Y-127460000D02*
X95340000Y-127460000D01*
X92400000Y-123800000D02*
X89400000Y-123800000D01*
X95000000Y-123800000D02*
X92400000Y-123800000D01*
X97880000Y-127460000D02*
X97880000Y-127980000D01*
X97880000Y-127980000D02*
X98900000Y-129000000D01*
X108900000Y-125900000D02*
X111200000Y-123600000D01*
X104500000Y-125900000D02*
X108900000Y-125900000D01*
X101400000Y-129000000D02*
X104500000Y-125900000D01*
X98900000Y-129000000D02*
X101400000Y-129000000D01*
X99200000Y-124900000D02*
X96100000Y-124900000D01*
X96100000Y-124900000D02*
X95000000Y-123800000D01*
X101800000Y-122750000D02*
X101650000Y-122750000D01*
X101650000Y-122750000D02*
X99500000Y-124900000D01*
X99500000Y-124900000D02*
X99200000Y-124900000D01*
X104000000Y-122600000D02*
X101950000Y-122600000D01*
X101950000Y-122600000D02*
X101800000Y-122750000D01*
X83800000Y-83199994D02*
X68824994Y-83199994D01*
X68824994Y-83199994D02*
X65425000Y-79800000D01*
X89600000Y-83199994D02*
X83800000Y-83199994D01*
X88900000Y-83199994D02*
X89600000Y-83199994D01*
X89600000Y-83199994D02*
X94299994Y-83199994D01*
X94299994Y-83199994D02*
X94900000Y-83800000D01*
X88900000Y-83199994D02*
X89000000Y-83199994D01*
X97600000Y-84350000D02*
X95450000Y-84350000D01*
X95450000Y-84350000D02*
X94900000Y-83800000D01*
X117500000Y-113000000D02*
X132600000Y-113000000D01*
X132600000Y-113000000D02*
X132550000Y-112950000D01*
X116300000Y-114200000D02*
X117500000Y-113000000D01*
X116300000Y-118500000D02*
X116300000Y-114200000D01*
X111200000Y-123600000D02*
X116300000Y-118500000D01*
X118800000Y-90500000D02*
X123200000Y-90500000D01*
X123100000Y-90600000D02*
X123200000Y-90600000D01*
X123200000Y-90500000D02*
X123100000Y-90600000D01*
X117500000Y-95900000D02*
X117500000Y-96300000D01*
X117500000Y-96300000D02*
X117200000Y-96600000D01*
X123200000Y-90600000D02*
X123200000Y-88700000D01*
X123200000Y-88700000D02*
X125900000Y-86000000D01*
X125900000Y-86000000D02*
X131550000Y-86000000D01*
X136000000Y-105150000D02*
X134000000Y-105150000D01*
X133900000Y-105200000D02*
X134000000Y-105200000D01*
X133950000Y-105200000D02*
X133900000Y-105200000D01*
X134000000Y-105150000D02*
X133950000Y-105200000D01*
X137300000Y-108850000D02*
X134650000Y-108850000D01*
X134650000Y-108850000D02*
X134000000Y-109500000D01*
X138600000Y-119300000D02*
X138600000Y-119000000D01*
X138600000Y-119000000D02*
X132550000Y-112950000D01*
X134000000Y-105200000D02*
X134000000Y-109500000D01*
X134000000Y-111500000D02*
X132550000Y-112950000D01*
X134000000Y-109500000D02*
X134000000Y-111500000D01*
X112638500Y-98595500D02*
X112638500Y-97361500D01*
X113400000Y-96600000D02*
X117200000Y-96600000D01*
X112638500Y-97361500D02*
X113400000Y-96600000D01*
X78700000Y-118500000D02*
X78700000Y-114400000D01*
X79100000Y-114100000D02*
X79100000Y-114000000D01*
X79000000Y-114100000D02*
X79100000Y-114100000D01*
X78700000Y-114400000D02*
X79000000Y-114100000D01*
X83300000Y-118500000D02*
X83300000Y-112500000D01*
X83300000Y-112500000D02*
X83500000Y-112300000D01*
X83300000Y-118500000D02*
X83300000Y-123100000D01*
X83300000Y-123100000D02*
X84000000Y-123800000D01*
X89400000Y-123800000D02*
X84000000Y-123800000D01*
X84000000Y-123800000D02*
X78700000Y-118500000D01*
X83500000Y-112300000D02*
X80800000Y-112300000D01*
X80800000Y-112300000D02*
X79100000Y-114000000D01*
X56500000Y-105000000D02*
X56500000Y-95200000D01*
X56500000Y-109500000D02*
X56500000Y-111500000D01*
X56500000Y-111500000D02*
X56500000Y-113400000D01*
X56500000Y-105000000D02*
X56500000Y-109500000D01*
X56500000Y-89700000D02*
X56500000Y-80475000D01*
X56500000Y-80475000D02*
X57175000Y-79800000D01*
X56500000Y-89700000D02*
X56500000Y-113400000D01*
X56500000Y-113400000D02*
X56500000Y-125600000D01*
X56500000Y-125600000D02*
X58200000Y-127300000D01*
X100100000Y-87300000D02*
X102550000Y-87300000D01*
X102550000Y-87300000D02*
X102600000Y-87250000D01*
X97600000Y-87250000D02*
X100050000Y-87250000D01*
X100050000Y-87250000D02*
X100100000Y-87300000D01*
X100100000Y-84300000D02*
X100100000Y-85125000D01*
X100100000Y-85125000D02*
X99725000Y-85500000D01*
X110800000Y-84400000D02*
X113600000Y-84400000D01*
X113600000Y-84400000D02*
X114100000Y-83900000D01*
X83900000Y-83999996D02*
X79100004Y-83999996D01*
X79100004Y-83999996D02*
X78700000Y-84400000D01*
X83900000Y-83999996D02*
X92899996Y-83999996D01*
X92899996Y-83999996D02*
X93300000Y-84400000D01*
X94200000Y-85300000D02*
X93300000Y-84400000D01*
X97800000Y-85500000D02*
X99000000Y-85500000D01*
X97800000Y-85500000D02*
X97700000Y-85500000D01*
X94400000Y-85500000D02*
X94200000Y-85300000D01*
X97700000Y-85500000D02*
X94400000Y-85500000D01*
X78700000Y-84400000D02*
X75750000Y-87350000D01*
X75750000Y-87350000D02*
X72000000Y-87350000D01*
X99000000Y-85500000D02*
X99725000Y-85500000D01*
X99725000Y-85500000D02*
X108900000Y-85500000D01*
X110800000Y-84400000D02*
X110000000Y-84400000D01*
X110000000Y-84400000D02*
X108900000Y-85500000D01*
D39*
X105100000Y-124500000D02*
X107000000Y-122600000D01*
X102200000Y-124900000D02*
X102400000Y-124900000D01*
X102400000Y-124900000D02*
X102800000Y-124500000D01*
X102800000Y-124500000D02*
X105100000Y-124500000D01*
X100420000Y-127460000D02*
X100740000Y-127460000D01*
X100740000Y-127460000D02*
X102200000Y-126000000D01*
X102200000Y-126000000D02*
X102200000Y-124900000D01*
X107000000Y-122600000D02*
X110300000Y-122600000D01*
X110300000Y-122600000D02*
X112440000Y-120460000D01*
X112440000Y-120460000D02*
X112440000Y-117600000D01*
D38*
X112440000Y-120460000D02*
X112440000Y-117600000D01*
X110300000Y-122600000D02*
X112440000Y-120460000D01*
X100740000Y-127460000D02*
X102200000Y-126000000D01*
X102200000Y-126000000D02*
X102200000Y-124900000D01*
D39*
X129550000Y-111450000D02*
X130100000Y-110900000D01*
X130100000Y-110900000D02*
X130100000Y-110600000D01*
X124400000Y-111450000D02*
X129550000Y-111450000D01*
X130100000Y-101500000D02*
X136600000Y-101500000D01*
X109900000Y-108450000D02*
X109900000Y-102300000D01*
X109900000Y-102300000D02*
X106000000Y-98400000D01*
X139419860Y-98680140D02*
X139419860Y-79000000D01*
X136600000Y-101500000D02*
X139419860Y-98680140D01*
X124400000Y-111450000D02*
X112900000Y-111450000D01*
X112900000Y-111450000D02*
X109900000Y-108450000D01*
X98500000Y-122750000D02*
X98500000Y-122100000D01*
X98500000Y-122100000D02*
X99300000Y-121300000D01*
D38*
X96600000Y-121300000D02*
X96600000Y-119200000D01*
X96600000Y-119200000D02*
X98300000Y-117500000D01*
D39*
X101500000Y-121300000D02*
X102650000Y-121300000D01*
X102650000Y-121300000D02*
X103112500Y-120837500D01*
X104600000Y-120837500D02*
X103112500Y-120837500D01*
D38*
X98300000Y-117500000D02*
X99100000Y-117500000D01*
X99400000Y-117200000D02*
X99100000Y-117500000D01*
X99162500Y-113962500D02*
X99400000Y-114200000D01*
X99400000Y-114200000D02*
X99400000Y-115700000D01*
X99400000Y-115700000D02*
X99400000Y-117200000D01*
D39*
X106700000Y-120837500D02*
X104600000Y-120837500D01*
D38*
X103112500Y-120837500D02*
X102900000Y-121050000D01*
X102900000Y-121050000D02*
X102900000Y-121100000D01*
X102900000Y-121100000D02*
X102900000Y-121050000D01*
D39*
X101800000Y-121300000D02*
X101500000Y-121300000D01*
X101500000Y-121300000D02*
X99300000Y-121300000D01*
X99300000Y-121300000D02*
X96600000Y-121300000D01*
X96600000Y-121300000D02*
X90700000Y-121300000D01*
X90700000Y-121300000D02*
X87900000Y-118500000D01*
X108100000Y-120837500D02*
X109337500Y-120837500D01*
X109337500Y-120837500D02*
X109900000Y-120275000D01*
X108100000Y-120837500D02*
X106700000Y-120837500D01*
X109900000Y-117600000D02*
X109900000Y-120275000D01*
X109900000Y-120275000D02*
X109337500Y-120837500D01*
X109900000Y-117600000D02*
X109900000Y-108450000D01*
D38*
X97700000Y-121300000D02*
X101800000Y-121300000D01*
X101800000Y-121300000D02*
X102650000Y-121300000D01*
X102650000Y-121300000D02*
X102900000Y-121050000D01*
X118700000Y-111450000D02*
X112900000Y-111450000D01*
X112900000Y-111450000D02*
X109900000Y-108450000D01*
X121900000Y-111450000D02*
X112900000Y-111450000D01*
X112900000Y-111450000D02*
X109900000Y-108450000D01*
X99162500Y-109425000D02*
X99162500Y-103662500D01*
X98450000Y-102300000D02*
X97450000Y-101300000D01*
X98450000Y-102950000D02*
X98450000Y-102300000D01*
X99162500Y-103662500D02*
X98450000Y-102950000D01*
X99162500Y-113962500D02*
X99162500Y-109425000D01*
X99162500Y-109425000D02*
X99162500Y-107837500D01*
X99162500Y-107837500D02*
X98725000Y-107400000D01*
X97550000Y-107400000D02*
X98725000Y-107400000D01*
X95000000Y-120800000D02*
X94225000Y-120800000D01*
X94225000Y-120800000D02*
X93725000Y-121300000D01*
X92400000Y-120800000D02*
X92400000Y-120825000D01*
X92400000Y-120825000D02*
X92875000Y-121300000D01*
X92875000Y-121300000D02*
X92400000Y-120800000D01*
X95000000Y-120800000D02*
X95050000Y-120800000D01*
X95050000Y-120800000D02*
X95550000Y-121300000D01*
X95550000Y-121300000D02*
X95000000Y-120800000D01*
X97550000Y-113400000D02*
X98600000Y-113400000D01*
X98600000Y-113400000D02*
X99162500Y-113962500D01*
X91600000Y-121300000D02*
X93725000Y-121300000D01*
X93725000Y-121300000D02*
X97100000Y-121300000D01*
X97100000Y-121300000D02*
X97700000Y-121300000D01*
X112900000Y-111450000D02*
X109900000Y-108450000D01*
X109900000Y-102300000D02*
X108400000Y-100800000D01*
X107100000Y-95900000D02*
X106700000Y-95900000D01*
X106000000Y-96600000D02*
X106000000Y-98400000D01*
X106700000Y-95900000D02*
X106000000Y-96600000D01*
X117500000Y-92900000D02*
X117500000Y-89250000D01*
X117500000Y-89250000D02*
X118750000Y-88000000D01*
X113700000Y-95600000D02*
X115200000Y-95600000D01*
X115200000Y-95600000D02*
X117500000Y-93300000D01*
X117500000Y-93300000D02*
X117500000Y-92900000D01*
X111368500Y-98595500D02*
X111368500Y-96331500D01*
X111368500Y-96331500D02*
X112100000Y-95600000D01*
X112100000Y-95600000D02*
X113700000Y-95600000D01*
X106000000Y-98400000D02*
X108400000Y-100800000D01*
X111368500Y-98595500D02*
X111368500Y-96968500D01*
X110300000Y-95900000D02*
X107100000Y-95900000D01*
X111368500Y-96968500D02*
X110300000Y-95900000D01*
X139419860Y-82500000D02*
X139419860Y-86000000D01*
X139419860Y-82500000D02*
X139419860Y-79000000D01*
X139550000Y-89100000D02*
X139550000Y-86330140D01*
X139550000Y-86330140D02*
X139419860Y-86200000D01*
X139419860Y-86200000D02*
X139419860Y-78700000D01*
X93100000Y-121300000D02*
X91600000Y-121300000D01*
X91600000Y-121300000D02*
X90700000Y-121300000D01*
X90700000Y-121300000D02*
X87900000Y-118500000D01*
X100650000Y-93700000D02*
X98800000Y-93700000D01*
X95850000Y-96200000D02*
X93100000Y-96200000D01*
X93100000Y-96200000D02*
X93050000Y-96250000D01*
X90000000Y-96250000D02*
X93050000Y-96250000D01*
X93050000Y-96250000D02*
X93250000Y-96250000D01*
X93250000Y-96250000D02*
X95800000Y-93700000D01*
X119500000Y-99100000D02*
X117040000Y-99100000D01*
X117040000Y-99100000D02*
X116700000Y-98760000D01*
X116940000Y-99000000D02*
X116700000Y-98760000D01*
X113908500Y-98595500D02*
X113908500Y-97991500D01*
X113908500Y-97991500D02*
X114200000Y-97700000D01*
X114200000Y-97700000D02*
X115640000Y-97700000D01*
X115640000Y-97700000D02*
X116700000Y-98760000D01*
X122500000Y-99100000D02*
X122500000Y-98150000D01*
X122500000Y-98150000D02*
X124000000Y-96650000D01*
X113525000Y-94700000D02*
X111700000Y-94700000D01*
X111368500Y-94368500D02*
X111368500Y-93195500D01*
X111700000Y-94700000D02*
X111368500Y-94368500D01*
X112638500Y-93195500D02*
X112638500Y-94238500D01*
X112638500Y-94238500D02*
X113100000Y-94700000D01*
X115800000Y-93800000D02*
X115800000Y-91300000D01*
X114900000Y-94700000D02*
X115800000Y-93800000D01*
X113100000Y-94700000D02*
X113525000Y-94700000D01*
X113525000Y-94700000D02*
X114900000Y-94700000D01*
X105625000Y-129000000D02*
X106500000Y-129000000D01*
X106500000Y-129000000D02*
X108040000Y-127460000D01*
X78200000Y-129100000D02*
X73650000Y-129100000D01*
X73650000Y-129100000D02*
X72800000Y-128250000D01*
X103900000Y-129000000D02*
X103200000Y-129000000D01*
X105625000Y-129000000D02*
X103900000Y-129000000D01*
X108600000Y-91725000D02*
X111775000Y-91725000D01*
X111775000Y-91725000D02*
X112100000Y-91400000D01*
X108900000Y-91725000D02*
X108600000Y-91725000D01*
X108600000Y-91725000D02*
X102975000Y-91725000D01*
X102975000Y-91725000D02*
X102100000Y-92600000D01*
X112000000Y-91725000D02*
X108900000Y-91725000D01*
X98750000Y-96200000D02*
X101200000Y-96200000D01*
X102100000Y-95300000D02*
X102100000Y-92600000D01*
X101200000Y-96200000D02*
X102100000Y-95300000D01*
X110580000Y-126420000D02*
X110580000Y-127460000D01*
X112000000Y-125000000D02*
X110580000Y-126420000D01*
X114175000Y-126025000D02*
X115925000Y-126025000D01*
X118300000Y-123650000D02*
X118300000Y-121900000D01*
X115925000Y-126025000D02*
X118300000Y-123650000D01*
X118700000Y-118500000D02*
X118700000Y-121500000D01*
X118700000Y-121500000D02*
X118300000Y-121900000D01*
X114175000Y-126025000D02*
X113120000Y-127080000D01*
X113120000Y-127080000D02*
X113120000Y-127460000D01*
X118700000Y-114350000D02*
X118700000Y-118500000D01*
X118700000Y-118500000D02*
X118700000Y-119100000D01*
X118700000Y-119100000D02*
X118900000Y-119300000D01*
X124100000Y-119300000D02*
X118900000Y-119300000D01*
X121475000Y-124700000D02*
X118420000Y-124700000D01*
X118420000Y-124700000D02*
X115660000Y-127460000D01*
X124100000Y-124300000D02*
X126500000Y-124300000D01*
X123150000Y-115600000D02*
X121900000Y-114350000D01*
X124300000Y-115600000D02*
X123150000Y-115600000D01*
X127500000Y-118800000D02*
X124300000Y-115600000D01*
X127500000Y-123300000D02*
X127500000Y-118800000D01*
X126500000Y-124300000D02*
X127500000Y-123300000D01*
X121475000Y-124700000D02*
X123700000Y-124700000D01*
X123700000Y-124700000D02*
X124100000Y-124300000D01*
X125200000Y-125900000D02*
X126150000Y-125900000D01*
X127700000Y-124350000D02*
X128550000Y-124350000D01*
X126150000Y-125900000D02*
X127700000Y-124350000D01*
X120975000Y-125900000D02*
X118700000Y-125900000D01*
X118700000Y-125900000D02*
X118200000Y-126400000D01*
X118200000Y-126400000D02*
X118200000Y-127460000D01*
X128550000Y-124350000D02*
X128550000Y-118500000D01*
X128550000Y-118500000D02*
X124400000Y-114350000D01*
X128550000Y-124350000D02*
X138550000Y-124350000D01*
X138550000Y-124350000D02*
X138600000Y-124300000D01*
X118200000Y-127460000D02*
X118240000Y-127460000D01*
X120975000Y-125900000D02*
X125200000Y-125900000D01*
X92800000Y-127460000D02*
X92800000Y-127100000D01*
X92800000Y-127100000D02*
X91600000Y-125900000D01*
X64940000Y-123100000D02*
X60740000Y-127300000D01*
X74300000Y-123100000D02*
X64940000Y-123100000D01*
X77100000Y-125900000D02*
X74300000Y-123100000D01*
X91600000Y-125900000D02*
X77100000Y-125900000D01*
X102600000Y-84350000D02*
X102850000Y-84350000D01*
X102850000Y-84350000D02*
X106500000Y-80700000D01*
X108700000Y-80700000D02*
X110200000Y-79200000D01*
X106500000Y-80700000D02*
X108700000Y-80700000D01*
X119700000Y-78400000D02*
X119700000Y-79725000D01*
X119700000Y-79725000D02*
X119525000Y-79900000D01*
X116225000Y-82300004D02*
X117124996Y-82300004D01*
X117124996Y-82300004D02*
X117662500Y-81762500D01*
X117662500Y-81762500D02*
X119525000Y-79900000D01*
X110900000Y-83050000D02*
X112350004Y-83050000D01*
X113100000Y-82300004D02*
X116225000Y-82300004D01*
X112350004Y-83050000D02*
X113100000Y-82300004D01*
X116900000Y-77500000D02*
X118800000Y-77500000D01*
X118800000Y-77500000D02*
X119700000Y-78400000D01*
X113120000Y-79200000D02*
X113120000Y-78880000D01*
X113120000Y-78880000D02*
X114500000Y-77500000D01*
X114500000Y-77500000D02*
X116900000Y-77500000D01*
X109900000Y-80700000D02*
X113700000Y-80700000D01*
X105100000Y-83300000D02*
X106800000Y-81600000D01*
X106800000Y-81600000D02*
X109000000Y-81600000D01*
X109000000Y-81600000D02*
X109900000Y-80700000D01*
X105100000Y-84350000D02*
X105100000Y-83300000D01*
X113700000Y-80700000D02*
X115200000Y-79200000D01*
X115200000Y-79200000D02*
X115660000Y-79200000D01*
X103000000Y-103200000D02*
X102975000Y-103200000D01*
X103000000Y-102100000D02*
X103000000Y-103200000D01*
X101200000Y-100300000D02*
X103000000Y-102100000D01*
X101200000Y-99700000D02*
X101200000Y-100300000D01*
X101200000Y-98600000D02*
X101200000Y-99700000D01*
X98425000Y-82400000D02*
X100600000Y-82400000D01*
X100600000Y-82400000D02*
X101100000Y-81900000D01*
X101150000Y-115900000D02*
X101150000Y-114150000D01*
X102975000Y-112325000D02*
X102975000Y-103200000D01*
X101150000Y-114150000D02*
X102975000Y-112325000D01*
X98425000Y-82400000D02*
X98425000Y-82399992D01*
X96500000Y-82399992D02*
X98425000Y-82399992D01*
X83656000Y-79255992D02*
X86800000Y-82399992D01*
X86800000Y-82399992D02*
X96500000Y-82399992D01*
X83656000Y-79200000D02*
X83656000Y-79255992D01*
X102125000Y-104900000D02*
X102125000Y-102525000D01*
X99900000Y-100300000D02*
X99900000Y-99400000D01*
X102125000Y-102525000D02*
X99900000Y-100300000D01*
X87625000Y-81525000D02*
X96500000Y-81525000D01*
X85496000Y-79396000D02*
X87625000Y-81525000D01*
X99375000Y-81525000D02*
X99800000Y-81100000D01*
X96500000Y-81525000D02*
X99375000Y-81525000D01*
X100950000Y-110800000D02*
X100950000Y-109200000D01*
X102125000Y-108025000D02*
X102125000Y-104900000D01*
X100950000Y-109200000D02*
X102125000Y-108025000D01*
X85496000Y-79200000D02*
X85496000Y-79396000D01*
X86196000Y-79200000D02*
X86196000Y-79295990D01*
X99900000Y-101575000D02*
X99875000Y-101575000D01*
X98000000Y-99700000D02*
X98000000Y-99400000D01*
X99875000Y-101575000D02*
X98000000Y-99700000D01*
X88125000Y-79200000D02*
X89575000Y-80650000D01*
X89575000Y-80650000D02*
X96400000Y-80650000D01*
X97350000Y-80650000D02*
X98000000Y-80000000D01*
X96400000Y-80650000D02*
X97350000Y-80650000D01*
X99900000Y-101575000D02*
X100950000Y-102625000D01*
X100950000Y-102625000D02*
X100950000Y-104800000D01*
X88036000Y-79200000D02*
X88125000Y-79200000D01*
X100950000Y-104800000D02*
X100950000Y-104350000D01*
X107600000Y-84250000D02*
X107600000Y-84200002D01*
X107600000Y-84200002D02*
X110300000Y-81500002D01*
X115899998Y-81500002D02*
X118200000Y-79200000D01*
X110300000Y-81500002D02*
X115899998Y-81500002D01*
X90000000Y-114050000D02*
X92051780Y-114050000D01*
X92051780Y-114050000D02*
X94501780Y-116500000D01*
X92051780Y-114050000D02*
X94501780Y-116500000D01*
X94501780Y-116500000D02*
X94501780Y-113548220D01*
X94501780Y-113548220D02*
X94650000Y-113400000D01*
X96500760Y-117450000D02*
X96700000Y-117450000D01*
X96700000Y-117450000D02*
X98250000Y-115900000D01*
X96500760Y-117450000D02*
X96750000Y-117450000D01*
X69500000Y-92500000D02*
X69500000Y-90700000D01*
X75500000Y-90200000D02*
X76900000Y-88800000D01*
X70000000Y-90200000D02*
X75500000Y-90200000D01*
X69500000Y-90700000D02*
X70000000Y-90200000D01*
X98800000Y-88500000D02*
X96100000Y-88500000D01*
X96100000Y-88500000D02*
X94900000Y-87300000D01*
X99700000Y-88500000D02*
X103850000Y-88500000D01*
X103850000Y-88500000D02*
X105100000Y-87250000D01*
X98800000Y-88500000D02*
X99700000Y-88500000D01*
X82100000Y-84799998D02*
X80900002Y-84799998D01*
X80400000Y-85300000D02*
X76900000Y-88800000D01*
X80900002Y-84799998D02*
X80400000Y-85300000D01*
X91500000Y-84799998D02*
X82100000Y-84799998D01*
X91500000Y-84799998D02*
X92399998Y-84799998D01*
X92399998Y-84799998D02*
X92600000Y-85000000D01*
X92600000Y-85000000D02*
X94900000Y-87300000D01*
X69500000Y-93750000D02*
X72000000Y-96250000D01*
X69500000Y-92500000D02*
X69500000Y-93750000D01*
X99600000Y-89300002D02*
X95600002Y-89300002D01*
X95600002Y-89300002D02*
X94700000Y-88400000D01*
X100000000Y-89300002D02*
X105449998Y-89300002D01*
X100000000Y-89300002D02*
X99600000Y-89300002D01*
X105449998Y-89300002D02*
X107600000Y-87150000D01*
X94700000Y-88400000D02*
X92700000Y-86400000D01*
X90900000Y-85600000D02*
X91900000Y-85600000D01*
X90900000Y-85600000D02*
X81400000Y-85600000D01*
X81400000Y-85600000D02*
X75200000Y-91800000D01*
X75200000Y-91800000D02*
X72000000Y-91800000D01*
X91900000Y-85600000D02*
X92700000Y-86400000D01*
X72000000Y-91800000D02*
X73000000Y-91800000D01*
X90000000Y-109600000D02*
X93701780Y-109600000D01*
X93701780Y-109600000D02*
X94501780Y-110400000D01*
X94501780Y-110400000D02*
X94501780Y-107548220D01*
X94501780Y-107548220D02*
X94650000Y-107400000D01*
X89300000Y-109600000D02*
X93701780Y-109600000D01*
X93701780Y-109600000D02*
X94501780Y-110400000D01*
X96500760Y-111350000D02*
X97500000Y-111350000D01*
X97500000Y-111350000D02*
X98050000Y-110800000D01*
X107900000Y-90900006D02*
X110899994Y-90900006D01*
X112700000Y-89100000D02*
X112700000Y-88200000D01*
X110899994Y-90900006D02*
X112700000Y-89100000D01*
X96337500Y-98162500D02*
X97400000Y-97100000D01*
X97425000Y-97325000D02*
X97400000Y-97325000D01*
X97400000Y-97300000D02*
X97425000Y-97325000D01*
X97400000Y-97100000D02*
X97400000Y-97300000D01*
X90000000Y-105150000D02*
X93751780Y-105150000D01*
X93751780Y-105150000D02*
X94501780Y-104400000D01*
X94501780Y-104400000D02*
X94501780Y-101348220D01*
X94501780Y-101348220D02*
X94550000Y-101300000D01*
X106700000Y-90900006D02*
X107900000Y-90900006D01*
X113250000Y-86450000D02*
X115800000Y-86450000D01*
X121200000Y-81850000D02*
X122325000Y-80725000D01*
X122325000Y-80725000D02*
X123925000Y-80725000D01*
X121200000Y-81850000D02*
X119500000Y-83550000D01*
X119500000Y-83550000D02*
X119500000Y-85400000D01*
X119500000Y-85400000D02*
X118450000Y-86450000D01*
X115800000Y-86450000D02*
X118450000Y-86450000D01*
X112700000Y-87000000D02*
X113250000Y-86450000D01*
X112700000Y-87700000D02*
X112700000Y-87000000D01*
X112700000Y-87700000D02*
X112700000Y-88200000D01*
X100700000Y-90900006D02*
X106700000Y-90900006D01*
X97400000Y-92800000D02*
X98600000Y-91600000D01*
X97400000Y-97325000D02*
X97400000Y-93600000D01*
X97400000Y-93600000D02*
X97400000Y-92800000D01*
X99299994Y-90900006D02*
X98600000Y-91600000D01*
X100700000Y-90900006D02*
X99299994Y-90900006D01*
X133000000Y-85375000D02*
X133000000Y-83950000D01*
X133000000Y-83950000D02*
X131550000Y-82500000D01*
X129875000Y-79175000D02*
X129950000Y-79175000D01*
X129950000Y-79175000D02*
X130450000Y-79675000D01*
X130450000Y-79675000D02*
X130450000Y-80475000D01*
X130450000Y-80475000D02*
X131550000Y-81575000D01*
X131550000Y-81575000D02*
X131550000Y-82500000D01*
X124425000Y-80600000D02*
X125850000Y-79175000D01*
X125850000Y-79175000D02*
X129875000Y-79175000D01*
X124050000Y-80600000D02*
X124425000Y-80600000D01*
X123925000Y-80725000D02*
X124050000Y-80600000D01*
X94550000Y-99950000D02*
X96337500Y-98162500D01*
X96337500Y-98162500D02*
X96700000Y-97800000D01*
X94550000Y-101300000D02*
X94550000Y-99950000D01*
X135000000Y-91800000D02*
X135000000Y-98200000D01*
X133000000Y-89800000D02*
X135000000Y-91800000D01*
X133000000Y-85375000D02*
X133000000Y-89800000D01*
X135000000Y-91800000D02*
X135000000Y-91600000D01*
X89300000Y-105150000D02*
X93751780Y-105150000D01*
X93751780Y-105150000D02*
X94501780Y-104400000D01*
X96500760Y-105350000D02*
X97500000Y-105350000D01*
X97500000Y-105350000D02*
X98050000Y-104800000D01*
X110900000Y-85950000D02*
X110900000Y-87850000D01*
X110900000Y-87850000D02*
X111150000Y-88100000D01*
X106075000Y-90100004D02*
X110474996Y-90100004D01*
X111150000Y-89425000D02*
X111150000Y-88100000D01*
X110474996Y-90100004D02*
X111150000Y-89425000D01*
X90000000Y-87350000D02*
X92450000Y-87350000D01*
X95200004Y-90100004D02*
X96025000Y-90100004D01*
X92450000Y-87350000D02*
X95200004Y-90100004D01*
X129025000Y-78350000D02*
X130900000Y-78350000D01*
X130900000Y-78350000D02*
X131550000Y-79000000D01*
X123400000Y-78350000D02*
X122325004Y-78350000D01*
X118625000Y-83250000D02*
X118625000Y-83925000D01*
X121300004Y-80574996D02*
X118625000Y-83250000D01*
X121300004Y-79375000D02*
X121300004Y-80574996D01*
X122325004Y-78350000D02*
X121300004Y-79375000D01*
X129025000Y-78350000D02*
X123400000Y-78350000D01*
X118000000Y-85575000D02*
X111275000Y-85575000D01*
X118625000Y-83925000D02*
X118625000Y-84950000D01*
X118625000Y-84950000D02*
X118000000Y-85575000D01*
X111275000Y-85575000D02*
X110900000Y-85950000D01*
X98200000Y-90100004D02*
X96025000Y-90100004D01*
X98200000Y-90100004D02*
X106075000Y-90100004D01*
X91450000Y-87350000D02*
X90000000Y-87350000D01*
X110950000Y-86000000D02*
X110900000Y-85950000D01*
X101800000Y-119850000D02*
X102450000Y-119850000D01*
X102450000Y-119850000D02*
X102900000Y-119400000D01*
X105560000Y-119400000D02*
X107360000Y-117600000D01*
X102900000Y-119400000D02*
X105560000Y-119400000D01*
X99200000Y-119850000D02*
X101800000Y-119850000D01*
X107360000Y-117600000D02*
X107360000Y-119540000D01*
X110098500Y-93195500D02*
X108754500Y-93195500D01*
X108754500Y-93195500D02*
X107600000Y-94350000D01*
X103550000Y-93700000D02*
X106950000Y-93700000D01*
X106950000Y-93700000D02*
X107600000Y-94350000D01*
X114050000Y-88100000D02*
X115750000Y-88100000D01*
X115750000Y-88100000D02*
X115850000Y-88000000D01*
X113908500Y-93195500D02*
X113908500Y-88241500D01*
X113908500Y-88241500D02*
X114050000Y-88100000D01*
X122950000Y-77500000D02*
X121675002Y-77500000D01*
X120500002Y-80174998D02*
X117100000Y-83575000D01*
X120500002Y-78675000D02*
X120500002Y-80174998D01*
X121675002Y-77500000D02*
X120500002Y-78675000D01*
X117100000Y-83575000D02*
X117100000Y-83900000D01*
X117100000Y-83900000D02*
X117400000Y-83900000D01*
X122950000Y-77500000D02*
X129900000Y-77500000D01*
X136650000Y-89100000D02*
X137600000Y-89100000D01*
X137600000Y-89100000D02*
X138000000Y-88700000D01*
X138000000Y-88700000D02*
X138000000Y-98300000D01*
X138000000Y-98300000D02*
X136100000Y-100200000D01*
X136100000Y-100200000D02*
X129000000Y-100200000D01*
X129000000Y-100200000D02*
X127000000Y-98200000D01*
X138000000Y-83200000D02*
X138000000Y-88700000D01*
X134900000Y-80700000D02*
X133800000Y-80700000D01*
X132600000Y-77500000D02*
X129900000Y-77500000D01*
X133000000Y-77900000D02*
X132600000Y-77500000D01*
X133000000Y-79900000D02*
X133000000Y-77900000D01*
X133800000Y-80700000D02*
X133000000Y-79900000D01*
X138000000Y-80700000D02*
X138000000Y-83200000D01*
X138000000Y-80700000D02*
X134900000Y-80700000D01*
X136650000Y-89100000D02*
X136700000Y-89100000D01*
X132000000Y-108850000D02*
X131850000Y-108850000D01*
X131850000Y-108850000D02*
X128200000Y-105200000D01*
X136580140Y-82500000D02*
X134450000Y-82500000D01*
X134450000Y-86000000D02*
X136580140Y-86000000D01*
X134450000Y-79000000D02*
X136580140Y-79000000D01*
D40*
X61300000Y-79800000D02*
X61300000Y-87845000D01*
X61300000Y-87845000D02*
X63090000Y-89635000D01*
X59500000Y-89700000D02*
X63025000Y-89700000D01*
X63025000Y-89700000D02*
X63090000Y-89635000D01*
D38*
X63025000Y-89700000D02*
X63090000Y-89635000D01*
X61300000Y-87845000D02*
X63090000Y-89635000D01*
X63025000Y-89700000D02*
X63090000Y-89635000D01*
D40*
X65665000Y-98290000D02*
X65665000Y-94010000D01*
X65665000Y-94010000D02*
X65710000Y-93965000D01*
X65710000Y-93965000D02*
X60735000Y-93965000D01*
X60735000Y-93965000D02*
X59500000Y-95200000D01*
D38*
X65665000Y-98290000D02*
X65665000Y-98885000D01*
X65665000Y-98885000D02*
X64950000Y-99600000D01*
X64950000Y-99600000D02*
X65665000Y-98290000D01*
X65710000Y-93965000D02*
X65710000Y-98245000D01*
X65710000Y-98245000D02*
X65665000Y-98290000D01*
X60735000Y-93965000D02*
X59500000Y-95200000D01*
D40*
X61335000Y-100910000D02*
X61335000Y-103280000D01*
X61335000Y-103280000D02*
X63190000Y-105135000D01*
X59500000Y-105000000D02*
X63055000Y-105000000D01*
X63055000Y-105000000D02*
X63190000Y-105135000D01*
D38*
X63190000Y-105135000D02*
X63785000Y-105135000D01*
X63785000Y-105135000D02*
X64500000Y-105850000D01*
X64500000Y-105850000D02*
X63190000Y-105135000D01*
X61335000Y-103280000D02*
X63190000Y-105135000D01*
X63190000Y-105135000D02*
X59635000Y-105135000D01*
X59635000Y-105135000D02*
X59500000Y-105000000D01*
X61335000Y-103280000D02*
X63190000Y-105135000D01*
D40*
X59500000Y-109500000D02*
X65775000Y-109500000D01*
X65775000Y-109500000D02*
X65810000Y-109465000D01*
D38*
X65775000Y-109500000D02*
X65810000Y-109465000D01*
D40*
X72000000Y-114050000D02*
X68550000Y-114050000D01*
X68550000Y-114050000D02*
X65810000Y-111310000D01*
X65810000Y-111310000D02*
X65810000Y-109465000D01*
D38*
X63280000Y-127300000D02*
X63280000Y-126020000D01*
X63280000Y-126020000D02*
X65300000Y-124000000D01*
X65300000Y-124000000D02*
X71450000Y-124000000D01*
X71450000Y-124000000D02*
X72800000Y-125350000D01*
X107600000Y-97250000D02*
X109750000Y-97250000D01*
X109750000Y-97250000D02*
X110098500Y-97598500D01*
X110098500Y-97598500D02*
X110098500Y-98595500D01*
X116700000Y-101300000D02*
X116700000Y-102600000D01*
X116700000Y-102600000D02*
X119300000Y-105200000D01*
X110098500Y-98595500D02*
X110098500Y-100098500D01*
X111300000Y-101300000D02*
X116700000Y-101300000D01*
X110098500Y-100098500D02*
X111300000Y-101300000D01*
D41*
G36*
X59293085Y-78342478D02*
X58965356Y-78832959D01*
X58773000Y-79800000D01*
X58773000Y-86673000D01*
X57100000Y-86673000D01*
X57053841Y-86681685D01*
X57011447Y-86708965D01*
X56983006Y-86750590D01*
X56973000Y-86800000D01*
X56973000Y-113000000D01*
X56981685Y-113046159D01*
X57008965Y-113088553D01*
X57050590Y-113116994D01*
X57100000Y-113127000D01*
X64053282Y-113127000D01*
X66763141Y-115836859D01*
X67582959Y-116384644D01*
X68550000Y-116577000D01*
X72000000Y-116577000D01*
X72352342Y-116506915D01*
X72701777Y-116506915D01*
X72662676Y-116700000D01*
X72662676Y-120300000D01*
X72699423Y-120495294D01*
X72814842Y-120674660D01*
X72990951Y-120794990D01*
X73200000Y-120837324D01*
X75000000Y-120837324D01*
X75195294Y-120800577D01*
X75374660Y-120685158D01*
X75494990Y-120509049D01*
X75537324Y-120300000D01*
X75537324Y-116700000D01*
X75500577Y-116504706D01*
X75385158Y-116325340D01*
X75209049Y-116205010D01*
X75000000Y-116162676D01*
X74735366Y-116162676D01*
X74885591Y-116066009D01*
X75234252Y-115555727D01*
X75356915Y-114950000D01*
X75356915Y-113150000D01*
X87662676Y-113150000D01*
X87662676Y-114950000D01*
X87699423Y-115145294D01*
X87814842Y-115324660D01*
X87990951Y-115444990D01*
X88200000Y-115487324D01*
X91800000Y-115487324D01*
X91995294Y-115450577D01*
X92174660Y-115335158D01*
X92229112Y-115255465D01*
X93564406Y-116590759D01*
X93564406Y-116900050D01*
X93601153Y-117095344D01*
X93716572Y-117274710D01*
X93892681Y-117395040D01*
X94101730Y-117437374D01*
X94901830Y-117437374D01*
X95097124Y-117400627D01*
X95276490Y-117285208D01*
X95396820Y-117109099D01*
X95439154Y-116900050D01*
X95439154Y-116099950D01*
X95402407Y-115904656D01*
X95286988Y-115725290D01*
X95228780Y-115685518D01*
X95228780Y-114763092D01*
X95295294Y-114750577D01*
X95474660Y-114635158D01*
X95594990Y-114459049D01*
X95637324Y-114250000D01*
X95637324Y-112550000D01*
X95600577Y-112354706D01*
X95485158Y-112175340D01*
X95309049Y-112055010D01*
X95100000Y-112012676D01*
X94200000Y-112012676D01*
X94004706Y-112049423D01*
X93825340Y-112164842D01*
X93705010Y-112340951D01*
X93662676Y-112550000D01*
X93662676Y-114250000D01*
X93699423Y-114445294D01*
X93774780Y-114562402D01*
X93774780Y-114744866D01*
X92565847Y-113535933D01*
X92479652Y-113478340D01*
X92337324Y-113383240D01*
X92337324Y-113150000D01*
X92300577Y-112954706D01*
X92185158Y-112775340D01*
X92009049Y-112655010D01*
X91800000Y-112612676D01*
X88200000Y-112612676D01*
X88004706Y-112649423D01*
X87825340Y-112764842D01*
X87705010Y-112940951D01*
X87662676Y-113150000D01*
X75356915Y-113150000D01*
X75250439Y-112584128D01*
X74916009Y-112064409D01*
X74405727Y-111715748D01*
X73800000Y-111593085D01*
X72352342Y-111593085D01*
X72000000Y-111523000D01*
X69827000Y-111523000D01*
X69827000Y-110882967D01*
X69990951Y-110994990D01*
X70200000Y-111037324D01*
X73800000Y-111037324D01*
X73995294Y-111000577D01*
X74174660Y-110885158D01*
X74294990Y-110709049D01*
X74337324Y-110500000D01*
X74337324Y-108700000D01*
X87662676Y-108700000D01*
X87662676Y-110500000D01*
X87699423Y-110695294D01*
X87814842Y-110874660D01*
X87990951Y-110994990D01*
X88200000Y-111037324D01*
X91800000Y-111037324D01*
X91995294Y-111000577D01*
X92174660Y-110885158D01*
X92294990Y-110709049D01*
X92337324Y-110500000D01*
X92337324Y-110327000D01*
X93400646Y-110327000D01*
X93564406Y-110490760D01*
X93564406Y-110800050D01*
X93601153Y-110995344D01*
X93716572Y-111174710D01*
X93892681Y-111295040D01*
X94101730Y-111337374D01*
X94901830Y-111337374D01*
X95097124Y-111300627D01*
X95276490Y-111185208D01*
X95396820Y-111009099D01*
X95439154Y-110800050D01*
X95439154Y-109999950D01*
X95402407Y-109804656D01*
X95286988Y-109625290D01*
X95228780Y-109585518D01*
X95228780Y-108763092D01*
X95295294Y-108750577D01*
X95474660Y-108635158D01*
X95594990Y-108459049D01*
X95637324Y-108250000D01*
X95637324Y-106550000D01*
X95600577Y-106354706D01*
X95485158Y-106175340D01*
X95309049Y-106055010D01*
X95100000Y-106012676D01*
X94200000Y-106012676D01*
X94004706Y-106049423D01*
X93825340Y-106164842D01*
X93705010Y-106340951D01*
X93662676Y-106550000D01*
X93662676Y-108250000D01*
X93699423Y-108445294D01*
X93774780Y-108562402D01*
X93774780Y-108887520D01*
X93701780Y-108872999D01*
X93701775Y-108873000D01*
X92337324Y-108873000D01*
X92337324Y-108700000D01*
X92300577Y-108504706D01*
X92185158Y-108325340D01*
X92009049Y-108205010D01*
X91800000Y-108162676D01*
X88200000Y-108162676D01*
X88004706Y-108199423D01*
X87825340Y-108314842D01*
X87705010Y-108490951D01*
X87662676Y-108700000D01*
X74337324Y-108700000D01*
X74300577Y-108504706D01*
X74185158Y-108325340D01*
X74009049Y-108205010D01*
X73800000Y-108162676D01*
X70200000Y-108162676D01*
X70004706Y-108199423D01*
X69864943Y-108289358D01*
X69840439Y-108159128D01*
X69827000Y-108138243D01*
X69827000Y-106432967D01*
X69990951Y-106544990D01*
X70200000Y-106587324D01*
X73800000Y-106587324D01*
X73995294Y-106550577D01*
X74174660Y-106435158D01*
X74294990Y-106259049D01*
X74337324Y-106050000D01*
X74337324Y-104250000D01*
X74300577Y-104054706D01*
X74185158Y-103875340D01*
X74009049Y-103755010D01*
X73800000Y-103712676D01*
X70200000Y-103712676D01*
X70004706Y-103749423D01*
X69827000Y-103863774D01*
X69827000Y-101982967D01*
X69990951Y-102094990D01*
X70200000Y-102137324D01*
X73800000Y-102137324D01*
X73995294Y-102100577D01*
X74174660Y-101985158D01*
X74294990Y-101809049D01*
X74337324Y-101600000D01*
X74337324Y-99800000D01*
X87662676Y-99800000D01*
X87662676Y-101600000D01*
X87699423Y-101795294D01*
X87814842Y-101974660D01*
X87990951Y-102094990D01*
X88200000Y-102137324D01*
X91800000Y-102137324D01*
X91995294Y-102100577D01*
X92174660Y-101985158D01*
X92294990Y-101809049D01*
X92337324Y-101600000D01*
X92337324Y-99800000D01*
X92300577Y-99604706D01*
X92185158Y-99425340D01*
X92009049Y-99305010D01*
X91800000Y-99262676D01*
X88200000Y-99262676D01*
X88004706Y-99299423D01*
X87825340Y-99414842D01*
X87705010Y-99590951D01*
X87662676Y-99800000D01*
X74337324Y-99800000D01*
X74300577Y-99604706D01*
X74185158Y-99425340D01*
X74009049Y-99305010D01*
X73800000Y-99262676D01*
X70200000Y-99262676D01*
X70004706Y-99299423D01*
X69827000Y-99413774D01*
X69827000Y-97532967D01*
X69990951Y-97644990D01*
X70200000Y-97687324D01*
X73800000Y-97687324D01*
X73995294Y-97650577D01*
X74174660Y-97535158D01*
X74294990Y-97359049D01*
X74337324Y-97150000D01*
X74337324Y-95350000D01*
X74300577Y-95154706D01*
X74185158Y-94975340D01*
X74009049Y-94855010D01*
X73800000Y-94812676D01*
X71590810Y-94812676D01*
X70227000Y-93448866D01*
X70227000Y-93237324D01*
X73800000Y-93237324D01*
X73995294Y-93200577D01*
X74174660Y-93085158D01*
X74294990Y-92909049D01*
X74337324Y-92700000D01*
X74337324Y-92527000D01*
X75199995Y-92527000D01*
X75200000Y-92527001D01*
X75452305Y-92476813D01*
X75478211Y-92471660D01*
X75714067Y-92314067D01*
X77128134Y-90900000D01*
X87662676Y-90900000D01*
X87662676Y-92700000D01*
X87699423Y-92895294D01*
X87814842Y-93074660D01*
X87990951Y-93194990D01*
X88200000Y-93237324D01*
X91800000Y-93237324D01*
X91995294Y-93200577D01*
X92174660Y-93085158D01*
X92294990Y-92909049D01*
X92337324Y-92700000D01*
X92337324Y-90900000D01*
X92300577Y-90704706D01*
X92185158Y-90525340D01*
X92009049Y-90405010D01*
X91800000Y-90362676D01*
X88200000Y-90362676D01*
X88004706Y-90399423D01*
X87825340Y-90514842D01*
X87705010Y-90690951D01*
X87662676Y-90900000D01*
X77128134Y-90900000D01*
X81701134Y-86327000D01*
X87687584Y-86327000D01*
X87662676Y-86450000D01*
X87662676Y-88250000D01*
X87699423Y-88445294D01*
X87814842Y-88624660D01*
X87990951Y-88744990D01*
X88200000Y-88787324D01*
X91800000Y-88787324D01*
X91995294Y-88750577D01*
X92174660Y-88635158D01*
X92294990Y-88459049D01*
X92334721Y-88262855D01*
X94685937Y-90614071D01*
X94921793Y-90771664D01*
X94967952Y-90780846D01*
X95200004Y-90827005D01*
X95200009Y-90827004D01*
X98344862Y-90827004D01*
X98085933Y-91085933D01*
X98085931Y-91085936D01*
X96885933Y-92285933D01*
X96728340Y-92521789D01*
X96727303Y-92527001D01*
X96717604Y-92575762D01*
X96685158Y-92525340D01*
X96509049Y-92405010D01*
X96300000Y-92362676D01*
X95300000Y-92362676D01*
X95104706Y-92399423D01*
X94925340Y-92514842D01*
X94805010Y-92690951D01*
X94762676Y-92900000D01*
X94762676Y-93709191D01*
X92973755Y-95498111D01*
X92867948Y-95519158D01*
X92848635Y-95523000D01*
X92337324Y-95523000D01*
X92337324Y-95350000D01*
X92300577Y-95154706D01*
X92185158Y-94975340D01*
X92009049Y-94855010D01*
X91800000Y-94812676D01*
X88200000Y-94812676D01*
X88004706Y-94849423D01*
X87825340Y-94964842D01*
X87705010Y-95140951D01*
X87662676Y-95350000D01*
X87662676Y-97150000D01*
X87699423Y-97345294D01*
X87814842Y-97524660D01*
X87990951Y-97644990D01*
X88200000Y-97687324D01*
X91800000Y-97687324D01*
X91995294Y-97650577D01*
X92174660Y-97535158D01*
X92294990Y-97359049D01*
X92337324Y-97150000D01*
X92337324Y-96977000D01*
X93049995Y-96977000D01*
X93050000Y-96977001D01*
X93050005Y-96977000D01*
X93249995Y-96977000D01*
X93250000Y-96977001D01*
X93501365Y-96927000D01*
X94862676Y-96927000D01*
X94862676Y-97050000D01*
X94899423Y-97245294D01*
X95014842Y-97424660D01*
X95190951Y-97544990D01*
X95400000Y-97587324D01*
X95884542Y-97587324D01*
X95823433Y-97648433D01*
X95823431Y-97648436D01*
X94035933Y-99435933D01*
X93878340Y-99671789D01*
X93871308Y-99707140D01*
X93822999Y-99950000D01*
X93823000Y-99950005D01*
X93823000Y-100001999D01*
X93725340Y-100064842D01*
X93605010Y-100240951D01*
X93562676Y-100450000D01*
X93562676Y-102150000D01*
X93599423Y-102345294D01*
X93714842Y-102524660D01*
X93774780Y-102565614D01*
X93774780Y-103584091D01*
X93727070Y-103614792D01*
X93606740Y-103790901D01*
X93564406Y-103999950D01*
X93564406Y-104309240D01*
X93450646Y-104423000D01*
X92337324Y-104423000D01*
X92337324Y-104250000D01*
X92300577Y-104054706D01*
X92185158Y-103875340D01*
X92009049Y-103755010D01*
X91800000Y-103712676D01*
X88200000Y-103712676D01*
X88004706Y-103749423D01*
X87825340Y-103864842D01*
X87705010Y-104040951D01*
X87662676Y-104250000D01*
X87662676Y-106050000D01*
X87699423Y-106245294D01*
X87814842Y-106424660D01*
X87990951Y-106544990D01*
X88200000Y-106587324D01*
X91800000Y-106587324D01*
X91995294Y-106550577D01*
X92174660Y-106435158D01*
X92294990Y-106259049D01*
X92337324Y-106050000D01*
X92337324Y-105877000D01*
X93751775Y-105877000D01*
X93751780Y-105877001D01*
X93983832Y-105830842D01*
X94029991Y-105821660D01*
X94265847Y-105664067D01*
X94592540Y-105337374D01*
X94901830Y-105337374D01*
X95097124Y-105300627D01*
X95276490Y-105185208D01*
X95396820Y-105009099D01*
X95439154Y-104800050D01*
X95439154Y-103999950D01*
X95402407Y-103804656D01*
X95286988Y-103625290D01*
X95228780Y-103585518D01*
X95228780Y-102629029D01*
X95374660Y-102535158D01*
X95494990Y-102359049D01*
X95537324Y-102150000D01*
X95537324Y-100450000D01*
X95500577Y-100254706D01*
X95411640Y-100116494D01*
X96851564Y-98676569D01*
X96851567Y-98676567D01*
X97488831Y-98039303D01*
X97703211Y-97996660D01*
X97939067Y-97839067D01*
X98096660Y-97603211D01*
X98107571Y-97548356D01*
X98300000Y-97587324D01*
X99200000Y-97587324D01*
X99395294Y-97550577D01*
X99574660Y-97435158D01*
X99694990Y-97259049D01*
X99737324Y-97050000D01*
X99737324Y-96927000D01*
X101199995Y-96927000D01*
X101200000Y-96927001D01*
X101445282Y-96878210D01*
X101478211Y-96871660D01*
X101714067Y-96714067D01*
X101714068Y-96714066D01*
X102614064Y-95814069D01*
X102614067Y-95814067D01*
X102771660Y-95578211D01*
X102827000Y-95300000D01*
X102827000Y-95001294D01*
X102890951Y-95044990D01*
X103100000Y-95087324D01*
X104000000Y-95087324D01*
X104195294Y-95050577D01*
X104374660Y-94935158D01*
X104494990Y-94759049D01*
X104537324Y-94550000D01*
X104537324Y-94427000D01*
X106212676Y-94427000D01*
X106212676Y-94800000D01*
X106249423Y-94995294D01*
X106364842Y-95174660D01*
X106438531Y-95225010D01*
X106421789Y-95228340D01*
X106185933Y-95385933D01*
X106185931Y-95385936D01*
X105485933Y-96085933D01*
X105328340Y-96321789D01*
X105323794Y-96344644D01*
X105272999Y-96600000D01*
X105273000Y-96600005D01*
X105273000Y-97675000D01*
X105051176Y-98006984D01*
X104973000Y-98400000D01*
X105051176Y-98793016D01*
X105273801Y-99126199D01*
X108873000Y-102725398D01*
X108873000Y-103212676D01*
X104500000Y-103212676D01*
X104304706Y-103249423D01*
X104125340Y-103364842D01*
X104005010Y-103540951D01*
X103962676Y-103750000D01*
X103962676Y-113150000D01*
X103999423Y-113345294D01*
X104114842Y-113524660D01*
X104290951Y-113644990D01*
X104500000Y-113687324D01*
X108873000Y-113687324D01*
X108873000Y-114887391D01*
X108830340Y-114914842D01*
X108710010Y-115090951D01*
X108667676Y-115300000D01*
X108667676Y-119810500D01*
X108592324Y-119810500D01*
X108592324Y-115300000D01*
X108555577Y-115104706D01*
X108440158Y-114925340D01*
X108264049Y-114805010D01*
X108055000Y-114762676D01*
X106665000Y-114762676D01*
X106469706Y-114799423D01*
X106290340Y-114914842D01*
X106170010Y-115090951D01*
X106127676Y-115300000D01*
X106127676Y-117804191D01*
X105258866Y-118673000D01*
X102900000Y-118673000D01*
X102621789Y-118728340D01*
X102385933Y-118885933D01*
X102282503Y-118989363D01*
X102159049Y-118905010D01*
X101950000Y-118862676D01*
X100250000Y-118862676D01*
X100054706Y-118899423D01*
X99875340Y-119014842D01*
X99801439Y-119123000D01*
X99798001Y-119123000D01*
X99735158Y-119025340D01*
X99559049Y-118905010D01*
X99350000Y-118862676D01*
X97965458Y-118862676D01*
X98601134Y-118227000D01*
X99099995Y-118227000D01*
X99100000Y-118227001D01*
X99351365Y-118177000D01*
X99378211Y-118171660D01*
X99614067Y-118014067D01*
X99914067Y-117714067D01*
X100071660Y-117478211D01*
X100127000Y-117200000D01*
X100127000Y-114200005D01*
X100127001Y-114200000D01*
X100071660Y-113921790D01*
X100071660Y-113921789D01*
X99914067Y-113685933D01*
X99914064Y-113685931D01*
X99889500Y-113661367D01*
X99889500Y-103662500D01*
X99834160Y-103384289D01*
X99676567Y-103148433D01*
X99177000Y-102648866D01*
X99177000Y-102300005D01*
X99177001Y-102300000D01*
X99121661Y-102021790D01*
X99022242Y-101872999D01*
X98964067Y-101785933D01*
X98964064Y-101785931D01*
X98437324Y-101259190D01*
X98437324Y-101165457D01*
X99360931Y-102089064D01*
X99360933Y-102089067D01*
X99436274Y-102139408D01*
X100223000Y-102926133D01*
X100223000Y-103501999D01*
X100125340Y-103564842D01*
X100005010Y-103740951D01*
X99962676Y-103950000D01*
X99962676Y-105650000D01*
X99999423Y-105845294D01*
X100114842Y-106024660D01*
X100290951Y-106144990D01*
X100500000Y-106187324D01*
X101398000Y-106187324D01*
X101398000Y-107723866D01*
X100435933Y-108685933D01*
X100278340Y-108921789D01*
X100278340Y-108921790D01*
X100222999Y-109200000D01*
X100223000Y-109200005D01*
X100223000Y-109501999D01*
X100125340Y-109564842D01*
X100005010Y-109740951D01*
X99962676Y-109950000D01*
X99962676Y-111650000D01*
X99999423Y-111845294D01*
X100114842Y-112024660D01*
X100290951Y-112144990D01*
X100500000Y-112187324D01*
X101400000Y-112187324D01*
X101595294Y-112150577D01*
X101774660Y-112035158D01*
X101894990Y-111859049D01*
X101937324Y-111650000D01*
X101937324Y-109950000D01*
X101900577Y-109754706D01*
X101785158Y-109575340D01*
X101677000Y-109501439D01*
X101677000Y-109501134D01*
X102248000Y-108930134D01*
X102248000Y-112023867D01*
X100635933Y-113635933D01*
X100478340Y-113871789D01*
X100469931Y-113914066D01*
X100422999Y-114150000D01*
X100423000Y-114150005D01*
X100423000Y-114601999D01*
X100325340Y-114664842D01*
X100205010Y-114840951D01*
X100162676Y-115050000D01*
X100162676Y-116750000D01*
X100199423Y-116945294D01*
X100314842Y-117124660D01*
X100490951Y-117244990D01*
X100700000Y-117287324D01*
X101600000Y-117287324D01*
X101795294Y-117250577D01*
X101974660Y-117135158D01*
X102094990Y-116959049D01*
X102137324Y-116750000D01*
X102137324Y-115050000D01*
X102100577Y-114854706D01*
X101985158Y-114675340D01*
X101877000Y-114601439D01*
X101877000Y-114451134D01*
X103489064Y-112839069D01*
X103489067Y-112839067D01*
X103646660Y-112603211D01*
X103671765Y-112477000D01*
X103702001Y-112325000D01*
X103702000Y-112324995D01*
X103702000Y-103325683D01*
X103727000Y-103200000D01*
X103727000Y-102100000D01*
X103671660Y-101821789D01*
X103514067Y-101585933D01*
X103514064Y-101585931D01*
X101927000Y-99998866D01*
X101927000Y-99396049D01*
X102112504Y-99210868D01*
X102276813Y-98815168D01*
X102277187Y-98386711D01*
X102113569Y-97990725D01*
X101810868Y-97687496D01*
X101415168Y-97523187D01*
X100986711Y-97522813D01*
X100590725Y-97686431D01*
X100287496Y-97989132D01*
X100143840Y-98335093D01*
X100115168Y-98323187D01*
X99686711Y-98322813D01*
X99290725Y-98486431D01*
X98987496Y-98789132D01*
X98950111Y-98879164D01*
X98913569Y-98790725D01*
X98610868Y-98487496D01*
X98215168Y-98323187D01*
X97786711Y-98322813D01*
X97390725Y-98486431D01*
X97087496Y-98789132D01*
X96923187Y-99184832D01*
X96922813Y-99613289D01*
X97046517Y-99912676D01*
X97000000Y-99912676D01*
X96804706Y-99949423D01*
X96625340Y-100064842D01*
X96505010Y-100240951D01*
X96462676Y-100450000D01*
X96462676Y-102150000D01*
X96499423Y-102345294D01*
X96614842Y-102524660D01*
X96790951Y-102644990D01*
X97000000Y-102687324D01*
X97723000Y-102687324D01*
X97723000Y-102949995D01*
X97722999Y-102950000D01*
X97755635Y-103114067D01*
X97778340Y-103228211D01*
X97898471Y-103408001D01*
X97901595Y-103412676D01*
X97600000Y-103412676D01*
X97404706Y-103449423D01*
X97225340Y-103564842D01*
X97105010Y-103740951D01*
X97062676Y-103950000D01*
X97062676Y-104445405D01*
X96900810Y-104412626D01*
X96100710Y-104412626D01*
X95905416Y-104449373D01*
X95726050Y-104564792D01*
X95605720Y-104740901D01*
X95563386Y-104949950D01*
X95563386Y-105750050D01*
X95600133Y-105945344D01*
X95715552Y-106124710D01*
X95891661Y-106245040D01*
X96100710Y-106287374D01*
X96641618Y-106287374D01*
X96605010Y-106340951D01*
X96562676Y-106550000D01*
X96562676Y-108250000D01*
X96599423Y-108445294D01*
X96714842Y-108624660D01*
X96890951Y-108744990D01*
X97100000Y-108787324D01*
X98000000Y-108787324D01*
X98195294Y-108750577D01*
X98374660Y-108635158D01*
X98435500Y-108546116D01*
X98435500Y-109412676D01*
X97600000Y-109412676D01*
X97404706Y-109449423D01*
X97225340Y-109564842D01*
X97105010Y-109740951D01*
X97062676Y-109950000D01*
X97062676Y-110445405D01*
X96900810Y-110412626D01*
X96100710Y-110412626D01*
X95905416Y-110449373D01*
X95726050Y-110564792D01*
X95605720Y-110740901D01*
X95563386Y-110949950D01*
X95563386Y-111750050D01*
X95600133Y-111945344D01*
X95715552Y-112124710D01*
X95891661Y-112245040D01*
X96100710Y-112287374D01*
X96641618Y-112287374D01*
X96605010Y-112340951D01*
X96562676Y-112550000D01*
X96562676Y-114250000D01*
X96599423Y-114445294D01*
X96714842Y-114624660D01*
X96890951Y-114744990D01*
X97100000Y-114787324D01*
X97341652Y-114787324D01*
X97305010Y-114840951D01*
X97262676Y-115050000D01*
X97262676Y-115859190D01*
X96609240Y-116512626D01*
X96100710Y-116512626D01*
X95905416Y-116549373D01*
X95726050Y-116664792D01*
X95605720Y-116840901D01*
X95563386Y-117049950D01*
X95563386Y-117850050D01*
X95600133Y-118045344D01*
X95715552Y-118224710D01*
X95891661Y-118345040D01*
X96100710Y-118387374D01*
X96384492Y-118387374D01*
X96085933Y-118685933D01*
X95928340Y-118921789D01*
X95928340Y-118921790D01*
X95872999Y-119200000D01*
X95873000Y-119200005D01*
X95873000Y-119777459D01*
X95800000Y-119762676D01*
X94200000Y-119762676D01*
X94004706Y-119799423D01*
X93825340Y-119914842D01*
X93705010Y-120090951D01*
X93701371Y-120108923D01*
X93700577Y-120104706D01*
X93585158Y-119925340D01*
X93409049Y-119805010D01*
X93200000Y-119762676D01*
X91600000Y-119762676D01*
X91404706Y-119799423D01*
X91225340Y-119914842D01*
X91105010Y-120090951D01*
X91077786Y-120225388D01*
X89337324Y-118484926D01*
X89337324Y-116700000D01*
X89300577Y-116504706D01*
X89185158Y-116325340D01*
X89009049Y-116205010D01*
X88800000Y-116162676D01*
X87000000Y-116162676D01*
X86804706Y-116199423D01*
X86625340Y-116314842D01*
X86505010Y-116490951D01*
X86462676Y-116700000D01*
X86462676Y-120300000D01*
X86499423Y-120495294D01*
X86614842Y-120674660D01*
X86790951Y-120794990D01*
X87000000Y-120837324D01*
X88784926Y-120837324D01*
X89973801Y-122026199D01*
X90306984Y-122248824D01*
X90700000Y-122327000D01*
X97112676Y-122327000D01*
X97112676Y-123200000D01*
X97149423Y-123395294D01*
X97264842Y-123574660D01*
X97440951Y-123694990D01*
X97650000Y-123737324D01*
X98300536Y-123737324D01*
X98500000Y-123777000D01*
X98699464Y-123737324D01*
X99350000Y-123737324D01*
X99545294Y-123700577D01*
X99724660Y-123585158D01*
X99844990Y-123409049D01*
X99887324Y-123200000D01*
X99887324Y-122327000D01*
X102650000Y-122327000D01*
X103043016Y-122248824D01*
X103376199Y-122026199D01*
X103537898Y-121864500D01*
X105962676Y-121864500D01*
X105962676Y-122184926D01*
X104674602Y-123473000D01*
X102800000Y-123473000D01*
X102406984Y-123551176D01*
X102389773Y-123562676D01*
X101700000Y-123562676D01*
X101504706Y-123599423D01*
X101325340Y-123714842D01*
X101205010Y-123890951D01*
X101162676Y-124100000D01*
X101162676Y-125584926D01*
X100614433Y-126133169D01*
X100157202Y-126132771D01*
X99669297Y-126334369D01*
X99295681Y-126707334D01*
X99093231Y-127194885D01*
X99092771Y-127722798D01*
X99294369Y-128210703D01*
X99667334Y-128584319D01*
X100154885Y-128786769D01*
X100682798Y-128787229D01*
X101170703Y-128585631D01*
X101544319Y-128212666D01*
X101618586Y-128033812D01*
X102926199Y-126726199D01*
X103148824Y-126393016D01*
X103171660Y-126278211D01*
X103227001Y-126000000D01*
X103227000Y-125999995D01*
X103227000Y-125750981D01*
X103237324Y-125700000D01*
X103237324Y-125527000D01*
X105100000Y-125527000D01*
X105493016Y-125448824D01*
X105826199Y-125226199D01*
X107115074Y-123937324D01*
X107500000Y-123937324D01*
X107695294Y-123900577D01*
X107874660Y-123785158D01*
X107982725Y-123627000D01*
X110300000Y-123627000D01*
X110693016Y-123548824D01*
X111026199Y-123326199D01*
X113166199Y-121186199D01*
X113388824Y-120853016D01*
X113467000Y-120460000D01*
X113467000Y-120312609D01*
X113509660Y-120285158D01*
X113629990Y-120109049D01*
X113672324Y-119900000D01*
X113672324Y-115300000D01*
X113635577Y-115104706D01*
X113520158Y-114925340D01*
X113344049Y-114805010D01*
X113135000Y-114762676D01*
X111745000Y-114762676D01*
X111549706Y-114799423D01*
X111370340Y-114914842D01*
X111250010Y-115090951D01*
X111207676Y-115300000D01*
X111207676Y-119900000D01*
X111244423Y-120095294D01*
X111286664Y-120160938D01*
X110866016Y-120581586D01*
X110918421Y-120318129D01*
X110969660Y-120285158D01*
X111089990Y-120109049D01*
X111132324Y-119900000D01*
X111132324Y-115300000D01*
X111095577Y-115104706D01*
X110980158Y-114925340D01*
X110927000Y-114889019D01*
X110927000Y-113687324D01*
X115300000Y-113687324D01*
X115495294Y-113650577D01*
X115674660Y-113535158D01*
X115794990Y-113359049D01*
X115837324Y-113150000D01*
X115837324Y-112477000D01*
X129550000Y-112477000D01*
X129943016Y-112398824D01*
X130276199Y-112176199D01*
X130826196Y-111626201D01*
X130826199Y-111626199D01*
X131048824Y-111293016D01*
X131113586Y-110967435D01*
X131176813Y-110815168D01*
X131177187Y-110386711D01*
X131013569Y-109990725D01*
X130710868Y-109687496D01*
X130315168Y-109523187D01*
X129886711Y-109522813D01*
X129490725Y-109686431D01*
X129187496Y-109989132D01*
X129023187Y-110384832D01*
X129023154Y-110423000D01*
X115837324Y-110423000D01*
X115837324Y-103750000D01*
X115800577Y-103554706D01*
X115685158Y-103375340D01*
X115509049Y-103255010D01*
X115300000Y-103212676D01*
X110927000Y-103212676D01*
X110927000Y-102300005D01*
X110927001Y-102300000D01*
X110848824Y-101906984D01*
X110787389Y-101815040D01*
X110915199Y-101900439D01*
X111021790Y-101971661D01*
X111300000Y-102027001D01*
X111300005Y-102027000D01*
X115146676Y-102027000D01*
X115146676Y-102316000D01*
X115183423Y-102511294D01*
X115298842Y-102690660D01*
X115474951Y-102810990D01*
X115684000Y-102853324D01*
X116023390Y-102853324D01*
X116028340Y-102878211D01*
X116090781Y-102971661D01*
X116185933Y-103114067D01*
X118561416Y-105489549D01*
X118561416Y-106600150D01*
X118598163Y-106795444D01*
X118713582Y-106974810D01*
X118889691Y-107095140D01*
X119098740Y-107137474D01*
X122598860Y-107137474D01*
X122794154Y-107100727D01*
X122973520Y-106985308D01*
X123093850Y-106809199D01*
X123136184Y-106600150D01*
X123136184Y-104199850D01*
X125063816Y-104199850D01*
X125063816Y-106600150D01*
X125100563Y-106795444D01*
X125215982Y-106974810D01*
X125392091Y-107095140D01*
X125601140Y-107137474D01*
X129101260Y-107137474D01*
X129108061Y-107136194D01*
X130623173Y-108651307D01*
X130622762Y-109122701D01*
X130831956Y-109628989D01*
X131218974Y-110016683D01*
X131724896Y-110226760D01*
X132272701Y-110227238D01*
X132778989Y-110018044D01*
X133166683Y-109631026D01*
X133376760Y-109125104D01*
X133377238Y-108577299D01*
X133168044Y-108071011D01*
X132781026Y-107683317D01*
X132275104Y-107473240D01*
X131727299Y-107472762D01*
X131567092Y-107538958D01*
X129638584Y-105610450D01*
X129638584Y-104199850D01*
X129601837Y-104004556D01*
X129486418Y-103825190D01*
X129310309Y-103704860D01*
X129101260Y-103662526D01*
X125601140Y-103662526D01*
X125405846Y-103699273D01*
X125226480Y-103814692D01*
X125106150Y-103990801D01*
X125063816Y-104199850D01*
X123136184Y-104199850D01*
X123099437Y-104004556D01*
X122984018Y-103825190D01*
X122807909Y-103704860D01*
X122598860Y-103662526D01*
X119098740Y-103662526D01*
X118903446Y-103699273D01*
X118857179Y-103729045D01*
X117931627Y-102803493D01*
X118090660Y-102701158D01*
X118210990Y-102525049D01*
X118253324Y-102316000D01*
X118253324Y-100284000D01*
X118216577Y-100088706D01*
X118101158Y-99909340D01*
X117980649Y-99827000D01*
X118462676Y-99827000D01*
X118462676Y-99900000D01*
X118499423Y-100095294D01*
X118614842Y-100274660D01*
X118790951Y-100394990D01*
X119000000Y-100437324D01*
X120000000Y-100437324D01*
X120195294Y-100400577D01*
X120374660Y-100285158D01*
X120494990Y-100109049D01*
X120537324Y-99900000D01*
X120537324Y-98300000D01*
X121462676Y-98300000D01*
X121462676Y-99900000D01*
X121499423Y-100095294D01*
X121614842Y-100274660D01*
X121790951Y-100394990D01*
X122000000Y-100437324D01*
X123000000Y-100437324D01*
X123195294Y-100400577D01*
X123374660Y-100285158D01*
X123494990Y-100109049D01*
X123537324Y-99900000D01*
X123537324Y-98300000D01*
X123512114Y-98166020D01*
X124040809Y-97637324D01*
X124850000Y-97637324D01*
X125045294Y-97600577D01*
X125224660Y-97485158D01*
X125344990Y-97309049D01*
X125387324Y-97100000D01*
X125387324Y-96200000D01*
X125350577Y-96004706D01*
X125235158Y-95825340D01*
X125059049Y-95705010D01*
X124850000Y-95662676D01*
X123150000Y-95662676D01*
X122954706Y-95699423D01*
X122775340Y-95814842D01*
X122655010Y-95990951D01*
X122612676Y-96200000D01*
X122612676Y-97009190D01*
X121985933Y-97635933D01*
X121887045Y-97783930D01*
X121804706Y-97799423D01*
X121625340Y-97914842D01*
X121505010Y-98090951D01*
X121462676Y-98300000D01*
X120537324Y-98300000D01*
X120500577Y-98104706D01*
X120385158Y-97925340D01*
X120209049Y-97805010D01*
X120000000Y-97762676D01*
X119000000Y-97762676D01*
X118804706Y-97799423D01*
X118625340Y-97914842D01*
X118505010Y-98090951D01*
X118462676Y-98300000D01*
X118462676Y-98373000D01*
X118196250Y-98373000D01*
X118155775Y-98169519D01*
X117821295Y-97668934D01*
X117320710Y-97334454D01*
X116730229Y-97217000D01*
X116669771Y-97217000D01*
X116265540Y-97297406D01*
X116154067Y-97185933D01*
X116067872Y-97128340D01*
X115918211Y-97028340D01*
X115872052Y-97019158D01*
X115640000Y-96972999D01*
X115639995Y-96973000D01*
X114200000Y-96973000D01*
X113921789Y-97028340D01*
X113685933Y-97185933D01*
X113685931Y-97185936D01*
X113584099Y-97287767D01*
X113413206Y-97319923D01*
X113233840Y-97435342D01*
X113113510Y-97611451D01*
X113071176Y-97820500D01*
X113071176Y-99370500D01*
X113107923Y-99565794D01*
X113223342Y-99745160D01*
X113399451Y-99865490D01*
X113608500Y-99907824D01*
X114208500Y-99907824D01*
X114403794Y-99871077D01*
X114583160Y-99755658D01*
X114703490Y-99579549D01*
X114745824Y-99370500D01*
X114745824Y-98427000D01*
X115193009Y-98427000D01*
X115126771Y-98760000D01*
X115244225Y-99350481D01*
X115528504Y-99775935D01*
X115488706Y-99783423D01*
X115309340Y-99898842D01*
X115189010Y-100074951D01*
X115146676Y-100284000D01*
X115146676Y-100573000D01*
X111601133Y-100573000D01*
X110902301Y-99874168D01*
X111068500Y-99907824D01*
X111668500Y-99907824D01*
X111863794Y-99871077D01*
X112043160Y-99755658D01*
X112163490Y-99579549D01*
X112205824Y-99370500D01*
X112205824Y-97820500D01*
X112169077Y-97625206D01*
X112095500Y-97510864D01*
X112095500Y-96632634D01*
X112401133Y-96327000D01*
X115199995Y-96327000D01*
X115200000Y-96327001D01*
X115432052Y-96280842D01*
X115478211Y-96271660D01*
X115714067Y-96114067D01*
X116969378Y-94858755D01*
X118625133Y-94858755D01*
X118946368Y-95636204D01*
X119540668Y-96231541D01*
X120317555Y-96554133D01*
X121158755Y-96554867D01*
X121936204Y-96233632D01*
X122531541Y-95639332D01*
X122683779Y-95272701D01*
X128122762Y-95272701D01*
X128331956Y-95778989D01*
X128718974Y-96166683D01*
X129224896Y-96376760D01*
X129772701Y-96377238D01*
X130278989Y-96168044D01*
X130666683Y-95781026D01*
X130876760Y-95275104D01*
X130877238Y-94727299D01*
X130668044Y-94221011D01*
X130281026Y-93833317D01*
X129775104Y-93623240D01*
X129227299Y-93622762D01*
X128721011Y-93831956D01*
X128333317Y-94218974D01*
X128123240Y-94724896D01*
X128122762Y-95272701D01*
X122683779Y-95272701D01*
X122854133Y-94862445D01*
X122854867Y-94021245D01*
X122533632Y-93243796D01*
X121939332Y-92648459D01*
X121162445Y-92325867D01*
X120321245Y-92325133D01*
X119543796Y-92646368D01*
X118948459Y-93240668D01*
X118625867Y-94017555D01*
X118625133Y-94858755D01*
X116969378Y-94858755D01*
X117890809Y-93937324D01*
X118300000Y-93937324D01*
X118495294Y-93900577D01*
X118674660Y-93785158D01*
X118794990Y-93609049D01*
X118837324Y-93400000D01*
X118837324Y-92400000D01*
X118800577Y-92204706D01*
X118747493Y-92122211D01*
X125372718Y-92122211D01*
X125619892Y-92720418D01*
X126077175Y-93178499D01*
X126674950Y-93426717D01*
X127322211Y-93427282D01*
X127920418Y-93180108D01*
X128378499Y-92722825D01*
X128626717Y-92125050D01*
X128627282Y-91477789D01*
X128380108Y-90879582D01*
X127922825Y-90421501D01*
X127325050Y-90173283D01*
X126677789Y-90172718D01*
X126079582Y-90419892D01*
X125621501Y-90877175D01*
X125373283Y-91474950D01*
X125372718Y-92122211D01*
X118747493Y-92122211D01*
X118685158Y-92025340D01*
X118509049Y-91905010D01*
X118300000Y-91862676D01*
X118227000Y-91862676D01*
X118227000Y-89551134D01*
X118390810Y-89387324D01*
X119200000Y-89387324D01*
X119395294Y-89350577D01*
X119574660Y-89235158D01*
X119694990Y-89059049D01*
X119737324Y-88850000D01*
X119737324Y-87150000D01*
X119700577Y-86954706D01*
X119585158Y-86775340D01*
X119409049Y-86655010D01*
X119296014Y-86632120D01*
X120014064Y-85914069D01*
X120014067Y-85914067D01*
X120171660Y-85678211D01*
X120227000Y-85400000D01*
X120227000Y-83851134D01*
X121714067Y-82364067D01*
X122626133Y-81452000D01*
X123025489Y-81452000D01*
X123297334Y-81724319D01*
X123784885Y-81926769D01*
X124312798Y-81927229D01*
X124800703Y-81725631D01*
X125174319Y-81352666D01*
X125376769Y-80865115D01*
X125376934Y-80676200D01*
X126151133Y-79902000D01*
X129648866Y-79902000D01*
X129723000Y-79976133D01*
X129723000Y-80474995D01*
X129722999Y-80475000D01*
X129745066Y-80585933D01*
X129778340Y-80753211D01*
X129884776Y-80912504D01*
X129935933Y-80989067D01*
X130568434Y-81621568D01*
X130562676Y-81650000D01*
X130562676Y-83350000D01*
X130599423Y-83545294D01*
X130714842Y-83724660D01*
X130890951Y-83844990D01*
X131100000Y-83887324D01*
X131909191Y-83887324D01*
X132273000Y-84251133D01*
X132273000Y-89799995D01*
X132272999Y-89800000D01*
X132300662Y-89939066D01*
X132328340Y-90078211D01*
X132473790Y-90295894D01*
X132485933Y-90314067D01*
X133453539Y-91281673D01*
X133373283Y-91474950D01*
X133372718Y-92122211D01*
X133619892Y-92720418D01*
X134077175Y-93178499D01*
X134273000Y-93259813D01*
X134273000Y-96739973D01*
X134079582Y-96819892D01*
X133621501Y-97277175D01*
X133373283Y-97874950D01*
X133372718Y-98522211D01*
X133619892Y-99120418D01*
X133971860Y-99473000D01*
X129301134Y-99473000D01*
X128546461Y-98718327D01*
X128626717Y-98525050D01*
X128627282Y-97877789D01*
X128380108Y-97279582D01*
X127922825Y-96821501D01*
X127325050Y-96573283D01*
X126677789Y-96572718D01*
X126079582Y-96819892D01*
X125621501Y-97277175D01*
X125373283Y-97874950D01*
X125372718Y-98522211D01*
X125619892Y-99120418D01*
X126077175Y-99578499D01*
X126674950Y-99826717D01*
X127322211Y-99827282D01*
X127518177Y-99746311D01*
X128485933Y-100714067D01*
X128721789Y-100871660D01*
X129000000Y-100927000D01*
X129171772Y-100927000D01*
X129023187Y-101284832D01*
X129022813Y-101713289D01*
X129186431Y-102109275D01*
X129489132Y-102412504D01*
X129884832Y-102576813D01*
X130313289Y-102577187D01*
X130434751Y-102527000D01*
X136600000Y-102527000D01*
X136993016Y-102448824D01*
X137326199Y-102226199D01*
X140146056Y-99406341D01*
X140146059Y-99406339D01*
X140368684Y-99073156D01*
X140446860Y-98680140D01*
X140446860Y-90229490D01*
X140494990Y-90159049D01*
X140498000Y-90144185D01*
X140498000Y-129498000D01*
X133251590Y-129498000D01*
X133486858Y-129263142D01*
X133826613Y-128444921D01*
X133827386Y-127558966D01*
X133489060Y-126740154D01*
X132863142Y-126113142D01*
X132044921Y-125773387D01*
X131158966Y-125772614D01*
X130340154Y-126110940D01*
X129713142Y-126736858D01*
X129373387Y-127555079D01*
X129372614Y-128441034D01*
X129710940Y-129259846D01*
X129948678Y-129498000D01*
X107030134Y-129498000D01*
X107751200Y-128776934D01*
X107774885Y-128786769D01*
X108302798Y-128787229D01*
X108790703Y-128585631D01*
X109164319Y-128212666D01*
X109310109Y-127861567D01*
X109454369Y-128210703D01*
X109827334Y-128584319D01*
X110314885Y-128786769D01*
X110842798Y-128787229D01*
X111330703Y-128585631D01*
X111704319Y-128212666D01*
X111850109Y-127861567D01*
X111994369Y-128210703D01*
X112367334Y-128584319D01*
X112854885Y-128786769D01*
X113382798Y-128787229D01*
X113870703Y-128585631D01*
X114244319Y-128212666D01*
X114390109Y-127861567D01*
X114534369Y-128210703D01*
X114907334Y-128584319D01*
X115394885Y-128786769D01*
X115922798Y-128787229D01*
X116410703Y-128585631D01*
X116784319Y-128212666D01*
X116930109Y-127861567D01*
X117074369Y-128210703D01*
X117447334Y-128584319D01*
X117934885Y-128786769D01*
X118462798Y-128787229D01*
X118950703Y-128585631D01*
X119324319Y-128212666D01*
X119526769Y-127725115D01*
X119527229Y-127197202D01*
X119325631Y-126709297D01*
X119243477Y-126627000D01*
X126149995Y-126627000D01*
X126150000Y-126627001D01*
X126382052Y-126580842D01*
X126428211Y-126571660D01*
X126664067Y-126414067D01*
X128001134Y-125077000D01*
X137554313Y-125077000D01*
X137868887Y-125392124D01*
X138342477Y-125588776D01*
X138855273Y-125589223D01*
X139329206Y-125393398D01*
X139692124Y-125031113D01*
X139888776Y-124557523D01*
X139889223Y-124044727D01*
X139693398Y-123570794D01*
X139331113Y-123207876D01*
X138857523Y-123011224D01*
X138344727Y-123010777D01*
X137870794Y-123206602D01*
X137507876Y-123568887D01*
X137485406Y-123623000D01*
X129277000Y-123623000D01*
X129277000Y-118500000D01*
X129221660Y-118221789D01*
X129064067Y-117985933D01*
X129064064Y-117985931D01*
X127119168Y-116041034D01*
X129372614Y-116041034D01*
X129710940Y-116859846D01*
X130336858Y-117486858D01*
X131155079Y-117826613D01*
X132041034Y-117827386D01*
X132859846Y-117489060D01*
X133486858Y-116863142D01*
X133826613Y-116044921D01*
X133827386Y-115158966D01*
X133489060Y-114340154D01*
X132863142Y-113713142D01*
X132044921Y-113373387D01*
X131158966Y-113372614D01*
X130340154Y-113710940D01*
X129713142Y-114336858D01*
X129373387Y-115155079D01*
X129372614Y-116041034D01*
X127119168Y-116041034D01*
X125787324Y-114709190D01*
X125787324Y-113900000D01*
X125750577Y-113704706D01*
X125635158Y-113525340D01*
X125459049Y-113405010D01*
X125250000Y-113362676D01*
X123550000Y-113362676D01*
X123354706Y-113399423D01*
X123175340Y-113514842D01*
X123151168Y-113550220D01*
X123135158Y-113525340D01*
X122959049Y-113405010D01*
X122750000Y-113362676D01*
X121050000Y-113362676D01*
X120854706Y-113399423D01*
X120675340Y-113514842D01*
X120555010Y-113690951D01*
X120512676Y-113900000D01*
X120512676Y-114800000D01*
X120549423Y-114995294D01*
X120664842Y-115174660D01*
X120840951Y-115294990D01*
X121050000Y-115337324D01*
X121859190Y-115337324D01*
X122635933Y-116114067D01*
X122871789Y-116271660D01*
X122917948Y-116280842D01*
X123150000Y-116327001D01*
X123150005Y-116327000D01*
X123998866Y-116327000D01*
X126773000Y-119101133D01*
X126773000Y-122998867D01*
X126198866Y-123573000D01*
X125194310Y-123573000D01*
X125193398Y-123570794D01*
X124831113Y-123207876D01*
X124357523Y-123011224D01*
X123844727Y-123010777D01*
X123370794Y-123206602D01*
X123007876Y-123568887D01*
X122840073Y-123973000D01*
X122137186Y-123973000D01*
X122531541Y-123579332D01*
X122854133Y-122802445D01*
X122854867Y-121961245D01*
X122533632Y-121183796D01*
X121939332Y-120588459D01*
X121162445Y-120265867D01*
X120321245Y-120265133D01*
X119543796Y-120586368D01*
X119427000Y-120702961D01*
X119427000Y-120027000D01*
X123005690Y-120027000D01*
X123006602Y-120029206D01*
X123368887Y-120392124D01*
X123842477Y-120588776D01*
X124355273Y-120589223D01*
X124829206Y-120393398D01*
X125192124Y-120031113D01*
X125388776Y-119557523D01*
X125389223Y-119044727D01*
X125193398Y-118570794D01*
X124831113Y-118207876D01*
X124357523Y-118011224D01*
X123844727Y-118010777D01*
X123370794Y-118206602D01*
X123007876Y-118568887D01*
X123006168Y-118573000D01*
X119427000Y-118573000D01*
X119427000Y-115337324D01*
X119550000Y-115337324D01*
X119745294Y-115300577D01*
X119924660Y-115185158D01*
X120044990Y-115009049D01*
X120087324Y-114800000D01*
X120087324Y-113900000D01*
X120050577Y-113704706D01*
X119935158Y-113525340D01*
X119759049Y-113405010D01*
X119550000Y-113362676D01*
X117850000Y-113362676D01*
X117654706Y-113399423D01*
X117475340Y-113514842D01*
X117355010Y-113690951D01*
X117312676Y-113900000D01*
X117312676Y-114800000D01*
X117349423Y-114995294D01*
X117464842Y-115174660D01*
X117640951Y-115294990D01*
X117850000Y-115337324D01*
X117973000Y-115337324D01*
X117973000Y-119099995D01*
X117972999Y-119100000D01*
X117973000Y-119100005D01*
X117973000Y-121198866D01*
X117785933Y-121385933D01*
X117628340Y-121621789D01*
X117628340Y-121621790D01*
X117572999Y-121900000D01*
X117573000Y-121900005D01*
X117573000Y-123348867D01*
X115623866Y-125298000D01*
X114175000Y-125298000D01*
X113896789Y-125353340D01*
X113660933Y-125510933D01*
X113660931Y-125510936D01*
X113038937Y-126132929D01*
X112857202Y-126132771D01*
X112369297Y-126334369D01*
X111995681Y-126707334D01*
X111849891Y-127058433D01*
X111705631Y-126709297D01*
X111512402Y-126515731D01*
X111951175Y-126076958D01*
X112213289Y-126077187D01*
X112609275Y-125913569D01*
X112912504Y-125610868D01*
X113076813Y-125215168D01*
X113077187Y-124786711D01*
X112913569Y-124390725D01*
X112610868Y-124087496D01*
X112215168Y-123923187D01*
X111786711Y-123922813D01*
X111390725Y-124086431D01*
X111087496Y-124389132D01*
X110923187Y-124784832D01*
X110922956Y-125048910D01*
X110065933Y-125905933D01*
X109908340Y-126141789D01*
X109908340Y-126141790D01*
X109873680Y-126316030D01*
X109829297Y-126334369D01*
X109455681Y-126707334D01*
X109309891Y-127058433D01*
X109165631Y-126709297D01*
X108792666Y-126335681D01*
X108305115Y-126133231D01*
X107777202Y-126132771D01*
X107289297Y-126334369D01*
X106915681Y-126707334D01*
X106769891Y-127058433D01*
X106625631Y-126709297D01*
X106252666Y-126335681D01*
X105765115Y-126133231D01*
X105237202Y-126132771D01*
X104749297Y-126334369D01*
X104375681Y-126707334D01*
X104173231Y-127194885D01*
X104172771Y-127722798D01*
X104374369Y-128210703D01*
X104436557Y-128273000D01*
X103996049Y-128273000D01*
X103810868Y-128087496D01*
X103415168Y-127923187D01*
X102986711Y-127922813D01*
X102590725Y-128086431D01*
X102287496Y-128389132D01*
X102123187Y-128784832D01*
X102122813Y-129213289D01*
X102240453Y-129498000D01*
X79200895Y-129498000D01*
X79276813Y-129315168D01*
X79277187Y-128886711D01*
X79113569Y-128490725D01*
X78810868Y-128187496D01*
X78415168Y-128023187D01*
X77986711Y-128022813D01*
X77590725Y-128186431D01*
X77403831Y-128373000D01*
X74187324Y-128373000D01*
X74187324Y-127800000D01*
X74150577Y-127604706D01*
X74035158Y-127425340D01*
X73859049Y-127305010D01*
X73650000Y-127262676D01*
X71950000Y-127262676D01*
X71754706Y-127299423D01*
X71575340Y-127414842D01*
X71455010Y-127590951D01*
X71412676Y-127800000D01*
X71412676Y-128700000D01*
X71449423Y-128895294D01*
X71564842Y-129074660D01*
X71740951Y-129194990D01*
X71950000Y-129237324D01*
X72759191Y-129237324D01*
X73019867Y-129498000D01*
X69274788Y-129498000D01*
X69866204Y-129253632D01*
X70461541Y-128659332D01*
X70784133Y-127882445D01*
X70784867Y-127041245D01*
X70463632Y-126263796D01*
X69869332Y-125668459D01*
X69092445Y-125345867D01*
X68251245Y-125345133D01*
X67473796Y-125666368D01*
X66878459Y-126260668D01*
X66555867Y-127037555D01*
X66555133Y-127878755D01*
X66876368Y-128656204D01*
X67470668Y-129251541D01*
X68064207Y-129498000D01*
X55202000Y-129498000D01*
X55202000Y-127117371D01*
X59349400Y-127117371D01*
X59349400Y-127482629D01*
X59455253Y-128014789D01*
X59756697Y-128465932D01*
X60207840Y-128767376D01*
X60740000Y-128873229D01*
X61272160Y-128767376D01*
X61723303Y-128465932D01*
X62010000Y-128036859D01*
X62296697Y-128465932D01*
X62747840Y-128767376D01*
X63280000Y-128873229D01*
X63812160Y-128767376D01*
X64263303Y-128465932D01*
X64564747Y-128014789D01*
X64670600Y-127482629D01*
X64670600Y-127117371D01*
X64564747Y-126585211D01*
X64263303Y-126134068D01*
X64221798Y-126106335D01*
X65601133Y-124727000D01*
X71148866Y-124727000D01*
X71412676Y-124990810D01*
X71412676Y-125800000D01*
X71449423Y-125995294D01*
X71564842Y-126174660D01*
X71740951Y-126294990D01*
X71950000Y-126337324D01*
X73650000Y-126337324D01*
X73845294Y-126300577D01*
X74024660Y-126185158D01*
X74144990Y-126009049D01*
X74187324Y-125800000D01*
X74187324Y-124900000D01*
X74150577Y-124704706D01*
X74035158Y-124525340D01*
X73859049Y-124405010D01*
X73650000Y-124362676D01*
X72840809Y-124362676D01*
X72305134Y-123827000D01*
X73998866Y-123827000D01*
X76585933Y-126414067D01*
X76821789Y-126571660D01*
X76867948Y-126580842D01*
X77100000Y-126627001D01*
X77100005Y-126627000D01*
X81596155Y-126627000D01*
X81515681Y-126707334D01*
X81313231Y-127194885D01*
X81312771Y-127722798D01*
X81514369Y-128210703D01*
X81887334Y-128584319D01*
X82374885Y-128786769D01*
X82902798Y-128787229D01*
X83390703Y-128585631D01*
X83764319Y-128212666D01*
X83910109Y-127861567D01*
X84054369Y-128210703D01*
X84427334Y-128584319D01*
X84914885Y-128786769D01*
X85442798Y-128787229D01*
X85930703Y-128585631D01*
X86304319Y-128212666D01*
X86450109Y-127861567D01*
X86594369Y-128210703D01*
X86967334Y-128584319D01*
X87454885Y-128786769D01*
X87982798Y-128787229D01*
X88470703Y-128585631D01*
X88844319Y-128212666D01*
X88990109Y-127861567D01*
X89134369Y-128210703D01*
X89507334Y-128584319D01*
X89994885Y-128786769D01*
X90522798Y-128787229D01*
X91010703Y-128585631D01*
X91384319Y-128212666D01*
X91530109Y-127861567D01*
X91674369Y-128210703D01*
X92047334Y-128584319D01*
X92534885Y-128786769D01*
X93062798Y-128787229D01*
X93550703Y-128585631D01*
X93924319Y-128212666D01*
X94126769Y-127725115D01*
X94127229Y-127197202D01*
X93925631Y-126709297D01*
X93552666Y-126335681D01*
X93065115Y-126133231D01*
X92861187Y-126133053D01*
X92114067Y-125385933D01*
X92057805Y-125348340D01*
X91878211Y-125228340D01*
X91832052Y-125219158D01*
X91600000Y-125172999D01*
X91599995Y-125173000D01*
X77401134Y-125173000D01*
X74814067Y-122585933D01*
X74792706Y-122571660D01*
X74578211Y-122428340D01*
X74532052Y-122419158D01*
X74300000Y-122372999D01*
X74299995Y-122373000D01*
X64940005Y-122373000D01*
X64940000Y-122372999D01*
X64707948Y-122419158D01*
X64661789Y-122428340D01*
X64447294Y-122571660D01*
X64425933Y-122585933D01*
X61194658Y-125817208D01*
X60740000Y-125726771D01*
X60207840Y-125832624D01*
X59756697Y-126134068D01*
X59455253Y-126585211D01*
X59349400Y-127117371D01*
X55202000Y-127117371D01*
X55202000Y-116573000D01*
X57215858Y-116573000D01*
X57215858Y-120127000D01*
X57330143Y-120127000D01*
X57330143Y-123427000D01*
X63269857Y-123427000D01*
X63269857Y-120127000D01*
X66584143Y-120127000D01*
X66584143Y-116573000D01*
X57215858Y-116573000D01*
X55202000Y-116573000D01*
X55202000Y-77502000D01*
X59293085Y-77502000D01*
X59293085Y-78342478D01*
X59293085Y-78342478D01*
G37*
X59293085Y-78342478D02*
X58965356Y-78832959D01*
X58773000Y-79800000D01*
X58773000Y-86673000D01*
X57100000Y-86673000D01*
X57053841Y-86681685D01*
X57011447Y-86708965D01*
X56983006Y-86750590D01*
X56973000Y-86800000D01*
X56973000Y-113000000D01*
X56981685Y-113046159D01*
X57008965Y-113088553D01*
X57050590Y-113116994D01*
X57100000Y-113127000D01*
X64053282Y-113127000D01*
X66763141Y-115836859D01*
X67582959Y-116384644D01*
X68550000Y-116577000D01*
X72000000Y-116577000D01*
X72352342Y-116506915D01*
X72701777Y-116506915D01*
X72662676Y-116700000D01*
X72662676Y-120300000D01*
X72699423Y-120495294D01*
X72814842Y-120674660D01*
X72990951Y-120794990D01*
X73200000Y-120837324D01*
X75000000Y-120837324D01*
X75195294Y-120800577D01*
X75374660Y-120685158D01*
X75494990Y-120509049D01*
X75537324Y-120300000D01*
X75537324Y-116700000D01*
X75500577Y-116504706D01*
X75385158Y-116325340D01*
X75209049Y-116205010D01*
X75000000Y-116162676D01*
X74735366Y-116162676D01*
X74885591Y-116066009D01*
X75234252Y-115555727D01*
X75356915Y-114950000D01*
X75356915Y-113150000D01*
X87662676Y-113150000D01*
X87662676Y-114950000D01*
X87699423Y-115145294D01*
X87814842Y-115324660D01*
X87990951Y-115444990D01*
X88200000Y-115487324D01*
X91800000Y-115487324D01*
X91995294Y-115450577D01*
X92174660Y-115335158D01*
X92229112Y-115255465D01*
X93564406Y-116590759D01*
X93564406Y-116900050D01*
X93601153Y-117095344D01*
X93716572Y-117274710D01*
X93892681Y-117395040D01*
X94101730Y-117437374D01*
X94901830Y-117437374D01*
X95097124Y-117400627D01*
X95276490Y-117285208D01*
X95396820Y-117109099D01*
X95439154Y-116900050D01*
X95439154Y-116099950D01*
X95402407Y-115904656D01*
X95286988Y-115725290D01*
X95228780Y-115685518D01*
X95228780Y-114763092D01*
X95295294Y-114750577D01*
X95474660Y-114635158D01*
X95594990Y-114459049D01*
X95637324Y-114250000D01*
X95637324Y-112550000D01*
X95600577Y-112354706D01*
X95485158Y-112175340D01*
X95309049Y-112055010D01*
X95100000Y-112012676D01*
X94200000Y-112012676D01*
X94004706Y-112049423D01*
X93825340Y-112164842D01*
X93705010Y-112340951D01*
X93662676Y-112550000D01*
X93662676Y-114250000D01*
X93699423Y-114445294D01*
X93774780Y-114562402D01*
X93774780Y-114744866D01*
X92565847Y-113535933D01*
X92479652Y-113478340D01*
X92337324Y-113383240D01*
X92337324Y-113150000D01*
X92300577Y-112954706D01*
X92185158Y-112775340D01*
X92009049Y-112655010D01*
X91800000Y-112612676D01*
X88200000Y-112612676D01*
X88004706Y-112649423D01*
X87825340Y-112764842D01*
X87705010Y-112940951D01*
X87662676Y-113150000D01*
X75356915Y-113150000D01*
X75250439Y-112584128D01*
X74916009Y-112064409D01*
X74405727Y-111715748D01*
X73800000Y-111593085D01*
X72352342Y-111593085D01*
X72000000Y-111523000D01*
X69827000Y-111523000D01*
X69827000Y-110882967D01*
X69990951Y-110994990D01*
X70200000Y-111037324D01*
X73800000Y-111037324D01*
X73995294Y-111000577D01*
X74174660Y-110885158D01*
X74294990Y-110709049D01*
X74337324Y-110500000D01*
X74337324Y-108700000D01*
X87662676Y-108700000D01*
X87662676Y-110500000D01*
X87699423Y-110695294D01*
X87814842Y-110874660D01*
X87990951Y-110994990D01*
X88200000Y-111037324D01*
X91800000Y-111037324D01*
X91995294Y-111000577D01*
X92174660Y-110885158D01*
X92294990Y-110709049D01*
X92337324Y-110500000D01*
X92337324Y-110327000D01*
X93400646Y-110327000D01*
X93564406Y-110490760D01*
X93564406Y-110800050D01*
X93601153Y-110995344D01*
X93716572Y-111174710D01*
X93892681Y-111295040D01*
X94101730Y-111337374D01*
X94901830Y-111337374D01*
X95097124Y-111300627D01*
X95276490Y-111185208D01*
X95396820Y-111009099D01*
X95439154Y-110800050D01*
X95439154Y-109999950D01*
X95402407Y-109804656D01*
X95286988Y-109625290D01*
X95228780Y-109585518D01*
X95228780Y-108763092D01*
X95295294Y-108750577D01*
X95474660Y-108635158D01*
X95594990Y-108459049D01*
X95637324Y-108250000D01*
X95637324Y-106550000D01*
X95600577Y-106354706D01*
X95485158Y-106175340D01*
X95309049Y-106055010D01*
X95100000Y-106012676D01*
X94200000Y-106012676D01*
X94004706Y-106049423D01*
X93825340Y-106164842D01*
X93705010Y-106340951D01*
X93662676Y-106550000D01*
X93662676Y-108250000D01*
X93699423Y-108445294D01*
X93774780Y-108562402D01*
X93774780Y-108887520D01*
X93701780Y-108872999D01*
X93701775Y-108873000D01*
X92337324Y-108873000D01*
X92337324Y-108700000D01*
X92300577Y-108504706D01*
X92185158Y-108325340D01*
X92009049Y-108205010D01*
X91800000Y-108162676D01*
X88200000Y-108162676D01*
X88004706Y-108199423D01*
X87825340Y-108314842D01*
X87705010Y-108490951D01*
X87662676Y-108700000D01*
X74337324Y-108700000D01*
X74300577Y-108504706D01*
X74185158Y-108325340D01*
X74009049Y-108205010D01*
X73800000Y-108162676D01*
X70200000Y-108162676D01*
X70004706Y-108199423D01*
X69864943Y-108289358D01*
X69840439Y-108159128D01*
X69827000Y-108138243D01*
X69827000Y-106432967D01*
X69990951Y-106544990D01*
X70200000Y-106587324D01*
X73800000Y-106587324D01*
X73995294Y-106550577D01*
X74174660Y-106435158D01*
X74294990Y-106259049D01*
X74337324Y-106050000D01*
X74337324Y-104250000D01*
X74300577Y-104054706D01*
X74185158Y-103875340D01*
X74009049Y-103755010D01*
X73800000Y-103712676D01*
X70200000Y-103712676D01*
X70004706Y-103749423D01*
X69827000Y-103863774D01*
X69827000Y-101982967D01*
X69990951Y-102094990D01*
X70200000Y-102137324D01*
X73800000Y-102137324D01*
X73995294Y-102100577D01*
X74174660Y-101985158D01*
X74294990Y-101809049D01*
X74337324Y-101600000D01*
X74337324Y-99800000D01*
X87662676Y-99800000D01*
X87662676Y-101600000D01*
X87699423Y-101795294D01*
X87814842Y-101974660D01*
X87990951Y-102094990D01*
X88200000Y-102137324D01*
X91800000Y-102137324D01*
X91995294Y-102100577D01*
X92174660Y-101985158D01*
X92294990Y-101809049D01*
X92337324Y-101600000D01*
X92337324Y-99800000D01*
X92300577Y-99604706D01*
X92185158Y-99425340D01*
X92009049Y-99305010D01*
X91800000Y-99262676D01*
X88200000Y-99262676D01*
X88004706Y-99299423D01*
X87825340Y-99414842D01*
X87705010Y-99590951D01*
X87662676Y-99800000D01*
X74337324Y-99800000D01*
X74300577Y-99604706D01*
X74185158Y-99425340D01*
X74009049Y-99305010D01*
X73800000Y-99262676D01*
X70200000Y-99262676D01*
X70004706Y-99299423D01*
X69827000Y-99413774D01*
X69827000Y-97532967D01*
X69990951Y-97644990D01*
X70200000Y-97687324D01*
X73800000Y-97687324D01*
X73995294Y-97650577D01*
X74174660Y-97535158D01*
X74294990Y-97359049D01*
X74337324Y-97150000D01*
X74337324Y-95350000D01*
X74300577Y-95154706D01*
X74185158Y-94975340D01*
X74009049Y-94855010D01*
X73800000Y-94812676D01*
X71590810Y-94812676D01*
X70227000Y-93448866D01*
X70227000Y-93237324D01*
X73800000Y-93237324D01*
X73995294Y-93200577D01*
X74174660Y-93085158D01*
X74294990Y-92909049D01*
X74337324Y-92700000D01*
X74337324Y-92527000D01*
X75199995Y-92527000D01*
X75200000Y-92527001D01*
X75452305Y-92476813D01*
X75478211Y-92471660D01*
X75714067Y-92314067D01*
X77128134Y-90900000D01*
X87662676Y-90900000D01*
X87662676Y-92700000D01*
X87699423Y-92895294D01*
X87814842Y-93074660D01*
X87990951Y-93194990D01*
X88200000Y-93237324D01*
X91800000Y-93237324D01*
X91995294Y-93200577D01*
X92174660Y-93085158D01*
X92294990Y-92909049D01*
X92337324Y-92700000D01*
X92337324Y-90900000D01*
X92300577Y-90704706D01*
X92185158Y-90525340D01*
X92009049Y-90405010D01*
X91800000Y-90362676D01*
X88200000Y-90362676D01*
X88004706Y-90399423D01*
X87825340Y-90514842D01*
X87705010Y-90690951D01*
X87662676Y-90900000D01*
X77128134Y-90900000D01*
X81701134Y-86327000D01*
X87687584Y-86327000D01*
X87662676Y-86450000D01*
X87662676Y-88250000D01*
X87699423Y-88445294D01*
X87814842Y-88624660D01*
X87990951Y-88744990D01*
X88200000Y-88787324D01*
X91800000Y-88787324D01*
X91995294Y-88750577D01*
X92174660Y-88635158D01*
X92294990Y-88459049D01*
X92334721Y-88262855D01*
X94685937Y-90614071D01*
X94921793Y-90771664D01*
X94967952Y-90780846D01*
X95200004Y-90827005D01*
X95200009Y-90827004D01*
X98344862Y-90827004D01*
X98085933Y-91085933D01*
X98085931Y-91085936D01*
X96885933Y-92285933D01*
X96728340Y-92521789D01*
X96727303Y-92527001D01*
X96717604Y-92575762D01*
X96685158Y-92525340D01*
X96509049Y-92405010D01*
X96300000Y-92362676D01*
X95300000Y-92362676D01*
X95104706Y-92399423D01*
X94925340Y-92514842D01*
X94805010Y-92690951D01*
X94762676Y-92900000D01*
X94762676Y-93709191D01*
X92973755Y-95498111D01*
X92867948Y-95519158D01*
X92848635Y-95523000D01*
X92337324Y-95523000D01*
X92337324Y-95350000D01*
X92300577Y-95154706D01*
X92185158Y-94975340D01*
X92009049Y-94855010D01*
X91800000Y-94812676D01*
X88200000Y-94812676D01*
X88004706Y-94849423D01*
X87825340Y-94964842D01*
X87705010Y-95140951D01*
X87662676Y-95350000D01*
X87662676Y-97150000D01*
X87699423Y-97345294D01*
X87814842Y-97524660D01*
X87990951Y-97644990D01*
X88200000Y-97687324D01*
X91800000Y-97687324D01*
X91995294Y-97650577D01*
X92174660Y-97535158D01*
X92294990Y-97359049D01*
X92337324Y-97150000D01*
X92337324Y-96977000D01*
X93049995Y-96977000D01*
X93050000Y-96977001D01*
X93050005Y-96977000D01*
X93249995Y-96977000D01*
X93250000Y-96977001D01*
X93501365Y-96927000D01*
X94862676Y-96927000D01*
X94862676Y-97050000D01*
X94899423Y-97245294D01*
X95014842Y-97424660D01*
X95190951Y-97544990D01*
X95400000Y-97587324D01*
X95884542Y-97587324D01*
X95823433Y-97648433D01*
X95823431Y-97648436D01*
X94035933Y-99435933D01*
X93878340Y-99671789D01*
X93871308Y-99707140D01*
X93822999Y-99950000D01*
X93823000Y-99950005D01*
X93823000Y-100001999D01*
X93725340Y-100064842D01*
X93605010Y-100240951D01*
X93562676Y-100450000D01*
X93562676Y-102150000D01*
X93599423Y-102345294D01*
X93714842Y-102524660D01*
X93774780Y-102565614D01*
X93774780Y-103584091D01*
X93727070Y-103614792D01*
X93606740Y-103790901D01*
X93564406Y-103999950D01*
X93564406Y-104309240D01*
X93450646Y-104423000D01*
X92337324Y-104423000D01*
X92337324Y-104250000D01*
X92300577Y-104054706D01*
X92185158Y-103875340D01*
X92009049Y-103755010D01*
X91800000Y-103712676D01*
X88200000Y-103712676D01*
X88004706Y-103749423D01*
X87825340Y-103864842D01*
X87705010Y-104040951D01*
X87662676Y-104250000D01*
X87662676Y-106050000D01*
X87699423Y-106245294D01*
X87814842Y-106424660D01*
X87990951Y-106544990D01*
X88200000Y-106587324D01*
X91800000Y-106587324D01*
X91995294Y-106550577D01*
X92174660Y-106435158D01*
X92294990Y-106259049D01*
X92337324Y-106050000D01*
X92337324Y-105877000D01*
X93751775Y-105877000D01*
X93751780Y-105877001D01*
X93983832Y-105830842D01*
X94029991Y-105821660D01*
X94265847Y-105664067D01*
X94592540Y-105337374D01*
X94901830Y-105337374D01*
X95097124Y-105300627D01*
X95276490Y-105185208D01*
X95396820Y-105009099D01*
X95439154Y-104800050D01*
X95439154Y-103999950D01*
X95402407Y-103804656D01*
X95286988Y-103625290D01*
X95228780Y-103585518D01*
X95228780Y-102629029D01*
X95374660Y-102535158D01*
X95494990Y-102359049D01*
X95537324Y-102150000D01*
X95537324Y-100450000D01*
X95500577Y-100254706D01*
X95411640Y-100116494D01*
X96851564Y-98676569D01*
X96851567Y-98676567D01*
X97488831Y-98039303D01*
X97703211Y-97996660D01*
X97939067Y-97839067D01*
X98096660Y-97603211D01*
X98107571Y-97548356D01*
X98300000Y-97587324D01*
X99200000Y-97587324D01*
X99395294Y-97550577D01*
X99574660Y-97435158D01*
X99694990Y-97259049D01*
X99737324Y-97050000D01*
X99737324Y-96927000D01*
X101199995Y-96927000D01*
X101200000Y-96927001D01*
X101445282Y-96878210D01*
X101478211Y-96871660D01*
X101714067Y-96714067D01*
X101714068Y-96714066D01*
X102614064Y-95814069D01*
X102614067Y-95814067D01*
X102771660Y-95578211D01*
X102827000Y-95300000D01*
X102827000Y-95001294D01*
X102890951Y-95044990D01*
X103100000Y-95087324D01*
X104000000Y-95087324D01*
X104195294Y-95050577D01*
X104374660Y-94935158D01*
X104494990Y-94759049D01*
X104537324Y-94550000D01*
X104537324Y-94427000D01*
X106212676Y-94427000D01*
X106212676Y-94800000D01*
X106249423Y-94995294D01*
X106364842Y-95174660D01*
X106438531Y-95225010D01*
X106421789Y-95228340D01*
X106185933Y-95385933D01*
X106185931Y-95385936D01*
X105485933Y-96085933D01*
X105328340Y-96321789D01*
X105323794Y-96344644D01*
X105272999Y-96600000D01*
X105273000Y-96600005D01*
X105273000Y-97675000D01*
X105051176Y-98006984D01*
X104973000Y-98400000D01*
X105051176Y-98793016D01*
X105273801Y-99126199D01*
X108873000Y-102725398D01*
X108873000Y-103212676D01*
X104500000Y-103212676D01*
X104304706Y-103249423D01*
X104125340Y-103364842D01*
X104005010Y-103540951D01*
X103962676Y-103750000D01*
X103962676Y-113150000D01*
X103999423Y-113345294D01*
X104114842Y-113524660D01*
X104290951Y-113644990D01*
X104500000Y-113687324D01*
X108873000Y-113687324D01*
X108873000Y-114887391D01*
X108830340Y-114914842D01*
X108710010Y-115090951D01*
X108667676Y-115300000D01*
X108667676Y-119810500D01*
X108592324Y-119810500D01*
X108592324Y-115300000D01*
X108555577Y-115104706D01*
X108440158Y-114925340D01*
X108264049Y-114805010D01*
X108055000Y-114762676D01*
X106665000Y-114762676D01*
X106469706Y-114799423D01*
X106290340Y-114914842D01*
X106170010Y-115090951D01*
X106127676Y-115300000D01*
X106127676Y-117804191D01*
X105258866Y-118673000D01*
X102900000Y-118673000D01*
X102621789Y-118728340D01*
X102385933Y-118885933D01*
X102282503Y-118989363D01*
X102159049Y-118905010D01*
X101950000Y-118862676D01*
X100250000Y-118862676D01*
X100054706Y-118899423D01*
X99875340Y-119014842D01*
X99801439Y-119123000D01*
X99798001Y-119123000D01*
X99735158Y-119025340D01*
X99559049Y-118905010D01*
X99350000Y-118862676D01*
X97965458Y-118862676D01*
X98601134Y-118227000D01*
X99099995Y-118227000D01*
X99100000Y-118227001D01*
X99351365Y-118177000D01*
X99378211Y-118171660D01*
X99614067Y-118014067D01*
X99914067Y-117714067D01*
X100071660Y-117478211D01*
X100127000Y-117200000D01*
X100127000Y-114200005D01*
X100127001Y-114200000D01*
X100071660Y-113921790D01*
X100071660Y-113921789D01*
X99914067Y-113685933D01*
X99914064Y-113685931D01*
X99889500Y-113661367D01*
X99889500Y-103662500D01*
X99834160Y-103384289D01*
X99676567Y-103148433D01*
X99177000Y-102648866D01*
X99177000Y-102300005D01*
X99177001Y-102300000D01*
X99121661Y-102021790D01*
X99022242Y-101872999D01*
X98964067Y-101785933D01*
X98964064Y-101785931D01*
X98437324Y-101259190D01*
X98437324Y-101165457D01*
X99360931Y-102089064D01*
X99360933Y-102089067D01*
X99436274Y-102139408D01*
X100223000Y-102926133D01*
X100223000Y-103501999D01*
X100125340Y-103564842D01*
X100005010Y-103740951D01*
X99962676Y-103950000D01*
X99962676Y-105650000D01*
X99999423Y-105845294D01*
X100114842Y-106024660D01*
X100290951Y-106144990D01*
X100500000Y-106187324D01*
X101398000Y-106187324D01*
X101398000Y-107723866D01*
X100435933Y-108685933D01*
X100278340Y-108921789D01*
X100278340Y-108921790D01*
X100222999Y-109200000D01*
X100223000Y-109200005D01*
X100223000Y-109501999D01*
X100125340Y-109564842D01*
X100005010Y-109740951D01*
X99962676Y-109950000D01*
X99962676Y-111650000D01*
X99999423Y-111845294D01*
X100114842Y-112024660D01*
X100290951Y-112144990D01*
X100500000Y-112187324D01*
X101400000Y-112187324D01*
X101595294Y-112150577D01*
X101774660Y-112035158D01*
X101894990Y-111859049D01*
X101937324Y-111650000D01*
X101937324Y-109950000D01*
X101900577Y-109754706D01*
X101785158Y-109575340D01*
X101677000Y-109501439D01*
X101677000Y-109501134D01*
X102248000Y-108930134D01*
X102248000Y-112023867D01*
X100635933Y-113635933D01*
X100478340Y-113871789D01*
X100469931Y-113914066D01*
X100422999Y-114150000D01*
X100423000Y-114150005D01*
X100423000Y-114601999D01*
X100325340Y-114664842D01*
X100205010Y-114840951D01*
X100162676Y-115050000D01*
X100162676Y-116750000D01*
X100199423Y-116945294D01*
X100314842Y-117124660D01*
X100490951Y-117244990D01*
X100700000Y-117287324D01*
X101600000Y-117287324D01*
X101795294Y-117250577D01*
X101974660Y-117135158D01*
X102094990Y-116959049D01*
X102137324Y-116750000D01*
X102137324Y-115050000D01*
X102100577Y-114854706D01*
X101985158Y-114675340D01*
X101877000Y-114601439D01*
X101877000Y-114451134D01*
X103489064Y-112839069D01*
X103489067Y-112839067D01*
X103646660Y-112603211D01*
X103671765Y-112477000D01*
X103702001Y-112325000D01*
X103702000Y-112324995D01*
X103702000Y-103325683D01*
X103727000Y-103200000D01*
X103727000Y-102100000D01*
X103671660Y-101821789D01*
X103514067Y-101585933D01*
X103514064Y-101585931D01*
X101927000Y-99998866D01*
X101927000Y-99396049D01*
X102112504Y-99210868D01*
X102276813Y-98815168D01*
X102277187Y-98386711D01*
X102113569Y-97990725D01*
X101810868Y-97687496D01*
X101415168Y-97523187D01*
X100986711Y-97522813D01*
X100590725Y-97686431D01*
X100287496Y-97989132D01*
X100143840Y-98335093D01*
X100115168Y-98323187D01*
X99686711Y-98322813D01*
X99290725Y-98486431D01*
X98987496Y-98789132D01*
X98950111Y-98879164D01*
X98913569Y-98790725D01*
X98610868Y-98487496D01*
X98215168Y-98323187D01*
X97786711Y-98322813D01*
X97390725Y-98486431D01*
X97087496Y-98789132D01*
X96923187Y-99184832D01*
X96922813Y-99613289D01*
X97046517Y-99912676D01*
X97000000Y-99912676D01*
X96804706Y-99949423D01*
X96625340Y-100064842D01*
X96505010Y-100240951D01*
X96462676Y-100450000D01*
X96462676Y-102150000D01*
X96499423Y-102345294D01*
X96614842Y-102524660D01*
X96790951Y-102644990D01*
X97000000Y-102687324D01*
X97723000Y-102687324D01*
X97723000Y-102949995D01*
X97722999Y-102950000D01*
X97755635Y-103114067D01*
X97778340Y-103228211D01*
X97898471Y-103408001D01*
X97901595Y-103412676D01*
X97600000Y-103412676D01*
X97404706Y-103449423D01*
X97225340Y-103564842D01*
X97105010Y-103740951D01*
X97062676Y-103950000D01*
X97062676Y-104445405D01*
X96900810Y-104412626D01*
X96100710Y-104412626D01*
X95905416Y-104449373D01*
X95726050Y-104564792D01*
X95605720Y-104740901D01*
X95563386Y-104949950D01*
X95563386Y-105750050D01*
X95600133Y-105945344D01*
X95715552Y-106124710D01*
X95891661Y-106245040D01*
X96100710Y-106287374D01*
X96641618Y-106287374D01*
X96605010Y-106340951D01*
X96562676Y-106550000D01*
X96562676Y-108250000D01*
X96599423Y-108445294D01*
X96714842Y-108624660D01*
X96890951Y-108744990D01*
X97100000Y-108787324D01*
X98000000Y-108787324D01*
X98195294Y-108750577D01*
X98374660Y-108635158D01*
X98435500Y-108546116D01*
X98435500Y-109412676D01*
X97600000Y-109412676D01*
X97404706Y-109449423D01*
X97225340Y-109564842D01*
X97105010Y-109740951D01*
X97062676Y-109950000D01*
X97062676Y-110445405D01*
X96900810Y-110412626D01*
X96100710Y-110412626D01*
X95905416Y-110449373D01*
X95726050Y-110564792D01*
X95605720Y-110740901D01*
X95563386Y-110949950D01*
X95563386Y-111750050D01*
X95600133Y-111945344D01*
X95715552Y-112124710D01*
X95891661Y-112245040D01*
X96100710Y-112287374D01*
X96641618Y-112287374D01*
X96605010Y-112340951D01*
X96562676Y-112550000D01*
X96562676Y-114250000D01*
X96599423Y-114445294D01*
X96714842Y-114624660D01*
X96890951Y-114744990D01*
X97100000Y-114787324D01*
X97341652Y-114787324D01*
X97305010Y-114840951D01*
X97262676Y-115050000D01*
X97262676Y-115859190D01*
X96609240Y-116512626D01*
X96100710Y-116512626D01*
X95905416Y-116549373D01*
X95726050Y-116664792D01*
X95605720Y-116840901D01*
X95563386Y-117049950D01*
X95563386Y-117850050D01*
X95600133Y-118045344D01*
X95715552Y-118224710D01*
X95891661Y-118345040D01*
X96100710Y-118387374D01*
X96384492Y-118387374D01*
X96085933Y-118685933D01*
X95928340Y-118921789D01*
X95928340Y-118921790D01*
X95872999Y-119200000D01*
X95873000Y-119200005D01*
X95873000Y-119777459D01*
X95800000Y-119762676D01*
X94200000Y-119762676D01*
X94004706Y-119799423D01*
X93825340Y-119914842D01*
X93705010Y-120090951D01*
X93701371Y-120108923D01*
X93700577Y-120104706D01*
X93585158Y-119925340D01*
X93409049Y-119805010D01*
X93200000Y-119762676D01*
X91600000Y-119762676D01*
X91404706Y-119799423D01*
X91225340Y-119914842D01*
X91105010Y-120090951D01*
X91077786Y-120225388D01*
X89337324Y-118484926D01*
X89337324Y-116700000D01*
X89300577Y-116504706D01*
X89185158Y-116325340D01*
X89009049Y-116205010D01*
X88800000Y-116162676D01*
X87000000Y-116162676D01*
X86804706Y-116199423D01*
X86625340Y-116314842D01*
X86505010Y-116490951D01*
X86462676Y-116700000D01*
X86462676Y-120300000D01*
X86499423Y-120495294D01*
X86614842Y-120674660D01*
X86790951Y-120794990D01*
X87000000Y-120837324D01*
X88784926Y-120837324D01*
X89973801Y-122026199D01*
X90306984Y-122248824D01*
X90700000Y-122327000D01*
X97112676Y-122327000D01*
X97112676Y-123200000D01*
X97149423Y-123395294D01*
X97264842Y-123574660D01*
X97440951Y-123694990D01*
X97650000Y-123737324D01*
X98300536Y-123737324D01*
X98500000Y-123777000D01*
X98699464Y-123737324D01*
X99350000Y-123737324D01*
X99545294Y-123700577D01*
X99724660Y-123585158D01*
X99844990Y-123409049D01*
X99887324Y-123200000D01*
X99887324Y-122327000D01*
X102650000Y-122327000D01*
X103043016Y-122248824D01*
X103376199Y-122026199D01*
X103537898Y-121864500D01*
X105962676Y-121864500D01*
X105962676Y-122184926D01*
X104674602Y-123473000D01*
X102800000Y-123473000D01*
X102406984Y-123551176D01*
X102389773Y-123562676D01*
X101700000Y-123562676D01*
X101504706Y-123599423D01*
X101325340Y-123714842D01*
X101205010Y-123890951D01*
X101162676Y-124100000D01*
X101162676Y-125584926D01*
X100614433Y-126133169D01*
X100157202Y-126132771D01*
X99669297Y-126334369D01*
X99295681Y-126707334D01*
X99093231Y-127194885D01*
X99092771Y-127722798D01*
X99294369Y-128210703D01*
X99667334Y-128584319D01*
X100154885Y-128786769D01*
X100682798Y-128787229D01*
X101170703Y-128585631D01*
X101544319Y-128212666D01*
X101618586Y-128033812D01*
X102926199Y-126726199D01*
X103148824Y-126393016D01*
X103171660Y-126278211D01*
X103227001Y-126000000D01*
X103227000Y-125999995D01*
X103227000Y-125750981D01*
X103237324Y-125700000D01*
X103237324Y-125527000D01*
X105100000Y-125527000D01*
X105493016Y-125448824D01*
X105826199Y-125226199D01*
X107115074Y-123937324D01*
X107500000Y-123937324D01*
X107695294Y-123900577D01*
X107874660Y-123785158D01*
X107982725Y-123627000D01*
X110300000Y-123627000D01*
X110693016Y-123548824D01*
X111026199Y-123326199D01*
X113166199Y-121186199D01*
X113388824Y-120853016D01*
X113467000Y-120460000D01*
X113467000Y-120312609D01*
X113509660Y-120285158D01*
X113629990Y-120109049D01*
X113672324Y-119900000D01*
X113672324Y-115300000D01*
X113635577Y-115104706D01*
X113520158Y-114925340D01*
X113344049Y-114805010D01*
X113135000Y-114762676D01*
X111745000Y-114762676D01*
X111549706Y-114799423D01*
X111370340Y-114914842D01*
X111250010Y-115090951D01*
X111207676Y-115300000D01*
X111207676Y-119900000D01*
X111244423Y-120095294D01*
X111286664Y-120160938D01*
X110866016Y-120581586D01*
X110918421Y-120318129D01*
X110969660Y-120285158D01*
X111089990Y-120109049D01*
X111132324Y-119900000D01*
X111132324Y-115300000D01*
X111095577Y-115104706D01*
X110980158Y-114925340D01*
X110927000Y-114889019D01*
X110927000Y-113687324D01*
X115300000Y-113687324D01*
X115495294Y-113650577D01*
X115674660Y-113535158D01*
X115794990Y-113359049D01*
X115837324Y-113150000D01*
X115837324Y-112477000D01*
X129550000Y-112477000D01*
X129943016Y-112398824D01*
X130276199Y-112176199D01*
X130826196Y-111626201D01*
X130826199Y-111626199D01*
X131048824Y-111293016D01*
X131113586Y-110967435D01*
X131176813Y-110815168D01*
X131177187Y-110386711D01*
X131013569Y-109990725D01*
X130710868Y-109687496D01*
X130315168Y-109523187D01*
X129886711Y-109522813D01*
X129490725Y-109686431D01*
X129187496Y-109989132D01*
X129023187Y-110384832D01*
X129023154Y-110423000D01*
X115837324Y-110423000D01*
X115837324Y-103750000D01*
X115800577Y-103554706D01*
X115685158Y-103375340D01*
X115509049Y-103255010D01*
X115300000Y-103212676D01*
X110927000Y-103212676D01*
X110927000Y-102300005D01*
X110927001Y-102300000D01*
X110848824Y-101906984D01*
X110787389Y-101815040D01*
X110915199Y-101900439D01*
X111021790Y-101971661D01*
X111300000Y-102027001D01*
X111300005Y-102027000D01*
X115146676Y-102027000D01*
X115146676Y-102316000D01*
X115183423Y-102511294D01*
X115298842Y-102690660D01*
X115474951Y-102810990D01*
X115684000Y-102853324D01*
X116023390Y-102853324D01*
X116028340Y-102878211D01*
X116090781Y-102971661D01*
X116185933Y-103114067D01*
X118561416Y-105489549D01*
X118561416Y-106600150D01*
X118598163Y-106795444D01*
X118713582Y-106974810D01*
X118889691Y-107095140D01*
X119098740Y-107137474D01*
X122598860Y-107137474D01*
X122794154Y-107100727D01*
X122973520Y-106985308D01*
X123093850Y-106809199D01*
X123136184Y-106600150D01*
X123136184Y-104199850D01*
X125063816Y-104199850D01*
X125063816Y-106600150D01*
X125100563Y-106795444D01*
X125215982Y-106974810D01*
X125392091Y-107095140D01*
X125601140Y-107137474D01*
X129101260Y-107137474D01*
X129108061Y-107136194D01*
X130623173Y-108651307D01*
X130622762Y-109122701D01*
X130831956Y-109628989D01*
X131218974Y-110016683D01*
X131724896Y-110226760D01*
X132272701Y-110227238D01*
X132778989Y-110018044D01*
X133166683Y-109631026D01*
X133376760Y-109125104D01*
X133377238Y-108577299D01*
X133168044Y-108071011D01*
X132781026Y-107683317D01*
X132275104Y-107473240D01*
X131727299Y-107472762D01*
X131567092Y-107538958D01*
X129638584Y-105610450D01*
X129638584Y-104199850D01*
X129601837Y-104004556D01*
X129486418Y-103825190D01*
X129310309Y-103704860D01*
X129101260Y-103662526D01*
X125601140Y-103662526D01*
X125405846Y-103699273D01*
X125226480Y-103814692D01*
X125106150Y-103990801D01*
X125063816Y-104199850D01*
X123136184Y-104199850D01*
X123099437Y-104004556D01*
X122984018Y-103825190D01*
X122807909Y-103704860D01*
X122598860Y-103662526D01*
X119098740Y-103662526D01*
X118903446Y-103699273D01*
X118857179Y-103729045D01*
X117931627Y-102803493D01*
X118090660Y-102701158D01*
X118210990Y-102525049D01*
X118253324Y-102316000D01*
X118253324Y-100284000D01*
X118216577Y-100088706D01*
X118101158Y-99909340D01*
X117980649Y-99827000D01*
X118462676Y-99827000D01*
X118462676Y-99900000D01*
X118499423Y-100095294D01*
X118614842Y-100274660D01*
X118790951Y-100394990D01*
X119000000Y-100437324D01*
X120000000Y-100437324D01*
X120195294Y-100400577D01*
X120374660Y-100285158D01*
X120494990Y-100109049D01*
X120537324Y-99900000D01*
X120537324Y-98300000D01*
X121462676Y-98300000D01*
X121462676Y-99900000D01*
X121499423Y-100095294D01*
X121614842Y-100274660D01*
X121790951Y-100394990D01*
X122000000Y-100437324D01*
X123000000Y-100437324D01*
X123195294Y-100400577D01*
X123374660Y-100285158D01*
X123494990Y-100109049D01*
X123537324Y-99900000D01*
X123537324Y-98300000D01*
X123512114Y-98166020D01*
X124040809Y-97637324D01*
X124850000Y-97637324D01*
X125045294Y-97600577D01*
X125224660Y-97485158D01*
X125344990Y-97309049D01*
X125387324Y-97100000D01*
X125387324Y-96200000D01*
X125350577Y-96004706D01*
X125235158Y-95825340D01*
X125059049Y-95705010D01*
X124850000Y-95662676D01*
X123150000Y-95662676D01*
X122954706Y-95699423D01*
X122775340Y-95814842D01*
X122655010Y-95990951D01*
X122612676Y-96200000D01*
X122612676Y-97009190D01*
X121985933Y-97635933D01*
X121887045Y-97783930D01*
X121804706Y-97799423D01*
X121625340Y-97914842D01*
X121505010Y-98090951D01*
X121462676Y-98300000D01*
X120537324Y-98300000D01*
X120500577Y-98104706D01*
X120385158Y-97925340D01*
X120209049Y-97805010D01*
X120000000Y-97762676D01*
X119000000Y-97762676D01*
X118804706Y-97799423D01*
X118625340Y-97914842D01*
X118505010Y-98090951D01*
X118462676Y-98300000D01*
X118462676Y-98373000D01*
X118196250Y-98373000D01*
X118155775Y-98169519D01*
X117821295Y-97668934D01*
X117320710Y-97334454D01*
X116730229Y-97217000D01*
X116669771Y-97217000D01*
X116265540Y-97297406D01*
X116154067Y-97185933D01*
X116067872Y-97128340D01*
X115918211Y-97028340D01*
X115872052Y-97019158D01*
X115640000Y-96972999D01*
X115639995Y-96973000D01*
X114200000Y-96973000D01*
X113921789Y-97028340D01*
X113685933Y-97185933D01*
X113685931Y-97185936D01*
X113584099Y-97287767D01*
X113413206Y-97319923D01*
X113233840Y-97435342D01*
X113113510Y-97611451D01*
X113071176Y-97820500D01*
X113071176Y-99370500D01*
X113107923Y-99565794D01*
X113223342Y-99745160D01*
X113399451Y-99865490D01*
X113608500Y-99907824D01*
X114208500Y-99907824D01*
X114403794Y-99871077D01*
X114583160Y-99755658D01*
X114703490Y-99579549D01*
X114745824Y-99370500D01*
X114745824Y-98427000D01*
X115193009Y-98427000D01*
X115126771Y-98760000D01*
X115244225Y-99350481D01*
X115528504Y-99775935D01*
X115488706Y-99783423D01*
X115309340Y-99898842D01*
X115189010Y-100074951D01*
X115146676Y-100284000D01*
X115146676Y-100573000D01*
X111601133Y-100573000D01*
X110902301Y-99874168D01*
X111068500Y-99907824D01*
X111668500Y-99907824D01*
X111863794Y-99871077D01*
X112043160Y-99755658D01*
X112163490Y-99579549D01*
X112205824Y-99370500D01*
X112205824Y-97820500D01*
X112169077Y-97625206D01*
X112095500Y-97510864D01*
X112095500Y-96632634D01*
X112401133Y-96327000D01*
X115199995Y-96327000D01*
X115200000Y-96327001D01*
X115432052Y-96280842D01*
X115478211Y-96271660D01*
X115714067Y-96114067D01*
X116969378Y-94858755D01*
X118625133Y-94858755D01*
X118946368Y-95636204D01*
X119540668Y-96231541D01*
X120317555Y-96554133D01*
X121158755Y-96554867D01*
X121936204Y-96233632D01*
X122531541Y-95639332D01*
X122683779Y-95272701D01*
X128122762Y-95272701D01*
X128331956Y-95778989D01*
X128718974Y-96166683D01*
X129224896Y-96376760D01*
X129772701Y-96377238D01*
X130278989Y-96168044D01*
X130666683Y-95781026D01*
X130876760Y-95275104D01*
X130877238Y-94727299D01*
X130668044Y-94221011D01*
X130281026Y-93833317D01*
X129775104Y-93623240D01*
X129227299Y-93622762D01*
X128721011Y-93831956D01*
X128333317Y-94218974D01*
X128123240Y-94724896D01*
X128122762Y-95272701D01*
X122683779Y-95272701D01*
X122854133Y-94862445D01*
X122854867Y-94021245D01*
X122533632Y-93243796D01*
X121939332Y-92648459D01*
X121162445Y-92325867D01*
X120321245Y-92325133D01*
X119543796Y-92646368D01*
X118948459Y-93240668D01*
X118625867Y-94017555D01*
X118625133Y-94858755D01*
X116969378Y-94858755D01*
X117890809Y-93937324D01*
X118300000Y-93937324D01*
X118495294Y-93900577D01*
X118674660Y-93785158D01*
X118794990Y-93609049D01*
X118837324Y-93400000D01*
X118837324Y-92400000D01*
X118800577Y-92204706D01*
X118747493Y-92122211D01*
X125372718Y-92122211D01*
X125619892Y-92720418D01*
X126077175Y-93178499D01*
X126674950Y-93426717D01*
X127322211Y-93427282D01*
X127920418Y-93180108D01*
X128378499Y-92722825D01*
X128626717Y-92125050D01*
X128627282Y-91477789D01*
X128380108Y-90879582D01*
X127922825Y-90421501D01*
X127325050Y-90173283D01*
X126677789Y-90172718D01*
X126079582Y-90419892D01*
X125621501Y-90877175D01*
X125373283Y-91474950D01*
X125372718Y-92122211D01*
X118747493Y-92122211D01*
X118685158Y-92025340D01*
X118509049Y-91905010D01*
X118300000Y-91862676D01*
X118227000Y-91862676D01*
X118227000Y-89551134D01*
X118390810Y-89387324D01*
X119200000Y-89387324D01*
X119395294Y-89350577D01*
X119574660Y-89235158D01*
X119694990Y-89059049D01*
X119737324Y-88850000D01*
X119737324Y-87150000D01*
X119700577Y-86954706D01*
X119585158Y-86775340D01*
X119409049Y-86655010D01*
X119296014Y-86632120D01*
X120014064Y-85914069D01*
X120014067Y-85914067D01*
X120171660Y-85678211D01*
X120227000Y-85400000D01*
X120227000Y-83851134D01*
X121714067Y-82364067D01*
X122626133Y-81452000D01*
X123025489Y-81452000D01*
X123297334Y-81724319D01*
X123784885Y-81926769D01*
X124312798Y-81927229D01*
X124800703Y-81725631D01*
X125174319Y-81352666D01*
X125376769Y-80865115D01*
X125376934Y-80676200D01*
X126151133Y-79902000D01*
X129648866Y-79902000D01*
X129723000Y-79976133D01*
X129723000Y-80474995D01*
X129722999Y-80475000D01*
X129745066Y-80585933D01*
X129778340Y-80753211D01*
X129884776Y-80912504D01*
X129935933Y-80989067D01*
X130568434Y-81621568D01*
X130562676Y-81650000D01*
X130562676Y-83350000D01*
X130599423Y-83545294D01*
X130714842Y-83724660D01*
X130890951Y-83844990D01*
X131100000Y-83887324D01*
X131909191Y-83887324D01*
X132273000Y-84251133D01*
X132273000Y-89799995D01*
X132272999Y-89800000D01*
X132300662Y-89939066D01*
X132328340Y-90078211D01*
X132473790Y-90295894D01*
X132485933Y-90314067D01*
X133453539Y-91281673D01*
X133373283Y-91474950D01*
X133372718Y-92122211D01*
X133619892Y-92720418D01*
X134077175Y-93178499D01*
X134273000Y-93259813D01*
X134273000Y-96739973D01*
X134079582Y-96819892D01*
X133621501Y-97277175D01*
X133373283Y-97874950D01*
X133372718Y-98522211D01*
X133619892Y-99120418D01*
X133971860Y-99473000D01*
X129301134Y-99473000D01*
X128546461Y-98718327D01*
X128626717Y-98525050D01*
X128627282Y-97877789D01*
X128380108Y-97279582D01*
X127922825Y-96821501D01*
X127325050Y-96573283D01*
X126677789Y-96572718D01*
X126079582Y-96819892D01*
X125621501Y-97277175D01*
X125373283Y-97874950D01*
X125372718Y-98522211D01*
X125619892Y-99120418D01*
X126077175Y-99578499D01*
X126674950Y-99826717D01*
X127322211Y-99827282D01*
X127518177Y-99746311D01*
X128485933Y-100714067D01*
X128721789Y-100871660D01*
X129000000Y-100927000D01*
X129171772Y-100927000D01*
X129023187Y-101284832D01*
X129022813Y-101713289D01*
X129186431Y-102109275D01*
X129489132Y-102412504D01*
X129884832Y-102576813D01*
X130313289Y-102577187D01*
X130434751Y-102527000D01*
X136600000Y-102527000D01*
X136993016Y-102448824D01*
X137326199Y-102226199D01*
X140146056Y-99406341D01*
X140146059Y-99406339D01*
X140368684Y-99073156D01*
X140446860Y-98680140D01*
X140446860Y-90229490D01*
X140494990Y-90159049D01*
X140498000Y-90144185D01*
X140498000Y-129498000D01*
X133251590Y-129498000D01*
X133486858Y-129263142D01*
X133826613Y-128444921D01*
X133827386Y-127558966D01*
X133489060Y-126740154D01*
X132863142Y-126113142D01*
X132044921Y-125773387D01*
X131158966Y-125772614D01*
X130340154Y-126110940D01*
X129713142Y-126736858D01*
X129373387Y-127555079D01*
X129372614Y-128441034D01*
X129710940Y-129259846D01*
X129948678Y-129498000D01*
X107030134Y-129498000D01*
X107751200Y-128776934D01*
X107774885Y-128786769D01*
X108302798Y-128787229D01*
X108790703Y-128585631D01*
X109164319Y-128212666D01*
X109310109Y-127861567D01*
X109454369Y-128210703D01*
X109827334Y-128584319D01*
X110314885Y-128786769D01*
X110842798Y-128787229D01*
X111330703Y-128585631D01*
X111704319Y-128212666D01*
X111850109Y-127861567D01*
X111994369Y-128210703D01*
X112367334Y-128584319D01*
X112854885Y-128786769D01*
X113382798Y-128787229D01*
X113870703Y-128585631D01*
X114244319Y-128212666D01*
X114390109Y-127861567D01*
X114534369Y-128210703D01*
X114907334Y-128584319D01*
X115394885Y-128786769D01*
X115922798Y-128787229D01*
X116410703Y-128585631D01*
X116784319Y-128212666D01*
X116930109Y-127861567D01*
X117074369Y-128210703D01*
X117447334Y-128584319D01*
X117934885Y-128786769D01*
X118462798Y-128787229D01*
X118950703Y-128585631D01*
X119324319Y-128212666D01*
X119526769Y-127725115D01*
X119527229Y-127197202D01*
X119325631Y-126709297D01*
X119243477Y-126627000D01*
X126149995Y-126627000D01*
X126150000Y-126627001D01*
X126382052Y-126580842D01*
X126428211Y-126571660D01*
X126664067Y-126414067D01*
X128001134Y-125077000D01*
X137554313Y-125077000D01*
X137868887Y-125392124D01*
X138342477Y-125588776D01*
X138855273Y-125589223D01*
X139329206Y-125393398D01*
X139692124Y-125031113D01*
X139888776Y-124557523D01*
X139889223Y-124044727D01*
X139693398Y-123570794D01*
X139331113Y-123207876D01*
X138857523Y-123011224D01*
X138344727Y-123010777D01*
X137870794Y-123206602D01*
X137507876Y-123568887D01*
X137485406Y-123623000D01*
X129277000Y-123623000D01*
X129277000Y-118500000D01*
X129221660Y-118221789D01*
X129064067Y-117985933D01*
X129064064Y-117985931D01*
X127119168Y-116041034D01*
X129372614Y-116041034D01*
X129710940Y-116859846D01*
X130336858Y-117486858D01*
X131155079Y-117826613D01*
X132041034Y-117827386D01*
X132859846Y-117489060D01*
X133486858Y-116863142D01*
X133826613Y-116044921D01*
X133827386Y-115158966D01*
X133489060Y-114340154D01*
X132863142Y-113713142D01*
X132044921Y-113373387D01*
X131158966Y-113372614D01*
X130340154Y-113710940D01*
X129713142Y-114336858D01*
X129373387Y-115155079D01*
X129372614Y-116041034D01*
X127119168Y-116041034D01*
X125787324Y-114709190D01*
X125787324Y-113900000D01*
X125750577Y-113704706D01*
X125635158Y-113525340D01*
X125459049Y-113405010D01*
X125250000Y-113362676D01*
X123550000Y-113362676D01*
X123354706Y-113399423D01*
X123175340Y-113514842D01*
X123151168Y-113550220D01*
X123135158Y-113525340D01*
X122959049Y-113405010D01*
X122750000Y-113362676D01*
X121050000Y-113362676D01*
X120854706Y-113399423D01*
X120675340Y-113514842D01*
X120555010Y-113690951D01*
X120512676Y-113900000D01*
X120512676Y-114800000D01*
X120549423Y-114995294D01*
X120664842Y-115174660D01*
X120840951Y-115294990D01*
X121050000Y-115337324D01*
X121859190Y-115337324D01*
X122635933Y-116114067D01*
X122871789Y-116271660D01*
X122917948Y-116280842D01*
X123150000Y-116327001D01*
X123150005Y-116327000D01*
X123998866Y-116327000D01*
X126773000Y-119101133D01*
X126773000Y-122998867D01*
X126198866Y-123573000D01*
X125194310Y-123573000D01*
X125193398Y-123570794D01*
X124831113Y-123207876D01*
X124357523Y-123011224D01*
X123844727Y-123010777D01*
X123370794Y-123206602D01*
X123007876Y-123568887D01*
X122840073Y-123973000D01*
X122137186Y-123973000D01*
X122531541Y-123579332D01*
X122854133Y-122802445D01*
X122854867Y-121961245D01*
X122533632Y-121183796D01*
X121939332Y-120588459D01*
X121162445Y-120265867D01*
X120321245Y-120265133D01*
X119543796Y-120586368D01*
X119427000Y-120702961D01*
X119427000Y-120027000D01*
X123005690Y-120027000D01*
X123006602Y-120029206D01*
X123368887Y-120392124D01*
X123842477Y-120588776D01*
X124355273Y-120589223D01*
X124829206Y-120393398D01*
X125192124Y-120031113D01*
X125388776Y-119557523D01*
X125389223Y-119044727D01*
X125193398Y-118570794D01*
X124831113Y-118207876D01*
X124357523Y-118011224D01*
X123844727Y-118010777D01*
X123370794Y-118206602D01*
X123007876Y-118568887D01*
X123006168Y-118573000D01*
X119427000Y-118573000D01*
X119427000Y-115337324D01*
X119550000Y-115337324D01*
X119745294Y-115300577D01*
X119924660Y-115185158D01*
X120044990Y-115009049D01*
X120087324Y-114800000D01*
X120087324Y-113900000D01*
X120050577Y-113704706D01*
X119935158Y-113525340D01*
X119759049Y-113405010D01*
X119550000Y-113362676D01*
X117850000Y-113362676D01*
X117654706Y-113399423D01*
X117475340Y-113514842D01*
X117355010Y-113690951D01*
X117312676Y-113900000D01*
X117312676Y-114800000D01*
X117349423Y-114995294D01*
X117464842Y-115174660D01*
X117640951Y-115294990D01*
X117850000Y-115337324D01*
X117973000Y-115337324D01*
X117973000Y-119099995D01*
X117972999Y-119100000D01*
X117973000Y-119100005D01*
X117973000Y-121198866D01*
X117785933Y-121385933D01*
X117628340Y-121621789D01*
X117628340Y-121621790D01*
X117572999Y-121900000D01*
X117573000Y-121900005D01*
X117573000Y-123348867D01*
X115623866Y-125298000D01*
X114175000Y-125298000D01*
X113896789Y-125353340D01*
X113660933Y-125510933D01*
X113660931Y-125510936D01*
X113038937Y-126132929D01*
X112857202Y-126132771D01*
X112369297Y-126334369D01*
X111995681Y-126707334D01*
X111849891Y-127058433D01*
X111705631Y-126709297D01*
X111512402Y-126515731D01*
X111951175Y-126076958D01*
X112213289Y-126077187D01*
X112609275Y-125913569D01*
X112912504Y-125610868D01*
X113076813Y-125215168D01*
X113077187Y-124786711D01*
X112913569Y-124390725D01*
X112610868Y-124087496D01*
X112215168Y-123923187D01*
X111786711Y-123922813D01*
X111390725Y-124086431D01*
X111087496Y-124389132D01*
X110923187Y-124784832D01*
X110922956Y-125048910D01*
X110065933Y-125905933D01*
X109908340Y-126141789D01*
X109908340Y-126141790D01*
X109873680Y-126316030D01*
X109829297Y-126334369D01*
X109455681Y-126707334D01*
X109309891Y-127058433D01*
X109165631Y-126709297D01*
X108792666Y-126335681D01*
X108305115Y-126133231D01*
X107777202Y-126132771D01*
X107289297Y-126334369D01*
X106915681Y-126707334D01*
X106769891Y-127058433D01*
X106625631Y-126709297D01*
X106252666Y-126335681D01*
X105765115Y-126133231D01*
X105237202Y-126132771D01*
X104749297Y-126334369D01*
X104375681Y-126707334D01*
X104173231Y-127194885D01*
X104172771Y-127722798D01*
X104374369Y-128210703D01*
X104436557Y-128273000D01*
X103996049Y-128273000D01*
X103810868Y-128087496D01*
X103415168Y-127923187D01*
X102986711Y-127922813D01*
X102590725Y-128086431D01*
X102287496Y-128389132D01*
X102123187Y-128784832D01*
X102122813Y-129213289D01*
X102240453Y-129498000D01*
X79200895Y-129498000D01*
X79276813Y-129315168D01*
X79277187Y-128886711D01*
X79113569Y-128490725D01*
X78810868Y-128187496D01*
X78415168Y-128023187D01*
X77986711Y-128022813D01*
X77590725Y-128186431D01*
X77403831Y-128373000D01*
X74187324Y-128373000D01*
X74187324Y-127800000D01*
X74150577Y-127604706D01*
X74035158Y-127425340D01*
X73859049Y-127305010D01*
X73650000Y-127262676D01*
X71950000Y-127262676D01*
X71754706Y-127299423D01*
X71575340Y-127414842D01*
X71455010Y-127590951D01*
X71412676Y-127800000D01*
X71412676Y-128700000D01*
X71449423Y-128895294D01*
X71564842Y-129074660D01*
X71740951Y-129194990D01*
X71950000Y-129237324D01*
X72759191Y-129237324D01*
X73019867Y-129498000D01*
X69274788Y-129498000D01*
X69866204Y-129253632D01*
X70461541Y-128659332D01*
X70784133Y-127882445D01*
X70784867Y-127041245D01*
X70463632Y-126263796D01*
X69869332Y-125668459D01*
X69092445Y-125345867D01*
X68251245Y-125345133D01*
X67473796Y-125666368D01*
X66878459Y-126260668D01*
X66555867Y-127037555D01*
X66555133Y-127878755D01*
X66876368Y-128656204D01*
X67470668Y-129251541D01*
X68064207Y-129498000D01*
X55202000Y-129498000D01*
X55202000Y-127117371D01*
X59349400Y-127117371D01*
X59349400Y-127482629D01*
X59455253Y-128014789D01*
X59756697Y-128465932D01*
X60207840Y-128767376D01*
X60740000Y-128873229D01*
X61272160Y-128767376D01*
X61723303Y-128465932D01*
X62010000Y-128036859D01*
X62296697Y-128465932D01*
X62747840Y-128767376D01*
X63280000Y-128873229D01*
X63812160Y-128767376D01*
X64263303Y-128465932D01*
X64564747Y-128014789D01*
X64670600Y-127482629D01*
X64670600Y-127117371D01*
X64564747Y-126585211D01*
X64263303Y-126134068D01*
X64221798Y-126106335D01*
X65601133Y-124727000D01*
X71148866Y-124727000D01*
X71412676Y-124990810D01*
X71412676Y-125800000D01*
X71449423Y-125995294D01*
X71564842Y-126174660D01*
X71740951Y-126294990D01*
X71950000Y-126337324D01*
X73650000Y-126337324D01*
X73845294Y-126300577D01*
X74024660Y-126185158D01*
X74144990Y-126009049D01*
X74187324Y-125800000D01*
X74187324Y-124900000D01*
X74150577Y-124704706D01*
X74035158Y-124525340D01*
X73859049Y-124405010D01*
X73650000Y-124362676D01*
X72840809Y-124362676D01*
X72305134Y-123827000D01*
X73998866Y-123827000D01*
X76585933Y-126414067D01*
X76821789Y-126571660D01*
X76867948Y-126580842D01*
X77100000Y-126627001D01*
X77100005Y-126627000D01*
X81596155Y-126627000D01*
X81515681Y-126707334D01*
X81313231Y-127194885D01*
X81312771Y-127722798D01*
X81514369Y-128210703D01*
X81887334Y-128584319D01*
X82374885Y-128786769D01*
X82902798Y-128787229D01*
X83390703Y-128585631D01*
X83764319Y-128212666D01*
X83910109Y-127861567D01*
X84054369Y-128210703D01*
X84427334Y-128584319D01*
X84914885Y-128786769D01*
X85442798Y-128787229D01*
X85930703Y-128585631D01*
X86304319Y-128212666D01*
X86450109Y-127861567D01*
X86594369Y-128210703D01*
X86967334Y-128584319D01*
X87454885Y-128786769D01*
X87982798Y-128787229D01*
X88470703Y-128585631D01*
X88844319Y-128212666D01*
X88990109Y-127861567D01*
X89134369Y-128210703D01*
X89507334Y-128584319D01*
X89994885Y-128786769D01*
X90522798Y-128787229D01*
X91010703Y-128585631D01*
X91384319Y-128212666D01*
X91530109Y-127861567D01*
X91674369Y-128210703D01*
X92047334Y-128584319D01*
X92534885Y-128786769D01*
X93062798Y-128787229D01*
X93550703Y-128585631D01*
X93924319Y-128212666D01*
X94126769Y-127725115D01*
X94127229Y-127197202D01*
X93925631Y-126709297D01*
X93552666Y-126335681D01*
X93065115Y-126133231D01*
X92861187Y-126133053D01*
X92114067Y-125385933D01*
X92057805Y-125348340D01*
X91878211Y-125228340D01*
X91832052Y-125219158D01*
X91600000Y-125172999D01*
X91599995Y-125173000D01*
X77401134Y-125173000D01*
X74814067Y-122585933D01*
X74792706Y-122571660D01*
X74578211Y-122428340D01*
X74532052Y-122419158D01*
X74300000Y-122372999D01*
X74299995Y-122373000D01*
X64940005Y-122373000D01*
X64940000Y-122372999D01*
X64707948Y-122419158D01*
X64661789Y-122428340D01*
X64447294Y-122571660D01*
X64425933Y-122585933D01*
X61194658Y-125817208D01*
X60740000Y-125726771D01*
X60207840Y-125832624D01*
X59756697Y-126134068D01*
X59455253Y-126585211D01*
X59349400Y-127117371D01*
X55202000Y-127117371D01*
X55202000Y-116573000D01*
X57215858Y-116573000D01*
X57215858Y-120127000D01*
X57330143Y-120127000D01*
X57330143Y-123427000D01*
X63269857Y-123427000D01*
X63269857Y-120127000D01*
X66584143Y-120127000D01*
X66584143Y-116573000D01*
X57215858Y-116573000D01*
X55202000Y-116573000D01*
X55202000Y-77502000D01*
X59293085Y-77502000D01*
X59293085Y-78342478D01*
G36*
X68148459Y-78000668D02*
X67825867Y-78777555D01*
X67825133Y-79618755D01*
X68146368Y-80396204D01*
X68740668Y-80991541D01*
X69517555Y-81314133D01*
X70358755Y-81314867D01*
X71136204Y-80993632D01*
X71731541Y-80399332D01*
X72054133Y-79622445D01*
X72054272Y-79462798D01*
X72168771Y-79462798D01*
X72370369Y-79950703D01*
X72743334Y-80324319D01*
X73230885Y-80526769D01*
X73758798Y-80527229D01*
X74246703Y-80325631D01*
X74620319Y-79952666D01*
X74766109Y-79601567D01*
X74910369Y-79950703D01*
X75283334Y-80324319D01*
X75770885Y-80526769D01*
X76298798Y-80527229D01*
X76786703Y-80325631D01*
X77160319Y-79952666D01*
X77306109Y-79601567D01*
X77450369Y-79950703D01*
X77823334Y-80324319D01*
X78310885Y-80526769D01*
X78838798Y-80527229D01*
X79326703Y-80325631D01*
X79700319Y-79952666D01*
X79902769Y-79465115D01*
X79903229Y-78937202D01*
X79701631Y-78449297D01*
X79328666Y-78075681D01*
X78841115Y-77873231D01*
X78313202Y-77872771D01*
X77825297Y-78074369D01*
X77451681Y-78447334D01*
X77305891Y-78798433D01*
X77161631Y-78449297D01*
X76788666Y-78075681D01*
X76301115Y-77873231D01*
X75773202Y-77872771D01*
X75285297Y-78074369D01*
X74911681Y-78447334D01*
X74765891Y-78798433D01*
X74621631Y-78449297D01*
X74248666Y-78075681D01*
X73761115Y-77873231D01*
X73233202Y-77872771D01*
X72745297Y-78074369D01*
X72371681Y-78447334D01*
X72169231Y-78934885D01*
X72168771Y-79462798D01*
X72054272Y-79462798D01*
X72054867Y-78781245D01*
X71733632Y-78003796D01*
X71232710Y-77502000D01*
X113469867Y-77502000D01*
X113098885Y-77872982D01*
X112857202Y-77872771D01*
X112369297Y-78074369D01*
X111995681Y-78447334D01*
X111849891Y-78798433D01*
X111705631Y-78449297D01*
X111332666Y-78075681D01*
X110845115Y-77873231D01*
X110317202Y-77872771D01*
X109829297Y-78074369D01*
X109455681Y-78447334D01*
X109309891Y-78798433D01*
X109165631Y-78449297D01*
X108792666Y-78075681D01*
X108305115Y-77873231D01*
X107777202Y-77872771D01*
X107289297Y-78074369D01*
X106915681Y-78447334D01*
X106769891Y-78798433D01*
X106625631Y-78449297D01*
X106252666Y-78075681D01*
X105765115Y-77873231D01*
X105237202Y-77872771D01*
X104749297Y-78074369D01*
X104375681Y-78447334D01*
X104229891Y-78798433D01*
X104085631Y-78449297D01*
X103712666Y-78075681D01*
X103225115Y-77873231D01*
X102697202Y-77872771D01*
X102209297Y-78074369D01*
X101835681Y-78447334D01*
X101689891Y-78798433D01*
X101545631Y-78449297D01*
X101172666Y-78075681D01*
X100685115Y-77873231D01*
X100157202Y-77872771D01*
X99669297Y-78074369D01*
X99295681Y-78447334D01*
X99093231Y-78934885D01*
X99092771Y-79462798D01*
X99294369Y-79950703D01*
X99430702Y-80087274D01*
X99190725Y-80186431D01*
X99016546Y-80360306D01*
X99076813Y-80215168D01*
X99077187Y-79786711D01*
X98913569Y-79390725D01*
X98610868Y-79087496D01*
X98215168Y-78923187D01*
X97786711Y-78922813D01*
X97683204Y-78965581D01*
X97683229Y-78937202D01*
X97481631Y-78449297D01*
X97108666Y-78075681D01*
X96621115Y-77873231D01*
X96093202Y-77872771D01*
X95605297Y-78074369D01*
X95231681Y-78447334D01*
X95085891Y-78798433D01*
X94941631Y-78449297D01*
X94568666Y-78075681D01*
X94081115Y-77873231D01*
X93553202Y-77872771D01*
X93065297Y-78074369D01*
X92691681Y-78447334D01*
X92545891Y-78798433D01*
X92401631Y-78449297D01*
X92028666Y-78075681D01*
X91541115Y-77873231D01*
X91013202Y-77872771D01*
X90525297Y-78074369D01*
X90151681Y-78447334D01*
X90005891Y-78798433D01*
X89861631Y-78449297D01*
X89488666Y-78075681D01*
X89001115Y-77873231D01*
X88473202Y-77872771D01*
X87985297Y-78074369D01*
X87611681Y-78447334D01*
X87497293Y-78722810D01*
X87458582Y-78780745D01*
X87321631Y-78449297D01*
X86948666Y-78075681D01*
X86461115Y-77873231D01*
X85933202Y-77872771D01*
X85445297Y-78074369D01*
X85071681Y-78447334D01*
X84957293Y-78722810D01*
X84918582Y-78780745D01*
X84781631Y-78449297D01*
X84408666Y-78075681D01*
X83921115Y-77873231D01*
X83393202Y-77872771D01*
X82905297Y-78074369D01*
X82531681Y-78447334D01*
X82329231Y-78934885D01*
X82328771Y-79462798D01*
X82530369Y-79950703D01*
X82903334Y-80324319D01*
X83390885Y-80526769D01*
X83899086Y-80527212D01*
X86285931Y-82914056D01*
X86285933Y-82914059D01*
X86521789Y-83071652D01*
X86800000Y-83126992D01*
X98424960Y-83126992D01*
X98425000Y-83127000D01*
X100599995Y-83127000D01*
X100600000Y-83127001D01*
X100832052Y-83080842D01*
X100878211Y-83071660D01*
X101019984Y-82976931D01*
X101313289Y-82977187D01*
X101709275Y-82813569D01*
X102012504Y-82510868D01*
X102176813Y-82115168D01*
X102177187Y-81686711D01*
X102013569Y-81290725D01*
X101710868Y-80987496D01*
X101315168Y-80823187D01*
X100886711Y-80822813D01*
X100856024Y-80835493D01*
X100721965Y-80511045D01*
X101170703Y-80325631D01*
X101544319Y-79952666D01*
X101690109Y-79601567D01*
X101834369Y-79950703D01*
X102207334Y-80324319D01*
X102694885Y-80526769D01*
X103222798Y-80527229D01*
X103710703Y-80325631D01*
X104084319Y-79952666D01*
X104230109Y-79601567D01*
X104374369Y-79950703D01*
X104747334Y-80324319D01*
X105234885Y-80526769D01*
X105644741Y-80527126D01*
X102809190Y-83362676D01*
X101750000Y-83362676D01*
X101554706Y-83399423D01*
X101375340Y-83514842D01*
X101358557Y-83539405D01*
X101285158Y-83425340D01*
X101109049Y-83305010D01*
X100900000Y-83262676D01*
X99300000Y-83262676D01*
X99104706Y-83299423D01*
X98925340Y-83414842D01*
X98805010Y-83590951D01*
X98762676Y-83800000D01*
X98762676Y-84773000D01*
X94701133Y-84773000D01*
X93814067Y-83885933D01*
X93414063Y-83485929D01*
X93394716Y-83473002D01*
X93178207Y-83328336D01*
X93132048Y-83319154D01*
X92899996Y-83272995D01*
X92899991Y-83272996D01*
X79100004Y-83272996D01*
X78821793Y-83328336D01*
X78585937Y-83485929D01*
X75448866Y-86623000D01*
X74337324Y-86623000D01*
X74337324Y-86450000D01*
X74300577Y-86254706D01*
X74185158Y-86075340D01*
X74009049Y-85955010D01*
X73800000Y-85912676D01*
X70200000Y-85912676D01*
X70004706Y-85949423D01*
X69825340Y-86064842D01*
X69705010Y-86240951D01*
X69662676Y-86450000D01*
X69662676Y-86673000D01*
X63827000Y-86673000D01*
X63827000Y-79800000D01*
X63634644Y-78832959D01*
X63306915Y-78342478D01*
X63306915Y-77502000D01*
X68647997Y-77502000D01*
X68148459Y-78000668D01*
X68148459Y-78000668D01*
G37*
X68148459Y-78000668D02*
X67825867Y-78777555D01*
X67825133Y-79618755D01*
X68146368Y-80396204D01*
X68740668Y-80991541D01*
X69517555Y-81314133D01*
X70358755Y-81314867D01*
X71136204Y-80993632D01*
X71731541Y-80399332D01*
X72054133Y-79622445D01*
X72054272Y-79462798D01*
X72168771Y-79462798D01*
X72370369Y-79950703D01*
X72743334Y-80324319D01*
X73230885Y-80526769D01*
X73758798Y-80527229D01*
X74246703Y-80325631D01*
X74620319Y-79952666D01*
X74766109Y-79601567D01*
X74910369Y-79950703D01*
X75283334Y-80324319D01*
X75770885Y-80526769D01*
X76298798Y-80527229D01*
X76786703Y-80325631D01*
X77160319Y-79952666D01*
X77306109Y-79601567D01*
X77450369Y-79950703D01*
X77823334Y-80324319D01*
X78310885Y-80526769D01*
X78838798Y-80527229D01*
X79326703Y-80325631D01*
X79700319Y-79952666D01*
X79902769Y-79465115D01*
X79903229Y-78937202D01*
X79701631Y-78449297D01*
X79328666Y-78075681D01*
X78841115Y-77873231D01*
X78313202Y-77872771D01*
X77825297Y-78074369D01*
X77451681Y-78447334D01*
X77305891Y-78798433D01*
X77161631Y-78449297D01*
X76788666Y-78075681D01*
X76301115Y-77873231D01*
X75773202Y-77872771D01*
X75285297Y-78074369D01*
X74911681Y-78447334D01*
X74765891Y-78798433D01*
X74621631Y-78449297D01*
X74248666Y-78075681D01*
X73761115Y-77873231D01*
X73233202Y-77872771D01*
X72745297Y-78074369D01*
X72371681Y-78447334D01*
X72169231Y-78934885D01*
X72168771Y-79462798D01*
X72054272Y-79462798D01*
X72054867Y-78781245D01*
X71733632Y-78003796D01*
X71232710Y-77502000D01*
X113469867Y-77502000D01*
X113098885Y-77872982D01*
X112857202Y-77872771D01*
X112369297Y-78074369D01*
X111995681Y-78447334D01*
X111849891Y-78798433D01*
X111705631Y-78449297D01*
X111332666Y-78075681D01*
X110845115Y-77873231D01*
X110317202Y-77872771D01*
X109829297Y-78074369D01*
X109455681Y-78447334D01*
X109309891Y-78798433D01*
X109165631Y-78449297D01*
X108792666Y-78075681D01*
X108305115Y-77873231D01*
X107777202Y-77872771D01*
X107289297Y-78074369D01*
X106915681Y-78447334D01*
X106769891Y-78798433D01*
X106625631Y-78449297D01*
X106252666Y-78075681D01*
X105765115Y-77873231D01*
X105237202Y-77872771D01*
X104749297Y-78074369D01*
X104375681Y-78447334D01*
X104229891Y-78798433D01*
X104085631Y-78449297D01*
X103712666Y-78075681D01*
X103225115Y-77873231D01*
X102697202Y-77872771D01*
X102209297Y-78074369D01*
X101835681Y-78447334D01*
X101689891Y-78798433D01*
X101545631Y-78449297D01*
X101172666Y-78075681D01*
X100685115Y-77873231D01*
X100157202Y-77872771D01*
X99669297Y-78074369D01*
X99295681Y-78447334D01*
X99093231Y-78934885D01*
X99092771Y-79462798D01*
X99294369Y-79950703D01*
X99430702Y-80087274D01*
X99190725Y-80186431D01*
X99016546Y-80360306D01*
X99076813Y-80215168D01*
X99077187Y-79786711D01*
X98913569Y-79390725D01*
X98610868Y-79087496D01*
X98215168Y-78923187D01*
X97786711Y-78922813D01*
X97683204Y-78965581D01*
X97683229Y-78937202D01*
X97481631Y-78449297D01*
X97108666Y-78075681D01*
X96621115Y-77873231D01*
X96093202Y-77872771D01*
X95605297Y-78074369D01*
X95231681Y-78447334D01*
X95085891Y-78798433D01*
X94941631Y-78449297D01*
X94568666Y-78075681D01*
X94081115Y-77873231D01*
X93553202Y-77872771D01*
X93065297Y-78074369D01*
X92691681Y-78447334D01*
X92545891Y-78798433D01*
X92401631Y-78449297D01*
X92028666Y-78075681D01*
X91541115Y-77873231D01*
X91013202Y-77872771D01*
X90525297Y-78074369D01*
X90151681Y-78447334D01*
X90005891Y-78798433D01*
X89861631Y-78449297D01*
X89488666Y-78075681D01*
X89001115Y-77873231D01*
X88473202Y-77872771D01*
X87985297Y-78074369D01*
X87611681Y-78447334D01*
X87497293Y-78722810D01*
X87458582Y-78780745D01*
X87321631Y-78449297D01*
X86948666Y-78075681D01*
X86461115Y-77873231D01*
X85933202Y-77872771D01*
X85445297Y-78074369D01*
X85071681Y-78447334D01*
X84957293Y-78722810D01*
X84918582Y-78780745D01*
X84781631Y-78449297D01*
X84408666Y-78075681D01*
X83921115Y-77873231D01*
X83393202Y-77872771D01*
X82905297Y-78074369D01*
X82531681Y-78447334D01*
X82329231Y-78934885D01*
X82328771Y-79462798D01*
X82530369Y-79950703D01*
X82903334Y-80324319D01*
X83390885Y-80526769D01*
X83899086Y-80527212D01*
X86285931Y-82914056D01*
X86285933Y-82914059D01*
X86521789Y-83071652D01*
X86800000Y-83126992D01*
X98424960Y-83126992D01*
X98425000Y-83127000D01*
X100599995Y-83127000D01*
X100600000Y-83127001D01*
X100832052Y-83080842D01*
X100878211Y-83071660D01*
X101019984Y-82976931D01*
X101313289Y-82977187D01*
X101709275Y-82813569D01*
X102012504Y-82510868D01*
X102176813Y-82115168D01*
X102177187Y-81686711D01*
X102013569Y-81290725D01*
X101710868Y-80987496D01*
X101315168Y-80823187D01*
X100886711Y-80822813D01*
X100856024Y-80835493D01*
X100721965Y-80511045D01*
X101170703Y-80325631D01*
X101544319Y-79952666D01*
X101690109Y-79601567D01*
X101834369Y-79950703D01*
X102207334Y-80324319D01*
X102694885Y-80526769D01*
X103222798Y-80527229D01*
X103710703Y-80325631D01*
X104084319Y-79952666D01*
X104230109Y-79601567D01*
X104374369Y-79950703D01*
X104747334Y-80324319D01*
X105234885Y-80526769D01*
X105644741Y-80527126D01*
X102809190Y-83362676D01*
X101750000Y-83362676D01*
X101554706Y-83399423D01*
X101375340Y-83514842D01*
X101358557Y-83539405D01*
X101285158Y-83425340D01*
X101109049Y-83305010D01*
X100900000Y-83262676D01*
X99300000Y-83262676D01*
X99104706Y-83299423D01*
X98925340Y-83414842D01*
X98805010Y-83590951D01*
X98762676Y-83800000D01*
X98762676Y-84773000D01*
X94701133Y-84773000D01*
X93814067Y-83885933D01*
X93414063Y-83485929D01*
X93394716Y-83473002D01*
X93178207Y-83328336D01*
X93132048Y-83319154D01*
X92899996Y-83272995D01*
X92899991Y-83272996D01*
X79100004Y-83272996D01*
X78821793Y-83328336D01*
X78585937Y-83485929D01*
X75448866Y-86623000D01*
X74337324Y-86623000D01*
X74337324Y-86450000D01*
X74300577Y-86254706D01*
X74185158Y-86075340D01*
X74009049Y-85955010D01*
X73800000Y-85912676D01*
X70200000Y-85912676D01*
X70004706Y-85949423D01*
X69825340Y-86064842D01*
X69705010Y-86240951D01*
X69662676Y-86450000D01*
X69662676Y-86673000D01*
X63827000Y-86673000D01*
X63827000Y-79800000D01*
X63634644Y-78832959D01*
X63306915Y-78342478D01*
X63306915Y-77502000D01*
X68647997Y-77502000D01*
X68148459Y-78000668D01*
M02*
