G04 #@! TF.FileFunction,Copper,L2,Bot,Signal*
%FSLAX46Y46*%
G04 Gerber Fmt 4.6, Leading zero omitted, Abs format (unit mm)*
G04 Created by KiCad (PCBNEW 4.0.2+dfsg1-stable) date Mo 16 Jul 2018 11:21:53 CEST*
%MOMM*%
G01*
G04 APERTURE LIST*
%ADD10C,0.100000*%
%ADD11R,1.650000X5.600000*%
%ADD12C,1.600000*%
%ADD13C,3.400000*%
%ADD14C,1.524000*%
%ADD15C,1.700000*%
%ADD16C,2.200000*%
%ADD17R,1.727200X2.032000*%
%ADD18O,1.727200X2.032000*%
%ADD19R,2.032000X2.032000*%
%ADD20O,2.032000X2.032000*%
%ADD21C,1.100000*%
%ADD22C,0.400000*%
%ADD23C,1.000000*%
G04 APERTURE END LIST*
D10*
D11*
X65425000Y-79800000D03*
X57175000Y-79800000D03*
D12*
X105500000Y-127460000D03*
X108040000Y-127460000D03*
X110580000Y-127460000D03*
X113120000Y-127460000D03*
X115660000Y-127460000D03*
X118200000Y-127460000D03*
X82640000Y-127460000D03*
X85180000Y-127460000D03*
X87720000Y-127460000D03*
X90260000Y-127460000D03*
X92800000Y-127460000D03*
X95340000Y-127460000D03*
X97880000Y-127460000D03*
X100420000Y-127460000D03*
X100420000Y-79200000D03*
X102960000Y-79200000D03*
X105500000Y-79200000D03*
X108040000Y-79200000D03*
X110580000Y-79200000D03*
X113120000Y-79200000D03*
X115660000Y-79200000D03*
X73496000Y-79200000D03*
X76036000Y-79200000D03*
X78576000Y-79200000D03*
X81116000Y-79200000D03*
X83656000Y-79200000D03*
X86196000Y-79200000D03*
X88736000Y-79200000D03*
X91276000Y-79200000D03*
X93816000Y-79200000D03*
X96356000Y-79200000D03*
X118200000Y-79200000D03*
D13*
X131600000Y-128000000D03*
X131600000Y-115600000D03*
D14*
X138600000Y-119300000D03*
X124100000Y-124300000D03*
X138600000Y-124300000D03*
X124100000Y-121800000D03*
X124100000Y-119300000D03*
D15*
X129500000Y-95000000D03*
X136500000Y-95000000D03*
D16*
X127000000Y-98200000D03*
X127000000Y-91800000D03*
X135000000Y-91800000D03*
X135000000Y-98200000D03*
D15*
X132000000Y-108850000D03*
X136000000Y-105150000D03*
X137300000Y-108850000D03*
D12*
X122800000Y-83100000D03*
X129800000Y-83100000D03*
X128550000Y-80600000D03*
X124050000Y-80600000D03*
D17*
X58200000Y-127300000D03*
D18*
X60740000Y-127300000D03*
X63280000Y-127300000D03*
D19*
X116700000Y-101300000D03*
D20*
X116700000Y-98760000D03*
D21*
X57300000Y-85200000D03*
X65500000Y-85100000D03*
X130100000Y-110600000D03*
X130100000Y-101500000D03*
X78200000Y-129100000D03*
X103200000Y-129000000D03*
X112100000Y-91400000D03*
X112000000Y-125000000D03*
X101200000Y-98600000D03*
X101100000Y-81900000D03*
X99800000Y-81100000D03*
X99900000Y-99400000D03*
X98000000Y-80000000D03*
X98000000Y-99400000D03*
D22*
X65400000Y-85200000D02*
X57300000Y-85200000D01*
X65500000Y-85100000D02*
X65400000Y-85200000D01*
D23*
X130100000Y-110600000D02*
X130100000Y-101500000D01*
D22*
X78200000Y-129100000D02*
X84900000Y-129100000D01*
X84900000Y-129100000D02*
X84900000Y-129200000D01*
X84900000Y-129200000D02*
X84900000Y-129100000D01*
X103100000Y-129100000D02*
X84900000Y-129100000D01*
X103200000Y-129000000D02*
X103100000Y-129100000D01*
X112000000Y-91500000D02*
X112000000Y-125000000D01*
X112100000Y-91400000D02*
X112000000Y-91500000D01*
X112000000Y-91650000D02*
X112000000Y-125000000D01*
X112000000Y-91725000D02*
X112000000Y-91650000D01*
X101200000Y-91700000D02*
X101200000Y-98600000D01*
X101200000Y-82000000D02*
X101200000Y-91700000D01*
X101100000Y-81900000D02*
X101200000Y-82000000D01*
X99900000Y-96800000D02*
X99900000Y-99400000D01*
X99800000Y-81100000D02*
X99900000Y-81200000D01*
X99900000Y-81200000D02*
X99900000Y-96800000D01*
X98000000Y-96900000D02*
X98000000Y-99400000D01*
X98000000Y-80000000D02*
X98000000Y-95700000D01*
X98000000Y-95700000D02*
X98000000Y-96900000D01*
M02*
