M48
;DRILL file {KiCad 4.0.2+dfsg1-stable} date Fr 20 Jul 2018 15:07:44 CEST
;FORMAT={-:-/ absolute / metric / decimal}
FMAT,2
METRIC,TZ
T1C0.400
T2C0.500
T3C0.800
T4C1.000
T5C1.016
T6C1.100
T7C1.500
T8C2.600
%
G90
G05
M71
T1
X56.5Y-92.1
X56.5Y-98.8
X56.5Y-107.3
X56.5Y-113.9
X59.8Y-114.
X63.5Y-113.9
X65.9Y-115.9
X68.4Y-118.
X68.6Y-85.7
X71.6Y-117.9
X76.Y-111.1
X78.7Y-115.2
X78.7Y-122.
X80.8Y-128.7
X83.3Y-115.1
X83.5Y-122.2
X90.4Y-124.8
X93.6Y-101.9
X95.6Y-89.2
X95.7Y-92.7
X95.8Y-102.1
X97.8Y-116.
X97.9Y-103.8
X97.9Y-108.9
X99.2Y-85.5
X99.2Y-105.5
X99.2Y-110.8
X99.2Y-115.9
X100.Y-100.3
X103.1Y-115.
X103.8Y-91.1
X103.9Y-88.9
X104.2Y-93.1
X109.9Y-108.45
X111.4Y-96.4
X112.2Y-125.7
X113.3Y-87.7
X113.5Y-83.1
X113.95Y-96.15
X117.Y-111.8
X117.1Y-83.5
X121.1Y-97.3
X121.5Y-83.
X123.5Y-101.5
X134.Y-84.2
T2
X57.3Y-85.2
X65.5Y-85.1
T3
X122.4Y-79.19
X122.4Y-86.81
T4
X73.496Y-79.2
X76.036Y-79.2
X78.576Y-79.2
X81.116Y-79.2
X82.64Y-127.46
X83.656Y-79.2
X85.18Y-127.46
X86.196Y-79.2
X87.72Y-127.46
X88.736Y-79.2
X90.26Y-127.46
X91.276Y-79.2
X92.8Y-127.46
X93.816Y-79.2
X95.34Y-127.46
X96.356Y-79.2
X97.88Y-127.46
X100.42Y-79.2
X100.42Y-127.46
X102.96Y-79.2
X105.5Y-79.2
X105.5Y-127.46
X108.04Y-79.2
X108.04Y-127.46
X110.58Y-79.2
X110.58Y-127.46
X113.12Y-79.2
X113.12Y-127.46
X115.66Y-79.2
X115.66Y-127.46
X118.2Y-79.2
X118.2Y-127.46
X124.1Y-119.3
X124.1Y-121.8
X124.1Y-124.3
X125.5Y-83.1
X126.75Y-80.6
X131.25Y-80.6
X132.5Y-83.1
X138.6Y-119.3
X138.6Y-124.3
T5
X58.2Y-127.3
X60.74Y-127.3
X63.28Y-127.3
X116.7Y-98.76
X116.7Y-101.3
T6
X132.Y-108.85
X136.Y-105.15
X137.3Y-108.85
T7
X127.Y-91.8
X127.Y-98.2
X135.Y-91.8
X135.Y-98.2
T8
X131.6Y-115.6
X131.6Y-128.
T0
M30
