G04 #@! TF.FileFunction,Legend,Top*
%FSLAX46Y46*%
G04 Gerber Fmt 4.6, Leading zero omitted, Abs format (unit mm)*
G04 Created by KiCad (PCBNEW 4.0.2+dfsg1-stable) date Mo 16 Jul 2018 11:21:53 CEST*
%MOMM*%
G01*
G04 APERTURE LIST*
%ADD10C,0.100000*%
%ADD11C,0.150000*%
G04 APERTURE END LIST*
D10*
D11*
X57000000Y-90725000D02*
X59000000Y-90725000D01*
X59000000Y-88675000D02*
X57000000Y-88675000D01*
X57000000Y-96225000D02*
X59000000Y-96225000D01*
X59000000Y-94175000D02*
X57000000Y-94175000D01*
X57000000Y-106025000D02*
X59000000Y-106025000D01*
X59000000Y-103975000D02*
X57000000Y-103975000D01*
X57000000Y-110525000D02*
X59000000Y-110525000D01*
X59000000Y-108475000D02*
X57000000Y-108475000D01*
X99075000Y-84800000D02*
X99075000Y-86800000D01*
X101125000Y-86800000D02*
X101125000Y-84800000D01*
X104500000Y-123625000D02*
X106500000Y-123625000D01*
X106500000Y-121575000D02*
X104500000Y-121575000D01*
X99700000Y-125925000D02*
X101700000Y-125925000D01*
X101700000Y-123875000D02*
X99700000Y-123875000D01*
X96025000Y-123300000D02*
X96025000Y-121300000D01*
X93975000Y-121300000D02*
X93975000Y-123300000D01*
X93425000Y-123300000D02*
X93425000Y-121300000D01*
X91375000Y-121300000D02*
X91375000Y-123300000D01*
X96300000Y-94725000D02*
X98300000Y-94725000D01*
X98300000Y-92675000D02*
X96300000Y-92675000D01*
X118525000Y-95400000D02*
X118525000Y-93400000D01*
X116475000Y-93400000D02*
X116475000Y-95400000D01*
X122000000Y-98075000D02*
X120000000Y-98075000D01*
X120000000Y-100125000D02*
X122000000Y-100125000D01*
X118300000Y-89475000D02*
X116300000Y-89475000D01*
X116300000Y-91525000D02*
X118300000Y-91525000D01*
X64500000Y-75700000D02*
X64500000Y-68100000D01*
X64500000Y-68100000D02*
X58100000Y-68100000D01*
X58100000Y-68100000D02*
X58100000Y-75700000D01*
X66800000Y-77000000D02*
X55800000Y-77000000D01*
X66100000Y-82400000D02*
X56500000Y-82400000D01*
X56500000Y-82400000D02*
X56500000Y-75700000D01*
X56500000Y-75700000D02*
X66100000Y-75700000D01*
X66100000Y-75700000D02*
X66100000Y-82400000D01*
X66300000Y-89600000D02*
X66300000Y-94000000D01*
X66300000Y-94000000D02*
X62500000Y-94000000D01*
X62500000Y-94000000D02*
X62500000Y-89600000D01*
X62500000Y-89600000D02*
X66300000Y-89600000D01*
X65700000Y-101500000D02*
X61300000Y-101500000D01*
X61300000Y-101500000D02*
X61300000Y-97700000D01*
X61300000Y-97700000D02*
X65700000Y-97700000D01*
X65700000Y-97700000D02*
X65700000Y-101500000D01*
X66400000Y-105100000D02*
X66400000Y-109500000D01*
X66400000Y-109500000D02*
X62600000Y-109500000D01*
X62600000Y-109500000D02*
X62600000Y-105100000D01*
X62600000Y-105100000D02*
X66400000Y-105100000D01*
X132000000Y-81425000D02*
X134000000Y-81425000D01*
X134000000Y-83575000D02*
X132000000Y-83575000D01*
X95100000Y-112325000D02*
X97100000Y-112325000D01*
X97100000Y-114475000D02*
X95100000Y-114475000D01*
X98700000Y-114825000D02*
X100700000Y-114825000D01*
X100700000Y-116975000D02*
X98700000Y-116975000D01*
X104025000Y-86800000D02*
X104025000Y-84800000D01*
X106175000Y-84800000D02*
X106175000Y-86800000D01*
X106525000Y-86700000D02*
X106525000Y-84700000D01*
X108675000Y-84700000D02*
X108675000Y-86700000D01*
X132000000Y-84925000D02*
X134000000Y-84925000D01*
X134000000Y-87075000D02*
X132000000Y-87075000D01*
X132000000Y-77925000D02*
X134000000Y-77925000D01*
X134000000Y-80075000D02*
X132000000Y-80075000D01*
X95100000Y-106325000D02*
X97100000Y-106325000D01*
X97100000Y-108475000D02*
X95100000Y-108475000D01*
X98500000Y-109725000D02*
X100500000Y-109725000D01*
X100500000Y-111875000D02*
X98500000Y-111875000D01*
X95000000Y-100225000D02*
X97000000Y-100225000D01*
X97000000Y-102375000D02*
X95000000Y-102375000D01*
X98500000Y-103725000D02*
X100500000Y-103725000D01*
X100500000Y-105875000D02*
X98500000Y-105875000D01*
X111975000Y-83500000D02*
X111975000Y-85500000D01*
X109825000Y-85500000D02*
X109825000Y-83500000D01*
X101525000Y-86800000D02*
X101525000Y-84800000D01*
X103675000Y-84800000D02*
X103675000Y-86800000D01*
X98675000Y-84800000D02*
X98675000Y-86800000D01*
X96525000Y-86800000D02*
X96525000Y-84800000D01*
X99575000Y-120300000D02*
X99575000Y-122300000D01*
X97425000Y-122300000D02*
X97425000Y-120300000D01*
X96300000Y-95125000D02*
X98300000Y-95125000D01*
X98300000Y-97275000D02*
X96300000Y-97275000D01*
X100025000Y-122300000D02*
X100025000Y-120300000D01*
X102175000Y-120300000D02*
X102175000Y-122300000D01*
X73875000Y-125800000D02*
X73875000Y-127800000D01*
X71725000Y-127800000D02*
X71725000Y-125800000D01*
X108675000Y-94800000D02*
X108675000Y-96800000D01*
X106525000Y-96800000D02*
X106525000Y-94800000D01*
X101100000Y-92625000D02*
X103100000Y-92625000D01*
X103100000Y-94775000D02*
X101100000Y-94775000D01*
X116300000Y-86925000D02*
X118300000Y-86925000D01*
X118300000Y-89075000D02*
X116300000Y-89075000D01*
X111600000Y-87025000D02*
X113600000Y-87025000D01*
X113600000Y-89175000D02*
X111600000Y-89175000D01*
X125075000Y-94200000D02*
X125075000Y-96200000D01*
X122925000Y-96200000D02*
X122925000Y-94200000D01*
X72000000Y-118500000D02*
X90000000Y-118500000D01*
X90000000Y-118500000D02*
X90000000Y-82900000D01*
X90000000Y-82900000D02*
X72000000Y-82900000D01*
X72000000Y-82900000D02*
X72000000Y-118500000D01*
X114900000Y-115100000D02*
X113650000Y-115100000D01*
X114900000Y-115100000D02*
X114900000Y-113600000D01*
X104900000Y-115100000D02*
X104900000Y-113600000D01*
X104900000Y-115100000D02*
X106150000Y-115100000D01*
X114578500Y-93820500D02*
X114433500Y-93820500D01*
X114578500Y-97970500D02*
X114433500Y-97970500D01*
X109428500Y-97970500D02*
X109573500Y-97970500D01*
X109428500Y-93820500D02*
X109573500Y-93820500D01*
X114578500Y-93820500D02*
X114578500Y-97970500D01*
X109428500Y-93820500D02*
X109428500Y-97970500D01*
X114433500Y-93820500D02*
X114433500Y-92420500D01*
X135850000Y-83550000D02*
X139450000Y-83550000D01*
X135850000Y-81450000D02*
X139450000Y-81450000D01*
X137900000Y-82200000D02*
X137900000Y-82800000D01*
X137900000Y-82800000D02*
X137600000Y-82500000D01*
X137600000Y-82500000D02*
X137800000Y-82300000D01*
X137800000Y-82300000D02*
X137800000Y-82550000D01*
X137800000Y-82550000D02*
X137750000Y-82500000D01*
X137500000Y-82000000D02*
X137500000Y-83000000D01*
X138000000Y-82500000D02*
X138500000Y-82500000D01*
X137500000Y-82500000D02*
X138000000Y-82000000D01*
X138000000Y-82000000D02*
X138000000Y-83000000D01*
X138000000Y-83000000D02*
X137500000Y-82500000D01*
X135850000Y-87050000D02*
X139450000Y-87050000D01*
X135850000Y-84950000D02*
X139450000Y-84950000D01*
X137900000Y-85700000D02*
X137900000Y-86300000D01*
X137900000Y-86300000D02*
X137600000Y-86000000D01*
X137600000Y-86000000D02*
X137800000Y-85800000D01*
X137800000Y-85800000D02*
X137800000Y-86050000D01*
X137800000Y-86050000D02*
X137750000Y-86000000D01*
X137500000Y-85500000D02*
X137500000Y-86500000D01*
X138000000Y-86000000D02*
X138500000Y-86000000D01*
X137500000Y-86000000D02*
X138000000Y-85500000D01*
X138000000Y-85500000D02*
X138000000Y-86500000D01*
X138000000Y-86500000D02*
X137500000Y-86000000D01*
X135850000Y-80050000D02*
X139450000Y-80050000D01*
X135850000Y-77950000D02*
X139450000Y-77950000D01*
X137900000Y-78700000D02*
X137900000Y-79300000D01*
X137900000Y-79300000D02*
X137600000Y-79000000D01*
X137600000Y-79000000D02*
X137800000Y-78800000D01*
X137800000Y-78800000D02*
X137800000Y-79050000D01*
X137800000Y-79050000D02*
X137750000Y-79000000D01*
X137500000Y-78500000D02*
X137500000Y-79500000D01*
X138000000Y-79000000D02*
X138500000Y-79000000D01*
X137500000Y-79000000D02*
X138000000Y-78500000D01*
X138000000Y-78500000D02*
X138000000Y-79500000D01*
X138000000Y-79500000D02*
X137500000Y-79000000D01*
X94849760Y-115200840D02*
X94849760Y-115249100D01*
X95550800Y-117999820D02*
X94849760Y-117999820D01*
X94849760Y-117999820D02*
X94849760Y-117750900D01*
X94849760Y-115200840D02*
X94849760Y-115000180D01*
X94849760Y-115000180D02*
X95550800Y-115000180D01*
X94849760Y-109100840D02*
X94849760Y-109149100D01*
X95550800Y-111899820D02*
X94849760Y-111899820D01*
X94849760Y-111899820D02*
X94849760Y-111650900D01*
X94849760Y-109100840D02*
X94849760Y-108900180D01*
X94849760Y-108900180D02*
X95550800Y-108900180D01*
X94849760Y-103100840D02*
X94849760Y-103149100D01*
X95550800Y-105899820D02*
X94849760Y-105899820D01*
X94849760Y-105899820D02*
X94849760Y-105650900D01*
X94849760Y-103100840D02*
X94849760Y-102900180D01*
X94849760Y-102900180D02*
X95550800Y-102900180D01*
X117625000Y-113900000D02*
X117625000Y-111900000D01*
X119775000Y-111900000D02*
X119775000Y-113900000D01*
X120825000Y-113900000D02*
X120825000Y-111900000D01*
X122975000Y-111900000D02*
X122975000Y-113900000D01*
X123325000Y-113900000D02*
X123325000Y-111900000D01*
X125475000Y-111900000D02*
X125475000Y-113900000D01*
X125600000Y-115900000D02*
X125600000Y-127700000D01*
X125600000Y-115900000D02*
X137600000Y-115900000D01*
X137600000Y-115900000D02*
X137600000Y-127700000D01*
X137600000Y-127700000D02*
X125600000Y-127700000D01*
X134500000Y-121800000D02*
G75*
G03X134500000Y-121800000I-2900000J0D01*
G01*
X135700000Y-121800000D02*
G75*
G03X135700000Y-121800000I-4100000J0D01*
G01*
X114600000Y-84925000D02*
X116600000Y-84925000D01*
X116600000Y-82875000D02*
X114600000Y-82875000D01*
X137100000Y-88025000D02*
X139100000Y-88025000D01*
X139100000Y-90175000D02*
X137100000Y-90175000D01*
X138500000Y-91500000D02*
X138500000Y-98500000D01*
X141000000Y-91500000D02*
X141000000Y-98500000D01*
X141000000Y-98500000D02*
X126500000Y-98500000D01*
X126500000Y-98500000D02*
X126500000Y-91500000D01*
X126500000Y-91500000D02*
X141000000Y-91500000D01*
X141900000Y-94400000D02*
X141300000Y-95000000D01*
X141300000Y-95000000D02*
X141900000Y-95600000D01*
X144200000Y-95000000D02*
X141300000Y-95000000D01*
X141900000Y-106400000D02*
X141300000Y-107000000D01*
X141300000Y-107000000D02*
X141900000Y-107600000D01*
X144200000Y-107000000D02*
X141300000Y-107000000D01*
X139500000Y-104500000D02*
X139500000Y-109500000D01*
X141000000Y-104500000D02*
X141000000Y-109500000D01*
X141000000Y-109500000D02*
X130000000Y-109500000D01*
X130000000Y-109500000D02*
X130000000Y-104500000D01*
X130000000Y-104500000D02*
X141000000Y-104500000D01*
X128100000Y-77400000D02*
X128100000Y-78000000D01*
X128100000Y-77400000D02*
X124500000Y-77400000D01*
X124500000Y-77400000D02*
X124500000Y-78000000D01*
X130000000Y-84600000D02*
X122600000Y-84600000D01*
X122600000Y-84600000D02*
X122600000Y-78000000D01*
X122600000Y-78000000D02*
X130000000Y-78000000D01*
X130000000Y-78000000D02*
X130000000Y-84600000D01*
X65475000Y-90800000D02*
X65475000Y-92800000D01*
X63325000Y-92800000D02*
X63325000Y-90800000D01*
X64500000Y-100675000D02*
X62500000Y-100675000D01*
X62500000Y-98525000D02*
X64500000Y-98525000D01*
X65575000Y-106300000D02*
X65575000Y-108300000D01*
X63425000Y-108300000D02*
X63425000Y-106300000D01*
X59470000Y-128570000D02*
X64550000Y-128570000D01*
X64550000Y-128570000D02*
X64550000Y-126030000D01*
X64550000Y-126030000D02*
X59470000Y-126030000D01*
X56650000Y-125750000D02*
X58200000Y-125750000D01*
X59470000Y-126030000D02*
X59470000Y-128570000D01*
X58200000Y-128850000D02*
X56650000Y-128850000D01*
X56650000Y-128850000D02*
X56650000Y-125750000D01*
X115430000Y-100030000D02*
X115430000Y-97490000D01*
X115150000Y-102850000D02*
X115150000Y-101300000D01*
X115430000Y-100030000D02*
X117970000Y-100030000D01*
X118250000Y-101300000D02*
X118250000Y-102850000D01*
X118250000Y-102850000D02*
X115150000Y-102850000D01*
X117970000Y-100030000D02*
X117970000Y-97490000D01*
X117970000Y-97490000D02*
X115430000Y-97490000D01*
X127910000Y-106416000D02*
X127910000Y-104384000D01*
X127783000Y-104003000D02*
X127783000Y-106797000D01*
X127656000Y-107051000D02*
X127656000Y-103749000D01*
X127529000Y-103495000D02*
X127529000Y-107305000D01*
X127402000Y-103368000D02*
X127402000Y-107432000D01*
X127275000Y-107686000D02*
X127275000Y-103114000D01*
X128291000Y-109591000D02*
X128291000Y-101209000D01*
X128291000Y-101209000D02*
X120671000Y-101209000D01*
X120671000Y-101209000D02*
X119909000Y-101971000D01*
X119909000Y-101971000D02*
X119909000Y-108829000D01*
X119909000Y-108829000D02*
X120671000Y-109591000D01*
X120671000Y-109591000D02*
X128291000Y-109591000D01*
X120417000Y-105400000D02*
X121179000Y-105400000D01*
X120798000Y-105781000D02*
X120798000Y-105019000D01*
X128037000Y-105400000D02*
G75*
G03X128037000Y-105400000I-3937000J0D01*
G01*
X57833334Y-92357143D02*
X57785715Y-92404762D01*
X57642858Y-92452381D01*
X57547620Y-92452381D01*
X57404762Y-92404762D01*
X57309524Y-92309524D01*
X57261905Y-92214286D01*
X57214286Y-92023810D01*
X57214286Y-91880952D01*
X57261905Y-91690476D01*
X57309524Y-91595238D01*
X57404762Y-91500000D01*
X57547620Y-91452381D01*
X57642858Y-91452381D01*
X57785715Y-91500000D01*
X57833334Y-91547619D01*
X58785715Y-92452381D02*
X58214286Y-92452381D01*
X58500000Y-92452381D02*
X58500000Y-91452381D01*
X58404762Y-91595238D01*
X58309524Y-91690476D01*
X58214286Y-91738095D01*
X57833334Y-97857143D02*
X57785715Y-97904762D01*
X57642858Y-97952381D01*
X57547620Y-97952381D01*
X57404762Y-97904762D01*
X57309524Y-97809524D01*
X57261905Y-97714286D01*
X57214286Y-97523810D01*
X57214286Y-97380952D01*
X57261905Y-97190476D01*
X57309524Y-97095238D01*
X57404762Y-97000000D01*
X57547620Y-96952381D01*
X57642858Y-96952381D01*
X57785715Y-97000000D01*
X57833334Y-97047619D01*
X58214286Y-97047619D02*
X58261905Y-97000000D01*
X58357143Y-96952381D01*
X58595239Y-96952381D01*
X58690477Y-97000000D01*
X58738096Y-97047619D01*
X58785715Y-97142857D01*
X58785715Y-97238095D01*
X58738096Y-97380952D01*
X58166667Y-97952381D01*
X58785715Y-97952381D01*
X57833334Y-107657143D02*
X57785715Y-107704762D01*
X57642858Y-107752381D01*
X57547620Y-107752381D01*
X57404762Y-107704762D01*
X57309524Y-107609524D01*
X57261905Y-107514286D01*
X57214286Y-107323810D01*
X57214286Y-107180952D01*
X57261905Y-106990476D01*
X57309524Y-106895238D01*
X57404762Y-106800000D01*
X57547620Y-106752381D01*
X57642858Y-106752381D01*
X57785715Y-106800000D01*
X57833334Y-106847619D01*
X58166667Y-106752381D02*
X58785715Y-106752381D01*
X58452381Y-107133333D01*
X58595239Y-107133333D01*
X58690477Y-107180952D01*
X58738096Y-107228571D01*
X58785715Y-107323810D01*
X58785715Y-107561905D01*
X58738096Y-107657143D01*
X58690477Y-107704762D01*
X58595239Y-107752381D01*
X58309524Y-107752381D01*
X58214286Y-107704762D01*
X58166667Y-107657143D01*
X57833334Y-112157143D02*
X57785715Y-112204762D01*
X57642858Y-112252381D01*
X57547620Y-112252381D01*
X57404762Y-112204762D01*
X57309524Y-112109524D01*
X57261905Y-112014286D01*
X57214286Y-111823810D01*
X57214286Y-111680952D01*
X57261905Y-111490476D01*
X57309524Y-111395238D01*
X57404762Y-111300000D01*
X57547620Y-111252381D01*
X57642858Y-111252381D01*
X57785715Y-111300000D01*
X57833334Y-111347619D01*
X58690477Y-111585714D02*
X58690477Y-112252381D01*
X58452381Y-111204762D02*
X58214286Y-111919048D01*
X58833334Y-111919048D01*
X100357143Y-89366666D02*
X100404762Y-89414285D01*
X100452381Y-89557142D01*
X100452381Y-89652380D01*
X100404762Y-89795238D01*
X100309524Y-89890476D01*
X100214286Y-89938095D01*
X100023810Y-89985714D01*
X99880952Y-89985714D01*
X99690476Y-89938095D01*
X99595238Y-89890476D01*
X99500000Y-89795238D01*
X99452381Y-89652380D01*
X99452381Y-89557142D01*
X99500000Y-89414285D01*
X99547619Y-89366666D01*
X99452381Y-88461904D02*
X99452381Y-88938095D01*
X99928571Y-88985714D01*
X99880952Y-88938095D01*
X99833333Y-88842857D01*
X99833333Y-88604761D01*
X99880952Y-88509523D01*
X99928571Y-88461904D01*
X100023810Y-88414285D01*
X100261905Y-88414285D01*
X100357143Y-88461904D01*
X100404762Y-88509523D01*
X100452381Y-88604761D01*
X100452381Y-88842857D01*
X100404762Y-88938095D01*
X100357143Y-88985714D01*
X108633334Y-122957143D02*
X108585715Y-123004762D01*
X108442858Y-123052381D01*
X108347620Y-123052381D01*
X108204762Y-123004762D01*
X108109524Y-122909524D01*
X108061905Y-122814286D01*
X108014286Y-122623810D01*
X108014286Y-122480952D01*
X108061905Y-122290476D01*
X108109524Y-122195238D01*
X108204762Y-122100000D01*
X108347620Y-122052381D01*
X108442858Y-122052381D01*
X108585715Y-122100000D01*
X108633334Y-122147619D01*
X109490477Y-122052381D02*
X109300000Y-122052381D01*
X109204762Y-122100000D01*
X109157143Y-122147619D01*
X109061905Y-122290476D01*
X109014286Y-122480952D01*
X109014286Y-122861905D01*
X109061905Y-122957143D01*
X109109524Y-123004762D01*
X109204762Y-123052381D01*
X109395239Y-123052381D01*
X109490477Y-123004762D01*
X109538096Y-122957143D01*
X109585715Y-122861905D01*
X109585715Y-122623810D01*
X109538096Y-122528571D01*
X109490477Y-122480952D01*
X109395239Y-122433333D01*
X109204762Y-122433333D01*
X109109524Y-122480952D01*
X109061905Y-122528571D01*
X109014286Y-122623810D01*
X103733334Y-125457143D02*
X103685715Y-125504762D01*
X103542858Y-125552381D01*
X103447620Y-125552381D01*
X103304762Y-125504762D01*
X103209524Y-125409524D01*
X103161905Y-125314286D01*
X103114286Y-125123810D01*
X103114286Y-124980952D01*
X103161905Y-124790476D01*
X103209524Y-124695238D01*
X103304762Y-124600000D01*
X103447620Y-124552381D01*
X103542858Y-124552381D01*
X103685715Y-124600000D01*
X103733334Y-124647619D01*
X104066667Y-124552381D02*
X104733334Y-124552381D01*
X104304762Y-125552381D01*
X97257143Y-124266666D02*
X97304762Y-124314285D01*
X97352381Y-124457142D01*
X97352381Y-124552380D01*
X97304762Y-124695238D01*
X97209524Y-124790476D01*
X97114286Y-124838095D01*
X96923810Y-124885714D01*
X96780952Y-124885714D01*
X96590476Y-124838095D01*
X96495238Y-124790476D01*
X96400000Y-124695238D01*
X96352381Y-124552380D01*
X96352381Y-124457142D01*
X96400000Y-124314285D01*
X96447619Y-124266666D01*
X96780952Y-123695238D02*
X96733333Y-123790476D01*
X96685714Y-123838095D01*
X96590476Y-123885714D01*
X96542857Y-123885714D01*
X96447619Y-123838095D01*
X96400000Y-123790476D01*
X96352381Y-123695238D01*
X96352381Y-123504761D01*
X96400000Y-123409523D01*
X96447619Y-123361904D01*
X96542857Y-123314285D01*
X96590476Y-123314285D01*
X96685714Y-123361904D01*
X96733333Y-123409523D01*
X96780952Y-123504761D01*
X96780952Y-123695238D01*
X96828571Y-123790476D01*
X96876190Y-123838095D01*
X96971429Y-123885714D01*
X97161905Y-123885714D01*
X97257143Y-123838095D01*
X97304762Y-123790476D01*
X97352381Y-123695238D01*
X97352381Y-123504761D01*
X97304762Y-123409523D01*
X97257143Y-123361904D01*
X97161905Y-123314285D01*
X96971429Y-123314285D01*
X96876190Y-123361904D01*
X96828571Y-123409523D01*
X96780952Y-123504761D01*
X90857143Y-124066666D02*
X90904762Y-124114285D01*
X90952381Y-124257142D01*
X90952381Y-124352380D01*
X90904762Y-124495238D01*
X90809524Y-124590476D01*
X90714286Y-124638095D01*
X90523810Y-124685714D01*
X90380952Y-124685714D01*
X90190476Y-124638095D01*
X90095238Y-124590476D01*
X90000000Y-124495238D01*
X89952381Y-124352380D01*
X89952381Y-124257142D01*
X90000000Y-124114285D01*
X90047619Y-124066666D01*
X90952381Y-123590476D02*
X90952381Y-123400000D01*
X90904762Y-123304761D01*
X90857143Y-123257142D01*
X90714286Y-123161904D01*
X90523810Y-123114285D01*
X90142857Y-123114285D01*
X90047619Y-123161904D01*
X90000000Y-123209523D01*
X89952381Y-123304761D01*
X89952381Y-123495238D01*
X90000000Y-123590476D01*
X90047619Y-123638095D01*
X90142857Y-123685714D01*
X90380952Y-123685714D01*
X90476190Y-123638095D01*
X90523810Y-123590476D01*
X90571429Y-123495238D01*
X90571429Y-123304761D01*
X90523810Y-123209523D01*
X90476190Y-123161904D01*
X90380952Y-123114285D01*
X92857143Y-94057143D02*
X92809524Y-94104762D01*
X92666667Y-94152381D01*
X92571429Y-94152381D01*
X92428571Y-94104762D01*
X92333333Y-94009524D01*
X92285714Y-93914286D01*
X92238095Y-93723810D01*
X92238095Y-93580952D01*
X92285714Y-93390476D01*
X92333333Y-93295238D01*
X92428571Y-93200000D01*
X92571429Y-93152381D01*
X92666667Y-93152381D01*
X92809524Y-93200000D01*
X92857143Y-93247619D01*
X93809524Y-94152381D02*
X93238095Y-94152381D01*
X93523809Y-94152381D02*
X93523809Y-93152381D01*
X93428571Y-93295238D01*
X93333333Y-93390476D01*
X93238095Y-93438095D01*
X94428571Y-93152381D02*
X94523810Y-93152381D01*
X94619048Y-93200000D01*
X94666667Y-93247619D01*
X94714286Y-93342857D01*
X94761905Y-93533333D01*
X94761905Y-93771429D01*
X94714286Y-93961905D01*
X94666667Y-94057143D01*
X94619048Y-94104762D01*
X94523810Y-94152381D01*
X94428571Y-94152381D01*
X94333333Y-94104762D01*
X94285714Y-94057143D01*
X94238095Y-93961905D01*
X94190476Y-93771429D01*
X94190476Y-93533333D01*
X94238095Y-93342857D01*
X94285714Y-93247619D01*
X94333333Y-93200000D01*
X94428571Y-93152381D01*
X115757143Y-95342857D02*
X115804762Y-95390476D01*
X115852381Y-95533333D01*
X115852381Y-95628571D01*
X115804762Y-95771429D01*
X115709524Y-95866667D01*
X115614286Y-95914286D01*
X115423810Y-95961905D01*
X115280952Y-95961905D01*
X115090476Y-95914286D01*
X114995238Y-95866667D01*
X114900000Y-95771429D01*
X114852381Y-95628571D01*
X114852381Y-95533333D01*
X114900000Y-95390476D01*
X114947619Y-95342857D01*
X115852381Y-94390476D02*
X115852381Y-94961905D01*
X115852381Y-94676191D02*
X114852381Y-94676191D01*
X114995238Y-94771429D01*
X115090476Y-94866667D01*
X115138095Y-94961905D01*
X115852381Y-93438095D02*
X115852381Y-94009524D01*
X115852381Y-93723810D02*
X114852381Y-93723810D01*
X114995238Y-93819048D01*
X115090476Y-93914286D01*
X115138095Y-94009524D01*
X123057143Y-92657143D02*
X123009524Y-92704762D01*
X122866667Y-92752381D01*
X122771429Y-92752381D01*
X122628571Y-92704762D01*
X122533333Y-92609524D01*
X122485714Y-92514286D01*
X122438095Y-92323810D01*
X122438095Y-92180952D01*
X122485714Y-91990476D01*
X122533333Y-91895238D01*
X122628571Y-91800000D01*
X122771429Y-91752381D01*
X122866667Y-91752381D01*
X123009524Y-91800000D01*
X123057143Y-91847619D01*
X124009524Y-92752381D02*
X123438095Y-92752381D01*
X123723809Y-92752381D02*
X123723809Y-91752381D01*
X123628571Y-91895238D01*
X123533333Y-91990476D01*
X123438095Y-92038095D01*
X124390476Y-91847619D02*
X124438095Y-91800000D01*
X124533333Y-91752381D01*
X124771429Y-91752381D01*
X124866667Y-91800000D01*
X124914286Y-91847619D01*
X124961905Y-91942857D01*
X124961905Y-92038095D01*
X124914286Y-92180952D01*
X124342857Y-92752381D01*
X124961905Y-92752381D01*
X120457143Y-88357143D02*
X120409524Y-88404762D01*
X120266667Y-88452381D01*
X120171429Y-88452381D01*
X120028571Y-88404762D01*
X119933333Y-88309524D01*
X119885714Y-88214286D01*
X119838095Y-88023810D01*
X119838095Y-87880952D01*
X119885714Y-87690476D01*
X119933333Y-87595238D01*
X120028571Y-87500000D01*
X120171429Y-87452381D01*
X120266667Y-87452381D01*
X120409524Y-87500000D01*
X120457143Y-87547619D01*
X121409524Y-88452381D02*
X120838095Y-88452381D01*
X121123809Y-88452381D02*
X121123809Y-87452381D01*
X121028571Y-87595238D01*
X120933333Y-87690476D01*
X120838095Y-87738095D01*
X121742857Y-87452381D02*
X122361905Y-87452381D01*
X122028571Y-87833333D01*
X122171429Y-87833333D01*
X122266667Y-87880952D01*
X122314286Y-87928571D01*
X122361905Y-88023810D01*
X122361905Y-88261905D01*
X122314286Y-88357143D01*
X122266667Y-88404762D01*
X122171429Y-88452381D01*
X121885714Y-88452381D01*
X121790476Y-88404762D01*
X121742857Y-88357143D01*
X60609524Y-83857143D02*
X60561905Y-83904762D01*
X60419048Y-83952381D01*
X60323810Y-83952381D01*
X60180952Y-83904762D01*
X60085714Y-83809524D01*
X60038095Y-83714286D01*
X59990476Y-83523810D01*
X59990476Y-83380952D01*
X60038095Y-83190476D01*
X60085714Y-83095238D01*
X60180952Y-83000000D01*
X60323810Y-82952381D01*
X60419048Y-82952381D01*
X60561905Y-83000000D01*
X60609524Y-83047619D01*
X61038095Y-83952381D02*
X61038095Y-82952381D01*
X61609524Y-83952381D01*
X61609524Y-82952381D01*
X62609524Y-83952381D02*
X62038095Y-83952381D01*
X62323809Y-83952381D02*
X62323809Y-82952381D01*
X62228571Y-83095238D01*
X62133333Y-83190476D01*
X62038095Y-83238095D01*
X81709524Y-125857143D02*
X81661905Y-125904762D01*
X81519048Y-125952381D01*
X81423810Y-125952381D01*
X81280952Y-125904762D01*
X81185714Y-125809524D01*
X81138095Y-125714286D01*
X81090476Y-125523810D01*
X81090476Y-125380952D01*
X81138095Y-125190476D01*
X81185714Y-125095238D01*
X81280952Y-125000000D01*
X81423810Y-124952381D01*
X81519048Y-124952381D01*
X81661905Y-125000000D01*
X81709524Y-125047619D01*
X82138095Y-125952381D02*
X82138095Y-124952381D01*
X82709524Y-125952381D01*
X82709524Y-124952381D01*
X83138095Y-125047619D02*
X83185714Y-125000000D01*
X83280952Y-124952381D01*
X83519048Y-124952381D01*
X83614286Y-125000000D01*
X83661905Y-125047619D01*
X83709524Y-125142857D01*
X83709524Y-125238095D01*
X83661905Y-125380952D01*
X83090476Y-125952381D01*
X83709524Y-125952381D01*
X61952381Y-92666666D02*
X61952381Y-93142857D01*
X60952381Y-93142857D01*
X61952381Y-91809523D02*
X61952381Y-92380952D01*
X61952381Y-92095238D02*
X60952381Y-92095238D01*
X61095238Y-92190476D01*
X61190476Y-92285714D01*
X61238095Y-92380952D01*
X62633334Y-97152381D02*
X62157143Y-97152381D01*
X62157143Y-96152381D01*
X62919048Y-96247619D02*
X62966667Y-96200000D01*
X63061905Y-96152381D01*
X63300001Y-96152381D01*
X63395239Y-96200000D01*
X63442858Y-96247619D01*
X63490477Y-96342857D01*
X63490477Y-96438095D01*
X63442858Y-96580952D01*
X62871429Y-97152381D01*
X63490477Y-97152381D01*
X62052381Y-108166666D02*
X62052381Y-108642857D01*
X61052381Y-108642857D01*
X61052381Y-107928571D02*
X61052381Y-107309523D01*
X61433333Y-107642857D01*
X61433333Y-107499999D01*
X61480952Y-107404761D01*
X61528571Y-107357142D01*
X61623810Y-107309523D01*
X61861905Y-107309523D01*
X61957143Y-107357142D01*
X62004762Y-107404761D01*
X62052381Y-107499999D01*
X62052381Y-107785714D01*
X62004762Y-107880952D01*
X61957143Y-107928571D01*
X133033334Y-84752381D02*
X132700000Y-84276190D01*
X132461905Y-84752381D02*
X132461905Y-83752381D01*
X132842858Y-83752381D01*
X132938096Y-83800000D01*
X132985715Y-83847619D01*
X133033334Y-83942857D01*
X133033334Y-84085714D01*
X132985715Y-84180952D01*
X132938096Y-84228571D01*
X132842858Y-84276190D01*
X132461905Y-84276190D01*
X133985715Y-84752381D02*
X133414286Y-84752381D01*
X133700000Y-84752381D02*
X133700000Y-83752381D01*
X133604762Y-83895238D01*
X133509524Y-83990476D01*
X133414286Y-84038095D01*
X99133334Y-113852381D02*
X98800000Y-113376190D01*
X98561905Y-113852381D02*
X98561905Y-112852381D01*
X98942858Y-112852381D01*
X99038096Y-112900000D01*
X99085715Y-112947619D01*
X99133334Y-113042857D01*
X99133334Y-113185714D01*
X99085715Y-113280952D01*
X99038096Y-113328571D01*
X98942858Y-113376190D01*
X98561905Y-113376190D01*
X99514286Y-112947619D02*
X99561905Y-112900000D01*
X99657143Y-112852381D01*
X99895239Y-112852381D01*
X99990477Y-112900000D01*
X100038096Y-112947619D01*
X100085715Y-113042857D01*
X100085715Y-113138095D01*
X100038096Y-113280952D01*
X99466667Y-113852381D01*
X100085715Y-113852381D01*
X102633334Y-116352381D02*
X102300000Y-115876190D01*
X102061905Y-116352381D02*
X102061905Y-115352381D01*
X102442858Y-115352381D01*
X102538096Y-115400000D01*
X102585715Y-115447619D01*
X102633334Y-115542857D01*
X102633334Y-115685714D01*
X102585715Y-115780952D01*
X102538096Y-115828571D01*
X102442858Y-115876190D01*
X102061905Y-115876190D01*
X102966667Y-115352381D02*
X103585715Y-115352381D01*
X103252381Y-115733333D01*
X103395239Y-115733333D01*
X103490477Y-115780952D01*
X103538096Y-115828571D01*
X103585715Y-115923810D01*
X103585715Y-116161905D01*
X103538096Y-116257143D01*
X103490477Y-116304762D01*
X103395239Y-116352381D01*
X103109524Y-116352381D01*
X103014286Y-116304762D01*
X102966667Y-116257143D01*
X105552381Y-89066666D02*
X105076190Y-89400000D01*
X105552381Y-89638095D02*
X104552381Y-89638095D01*
X104552381Y-89257142D01*
X104600000Y-89161904D01*
X104647619Y-89114285D01*
X104742857Y-89066666D01*
X104885714Y-89066666D01*
X104980952Y-89114285D01*
X105028571Y-89161904D01*
X105076190Y-89257142D01*
X105076190Y-89638095D01*
X104885714Y-88209523D02*
X105552381Y-88209523D01*
X104504762Y-88447619D02*
X105219048Y-88685714D01*
X105219048Y-88066666D01*
X108052381Y-89166666D02*
X107576190Y-89500000D01*
X108052381Y-89738095D02*
X107052381Y-89738095D01*
X107052381Y-89357142D01*
X107100000Y-89261904D01*
X107147619Y-89214285D01*
X107242857Y-89166666D01*
X107385714Y-89166666D01*
X107480952Y-89214285D01*
X107528571Y-89261904D01*
X107576190Y-89357142D01*
X107576190Y-89738095D01*
X107052381Y-88261904D02*
X107052381Y-88738095D01*
X107528571Y-88785714D01*
X107480952Y-88738095D01*
X107433333Y-88642857D01*
X107433333Y-88404761D01*
X107480952Y-88309523D01*
X107528571Y-88261904D01*
X107623810Y-88214285D01*
X107861905Y-88214285D01*
X107957143Y-88261904D01*
X108004762Y-88309523D01*
X108052381Y-88404761D01*
X108052381Y-88642857D01*
X108004762Y-88738095D01*
X107957143Y-88785714D01*
X132933334Y-88452381D02*
X132600000Y-87976190D01*
X132361905Y-88452381D02*
X132361905Y-87452381D01*
X132742858Y-87452381D01*
X132838096Y-87500000D01*
X132885715Y-87547619D01*
X132933334Y-87642857D01*
X132933334Y-87785714D01*
X132885715Y-87880952D01*
X132838096Y-87928571D01*
X132742858Y-87976190D01*
X132361905Y-87976190D01*
X133790477Y-87452381D02*
X133600000Y-87452381D01*
X133504762Y-87500000D01*
X133457143Y-87547619D01*
X133361905Y-87690476D01*
X133314286Y-87880952D01*
X133314286Y-88261905D01*
X133361905Y-88357143D01*
X133409524Y-88404762D01*
X133504762Y-88452381D01*
X133695239Y-88452381D01*
X133790477Y-88404762D01*
X133838096Y-88357143D01*
X133885715Y-88261905D01*
X133885715Y-88023810D01*
X133838096Y-87928571D01*
X133790477Y-87880952D01*
X133695239Y-87833333D01*
X133504762Y-87833333D01*
X133409524Y-87880952D01*
X133361905Y-87928571D01*
X133314286Y-88023810D01*
X133033334Y-81252381D02*
X132700000Y-80776190D01*
X132461905Y-81252381D02*
X132461905Y-80252381D01*
X132842858Y-80252381D01*
X132938096Y-80300000D01*
X132985715Y-80347619D01*
X133033334Y-80442857D01*
X133033334Y-80585714D01*
X132985715Y-80680952D01*
X132938096Y-80728571D01*
X132842858Y-80776190D01*
X132461905Y-80776190D01*
X133366667Y-80252381D02*
X134033334Y-80252381D01*
X133604762Y-81252381D01*
X99233334Y-107852381D02*
X98900000Y-107376190D01*
X98661905Y-107852381D02*
X98661905Y-106852381D01*
X99042858Y-106852381D01*
X99138096Y-106900000D01*
X99185715Y-106947619D01*
X99233334Y-107042857D01*
X99233334Y-107185714D01*
X99185715Y-107280952D01*
X99138096Y-107328571D01*
X99042858Y-107376190D01*
X98661905Y-107376190D01*
X99804762Y-107280952D02*
X99709524Y-107233333D01*
X99661905Y-107185714D01*
X99614286Y-107090476D01*
X99614286Y-107042857D01*
X99661905Y-106947619D01*
X99709524Y-106900000D01*
X99804762Y-106852381D01*
X99995239Y-106852381D01*
X100090477Y-106900000D01*
X100138096Y-106947619D01*
X100185715Y-107042857D01*
X100185715Y-107090476D01*
X100138096Y-107185714D01*
X100090477Y-107233333D01*
X99995239Y-107280952D01*
X99804762Y-107280952D01*
X99709524Y-107328571D01*
X99661905Y-107376190D01*
X99614286Y-107471429D01*
X99614286Y-107661905D01*
X99661905Y-107757143D01*
X99709524Y-107804762D01*
X99804762Y-107852381D01*
X99995239Y-107852381D01*
X100090477Y-107804762D01*
X100138096Y-107757143D01*
X100185715Y-107661905D01*
X100185715Y-107471429D01*
X100138096Y-107376190D01*
X100090477Y-107328571D01*
X99995239Y-107280952D01*
X102533334Y-111552381D02*
X102200000Y-111076190D01*
X101961905Y-111552381D02*
X101961905Y-110552381D01*
X102342858Y-110552381D01*
X102438096Y-110600000D01*
X102485715Y-110647619D01*
X102533334Y-110742857D01*
X102533334Y-110885714D01*
X102485715Y-110980952D01*
X102438096Y-111028571D01*
X102342858Y-111076190D01*
X101961905Y-111076190D01*
X103009524Y-111552381D02*
X103200000Y-111552381D01*
X103295239Y-111504762D01*
X103342858Y-111457143D01*
X103438096Y-111314286D01*
X103485715Y-111123810D01*
X103485715Y-110742857D01*
X103438096Y-110647619D01*
X103390477Y-110600000D01*
X103295239Y-110552381D01*
X103104762Y-110552381D01*
X103009524Y-110600000D01*
X102961905Y-110647619D01*
X102914286Y-110742857D01*
X102914286Y-110980952D01*
X102961905Y-111076190D01*
X103009524Y-111123810D01*
X103104762Y-111171429D01*
X103295239Y-111171429D01*
X103390477Y-111123810D01*
X103438096Y-111076190D01*
X103485715Y-110980952D01*
X99057143Y-101752381D02*
X98723809Y-101276190D01*
X98485714Y-101752381D02*
X98485714Y-100752381D01*
X98866667Y-100752381D01*
X98961905Y-100800000D01*
X99009524Y-100847619D01*
X99057143Y-100942857D01*
X99057143Y-101085714D01*
X99009524Y-101180952D01*
X98961905Y-101228571D01*
X98866667Y-101276190D01*
X98485714Y-101276190D01*
X100009524Y-101752381D02*
X99438095Y-101752381D01*
X99723809Y-101752381D02*
X99723809Y-100752381D01*
X99628571Y-100895238D01*
X99533333Y-100990476D01*
X99438095Y-101038095D01*
X100628571Y-100752381D02*
X100723810Y-100752381D01*
X100819048Y-100800000D01*
X100866667Y-100847619D01*
X100914286Y-100942857D01*
X100961905Y-101133333D01*
X100961905Y-101371429D01*
X100914286Y-101561905D01*
X100866667Y-101657143D01*
X100819048Y-101704762D01*
X100723810Y-101752381D01*
X100628571Y-101752381D01*
X100533333Y-101704762D01*
X100485714Y-101657143D01*
X100438095Y-101561905D01*
X100390476Y-101371429D01*
X100390476Y-101133333D01*
X100438095Y-100942857D01*
X100485714Y-100847619D01*
X100533333Y-100800000D01*
X100628571Y-100752381D01*
X102457143Y-105452381D02*
X102123809Y-104976190D01*
X101885714Y-105452381D02*
X101885714Y-104452381D01*
X102266667Y-104452381D01*
X102361905Y-104500000D01*
X102409524Y-104547619D01*
X102457143Y-104642857D01*
X102457143Y-104785714D01*
X102409524Y-104880952D01*
X102361905Y-104928571D01*
X102266667Y-104976190D01*
X101885714Y-104976190D01*
X103409524Y-105452381D02*
X102838095Y-105452381D01*
X103123809Y-105452381D02*
X103123809Y-104452381D01*
X103028571Y-104595238D01*
X102933333Y-104690476D01*
X102838095Y-104738095D01*
X104361905Y-105452381D02*
X103790476Y-105452381D01*
X104076190Y-105452381D02*
X104076190Y-104452381D01*
X103980952Y-104595238D01*
X103885714Y-104690476D01*
X103790476Y-104738095D01*
X113152381Y-83642857D02*
X112676190Y-83976191D01*
X113152381Y-84214286D02*
X112152381Y-84214286D01*
X112152381Y-83833333D01*
X112200000Y-83738095D01*
X112247619Y-83690476D01*
X112342857Y-83642857D01*
X112485714Y-83642857D01*
X112580952Y-83690476D01*
X112628571Y-83738095D01*
X112676190Y-83833333D01*
X112676190Y-84214286D01*
X113152381Y-82690476D02*
X113152381Y-83261905D01*
X113152381Y-82976191D02*
X112152381Y-82976191D01*
X112295238Y-83071429D01*
X112390476Y-83166667D01*
X112438095Y-83261905D01*
X112247619Y-82309524D02*
X112200000Y-82261905D01*
X112152381Y-82166667D01*
X112152381Y-81928571D01*
X112200000Y-81833333D01*
X112247619Y-81785714D01*
X112342857Y-81738095D01*
X112438095Y-81738095D01*
X112580952Y-81785714D01*
X113152381Y-82357143D01*
X113152381Y-81738095D01*
X103052381Y-90242857D02*
X102576190Y-90576191D01*
X103052381Y-90814286D02*
X102052381Y-90814286D01*
X102052381Y-90433333D01*
X102100000Y-90338095D01*
X102147619Y-90290476D01*
X102242857Y-90242857D01*
X102385714Y-90242857D01*
X102480952Y-90290476D01*
X102528571Y-90338095D01*
X102576190Y-90433333D01*
X102576190Y-90814286D01*
X103052381Y-89290476D02*
X103052381Y-89861905D01*
X103052381Y-89576191D02*
X102052381Y-89576191D01*
X102195238Y-89671429D01*
X102290476Y-89766667D01*
X102338095Y-89861905D01*
X102052381Y-88957143D02*
X102052381Y-88338095D01*
X102433333Y-88671429D01*
X102433333Y-88528571D01*
X102480952Y-88433333D01*
X102528571Y-88385714D01*
X102623810Y-88338095D01*
X102861905Y-88338095D01*
X102957143Y-88385714D01*
X103004762Y-88433333D01*
X103052381Y-88528571D01*
X103052381Y-88814286D01*
X103004762Y-88909524D01*
X102957143Y-88957143D01*
X97952381Y-90342857D02*
X97476190Y-90676191D01*
X97952381Y-90914286D02*
X96952381Y-90914286D01*
X96952381Y-90533333D01*
X97000000Y-90438095D01*
X97047619Y-90390476D01*
X97142857Y-90342857D01*
X97285714Y-90342857D01*
X97380952Y-90390476D01*
X97428571Y-90438095D01*
X97476190Y-90533333D01*
X97476190Y-90914286D01*
X97952381Y-89390476D02*
X97952381Y-89961905D01*
X97952381Y-89676191D02*
X96952381Y-89676191D01*
X97095238Y-89771429D01*
X97190476Y-89866667D01*
X97238095Y-89961905D01*
X97285714Y-88533333D02*
X97952381Y-88533333D01*
X96904762Y-88771429D02*
X97619048Y-89009524D01*
X97619048Y-88390476D01*
X97052381Y-120542857D02*
X96576190Y-120876191D01*
X97052381Y-121114286D02*
X96052381Y-121114286D01*
X96052381Y-120733333D01*
X96100000Y-120638095D01*
X96147619Y-120590476D01*
X96242857Y-120542857D01*
X96385714Y-120542857D01*
X96480952Y-120590476D01*
X96528571Y-120638095D01*
X96576190Y-120733333D01*
X96576190Y-121114286D01*
X97052381Y-119590476D02*
X97052381Y-120161905D01*
X97052381Y-119876191D02*
X96052381Y-119876191D01*
X96195238Y-119971429D01*
X96290476Y-120066667D01*
X96338095Y-120161905D01*
X96052381Y-118685714D02*
X96052381Y-119161905D01*
X96528571Y-119209524D01*
X96480952Y-119161905D01*
X96433333Y-119066667D01*
X96433333Y-118828571D01*
X96480952Y-118733333D01*
X96528571Y-118685714D01*
X96623810Y-118638095D01*
X96861905Y-118638095D01*
X96957143Y-118685714D01*
X97004762Y-118733333D01*
X97052381Y-118828571D01*
X97052381Y-119066667D01*
X97004762Y-119161905D01*
X96957143Y-119209524D01*
X92957143Y-96552381D02*
X92623809Y-96076190D01*
X92385714Y-96552381D02*
X92385714Y-95552381D01*
X92766667Y-95552381D01*
X92861905Y-95600000D01*
X92909524Y-95647619D01*
X92957143Y-95742857D01*
X92957143Y-95885714D01*
X92909524Y-95980952D01*
X92861905Y-96028571D01*
X92766667Y-96076190D01*
X92385714Y-96076190D01*
X93909524Y-96552381D02*
X93338095Y-96552381D01*
X93623809Y-96552381D02*
X93623809Y-95552381D01*
X93528571Y-95695238D01*
X93433333Y-95790476D01*
X93338095Y-95838095D01*
X94766667Y-95552381D02*
X94576190Y-95552381D01*
X94480952Y-95600000D01*
X94433333Y-95647619D01*
X94338095Y-95790476D01*
X94290476Y-95980952D01*
X94290476Y-96361905D01*
X94338095Y-96457143D01*
X94385714Y-96504762D01*
X94480952Y-96552381D01*
X94671429Y-96552381D01*
X94766667Y-96504762D01*
X94814286Y-96457143D01*
X94861905Y-96361905D01*
X94861905Y-96123810D01*
X94814286Y-96028571D01*
X94766667Y-95980952D01*
X94671429Y-95933333D01*
X94480952Y-95933333D01*
X94385714Y-95980952D01*
X94338095Y-96028571D01*
X94290476Y-96123810D01*
X103452381Y-120442857D02*
X102976190Y-120776191D01*
X103452381Y-121014286D02*
X102452381Y-121014286D01*
X102452381Y-120633333D01*
X102500000Y-120538095D01*
X102547619Y-120490476D01*
X102642857Y-120442857D01*
X102785714Y-120442857D01*
X102880952Y-120490476D01*
X102928571Y-120538095D01*
X102976190Y-120633333D01*
X102976190Y-121014286D01*
X103452381Y-119490476D02*
X103452381Y-120061905D01*
X103452381Y-119776191D02*
X102452381Y-119776191D01*
X102595238Y-119871429D01*
X102690476Y-119966667D01*
X102738095Y-120061905D01*
X102452381Y-119157143D02*
X102452381Y-118490476D01*
X103452381Y-118919048D01*
X75152381Y-127542857D02*
X74676190Y-127876191D01*
X75152381Y-128114286D02*
X74152381Y-128114286D01*
X74152381Y-127733333D01*
X74200000Y-127638095D01*
X74247619Y-127590476D01*
X74342857Y-127542857D01*
X74485714Y-127542857D01*
X74580952Y-127590476D01*
X74628571Y-127638095D01*
X74676190Y-127733333D01*
X74676190Y-128114286D01*
X75152381Y-126590476D02*
X75152381Y-127161905D01*
X75152381Y-126876191D02*
X74152381Y-126876191D01*
X74295238Y-126971429D01*
X74390476Y-127066667D01*
X74438095Y-127161905D01*
X74580952Y-126019048D02*
X74533333Y-126114286D01*
X74485714Y-126161905D01*
X74390476Y-126209524D01*
X74342857Y-126209524D01*
X74247619Y-126161905D01*
X74200000Y-126114286D01*
X74152381Y-126019048D01*
X74152381Y-125828571D01*
X74200000Y-125733333D01*
X74247619Y-125685714D01*
X74342857Y-125638095D01*
X74390476Y-125638095D01*
X74485714Y-125685714D01*
X74533333Y-125733333D01*
X74580952Y-125828571D01*
X74580952Y-126019048D01*
X74628571Y-126114286D01*
X74676190Y-126161905D01*
X74771429Y-126209524D01*
X74961905Y-126209524D01*
X75057143Y-126161905D01*
X75104762Y-126114286D01*
X75152381Y-126019048D01*
X75152381Y-125828571D01*
X75104762Y-125733333D01*
X75057143Y-125685714D01*
X74961905Y-125638095D01*
X74771429Y-125638095D01*
X74676190Y-125685714D01*
X74628571Y-125733333D01*
X74580952Y-125828571D01*
X106052381Y-96342857D02*
X105576190Y-96676191D01*
X106052381Y-96914286D02*
X105052381Y-96914286D01*
X105052381Y-96533333D01*
X105100000Y-96438095D01*
X105147619Y-96390476D01*
X105242857Y-96342857D01*
X105385714Y-96342857D01*
X105480952Y-96390476D01*
X105528571Y-96438095D01*
X105576190Y-96533333D01*
X105576190Y-96914286D01*
X106052381Y-95390476D02*
X106052381Y-95961905D01*
X106052381Y-95676191D02*
X105052381Y-95676191D01*
X105195238Y-95771429D01*
X105290476Y-95866667D01*
X105338095Y-95961905D01*
X106052381Y-94914286D02*
X106052381Y-94723810D01*
X106004762Y-94628571D01*
X105957143Y-94580952D01*
X105814286Y-94485714D01*
X105623810Y-94438095D01*
X105242857Y-94438095D01*
X105147619Y-94485714D01*
X105100000Y-94533333D01*
X105052381Y-94628571D01*
X105052381Y-94819048D01*
X105100000Y-94914286D01*
X105147619Y-94961905D01*
X105242857Y-95009524D01*
X105480952Y-95009524D01*
X105576190Y-94961905D01*
X105623810Y-94914286D01*
X105671429Y-94819048D01*
X105671429Y-94628571D01*
X105623810Y-94533333D01*
X105576190Y-94485714D01*
X105480952Y-94438095D01*
X105157143Y-93452381D02*
X104823809Y-92976190D01*
X104585714Y-93452381D02*
X104585714Y-92452381D01*
X104966667Y-92452381D01*
X105061905Y-92500000D01*
X105109524Y-92547619D01*
X105157143Y-92642857D01*
X105157143Y-92785714D01*
X105109524Y-92880952D01*
X105061905Y-92928571D01*
X104966667Y-92976190D01*
X104585714Y-92976190D01*
X105538095Y-92547619D02*
X105585714Y-92500000D01*
X105680952Y-92452381D01*
X105919048Y-92452381D01*
X106014286Y-92500000D01*
X106061905Y-92547619D01*
X106109524Y-92642857D01*
X106109524Y-92738095D01*
X106061905Y-92880952D01*
X105490476Y-93452381D01*
X106109524Y-93452381D01*
X106728571Y-92452381D02*
X106823810Y-92452381D01*
X106919048Y-92500000D01*
X106966667Y-92547619D01*
X107014286Y-92642857D01*
X107061905Y-92833333D01*
X107061905Y-93071429D01*
X107014286Y-93261905D01*
X106966667Y-93357143D01*
X106919048Y-93404762D01*
X106823810Y-93452381D01*
X106728571Y-93452381D01*
X106633333Y-93404762D01*
X106585714Y-93357143D01*
X106538095Y-93261905D01*
X106490476Y-93071429D01*
X106490476Y-92833333D01*
X106538095Y-92642857D01*
X106585714Y-92547619D01*
X106633333Y-92500000D01*
X106728571Y-92452381D01*
X120457143Y-91052381D02*
X120123809Y-90576190D01*
X119885714Y-91052381D02*
X119885714Y-90052381D01*
X120266667Y-90052381D01*
X120361905Y-90100000D01*
X120409524Y-90147619D01*
X120457143Y-90242857D01*
X120457143Y-90385714D01*
X120409524Y-90480952D01*
X120361905Y-90528571D01*
X120266667Y-90576190D01*
X119885714Y-90576190D01*
X120838095Y-90147619D02*
X120885714Y-90100000D01*
X120980952Y-90052381D01*
X121219048Y-90052381D01*
X121314286Y-90100000D01*
X121361905Y-90147619D01*
X121409524Y-90242857D01*
X121409524Y-90338095D01*
X121361905Y-90480952D01*
X120790476Y-91052381D01*
X121409524Y-91052381D01*
X122361905Y-91052381D02*
X121790476Y-91052381D01*
X122076190Y-91052381D02*
X122076190Y-90052381D01*
X121980952Y-90195238D01*
X121885714Y-90290476D01*
X121790476Y-90338095D01*
X111957143Y-90852381D02*
X111623809Y-90376190D01*
X111385714Y-90852381D02*
X111385714Y-89852381D01*
X111766667Y-89852381D01*
X111861905Y-89900000D01*
X111909524Y-89947619D01*
X111957143Y-90042857D01*
X111957143Y-90185714D01*
X111909524Y-90280952D01*
X111861905Y-90328571D01*
X111766667Y-90376190D01*
X111385714Y-90376190D01*
X112338095Y-89947619D02*
X112385714Y-89900000D01*
X112480952Y-89852381D01*
X112719048Y-89852381D01*
X112814286Y-89900000D01*
X112861905Y-89947619D01*
X112909524Y-90042857D01*
X112909524Y-90138095D01*
X112861905Y-90280952D01*
X112290476Y-90852381D01*
X112909524Y-90852381D01*
X113290476Y-89947619D02*
X113338095Y-89900000D01*
X113433333Y-89852381D01*
X113671429Y-89852381D01*
X113766667Y-89900000D01*
X113814286Y-89947619D01*
X113861905Y-90042857D01*
X113861905Y-90138095D01*
X113814286Y-90280952D01*
X113242857Y-90852381D01*
X113861905Y-90852381D01*
X119457143Y-97752381D02*
X119123809Y-97276190D01*
X118885714Y-97752381D02*
X118885714Y-96752381D01*
X119266667Y-96752381D01*
X119361905Y-96800000D01*
X119409524Y-96847619D01*
X119457143Y-96942857D01*
X119457143Y-97085714D01*
X119409524Y-97180952D01*
X119361905Y-97228571D01*
X119266667Y-97276190D01*
X118885714Y-97276190D01*
X119838095Y-96847619D02*
X119885714Y-96800000D01*
X119980952Y-96752381D01*
X120219048Y-96752381D01*
X120314286Y-96800000D01*
X120361905Y-96847619D01*
X120409524Y-96942857D01*
X120409524Y-97038095D01*
X120361905Y-97180952D01*
X119790476Y-97752381D01*
X120409524Y-97752381D01*
X120742857Y-96752381D02*
X121361905Y-96752381D01*
X121028571Y-97133333D01*
X121171429Y-97133333D01*
X121266667Y-97180952D01*
X121314286Y-97228571D01*
X121361905Y-97323810D01*
X121361905Y-97561905D01*
X121314286Y-97657143D01*
X121266667Y-97704762D01*
X121171429Y-97752381D01*
X120885714Y-97752381D01*
X120790476Y-97704762D01*
X120742857Y-97657143D01*
X72338095Y-81452381D02*
X72338095Y-82261905D01*
X72385714Y-82357143D01*
X72433333Y-82404762D01*
X72528571Y-82452381D01*
X72719048Y-82452381D01*
X72814286Y-82404762D01*
X72861905Y-82357143D01*
X72909524Y-82261905D01*
X72909524Y-81452381D01*
X73909524Y-82452381D02*
X73338095Y-82452381D01*
X73623809Y-82452381D02*
X73623809Y-81452381D01*
X73528571Y-81595238D01*
X73433333Y-81690476D01*
X73338095Y-81738095D01*
X104538095Y-101752381D02*
X104538095Y-102561905D01*
X104585714Y-102657143D01*
X104633333Y-102704762D01*
X104728571Y-102752381D01*
X104919048Y-102752381D01*
X105014286Y-102704762D01*
X105061905Y-102657143D01*
X105109524Y-102561905D01*
X105109524Y-101752381D01*
X105538095Y-101847619D02*
X105585714Y-101800000D01*
X105680952Y-101752381D01*
X105919048Y-101752381D01*
X106014286Y-101800000D01*
X106061905Y-101847619D01*
X106109524Y-101942857D01*
X106109524Y-102038095D01*
X106061905Y-102180952D01*
X105490476Y-102752381D01*
X106109524Y-102752381D01*
X107952381Y-100061905D02*
X108761905Y-100061905D01*
X108857143Y-100014286D01*
X108904762Y-99966667D01*
X108952381Y-99871429D01*
X108952381Y-99680952D01*
X108904762Y-99585714D01*
X108857143Y-99538095D01*
X108761905Y-99490476D01*
X107952381Y-99490476D01*
X107952381Y-99109524D02*
X107952381Y-98490476D01*
X108333333Y-98823810D01*
X108333333Y-98680952D01*
X108380952Y-98585714D01*
X108428571Y-98538095D01*
X108523810Y-98490476D01*
X108761905Y-98490476D01*
X108857143Y-98538095D01*
X108904762Y-98585714D01*
X108952381Y-98680952D01*
X108952381Y-98966667D01*
X108904762Y-99061905D01*
X108857143Y-99109524D01*
X134861905Y-84652381D02*
X134861905Y-83652381D01*
X135100000Y-83652381D01*
X135242858Y-83700000D01*
X135338096Y-83795238D01*
X135385715Y-83890476D01*
X135433334Y-84080952D01*
X135433334Y-84223810D01*
X135385715Y-84414286D01*
X135338096Y-84509524D01*
X135242858Y-84604762D01*
X135100000Y-84652381D01*
X134861905Y-84652381D01*
X136385715Y-84652381D02*
X135814286Y-84652381D01*
X136100000Y-84652381D02*
X136100000Y-83652381D01*
X136004762Y-83795238D01*
X135909524Y-83890476D01*
X135814286Y-83938095D01*
X134961905Y-88052381D02*
X134961905Y-87052381D01*
X135200000Y-87052381D01*
X135342858Y-87100000D01*
X135438096Y-87195238D01*
X135485715Y-87290476D01*
X135533334Y-87480952D01*
X135533334Y-87623810D01*
X135485715Y-87814286D01*
X135438096Y-87909524D01*
X135342858Y-88004762D01*
X135200000Y-88052381D01*
X134961905Y-88052381D01*
X135914286Y-87147619D02*
X135961905Y-87100000D01*
X136057143Y-87052381D01*
X136295239Y-87052381D01*
X136390477Y-87100000D01*
X136438096Y-87147619D01*
X136485715Y-87242857D01*
X136485715Y-87338095D01*
X136438096Y-87480952D01*
X135866667Y-88052381D01*
X136485715Y-88052381D01*
X134761905Y-81252381D02*
X134761905Y-80252381D01*
X135000000Y-80252381D01*
X135142858Y-80300000D01*
X135238096Y-80395238D01*
X135285715Y-80490476D01*
X135333334Y-80680952D01*
X135333334Y-80823810D01*
X135285715Y-81014286D01*
X135238096Y-81109524D01*
X135142858Y-81204762D01*
X135000000Y-81252381D01*
X134761905Y-81252381D01*
X135666667Y-80252381D02*
X136285715Y-80252381D01*
X135952381Y-80633333D01*
X136095239Y-80633333D01*
X136190477Y-80680952D01*
X136238096Y-80728571D01*
X136285715Y-80823810D01*
X136285715Y-81061905D01*
X136238096Y-81157143D01*
X136190477Y-81204762D01*
X136095239Y-81252381D01*
X135809524Y-81252381D01*
X135714286Y-81204762D01*
X135666667Y-81157143D01*
X93797619Y-116595238D02*
X93750000Y-116690476D01*
X93654762Y-116785714D01*
X93511905Y-116928571D01*
X93464286Y-117023810D01*
X93464286Y-117119048D01*
X93702381Y-117071429D02*
X93654762Y-117166667D01*
X93559524Y-117261905D01*
X93369048Y-117309524D01*
X93035714Y-117309524D01*
X92845238Y-117261905D01*
X92750000Y-117166667D01*
X92702381Y-117071429D01*
X92702381Y-116880952D01*
X92750000Y-116785714D01*
X92845238Y-116690476D01*
X93035714Y-116642857D01*
X93369048Y-116642857D01*
X93559524Y-116690476D01*
X93654762Y-116785714D01*
X93702381Y-116880952D01*
X93702381Y-117071429D01*
X93702381Y-115690476D02*
X93702381Y-116261905D01*
X93702381Y-115976191D02*
X92702381Y-115976191D01*
X92845238Y-116071429D01*
X92940476Y-116166667D01*
X92988095Y-116261905D01*
X93797619Y-110495238D02*
X93750000Y-110590476D01*
X93654762Y-110685714D01*
X93511905Y-110828571D01*
X93464286Y-110923810D01*
X93464286Y-111019048D01*
X93702381Y-110971429D02*
X93654762Y-111066667D01*
X93559524Y-111161905D01*
X93369048Y-111209524D01*
X93035714Y-111209524D01*
X92845238Y-111161905D01*
X92750000Y-111066667D01*
X92702381Y-110971429D01*
X92702381Y-110780952D01*
X92750000Y-110685714D01*
X92845238Y-110590476D01*
X93035714Y-110542857D01*
X93369048Y-110542857D01*
X93559524Y-110590476D01*
X93654762Y-110685714D01*
X93702381Y-110780952D01*
X93702381Y-110971429D01*
X92797619Y-110161905D02*
X92750000Y-110114286D01*
X92702381Y-110019048D01*
X92702381Y-109780952D01*
X92750000Y-109685714D01*
X92797619Y-109638095D01*
X92892857Y-109590476D01*
X92988095Y-109590476D01*
X93130952Y-109638095D01*
X93702381Y-110209524D01*
X93702381Y-109590476D01*
X93797619Y-104495238D02*
X93750000Y-104590476D01*
X93654762Y-104685714D01*
X93511905Y-104828571D01*
X93464286Y-104923810D01*
X93464286Y-105019048D01*
X93702381Y-104971429D02*
X93654762Y-105066667D01*
X93559524Y-105161905D01*
X93369048Y-105209524D01*
X93035714Y-105209524D01*
X92845238Y-105161905D01*
X92750000Y-105066667D01*
X92702381Y-104971429D01*
X92702381Y-104780952D01*
X92750000Y-104685714D01*
X92845238Y-104590476D01*
X93035714Y-104542857D01*
X93369048Y-104542857D01*
X93559524Y-104590476D01*
X93654762Y-104685714D01*
X93702381Y-104780952D01*
X93702381Y-104971429D01*
X92702381Y-104209524D02*
X92702381Y-103590476D01*
X93083333Y-103923810D01*
X93083333Y-103780952D01*
X93130952Y-103685714D01*
X93178571Y-103638095D01*
X93273810Y-103590476D01*
X93511905Y-103590476D01*
X93607143Y-103638095D01*
X93654762Y-103685714D01*
X93702381Y-103780952D01*
X93702381Y-104066667D01*
X93654762Y-104161905D01*
X93607143Y-104209524D01*
X118952381Y-117442857D02*
X118476190Y-117776191D01*
X118952381Y-118014286D02*
X117952381Y-118014286D01*
X117952381Y-117633333D01*
X118000000Y-117538095D01*
X118047619Y-117490476D01*
X118142857Y-117442857D01*
X118285714Y-117442857D01*
X118380952Y-117490476D01*
X118428571Y-117538095D01*
X118476190Y-117633333D01*
X118476190Y-118014286D01*
X118047619Y-117061905D02*
X118000000Y-117014286D01*
X117952381Y-116919048D01*
X117952381Y-116680952D01*
X118000000Y-116585714D01*
X118047619Y-116538095D01*
X118142857Y-116490476D01*
X118238095Y-116490476D01*
X118380952Y-116538095D01*
X118952381Y-117109524D01*
X118952381Y-116490476D01*
X118285714Y-115633333D02*
X118952381Y-115633333D01*
X117904762Y-115871429D02*
X118619048Y-116109524D01*
X118619048Y-115490476D01*
X121952381Y-117342857D02*
X121476190Y-117676191D01*
X121952381Y-117914286D02*
X120952381Y-117914286D01*
X120952381Y-117533333D01*
X121000000Y-117438095D01*
X121047619Y-117390476D01*
X121142857Y-117342857D01*
X121285714Y-117342857D01*
X121380952Y-117390476D01*
X121428571Y-117438095D01*
X121476190Y-117533333D01*
X121476190Y-117914286D01*
X121047619Y-116961905D02*
X121000000Y-116914286D01*
X120952381Y-116819048D01*
X120952381Y-116580952D01*
X121000000Y-116485714D01*
X121047619Y-116438095D01*
X121142857Y-116390476D01*
X121238095Y-116390476D01*
X121380952Y-116438095D01*
X121952381Y-117009524D01*
X121952381Y-116390476D01*
X120952381Y-115485714D02*
X120952381Y-115961905D01*
X121428571Y-116009524D01*
X121380952Y-115961905D01*
X121333333Y-115866667D01*
X121333333Y-115628571D01*
X121380952Y-115533333D01*
X121428571Y-115485714D01*
X121523810Y-115438095D01*
X121761905Y-115438095D01*
X121857143Y-115485714D01*
X121904762Y-115533333D01*
X121952381Y-115628571D01*
X121952381Y-115866667D01*
X121904762Y-115961905D01*
X121857143Y-116009524D01*
X124352381Y-117242857D02*
X123876190Y-117576191D01*
X124352381Y-117814286D02*
X123352381Y-117814286D01*
X123352381Y-117433333D01*
X123400000Y-117338095D01*
X123447619Y-117290476D01*
X123542857Y-117242857D01*
X123685714Y-117242857D01*
X123780952Y-117290476D01*
X123828571Y-117338095D01*
X123876190Y-117433333D01*
X123876190Y-117814286D01*
X123447619Y-116861905D02*
X123400000Y-116814286D01*
X123352381Y-116719048D01*
X123352381Y-116480952D01*
X123400000Y-116385714D01*
X123447619Y-116338095D01*
X123542857Y-116290476D01*
X123638095Y-116290476D01*
X123780952Y-116338095D01*
X124352381Y-116909524D01*
X124352381Y-116290476D01*
X123352381Y-115433333D02*
X123352381Y-115623810D01*
X123400000Y-115719048D01*
X123447619Y-115766667D01*
X123590476Y-115861905D01*
X123780952Y-115909524D01*
X124161905Y-115909524D01*
X124257143Y-115861905D01*
X124304762Y-115814286D01*
X124352381Y-115719048D01*
X124352381Y-115528571D01*
X124304762Y-115433333D01*
X124257143Y-115385714D01*
X124161905Y-115338095D01*
X123923810Y-115338095D01*
X123828571Y-115385714D01*
X123780952Y-115433333D01*
X123733333Y-115528571D01*
X123733333Y-115719048D01*
X123780952Y-115814286D01*
X123828571Y-115861905D01*
X123923810Y-115909524D01*
X134466667Y-115304762D02*
X134609524Y-115352381D01*
X134847620Y-115352381D01*
X134942858Y-115304762D01*
X134990477Y-115257143D01*
X135038096Y-115161905D01*
X135038096Y-115066667D01*
X134990477Y-114971429D01*
X134942858Y-114923810D01*
X134847620Y-114876190D01*
X134657143Y-114828571D01*
X134561905Y-114780952D01*
X134514286Y-114733333D01*
X134466667Y-114638095D01*
X134466667Y-114542857D01*
X134514286Y-114447619D01*
X134561905Y-114400000D01*
X134657143Y-114352381D01*
X134895239Y-114352381D01*
X135038096Y-114400000D01*
X135371429Y-114352381D02*
X135609524Y-115352381D01*
X135800001Y-114638095D01*
X135990477Y-115352381D01*
X136228572Y-114352381D01*
X136561905Y-114447619D02*
X136609524Y-114400000D01*
X136704762Y-114352381D01*
X136942858Y-114352381D01*
X137038096Y-114400000D01*
X137085715Y-114447619D01*
X137133334Y-114542857D01*
X137133334Y-114638095D01*
X137085715Y-114780952D01*
X136514286Y-115352381D01*
X137133334Y-115352381D01*
X115057143Y-86157143D02*
X115009524Y-86204762D01*
X114866667Y-86252381D01*
X114771429Y-86252381D01*
X114628571Y-86204762D01*
X114533333Y-86109524D01*
X114485714Y-86014286D01*
X114438095Y-85823810D01*
X114438095Y-85680952D01*
X114485714Y-85490476D01*
X114533333Y-85395238D01*
X114628571Y-85300000D01*
X114771429Y-85252381D01*
X114866667Y-85252381D01*
X115009524Y-85300000D01*
X115057143Y-85347619D01*
X116009524Y-86252381D02*
X115438095Y-86252381D01*
X115723809Y-86252381D02*
X115723809Y-85252381D01*
X115628571Y-85395238D01*
X115533333Y-85490476D01*
X115438095Y-85538095D01*
X116866667Y-85585714D02*
X116866667Y-86252381D01*
X116628571Y-85204762D02*
X116390476Y-85919048D01*
X117009524Y-85919048D01*
X133557143Y-90152381D02*
X133223809Y-89676190D01*
X132985714Y-90152381D02*
X132985714Y-89152381D01*
X133366667Y-89152381D01*
X133461905Y-89200000D01*
X133509524Y-89247619D01*
X133557143Y-89342857D01*
X133557143Y-89485714D01*
X133509524Y-89580952D01*
X133461905Y-89628571D01*
X133366667Y-89676190D01*
X132985714Y-89676190D01*
X133938095Y-89247619D02*
X133985714Y-89200000D01*
X134080952Y-89152381D01*
X134319048Y-89152381D01*
X134414286Y-89200000D01*
X134461905Y-89247619D01*
X134509524Y-89342857D01*
X134509524Y-89438095D01*
X134461905Y-89580952D01*
X133890476Y-90152381D01*
X134509524Y-90152381D01*
X134842857Y-89152381D02*
X135509524Y-89152381D01*
X135080952Y-90152381D01*
X128609524Y-91057143D02*
X128561905Y-91104762D01*
X128419048Y-91152381D01*
X128323810Y-91152381D01*
X128180952Y-91104762D01*
X128085714Y-91009524D01*
X128038095Y-90914286D01*
X127990476Y-90723810D01*
X127990476Y-90580952D01*
X128038095Y-90390476D01*
X128085714Y-90295238D01*
X128180952Y-90200000D01*
X128323810Y-90152381D01*
X128419048Y-90152381D01*
X128561905Y-90200000D01*
X128609524Y-90247619D01*
X129038095Y-91152381D02*
X129038095Y-90152381D01*
X129609524Y-91152381D01*
X129609524Y-90152381D01*
X129990476Y-90152381D02*
X130609524Y-90152381D01*
X130276190Y-90533333D01*
X130419048Y-90533333D01*
X130514286Y-90580952D01*
X130561905Y-90628571D01*
X130609524Y-90723810D01*
X130609524Y-90961905D01*
X130561905Y-91057143D01*
X130514286Y-91104762D01*
X130419048Y-91152381D01*
X130133333Y-91152381D01*
X130038095Y-91104762D01*
X129990476Y-91057143D01*
X130709524Y-104057143D02*
X130661905Y-104104762D01*
X130519048Y-104152381D01*
X130423810Y-104152381D01*
X130280952Y-104104762D01*
X130185714Y-104009524D01*
X130138095Y-103914286D01*
X130090476Y-103723810D01*
X130090476Y-103580952D01*
X130138095Y-103390476D01*
X130185714Y-103295238D01*
X130280952Y-103200000D01*
X130423810Y-103152381D01*
X130519048Y-103152381D01*
X130661905Y-103200000D01*
X130709524Y-103247619D01*
X131138095Y-104152381D02*
X131138095Y-103152381D01*
X131709524Y-104152381D01*
X131709524Y-103152381D01*
X132614286Y-103485714D02*
X132614286Y-104152381D01*
X132376190Y-103104762D02*
X132138095Y-103819048D01*
X132757143Y-103819048D01*
X124866667Y-86004762D02*
X125009524Y-86052381D01*
X125247620Y-86052381D01*
X125342858Y-86004762D01*
X125390477Y-85957143D01*
X125438096Y-85861905D01*
X125438096Y-85766667D01*
X125390477Y-85671429D01*
X125342858Y-85623810D01*
X125247620Y-85576190D01*
X125057143Y-85528571D01*
X124961905Y-85480952D01*
X124914286Y-85433333D01*
X124866667Y-85338095D01*
X124866667Y-85242857D01*
X124914286Y-85147619D01*
X124961905Y-85100000D01*
X125057143Y-85052381D01*
X125295239Y-85052381D01*
X125438096Y-85100000D01*
X125771429Y-85052381D02*
X126009524Y-86052381D01*
X126200001Y-85338095D01*
X126390477Y-86052381D01*
X126628572Y-85052381D01*
X127533334Y-86052381D02*
X126961905Y-86052381D01*
X127247619Y-86052381D02*
X127247619Y-85052381D01*
X127152381Y-85195238D01*
X127057143Y-85290476D01*
X126961905Y-85338095D01*
X67552381Y-92542857D02*
X67076190Y-92876191D01*
X67552381Y-93114286D02*
X66552381Y-93114286D01*
X66552381Y-92733333D01*
X66600000Y-92638095D01*
X66647619Y-92590476D01*
X66742857Y-92542857D01*
X66885714Y-92542857D01*
X66980952Y-92590476D01*
X67028571Y-92638095D01*
X67076190Y-92733333D01*
X67076190Y-93114286D01*
X66647619Y-92161905D02*
X66600000Y-92114286D01*
X66552381Y-92019048D01*
X66552381Y-91780952D01*
X66600000Y-91685714D01*
X66647619Y-91638095D01*
X66742857Y-91590476D01*
X66838095Y-91590476D01*
X66980952Y-91638095D01*
X67552381Y-92209524D01*
X67552381Y-91590476D01*
X66980952Y-91019048D02*
X66933333Y-91114286D01*
X66885714Y-91161905D01*
X66790476Y-91209524D01*
X66742857Y-91209524D01*
X66647619Y-91161905D01*
X66600000Y-91114286D01*
X66552381Y-91019048D01*
X66552381Y-90828571D01*
X66600000Y-90733333D01*
X66647619Y-90685714D01*
X66742857Y-90638095D01*
X66790476Y-90638095D01*
X66885714Y-90685714D01*
X66933333Y-90733333D01*
X66980952Y-90828571D01*
X66980952Y-91019048D01*
X67028571Y-91114286D01*
X67076190Y-91161905D01*
X67171429Y-91209524D01*
X67361905Y-91209524D01*
X67457143Y-91161905D01*
X67504762Y-91114286D01*
X67552381Y-91019048D01*
X67552381Y-90828571D01*
X67504762Y-90733333D01*
X67457143Y-90685714D01*
X67361905Y-90638095D01*
X67171429Y-90638095D01*
X67076190Y-90685714D01*
X67028571Y-90733333D01*
X66980952Y-90828571D01*
X62757143Y-102952381D02*
X62423809Y-102476190D01*
X62185714Y-102952381D02*
X62185714Y-101952381D01*
X62566667Y-101952381D01*
X62661905Y-102000000D01*
X62709524Y-102047619D01*
X62757143Y-102142857D01*
X62757143Y-102285714D01*
X62709524Y-102380952D01*
X62661905Y-102428571D01*
X62566667Y-102476190D01*
X62185714Y-102476190D01*
X63138095Y-102047619D02*
X63185714Y-102000000D01*
X63280952Y-101952381D01*
X63519048Y-101952381D01*
X63614286Y-102000000D01*
X63661905Y-102047619D01*
X63709524Y-102142857D01*
X63709524Y-102238095D01*
X63661905Y-102380952D01*
X63090476Y-102952381D01*
X63709524Y-102952381D01*
X64185714Y-102952381D02*
X64376190Y-102952381D01*
X64471429Y-102904762D01*
X64519048Y-102857143D01*
X64614286Y-102714286D01*
X64661905Y-102523810D01*
X64661905Y-102142857D01*
X64614286Y-102047619D01*
X64566667Y-102000000D01*
X64471429Y-101952381D01*
X64280952Y-101952381D01*
X64185714Y-102000000D01*
X64138095Y-102047619D01*
X64090476Y-102142857D01*
X64090476Y-102380952D01*
X64138095Y-102476190D01*
X64185714Y-102523810D01*
X64280952Y-102571429D01*
X64471429Y-102571429D01*
X64566667Y-102523810D01*
X64614286Y-102476190D01*
X64661905Y-102380952D01*
X67852381Y-108042857D02*
X67376190Y-108376191D01*
X67852381Y-108614286D02*
X66852381Y-108614286D01*
X66852381Y-108233333D01*
X66900000Y-108138095D01*
X66947619Y-108090476D01*
X67042857Y-108042857D01*
X67185714Y-108042857D01*
X67280952Y-108090476D01*
X67328571Y-108138095D01*
X67376190Y-108233333D01*
X67376190Y-108614286D01*
X66852381Y-107709524D02*
X66852381Y-107090476D01*
X67233333Y-107423810D01*
X67233333Y-107280952D01*
X67280952Y-107185714D01*
X67328571Y-107138095D01*
X67423810Y-107090476D01*
X67661905Y-107090476D01*
X67757143Y-107138095D01*
X67804762Y-107185714D01*
X67852381Y-107280952D01*
X67852381Y-107566667D01*
X67804762Y-107661905D01*
X67757143Y-107709524D01*
X66852381Y-106471429D02*
X66852381Y-106376190D01*
X66900000Y-106280952D01*
X66947619Y-106233333D01*
X67042857Y-106185714D01*
X67233333Y-106138095D01*
X67471429Y-106138095D01*
X67661905Y-106185714D01*
X67757143Y-106233333D01*
X67804762Y-106280952D01*
X67852381Y-106376190D01*
X67852381Y-106471429D01*
X67804762Y-106566667D01*
X67757143Y-106614286D01*
X67661905Y-106661905D01*
X67471429Y-106709524D01*
X67233333Y-106709524D01*
X67042857Y-106661905D01*
X66947619Y-106614286D01*
X66900000Y-106566667D01*
X66852381Y-106471429D01*
X57209524Y-125157143D02*
X57161905Y-125204762D01*
X57019048Y-125252381D01*
X56923810Y-125252381D01*
X56780952Y-125204762D01*
X56685714Y-125109524D01*
X56638095Y-125014286D01*
X56590476Y-124823810D01*
X56590476Y-124680952D01*
X56638095Y-124490476D01*
X56685714Y-124395238D01*
X56780952Y-124300000D01*
X56923810Y-124252381D01*
X57019048Y-124252381D01*
X57161905Y-124300000D01*
X57209524Y-124347619D01*
X57638095Y-125252381D02*
X57638095Y-124252381D01*
X58209524Y-125252381D01*
X58209524Y-124252381D01*
X59161905Y-124252381D02*
X58685714Y-124252381D01*
X58638095Y-124728571D01*
X58685714Y-124680952D01*
X58780952Y-124633333D01*
X59019048Y-124633333D01*
X59114286Y-124680952D01*
X59161905Y-124728571D01*
X59209524Y-124823810D01*
X59209524Y-125061905D01*
X59161905Y-125157143D01*
X59114286Y-125204762D01*
X59019048Y-125252381D01*
X58780952Y-125252381D01*
X58685714Y-125204762D01*
X58638095Y-125157143D01*
X114557143Y-102290476D02*
X114604762Y-102338095D01*
X114652381Y-102480952D01*
X114652381Y-102576190D01*
X114604762Y-102719048D01*
X114509524Y-102814286D01*
X114414286Y-102861905D01*
X114223810Y-102909524D01*
X114080952Y-102909524D01*
X113890476Y-102861905D01*
X113795238Y-102814286D01*
X113700000Y-102719048D01*
X113652381Y-102576190D01*
X113652381Y-102480952D01*
X113700000Y-102338095D01*
X113747619Y-102290476D01*
X114652381Y-101861905D02*
X113652381Y-101861905D01*
X114652381Y-101290476D01*
X113652381Y-101290476D01*
X113652381Y-100385714D02*
X113652381Y-100576191D01*
X113700000Y-100671429D01*
X113747619Y-100719048D01*
X113890476Y-100814286D01*
X114080952Y-100861905D01*
X114461905Y-100861905D01*
X114557143Y-100814286D01*
X114604762Y-100766667D01*
X114652381Y-100671429D01*
X114652381Y-100480952D01*
X114604762Y-100385714D01*
X114557143Y-100338095D01*
X114461905Y-100290476D01*
X114223810Y-100290476D01*
X114128571Y-100338095D01*
X114080952Y-100385714D01*
X114033333Y-100480952D01*
X114033333Y-100671429D01*
X114080952Y-100766667D01*
X114128571Y-100814286D01*
X114223810Y-100861905D01*
X124357143Y-100557143D02*
X124309524Y-100604762D01*
X124166667Y-100652381D01*
X124071429Y-100652381D01*
X123928571Y-100604762D01*
X123833333Y-100509524D01*
X123785714Y-100414286D01*
X123738095Y-100223810D01*
X123738095Y-100080952D01*
X123785714Y-99890476D01*
X123833333Y-99795238D01*
X123928571Y-99700000D01*
X124071429Y-99652381D01*
X124166667Y-99652381D01*
X124309524Y-99700000D01*
X124357143Y-99747619D01*
X125309524Y-100652381D02*
X124738095Y-100652381D01*
X125023809Y-100652381D02*
X125023809Y-99652381D01*
X124928571Y-99795238D01*
X124833333Y-99890476D01*
X124738095Y-99938095D01*
X126214286Y-99652381D02*
X125738095Y-99652381D01*
X125690476Y-100128571D01*
X125738095Y-100080952D01*
X125833333Y-100033333D01*
X126071429Y-100033333D01*
X126166667Y-100080952D01*
X126214286Y-100128571D01*
X126261905Y-100223810D01*
X126261905Y-100461905D01*
X126214286Y-100557143D01*
X126166667Y-100604762D01*
X126071429Y-100652381D01*
X125833333Y-100652381D01*
X125738095Y-100604762D01*
X125690476Y-100557143D01*
M02*
