G04 #@! TF.FileFunction,Soldermask,Top*
%FSLAX46Y46*%
G04 Gerber Fmt 4.6, Leading zero omitted, Abs format (unit mm)*
G04 Created by KiCad (PCBNEW 4.0.2+dfsg1-stable) date Fr 20 Jul 2018 15:07:38 CEST*
%MOMM*%
G01*
G04 APERTURE LIST*
%ADD10C,0.100000*%
%ADD11C,3.575000*%
%ADD12C,2.000000*%
%ADD13R,2.050000X6.000000*%
%ADD14R,1.300000X6.000000*%
%ADD15R,5.560000X1.880000*%
%ADD16R,1.880000X5.560000*%
%ADD17R,2.200000X4.000000*%
%ADD18R,4.000000X2.200000*%
%ADD19R,1.790000X5.000000*%
%ADD20R,11.200000X9.800000*%
%ADD21R,1.000000X1.950000*%
%ADD22R,1.200100X1.200100*%
%ADD23C,3.800000*%
%ADD24C,1.924000*%
%ADD25C,2.100000*%
%ADD26C,2.600000*%
%ADD27R,2.127200X2.432000*%
%ADD28O,2.127200X2.432000*%
%ADD29R,2.432000X2.432000*%
%ADD30O,2.432000X2.432000*%
%ADD31R,3.900120X2.800300*%
%ADD32R,1.200000X1.150000*%
%ADD33R,1.650000X1.400000*%
%ADD34R,1.150000X1.200000*%
%ADD35R,1.197560X1.197560*%
%ADD36R,1.620000X1.310000*%
%ADD37R,0.900000X1.300000*%
%ADD38R,1.300000X0.900000*%
%ADD39R,1.898600X2.597100*%
%ADD40O,1.898600X2.597100*%
%ADD41R,1.460000X1.050000*%
%ADD42C,1.200000*%
%ADD43C,1.500000*%
G04 APERTURE END LIST*
D10*
D11*
X120740000Y-94440000D03*
X120740000Y-122380000D03*
X69940000Y-79200000D03*
X68670000Y-127460000D03*
D12*
X105500000Y-127460000D03*
X108040000Y-127460000D03*
X110580000Y-127460000D03*
X113120000Y-127460000D03*
X115660000Y-127460000D03*
X118200000Y-127460000D03*
X82640000Y-127460000D03*
X85180000Y-127460000D03*
X87720000Y-127460000D03*
X90260000Y-127460000D03*
X92800000Y-127460000D03*
X95340000Y-127460000D03*
X97880000Y-127460000D03*
X100420000Y-127460000D03*
X100420000Y-79200000D03*
X102960000Y-79200000D03*
X105500000Y-79200000D03*
X108040000Y-79200000D03*
X110580000Y-79200000D03*
X113120000Y-79200000D03*
X115660000Y-79200000D03*
X73496000Y-79200000D03*
X76036000Y-79200000D03*
X78576000Y-79200000D03*
X81116000Y-79200000D03*
X83656000Y-79200000D03*
X86196000Y-79200000D03*
X88736000Y-79200000D03*
X91276000Y-79200000D03*
X93816000Y-79200000D03*
X96356000Y-79200000D03*
X118200000Y-79200000D03*
D13*
X57175000Y-79800000D03*
X65425000Y-79800000D03*
X57175000Y-79800000D03*
X65425000Y-79800000D03*
D14*
X61300000Y-79800000D03*
D15*
X65710000Y-93965000D03*
X63090000Y-89635000D03*
D16*
X61335000Y-100910000D03*
X65665000Y-98290000D03*
D15*
X65810000Y-109465000D03*
X63190000Y-105135000D03*
D17*
X87900000Y-118500000D03*
X83300000Y-118500000D03*
X74100000Y-118500000D03*
X78700000Y-118500000D03*
D18*
X90000000Y-87350000D03*
X90000000Y-91800000D03*
X90000000Y-96250000D03*
X90000000Y-100700000D03*
X90000000Y-105150000D03*
X90000000Y-109600000D03*
X72000000Y-87350000D03*
X72000000Y-91800000D03*
X72000000Y-96250000D03*
X72000000Y-100700000D03*
X72000000Y-105150000D03*
X72000000Y-109600000D03*
X72000000Y-114050000D03*
X90000000Y-114050000D03*
D19*
X109900000Y-117600000D03*
D20*
X109900000Y-108450000D03*
D19*
X112440000Y-117600000D03*
X107360000Y-117600000D03*
D21*
X113908500Y-93195500D03*
X112638500Y-93195500D03*
X111368500Y-93195500D03*
X110098500Y-93195500D03*
X110098500Y-98595500D03*
X111368500Y-98595500D03*
X112638500Y-98595500D03*
X113908500Y-98595500D03*
D22*
X96500760Y-117450000D03*
X96500760Y-115550000D03*
X94501780Y-116500000D03*
X96500760Y-112250000D03*
X96500760Y-110350000D03*
X94501780Y-111300000D03*
X96500760Y-107050000D03*
X96500760Y-105150000D03*
X94501780Y-106100000D03*
D23*
X131600000Y-128000000D03*
X131600000Y-115600000D03*
D24*
X138600000Y-119300000D03*
X124100000Y-124300000D03*
X138600000Y-124300000D03*
X124100000Y-121800000D03*
X124100000Y-119300000D03*
D25*
X129500000Y-95000000D03*
X136500000Y-95000000D03*
D26*
X127000000Y-98200000D03*
X127000000Y-91800000D03*
X135000000Y-91800000D03*
X135000000Y-98200000D03*
D25*
X132000000Y-108850000D03*
X136000000Y-105150000D03*
X137300000Y-108850000D03*
D12*
X125500000Y-83100000D03*
X132500000Y-83100000D03*
X131250000Y-80600000D03*
X126750000Y-80600000D03*
D27*
X58200000Y-127300000D03*
D28*
X60740000Y-127300000D03*
X63280000Y-127300000D03*
D29*
X116700000Y-101300000D03*
D30*
X116700000Y-98760000D03*
D31*
X120848800Y-105400000D03*
X127351200Y-105400000D03*
D32*
X58750000Y-89700000D03*
X57250000Y-89700000D03*
X58750000Y-95200000D03*
X57250000Y-95200000D03*
X58750000Y-105000000D03*
X57250000Y-105000000D03*
X58750000Y-109500000D03*
X57250000Y-109500000D03*
X97750000Y-83200000D03*
X96250000Y-83200000D03*
D33*
X113800000Y-121800000D03*
X113800000Y-123800000D03*
D34*
X111900000Y-122450000D03*
X111900000Y-123950000D03*
X90400000Y-121550000D03*
X90400000Y-123050000D03*
D33*
X92400000Y-121300000D03*
X92400000Y-123300000D03*
D32*
X96050000Y-98500000D03*
X94550000Y-98500000D03*
D34*
X115600000Y-94650000D03*
X115600000Y-96150000D03*
X119400000Y-100050000D03*
X119400000Y-98550000D03*
D32*
X112650000Y-91200000D03*
X111150000Y-91200000D03*
X97750000Y-84800000D03*
X96250000Y-84800000D03*
D34*
X99300000Y-83250000D03*
X99300000Y-81750000D03*
X97100000Y-90950000D03*
X97100000Y-89450000D03*
X97100000Y-92650000D03*
X97100000Y-94150000D03*
X102600000Y-92650000D03*
X102600000Y-94150000D03*
X102600000Y-91050000D03*
X102600000Y-89550000D03*
D35*
X139249300Y-82500000D03*
X137750700Y-82500000D03*
X139249300Y-86000000D03*
X137750700Y-86000000D03*
X139249300Y-79000000D03*
X137750700Y-79000000D03*
D36*
X115600000Y-87735000D03*
X115600000Y-84465000D03*
D37*
X135750000Y-82500000D03*
X134250000Y-82500000D03*
X96050000Y-113900000D03*
X94550000Y-113900000D03*
X99250000Y-117400000D03*
X97750000Y-117400000D03*
X100650000Y-95800000D03*
X99150000Y-95800000D03*
X100750000Y-87700000D03*
X99250000Y-87700000D03*
X135750000Y-86000000D03*
X134250000Y-86000000D03*
X135750000Y-79000000D03*
X134250000Y-79000000D03*
X96050000Y-108700000D03*
X94550000Y-108700000D03*
X99250000Y-112200000D03*
X97750000Y-112200000D03*
X96050000Y-103500000D03*
X94550000Y-103500000D03*
X99250000Y-107000000D03*
X97750000Y-107000000D03*
D38*
X113500000Y-86450000D03*
X113500000Y-84950000D03*
X102700000Y-81750000D03*
X102700000Y-83250000D03*
X101000000Y-83250000D03*
X101000000Y-81750000D03*
D37*
X101550000Y-118800000D03*
X103050000Y-118800000D03*
X94550000Y-100100000D03*
X96050000Y-100100000D03*
X103050000Y-117100000D03*
X101550000Y-117100000D03*
D38*
X72800000Y-127550000D03*
X72800000Y-126050000D03*
X108200000Y-96650000D03*
X108200000Y-95150000D03*
D37*
X98950000Y-98500000D03*
X97450000Y-98500000D03*
D38*
X115600000Y-93350000D03*
X115600000Y-91850000D03*
X115600000Y-90650000D03*
X115600000Y-89150000D03*
X121100000Y-100150000D03*
X121100000Y-98650000D03*
X118700000Y-112150000D03*
X118700000Y-113650000D03*
X121900000Y-112150000D03*
X121900000Y-113650000D03*
X124400000Y-112150000D03*
X124400000Y-113650000D03*
X124500000Y-100050000D03*
X124500000Y-98550000D03*
X64400000Y-92550000D03*
X64400000Y-91050000D03*
D37*
X62750000Y-99600000D03*
X64250000Y-99600000D03*
D38*
X64500000Y-108050000D03*
X64500000Y-106550000D03*
D37*
X97450000Y-100100000D03*
X98950000Y-100100000D03*
D38*
X119300000Y-81050000D03*
X119300000Y-82550000D03*
D39*
X122400000Y-86810000D03*
D40*
X122400000Y-79190000D03*
D41*
X98800000Y-92450000D03*
X98800000Y-93400000D03*
X98800000Y-94350000D03*
X101000000Y-94350000D03*
X101000000Y-92450000D03*
X101000000Y-93400000D03*
X101000000Y-91150000D03*
X101000000Y-90200000D03*
X101000000Y-89250000D03*
X98800000Y-89250000D03*
X98800000Y-91150000D03*
X98800000Y-90200000D03*
D42*
X113950000Y-96150000D03*
X121100000Y-97300000D03*
X103900000Y-88900000D03*
X100000000Y-100300000D03*
X112200000Y-125700000D03*
X68600000Y-85700000D03*
X59800000Y-114000000D03*
X78700000Y-115200000D03*
X76000000Y-111100000D03*
X68400000Y-118000000D03*
X63500000Y-113900000D03*
X56500000Y-113900000D03*
X65900000Y-115900000D03*
X71600000Y-117900000D03*
X56500000Y-107300000D03*
X56500000Y-98800000D03*
X56500000Y-92100000D03*
X97800000Y-116000000D03*
X97900000Y-103800000D03*
X97900000Y-108900000D03*
X104200000Y-93100000D03*
X95600000Y-89200000D03*
X83500000Y-122200000D03*
X78700000Y-122000000D03*
X83300000Y-115100000D03*
X90400000Y-124800000D03*
D43*
X57300000Y-85200000D03*
X65500000Y-85100000D03*
D42*
X123500000Y-101500000D03*
X95700000Y-92700000D03*
X95800000Y-102100000D03*
X109900000Y-108450000D03*
X111400000Y-96400000D03*
X80800000Y-128700000D03*
X103100000Y-115000000D03*
X113500000Y-83100000D03*
X99200000Y-115900000D03*
X99200000Y-110800000D03*
X99200000Y-105500000D03*
X134000000Y-84200000D03*
X93600000Y-101900000D03*
X121500000Y-83000000D03*
X117100000Y-83500000D03*
X99200000Y-85500000D03*
X117000000Y-111800000D03*
X113300000Y-87700000D03*
X103800000Y-91100000D03*
M02*
