%FSLAX45Y45*%
G04 Gerber Fmt 4.5, Leading zero omitted, Abs format (unit mm)*
G04 Created by KiCad (PCBNEW 4.0.2+dfsg1-stable) date Fr 20 Jul 2018 15:07:45 CEST*
%MOMM*%
G01*
G04 APERTURE LIST*
%ADD10C,0.127000*%
%ADD11C,0.150000*%
%ADD12C,0.200000*%
%ADD13C,0.300000*%
G04 APERTURE END LIST*
D10*
D11*
X5470000Y-7700000D02*
X5470000Y-13000000D01*
X14100000Y-7700000D02*
X5470000Y-7700000D01*
X14100000Y-13000000D02*
X14100000Y-7700000D01*
X5470000Y-13000000D02*
X14100000Y-13000000D01*
D12*
X12892500Y-9442500D02*
X13007500Y-9557500D01*
X13007500Y-9442500D02*
X12892500Y-9557500D01*
X13592500Y-9442500D02*
X13707500Y-9557500D01*
X13707500Y-9442500D02*
X13592500Y-9557500D01*
X7025750Y-12746000D02*
G75*
G03X7025750Y-12746000I-158750J0D01*
G01*
X7152750Y-7920000D02*
G75*
G03X7152750Y-7920000I-158750J0D01*
G01*
X12232750Y-9444000D02*
G75*
G03X12232750Y-9444000I-158750J0D01*
G01*
X12232750Y-12238000D02*
G75*
G03X12232750Y-12238000I-158750J0D01*
G01*
D13*
X5733928Y-13473214D02*
X5733928Y-13173214D01*
X5805357Y-13173214D01*
X5848214Y-13187500D01*
X5876786Y-13216071D01*
X5891071Y-13244643D01*
X5905357Y-13301786D01*
X5905357Y-13344643D01*
X5891071Y-13401786D01*
X5876786Y-13430357D01*
X5848214Y-13458929D01*
X5805357Y-13473214D01*
X5733928Y-13473214D01*
X6033928Y-13473214D02*
X6033928Y-13273214D01*
X6033928Y-13330357D02*
X6048214Y-13301786D01*
X6062500Y-13287500D01*
X6091071Y-13273214D01*
X6119643Y-13273214D01*
X6219643Y-13473214D02*
X6219643Y-13273214D01*
X6219643Y-13173214D02*
X6205357Y-13187500D01*
X6219643Y-13201786D01*
X6233928Y-13187500D01*
X6219643Y-13173214D01*
X6219643Y-13201786D01*
X6405357Y-13473214D02*
X6376786Y-13458929D01*
X6362500Y-13430357D01*
X6362500Y-13173214D01*
X6562500Y-13473214D02*
X6533928Y-13458929D01*
X6519643Y-13430357D01*
X6519643Y-13173214D01*
X6905357Y-13473214D02*
X6905357Y-13173214D01*
X7005357Y-13387500D01*
X7105357Y-13173214D01*
X7105357Y-13473214D01*
X7376786Y-13473214D02*
X7376786Y-13316071D01*
X7362500Y-13287500D01*
X7333928Y-13273214D01*
X7276786Y-13273214D01*
X7248214Y-13287500D01*
X7376786Y-13458929D02*
X7348214Y-13473214D01*
X7276786Y-13473214D01*
X7248214Y-13458929D01*
X7233928Y-13430357D01*
X7233928Y-13401786D01*
X7248214Y-13373214D01*
X7276786Y-13358929D01*
X7348214Y-13358929D01*
X7376786Y-13344643D01*
X7519643Y-13273214D02*
X7519643Y-13573214D01*
X7519643Y-13287500D02*
X7548214Y-13273214D01*
X7605357Y-13273214D01*
X7633928Y-13287500D01*
X7648214Y-13301786D01*
X7662500Y-13330357D01*
X7662500Y-13416071D01*
X7648214Y-13444643D01*
X7633928Y-13458929D01*
X7605357Y-13473214D01*
X7548214Y-13473214D01*
X7519643Y-13458929D01*
X7791071Y-13444643D02*
X7805357Y-13458929D01*
X7791071Y-13473214D01*
X7776786Y-13458929D01*
X7791071Y-13444643D01*
X7791071Y-13473214D01*
X7791071Y-13287500D02*
X7805357Y-13301786D01*
X7791071Y-13316071D01*
X7776786Y-13301786D01*
X7791071Y-13287500D01*
X7791071Y-13316071D01*
X5347500Y-13910000D02*
X5462500Y-14025000D01*
X5462500Y-13910000D02*
X5347500Y-14025000D01*
X5891071Y-14103214D02*
X5719643Y-14103214D01*
X5805357Y-14103214D02*
X5805357Y-13803214D01*
X5776786Y-13846071D01*
X5748214Y-13874643D01*
X5719643Y-13888929D01*
X6019643Y-14074643D02*
X6033928Y-14088929D01*
X6019643Y-14103214D01*
X6005357Y-14088929D01*
X6019643Y-14074643D01*
X6019643Y-14103214D01*
X6319643Y-14103214D02*
X6148214Y-14103214D01*
X6233928Y-14103214D02*
X6233928Y-13803214D01*
X6205357Y-13846071D01*
X6176786Y-13874643D01*
X6148214Y-13888929D01*
X6591071Y-13803214D02*
X6448214Y-13803214D01*
X6433928Y-13946071D01*
X6448214Y-13931786D01*
X6476786Y-13917500D01*
X6548214Y-13917500D01*
X6576786Y-13931786D01*
X6591071Y-13946071D01*
X6605357Y-13974643D01*
X6605357Y-14046071D01*
X6591071Y-14074643D01*
X6576786Y-14088929D01*
X6548214Y-14103214D01*
X6476786Y-14103214D01*
X6448214Y-14088929D01*
X6433928Y-14074643D01*
X6733928Y-14103214D02*
X6733928Y-13903214D01*
X6733928Y-13931786D02*
X6748214Y-13917500D01*
X6776786Y-13903214D01*
X6819643Y-13903214D01*
X6848214Y-13917500D01*
X6862500Y-13946071D01*
X6862500Y-14103214D01*
X6862500Y-13946071D02*
X6876786Y-13917500D01*
X6905357Y-13903214D01*
X6948214Y-13903214D01*
X6976786Y-13917500D01*
X6991071Y-13946071D01*
X6991071Y-14103214D01*
X7133928Y-14103214D02*
X7133928Y-13903214D01*
X7133928Y-13931786D02*
X7148214Y-13917500D01*
X7176786Y-13903214D01*
X7219643Y-13903214D01*
X7248214Y-13917500D01*
X7262500Y-13946071D01*
X7262500Y-14103214D01*
X7262500Y-13946071D02*
X7276786Y-13917500D01*
X7305357Y-13903214D01*
X7348214Y-13903214D01*
X7376786Y-13917500D01*
X7391071Y-13946071D01*
X7391071Y-14103214D01*
X7976786Y-13788929D02*
X7719643Y-14174643D01*
X8362500Y-13803214D02*
X8391071Y-13803214D01*
X8419643Y-13817500D01*
X8433928Y-13831786D01*
X8448214Y-13860357D01*
X8462500Y-13917500D01*
X8462500Y-13988929D01*
X8448214Y-14046071D01*
X8433928Y-14074643D01*
X8419643Y-14088929D01*
X8391071Y-14103214D01*
X8362500Y-14103214D01*
X8333928Y-14088929D01*
X8319643Y-14074643D01*
X8305357Y-14046071D01*
X8291071Y-13988929D01*
X8291071Y-13917500D01*
X8305357Y-13860357D01*
X8319643Y-13831786D01*
X8333928Y-13817500D01*
X8362500Y-13803214D01*
X8591071Y-14074643D02*
X8605357Y-14088929D01*
X8591071Y-14103214D01*
X8576786Y-14088929D01*
X8591071Y-14074643D01*
X8591071Y-14103214D01*
X8791071Y-13803214D02*
X8819643Y-13803214D01*
X8848214Y-13817500D01*
X8862500Y-13831786D01*
X8876786Y-13860357D01*
X8891071Y-13917500D01*
X8891071Y-13988929D01*
X8876786Y-14046071D01*
X8862500Y-14074643D01*
X8848214Y-14088929D01*
X8819643Y-14103214D01*
X8791071Y-14103214D01*
X8762500Y-14088929D01*
X8748214Y-14074643D01*
X8733928Y-14046071D01*
X8719643Y-13988929D01*
X8719643Y-13917500D01*
X8733928Y-13860357D01*
X8748214Y-13831786D01*
X8762500Y-13817500D01*
X8791071Y-13803214D01*
X9148214Y-13903214D02*
X9148214Y-14103214D01*
X9076786Y-13788929D02*
X9005357Y-14003214D01*
X9191071Y-14003214D01*
X9448214Y-13803214D02*
X9305357Y-13803214D01*
X9291071Y-13946071D01*
X9305357Y-13931786D01*
X9333928Y-13917500D01*
X9405357Y-13917500D01*
X9433928Y-13931786D01*
X9448214Y-13946071D01*
X9462500Y-13974643D01*
X9462500Y-14046071D01*
X9448214Y-14074643D01*
X9433928Y-14088929D01*
X9405357Y-14103214D01*
X9333928Y-14103214D01*
X9305357Y-14088929D01*
X9291071Y-14074643D01*
X9576786Y-13803214D02*
X9576786Y-13860357D01*
X9691071Y-13803214D02*
X9691071Y-13860357D01*
X10133928Y-14217500D02*
X10119643Y-14203214D01*
X10091071Y-14160357D01*
X10076786Y-14131786D01*
X10062500Y-14088929D01*
X10048214Y-14017500D01*
X10048214Y-13960357D01*
X10062500Y-13888929D01*
X10076786Y-13846071D01*
X10091071Y-13817500D01*
X10119643Y-13774643D01*
X10133928Y-13760357D01*
X10233928Y-13831786D02*
X10248214Y-13817500D01*
X10276786Y-13803214D01*
X10348214Y-13803214D01*
X10376786Y-13817500D01*
X10391071Y-13831786D01*
X10405357Y-13860357D01*
X10405357Y-13888929D01*
X10391071Y-13931786D01*
X10219643Y-14103214D01*
X10405357Y-14103214D01*
X10762500Y-14103214D02*
X10762500Y-13803214D01*
X10891071Y-14103214D02*
X10891071Y-13946071D01*
X10876786Y-13917500D01*
X10848214Y-13903214D01*
X10805357Y-13903214D01*
X10776786Y-13917500D01*
X10762500Y-13931786D01*
X11076786Y-14103214D02*
X11048214Y-14088929D01*
X11033928Y-14074643D01*
X11019643Y-14046071D01*
X11019643Y-13960357D01*
X11033928Y-13931786D01*
X11048214Y-13917500D01*
X11076786Y-13903214D01*
X11119643Y-13903214D01*
X11148214Y-13917500D01*
X11162500Y-13931786D01*
X11176786Y-13960357D01*
X11176786Y-14046071D01*
X11162500Y-14074643D01*
X11148214Y-14088929D01*
X11119643Y-14103214D01*
X11076786Y-14103214D01*
X11348214Y-14103214D02*
X11319643Y-14088929D01*
X11305357Y-14060357D01*
X11305357Y-13803214D01*
X11576786Y-14088929D02*
X11548214Y-14103214D01*
X11491071Y-14103214D01*
X11462500Y-14088929D01*
X11448214Y-14060357D01*
X11448214Y-13946071D01*
X11462500Y-13917500D01*
X11491071Y-13903214D01*
X11548214Y-13903214D01*
X11576786Y-13917500D01*
X11591071Y-13946071D01*
X11591071Y-13974643D01*
X11448214Y-14003214D01*
X11705357Y-14088929D02*
X11733928Y-14103214D01*
X11791071Y-14103214D01*
X11819643Y-14088929D01*
X11833928Y-14060357D01*
X11833928Y-14046071D01*
X11819643Y-14017500D01*
X11791071Y-14003214D01*
X11748214Y-14003214D01*
X11719643Y-13988929D01*
X11705357Y-13960357D01*
X11705357Y-13946071D01*
X11719643Y-13917500D01*
X11748214Y-13903214D01*
X11791071Y-13903214D01*
X11819643Y-13917500D01*
X11933928Y-14217500D02*
X11948214Y-14203214D01*
X11976786Y-14160357D01*
X11991071Y-14131786D01*
X12005357Y-14088929D01*
X12019643Y-14017500D01*
X12019643Y-13960357D01*
X12005357Y-13888929D01*
X11991071Y-13846071D01*
X11976786Y-13817500D01*
X11948214Y-13774643D01*
X11933928Y-13760357D01*
X12476786Y-14217500D02*
X12462500Y-14203214D01*
X12433928Y-14160357D01*
X12419643Y-14131786D01*
X12405357Y-14088929D01*
X12391071Y-14017500D01*
X12391071Y-13960357D01*
X12405357Y-13888929D01*
X12419643Y-13846071D01*
X12433928Y-13817500D01*
X12462500Y-13774643D01*
X12476786Y-13760357D01*
X12591071Y-13903214D02*
X12591071Y-14103214D01*
X12591071Y-13931786D02*
X12605357Y-13917500D01*
X12633928Y-13903214D01*
X12676786Y-13903214D01*
X12705357Y-13917500D01*
X12719643Y-13946071D01*
X12719643Y-14103214D01*
X12905357Y-14103214D02*
X12876786Y-14088929D01*
X12862500Y-14074643D01*
X12848214Y-14046071D01*
X12848214Y-13960357D01*
X12862500Y-13931786D01*
X12876786Y-13917500D01*
X12905357Y-13903214D01*
X12948214Y-13903214D01*
X12976786Y-13917500D01*
X12991071Y-13931786D01*
X13005357Y-13960357D01*
X13005357Y-14046071D01*
X12991071Y-14074643D01*
X12976786Y-14088929D01*
X12948214Y-14103214D01*
X12905357Y-14103214D01*
X13091071Y-13903214D02*
X13205357Y-13903214D01*
X13133928Y-13803214D02*
X13133928Y-14060357D01*
X13148214Y-14088929D01*
X13176786Y-14103214D01*
X13205357Y-14103214D01*
X13533928Y-13903214D02*
X13533928Y-14203214D01*
X13533928Y-13917500D02*
X13562500Y-13903214D01*
X13619643Y-13903214D01*
X13648214Y-13917500D01*
X13662500Y-13931786D01*
X13676786Y-13960357D01*
X13676786Y-14046071D01*
X13662500Y-14074643D01*
X13648214Y-14088929D01*
X13619643Y-14103214D01*
X13562500Y-14103214D01*
X13533928Y-14088929D01*
X13848214Y-14103214D02*
X13819643Y-14088929D01*
X13805357Y-14060357D01*
X13805357Y-13803214D01*
X14091071Y-14103214D02*
X14091071Y-13946071D01*
X14076786Y-13917500D01*
X14048214Y-13903214D01*
X13991071Y-13903214D01*
X13962500Y-13917500D01*
X14091071Y-14088929D02*
X14062500Y-14103214D01*
X13991071Y-14103214D01*
X13962500Y-14088929D01*
X13948214Y-14060357D01*
X13948214Y-14031786D01*
X13962500Y-14003214D01*
X13991071Y-13988929D01*
X14062500Y-13988929D01*
X14091071Y-13974643D01*
X14191071Y-13903214D02*
X14305357Y-13903214D01*
X14233929Y-13803214D02*
X14233929Y-14060357D01*
X14248214Y-14088929D01*
X14276786Y-14103214D01*
X14305357Y-14103214D01*
X14519643Y-14088929D02*
X14491071Y-14103214D01*
X14433929Y-14103214D01*
X14405357Y-14088929D01*
X14391071Y-14060357D01*
X14391071Y-13946071D01*
X14405357Y-13917500D01*
X14433929Y-13903214D01*
X14491071Y-13903214D01*
X14519643Y-13917500D01*
X14533929Y-13946071D01*
X14533929Y-13974643D01*
X14391071Y-14003214D01*
X14791071Y-14103214D02*
X14791071Y-13803214D01*
X14791071Y-14088929D02*
X14762500Y-14103214D01*
X14705357Y-14103214D01*
X14676786Y-14088929D01*
X14662500Y-14074643D01*
X14648214Y-14046071D01*
X14648214Y-13960357D01*
X14662500Y-13931786D01*
X14676786Y-13917500D01*
X14705357Y-13903214D01*
X14762500Y-13903214D01*
X14791071Y-13917500D01*
X14905357Y-14217500D02*
X14919643Y-14203214D01*
X14948214Y-14160357D01*
X14962500Y-14131786D01*
X14976786Y-14088929D01*
X14991071Y-14017500D01*
X14991071Y-13960357D01*
X14976786Y-13888929D01*
X14962500Y-13846071D01*
X14948214Y-13817500D01*
X14919643Y-13774643D01*
X14905357Y-13760357D01*
X5462500Y-14363500D02*
G75*
G03X5462500Y-14363500I-158750J0D01*
G01*
X5705357Y-14199214D02*
X5891071Y-14199214D01*
X5791071Y-14313500D01*
X5833928Y-14313500D01*
X5862500Y-14327786D01*
X5876786Y-14342071D01*
X5891071Y-14370643D01*
X5891071Y-14442071D01*
X5876786Y-14470643D01*
X5862500Y-14484929D01*
X5833928Y-14499214D01*
X5748214Y-14499214D01*
X5719643Y-14484929D01*
X5705357Y-14470643D01*
X6019643Y-14470643D02*
X6033928Y-14484929D01*
X6019643Y-14499214D01*
X6005357Y-14484929D01*
X6019643Y-14470643D01*
X6019643Y-14499214D01*
X6319643Y-14499214D02*
X6148214Y-14499214D01*
X6233928Y-14499214D02*
X6233928Y-14199214D01*
X6205357Y-14242071D01*
X6176786Y-14270643D01*
X6148214Y-14284929D01*
X6419643Y-14199214D02*
X6619643Y-14199214D01*
X6491071Y-14499214D01*
X6733928Y-14499214D02*
X6733928Y-14299214D01*
X6733928Y-14327786D02*
X6748214Y-14313500D01*
X6776786Y-14299214D01*
X6819643Y-14299214D01*
X6848214Y-14313500D01*
X6862500Y-14342071D01*
X6862500Y-14499214D01*
X6862500Y-14342071D02*
X6876786Y-14313500D01*
X6905357Y-14299214D01*
X6948214Y-14299214D01*
X6976786Y-14313500D01*
X6991071Y-14342071D01*
X6991071Y-14499214D01*
X7133928Y-14499214D02*
X7133928Y-14299214D01*
X7133928Y-14327786D02*
X7148214Y-14313500D01*
X7176786Y-14299214D01*
X7219643Y-14299214D01*
X7248214Y-14313500D01*
X7262500Y-14342071D01*
X7262500Y-14499214D01*
X7262500Y-14342071D02*
X7276786Y-14313500D01*
X7305357Y-14299214D01*
X7348214Y-14299214D01*
X7376786Y-14313500D01*
X7391071Y-14342071D01*
X7391071Y-14499214D01*
X7976786Y-14184929D02*
X7719643Y-14570643D01*
X8362500Y-14199214D02*
X8391071Y-14199214D01*
X8419643Y-14213500D01*
X8433928Y-14227786D01*
X8448214Y-14256357D01*
X8462500Y-14313500D01*
X8462500Y-14384929D01*
X8448214Y-14442071D01*
X8433928Y-14470643D01*
X8419643Y-14484929D01*
X8391071Y-14499214D01*
X8362500Y-14499214D01*
X8333928Y-14484929D01*
X8319643Y-14470643D01*
X8305357Y-14442071D01*
X8291071Y-14384929D01*
X8291071Y-14313500D01*
X8305357Y-14256357D01*
X8319643Y-14227786D01*
X8333928Y-14213500D01*
X8362500Y-14199214D01*
X8591071Y-14470643D02*
X8605357Y-14484929D01*
X8591071Y-14499214D01*
X8576786Y-14484929D01*
X8591071Y-14470643D01*
X8591071Y-14499214D01*
X8891071Y-14499214D02*
X8719643Y-14499214D01*
X8805357Y-14499214D02*
X8805357Y-14199214D01*
X8776786Y-14242071D01*
X8748214Y-14270643D01*
X8719643Y-14284929D01*
X9005357Y-14227786D02*
X9019643Y-14213500D01*
X9048214Y-14199214D01*
X9119643Y-14199214D01*
X9148214Y-14213500D01*
X9162500Y-14227786D01*
X9176786Y-14256357D01*
X9176786Y-14284929D01*
X9162500Y-14327786D01*
X8991071Y-14499214D01*
X9176786Y-14499214D01*
X9448214Y-14199214D02*
X9305357Y-14199214D01*
X9291071Y-14342071D01*
X9305357Y-14327786D01*
X9333928Y-14313500D01*
X9405357Y-14313500D01*
X9433928Y-14327786D01*
X9448214Y-14342071D01*
X9462500Y-14370643D01*
X9462500Y-14442071D01*
X9448214Y-14470643D01*
X9433928Y-14484929D01*
X9405357Y-14499214D01*
X9333928Y-14499214D01*
X9305357Y-14484929D01*
X9291071Y-14470643D01*
X9576786Y-14199214D02*
X9576786Y-14256357D01*
X9691071Y-14199214D02*
X9691071Y-14256357D01*
X10133928Y-14613500D02*
X10119643Y-14599214D01*
X10091071Y-14556357D01*
X10076786Y-14527786D01*
X10062500Y-14484929D01*
X10048214Y-14413500D01*
X10048214Y-14356357D01*
X10062500Y-14284929D01*
X10076786Y-14242071D01*
X10091071Y-14213500D01*
X10119643Y-14170643D01*
X10133928Y-14156357D01*
X10376786Y-14299214D02*
X10376786Y-14499214D01*
X10305357Y-14184929D02*
X10233928Y-14399214D01*
X10419643Y-14399214D01*
X10762500Y-14499214D02*
X10762500Y-14199214D01*
X10891071Y-14499214D02*
X10891071Y-14342071D01*
X10876786Y-14313500D01*
X10848214Y-14299214D01*
X10805357Y-14299214D01*
X10776786Y-14313500D01*
X10762500Y-14327786D01*
X11076786Y-14499214D02*
X11048214Y-14484929D01*
X11033928Y-14470643D01*
X11019643Y-14442071D01*
X11019643Y-14356357D01*
X11033928Y-14327786D01*
X11048214Y-14313500D01*
X11076786Y-14299214D01*
X11119643Y-14299214D01*
X11148214Y-14313500D01*
X11162500Y-14327786D01*
X11176786Y-14356357D01*
X11176786Y-14442071D01*
X11162500Y-14470643D01*
X11148214Y-14484929D01*
X11119643Y-14499214D01*
X11076786Y-14499214D01*
X11348214Y-14499214D02*
X11319643Y-14484929D01*
X11305357Y-14456357D01*
X11305357Y-14199214D01*
X11576786Y-14484929D02*
X11548214Y-14499214D01*
X11491071Y-14499214D01*
X11462500Y-14484929D01*
X11448214Y-14456357D01*
X11448214Y-14342071D01*
X11462500Y-14313500D01*
X11491071Y-14299214D01*
X11548214Y-14299214D01*
X11576786Y-14313500D01*
X11591071Y-14342071D01*
X11591071Y-14370643D01*
X11448214Y-14399214D01*
X11705357Y-14484929D02*
X11733928Y-14499214D01*
X11791071Y-14499214D01*
X11819643Y-14484929D01*
X11833928Y-14456357D01*
X11833928Y-14442071D01*
X11819643Y-14413500D01*
X11791071Y-14399214D01*
X11748214Y-14399214D01*
X11719643Y-14384929D01*
X11705357Y-14356357D01*
X11705357Y-14342071D01*
X11719643Y-14313500D01*
X11748214Y-14299214D01*
X11791071Y-14299214D01*
X11819643Y-14313500D01*
X11933928Y-14613500D02*
X11948214Y-14599214D01*
X11976786Y-14556357D01*
X11991071Y-14527786D01*
X12005357Y-14484929D01*
X12019643Y-14413500D01*
X12019643Y-14356357D01*
X12005357Y-14284929D01*
X11991071Y-14242071D01*
X11976786Y-14213500D01*
X11948214Y-14170643D01*
X11933928Y-14156357D01*
X12476786Y-14613500D02*
X12462500Y-14599214D01*
X12433928Y-14556357D01*
X12419643Y-14527786D01*
X12405357Y-14484929D01*
X12391071Y-14413500D01*
X12391071Y-14356357D01*
X12405357Y-14284929D01*
X12419643Y-14242071D01*
X12433928Y-14213500D01*
X12462500Y-14170643D01*
X12476786Y-14156357D01*
X12591071Y-14299214D02*
X12591071Y-14499214D01*
X12591071Y-14327786D02*
X12605357Y-14313500D01*
X12633928Y-14299214D01*
X12676786Y-14299214D01*
X12705357Y-14313500D01*
X12719643Y-14342071D01*
X12719643Y-14499214D01*
X12905357Y-14499214D02*
X12876786Y-14484929D01*
X12862500Y-14470643D01*
X12848214Y-14442071D01*
X12848214Y-14356357D01*
X12862500Y-14327786D01*
X12876786Y-14313500D01*
X12905357Y-14299214D01*
X12948214Y-14299214D01*
X12976786Y-14313500D01*
X12991071Y-14327786D01*
X13005357Y-14356357D01*
X13005357Y-14442071D01*
X12991071Y-14470643D01*
X12976786Y-14484929D01*
X12948214Y-14499214D01*
X12905357Y-14499214D01*
X13091071Y-14299214D02*
X13205357Y-14299214D01*
X13133928Y-14199214D02*
X13133928Y-14456357D01*
X13148214Y-14484929D01*
X13176786Y-14499214D01*
X13205357Y-14499214D01*
X13533928Y-14299214D02*
X13533928Y-14599214D01*
X13533928Y-14313500D02*
X13562500Y-14299214D01*
X13619643Y-14299214D01*
X13648214Y-14313500D01*
X13662500Y-14327786D01*
X13676786Y-14356357D01*
X13676786Y-14442071D01*
X13662500Y-14470643D01*
X13648214Y-14484929D01*
X13619643Y-14499214D01*
X13562500Y-14499214D01*
X13533928Y-14484929D01*
X13848214Y-14499214D02*
X13819643Y-14484929D01*
X13805357Y-14456357D01*
X13805357Y-14199214D01*
X14091071Y-14499214D02*
X14091071Y-14342071D01*
X14076786Y-14313500D01*
X14048214Y-14299214D01*
X13991071Y-14299214D01*
X13962500Y-14313500D01*
X14091071Y-14484929D02*
X14062500Y-14499214D01*
X13991071Y-14499214D01*
X13962500Y-14484929D01*
X13948214Y-14456357D01*
X13948214Y-14427786D01*
X13962500Y-14399214D01*
X13991071Y-14384929D01*
X14062500Y-14384929D01*
X14091071Y-14370643D01*
X14191071Y-14299214D02*
X14305357Y-14299214D01*
X14233929Y-14199214D02*
X14233929Y-14456357D01*
X14248214Y-14484929D01*
X14276786Y-14499214D01*
X14305357Y-14499214D01*
X14519643Y-14484929D02*
X14491071Y-14499214D01*
X14433929Y-14499214D01*
X14405357Y-14484929D01*
X14391071Y-14456357D01*
X14391071Y-14342071D01*
X14405357Y-14313500D01*
X14433929Y-14299214D01*
X14491071Y-14299214D01*
X14519643Y-14313500D01*
X14533929Y-14342071D01*
X14533929Y-14370643D01*
X14391071Y-14399214D01*
X14791071Y-14499214D02*
X14791071Y-14199214D01*
X14791071Y-14484929D02*
X14762500Y-14499214D01*
X14705357Y-14499214D01*
X14676786Y-14484929D01*
X14662500Y-14470643D01*
X14648214Y-14442071D01*
X14648214Y-14356357D01*
X14662500Y-14327786D01*
X14676786Y-14313500D01*
X14705357Y-14299214D01*
X14762500Y-14299214D01*
X14791071Y-14313500D01*
X14905357Y-14613500D02*
X14919643Y-14599214D01*
X14948214Y-14556357D01*
X14962500Y-14527786D01*
X14976786Y-14484929D01*
X14991071Y-14413500D01*
X14991071Y-14356357D01*
X14976786Y-14284929D01*
X14962500Y-14242071D01*
X14948214Y-14213500D01*
X14919643Y-14170643D01*
X14905357Y-14156357D01*
M02*
