M48
;DRILL file {KiCad 4.0.2+dfsg1-stable} date Mo 16 Jul 2018 11:20:37 CEST
;FORMAT={-:-/ absolute / metric / decimal}
FMAT,2
METRIC,TZ
T1C0.500
T2C1.000
T3C1.016
T4C1.100
T5C1.500
T6C2.600
%
G90
G05
M71
T1
X57.3Y-85.2
X65.5Y-85.1
X78.2Y-129.1
X98.Y-80.
X98.Y-99.4
X99.8Y-81.1
X99.9Y-99.4
X101.1Y-81.9
X101.2Y-98.6
X103.2Y-129.
X112.Y-125.
X112.1Y-91.4
X130.1Y-101.5
X130.1Y-110.6
T2
X73.496Y-79.2
X76.036Y-79.2
X78.576Y-79.2
X81.116Y-79.2
X82.64Y-127.46
X83.656Y-79.2
X85.18Y-127.46
X86.196Y-79.2
X87.72Y-127.46
X88.736Y-79.2
X90.26Y-127.46
X91.276Y-79.2
X92.8Y-127.46
X93.816Y-79.2
X95.34Y-127.46
X96.356Y-79.2
X97.88Y-127.46
X100.42Y-79.2
X100.42Y-127.46
X102.96Y-79.2
X105.5Y-79.2
X105.5Y-127.46
X108.04Y-79.2
X108.04Y-127.46
X110.58Y-79.2
X110.58Y-127.46
X113.12Y-79.2
X113.12Y-127.46
X115.66Y-79.2
X115.66Y-127.46
X118.2Y-79.2
X118.2Y-127.46
X122.8Y-83.1
X124.05Y-80.6
X124.1Y-119.3
X124.1Y-121.8
X124.1Y-124.3
X128.55Y-80.6
X129.8Y-83.1
X138.6Y-119.3
X138.6Y-124.3
T3
X58.2Y-127.3
X60.74Y-127.3
X63.28Y-127.3
X116.7Y-98.76
X116.7Y-101.3
T4
X132.Y-108.85
X136.Y-105.15
X137.3Y-108.85
T5
X127.Y-91.8
X127.Y-98.2
X135.Y-91.8
X135.Y-98.2
T6
X131.6Y-115.6
X131.6Y-128.
T0
M30
