G04 #@! TF.FileFunction,Soldermask,Bot*
%FSLAX46Y46*%
G04 Gerber Fmt 4.6, Leading zero omitted, Abs format (unit mm)*
G04 Created by KiCad (PCBNEW 4.0.2+dfsg1-stable) date Fr 20 Jul 2018 15:07:38 CEST*
%MOMM*%
G01*
G04 APERTURE LIST*
%ADD10C,0.100000*%
%ADD11C,3.575000*%
%ADD12C,2.000000*%
%ADD13C,3.800000*%
%ADD14C,1.924000*%
%ADD15C,2.100000*%
%ADD16C,2.600000*%
%ADD17R,2.127200X2.432000*%
%ADD18O,2.127200X2.432000*%
%ADD19R,2.432000X2.432000*%
%ADD20O,2.432000X2.432000*%
%ADD21R,1.898600X2.597100*%
%ADD22O,1.898600X2.597100*%
%ADD23C,1.200000*%
%ADD24C,1.500000*%
G04 APERTURE END LIST*
D10*
D11*
X120740000Y-94440000D03*
X120740000Y-122380000D03*
X69940000Y-79200000D03*
X68670000Y-127460000D03*
D12*
X105500000Y-127460000D03*
X108040000Y-127460000D03*
X110580000Y-127460000D03*
X113120000Y-127460000D03*
X115660000Y-127460000D03*
X118200000Y-127460000D03*
X82640000Y-127460000D03*
X85180000Y-127460000D03*
X87720000Y-127460000D03*
X90260000Y-127460000D03*
X92800000Y-127460000D03*
X95340000Y-127460000D03*
X97880000Y-127460000D03*
X100420000Y-127460000D03*
X100420000Y-79200000D03*
X102960000Y-79200000D03*
X105500000Y-79200000D03*
X108040000Y-79200000D03*
X110580000Y-79200000D03*
X113120000Y-79200000D03*
X115660000Y-79200000D03*
X73496000Y-79200000D03*
X76036000Y-79200000D03*
X78576000Y-79200000D03*
X81116000Y-79200000D03*
X83656000Y-79200000D03*
X86196000Y-79200000D03*
X88736000Y-79200000D03*
X91276000Y-79200000D03*
X93816000Y-79200000D03*
X96356000Y-79200000D03*
X118200000Y-79200000D03*
D13*
X131600000Y-128000000D03*
X131600000Y-115600000D03*
D14*
X138600000Y-119300000D03*
X124100000Y-124300000D03*
X138600000Y-124300000D03*
X124100000Y-121800000D03*
X124100000Y-119300000D03*
D15*
X129500000Y-95000000D03*
X136500000Y-95000000D03*
D16*
X127000000Y-98200000D03*
X127000000Y-91800000D03*
X135000000Y-91800000D03*
X135000000Y-98200000D03*
D15*
X132000000Y-108850000D03*
X136000000Y-105150000D03*
X137300000Y-108850000D03*
D12*
X125500000Y-83100000D03*
X132500000Y-83100000D03*
X131250000Y-80600000D03*
X126750000Y-80600000D03*
D17*
X58200000Y-127300000D03*
D18*
X60740000Y-127300000D03*
X63280000Y-127300000D03*
D19*
X116700000Y-101300000D03*
D20*
X116700000Y-98760000D03*
D21*
X122400000Y-86810000D03*
D22*
X122400000Y-79190000D03*
D23*
X113950000Y-96150000D03*
X121100000Y-97300000D03*
X103900000Y-88900000D03*
X100000000Y-100300000D03*
X112200000Y-125700000D03*
X68600000Y-85700000D03*
X59800000Y-114000000D03*
X78700000Y-115200000D03*
X76000000Y-111100000D03*
X68400000Y-118000000D03*
X63500000Y-113900000D03*
X56500000Y-113900000D03*
X65900000Y-115900000D03*
X71600000Y-117900000D03*
X56500000Y-107300000D03*
X56500000Y-98800000D03*
X56500000Y-92100000D03*
X97800000Y-116000000D03*
X97900000Y-103800000D03*
X97900000Y-108900000D03*
X104200000Y-93100000D03*
X95600000Y-89200000D03*
X83500000Y-122200000D03*
X78700000Y-122000000D03*
X83300000Y-115100000D03*
X90400000Y-124800000D03*
D24*
X57300000Y-85200000D03*
X65500000Y-85100000D03*
D23*
X123500000Y-101500000D03*
X95700000Y-92700000D03*
X95800000Y-102100000D03*
X109900000Y-108450000D03*
X111400000Y-96400000D03*
X80800000Y-128700000D03*
X103100000Y-115000000D03*
X113500000Y-83100000D03*
X99200000Y-115900000D03*
X99200000Y-110800000D03*
X99200000Y-105500000D03*
X134000000Y-84200000D03*
X93600000Y-101900000D03*
X121500000Y-83000000D03*
X117100000Y-83500000D03*
X99200000Y-85500000D03*
X117000000Y-111800000D03*
X113300000Y-87700000D03*
X103800000Y-91100000D03*
M02*
