G04 #@! TF.FileFunction,Legend,Top*
%FSLAX46Y46*%
G04 Gerber Fmt 4.6, Leading zero omitted, Abs format (unit mm)*
G04 Created by KiCad (PCBNEW 4.0.2+dfsg1-stable) date Fr 20 Jul 2018 15:07:38 CEST*
%MOMM*%
G01*
G04 APERTURE LIST*
%ADD10C,0.100000*%
%ADD11C,0.300000*%
%ADD12C,0.150000*%
%ADD13C,0.254000*%
%ADD14C,0.381000*%
G04 APERTURE END LIST*
D10*
D11*
X60542857Y-124842857D02*
X59971428Y-124842857D01*
X59971428Y-123642857D01*
X60942857Y-124842857D02*
X60942857Y-124042857D01*
X60942857Y-123642857D02*
X60885714Y-123700000D01*
X60942857Y-123757143D01*
X61000000Y-123700000D01*
X60942857Y-123642857D01*
X60942857Y-123757143D01*
X62028572Y-124785714D02*
X61914286Y-124842857D01*
X61685715Y-124842857D01*
X61571429Y-124785714D01*
X61514286Y-124728571D01*
X61457143Y-124614286D01*
X61457143Y-124271429D01*
X61514286Y-124157143D01*
X61571429Y-124100000D01*
X61685715Y-124042857D01*
X61914286Y-124042857D01*
X62028572Y-124100000D01*
X63000000Y-124785714D02*
X62885714Y-124842857D01*
X62657143Y-124842857D01*
X62542857Y-124785714D01*
X62485714Y-124671429D01*
X62485714Y-124214286D01*
X62542857Y-124100000D01*
X62657143Y-124042857D01*
X62885714Y-124042857D01*
X63000000Y-124100000D01*
X63057143Y-124214286D01*
X63057143Y-124328571D01*
X62485714Y-124442857D01*
X63571428Y-124042857D02*
X63571428Y-124842857D01*
X63571428Y-124157143D02*
X63628571Y-124100000D01*
X63742857Y-124042857D01*
X63914285Y-124042857D01*
X64028571Y-124100000D01*
X64085714Y-124214286D01*
X64085714Y-124842857D01*
X64599999Y-124785714D02*
X64714285Y-124842857D01*
X64942857Y-124842857D01*
X65057142Y-124785714D01*
X65114285Y-124671429D01*
X65114285Y-124614286D01*
X65057142Y-124500000D01*
X64942857Y-124442857D01*
X64771428Y-124442857D01*
X64657142Y-124385714D01*
X64599999Y-124271429D01*
X64599999Y-124214286D01*
X64657142Y-124100000D01*
X64771428Y-124042857D01*
X64942857Y-124042857D01*
X65057142Y-124100000D01*
X66085714Y-124785714D02*
X65971428Y-124842857D01*
X65742857Y-124842857D01*
X65628571Y-124785714D01*
X65571428Y-124671429D01*
X65571428Y-124214286D01*
X65628571Y-124100000D01*
X65742857Y-124042857D01*
X65971428Y-124042857D01*
X66085714Y-124100000D01*
X66142857Y-124214286D01*
X66142857Y-124328571D01*
X65571428Y-124442857D01*
X67171428Y-124842857D02*
X67171428Y-123642857D01*
X67171428Y-124785714D02*
X67057142Y-124842857D01*
X66828571Y-124842857D01*
X66714285Y-124785714D01*
X66657142Y-124728571D01*
X66599999Y-124614286D01*
X66599999Y-124271429D01*
X66657142Y-124157143D01*
X66714285Y-124100000D01*
X66828571Y-124042857D01*
X67057142Y-124042857D01*
X67171428Y-124100000D01*
X69171428Y-124042857D02*
X69171428Y-124842857D01*
X68657142Y-124042857D02*
X68657142Y-124671429D01*
X68714285Y-124785714D01*
X68828571Y-124842857D01*
X68999999Y-124842857D01*
X69114285Y-124785714D01*
X69171428Y-124728571D01*
X69742856Y-124042857D02*
X69742856Y-124842857D01*
X69742856Y-124157143D02*
X69799999Y-124100000D01*
X69914285Y-124042857D01*
X70085713Y-124042857D01*
X70199999Y-124100000D01*
X70257142Y-124214286D01*
X70257142Y-124842857D01*
X71342856Y-124842857D02*
X71342856Y-123642857D01*
X71342856Y-124785714D02*
X71228570Y-124842857D01*
X70999999Y-124842857D01*
X70885713Y-124785714D01*
X70828570Y-124728571D01*
X70771427Y-124614286D01*
X70771427Y-124271429D01*
X70828570Y-124157143D01*
X70885713Y-124100000D01*
X70999999Y-124042857D01*
X71228570Y-124042857D01*
X71342856Y-124100000D01*
X72371427Y-124785714D02*
X72257141Y-124842857D01*
X72028570Y-124842857D01*
X71914284Y-124785714D01*
X71857141Y-124671429D01*
X71857141Y-124214286D01*
X71914284Y-124100000D01*
X72028570Y-124042857D01*
X72257141Y-124042857D01*
X72371427Y-124100000D01*
X72428570Y-124214286D01*
X72428570Y-124328571D01*
X71857141Y-124442857D01*
X72942855Y-124842857D02*
X72942855Y-124042857D01*
X72942855Y-124271429D02*
X72999998Y-124157143D01*
X73057141Y-124100000D01*
X73171427Y-124042857D01*
X73285712Y-124042857D01*
X75285713Y-124728571D02*
X75228570Y-124785714D01*
X75057141Y-124842857D01*
X74942855Y-124842857D01*
X74771427Y-124785714D01*
X74657141Y-124671429D01*
X74599998Y-124557143D01*
X74542855Y-124328571D01*
X74542855Y-124157143D01*
X74599998Y-123928571D01*
X74657141Y-123814286D01*
X74771427Y-123700000D01*
X74942855Y-123642857D01*
X75057141Y-123642857D01*
X75228570Y-123700000D01*
X75285713Y-123757143D01*
X75799998Y-124214286D02*
X76199998Y-124214286D01*
X76371427Y-124842857D02*
X75799998Y-124842857D01*
X75799998Y-123642857D01*
X76371427Y-123642857D01*
X77571427Y-124842857D02*
X77171427Y-124271429D01*
X76885712Y-124842857D02*
X76885712Y-123642857D01*
X77342855Y-123642857D01*
X77457141Y-123700000D01*
X77514284Y-123757143D01*
X77571427Y-123871429D01*
X77571427Y-124042857D01*
X77514284Y-124157143D01*
X77457141Y-124214286D01*
X77342855Y-124271429D01*
X76885712Y-124271429D01*
X78085712Y-124842857D02*
X78085712Y-123642857D01*
X78771427Y-124842857D01*
X78771427Y-123642857D01*
X80485713Y-123642857D02*
X80714284Y-123642857D01*
X80828570Y-123700000D01*
X80942856Y-123814286D01*
X80999998Y-124042857D01*
X80999998Y-124442857D01*
X80942856Y-124671429D01*
X80828570Y-124785714D01*
X80714284Y-124842857D01*
X80485713Y-124842857D01*
X80371427Y-124785714D01*
X80257141Y-124671429D01*
X80199998Y-124442857D01*
X80199998Y-124042857D01*
X80257141Y-123814286D01*
X80371427Y-123700000D01*
X80485713Y-123642857D01*
X81514284Y-124842857D02*
X81514284Y-123642857D01*
X81514284Y-124214286D02*
X82199999Y-124214286D01*
X82199999Y-124842857D02*
X82199999Y-123642857D01*
X83342856Y-124842857D02*
X82771427Y-124842857D01*
X82771427Y-123642857D01*
X84542857Y-124042857D02*
X84828571Y-124842857D01*
X85114285Y-124042857D01*
X85571428Y-124728571D02*
X85628571Y-124785714D01*
X85571428Y-124842857D01*
X85514285Y-124785714D01*
X85571428Y-124728571D01*
X85571428Y-124842857D01*
X86771429Y-124842857D02*
X86085714Y-124842857D01*
X86428572Y-124842857D02*
X86428572Y-123642857D01*
X86314286Y-123814286D01*
X86200000Y-123928571D01*
X86085714Y-123985714D01*
X87285714Y-124728571D02*
X87342857Y-124785714D01*
X87285714Y-124842857D01*
X87228571Y-124785714D01*
X87285714Y-124728571D01*
X87285714Y-124842857D01*
X87800000Y-123757143D02*
X87857143Y-123700000D01*
X87971429Y-123642857D01*
X88257143Y-123642857D01*
X88371429Y-123700000D01*
X88428572Y-123757143D01*
X88485715Y-123871429D01*
X88485715Y-123985714D01*
X88428572Y-124157143D01*
X87742858Y-124842857D01*
X88485715Y-124842857D01*
D12*
X64500000Y-75700000D02*
X64500000Y-68100000D01*
X64500000Y-68100000D02*
X58100000Y-68100000D01*
X58100000Y-68100000D02*
X58100000Y-75700000D01*
X66800000Y-77000000D02*
X55800000Y-77000000D01*
X66100000Y-82400000D02*
X56500000Y-82400000D01*
X56500000Y-82400000D02*
X56500000Y-75700000D01*
X56500000Y-75700000D02*
X66100000Y-75700000D01*
X66100000Y-75700000D02*
X66100000Y-82400000D01*
X66300000Y-89600000D02*
X66300000Y-94000000D01*
X66300000Y-94000000D02*
X62500000Y-94000000D01*
X62500000Y-94000000D02*
X62500000Y-89600000D01*
X62500000Y-89600000D02*
X66300000Y-89600000D01*
X65700000Y-101500000D02*
X61300000Y-101500000D01*
X61300000Y-101500000D02*
X61300000Y-97700000D01*
X61300000Y-97700000D02*
X65700000Y-97700000D01*
X65700000Y-97700000D02*
X65700000Y-101500000D01*
X66400000Y-105100000D02*
X66400000Y-109500000D01*
X66400000Y-109500000D02*
X62600000Y-109500000D01*
X62600000Y-109500000D02*
X62600000Y-105100000D01*
X62600000Y-105100000D02*
X66400000Y-105100000D01*
X72000000Y-118500000D02*
X90000000Y-118500000D01*
X90000000Y-118500000D02*
X90000000Y-82900000D01*
X90000000Y-82900000D02*
X72000000Y-82900000D01*
X72000000Y-82900000D02*
X72000000Y-118500000D01*
X114900000Y-115100000D02*
X113650000Y-115100000D01*
X114900000Y-115100000D02*
X114900000Y-113600000D01*
X104900000Y-115100000D02*
X104900000Y-113600000D01*
X104900000Y-115100000D02*
X106150000Y-115100000D01*
X114578500Y-93820500D02*
X114433500Y-93820500D01*
X114578500Y-97970500D02*
X114433500Y-97970500D01*
X109428500Y-97970500D02*
X109573500Y-97970500D01*
X109428500Y-93820500D02*
X109573500Y-93820500D01*
X114578500Y-93820500D02*
X114578500Y-97970500D01*
X109428500Y-93820500D02*
X109428500Y-97970500D01*
X114433500Y-93820500D02*
X114433500Y-92420500D01*
X94849760Y-115200840D02*
X94849760Y-115249100D01*
X95550800Y-117999820D02*
X94849760Y-117999820D01*
X94849760Y-117999820D02*
X94849760Y-117750900D01*
X94849760Y-115200840D02*
X94849760Y-115000180D01*
X94849760Y-115000180D02*
X95550800Y-115000180D01*
X94849760Y-110000840D02*
X94849760Y-110049100D01*
X95550800Y-112799820D02*
X94849760Y-112799820D01*
X94849760Y-112799820D02*
X94849760Y-112550900D01*
X94849760Y-110000840D02*
X94849760Y-109800180D01*
X94849760Y-109800180D02*
X95550800Y-109800180D01*
X94849760Y-104800840D02*
X94849760Y-104849100D01*
X95550800Y-107599820D02*
X94849760Y-107599820D01*
X94849760Y-107599820D02*
X94849760Y-107350900D01*
X94849760Y-104800840D02*
X94849760Y-104600180D01*
X94849760Y-104600180D02*
X95550800Y-104600180D01*
X125600000Y-115900000D02*
X125600000Y-127700000D01*
X125600000Y-115900000D02*
X137600000Y-115900000D01*
X137600000Y-115900000D02*
X137600000Y-127700000D01*
X137600000Y-127700000D02*
X125600000Y-127700000D01*
X134500000Y-121800000D02*
G75*
G03X134500000Y-121800000I-2900000J0D01*
G01*
X135700000Y-121800000D02*
G75*
G03X135700000Y-121800000I-4100000J0D01*
G01*
X138500000Y-91500000D02*
X138500000Y-98500000D01*
X141000000Y-91500000D02*
X141000000Y-98500000D01*
X141000000Y-98500000D02*
X126500000Y-98500000D01*
X126500000Y-98500000D02*
X126500000Y-91500000D01*
X126500000Y-91500000D02*
X141000000Y-91500000D01*
X141900000Y-94400000D02*
X141300000Y-95000000D01*
X141300000Y-95000000D02*
X141900000Y-95600000D01*
X144200000Y-95000000D02*
X141300000Y-95000000D01*
X141900000Y-106400000D02*
X141300000Y-107000000D01*
X141300000Y-107000000D02*
X141900000Y-107600000D01*
X144200000Y-107000000D02*
X141300000Y-107000000D01*
X139500000Y-104500000D02*
X139500000Y-109500000D01*
X141000000Y-104500000D02*
X141000000Y-109500000D01*
X141000000Y-109500000D02*
X130000000Y-109500000D01*
X130000000Y-109500000D02*
X130000000Y-104500000D01*
X130000000Y-104500000D02*
X141000000Y-104500000D01*
X130800000Y-77400000D02*
X130800000Y-78000000D01*
X130800000Y-77400000D02*
X127200000Y-77400000D01*
X127200000Y-77400000D02*
X127200000Y-78000000D01*
X132700000Y-84600000D02*
X125300000Y-84600000D01*
X125300000Y-84600000D02*
X125300000Y-78000000D01*
X125300000Y-78000000D02*
X132700000Y-78000000D01*
X132700000Y-78000000D02*
X132700000Y-84600000D01*
X59470000Y-128570000D02*
X64550000Y-128570000D01*
X64550000Y-128570000D02*
X64550000Y-126030000D01*
X64550000Y-126030000D02*
X59470000Y-126030000D01*
X56650000Y-125750000D02*
X58200000Y-125750000D01*
X59470000Y-126030000D02*
X59470000Y-128570000D01*
X58200000Y-128850000D02*
X56650000Y-128850000D01*
X56650000Y-128850000D02*
X56650000Y-125750000D01*
X115430000Y-100030000D02*
X115430000Y-97490000D01*
X115150000Y-102850000D02*
X115150000Y-101300000D01*
X115430000Y-100030000D02*
X117970000Y-100030000D01*
X118250000Y-101300000D02*
X118250000Y-102850000D01*
X118250000Y-102850000D02*
X115150000Y-102850000D01*
X117970000Y-100030000D02*
X117970000Y-97490000D01*
X117970000Y-97490000D02*
X115430000Y-97490000D01*
X127910000Y-106416000D02*
X127910000Y-104384000D01*
X127783000Y-104003000D02*
X127783000Y-106797000D01*
X127656000Y-107051000D02*
X127656000Y-103749000D01*
X127529000Y-103495000D02*
X127529000Y-107305000D01*
X127402000Y-103368000D02*
X127402000Y-107432000D01*
X127275000Y-107686000D02*
X127275000Y-103114000D01*
X128291000Y-109591000D02*
X128291000Y-101209000D01*
X128291000Y-101209000D02*
X120671000Y-101209000D01*
X120671000Y-101209000D02*
X119909000Y-101971000D01*
X119909000Y-101971000D02*
X119909000Y-108829000D01*
X119909000Y-108829000D02*
X120671000Y-109591000D01*
X120671000Y-109591000D02*
X128291000Y-109591000D01*
X120417000Y-105400000D02*
X121179000Y-105400000D01*
X120798000Y-105781000D02*
X120798000Y-105019000D01*
X128037000Y-105400000D02*
G75*
G03X128037000Y-105400000I-3937000J0D01*
G01*
X58350000Y-90300000D02*
X57650000Y-90300000D01*
X57650000Y-89100000D02*
X58350000Y-89100000D01*
X58350000Y-95800000D02*
X57650000Y-95800000D01*
X57650000Y-94600000D02*
X58350000Y-94600000D01*
X58350000Y-105600000D02*
X57650000Y-105600000D01*
X57650000Y-104400000D02*
X58350000Y-104400000D01*
X58350000Y-110100000D02*
X57650000Y-110100000D01*
X57650000Y-108900000D02*
X58350000Y-108900000D01*
X97350000Y-83800000D02*
X96650000Y-83800000D01*
X96650000Y-82600000D02*
X97350000Y-82600000D01*
X114650000Y-123300000D02*
X114650000Y-122300000D01*
X112950000Y-122300000D02*
X112950000Y-123300000D01*
X112500000Y-122850000D02*
X112500000Y-123550000D01*
X111300000Y-123550000D02*
X111300000Y-122850000D01*
X91000000Y-121950000D02*
X91000000Y-122650000D01*
X89800000Y-122650000D02*
X89800000Y-121950000D01*
X93250000Y-122800000D02*
X93250000Y-121800000D01*
X91550000Y-121800000D02*
X91550000Y-122800000D01*
X95650000Y-99100000D02*
X94950000Y-99100000D01*
X94950000Y-97900000D02*
X95650000Y-97900000D01*
X116200000Y-95050000D02*
X116200000Y-95750000D01*
X115000000Y-95750000D02*
X115000000Y-95050000D01*
X118800000Y-99650000D02*
X118800000Y-98950000D01*
X120000000Y-98950000D02*
X120000000Y-99650000D01*
X112250000Y-91800000D02*
X111550000Y-91800000D01*
X111550000Y-90600000D02*
X112250000Y-90600000D01*
X97350000Y-85400000D02*
X96650000Y-85400000D01*
X96650000Y-84200000D02*
X97350000Y-84200000D01*
X98700000Y-82850000D02*
X98700000Y-82150000D01*
X99900000Y-82150000D02*
X99900000Y-82850000D01*
X96500000Y-90550000D02*
X96500000Y-89850000D01*
X97700000Y-89850000D02*
X97700000Y-90550000D01*
X97700000Y-93050000D02*
X97700000Y-93750000D01*
X96500000Y-93750000D02*
X96500000Y-93050000D01*
X103200000Y-93050000D02*
X103200000Y-93750000D01*
X102000000Y-93750000D02*
X102000000Y-93050000D01*
X102000000Y-90650000D02*
X102000000Y-89950000D01*
X103200000Y-89950000D02*
X103200000Y-90650000D01*
X137400000Y-83050000D02*
X139300000Y-83050000D01*
X137400000Y-81950000D02*
X139300000Y-81950000D01*
X138300000Y-82500000D02*
X138750000Y-82500000D01*
X138250000Y-82250000D02*
X138250000Y-82750000D01*
X138250000Y-82500000D02*
X138500000Y-82250000D01*
X138500000Y-82250000D02*
X138500000Y-82750000D01*
X138500000Y-82750000D02*
X138250000Y-82500000D01*
X137400000Y-86550000D02*
X139300000Y-86550000D01*
X137400000Y-85450000D02*
X139300000Y-85450000D01*
X138300000Y-86000000D02*
X138750000Y-86000000D01*
X138250000Y-85750000D02*
X138250000Y-86250000D01*
X138250000Y-86000000D02*
X138500000Y-85750000D01*
X138500000Y-85750000D02*
X138500000Y-86250000D01*
X138500000Y-86250000D02*
X138250000Y-86000000D01*
X137400000Y-79550000D02*
X139300000Y-79550000D01*
X137400000Y-78450000D02*
X139300000Y-78450000D01*
X138300000Y-79000000D02*
X138750000Y-79000000D01*
X138250000Y-78750000D02*
X138250000Y-79250000D01*
X138250000Y-79000000D02*
X138500000Y-78750000D01*
X138500000Y-78750000D02*
X138500000Y-79250000D01*
X138500000Y-79250000D02*
X138250000Y-79000000D01*
X115600000Y-85782500D02*
X115600000Y-85401500D01*
X115600000Y-86798500D02*
X115600000Y-86417500D01*
X115600000Y-86417500D02*
X115219000Y-85782500D01*
X115219000Y-85782500D02*
X115981000Y-85782500D01*
X115981000Y-85782500D02*
X115600000Y-86417500D01*
X115092000Y-86417500D02*
X116108000Y-86417500D01*
X116500000Y-88100000D02*
X116500000Y-84560000D01*
X114700000Y-88100000D02*
X114700000Y-84560000D01*
X134500000Y-81825000D02*
X135500000Y-81825000D01*
X135500000Y-83175000D02*
X134500000Y-83175000D01*
X94800000Y-113225000D02*
X95800000Y-113225000D01*
X95800000Y-114575000D02*
X94800000Y-114575000D01*
X98000000Y-116725000D02*
X99000000Y-116725000D01*
X99000000Y-118075000D02*
X98000000Y-118075000D01*
X99400000Y-95125000D02*
X100400000Y-95125000D01*
X100400000Y-96475000D02*
X99400000Y-96475000D01*
X99500000Y-87025000D02*
X100500000Y-87025000D01*
X100500000Y-88375000D02*
X99500000Y-88375000D01*
X134500000Y-85325000D02*
X135500000Y-85325000D01*
X135500000Y-86675000D02*
X134500000Y-86675000D01*
X134500000Y-78325000D02*
X135500000Y-78325000D01*
X135500000Y-79675000D02*
X134500000Y-79675000D01*
X94800000Y-108025000D02*
X95800000Y-108025000D01*
X95800000Y-109375000D02*
X94800000Y-109375000D01*
X98000000Y-111525000D02*
X99000000Y-111525000D01*
X99000000Y-112875000D02*
X98000000Y-112875000D01*
X94800000Y-102825000D02*
X95800000Y-102825000D01*
X95800000Y-104175000D02*
X94800000Y-104175000D01*
X98000000Y-106325000D02*
X99000000Y-106325000D01*
X99000000Y-107675000D02*
X98000000Y-107675000D01*
X114175000Y-85200000D02*
X114175000Y-86200000D01*
X112825000Y-86200000D02*
X112825000Y-85200000D01*
X102025000Y-83000000D02*
X102025000Y-82000000D01*
X103375000Y-82000000D02*
X103375000Y-83000000D01*
X101675000Y-82000000D02*
X101675000Y-83000000D01*
X100325000Y-83000000D02*
X100325000Y-82000000D01*
X102800000Y-119475000D02*
X101800000Y-119475000D01*
X101800000Y-118125000D02*
X102800000Y-118125000D01*
X95800000Y-100775000D02*
X94800000Y-100775000D01*
X94800000Y-99425000D02*
X95800000Y-99425000D01*
X101800000Y-116425000D02*
X102800000Y-116425000D01*
X102800000Y-117775000D02*
X101800000Y-117775000D01*
X73475000Y-126300000D02*
X73475000Y-127300000D01*
X72125000Y-127300000D02*
X72125000Y-126300000D01*
X108875000Y-95400000D02*
X108875000Y-96400000D01*
X107525000Y-96400000D02*
X107525000Y-95400000D01*
X97700000Y-97825000D02*
X98700000Y-97825000D01*
X98700000Y-99175000D02*
X97700000Y-99175000D01*
X116275000Y-92100000D02*
X116275000Y-93100000D01*
X114925000Y-93100000D02*
X114925000Y-92100000D01*
X116275000Y-89400000D02*
X116275000Y-90400000D01*
X114925000Y-90400000D02*
X114925000Y-89400000D01*
X121775000Y-98900000D02*
X121775000Y-99900000D01*
X120425000Y-99900000D02*
X120425000Y-98900000D01*
X118025000Y-113400000D02*
X118025000Y-112400000D01*
X119375000Y-112400000D02*
X119375000Y-113400000D01*
X121225000Y-113400000D02*
X121225000Y-112400000D01*
X122575000Y-112400000D02*
X122575000Y-113400000D01*
X123725000Y-113400000D02*
X123725000Y-112400000D01*
X125075000Y-112400000D02*
X125075000Y-113400000D01*
X125175000Y-98800000D02*
X125175000Y-99800000D01*
X123825000Y-99800000D02*
X123825000Y-98800000D01*
X65075000Y-91300000D02*
X65075000Y-92300000D01*
X63725000Y-92300000D02*
X63725000Y-91300000D01*
X64000000Y-100275000D02*
X63000000Y-100275000D01*
X63000000Y-98925000D02*
X64000000Y-98925000D01*
X65175000Y-106800000D02*
X65175000Y-107800000D01*
X63825000Y-107800000D02*
X63825000Y-106800000D01*
X98700000Y-100775000D02*
X97700000Y-100775000D01*
X97700000Y-99425000D02*
X98700000Y-99425000D01*
X118625000Y-82300000D02*
X118625000Y-81300000D01*
X119975000Y-81300000D02*
X119975000Y-82300000D01*
D13*
X121698960Y-81999240D02*
X123101040Y-81999240D01*
X121698960Y-81798580D02*
X123101040Y-81798580D01*
X121698960Y-81399800D02*
X123101040Y-81399800D01*
X121698960Y-81600460D02*
X123101040Y-81600460D01*
X121698960Y-82400560D02*
X123101040Y-82400560D01*
X121698960Y-82199900D02*
X123101040Y-82199900D01*
X121698960Y-82598680D02*
X123101040Y-82598680D01*
X121698960Y-82799340D02*
X123101040Y-82799340D01*
X121698960Y-81199140D02*
X121698960Y-84800860D01*
X121698960Y-84800860D02*
X123101040Y-84800860D01*
X123101040Y-84800860D02*
X123101040Y-81199140D01*
X123101040Y-81199140D02*
X121698960Y-81199140D01*
D14*
X120401020Y-77998740D02*
X124398980Y-77998740D01*
X124398980Y-77998740D02*
X124398980Y-88001260D01*
X124398980Y-88001260D02*
X120401020Y-88001260D01*
X120401020Y-88001260D02*
X120401020Y-77998740D01*
D12*
X99600000Y-91700000D02*
G75*
G03X99600000Y-91700000I-100000J0D01*
G01*
X100150000Y-91950000D02*
X99650000Y-91950000D01*
X100150000Y-94850000D02*
X100150000Y-91950000D01*
X99650000Y-94850000D02*
X100150000Y-94850000D01*
X99650000Y-91950000D02*
X99650000Y-94850000D01*
X100400000Y-91900000D02*
G75*
G03X100400000Y-91900000I-100000J0D01*
G01*
X99650000Y-91650000D02*
X100150000Y-91650000D01*
X99650000Y-88750000D02*
X99650000Y-91650000D01*
X100150000Y-88750000D02*
X99650000Y-88750000D01*
X100150000Y-91650000D02*
X100150000Y-88750000D01*
X78609524Y-127757143D02*
X78561905Y-127804762D01*
X78419048Y-127852381D01*
X78323810Y-127852381D01*
X78180952Y-127804762D01*
X78085714Y-127709524D01*
X78038095Y-127614286D01*
X77990476Y-127423810D01*
X77990476Y-127280952D01*
X78038095Y-127090476D01*
X78085714Y-126995238D01*
X78180952Y-126900000D01*
X78323810Y-126852381D01*
X78419048Y-126852381D01*
X78561905Y-126900000D01*
X78609524Y-126947619D01*
X79038095Y-127852381D02*
X79038095Y-126852381D01*
X79609524Y-127852381D01*
X79609524Y-126852381D01*
X80038095Y-126947619D02*
X80085714Y-126900000D01*
X80180952Y-126852381D01*
X80419048Y-126852381D01*
X80514286Y-126900000D01*
X80561905Y-126947619D01*
X80609524Y-127042857D01*
X80609524Y-127138095D01*
X80561905Y-127280952D01*
X79990476Y-127852381D01*
X80609524Y-127852381D01*
X60609524Y-83857143D02*
X60561905Y-83904762D01*
X60419048Y-83952381D01*
X60323810Y-83952381D01*
X60180952Y-83904762D01*
X60085714Y-83809524D01*
X60038095Y-83714286D01*
X59990476Y-83523810D01*
X59990476Y-83380952D01*
X60038095Y-83190476D01*
X60085714Y-83095238D01*
X60180952Y-83000000D01*
X60323810Y-82952381D01*
X60419048Y-82952381D01*
X60561905Y-83000000D01*
X60609524Y-83047619D01*
X61038095Y-83952381D02*
X61038095Y-82952381D01*
X61609524Y-83952381D01*
X61609524Y-82952381D01*
X62609524Y-83952381D02*
X62038095Y-83952381D01*
X62323809Y-83952381D02*
X62323809Y-82952381D01*
X62228571Y-83095238D01*
X62133333Y-83190476D01*
X62038095Y-83238095D01*
X61952381Y-92666666D02*
X61952381Y-93142857D01*
X60952381Y-93142857D01*
X61952381Y-91809523D02*
X61952381Y-92380952D01*
X61952381Y-92095238D02*
X60952381Y-92095238D01*
X61095238Y-92190476D01*
X61190476Y-92285714D01*
X61238095Y-92380952D01*
X62633334Y-97152381D02*
X62157143Y-97152381D01*
X62157143Y-96152381D01*
X62919048Y-96247619D02*
X62966667Y-96200000D01*
X63061905Y-96152381D01*
X63300001Y-96152381D01*
X63395239Y-96200000D01*
X63442858Y-96247619D01*
X63490477Y-96342857D01*
X63490477Y-96438095D01*
X63442858Y-96580952D01*
X62871429Y-97152381D01*
X63490477Y-97152381D01*
X62052381Y-108166666D02*
X62052381Y-108642857D01*
X61052381Y-108642857D01*
X61052381Y-107928571D02*
X61052381Y-107309523D01*
X61433333Y-107642857D01*
X61433333Y-107499999D01*
X61480952Y-107404761D01*
X61528571Y-107357142D01*
X61623810Y-107309523D01*
X61861905Y-107309523D01*
X61957143Y-107357142D01*
X62004762Y-107404761D01*
X62052381Y-107499999D01*
X62052381Y-107785714D01*
X62004762Y-107880952D01*
X61957143Y-107928571D01*
X72338095Y-81452381D02*
X72338095Y-82261905D01*
X72385714Y-82357143D01*
X72433333Y-82404762D01*
X72528571Y-82452381D01*
X72719048Y-82452381D01*
X72814286Y-82404762D01*
X72861905Y-82357143D01*
X72909524Y-82261905D01*
X72909524Y-81452381D01*
X73909524Y-82452381D02*
X73338095Y-82452381D01*
X73623809Y-82452381D02*
X73623809Y-81452381D01*
X73528571Y-81595238D01*
X73433333Y-81690476D01*
X73338095Y-81738095D01*
X104538095Y-101752381D02*
X104538095Y-102561905D01*
X104585714Y-102657143D01*
X104633333Y-102704762D01*
X104728571Y-102752381D01*
X104919048Y-102752381D01*
X105014286Y-102704762D01*
X105061905Y-102657143D01*
X105109524Y-102561905D01*
X105109524Y-101752381D01*
X105538095Y-101847619D02*
X105585714Y-101800000D01*
X105680952Y-101752381D01*
X105919048Y-101752381D01*
X106014286Y-101800000D01*
X106061905Y-101847619D01*
X106109524Y-101942857D01*
X106109524Y-102038095D01*
X106061905Y-102180952D01*
X105490476Y-102752381D01*
X106109524Y-102752381D01*
X107952381Y-100061905D02*
X108761905Y-100061905D01*
X108857143Y-100014286D01*
X108904762Y-99966667D01*
X108952381Y-99871429D01*
X108952381Y-99680952D01*
X108904762Y-99585714D01*
X108857143Y-99538095D01*
X108761905Y-99490476D01*
X107952381Y-99490476D01*
X107952381Y-99109524D02*
X107952381Y-98490476D01*
X108333333Y-98823810D01*
X108333333Y-98680952D01*
X108380952Y-98585714D01*
X108428571Y-98538095D01*
X108523810Y-98490476D01*
X108761905Y-98490476D01*
X108857143Y-98538095D01*
X108904762Y-98585714D01*
X108952381Y-98680952D01*
X108952381Y-98966667D01*
X108904762Y-99061905D01*
X108857143Y-99109524D01*
X93797619Y-116595238D02*
X93750000Y-116690476D01*
X93654762Y-116785714D01*
X93511905Y-116928571D01*
X93464286Y-117023810D01*
X93464286Y-117119048D01*
X93702381Y-117071429D02*
X93654762Y-117166667D01*
X93559524Y-117261905D01*
X93369048Y-117309524D01*
X93035714Y-117309524D01*
X92845238Y-117261905D01*
X92750000Y-117166667D01*
X92702381Y-117071429D01*
X92702381Y-116880952D01*
X92750000Y-116785714D01*
X92845238Y-116690476D01*
X93035714Y-116642857D01*
X93369048Y-116642857D01*
X93559524Y-116690476D01*
X93654762Y-116785714D01*
X93702381Y-116880952D01*
X93702381Y-117071429D01*
X93702381Y-115690476D02*
X93702381Y-116261905D01*
X93702381Y-115976191D02*
X92702381Y-115976191D01*
X92845238Y-116071429D01*
X92940476Y-116166667D01*
X92988095Y-116261905D01*
X93797619Y-111395238D02*
X93750000Y-111490476D01*
X93654762Y-111585714D01*
X93511905Y-111728571D01*
X93464286Y-111823810D01*
X93464286Y-111919048D01*
X93702381Y-111871429D02*
X93654762Y-111966667D01*
X93559524Y-112061905D01*
X93369048Y-112109524D01*
X93035714Y-112109524D01*
X92845238Y-112061905D01*
X92750000Y-111966667D01*
X92702381Y-111871429D01*
X92702381Y-111680952D01*
X92750000Y-111585714D01*
X92845238Y-111490476D01*
X93035714Y-111442857D01*
X93369048Y-111442857D01*
X93559524Y-111490476D01*
X93654762Y-111585714D01*
X93702381Y-111680952D01*
X93702381Y-111871429D01*
X92797619Y-111061905D02*
X92750000Y-111014286D01*
X92702381Y-110919048D01*
X92702381Y-110680952D01*
X92750000Y-110585714D01*
X92797619Y-110538095D01*
X92892857Y-110490476D01*
X92988095Y-110490476D01*
X93130952Y-110538095D01*
X93702381Y-111109524D01*
X93702381Y-110490476D01*
X93797619Y-106195238D02*
X93750000Y-106290476D01*
X93654762Y-106385714D01*
X93511905Y-106528571D01*
X93464286Y-106623810D01*
X93464286Y-106719048D01*
X93702381Y-106671429D02*
X93654762Y-106766667D01*
X93559524Y-106861905D01*
X93369048Y-106909524D01*
X93035714Y-106909524D01*
X92845238Y-106861905D01*
X92750000Y-106766667D01*
X92702381Y-106671429D01*
X92702381Y-106480952D01*
X92750000Y-106385714D01*
X92845238Y-106290476D01*
X93035714Y-106242857D01*
X93369048Y-106242857D01*
X93559524Y-106290476D01*
X93654762Y-106385714D01*
X93702381Y-106480952D01*
X93702381Y-106671429D01*
X92702381Y-105909524D02*
X92702381Y-105290476D01*
X93083333Y-105623810D01*
X93083333Y-105480952D01*
X93130952Y-105385714D01*
X93178571Y-105338095D01*
X93273810Y-105290476D01*
X93511905Y-105290476D01*
X93607143Y-105338095D01*
X93654762Y-105385714D01*
X93702381Y-105480952D01*
X93702381Y-105766667D01*
X93654762Y-105861905D01*
X93607143Y-105909524D01*
X134466667Y-115304762D02*
X134609524Y-115352381D01*
X134847620Y-115352381D01*
X134942858Y-115304762D01*
X134990477Y-115257143D01*
X135038096Y-115161905D01*
X135038096Y-115066667D01*
X134990477Y-114971429D01*
X134942858Y-114923810D01*
X134847620Y-114876190D01*
X134657143Y-114828571D01*
X134561905Y-114780952D01*
X134514286Y-114733333D01*
X134466667Y-114638095D01*
X134466667Y-114542857D01*
X134514286Y-114447619D01*
X134561905Y-114400000D01*
X134657143Y-114352381D01*
X134895239Y-114352381D01*
X135038096Y-114400000D01*
X135371429Y-114352381D02*
X135609524Y-115352381D01*
X135800001Y-114638095D01*
X135990477Y-115352381D01*
X136228572Y-114352381D01*
X136561905Y-114447619D02*
X136609524Y-114400000D01*
X136704762Y-114352381D01*
X136942858Y-114352381D01*
X137038096Y-114400000D01*
X137085715Y-114447619D01*
X137133334Y-114542857D01*
X137133334Y-114638095D01*
X137085715Y-114780952D01*
X136514286Y-115352381D01*
X137133334Y-115352381D01*
X128609524Y-91057143D02*
X128561905Y-91104762D01*
X128419048Y-91152381D01*
X128323810Y-91152381D01*
X128180952Y-91104762D01*
X128085714Y-91009524D01*
X128038095Y-90914286D01*
X127990476Y-90723810D01*
X127990476Y-90580952D01*
X128038095Y-90390476D01*
X128085714Y-90295238D01*
X128180952Y-90200000D01*
X128323810Y-90152381D01*
X128419048Y-90152381D01*
X128561905Y-90200000D01*
X128609524Y-90247619D01*
X129038095Y-91152381D02*
X129038095Y-90152381D01*
X129609524Y-91152381D01*
X129609524Y-90152381D01*
X129990476Y-90152381D02*
X130609524Y-90152381D01*
X130276190Y-90533333D01*
X130419048Y-90533333D01*
X130514286Y-90580952D01*
X130561905Y-90628571D01*
X130609524Y-90723810D01*
X130609524Y-90961905D01*
X130561905Y-91057143D01*
X130514286Y-91104762D01*
X130419048Y-91152381D01*
X130133333Y-91152381D01*
X130038095Y-91104762D01*
X129990476Y-91057143D01*
X130709524Y-104057143D02*
X130661905Y-104104762D01*
X130519048Y-104152381D01*
X130423810Y-104152381D01*
X130280952Y-104104762D01*
X130185714Y-104009524D01*
X130138095Y-103914286D01*
X130090476Y-103723810D01*
X130090476Y-103580952D01*
X130138095Y-103390476D01*
X130185714Y-103295238D01*
X130280952Y-103200000D01*
X130423810Y-103152381D01*
X130519048Y-103152381D01*
X130661905Y-103200000D01*
X130709524Y-103247619D01*
X131138095Y-104152381D02*
X131138095Y-103152381D01*
X131709524Y-104152381D01*
X131709524Y-103152381D01*
X132614286Y-103485714D02*
X132614286Y-104152381D01*
X132376190Y-103104762D02*
X132138095Y-103819048D01*
X132757143Y-103819048D01*
X127566667Y-86004762D02*
X127709524Y-86052381D01*
X127947620Y-86052381D01*
X128042858Y-86004762D01*
X128090477Y-85957143D01*
X128138096Y-85861905D01*
X128138096Y-85766667D01*
X128090477Y-85671429D01*
X128042858Y-85623810D01*
X127947620Y-85576190D01*
X127757143Y-85528571D01*
X127661905Y-85480952D01*
X127614286Y-85433333D01*
X127566667Y-85338095D01*
X127566667Y-85242857D01*
X127614286Y-85147619D01*
X127661905Y-85100000D01*
X127757143Y-85052381D01*
X127995239Y-85052381D01*
X128138096Y-85100000D01*
X128471429Y-85052381D02*
X128709524Y-86052381D01*
X128900001Y-85338095D01*
X129090477Y-86052381D01*
X129328572Y-85052381D01*
X130233334Y-86052381D02*
X129661905Y-86052381D01*
X129947619Y-86052381D02*
X129947619Y-85052381D01*
X129852381Y-85195238D01*
X129757143Y-85290476D01*
X129661905Y-85338095D01*
X57209524Y-125157143D02*
X57161905Y-125204762D01*
X57019048Y-125252381D01*
X56923810Y-125252381D01*
X56780952Y-125204762D01*
X56685714Y-125109524D01*
X56638095Y-125014286D01*
X56590476Y-124823810D01*
X56590476Y-124680952D01*
X56638095Y-124490476D01*
X56685714Y-124395238D01*
X56780952Y-124300000D01*
X56923810Y-124252381D01*
X57019048Y-124252381D01*
X57161905Y-124300000D01*
X57209524Y-124347619D01*
X57638095Y-125252381D02*
X57638095Y-124252381D01*
X58209524Y-125252381D01*
X58209524Y-124252381D01*
X59161905Y-124252381D02*
X58685714Y-124252381D01*
X58638095Y-124728571D01*
X58685714Y-124680952D01*
X58780952Y-124633333D01*
X59019048Y-124633333D01*
X59114286Y-124680952D01*
X59161905Y-124728571D01*
X59209524Y-124823810D01*
X59209524Y-125061905D01*
X59161905Y-125157143D01*
X59114286Y-125204762D01*
X59019048Y-125252381D01*
X58780952Y-125252381D01*
X58685714Y-125204762D01*
X58638095Y-125157143D01*
X114557143Y-102290476D02*
X114604762Y-102338095D01*
X114652381Y-102480952D01*
X114652381Y-102576190D01*
X114604762Y-102719048D01*
X114509524Y-102814286D01*
X114414286Y-102861905D01*
X114223810Y-102909524D01*
X114080952Y-102909524D01*
X113890476Y-102861905D01*
X113795238Y-102814286D01*
X113700000Y-102719048D01*
X113652381Y-102576190D01*
X113652381Y-102480952D01*
X113700000Y-102338095D01*
X113747619Y-102290476D01*
X114652381Y-101861905D02*
X113652381Y-101861905D01*
X114652381Y-101290476D01*
X113652381Y-101290476D01*
X113652381Y-100385714D02*
X113652381Y-100576191D01*
X113700000Y-100671429D01*
X113747619Y-100719048D01*
X113890476Y-100814286D01*
X114080952Y-100861905D01*
X114461905Y-100861905D01*
X114557143Y-100814286D01*
X114604762Y-100766667D01*
X114652381Y-100671429D01*
X114652381Y-100480952D01*
X114604762Y-100385714D01*
X114557143Y-100338095D01*
X114461905Y-100290476D01*
X114223810Y-100290476D01*
X114128571Y-100338095D01*
X114080952Y-100385714D01*
X114033333Y-100480952D01*
X114033333Y-100671429D01*
X114080952Y-100766667D01*
X114128571Y-100814286D01*
X114223810Y-100861905D01*
X128557143Y-100357143D02*
X128509524Y-100404762D01*
X128366667Y-100452381D01*
X128271429Y-100452381D01*
X128128571Y-100404762D01*
X128033333Y-100309524D01*
X127985714Y-100214286D01*
X127938095Y-100023810D01*
X127938095Y-99880952D01*
X127985714Y-99690476D01*
X128033333Y-99595238D01*
X128128571Y-99500000D01*
X128271429Y-99452381D01*
X128366667Y-99452381D01*
X128509524Y-99500000D01*
X128557143Y-99547619D01*
X129509524Y-100452381D02*
X128938095Y-100452381D01*
X129223809Y-100452381D02*
X129223809Y-99452381D01*
X129128571Y-99595238D01*
X129033333Y-99690476D01*
X128938095Y-99738095D01*
X130414286Y-99452381D02*
X129938095Y-99452381D01*
X129890476Y-99928571D01*
X129938095Y-99880952D01*
X130033333Y-99833333D01*
X130271429Y-99833333D01*
X130366667Y-99880952D01*
X130414286Y-99928571D01*
X130461905Y-100023810D01*
X130461905Y-100261905D01*
X130414286Y-100357143D01*
X130366667Y-100404762D01*
X130271429Y-100452381D01*
X130033333Y-100452381D01*
X129938095Y-100404762D01*
X129890476Y-100357143D01*
X57833334Y-91957143D02*
X57785715Y-92004762D01*
X57642858Y-92052381D01*
X57547620Y-92052381D01*
X57404762Y-92004762D01*
X57309524Y-91909524D01*
X57261905Y-91814286D01*
X57214286Y-91623810D01*
X57214286Y-91480952D01*
X57261905Y-91290476D01*
X57309524Y-91195238D01*
X57404762Y-91100000D01*
X57547620Y-91052381D01*
X57642858Y-91052381D01*
X57785715Y-91100000D01*
X57833334Y-91147619D01*
X58785715Y-92052381D02*
X58214286Y-92052381D01*
X58500000Y-92052381D02*
X58500000Y-91052381D01*
X58404762Y-91195238D01*
X58309524Y-91290476D01*
X58214286Y-91338095D01*
X57833334Y-97457143D02*
X57785715Y-97504762D01*
X57642858Y-97552381D01*
X57547620Y-97552381D01*
X57404762Y-97504762D01*
X57309524Y-97409524D01*
X57261905Y-97314286D01*
X57214286Y-97123810D01*
X57214286Y-96980952D01*
X57261905Y-96790476D01*
X57309524Y-96695238D01*
X57404762Y-96600000D01*
X57547620Y-96552381D01*
X57642858Y-96552381D01*
X57785715Y-96600000D01*
X57833334Y-96647619D01*
X58214286Y-96647619D02*
X58261905Y-96600000D01*
X58357143Y-96552381D01*
X58595239Y-96552381D01*
X58690477Y-96600000D01*
X58738096Y-96647619D01*
X58785715Y-96742857D01*
X58785715Y-96838095D01*
X58738096Y-96980952D01*
X58166667Y-97552381D01*
X58785715Y-97552381D01*
X57833334Y-107257143D02*
X57785715Y-107304762D01*
X57642858Y-107352381D01*
X57547620Y-107352381D01*
X57404762Y-107304762D01*
X57309524Y-107209524D01*
X57261905Y-107114286D01*
X57214286Y-106923810D01*
X57214286Y-106780952D01*
X57261905Y-106590476D01*
X57309524Y-106495238D01*
X57404762Y-106400000D01*
X57547620Y-106352381D01*
X57642858Y-106352381D01*
X57785715Y-106400000D01*
X57833334Y-106447619D01*
X58166667Y-106352381D02*
X58785715Y-106352381D01*
X58452381Y-106733333D01*
X58595239Y-106733333D01*
X58690477Y-106780952D01*
X58738096Y-106828571D01*
X58785715Y-106923810D01*
X58785715Y-107161905D01*
X58738096Y-107257143D01*
X58690477Y-107304762D01*
X58595239Y-107352381D01*
X58309524Y-107352381D01*
X58214286Y-107304762D01*
X58166667Y-107257143D01*
X57833334Y-111757143D02*
X57785715Y-111804762D01*
X57642858Y-111852381D01*
X57547620Y-111852381D01*
X57404762Y-111804762D01*
X57309524Y-111709524D01*
X57261905Y-111614286D01*
X57214286Y-111423810D01*
X57214286Y-111280952D01*
X57261905Y-111090476D01*
X57309524Y-110995238D01*
X57404762Y-110900000D01*
X57547620Y-110852381D01*
X57642858Y-110852381D01*
X57785715Y-110900000D01*
X57833334Y-110947619D01*
X58690477Y-111185714D02*
X58690477Y-111852381D01*
X58452381Y-110804762D02*
X58214286Y-111519048D01*
X58833334Y-111519048D01*
X94333334Y-83457143D02*
X94285715Y-83504762D01*
X94142858Y-83552381D01*
X94047620Y-83552381D01*
X93904762Y-83504762D01*
X93809524Y-83409524D01*
X93761905Y-83314286D01*
X93714286Y-83123810D01*
X93714286Y-82980952D01*
X93761905Y-82790476D01*
X93809524Y-82695238D01*
X93904762Y-82600000D01*
X94047620Y-82552381D01*
X94142858Y-82552381D01*
X94285715Y-82600000D01*
X94333334Y-82647619D01*
X95238096Y-82552381D02*
X94761905Y-82552381D01*
X94714286Y-83028571D01*
X94761905Y-82980952D01*
X94857143Y-82933333D01*
X95095239Y-82933333D01*
X95190477Y-82980952D01*
X95238096Y-83028571D01*
X95285715Y-83123810D01*
X95285715Y-83361905D01*
X95238096Y-83457143D01*
X95190477Y-83504762D01*
X95095239Y-83552381D01*
X94857143Y-83552381D01*
X94761905Y-83504762D01*
X94714286Y-83457143D01*
X116257143Y-122966666D02*
X116304762Y-123014285D01*
X116352381Y-123157142D01*
X116352381Y-123252380D01*
X116304762Y-123395238D01*
X116209524Y-123490476D01*
X116114286Y-123538095D01*
X115923810Y-123585714D01*
X115780952Y-123585714D01*
X115590476Y-123538095D01*
X115495238Y-123490476D01*
X115400000Y-123395238D01*
X115352381Y-123252380D01*
X115352381Y-123157142D01*
X115400000Y-123014285D01*
X115447619Y-122966666D01*
X115352381Y-122109523D02*
X115352381Y-122300000D01*
X115400000Y-122395238D01*
X115447619Y-122442857D01*
X115590476Y-122538095D01*
X115780952Y-122585714D01*
X116161905Y-122585714D01*
X116257143Y-122538095D01*
X116304762Y-122490476D01*
X116352381Y-122395238D01*
X116352381Y-122204761D01*
X116304762Y-122109523D01*
X116257143Y-122061904D01*
X116161905Y-122014285D01*
X115923810Y-122014285D01*
X115828571Y-122061904D01*
X115780952Y-122109523D01*
X115733333Y-122204761D01*
X115733333Y-122395238D01*
X115780952Y-122490476D01*
X115828571Y-122538095D01*
X115923810Y-122585714D01*
X110457143Y-123366666D02*
X110504762Y-123414285D01*
X110552381Y-123557142D01*
X110552381Y-123652380D01*
X110504762Y-123795238D01*
X110409524Y-123890476D01*
X110314286Y-123938095D01*
X110123810Y-123985714D01*
X109980952Y-123985714D01*
X109790476Y-123938095D01*
X109695238Y-123890476D01*
X109600000Y-123795238D01*
X109552381Y-123652380D01*
X109552381Y-123557142D01*
X109600000Y-123414285D01*
X109647619Y-123366666D01*
X109552381Y-123033333D02*
X109552381Y-122366666D01*
X110552381Y-122795238D01*
X89257143Y-122566666D02*
X89304762Y-122614285D01*
X89352381Y-122757142D01*
X89352381Y-122852380D01*
X89304762Y-122995238D01*
X89209524Y-123090476D01*
X89114286Y-123138095D01*
X88923810Y-123185714D01*
X88780952Y-123185714D01*
X88590476Y-123138095D01*
X88495238Y-123090476D01*
X88400000Y-122995238D01*
X88352381Y-122852380D01*
X88352381Y-122757142D01*
X88400000Y-122614285D01*
X88447619Y-122566666D01*
X88780952Y-121995238D02*
X88733333Y-122090476D01*
X88685714Y-122138095D01*
X88590476Y-122185714D01*
X88542857Y-122185714D01*
X88447619Y-122138095D01*
X88400000Y-122090476D01*
X88352381Y-121995238D01*
X88352381Y-121804761D01*
X88400000Y-121709523D01*
X88447619Y-121661904D01*
X88542857Y-121614285D01*
X88590476Y-121614285D01*
X88685714Y-121661904D01*
X88733333Y-121709523D01*
X88780952Y-121804761D01*
X88780952Y-121995238D01*
X88828571Y-122090476D01*
X88876190Y-122138095D01*
X88971429Y-122185714D01*
X89161905Y-122185714D01*
X89257143Y-122138095D01*
X89304762Y-122090476D01*
X89352381Y-121995238D01*
X89352381Y-121804761D01*
X89304762Y-121709523D01*
X89257143Y-121661904D01*
X89161905Y-121614285D01*
X88971429Y-121614285D01*
X88876190Y-121661904D01*
X88828571Y-121709523D01*
X88780952Y-121804761D01*
X94857143Y-122466666D02*
X94904762Y-122514285D01*
X94952381Y-122657142D01*
X94952381Y-122752380D01*
X94904762Y-122895238D01*
X94809524Y-122990476D01*
X94714286Y-123038095D01*
X94523810Y-123085714D01*
X94380952Y-123085714D01*
X94190476Y-123038095D01*
X94095238Y-122990476D01*
X94000000Y-122895238D01*
X93952381Y-122752380D01*
X93952381Y-122657142D01*
X94000000Y-122514285D01*
X94047619Y-122466666D01*
X94952381Y-121990476D02*
X94952381Y-121800000D01*
X94904762Y-121704761D01*
X94857143Y-121657142D01*
X94714286Y-121561904D01*
X94523810Y-121514285D01*
X94142857Y-121514285D01*
X94047619Y-121561904D01*
X94000000Y-121609523D01*
X93952381Y-121704761D01*
X93952381Y-121895238D01*
X94000000Y-121990476D01*
X94047619Y-122038095D01*
X94142857Y-122085714D01*
X94380952Y-122085714D01*
X94476190Y-122038095D01*
X94523810Y-121990476D01*
X94571429Y-121895238D01*
X94571429Y-121704761D01*
X94523810Y-121609523D01*
X94476190Y-121561904D01*
X94380952Y-121514285D01*
X91657143Y-99357143D02*
X91609524Y-99404762D01*
X91466667Y-99452381D01*
X91371429Y-99452381D01*
X91228571Y-99404762D01*
X91133333Y-99309524D01*
X91085714Y-99214286D01*
X91038095Y-99023810D01*
X91038095Y-98880952D01*
X91085714Y-98690476D01*
X91133333Y-98595238D01*
X91228571Y-98500000D01*
X91371429Y-98452381D01*
X91466667Y-98452381D01*
X91609524Y-98500000D01*
X91657143Y-98547619D01*
X92609524Y-99452381D02*
X92038095Y-99452381D01*
X92323809Y-99452381D02*
X92323809Y-98452381D01*
X92228571Y-98595238D01*
X92133333Y-98690476D01*
X92038095Y-98738095D01*
X93228571Y-98452381D02*
X93323810Y-98452381D01*
X93419048Y-98500000D01*
X93466667Y-98547619D01*
X93514286Y-98642857D01*
X93561905Y-98833333D01*
X93561905Y-99071429D01*
X93514286Y-99261905D01*
X93466667Y-99357143D01*
X93419048Y-99404762D01*
X93323810Y-99452381D01*
X93228571Y-99452381D01*
X93133333Y-99404762D01*
X93085714Y-99357143D01*
X93038095Y-99261905D01*
X92990476Y-99071429D01*
X92990476Y-98833333D01*
X93038095Y-98642857D01*
X93085714Y-98547619D01*
X93133333Y-98500000D01*
X93228571Y-98452381D01*
X117457143Y-96142857D02*
X117504762Y-96190476D01*
X117552381Y-96333333D01*
X117552381Y-96428571D01*
X117504762Y-96571429D01*
X117409524Y-96666667D01*
X117314286Y-96714286D01*
X117123810Y-96761905D01*
X116980952Y-96761905D01*
X116790476Y-96714286D01*
X116695238Y-96666667D01*
X116600000Y-96571429D01*
X116552381Y-96428571D01*
X116552381Y-96333333D01*
X116600000Y-96190476D01*
X116647619Y-96142857D01*
X117552381Y-95190476D02*
X117552381Y-95761905D01*
X117552381Y-95476191D02*
X116552381Y-95476191D01*
X116695238Y-95571429D01*
X116790476Y-95666667D01*
X116838095Y-95761905D01*
X117552381Y-94238095D02*
X117552381Y-94809524D01*
X117552381Y-94523810D02*
X116552381Y-94523810D01*
X116695238Y-94619048D01*
X116790476Y-94714286D01*
X116838095Y-94809524D01*
X119157143Y-97242857D02*
X119204762Y-97290476D01*
X119252381Y-97433333D01*
X119252381Y-97528571D01*
X119204762Y-97671429D01*
X119109524Y-97766667D01*
X119014286Y-97814286D01*
X118823810Y-97861905D01*
X118680952Y-97861905D01*
X118490476Y-97814286D01*
X118395238Y-97766667D01*
X118300000Y-97671429D01*
X118252381Y-97528571D01*
X118252381Y-97433333D01*
X118300000Y-97290476D01*
X118347619Y-97242857D01*
X119252381Y-96290476D02*
X119252381Y-96861905D01*
X119252381Y-96576191D02*
X118252381Y-96576191D01*
X118395238Y-96671429D01*
X118490476Y-96766667D01*
X118538095Y-96861905D01*
X118347619Y-95909524D02*
X118300000Y-95861905D01*
X118252381Y-95766667D01*
X118252381Y-95528571D01*
X118300000Y-95433333D01*
X118347619Y-95385714D01*
X118442857Y-95338095D01*
X118538095Y-95338095D01*
X118680952Y-95385714D01*
X119252381Y-95957143D01*
X119252381Y-95338095D01*
X111157143Y-90057143D02*
X111109524Y-90104762D01*
X110966667Y-90152381D01*
X110871429Y-90152381D01*
X110728571Y-90104762D01*
X110633333Y-90009524D01*
X110585714Y-89914286D01*
X110538095Y-89723810D01*
X110538095Y-89580952D01*
X110585714Y-89390476D01*
X110633333Y-89295238D01*
X110728571Y-89200000D01*
X110871429Y-89152381D01*
X110966667Y-89152381D01*
X111109524Y-89200000D01*
X111157143Y-89247619D01*
X112109524Y-90152381D02*
X111538095Y-90152381D01*
X111823809Y-90152381D02*
X111823809Y-89152381D01*
X111728571Y-89295238D01*
X111633333Y-89390476D01*
X111538095Y-89438095D01*
X112442857Y-89152381D02*
X113061905Y-89152381D01*
X112728571Y-89533333D01*
X112871429Y-89533333D01*
X112966667Y-89580952D01*
X113014286Y-89628571D01*
X113061905Y-89723810D01*
X113061905Y-89961905D01*
X113014286Y-90057143D01*
X112966667Y-90104762D01*
X112871429Y-90152381D01*
X112585714Y-90152381D01*
X112490476Y-90104762D01*
X112442857Y-90057143D01*
X93357143Y-85157143D02*
X93309524Y-85204762D01*
X93166667Y-85252381D01*
X93071429Y-85252381D01*
X92928571Y-85204762D01*
X92833333Y-85109524D01*
X92785714Y-85014286D01*
X92738095Y-84823810D01*
X92738095Y-84680952D01*
X92785714Y-84490476D01*
X92833333Y-84395238D01*
X92928571Y-84300000D01*
X93071429Y-84252381D01*
X93166667Y-84252381D01*
X93309524Y-84300000D01*
X93357143Y-84347619D01*
X94309524Y-85252381D02*
X93738095Y-85252381D01*
X94023809Y-85252381D02*
X94023809Y-84252381D01*
X93928571Y-84395238D01*
X93833333Y-84490476D01*
X93738095Y-84538095D01*
X95166667Y-84585714D02*
X95166667Y-85252381D01*
X94928571Y-84204762D02*
X94690476Y-84919048D01*
X95309524Y-84919048D01*
X98157143Y-81442857D02*
X98204762Y-81490476D01*
X98252381Y-81633333D01*
X98252381Y-81728571D01*
X98204762Y-81871429D01*
X98109524Y-81966667D01*
X98014286Y-82014286D01*
X97823810Y-82061905D01*
X97680952Y-82061905D01*
X97490476Y-82014286D01*
X97395238Y-81966667D01*
X97300000Y-81871429D01*
X97252381Y-81728571D01*
X97252381Y-81633333D01*
X97300000Y-81490476D01*
X97347619Y-81442857D01*
X98252381Y-80490476D02*
X98252381Y-81061905D01*
X98252381Y-80776191D02*
X97252381Y-80776191D01*
X97395238Y-80871429D01*
X97490476Y-80966667D01*
X97538095Y-81061905D01*
X97252381Y-79633333D02*
X97252381Y-79823810D01*
X97300000Y-79919048D01*
X97347619Y-79966667D01*
X97490476Y-80061905D01*
X97680952Y-80109524D01*
X98061905Y-80109524D01*
X98157143Y-80061905D01*
X98204762Y-80014286D01*
X98252381Y-79919048D01*
X98252381Y-79728571D01*
X98204762Y-79633333D01*
X98157143Y-79585714D01*
X98061905Y-79538095D01*
X97823810Y-79538095D01*
X97728571Y-79585714D01*
X97680952Y-79633333D01*
X97633333Y-79728571D01*
X97633333Y-79919048D01*
X97680952Y-80014286D01*
X97728571Y-80061905D01*
X97823810Y-80109524D01*
X97457143Y-87942857D02*
X97504762Y-87990476D01*
X97552381Y-88133333D01*
X97552381Y-88228571D01*
X97504762Y-88371429D01*
X97409524Y-88466667D01*
X97314286Y-88514286D01*
X97123810Y-88561905D01*
X96980952Y-88561905D01*
X96790476Y-88514286D01*
X96695238Y-88466667D01*
X96600000Y-88371429D01*
X96552381Y-88228571D01*
X96552381Y-88133333D01*
X96600000Y-87990476D01*
X96647619Y-87942857D01*
X97552381Y-86990476D02*
X97552381Y-87561905D01*
X97552381Y-87276191D02*
X96552381Y-87276191D01*
X96695238Y-87371429D01*
X96790476Y-87466667D01*
X96838095Y-87561905D01*
X96552381Y-86657143D02*
X96552381Y-85990476D01*
X97552381Y-86419048D01*
X97457143Y-96942857D02*
X97504762Y-96990476D01*
X97552381Y-97133333D01*
X97552381Y-97228571D01*
X97504762Y-97371429D01*
X97409524Y-97466667D01*
X97314286Y-97514286D01*
X97123810Y-97561905D01*
X96980952Y-97561905D01*
X96790476Y-97514286D01*
X96695238Y-97466667D01*
X96600000Y-97371429D01*
X96552381Y-97228571D01*
X96552381Y-97133333D01*
X96600000Y-96990476D01*
X96647619Y-96942857D01*
X97552381Y-95990476D02*
X97552381Y-96561905D01*
X97552381Y-96276191D02*
X96552381Y-96276191D01*
X96695238Y-96371429D01*
X96790476Y-96466667D01*
X96838095Y-96561905D01*
X96980952Y-95419048D02*
X96933333Y-95514286D01*
X96885714Y-95561905D01*
X96790476Y-95609524D01*
X96742857Y-95609524D01*
X96647619Y-95561905D01*
X96600000Y-95514286D01*
X96552381Y-95419048D01*
X96552381Y-95228571D01*
X96600000Y-95133333D01*
X96647619Y-95085714D01*
X96742857Y-95038095D01*
X96790476Y-95038095D01*
X96885714Y-95085714D01*
X96933333Y-95133333D01*
X96980952Y-95228571D01*
X96980952Y-95419048D01*
X97028571Y-95514286D01*
X97076190Y-95561905D01*
X97171429Y-95609524D01*
X97361905Y-95609524D01*
X97457143Y-95561905D01*
X97504762Y-95514286D01*
X97552381Y-95419048D01*
X97552381Y-95228571D01*
X97504762Y-95133333D01*
X97457143Y-95085714D01*
X97361905Y-95038095D01*
X97171429Y-95038095D01*
X97076190Y-95085714D01*
X97028571Y-95133333D01*
X96980952Y-95228571D01*
X105657143Y-94042857D02*
X105704762Y-94090476D01*
X105752381Y-94233333D01*
X105752381Y-94328571D01*
X105704762Y-94471429D01*
X105609524Y-94566667D01*
X105514286Y-94614286D01*
X105323810Y-94661905D01*
X105180952Y-94661905D01*
X104990476Y-94614286D01*
X104895238Y-94566667D01*
X104800000Y-94471429D01*
X104752381Y-94328571D01*
X104752381Y-94233333D01*
X104800000Y-94090476D01*
X104847619Y-94042857D01*
X105752381Y-93090476D02*
X105752381Y-93661905D01*
X105752381Y-93376191D02*
X104752381Y-93376191D01*
X104895238Y-93471429D01*
X104990476Y-93566667D01*
X105038095Y-93661905D01*
X105752381Y-92614286D02*
X105752381Y-92423810D01*
X105704762Y-92328571D01*
X105657143Y-92280952D01*
X105514286Y-92185714D01*
X105323810Y-92138095D01*
X104942857Y-92138095D01*
X104847619Y-92185714D01*
X104800000Y-92233333D01*
X104752381Y-92328571D01*
X104752381Y-92519048D01*
X104800000Y-92614286D01*
X104847619Y-92661905D01*
X104942857Y-92709524D01*
X105180952Y-92709524D01*
X105276190Y-92661905D01*
X105323810Y-92614286D01*
X105371429Y-92519048D01*
X105371429Y-92328571D01*
X105323810Y-92233333D01*
X105276190Y-92185714D01*
X105180952Y-92138095D01*
X105557143Y-90742857D02*
X105604762Y-90790476D01*
X105652381Y-90933333D01*
X105652381Y-91028571D01*
X105604762Y-91171429D01*
X105509524Y-91266667D01*
X105414286Y-91314286D01*
X105223810Y-91361905D01*
X105080952Y-91361905D01*
X104890476Y-91314286D01*
X104795238Y-91266667D01*
X104700000Y-91171429D01*
X104652381Y-91028571D01*
X104652381Y-90933333D01*
X104700000Y-90790476D01*
X104747619Y-90742857D01*
X104747619Y-90361905D02*
X104700000Y-90314286D01*
X104652381Y-90219048D01*
X104652381Y-89980952D01*
X104700000Y-89885714D01*
X104747619Y-89838095D01*
X104842857Y-89790476D01*
X104938095Y-89790476D01*
X105080952Y-89838095D01*
X105652381Y-90409524D01*
X105652381Y-89790476D01*
X104652381Y-89171429D02*
X104652381Y-89076190D01*
X104700000Y-88980952D01*
X104747619Y-88933333D01*
X104842857Y-88885714D01*
X105033333Y-88838095D01*
X105271429Y-88838095D01*
X105461905Y-88885714D01*
X105557143Y-88933333D01*
X105604762Y-88980952D01*
X105652381Y-89076190D01*
X105652381Y-89171429D01*
X105604762Y-89266667D01*
X105557143Y-89314286D01*
X105461905Y-89361905D01*
X105271429Y-89409524D01*
X105033333Y-89409524D01*
X104842857Y-89361905D01*
X104747619Y-89314286D01*
X104700000Y-89266667D01*
X104652381Y-89171429D01*
X137761905Y-84452381D02*
X137761905Y-83452381D01*
X138000000Y-83452381D01*
X138142858Y-83500000D01*
X138238096Y-83595238D01*
X138285715Y-83690476D01*
X138333334Y-83880952D01*
X138333334Y-84023810D01*
X138285715Y-84214286D01*
X138238096Y-84309524D01*
X138142858Y-84404762D01*
X138000000Y-84452381D01*
X137761905Y-84452381D01*
X139285715Y-84452381D02*
X138714286Y-84452381D01*
X139000000Y-84452381D02*
X139000000Y-83452381D01*
X138904762Y-83595238D01*
X138809524Y-83690476D01*
X138714286Y-83738095D01*
X137661905Y-87952381D02*
X137661905Y-86952381D01*
X137900000Y-86952381D01*
X138042858Y-87000000D01*
X138138096Y-87095238D01*
X138185715Y-87190476D01*
X138233334Y-87380952D01*
X138233334Y-87523810D01*
X138185715Y-87714286D01*
X138138096Y-87809524D01*
X138042858Y-87904762D01*
X137900000Y-87952381D01*
X137661905Y-87952381D01*
X138614286Y-87047619D02*
X138661905Y-87000000D01*
X138757143Y-86952381D01*
X138995239Y-86952381D01*
X139090477Y-87000000D01*
X139138096Y-87047619D01*
X139185715Y-87142857D01*
X139185715Y-87238095D01*
X139138096Y-87380952D01*
X138566667Y-87952381D01*
X139185715Y-87952381D01*
X137661905Y-81052381D02*
X137661905Y-80052381D01*
X137900000Y-80052381D01*
X138042858Y-80100000D01*
X138138096Y-80195238D01*
X138185715Y-80290476D01*
X138233334Y-80480952D01*
X138233334Y-80623810D01*
X138185715Y-80814286D01*
X138138096Y-80909524D01*
X138042858Y-81004762D01*
X137900000Y-81052381D01*
X137661905Y-81052381D01*
X138566667Y-80052381D02*
X139185715Y-80052381D01*
X138852381Y-80433333D01*
X138995239Y-80433333D01*
X139090477Y-80480952D01*
X139138096Y-80528571D01*
X139185715Y-80623810D01*
X139185715Y-80861905D01*
X139138096Y-80957143D01*
X139090477Y-81004762D01*
X138995239Y-81052381D01*
X138709524Y-81052381D01*
X138614286Y-81004762D01*
X138566667Y-80957143D01*
X117852381Y-87038095D02*
X116852381Y-87038095D01*
X116852381Y-86800000D01*
X116900000Y-86657142D01*
X116995238Y-86561904D01*
X117090476Y-86514285D01*
X117280952Y-86466666D01*
X117423810Y-86466666D01*
X117614286Y-86514285D01*
X117709524Y-86561904D01*
X117804762Y-86657142D01*
X117852381Y-86800000D01*
X117852381Y-87038095D01*
X117185714Y-85609523D02*
X117852381Y-85609523D01*
X116804762Y-85847619D02*
X117519048Y-86085714D01*
X117519048Y-85466666D01*
X134833334Y-84852381D02*
X134500000Y-84376190D01*
X134261905Y-84852381D02*
X134261905Y-83852381D01*
X134642858Y-83852381D01*
X134738096Y-83900000D01*
X134785715Y-83947619D01*
X134833334Y-84042857D01*
X134833334Y-84185714D01*
X134785715Y-84280952D01*
X134738096Y-84328571D01*
X134642858Y-84376190D01*
X134261905Y-84376190D01*
X135785715Y-84852381D02*
X135214286Y-84852381D01*
X135500000Y-84852381D02*
X135500000Y-83852381D01*
X135404762Y-83995238D01*
X135309524Y-84090476D01*
X135214286Y-84138095D01*
X97433334Y-114352381D02*
X97100000Y-113876190D01*
X96861905Y-114352381D02*
X96861905Y-113352381D01*
X97242858Y-113352381D01*
X97338096Y-113400000D01*
X97385715Y-113447619D01*
X97433334Y-113542857D01*
X97433334Y-113685714D01*
X97385715Y-113780952D01*
X97338096Y-113828571D01*
X97242858Y-113876190D01*
X96861905Y-113876190D01*
X97814286Y-113447619D02*
X97861905Y-113400000D01*
X97957143Y-113352381D01*
X98195239Y-113352381D01*
X98290477Y-113400000D01*
X98338096Y-113447619D01*
X98385715Y-113542857D01*
X98385715Y-113638095D01*
X98338096Y-113780952D01*
X97766667Y-114352381D01*
X98385715Y-114352381D01*
X98333334Y-119752381D02*
X98000000Y-119276190D01*
X97761905Y-119752381D02*
X97761905Y-118752381D01*
X98142858Y-118752381D01*
X98238096Y-118800000D01*
X98285715Y-118847619D01*
X98333334Y-118942857D01*
X98333334Y-119085714D01*
X98285715Y-119180952D01*
X98238096Y-119228571D01*
X98142858Y-119276190D01*
X97761905Y-119276190D01*
X98666667Y-118752381D02*
X99285715Y-118752381D01*
X98952381Y-119133333D01*
X99095239Y-119133333D01*
X99190477Y-119180952D01*
X99238096Y-119228571D01*
X99285715Y-119323810D01*
X99285715Y-119561905D01*
X99238096Y-119657143D01*
X99190477Y-119704762D01*
X99095239Y-119752381D01*
X98809524Y-119752381D01*
X98714286Y-119704762D01*
X98666667Y-119657143D01*
X99633334Y-97652381D02*
X99300000Y-97176190D01*
X99061905Y-97652381D02*
X99061905Y-96652381D01*
X99442858Y-96652381D01*
X99538096Y-96700000D01*
X99585715Y-96747619D01*
X99633334Y-96842857D01*
X99633334Y-96985714D01*
X99585715Y-97080952D01*
X99538096Y-97128571D01*
X99442858Y-97176190D01*
X99061905Y-97176190D01*
X100490477Y-96985714D02*
X100490477Y-97652381D01*
X100252381Y-96604762D02*
X100014286Y-97319048D01*
X100633334Y-97319048D01*
X100333334Y-86652381D02*
X100000000Y-86176190D01*
X99761905Y-86652381D02*
X99761905Y-85652381D01*
X100142858Y-85652381D01*
X100238096Y-85700000D01*
X100285715Y-85747619D01*
X100333334Y-85842857D01*
X100333334Y-85985714D01*
X100285715Y-86080952D01*
X100238096Y-86128571D01*
X100142858Y-86176190D01*
X99761905Y-86176190D01*
X101238096Y-85652381D02*
X100761905Y-85652381D01*
X100714286Y-86128571D01*
X100761905Y-86080952D01*
X100857143Y-86033333D01*
X101095239Y-86033333D01*
X101190477Y-86080952D01*
X101238096Y-86128571D01*
X101285715Y-86223810D01*
X101285715Y-86461905D01*
X101238096Y-86557143D01*
X101190477Y-86604762D01*
X101095239Y-86652381D01*
X100857143Y-86652381D01*
X100761905Y-86604762D01*
X100714286Y-86557143D01*
X134833334Y-88352381D02*
X134500000Y-87876190D01*
X134261905Y-88352381D02*
X134261905Y-87352381D01*
X134642858Y-87352381D01*
X134738096Y-87400000D01*
X134785715Y-87447619D01*
X134833334Y-87542857D01*
X134833334Y-87685714D01*
X134785715Y-87780952D01*
X134738096Y-87828571D01*
X134642858Y-87876190D01*
X134261905Y-87876190D01*
X135690477Y-87352381D02*
X135500000Y-87352381D01*
X135404762Y-87400000D01*
X135357143Y-87447619D01*
X135261905Y-87590476D01*
X135214286Y-87780952D01*
X135214286Y-88161905D01*
X135261905Y-88257143D01*
X135309524Y-88304762D01*
X135404762Y-88352381D01*
X135595239Y-88352381D01*
X135690477Y-88304762D01*
X135738096Y-88257143D01*
X135785715Y-88161905D01*
X135785715Y-87923810D01*
X135738096Y-87828571D01*
X135690477Y-87780952D01*
X135595239Y-87733333D01*
X135404762Y-87733333D01*
X135309524Y-87780952D01*
X135261905Y-87828571D01*
X135214286Y-87923810D01*
X134833334Y-81352381D02*
X134500000Y-80876190D01*
X134261905Y-81352381D02*
X134261905Y-80352381D01*
X134642858Y-80352381D01*
X134738096Y-80400000D01*
X134785715Y-80447619D01*
X134833334Y-80542857D01*
X134833334Y-80685714D01*
X134785715Y-80780952D01*
X134738096Y-80828571D01*
X134642858Y-80876190D01*
X134261905Y-80876190D01*
X135166667Y-80352381D02*
X135833334Y-80352381D01*
X135404762Y-81352381D01*
X92833334Y-109252381D02*
X92500000Y-108776190D01*
X92261905Y-109252381D02*
X92261905Y-108252381D01*
X92642858Y-108252381D01*
X92738096Y-108300000D01*
X92785715Y-108347619D01*
X92833334Y-108442857D01*
X92833334Y-108585714D01*
X92785715Y-108680952D01*
X92738096Y-108728571D01*
X92642858Y-108776190D01*
X92261905Y-108776190D01*
X93404762Y-108680952D02*
X93309524Y-108633333D01*
X93261905Y-108585714D01*
X93214286Y-108490476D01*
X93214286Y-108442857D01*
X93261905Y-108347619D01*
X93309524Y-108300000D01*
X93404762Y-108252381D01*
X93595239Y-108252381D01*
X93690477Y-108300000D01*
X93738096Y-108347619D01*
X93785715Y-108442857D01*
X93785715Y-108490476D01*
X93738096Y-108585714D01*
X93690477Y-108633333D01*
X93595239Y-108680952D01*
X93404762Y-108680952D01*
X93309524Y-108728571D01*
X93261905Y-108776190D01*
X93214286Y-108871429D01*
X93214286Y-109061905D01*
X93261905Y-109157143D01*
X93309524Y-109204762D01*
X93404762Y-109252381D01*
X93595239Y-109252381D01*
X93690477Y-109204762D01*
X93738096Y-109157143D01*
X93785715Y-109061905D01*
X93785715Y-108871429D01*
X93738096Y-108776190D01*
X93690477Y-108728571D01*
X93595239Y-108680952D01*
X100633334Y-112752381D02*
X100300000Y-112276190D01*
X100061905Y-112752381D02*
X100061905Y-111752381D01*
X100442858Y-111752381D01*
X100538096Y-111800000D01*
X100585715Y-111847619D01*
X100633334Y-111942857D01*
X100633334Y-112085714D01*
X100585715Y-112180952D01*
X100538096Y-112228571D01*
X100442858Y-112276190D01*
X100061905Y-112276190D01*
X101109524Y-112752381D02*
X101300000Y-112752381D01*
X101395239Y-112704762D01*
X101442858Y-112657143D01*
X101538096Y-112514286D01*
X101585715Y-112323810D01*
X101585715Y-111942857D01*
X101538096Y-111847619D01*
X101490477Y-111800000D01*
X101395239Y-111752381D01*
X101204762Y-111752381D01*
X101109524Y-111800000D01*
X101061905Y-111847619D01*
X101014286Y-111942857D01*
X101014286Y-112180952D01*
X101061905Y-112276190D01*
X101109524Y-112323810D01*
X101204762Y-112371429D01*
X101395239Y-112371429D01*
X101490477Y-112323810D01*
X101538096Y-112276190D01*
X101585715Y-112180952D01*
X97457143Y-103152381D02*
X97123809Y-102676190D01*
X96885714Y-103152381D02*
X96885714Y-102152381D01*
X97266667Y-102152381D01*
X97361905Y-102200000D01*
X97409524Y-102247619D01*
X97457143Y-102342857D01*
X97457143Y-102485714D01*
X97409524Y-102580952D01*
X97361905Y-102628571D01*
X97266667Y-102676190D01*
X96885714Y-102676190D01*
X98409524Y-103152381D02*
X97838095Y-103152381D01*
X98123809Y-103152381D02*
X98123809Y-102152381D01*
X98028571Y-102295238D01*
X97933333Y-102390476D01*
X97838095Y-102438095D01*
X99028571Y-102152381D02*
X99123810Y-102152381D01*
X99219048Y-102200000D01*
X99266667Y-102247619D01*
X99314286Y-102342857D01*
X99361905Y-102533333D01*
X99361905Y-102771429D01*
X99314286Y-102961905D01*
X99266667Y-103057143D01*
X99219048Y-103104762D01*
X99123810Y-103152381D01*
X99028571Y-103152381D01*
X98933333Y-103104762D01*
X98885714Y-103057143D01*
X98838095Y-102961905D01*
X98790476Y-102771429D01*
X98790476Y-102533333D01*
X98838095Y-102342857D01*
X98885714Y-102247619D01*
X98933333Y-102200000D01*
X99028571Y-102152381D01*
X100557143Y-107552381D02*
X100223809Y-107076190D01*
X99985714Y-107552381D02*
X99985714Y-106552381D01*
X100366667Y-106552381D01*
X100461905Y-106600000D01*
X100509524Y-106647619D01*
X100557143Y-106742857D01*
X100557143Y-106885714D01*
X100509524Y-106980952D01*
X100461905Y-107028571D01*
X100366667Y-107076190D01*
X99985714Y-107076190D01*
X101509524Y-107552381D02*
X100938095Y-107552381D01*
X101223809Y-107552381D02*
X101223809Y-106552381D01*
X101128571Y-106695238D01*
X101033333Y-106790476D01*
X100938095Y-106838095D01*
X102461905Y-107552381D02*
X101890476Y-107552381D01*
X102176190Y-107552381D02*
X102176190Y-106552381D01*
X102080952Y-106695238D01*
X101985714Y-106790476D01*
X101890476Y-106838095D01*
X112052381Y-86342857D02*
X111576190Y-86676191D01*
X112052381Y-86914286D02*
X111052381Y-86914286D01*
X111052381Y-86533333D01*
X111100000Y-86438095D01*
X111147619Y-86390476D01*
X111242857Y-86342857D01*
X111385714Y-86342857D01*
X111480952Y-86390476D01*
X111528571Y-86438095D01*
X111576190Y-86533333D01*
X111576190Y-86914286D01*
X112052381Y-85390476D02*
X112052381Y-85961905D01*
X112052381Y-85676191D02*
X111052381Y-85676191D01*
X111195238Y-85771429D01*
X111290476Y-85866667D01*
X111338095Y-85961905D01*
X111147619Y-85009524D02*
X111100000Y-84961905D01*
X111052381Y-84866667D01*
X111052381Y-84628571D01*
X111100000Y-84533333D01*
X111147619Y-84485714D01*
X111242857Y-84438095D01*
X111338095Y-84438095D01*
X111480952Y-84485714D01*
X112052381Y-85057143D01*
X112052381Y-84438095D01*
X105052381Y-83142857D02*
X104576190Y-83476191D01*
X105052381Y-83714286D02*
X104052381Y-83714286D01*
X104052381Y-83333333D01*
X104100000Y-83238095D01*
X104147619Y-83190476D01*
X104242857Y-83142857D01*
X104385714Y-83142857D01*
X104480952Y-83190476D01*
X104528571Y-83238095D01*
X104576190Y-83333333D01*
X104576190Y-83714286D01*
X105052381Y-82190476D02*
X105052381Y-82761905D01*
X105052381Y-82476191D02*
X104052381Y-82476191D01*
X104195238Y-82571429D01*
X104290476Y-82666667D01*
X104338095Y-82761905D01*
X104052381Y-81857143D02*
X104052381Y-81238095D01*
X104433333Y-81571429D01*
X104433333Y-81428571D01*
X104480952Y-81333333D01*
X104528571Y-81285714D01*
X104623810Y-81238095D01*
X104861905Y-81238095D01*
X104957143Y-81285714D01*
X105004762Y-81333333D01*
X105052381Y-81428571D01*
X105052381Y-81714286D01*
X105004762Y-81809524D01*
X104957143Y-81857143D01*
X102552381Y-85842857D02*
X102076190Y-86176191D01*
X102552381Y-86414286D02*
X101552381Y-86414286D01*
X101552381Y-86033333D01*
X101600000Y-85938095D01*
X101647619Y-85890476D01*
X101742857Y-85842857D01*
X101885714Y-85842857D01*
X101980952Y-85890476D01*
X102028571Y-85938095D01*
X102076190Y-86033333D01*
X102076190Y-86414286D01*
X102552381Y-84890476D02*
X102552381Y-85461905D01*
X102552381Y-85176191D02*
X101552381Y-85176191D01*
X101695238Y-85271429D01*
X101790476Y-85366667D01*
X101838095Y-85461905D01*
X101885714Y-84033333D02*
X102552381Y-84033333D01*
X101504762Y-84271429D02*
X102219048Y-84509524D01*
X102219048Y-83890476D01*
X101657143Y-120752381D02*
X101323809Y-120276190D01*
X101085714Y-120752381D02*
X101085714Y-119752381D01*
X101466667Y-119752381D01*
X101561905Y-119800000D01*
X101609524Y-119847619D01*
X101657143Y-119942857D01*
X101657143Y-120085714D01*
X101609524Y-120180952D01*
X101561905Y-120228571D01*
X101466667Y-120276190D01*
X101085714Y-120276190D01*
X102609524Y-120752381D02*
X102038095Y-120752381D01*
X102323809Y-120752381D02*
X102323809Y-119752381D01*
X102228571Y-119895238D01*
X102133333Y-119990476D01*
X102038095Y-120038095D01*
X103514286Y-119752381D02*
X103038095Y-119752381D01*
X102990476Y-120228571D01*
X103038095Y-120180952D01*
X103133333Y-120133333D01*
X103371429Y-120133333D01*
X103466667Y-120180952D01*
X103514286Y-120228571D01*
X103561905Y-120323810D01*
X103561905Y-120561905D01*
X103514286Y-120657143D01*
X103466667Y-120704762D01*
X103371429Y-120752381D01*
X103133333Y-120752381D01*
X103038095Y-120704762D01*
X102990476Y-120657143D01*
X93557143Y-97552381D02*
X93223809Y-97076190D01*
X92985714Y-97552381D02*
X92985714Y-96552381D01*
X93366667Y-96552381D01*
X93461905Y-96600000D01*
X93509524Y-96647619D01*
X93557143Y-96742857D01*
X93557143Y-96885714D01*
X93509524Y-96980952D01*
X93461905Y-97028571D01*
X93366667Y-97076190D01*
X92985714Y-97076190D01*
X94509524Y-97552381D02*
X93938095Y-97552381D01*
X94223809Y-97552381D02*
X94223809Y-96552381D01*
X94128571Y-96695238D01*
X94033333Y-96790476D01*
X93938095Y-96838095D01*
X95366667Y-96552381D02*
X95176190Y-96552381D01*
X95080952Y-96600000D01*
X95033333Y-96647619D01*
X94938095Y-96790476D01*
X94890476Y-96980952D01*
X94890476Y-97361905D01*
X94938095Y-97457143D01*
X94985714Y-97504762D01*
X95080952Y-97552381D01*
X95271429Y-97552381D01*
X95366667Y-97504762D01*
X95414286Y-97457143D01*
X95461905Y-97361905D01*
X95461905Y-97123810D01*
X95414286Y-97028571D01*
X95366667Y-96980952D01*
X95271429Y-96933333D01*
X95080952Y-96933333D01*
X94985714Y-96980952D01*
X94938095Y-97028571D01*
X94890476Y-97123810D01*
X100657143Y-115952381D02*
X100323809Y-115476190D01*
X100085714Y-115952381D02*
X100085714Y-114952381D01*
X100466667Y-114952381D01*
X100561905Y-115000000D01*
X100609524Y-115047619D01*
X100657143Y-115142857D01*
X100657143Y-115285714D01*
X100609524Y-115380952D01*
X100561905Y-115428571D01*
X100466667Y-115476190D01*
X100085714Y-115476190D01*
X101609524Y-115952381D02*
X101038095Y-115952381D01*
X101323809Y-115952381D02*
X101323809Y-114952381D01*
X101228571Y-115095238D01*
X101133333Y-115190476D01*
X101038095Y-115238095D01*
X101942857Y-114952381D02*
X102609524Y-114952381D01*
X102180952Y-115952381D01*
X71352381Y-127442857D02*
X70876190Y-127776191D01*
X71352381Y-128014286D02*
X70352381Y-128014286D01*
X70352381Y-127633333D01*
X70400000Y-127538095D01*
X70447619Y-127490476D01*
X70542857Y-127442857D01*
X70685714Y-127442857D01*
X70780952Y-127490476D01*
X70828571Y-127538095D01*
X70876190Y-127633333D01*
X70876190Y-128014286D01*
X71352381Y-126490476D02*
X71352381Y-127061905D01*
X71352381Y-126776191D02*
X70352381Y-126776191D01*
X70495238Y-126871429D01*
X70590476Y-126966667D01*
X70638095Y-127061905D01*
X70780952Y-125919048D02*
X70733333Y-126014286D01*
X70685714Y-126061905D01*
X70590476Y-126109524D01*
X70542857Y-126109524D01*
X70447619Y-126061905D01*
X70400000Y-126014286D01*
X70352381Y-125919048D01*
X70352381Y-125728571D01*
X70400000Y-125633333D01*
X70447619Y-125585714D01*
X70542857Y-125538095D01*
X70590476Y-125538095D01*
X70685714Y-125585714D01*
X70733333Y-125633333D01*
X70780952Y-125728571D01*
X70780952Y-125919048D01*
X70828571Y-126014286D01*
X70876190Y-126061905D01*
X70971429Y-126109524D01*
X71161905Y-126109524D01*
X71257143Y-126061905D01*
X71304762Y-126014286D01*
X71352381Y-125919048D01*
X71352381Y-125728571D01*
X71304762Y-125633333D01*
X71257143Y-125585714D01*
X71161905Y-125538095D01*
X70971429Y-125538095D01*
X70876190Y-125585714D01*
X70828571Y-125633333D01*
X70780952Y-125728571D01*
X106752381Y-96542857D02*
X106276190Y-96876191D01*
X106752381Y-97114286D02*
X105752381Y-97114286D01*
X105752381Y-96733333D01*
X105800000Y-96638095D01*
X105847619Y-96590476D01*
X105942857Y-96542857D01*
X106085714Y-96542857D01*
X106180952Y-96590476D01*
X106228571Y-96638095D01*
X106276190Y-96733333D01*
X106276190Y-97114286D01*
X106752381Y-95590476D02*
X106752381Y-96161905D01*
X106752381Y-95876191D02*
X105752381Y-95876191D01*
X105895238Y-95971429D01*
X105990476Y-96066667D01*
X106038095Y-96161905D01*
X106752381Y-95114286D02*
X106752381Y-94923810D01*
X106704762Y-94828571D01*
X106657143Y-94780952D01*
X106514286Y-94685714D01*
X106323810Y-94638095D01*
X105942857Y-94638095D01*
X105847619Y-94685714D01*
X105800000Y-94733333D01*
X105752381Y-94828571D01*
X105752381Y-95019048D01*
X105800000Y-95114286D01*
X105847619Y-95161905D01*
X105942857Y-95209524D01*
X106180952Y-95209524D01*
X106276190Y-95161905D01*
X106323810Y-95114286D01*
X106371429Y-95019048D01*
X106371429Y-94828571D01*
X106323810Y-94733333D01*
X106276190Y-94685714D01*
X106180952Y-94638095D01*
X97557143Y-101952381D02*
X97223809Y-101476190D01*
X96985714Y-101952381D02*
X96985714Y-100952381D01*
X97366667Y-100952381D01*
X97461905Y-101000000D01*
X97509524Y-101047619D01*
X97557143Y-101142857D01*
X97557143Y-101285714D01*
X97509524Y-101380952D01*
X97461905Y-101428571D01*
X97366667Y-101476190D01*
X96985714Y-101476190D01*
X97938095Y-101047619D02*
X97985714Y-101000000D01*
X98080952Y-100952381D01*
X98319048Y-100952381D01*
X98414286Y-101000000D01*
X98461905Y-101047619D01*
X98509524Y-101142857D01*
X98509524Y-101238095D01*
X98461905Y-101380952D01*
X97890476Y-101952381D01*
X98509524Y-101952381D01*
X99128571Y-100952381D02*
X99223810Y-100952381D01*
X99319048Y-101000000D01*
X99366667Y-101047619D01*
X99414286Y-101142857D01*
X99461905Y-101333333D01*
X99461905Y-101571429D01*
X99414286Y-101761905D01*
X99366667Y-101857143D01*
X99319048Y-101904762D01*
X99223810Y-101952381D01*
X99128571Y-101952381D01*
X99033333Y-101904762D01*
X98985714Y-101857143D01*
X98938095Y-101761905D01*
X98890476Y-101571429D01*
X98890476Y-101333333D01*
X98938095Y-101142857D01*
X98985714Y-101047619D01*
X99033333Y-101000000D01*
X99128571Y-100952381D01*
X117552381Y-93142857D02*
X117076190Y-93476191D01*
X117552381Y-93714286D02*
X116552381Y-93714286D01*
X116552381Y-93333333D01*
X116600000Y-93238095D01*
X116647619Y-93190476D01*
X116742857Y-93142857D01*
X116885714Y-93142857D01*
X116980952Y-93190476D01*
X117028571Y-93238095D01*
X117076190Y-93333333D01*
X117076190Y-93714286D01*
X116647619Y-92761905D02*
X116600000Y-92714286D01*
X116552381Y-92619048D01*
X116552381Y-92380952D01*
X116600000Y-92285714D01*
X116647619Y-92238095D01*
X116742857Y-92190476D01*
X116838095Y-92190476D01*
X116980952Y-92238095D01*
X117552381Y-92809524D01*
X117552381Y-92190476D01*
X117552381Y-91238095D02*
X117552381Y-91809524D01*
X117552381Y-91523810D02*
X116552381Y-91523810D01*
X116695238Y-91619048D01*
X116790476Y-91714286D01*
X116838095Y-91809524D01*
X117652381Y-90342857D02*
X117176190Y-90676191D01*
X117652381Y-90914286D02*
X116652381Y-90914286D01*
X116652381Y-90533333D01*
X116700000Y-90438095D01*
X116747619Y-90390476D01*
X116842857Y-90342857D01*
X116985714Y-90342857D01*
X117080952Y-90390476D01*
X117128571Y-90438095D01*
X117176190Y-90533333D01*
X117176190Y-90914286D01*
X116747619Y-89961905D02*
X116700000Y-89914286D01*
X116652381Y-89819048D01*
X116652381Y-89580952D01*
X116700000Y-89485714D01*
X116747619Y-89438095D01*
X116842857Y-89390476D01*
X116938095Y-89390476D01*
X117080952Y-89438095D01*
X117652381Y-90009524D01*
X117652381Y-89390476D01*
X116747619Y-89009524D02*
X116700000Y-88961905D01*
X116652381Y-88866667D01*
X116652381Y-88628571D01*
X116700000Y-88533333D01*
X116747619Y-88485714D01*
X116842857Y-88438095D01*
X116938095Y-88438095D01*
X117080952Y-88485714D01*
X117652381Y-89057143D01*
X117652381Y-88438095D01*
X123152381Y-100042857D02*
X122676190Y-100376191D01*
X123152381Y-100614286D02*
X122152381Y-100614286D01*
X122152381Y-100233333D01*
X122200000Y-100138095D01*
X122247619Y-100090476D01*
X122342857Y-100042857D01*
X122485714Y-100042857D01*
X122580952Y-100090476D01*
X122628571Y-100138095D01*
X122676190Y-100233333D01*
X122676190Y-100614286D01*
X122247619Y-99661905D02*
X122200000Y-99614286D01*
X122152381Y-99519048D01*
X122152381Y-99280952D01*
X122200000Y-99185714D01*
X122247619Y-99138095D01*
X122342857Y-99090476D01*
X122438095Y-99090476D01*
X122580952Y-99138095D01*
X123152381Y-99709524D01*
X123152381Y-99090476D01*
X122152381Y-98757143D02*
X122152381Y-98138095D01*
X122533333Y-98471429D01*
X122533333Y-98328571D01*
X122580952Y-98233333D01*
X122628571Y-98185714D01*
X122723810Y-98138095D01*
X122961905Y-98138095D01*
X123057143Y-98185714D01*
X123104762Y-98233333D01*
X123152381Y-98328571D01*
X123152381Y-98614286D01*
X123104762Y-98709524D01*
X123057143Y-98757143D01*
X119052381Y-116442857D02*
X118576190Y-116776191D01*
X119052381Y-117014286D02*
X118052381Y-117014286D01*
X118052381Y-116633333D01*
X118100000Y-116538095D01*
X118147619Y-116490476D01*
X118242857Y-116442857D01*
X118385714Y-116442857D01*
X118480952Y-116490476D01*
X118528571Y-116538095D01*
X118576190Y-116633333D01*
X118576190Y-117014286D01*
X118147619Y-116061905D02*
X118100000Y-116014286D01*
X118052381Y-115919048D01*
X118052381Y-115680952D01*
X118100000Y-115585714D01*
X118147619Y-115538095D01*
X118242857Y-115490476D01*
X118338095Y-115490476D01*
X118480952Y-115538095D01*
X119052381Y-116109524D01*
X119052381Y-115490476D01*
X118385714Y-114633333D02*
X119052381Y-114633333D01*
X118004762Y-114871429D02*
X118719048Y-115109524D01*
X118719048Y-114490476D01*
X122352381Y-116342857D02*
X121876190Y-116676191D01*
X122352381Y-116914286D02*
X121352381Y-116914286D01*
X121352381Y-116533333D01*
X121400000Y-116438095D01*
X121447619Y-116390476D01*
X121542857Y-116342857D01*
X121685714Y-116342857D01*
X121780952Y-116390476D01*
X121828571Y-116438095D01*
X121876190Y-116533333D01*
X121876190Y-116914286D01*
X121447619Y-115961905D02*
X121400000Y-115914286D01*
X121352381Y-115819048D01*
X121352381Y-115580952D01*
X121400000Y-115485714D01*
X121447619Y-115438095D01*
X121542857Y-115390476D01*
X121638095Y-115390476D01*
X121780952Y-115438095D01*
X122352381Y-116009524D01*
X122352381Y-115390476D01*
X121352381Y-114485714D02*
X121352381Y-114961905D01*
X121828571Y-115009524D01*
X121780952Y-114961905D01*
X121733333Y-114866667D01*
X121733333Y-114628571D01*
X121780952Y-114533333D01*
X121828571Y-114485714D01*
X121923810Y-114438095D01*
X122161905Y-114438095D01*
X122257143Y-114485714D01*
X122304762Y-114533333D01*
X122352381Y-114628571D01*
X122352381Y-114866667D01*
X122304762Y-114961905D01*
X122257143Y-115009524D01*
X124752381Y-116442857D02*
X124276190Y-116776191D01*
X124752381Y-117014286D02*
X123752381Y-117014286D01*
X123752381Y-116633333D01*
X123800000Y-116538095D01*
X123847619Y-116490476D01*
X123942857Y-116442857D01*
X124085714Y-116442857D01*
X124180952Y-116490476D01*
X124228571Y-116538095D01*
X124276190Y-116633333D01*
X124276190Y-117014286D01*
X123847619Y-116061905D02*
X123800000Y-116014286D01*
X123752381Y-115919048D01*
X123752381Y-115680952D01*
X123800000Y-115585714D01*
X123847619Y-115538095D01*
X123942857Y-115490476D01*
X124038095Y-115490476D01*
X124180952Y-115538095D01*
X124752381Y-116109524D01*
X124752381Y-115490476D01*
X123752381Y-114633333D02*
X123752381Y-114823810D01*
X123800000Y-114919048D01*
X123847619Y-114966667D01*
X123990476Y-115061905D01*
X124180952Y-115109524D01*
X124561905Y-115109524D01*
X124657143Y-115061905D01*
X124704762Y-115014286D01*
X124752381Y-114919048D01*
X124752381Y-114728571D01*
X124704762Y-114633333D01*
X124657143Y-114585714D01*
X124561905Y-114538095D01*
X124323810Y-114538095D01*
X124228571Y-114585714D01*
X124180952Y-114633333D01*
X124133333Y-114728571D01*
X124133333Y-114919048D01*
X124180952Y-115014286D01*
X124228571Y-115061905D01*
X124323810Y-115109524D01*
X124952381Y-97142857D02*
X124476190Y-97476191D01*
X124952381Y-97714286D02*
X123952381Y-97714286D01*
X123952381Y-97333333D01*
X124000000Y-97238095D01*
X124047619Y-97190476D01*
X124142857Y-97142857D01*
X124285714Y-97142857D01*
X124380952Y-97190476D01*
X124428571Y-97238095D01*
X124476190Y-97333333D01*
X124476190Y-97714286D01*
X124047619Y-96761905D02*
X124000000Y-96714286D01*
X123952381Y-96619048D01*
X123952381Y-96380952D01*
X124000000Y-96285714D01*
X124047619Y-96238095D01*
X124142857Y-96190476D01*
X124238095Y-96190476D01*
X124380952Y-96238095D01*
X124952381Y-96809524D01*
X124952381Y-96190476D01*
X123952381Y-95857143D02*
X123952381Y-95190476D01*
X124952381Y-95619048D01*
X67852381Y-92742857D02*
X67376190Y-93076191D01*
X67852381Y-93314286D02*
X66852381Y-93314286D01*
X66852381Y-92933333D01*
X66900000Y-92838095D01*
X66947619Y-92790476D01*
X67042857Y-92742857D01*
X67185714Y-92742857D01*
X67280952Y-92790476D01*
X67328571Y-92838095D01*
X67376190Y-92933333D01*
X67376190Y-93314286D01*
X66947619Y-92361905D02*
X66900000Y-92314286D01*
X66852381Y-92219048D01*
X66852381Y-91980952D01*
X66900000Y-91885714D01*
X66947619Y-91838095D01*
X67042857Y-91790476D01*
X67138095Y-91790476D01*
X67280952Y-91838095D01*
X67852381Y-92409524D01*
X67852381Y-91790476D01*
X67280952Y-91219048D02*
X67233333Y-91314286D01*
X67185714Y-91361905D01*
X67090476Y-91409524D01*
X67042857Y-91409524D01*
X66947619Y-91361905D01*
X66900000Y-91314286D01*
X66852381Y-91219048D01*
X66852381Y-91028571D01*
X66900000Y-90933333D01*
X66947619Y-90885714D01*
X67042857Y-90838095D01*
X67090476Y-90838095D01*
X67185714Y-90885714D01*
X67233333Y-90933333D01*
X67280952Y-91028571D01*
X67280952Y-91219048D01*
X67328571Y-91314286D01*
X67376190Y-91361905D01*
X67471429Y-91409524D01*
X67661905Y-91409524D01*
X67757143Y-91361905D01*
X67804762Y-91314286D01*
X67852381Y-91219048D01*
X67852381Y-91028571D01*
X67804762Y-90933333D01*
X67757143Y-90885714D01*
X67661905Y-90838095D01*
X67471429Y-90838095D01*
X67376190Y-90885714D01*
X67328571Y-90933333D01*
X67280952Y-91028571D01*
X62657143Y-103052381D02*
X62323809Y-102576190D01*
X62085714Y-103052381D02*
X62085714Y-102052381D01*
X62466667Y-102052381D01*
X62561905Y-102100000D01*
X62609524Y-102147619D01*
X62657143Y-102242857D01*
X62657143Y-102385714D01*
X62609524Y-102480952D01*
X62561905Y-102528571D01*
X62466667Y-102576190D01*
X62085714Y-102576190D01*
X63038095Y-102147619D02*
X63085714Y-102100000D01*
X63180952Y-102052381D01*
X63419048Y-102052381D01*
X63514286Y-102100000D01*
X63561905Y-102147619D01*
X63609524Y-102242857D01*
X63609524Y-102338095D01*
X63561905Y-102480952D01*
X62990476Y-103052381D01*
X63609524Y-103052381D01*
X64085714Y-103052381D02*
X64276190Y-103052381D01*
X64371429Y-103004762D01*
X64419048Y-102957143D01*
X64514286Y-102814286D01*
X64561905Y-102623810D01*
X64561905Y-102242857D01*
X64514286Y-102147619D01*
X64466667Y-102100000D01*
X64371429Y-102052381D01*
X64180952Y-102052381D01*
X64085714Y-102100000D01*
X64038095Y-102147619D01*
X63990476Y-102242857D01*
X63990476Y-102480952D01*
X64038095Y-102576190D01*
X64085714Y-102623810D01*
X64180952Y-102671429D01*
X64371429Y-102671429D01*
X64466667Y-102623810D01*
X64514286Y-102576190D01*
X64561905Y-102480952D01*
X67652381Y-107742857D02*
X67176190Y-108076191D01*
X67652381Y-108314286D02*
X66652381Y-108314286D01*
X66652381Y-107933333D01*
X66700000Y-107838095D01*
X66747619Y-107790476D01*
X66842857Y-107742857D01*
X66985714Y-107742857D01*
X67080952Y-107790476D01*
X67128571Y-107838095D01*
X67176190Y-107933333D01*
X67176190Y-108314286D01*
X66652381Y-107409524D02*
X66652381Y-106790476D01*
X67033333Y-107123810D01*
X67033333Y-106980952D01*
X67080952Y-106885714D01*
X67128571Y-106838095D01*
X67223810Y-106790476D01*
X67461905Y-106790476D01*
X67557143Y-106838095D01*
X67604762Y-106885714D01*
X67652381Y-106980952D01*
X67652381Y-107266667D01*
X67604762Y-107361905D01*
X67557143Y-107409524D01*
X66652381Y-106171429D02*
X66652381Y-106076190D01*
X66700000Y-105980952D01*
X66747619Y-105933333D01*
X66842857Y-105885714D01*
X67033333Y-105838095D01*
X67271429Y-105838095D01*
X67461905Y-105885714D01*
X67557143Y-105933333D01*
X67604762Y-105980952D01*
X67652381Y-106076190D01*
X67652381Y-106171429D01*
X67604762Y-106266667D01*
X67557143Y-106314286D01*
X67461905Y-106361905D01*
X67271429Y-106409524D01*
X67033333Y-106409524D01*
X66842857Y-106361905D01*
X66747619Y-106314286D01*
X66700000Y-106266667D01*
X66652381Y-106171429D01*
X100257143Y-99552381D02*
X99923809Y-99076190D01*
X99685714Y-99552381D02*
X99685714Y-98552381D01*
X100066667Y-98552381D01*
X100161905Y-98600000D01*
X100209524Y-98647619D01*
X100257143Y-98742857D01*
X100257143Y-98885714D01*
X100209524Y-98980952D01*
X100161905Y-99028571D01*
X100066667Y-99076190D01*
X99685714Y-99076190D01*
X100590476Y-98552381D02*
X101209524Y-98552381D01*
X100876190Y-98933333D01*
X101019048Y-98933333D01*
X101114286Y-98980952D01*
X101161905Y-99028571D01*
X101209524Y-99123810D01*
X101209524Y-99361905D01*
X101161905Y-99457143D01*
X101114286Y-99504762D01*
X101019048Y-99552381D01*
X100733333Y-99552381D01*
X100638095Y-99504762D01*
X100590476Y-99457143D01*
X102161905Y-99552381D02*
X101590476Y-99552381D01*
X101876190Y-99552381D02*
X101876190Y-98552381D01*
X101780952Y-98695238D01*
X101685714Y-98790476D01*
X101590476Y-98838095D01*
X118152381Y-82142857D02*
X117676190Y-82476191D01*
X118152381Y-82714286D02*
X117152381Y-82714286D01*
X117152381Y-82333333D01*
X117200000Y-82238095D01*
X117247619Y-82190476D01*
X117342857Y-82142857D01*
X117485714Y-82142857D01*
X117580952Y-82190476D01*
X117628571Y-82238095D01*
X117676190Y-82333333D01*
X117676190Y-82714286D01*
X117152381Y-81809524D02*
X117152381Y-81190476D01*
X117533333Y-81523810D01*
X117533333Y-81380952D01*
X117580952Y-81285714D01*
X117628571Y-81238095D01*
X117723810Y-81190476D01*
X117961905Y-81190476D01*
X118057143Y-81238095D01*
X118104762Y-81285714D01*
X118152381Y-81380952D01*
X118152381Y-81666667D01*
X118104762Y-81761905D01*
X118057143Y-81809524D01*
X117247619Y-80809524D02*
X117200000Y-80761905D01*
X117152381Y-80666667D01*
X117152381Y-80428571D01*
X117200000Y-80333333D01*
X117247619Y-80285714D01*
X117342857Y-80238095D01*
X117438095Y-80238095D01*
X117580952Y-80285714D01*
X118152381Y-80857143D01*
X118152381Y-80238095D01*
X120638095Y-89704762D02*
X120780952Y-89752381D01*
X121019048Y-89752381D01*
X121114286Y-89704762D01*
X121161905Y-89657143D01*
X121209524Y-89561905D01*
X121209524Y-89466667D01*
X121161905Y-89371429D01*
X121114286Y-89323810D01*
X121019048Y-89276190D01*
X120828571Y-89228571D01*
X120733333Y-89180952D01*
X120685714Y-89133333D01*
X120638095Y-89038095D01*
X120638095Y-88942857D01*
X120685714Y-88847619D01*
X120733333Y-88800000D01*
X120828571Y-88752381D01*
X121066667Y-88752381D01*
X121209524Y-88800000D01*
X122161905Y-89752381D02*
X121590476Y-89752381D01*
X121876190Y-89752381D02*
X121876190Y-88752381D01*
X121780952Y-88895238D01*
X121685714Y-88990476D01*
X121590476Y-89038095D01*
X101538095Y-87652381D02*
X101538095Y-88461905D01*
X101585714Y-88557143D01*
X101633333Y-88604762D01*
X101728571Y-88652381D01*
X101919048Y-88652381D01*
X102014286Y-88604762D01*
X102061905Y-88557143D01*
X102109524Y-88461905D01*
X102109524Y-87652381D01*
X103014286Y-87985714D02*
X103014286Y-88652381D01*
X102776190Y-87604762D02*
X102538095Y-88319048D01*
X103157143Y-88319048D01*
X101338095Y-95152381D02*
X101338095Y-95961905D01*
X101385714Y-96057143D01*
X101433333Y-96104762D01*
X101528571Y-96152381D01*
X101719048Y-96152381D01*
X101814286Y-96104762D01*
X101861905Y-96057143D01*
X101909524Y-95961905D01*
X101909524Y-95152381D01*
X102861905Y-95152381D02*
X102385714Y-95152381D01*
X102338095Y-95628571D01*
X102385714Y-95580952D01*
X102480952Y-95533333D01*
X102719048Y-95533333D01*
X102814286Y-95580952D01*
X102861905Y-95628571D01*
X102909524Y-95723810D01*
X102909524Y-95961905D01*
X102861905Y-96057143D01*
X102814286Y-96104762D01*
X102719048Y-96152381D01*
X102480952Y-96152381D01*
X102385714Y-96104762D01*
X102338095Y-96057143D01*
M02*
