G04 #@! TF.FileFunction,Copper,L1,Top,Signal*
%FSLAX46Y46*%
G04 Gerber Fmt 4.6, Leading zero omitted, Abs format (unit mm)*
G04 Created by KiCad (PCBNEW 4.0.2+dfsg1-stable) date Fr 20 Jul 2018 15:07:38 CEST*
%MOMM*%
G01*
G04 APERTURE LIST*
%ADD10C,0.100000*%
%ADD11C,0.300000*%
%ADD12C,1.600000*%
%ADD13R,1.650000X5.600000*%
%ADD14R,0.900000X5.600000*%
%ADD15R,5.160000X1.480000*%
%ADD16R,1.480000X5.160000*%
%ADD17R,1.800000X3.600000*%
%ADD18R,3.600000X1.800000*%
%ADD19R,1.390000X4.600000*%
%ADD20R,10.800000X9.400000*%
%ADD21R,0.600000X1.550000*%
%ADD22R,0.800100X0.800100*%
%ADD23C,3.400000*%
%ADD24C,1.524000*%
%ADD25C,1.700000*%
%ADD26C,2.200000*%
%ADD27R,1.727200X2.032000*%
%ADD28O,1.727200X2.032000*%
%ADD29R,2.032000X2.032000*%
%ADD30O,2.032000X2.032000*%
%ADD31R,3.500120X2.400300*%
%ADD32R,0.800000X0.750000*%
%ADD33R,1.250000X1.000000*%
%ADD34R,0.750000X0.800000*%
%ADD35R,0.797560X0.797560*%
%ADD36R,1.220000X0.910000*%
%ADD37R,0.500000X0.900000*%
%ADD38R,0.900000X0.500000*%
%ADD39R,1.498600X2.197100*%
%ADD40O,1.498600X2.197100*%
%ADD41R,1.060000X0.650000*%
%ADD42C,0.800000*%
%ADD43C,1.100000*%
%ADD44C,0.200000*%
%ADD45C,0.400000*%
%ADD46C,1.000000*%
%ADD47C,2.000000*%
%ADD48C,0.254000*%
G04 APERTURE END LIST*
D10*
D11*
X138578571Y-115142857D02*
X138578571Y-114571428D01*
X138078571Y-114928571D02*
X139364286Y-114928571D01*
X139507143Y-114857143D01*
X139578571Y-114714285D01*
X139578571Y-114571428D01*
X139578571Y-113857142D02*
X139507143Y-114000000D01*
X139435714Y-114071428D01*
X139292857Y-114142857D01*
X138864286Y-114142857D01*
X138721429Y-114071428D01*
X138650000Y-114000000D01*
X138578571Y-113857142D01*
X138578571Y-113642857D01*
X138650000Y-113500000D01*
X138721429Y-113428571D01*
X138864286Y-113357142D01*
X139292857Y-113357142D01*
X139435714Y-113428571D01*
X139507143Y-113500000D01*
X139578571Y-113642857D01*
X139578571Y-113857142D01*
X138578571Y-112714285D02*
X140078571Y-112714285D01*
X138650000Y-112714285D02*
X138578571Y-112571428D01*
X138578571Y-112285714D01*
X138650000Y-112142857D01*
X138721429Y-112071428D01*
X138864286Y-111999999D01*
X139292857Y-111999999D01*
X139435714Y-112071428D01*
X139507143Y-112142857D01*
X139578571Y-112285714D01*
X139578571Y-112571428D01*
X139507143Y-112714285D01*
X58121429Y-122478571D02*
X58907143Y-121478571D01*
X58121429Y-121478571D02*
X58907143Y-122478571D01*
X60264286Y-122478571D02*
X59407143Y-122478571D01*
X59835715Y-122478571D02*
X59835715Y-120978571D01*
X59692858Y-121192857D01*
X59550000Y-121335714D01*
X59407143Y-121407143D01*
X60907143Y-122335714D02*
X60978571Y-122407143D01*
X60907143Y-122478571D01*
X60835714Y-122407143D01*
X60907143Y-122335714D01*
X60907143Y-122478571D01*
X61907143Y-120978571D02*
X62050000Y-120978571D01*
X62192857Y-121050000D01*
X62264286Y-121121429D01*
X62335715Y-121264286D01*
X62407143Y-121550000D01*
X62407143Y-121907143D01*
X62335715Y-122192857D01*
X62264286Y-122335714D01*
X62192857Y-122407143D01*
X62050000Y-122478571D01*
X61907143Y-122478571D01*
X61764286Y-122407143D01*
X61692857Y-122335714D01*
X61621429Y-122192857D01*
X61550000Y-121907143D01*
X61550000Y-121550000D01*
X61621429Y-121264286D01*
X61692857Y-121121429D01*
X61764286Y-121050000D01*
X61907143Y-120978571D01*
X58078572Y-118750000D02*
X58792858Y-118750000D01*
X57935715Y-119178571D02*
X58435715Y-117678571D01*
X58935715Y-119178571D01*
X59435715Y-119178571D02*
X59435715Y-118178571D01*
X59435715Y-118464286D02*
X59507143Y-118321429D01*
X59578572Y-118250000D01*
X59721429Y-118178571D01*
X59864286Y-118178571D01*
X61007143Y-119178571D02*
X61007143Y-117678571D01*
X61007143Y-119107143D02*
X60864286Y-119178571D01*
X60578572Y-119178571D01*
X60435714Y-119107143D01*
X60364286Y-119035714D01*
X60292857Y-118892857D01*
X60292857Y-118464286D01*
X60364286Y-118321429D01*
X60435714Y-118250000D01*
X60578572Y-118178571D01*
X60864286Y-118178571D01*
X61007143Y-118250000D01*
X62364286Y-118178571D02*
X62364286Y-119178571D01*
X61721429Y-118178571D02*
X61721429Y-118964286D01*
X61792857Y-119107143D01*
X61935715Y-119178571D01*
X62150000Y-119178571D01*
X62292857Y-119107143D01*
X62364286Y-119035714D01*
X62864286Y-117678571D02*
X63721429Y-117678571D01*
X63292858Y-119178571D02*
X63292858Y-117678571D01*
X64221429Y-119178571D02*
X64221429Y-118178571D01*
X64221429Y-118464286D02*
X64292857Y-118321429D01*
X64364286Y-118250000D01*
X64507143Y-118178571D01*
X64650000Y-118178571D01*
X65007143Y-119178571D02*
X65792857Y-118178571D01*
X65007143Y-118178571D02*
X65792857Y-119178571D01*
D12*
X105500000Y-127460000D03*
X108040000Y-127460000D03*
X110580000Y-127460000D03*
X113120000Y-127460000D03*
X115660000Y-127460000D03*
X118200000Y-127460000D03*
X82640000Y-127460000D03*
X85180000Y-127460000D03*
X87720000Y-127460000D03*
X90260000Y-127460000D03*
X92800000Y-127460000D03*
X95340000Y-127460000D03*
X97880000Y-127460000D03*
X100420000Y-127460000D03*
X100420000Y-79200000D03*
X102960000Y-79200000D03*
X105500000Y-79200000D03*
X108040000Y-79200000D03*
X110580000Y-79200000D03*
X113120000Y-79200000D03*
X115660000Y-79200000D03*
X73496000Y-79200000D03*
X76036000Y-79200000D03*
X78576000Y-79200000D03*
X81116000Y-79200000D03*
X83656000Y-79200000D03*
X86196000Y-79200000D03*
X88736000Y-79200000D03*
X91276000Y-79200000D03*
X93816000Y-79200000D03*
X96356000Y-79200000D03*
X118200000Y-79200000D03*
D13*
X57175000Y-79800000D03*
X65425000Y-79800000D03*
D14*
X61300000Y-79800000D03*
D15*
X65710000Y-93965000D03*
X63090000Y-89635000D03*
D16*
X61335000Y-100910000D03*
X65665000Y-98290000D03*
D15*
X65810000Y-109465000D03*
X63190000Y-105135000D03*
D17*
X87900000Y-118500000D03*
X83300000Y-118500000D03*
X74100000Y-118500000D03*
X78700000Y-118500000D03*
D18*
X90000000Y-87350000D03*
X90000000Y-91800000D03*
X90000000Y-96250000D03*
X90000000Y-100700000D03*
X90000000Y-105150000D03*
X90000000Y-109600000D03*
X72000000Y-87350000D03*
X72000000Y-91800000D03*
X72000000Y-96250000D03*
X72000000Y-100700000D03*
X72000000Y-105150000D03*
X72000000Y-109600000D03*
X72000000Y-114050000D03*
X90000000Y-114050000D03*
D19*
X109900000Y-117600000D03*
D20*
X109900000Y-108450000D03*
D19*
X112440000Y-117600000D03*
X107360000Y-117600000D03*
D21*
X113908500Y-93195500D03*
X112638500Y-93195500D03*
X111368500Y-93195500D03*
X110098500Y-93195500D03*
X110098500Y-98595500D03*
X111368500Y-98595500D03*
X112638500Y-98595500D03*
X113908500Y-98595500D03*
D22*
X96500760Y-117450000D03*
X96500760Y-115550000D03*
X94501780Y-116500000D03*
X96500760Y-112250000D03*
X96500760Y-110350000D03*
X94501780Y-111300000D03*
X96500760Y-107050000D03*
X96500760Y-105150000D03*
X94501780Y-106100000D03*
D23*
X131600000Y-128000000D03*
X131600000Y-115600000D03*
D24*
X138600000Y-119300000D03*
X124100000Y-124300000D03*
X138600000Y-124300000D03*
X124100000Y-121800000D03*
X124100000Y-119300000D03*
D25*
X129500000Y-95000000D03*
X136500000Y-95000000D03*
D26*
X127000000Y-98200000D03*
X127000000Y-91800000D03*
X135000000Y-91800000D03*
X135000000Y-98200000D03*
D25*
X132000000Y-108850000D03*
X136000000Y-105150000D03*
X137300000Y-108850000D03*
D12*
X125500000Y-83100000D03*
X132500000Y-83100000D03*
X131250000Y-80600000D03*
X126750000Y-80600000D03*
D27*
X58200000Y-127300000D03*
D28*
X60740000Y-127300000D03*
X63280000Y-127300000D03*
D29*
X116700000Y-101300000D03*
D30*
X116700000Y-98760000D03*
D31*
X120848800Y-105400000D03*
X127351200Y-105400000D03*
D32*
X58750000Y-89700000D03*
X57250000Y-89700000D03*
X58750000Y-95200000D03*
X57250000Y-95200000D03*
X58750000Y-105000000D03*
X57250000Y-105000000D03*
X58750000Y-109500000D03*
X57250000Y-109500000D03*
X97750000Y-83200000D03*
X96250000Y-83200000D03*
D33*
X113800000Y-121800000D03*
X113800000Y-123800000D03*
D34*
X111900000Y-122450000D03*
X111900000Y-123950000D03*
X90400000Y-121550000D03*
X90400000Y-123050000D03*
D33*
X92400000Y-121300000D03*
X92400000Y-123300000D03*
D32*
X96050000Y-98500000D03*
X94550000Y-98500000D03*
D34*
X115600000Y-94650000D03*
X115600000Y-96150000D03*
X119400000Y-100050000D03*
X119400000Y-98550000D03*
D32*
X112650000Y-91200000D03*
X111150000Y-91200000D03*
X97750000Y-84800000D03*
X96250000Y-84800000D03*
D34*
X99300000Y-83250000D03*
X99300000Y-81750000D03*
X97100000Y-90950000D03*
X97100000Y-89450000D03*
X97100000Y-92650000D03*
X97100000Y-94150000D03*
X102600000Y-92650000D03*
X102600000Y-94150000D03*
X102600000Y-91050000D03*
X102600000Y-89550000D03*
D35*
X139249300Y-82500000D03*
X137750700Y-82500000D03*
X139249300Y-86000000D03*
X137750700Y-86000000D03*
X139249300Y-79000000D03*
X137750700Y-79000000D03*
D36*
X115600000Y-87735000D03*
X115600000Y-84465000D03*
D37*
X135750000Y-82500000D03*
X134250000Y-82500000D03*
X96050000Y-113900000D03*
X94550000Y-113900000D03*
X99250000Y-117400000D03*
X97750000Y-117400000D03*
X100650000Y-95800000D03*
X99150000Y-95800000D03*
X100750000Y-87700000D03*
X99250000Y-87700000D03*
X135750000Y-86000000D03*
X134250000Y-86000000D03*
X135750000Y-79000000D03*
X134250000Y-79000000D03*
X96050000Y-108700000D03*
X94550000Y-108700000D03*
X99250000Y-112200000D03*
X97750000Y-112200000D03*
X96050000Y-103500000D03*
X94550000Y-103500000D03*
X99250000Y-107000000D03*
X97750000Y-107000000D03*
D38*
X113500000Y-86450000D03*
X113500000Y-84950000D03*
X102700000Y-81750000D03*
X102700000Y-83250000D03*
X101000000Y-83250000D03*
X101000000Y-81750000D03*
D37*
X101550000Y-118800000D03*
X103050000Y-118800000D03*
X94550000Y-100100000D03*
X96050000Y-100100000D03*
X103050000Y-117100000D03*
X101550000Y-117100000D03*
D38*
X72800000Y-127550000D03*
X72800000Y-126050000D03*
X108200000Y-96650000D03*
X108200000Y-95150000D03*
D37*
X98950000Y-98500000D03*
X97450000Y-98500000D03*
D38*
X115600000Y-93350000D03*
X115600000Y-91850000D03*
X115600000Y-90650000D03*
X115600000Y-89150000D03*
X121100000Y-100150000D03*
X121100000Y-98650000D03*
X118700000Y-112150000D03*
X118700000Y-113650000D03*
X121900000Y-112150000D03*
X121900000Y-113650000D03*
X124400000Y-112150000D03*
X124400000Y-113650000D03*
X124500000Y-100050000D03*
X124500000Y-98550000D03*
X64400000Y-92550000D03*
X64400000Y-91050000D03*
D37*
X62750000Y-99600000D03*
X64250000Y-99600000D03*
D38*
X64500000Y-108050000D03*
X64500000Y-106550000D03*
D37*
X97450000Y-100100000D03*
X98950000Y-100100000D03*
D38*
X119300000Y-81050000D03*
X119300000Y-82550000D03*
D39*
X122400000Y-86810000D03*
D40*
X122400000Y-79190000D03*
D41*
X98800000Y-92450000D03*
X98800000Y-93400000D03*
X98800000Y-94350000D03*
X101000000Y-94350000D03*
X101000000Y-92450000D03*
X101000000Y-93400000D03*
X101000000Y-91150000D03*
X101000000Y-90200000D03*
X101000000Y-89250000D03*
X98800000Y-89250000D03*
X98800000Y-91150000D03*
X98800000Y-90200000D03*
D42*
X113950000Y-96150000D03*
X121100000Y-97300000D03*
X103900000Y-88900000D03*
X100000000Y-100300000D03*
X112200000Y-125700000D03*
X68600000Y-85700000D03*
X59800000Y-114000000D03*
X78700000Y-115200000D03*
X76000000Y-111100000D03*
X68400000Y-118000000D03*
X63500000Y-113900000D03*
X56500000Y-113900000D03*
X65900000Y-115900000D03*
X71600000Y-117900000D03*
X56500000Y-107300000D03*
X56500000Y-98800000D03*
X56500000Y-92100000D03*
X97800000Y-116000000D03*
X97900000Y-103800000D03*
X97900000Y-108900000D03*
X104200000Y-93100000D03*
X95600000Y-89200000D03*
X83500000Y-122200000D03*
X78700000Y-122000000D03*
X83300000Y-115100000D03*
X90400000Y-124800000D03*
D43*
X57300000Y-85200000D03*
X65500000Y-85100000D03*
D42*
X123500000Y-101500000D03*
X95700000Y-92700000D03*
X95800000Y-102100000D03*
X109900000Y-108450000D03*
X111400000Y-96400000D03*
X80800000Y-128700000D03*
X103100000Y-115000000D03*
X113500000Y-83100000D03*
X99200000Y-115900000D03*
X99200000Y-110800000D03*
X99200000Y-105500000D03*
X134000000Y-84200000D03*
X93600000Y-101900000D03*
X121500000Y-83000000D03*
X117100000Y-83500000D03*
X99200000Y-85500000D03*
X117000000Y-111800000D03*
X113300000Y-87700000D03*
X103800000Y-91100000D03*
D44*
X113950000Y-96150000D02*
X113900000Y-96100000D01*
X115600000Y-96150000D02*
X113950000Y-96150000D01*
X121100000Y-98650000D02*
X121100000Y-97300000D01*
X102600000Y-89550000D02*
X103250000Y-89550000D01*
X103250000Y-89550000D02*
X103900000Y-88900000D01*
X98950000Y-100100000D02*
X99800000Y-100100000D01*
X99800000Y-100100000D02*
X100000000Y-100300000D01*
X113800000Y-123800000D02*
X113800000Y-124100000D01*
X113800000Y-124100000D02*
X112200000Y-125700000D01*
X57250000Y-105000000D02*
X56500000Y-105000000D01*
X56500000Y-105000000D02*
X56600000Y-105100000D01*
X56600000Y-105100000D02*
X56600000Y-105400000D01*
X56600000Y-105400000D02*
X56500000Y-105400000D01*
X57250000Y-109500000D02*
X57100000Y-109500000D01*
X57100000Y-109500000D02*
X56500000Y-110100000D01*
X57250000Y-95200000D02*
X57000000Y-95200000D01*
X57000000Y-95200000D02*
X56500000Y-95700000D01*
X57250000Y-89700000D02*
X56500000Y-89700000D01*
X56500000Y-89700000D02*
X56500000Y-89900000D01*
X65500000Y-85100000D02*
X68000000Y-85100000D01*
X68000000Y-85100000D02*
X68600000Y-85700000D01*
X59800000Y-114000000D02*
X59800000Y-113900000D01*
X59800000Y-113900000D02*
X59800000Y-114000000D01*
X59800000Y-114000000D02*
X59800000Y-113900000D01*
X78700000Y-115200000D02*
X78700000Y-113800000D01*
X78700000Y-118500000D02*
X78700000Y-115200000D01*
X78700000Y-113800000D02*
X76000000Y-111100000D01*
X66300000Y-115900000D02*
X68400000Y-118000000D01*
X56500000Y-113900000D02*
X59800000Y-113900000D01*
X59800000Y-113900000D02*
X63500000Y-113900000D01*
X65900000Y-115900000D02*
X66300000Y-115900000D01*
X96500760Y-115550000D02*
X97350000Y-115550000D01*
X97350000Y-115550000D02*
X97800000Y-116000000D01*
X96500760Y-105150000D02*
X96550000Y-105150000D01*
X96550000Y-105150000D02*
X97900000Y-103800000D01*
X96500760Y-110350000D02*
X96500760Y-110299240D01*
X96500760Y-110299240D02*
X97900000Y-108900000D01*
X102600000Y-94150000D02*
X103150000Y-94150000D01*
X103150000Y-94150000D02*
X104200000Y-93100000D01*
X97100000Y-89450000D02*
X95850000Y-89450000D01*
X95850000Y-89450000D02*
X95600000Y-89200000D01*
X83300000Y-118500000D02*
X83300000Y-122000000D01*
X83300000Y-122000000D02*
X83500000Y-122200000D01*
X78700000Y-118500000D02*
X78700000Y-122000000D01*
X83300000Y-118500000D02*
X83300000Y-115100000D01*
X90400000Y-123050000D02*
X90400000Y-124800000D01*
X134250000Y-86000000D02*
X131550000Y-86000000D01*
D45*
X65425000Y-79800000D02*
X65425000Y-85025000D01*
X57225000Y-85125000D02*
X57175000Y-85125000D01*
X57300000Y-85200000D02*
X57225000Y-85125000D01*
X65425000Y-85025000D02*
X65500000Y-85100000D01*
X57175000Y-85125000D02*
X57175000Y-79800000D01*
X57175000Y-79800000D02*
X57175000Y-85125000D01*
X57175000Y-85125000D02*
X57100000Y-85200000D01*
X129800000Y-83100000D02*
X129800000Y-84250000D01*
X129800000Y-84250000D02*
X131550000Y-86000000D01*
X128550000Y-80600000D02*
X128550000Y-81850000D01*
X128550000Y-81850000D02*
X129800000Y-83100000D01*
X95340000Y-127460000D02*
X95340000Y-124140000D01*
X95340000Y-124140000D02*
X95000000Y-123800000D01*
X97880000Y-127460000D02*
X95340000Y-127460000D01*
X92400000Y-123800000D02*
X89400000Y-123800000D01*
X95000000Y-123800000D02*
X92400000Y-123800000D01*
X97880000Y-127460000D02*
X97880000Y-127980000D01*
X99200000Y-124900000D02*
X96100000Y-124900000D01*
X96100000Y-124900000D02*
X95000000Y-123800000D01*
X101800000Y-122750000D02*
X101650000Y-122750000D01*
X101650000Y-122750000D02*
X99500000Y-124900000D01*
X99500000Y-124900000D02*
X99200000Y-124900000D01*
X104000000Y-122600000D02*
X101950000Y-122600000D01*
X101950000Y-122600000D02*
X101800000Y-122750000D01*
X136000000Y-105150000D02*
X134000000Y-105150000D01*
X133900000Y-105200000D02*
X134000000Y-105200000D01*
X133950000Y-105200000D02*
X133900000Y-105200000D01*
X134000000Y-105150000D02*
X133950000Y-105200000D01*
X137300000Y-108850000D02*
X134650000Y-108850000D01*
X134650000Y-108850000D02*
X134000000Y-109500000D01*
X138600000Y-119300000D02*
X138600000Y-119000000D01*
X138600000Y-119000000D02*
X132550000Y-112950000D01*
X134000000Y-105200000D02*
X134000000Y-109500000D01*
X134000000Y-111500000D02*
X132550000Y-112950000D01*
X134000000Y-109500000D02*
X134000000Y-111500000D01*
X78700000Y-118500000D02*
X78700000Y-114400000D01*
X79100000Y-114100000D02*
X79100000Y-114000000D01*
X79000000Y-114100000D02*
X79100000Y-114100000D01*
X78700000Y-114400000D02*
X79000000Y-114100000D01*
X83300000Y-118500000D02*
X83300000Y-112500000D01*
X83300000Y-112500000D02*
X83500000Y-112300000D01*
X83300000Y-118500000D02*
X83300000Y-123100000D01*
X83300000Y-123100000D02*
X84000000Y-123800000D01*
X89400000Y-123800000D02*
X84000000Y-123800000D01*
X84000000Y-123800000D02*
X78700000Y-118500000D01*
X83500000Y-112300000D02*
X80800000Y-112300000D01*
X80800000Y-112300000D02*
X79100000Y-114000000D01*
X56500000Y-105000000D02*
X56500000Y-98800000D01*
X56500000Y-98800000D02*
X56500000Y-95700000D01*
X56500000Y-95700000D02*
X56500000Y-95200000D01*
X56500000Y-109500000D02*
X56500000Y-110100000D01*
X56500000Y-110100000D02*
X56500000Y-111500000D01*
X56500000Y-111500000D02*
X56500000Y-113400000D01*
X56500000Y-105000000D02*
X56500000Y-105400000D01*
X56500000Y-105400000D02*
X56500000Y-107300000D01*
X56500000Y-107300000D02*
X56500000Y-109500000D01*
X56500000Y-89700000D02*
X56500000Y-80475000D01*
X56500000Y-80475000D02*
X57175000Y-79800000D01*
X56500000Y-89700000D02*
X56500000Y-89900000D01*
X56500000Y-89900000D02*
X56500000Y-92100000D01*
X56500000Y-92100000D02*
X56500000Y-113400000D01*
X56500000Y-113400000D02*
X56500000Y-113900000D01*
X56500000Y-113900000D02*
X56500000Y-125600000D01*
X56500000Y-125600000D02*
X58200000Y-127300000D01*
D44*
X96250000Y-84800000D02*
X96250000Y-83200000D01*
X96250000Y-83200000D02*
X95050000Y-82000000D01*
X95050000Y-82000000D02*
X77350000Y-82000000D01*
X77350000Y-82000000D02*
X72000000Y-87350000D01*
D45*
X111368500Y-98595500D02*
X111368500Y-96431500D01*
X111368500Y-96431500D02*
X111400000Y-96400000D01*
X115600000Y-94650000D02*
X113150000Y-94650000D01*
X113150000Y-94650000D02*
X111400000Y-96400000D01*
D44*
X124500000Y-100050000D02*
X124500000Y-100800000D01*
X124500000Y-100800000D02*
X125200000Y-101500000D01*
D46*
X123500000Y-101500000D02*
X125200000Y-101500000D01*
X125200000Y-101500000D02*
X131800000Y-101500000D01*
X131800000Y-101500000D02*
X136600000Y-101500000D01*
X139419860Y-98680140D02*
X139419860Y-89000000D01*
X136600000Y-101500000D02*
X139419860Y-98680140D01*
D44*
X96050000Y-103500000D02*
X96050000Y-102350000D01*
X95750000Y-92650000D02*
X97100000Y-92650000D01*
X95700000Y-92700000D02*
X95750000Y-92650000D01*
X96050000Y-102350000D02*
X95800000Y-102100000D01*
X92400000Y-121300000D02*
X93900000Y-121300000D01*
X90900000Y-121300000D02*
X92400000Y-121300000D01*
X90400000Y-121550000D02*
X90450000Y-121550000D01*
X90450000Y-121550000D02*
X90700000Y-121300000D01*
X90700000Y-121300000D02*
X90400000Y-121550000D01*
X101550000Y-118800000D02*
X101550000Y-120200000D01*
X101550000Y-120200000D02*
X102650000Y-121300000D01*
X95400000Y-112300000D02*
X95400000Y-120100000D01*
X95400000Y-120100000D02*
X96600000Y-121300000D01*
X95500000Y-108700000D02*
X95500000Y-108900000D01*
X95500000Y-108900000D02*
X95400000Y-109000000D01*
X96050000Y-108700000D02*
X95400000Y-108700000D01*
X95400000Y-108700000D02*
X95500000Y-108700000D01*
X95500000Y-108700000D02*
X95400000Y-108700000D01*
X96050000Y-103500000D02*
X96050000Y-104350000D01*
X95400000Y-113250000D02*
X96050000Y-113900000D01*
X95400000Y-109000000D02*
X95400000Y-112300000D01*
X95400000Y-112300000D02*
X95400000Y-113250000D01*
X95400000Y-105000000D02*
X95400000Y-108700000D01*
X95400000Y-108700000D02*
X95400000Y-109000000D01*
X96050000Y-104350000D02*
X95400000Y-105000000D01*
X98800000Y-92450000D02*
X97300000Y-92450000D01*
X97300000Y-92450000D02*
X97100000Y-92650000D01*
X98800000Y-91150000D02*
X97300000Y-91150000D01*
X97300000Y-91150000D02*
X97100000Y-90950000D01*
X98800000Y-91150000D02*
X98800000Y-92450000D01*
X113150000Y-94650000D02*
X111400000Y-96400000D01*
X115600000Y-93350000D02*
X115600000Y-94650000D01*
X111368500Y-96431500D02*
X111400000Y-96400000D01*
D46*
X139419860Y-89000000D02*
X139419860Y-79000000D01*
X112900000Y-111450000D02*
X109900000Y-108450000D01*
X101500000Y-121300000D02*
X102650000Y-121300000D01*
X102650000Y-121300000D02*
X103112500Y-120837500D01*
X104600000Y-120837500D02*
X103112500Y-120837500D01*
X106700000Y-120837500D02*
X104600000Y-120837500D01*
D45*
X103112500Y-120837500D02*
X102900000Y-121050000D01*
X102900000Y-121050000D02*
X102900000Y-121100000D01*
X102900000Y-121100000D02*
X102900000Y-121050000D01*
D46*
X101800000Y-121300000D02*
X101500000Y-121300000D01*
X101500000Y-121300000D02*
X99300000Y-121300000D01*
X99300000Y-121300000D02*
X96600000Y-121300000D01*
X96600000Y-121300000D02*
X93900000Y-121300000D01*
X93900000Y-121300000D02*
X90900000Y-121300000D01*
X90900000Y-121300000D02*
X90700000Y-121300000D01*
X90700000Y-121300000D02*
X87900000Y-118500000D01*
X108100000Y-120837500D02*
X109337500Y-120837500D01*
X109337500Y-120837500D02*
X109900000Y-120275000D01*
X108100000Y-120837500D02*
X106700000Y-120837500D01*
X109900000Y-117600000D02*
X109900000Y-120275000D01*
X109900000Y-120275000D02*
X109337500Y-120837500D01*
X109900000Y-117600000D02*
X109900000Y-108450000D01*
D45*
X97700000Y-121300000D02*
X101800000Y-121300000D01*
X101800000Y-121300000D02*
X102650000Y-121300000D01*
X102650000Y-121300000D02*
X102900000Y-121050000D01*
X112900000Y-111450000D02*
X109900000Y-108450000D01*
X112900000Y-111450000D02*
X109900000Y-108450000D01*
X91600000Y-121300000D02*
X93725000Y-121300000D01*
X93725000Y-121300000D02*
X97100000Y-121300000D01*
X97100000Y-121300000D02*
X97700000Y-121300000D01*
X112900000Y-111450000D02*
X109900000Y-108450000D01*
X139419860Y-82500000D02*
X139419860Y-86000000D01*
X139419860Y-82500000D02*
X139419860Y-79000000D01*
X139550000Y-89100000D02*
X139550000Y-86330140D01*
X139550000Y-86330140D02*
X139419860Y-86200000D01*
X139419860Y-86200000D02*
X139419860Y-78700000D01*
X93100000Y-121300000D02*
X91600000Y-121300000D01*
X91600000Y-121300000D02*
X90700000Y-121300000D01*
X90700000Y-121300000D02*
X87900000Y-118500000D01*
D44*
X96050000Y-98500000D02*
X97450000Y-98500000D01*
X94550000Y-100100000D02*
X94550000Y-98500000D01*
X94550000Y-98500000D02*
X94550000Y-98150000D01*
X94550000Y-98150000D02*
X92650000Y-96250000D01*
X92650000Y-96250000D02*
X90000000Y-96250000D01*
X119400000Y-100050000D02*
X117990000Y-100050000D01*
X117990000Y-100050000D02*
X116700000Y-98760000D01*
D45*
X117040000Y-99100000D02*
X116700000Y-98760000D01*
X116940000Y-99000000D02*
X116700000Y-98760000D01*
X113908500Y-98595500D02*
X113908500Y-97991500D01*
X113908500Y-97991500D02*
X114200000Y-97700000D01*
X114200000Y-97700000D02*
X115640000Y-97700000D01*
X115640000Y-97700000D02*
X116700000Y-98760000D01*
D44*
X121100000Y-100150000D02*
X121000000Y-100150000D01*
X121000000Y-100150000D02*
X119400000Y-98550000D01*
X111368500Y-93195500D02*
X111368500Y-92481500D01*
X111368500Y-92481500D02*
X112650000Y-91200000D01*
X112638500Y-93195500D02*
X112638500Y-91211500D01*
X112638500Y-91211500D02*
X112650000Y-91200000D01*
X78600000Y-129100000D02*
X80400000Y-129100000D01*
X77100000Y-129100000D02*
X78600000Y-129100000D01*
X74350000Y-129100000D02*
X72800000Y-127550000D01*
X77100000Y-129100000D02*
X74350000Y-129100000D01*
X80400000Y-129100000D02*
X80800000Y-128700000D01*
X97450000Y-100600000D02*
X97450000Y-100950000D01*
X103700000Y-114400000D02*
X103100000Y-115000000D01*
X103700000Y-107200000D02*
X103700000Y-114400000D01*
X97450000Y-100950000D02*
X103700000Y-107200000D01*
X110580000Y-127460000D02*
X110580000Y-126780000D01*
X97450000Y-100600000D02*
X97450000Y-100100000D01*
X110580000Y-127460000D02*
X110580000Y-127120000D01*
X96050000Y-100100000D02*
X97450000Y-100100000D01*
X118700000Y-114400000D02*
X118700000Y-113650000D01*
D45*
X114175000Y-126025000D02*
X115925000Y-126025000D01*
X118300000Y-123650000D02*
X118300000Y-121900000D01*
X115925000Y-126025000D02*
X118300000Y-123650000D01*
X118700000Y-118500000D02*
X118700000Y-121500000D01*
X118700000Y-121500000D02*
X118300000Y-121900000D01*
X114175000Y-126025000D02*
X113120000Y-127080000D01*
X113120000Y-127080000D02*
X113120000Y-127460000D01*
X118700000Y-114350000D02*
X118700000Y-114400000D01*
X118700000Y-114400000D02*
X118700000Y-118500000D01*
X118700000Y-118500000D02*
X118700000Y-119100000D01*
X118700000Y-119100000D02*
X118900000Y-119300000D01*
X124100000Y-119300000D02*
X118900000Y-119300000D01*
D44*
X121925000Y-114375000D02*
X121925000Y-113525002D01*
X121925000Y-113525002D02*
X121900000Y-113500002D01*
X121900000Y-113500002D02*
X121900000Y-113650000D01*
D45*
X121475000Y-124700000D02*
X118420000Y-124700000D01*
X118420000Y-124700000D02*
X115660000Y-127460000D01*
X124100000Y-124300000D02*
X126500000Y-124300000D01*
X123150000Y-115600000D02*
X121925000Y-114375000D01*
X121925000Y-114375000D02*
X121900000Y-114350000D01*
X124300000Y-115600000D02*
X123150000Y-115600000D01*
X127500000Y-118800000D02*
X124300000Y-115600000D01*
X127500000Y-123300000D02*
X127500000Y-118800000D01*
X126500000Y-124300000D02*
X127500000Y-123300000D01*
X121475000Y-124700000D02*
X123700000Y-124700000D01*
X123700000Y-124700000D02*
X124100000Y-124300000D01*
D44*
X124400000Y-113650000D02*
X124400000Y-114350000D01*
D45*
X128550000Y-118500000D02*
X124400000Y-114350000D01*
X128550000Y-118500000D02*
X128550000Y-124350000D01*
X125200000Y-125900000D02*
X126150000Y-125900000D01*
X127700000Y-124350000D02*
X128550000Y-124350000D01*
X126150000Y-125900000D02*
X127700000Y-124350000D01*
X120975000Y-125900000D02*
X118700000Y-125900000D01*
X118700000Y-125900000D02*
X118200000Y-126400000D01*
X118200000Y-126400000D02*
X118200000Y-127460000D01*
X128550000Y-124350000D02*
X138550000Y-124350000D01*
X138550000Y-124350000D02*
X138600000Y-124300000D01*
X118200000Y-127460000D02*
X118240000Y-127460000D01*
X120975000Y-125900000D02*
X125200000Y-125900000D01*
X92800000Y-127460000D02*
X92800000Y-127100000D01*
X92800000Y-127100000D02*
X91600000Y-125900000D01*
X64940000Y-123100000D02*
X60740000Y-127300000D01*
X74300000Y-123100000D02*
X64940000Y-123100000D01*
X77100000Y-125900000D02*
X74300000Y-123100000D01*
X91600000Y-125900000D02*
X77100000Y-125900000D01*
D44*
X110580000Y-79200000D02*
X110400000Y-79200000D01*
X110400000Y-79200000D02*
X109000000Y-80600000D01*
X109000000Y-80600000D02*
X103850000Y-80600000D01*
X103850000Y-80600000D02*
X102700000Y-81750000D01*
X113500000Y-84950000D02*
X113500000Y-83100000D01*
X114865000Y-84465000D02*
X115600000Y-84465000D01*
X113500000Y-83100000D02*
X114865000Y-84465000D01*
D45*
X113120000Y-79200000D02*
X113120000Y-78880000D01*
D44*
X115660000Y-79200000D02*
X115660000Y-79940000D01*
X115660000Y-79940000D02*
X111900000Y-83700000D01*
X111900000Y-87100000D02*
X104800000Y-94200000D01*
X111900000Y-83700000D02*
X111900000Y-87100000D01*
X101000000Y-94350000D02*
X101000000Y-95450000D01*
X101000000Y-95450000D02*
X100650000Y-95800000D01*
X103200000Y-95800000D02*
X100650000Y-95800000D01*
X104800000Y-94200000D02*
X103200000Y-95800000D01*
X115660000Y-79200000D02*
X114900000Y-79200000D01*
D45*
X115200000Y-79200000D02*
X115660000Y-79200000D01*
D44*
X99250000Y-117400000D02*
X99250000Y-115950000D01*
X99250000Y-115950000D02*
X99200000Y-115900000D01*
D45*
X83656000Y-79200000D02*
X83656000Y-79255992D01*
D44*
X99250000Y-112200000D02*
X99250000Y-110850000D01*
X99250000Y-110850000D02*
X99200000Y-110800000D01*
D45*
X85496000Y-79200000D02*
X85496000Y-79396000D01*
X86196000Y-79200000D02*
X86196000Y-79295990D01*
D44*
X99250000Y-107000000D02*
X99250000Y-105550000D01*
X99250000Y-105550000D02*
X99200000Y-105500000D01*
D45*
X88036000Y-79200000D02*
X88125000Y-79200000D01*
D44*
X118200000Y-79200000D02*
X118200000Y-79950000D01*
X118200000Y-79950000D02*
X119300000Y-81050000D01*
X118200000Y-79200000D02*
X122390000Y-79200000D01*
X122390000Y-79200000D02*
X122400000Y-79190000D01*
X118200000Y-79200000D02*
X118200000Y-79300000D01*
X94550000Y-113900000D02*
X94550000Y-116451780D01*
X94550000Y-116451780D02*
X94501780Y-116500000D01*
X90000000Y-114050000D02*
X94400000Y-114050000D01*
X94400000Y-114050000D02*
X94550000Y-113900000D01*
X96500760Y-117450000D02*
X97700000Y-117450000D01*
X97700000Y-117450000D02*
X97750000Y-117400000D01*
D45*
X96500760Y-117450000D02*
X96700000Y-117450000D01*
X96500760Y-117450000D02*
X96750000Y-117450000D01*
D44*
X93300000Y-92300000D02*
X93300000Y-93900000D01*
X93300000Y-93900000D02*
X95200000Y-95800000D01*
X98800000Y-94350000D02*
X98800000Y-95450000D01*
X98800000Y-95450000D02*
X99150000Y-95800000D01*
X99150000Y-95800000D02*
X95200000Y-95800000D01*
X75400000Y-92850000D02*
X72000000Y-96250000D01*
X75400000Y-87800000D02*
X75400000Y-92850000D01*
X77500000Y-85700000D02*
X75400000Y-87800000D01*
X92100000Y-85700000D02*
X77500000Y-85700000D01*
X93300000Y-86900000D02*
X92100000Y-85700000D01*
X93300000Y-92300000D02*
X93300000Y-86900000D01*
X72000000Y-91800000D02*
X72900000Y-91800000D01*
X72900000Y-91800000D02*
X74900000Y-89800000D01*
X94700000Y-87700000D02*
X95400000Y-87700000D01*
X92200000Y-85200000D02*
X94700000Y-87700000D01*
X77300000Y-85200000D02*
X92200000Y-85200000D01*
X74900000Y-87600000D02*
X77300000Y-85200000D01*
X74900000Y-89800000D02*
X74900000Y-87600000D01*
X98800000Y-89250000D02*
X98800000Y-88150000D01*
X98800000Y-88150000D02*
X99250000Y-87700000D01*
X99250000Y-87700000D02*
X95400000Y-87700000D01*
D45*
X72000000Y-91800000D02*
X73000000Y-91800000D01*
D44*
X90000000Y-109600000D02*
X92801780Y-109600000D01*
X92801780Y-109600000D02*
X94501780Y-111300000D01*
X90000000Y-109600000D02*
X93650000Y-109600000D01*
X93650000Y-109600000D02*
X94550000Y-108700000D01*
X96500760Y-112250000D02*
X97700000Y-112250000D01*
X97700000Y-112250000D02*
X97750000Y-112200000D01*
X134250000Y-83950000D02*
X134000000Y-84200000D01*
X134250000Y-82500000D02*
X134250000Y-83950000D01*
X93600000Y-101900000D02*
X94550000Y-102850000D01*
X94550000Y-102850000D02*
X94550000Y-103500000D01*
X90000000Y-105150000D02*
X92900000Y-105150000D01*
X92900000Y-105150000D02*
X94550000Y-103500000D01*
X90000000Y-105150000D02*
X93551780Y-105150000D01*
X93551780Y-105150000D02*
X94501780Y-106100000D01*
D45*
X135000000Y-91800000D02*
X135000000Y-98200000D01*
X135000000Y-91800000D02*
X135000000Y-91600000D01*
D44*
X96500760Y-107050000D02*
X97700000Y-107050000D01*
X97700000Y-107050000D02*
X97750000Y-107000000D01*
X115600000Y-89150000D02*
X116550000Y-89150000D01*
X124500000Y-77800000D02*
X126300000Y-77800000D01*
X123700000Y-78600000D02*
X124500000Y-77800000D01*
X123700000Y-80800000D02*
X123700000Y-78600000D01*
X121500000Y-83000000D02*
X123700000Y-80800000D01*
X117100000Y-88600000D02*
X117100000Y-83500000D01*
X116550000Y-89150000D02*
X117100000Y-88600000D01*
X92600000Y-89400000D02*
X92600000Y-93900000D01*
X95700000Y-97000000D02*
X96800000Y-97000000D01*
X92600000Y-93900000D02*
X95700000Y-97000000D01*
X115600000Y-89150000D02*
X110750000Y-89150000D01*
X110750000Y-89150000D02*
X109700000Y-90200000D01*
X134250000Y-79000000D02*
X133800000Y-79000000D01*
X133800000Y-79000000D02*
X132600000Y-77800000D01*
X132600000Y-77800000D02*
X126300000Y-77800000D01*
X115600000Y-87735000D02*
X115600000Y-89150000D01*
X90000000Y-87350000D02*
X91050000Y-87350000D01*
X91050000Y-87350000D02*
X92600000Y-88900000D01*
X92600000Y-88900000D02*
X92600000Y-89400000D01*
X96800000Y-97000000D02*
X102900000Y-97000000D01*
X102900000Y-97000000D02*
X109700000Y-90200000D01*
D45*
X91450000Y-87350000D02*
X90000000Y-87350000D01*
D44*
X103050000Y-117100000D02*
X103050000Y-116350000D01*
X106400000Y-115100000D02*
X107360000Y-116060000D01*
X104300000Y-115100000D02*
X106400000Y-115100000D01*
X103050000Y-116350000D02*
X104300000Y-115100000D01*
X107360000Y-116060000D02*
X107360000Y-117600000D01*
X103050000Y-117100000D02*
X103050000Y-118800000D01*
D45*
X107360000Y-117600000D02*
X107360000Y-119540000D01*
D44*
X98950000Y-98500000D02*
X103900000Y-98500000D01*
X107250000Y-95150000D02*
X108200000Y-95150000D01*
X103900000Y-98500000D02*
X107250000Y-95150000D01*
X110098500Y-93195500D02*
X110098500Y-94501500D01*
X109450000Y-95150000D02*
X108200000Y-95150000D01*
X110098500Y-94501500D02*
X109450000Y-95150000D01*
X115600000Y-91850000D02*
X115600000Y-90650000D01*
X113908500Y-93195500D02*
X113908500Y-92391500D01*
X114450000Y-91850000D02*
X115600000Y-91850000D01*
X113908500Y-92391500D02*
X114450000Y-91850000D01*
X98500000Y-84800000D02*
X97750000Y-84800000D01*
X99200000Y-85500000D02*
X98500000Y-84800000D01*
X124500000Y-98550000D02*
X126650000Y-98550000D01*
X126650000Y-98550000D02*
X127000000Y-98200000D01*
D45*
X132000000Y-108850000D02*
X131850000Y-108850000D01*
X131850000Y-108850000D02*
X128200000Y-105200000D01*
D44*
X137750700Y-82500000D02*
X135750000Y-82500000D01*
X137750700Y-86000000D02*
X135750000Y-86000000D01*
X137750700Y-79000000D02*
X135750000Y-79000000D01*
X58750000Y-89700000D02*
X63025000Y-89700000D01*
X63025000Y-89700000D02*
X63090000Y-89635000D01*
X64400000Y-91050000D02*
X64400000Y-90945000D01*
X64400000Y-90945000D02*
X63090000Y-89635000D01*
D47*
X61300000Y-79800000D02*
X61300000Y-87845000D01*
X61300000Y-87845000D02*
X63090000Y-89635000D01*
X59500000Y-89700000D02*
X63025000Y-89700000D01*
X63025000Y-89700000D02*
X63090000Y-89635000D01*
D45*
X63025000Y-89700000D02*
X63090000Y-89635000D01*
X61300000Y-87845000D02*
X63090000Y-89635000D01*
X63025000Y-89700000D02*
X63090000Y-89635000D01*
D44*
X58750000Y-95200000D02*
X59500000Y-95200000D01*
X59500000Y-95200000D02*
X60735000Y-93965000D01*
X64400000Y-92550000D02*
X64400000Y-92655000D01*
X64400000Y-92655000D02*
X65710000Y-93965000D01*
X64250000Y-99600000D02*
X64355000Y-99600000D01*
X64355000Y-99600000D02*
X65665000Y-98290000D01*
D47*
X65665000Y-98290000D02*
X65665000Y-94010000D01*
X65665000Y-94010000D02*
X65710000Y-93965000D01*
X65710000Y-93965000D02*
X60735000Y-93965000D01*
X60735000Y-93965000D02*
X59500000Y-95200000D01*
D45*
X65665000Y-98290000D02*
X65665000Y-98885000D01*
X65665000Y-98885000D02*
X64950000Y-99600000D01*
X64950000Y-99600000D02*
X65665000Y-98290000D01*
X65710000Y-93965000D02*
X65710000Y-98245000D01*
X65710000Y-98245000D02*
X65665000Y-98290000D01*
X60735000Y-93965000D02*
X59500000Y-95200000D01*
D44*
X58750000Y-105000000D02*
X63055000Y-105000000D01*
X63055000Y-105000000D02*
X63190000Y-105135000D01*
X62750000Y-99600000D02*
X62645000Y-99600000D01*
X62645000Y-99600000D02*
X61335000Y-100910000D01*
X64500000Y-106550000D02*
X64500000Y-106445000D01*
X64500000Y-106445000D02*
X63190000Y-105135000D01*
D47*
X61335000Y-100910000D02*
X61335000Y-103280000D01*
X61335000Y-103280000D02*
X63190000Y-105135000D01*
X59500000Y-105000000D02*
X63055000Y-105000000D01*
X63055000Y-105000000D02*
X63190000Y-105135000D01*
D45*
X63190000Y-105135000D02*
X63785000Y-105135000D01*
X63785000Y-105135000D02*
X64500000Y-105850000D01*
X64500000Y-105850000D02*
X63190000Y-105135000D01*
X61335000Y-103280000D02*
X63190000Y-105135000D01*
X63190000Y-105135000D02*
X59635000Y-105135000D01*
X59635000Y-105135000D02*
X59500000Y-105000000D01*
X61335000Y-103280000D02*
X63190000Y-105135000D01*
D44*
X58750000Y-109500000D02*
X65775000Y-109500000D01*
X65775000Y-109500000D02*
X65810000Y-109465000D01*
X64500000Y-108050000D02*
X64500000Y-108155000D01*
X64500000Y-108155000D02*
X65810000Y-109465000D01*
D47*
X59500000Y-109500000D02*
X65775000Y-109500000D01*
X65775000Y-109500000D02*
X65810000Y-109465000D01*
D45*
X65775000Y-109500000D02*
X65810000Y-109465000D01*
D47*
X72000000Y-114050000D02*
X68550000Y-114050000D01*
X68550000Y-114050000D02*
X65810000Y-111310000D01*
X65810000Y-111310000D02*
X65810000Y-109465000D01*
D44*
X72800000Y-126050000D02*
X72800000Y-125600000D01*
X65480000Y-125100000D02*
X63280000Y-127300000D01*
X72300000Y-125100000D02*
X65480000Y-125100000D01*
X72800000Y-125600000D02*
X72300000Y-125100000D01*
X110098500Y-98595500D02*
X110098500Y-97298500D01*
X109450000Y-96650000D02*
X108200000Y-96650000D01*
X110098500Y-97298500D02*
X109450000Y-96650000D01*
D45*
X116700000Y-101300000D02*
X116700000Y-102600000D01*
X116700000Y-102600000D02*
X119300000Y-105200000D01*
X110098500Y-98595500D02*
X110098500Y-100098500D01*
X111300000Y-101300000D02*
X116700000Y-101300000D01*
X110098500Y-100098500D02*
X111300000Y-101300000D01*
D44*
X99300000Y-83250000D02*
X101000000Y-83250000D01*
X102700000Y-83250000D02*
X101000000Y-83250000D01*
X102700000Y-83250000D02*
X97800000Y-83250000D01*
X97800000Y-83250000D02*
X97750000Y-83200000D01*
X117000000Y-111800000D02*
X117350000Y-112150000D01*
X117350000Y-112150000D02*
X118700000Y-112150000D01*
X113500000Y-86450000D02*
X113500000Y-87500000D01*
X113500000Y-87500000D02*
X113300000Y-87700000D01*
X103750000Y-91050000D02*
X103800000Y-91100000D01*
X103750000Y-91050000D02*
X102600000Y-91050000D01*
X101000000Y-92450000D02*
X102400000Y-92450000D01*
X102400000Y-92450000D02*
X102600000Y-92650000D01*
X101000000Y-91150000D02*
X102500000Y-91150000D01*
X102500000Y-91150000D02*
X102600000Y-91050000D01*
X101000000Y-91150000D02*
X101000000Y-92450000D01*
X118700000Y-112150000D02*
X124400000Y-112150000D01*
D46*
X107400000Y-125500000D02*
X102380000Y-125500000D01*
X110300000Y-122600000D02*
X107400000Y-125500000D01*
X102380000Y-125500000D02*
X100420000Y-127460000D01*
D44*
X111900000Y-122450000D02*
X111850000Y-122450000D01*
X111850000Y-122450000D02*
X111150000Y-121750000D01*
X113800000Y-121800000D02*
X113100000Y-121800000D01*
X113100000Y-121800000D02*
X112100000Y-120800000D01*
D46*
X110300000Y-122600000D02*
X111150000Y-121750000D01*
X111150000Y-121750000D02*
X112100000Y-120800000D01*
X112100000Y-120800000D02*
X112440000Y-120460000D01*
X112440000Y-120460000D02*
X112440000Y-117600000D01*
D45*
X112440000Y-120460000D02*
X112440000Y-117600000D01*
X110300000Y-122600000D02*
X112440000Y-120460000D01*
D46*
X100420000Y-127460000D02*
X100740000Y-127460000D01*
D44*
X102100000Y-87700000D02*
X106900000Y-87700000D01*
X106900000Y-87700000D02*
X114400000Y-80200000D01*
X101000000Y-89250000D02*
X101000000Y-87950000D01*
X101000000Y-87950000D02*
X100750000Y-87700000D01*
X119300000Y-82550000D02*
X118250000Y-82550000D01*
X118250000Y-82550000D02*
X117000000Y-81300000D01*
X117000000Y-81300000D02*
X117000000Y-78700000D01*
X117000000Y-78700000D02*
X116300000Y-78000000D01*
X116300000Y-78000000D02*
X115100000Y-78000000D01*
X115100000Y-78000000D02*
X114400000Y-78700000D01*
X114400000Y-78700000D02*
X114400000Y-80200000D01*
X102100000Y-87700000D02*
X100750000Y-87700000D01*
X122400000Y-86810000D02*
X122400000Y-85650000D01*
X122400000Y-85650000D02*
X119300000Y-82550000D01*
D48*
G36*
X59293085Y-78342478D02*
X58965356Y-78832959D01*
X58773000Y-79800000D01*
X58773000Y-86673000D01*
X57100000Y-86673000D01*
X57053841Y-86681685D01*
X57011447Y-86708965D01*
X56983006Y-86750590D01*
X56973000Y-86800000D01*
X56973000Y-88635482D01*
X56915748Y-88719273D01*
X56793085Y-89325000D01*
X56793085Y-90075000D01*
X56899561Y-90640872D01*
X56973000Y-90754999D01*
X56973000Y-94135482D01*
X56915748Y-94219273D01*
X56793085Y-94825000D01*
X56793085Y-95575000D01*
X56899561Y-96140872D01*
X56973000Y-96254999D01*
X56973000Y-103935482D01*
X56915748Y-104019273D01*
X56793085Y-104625000D01*
X56793085Y-105375000D01*
X56899561Y-105940872D01*
X56973000Y-106054999D01*
X56973000Y-108435482D01*
X56915748Y-108519273D01*
X56793085Y-109125000D01*
X56793085Y-109875000D01*
X56899561Y-110440872D01*
X56973000Y-110554999D01*
X56973000Y-113000000D01*
X56981685Y-113046159D01*
X57008965Y-113088553D01*
X57050590Y-113116994D01*
X57100000Y-113127000D01*
X64053282Y-113127000D01*
X66763141Y-115836859D01*
X67582959Y-116384644D01*
X68550000Y-116577000D01*
X72000000Y-116577000D01*
X72352342Y-116506915D01*
X72815132Y-116506915D01*
X72798936Y-116530619D01*
X72764635Y-116700000D01*
X72764635Y-120300000D01*
X72794409Y-120458237D01*
X72887927Y-120603567D01*
X73030619Y-120701064D01*
X73200000Y-120735365D01*
X75000000Y-120735365D01*
X75158237Y-120705591D01*
X75303567Y-120612073D01*
X75401064Y-120469381D01*
X75435365Y-120300000D01*
X75435365Y-116700000D01*
X86564635Y-116700000D01*
X86564635Y-120300000D01*
X86594409Y-120458237D01*
X86687927Y-120603567D01*
X86830619Y-120701064D01*
X87000000Y-120735365D01*
X88800000Y-120735365D01*
X88820527Y-120731503D01*
X89589635Y-121500611D01*
X89589635Y-121950000D01*
X89619409Y-122108237D01*
X89712927Y-122253567D01*
X89855619Y-122351064D01*
X90025000Y-122385365D01*
X90775000Y-122385365D01*
X90933237Y-122355591D01*
X91078567Y-122262073D01*
X91102531Y-122227000D01*
X91733693Y-122227000D01*
X91775000Y-122235365D01*
X93025000Y-122235365D01*
X93069457Y-122227000D01*
X102650000Y-122227000D01*
X103004748Y-122156436D01*
X103305488Y-121955488D01*
X103496476Y-121764500D01*
X109337500Y-121764500D01*
X109692248Y-121693936D01*
X109992988Y-121492988D01*
X110555488Y-120930488D01*
X110593900Y-120873000D01*
X110756436Y-120629748D01*
X110827000Y-120275000D01*
X110827000Y-120258125D01*
X110898567Y-120212073D01*
X110996064Y-120069381D01*
X111030365Y-119900000D01*
X111030365Y-115300000D01*
X111000591Y-115141763D01*
X110907073Y-114996433D01*
X110827000Y-114941722D01*
X110827000Y-113585365D01*
X115300000Y-113585365D01*
X115458237Y-113555591D01*
X115603567Y-113462073D01*
X115701064Y-113319381D01*
X115735365Y-113150000D01*
X115735365Y-111963779D01*
X116172857Y-111963779D01*
X116298495Y-112267846D01*
X116530930Y-112500688D01*
X116834778Y-112626856D01*
X117133707Y-112627117D01*
X117148326Y-112636885D01*
X117350000Y-112677000D01*
X117920831Y-112677000D01*
X117937927Y-112703567D01*
X118080619Y-112801064D01*
X118250000Y-112835365D01*
X119150000Y-112835365D01*
X119308237Y-112805591D01*
X119453567Y-112712073D01*
X119477531Y-112677000D01*
X121120831Y-112677000D01*
X121137927Y-112703567D01*
X121280619Y-112801064D01*
X121450000Y-112835365D01*
X122350000Y-112835365D01*
X122508237Y-112805591D01*
X122653567Y-112712073D01*
X122677531Y-112677000D01*
X123620831Y-112677000D01*
X123637927Y-112703567D01*
X123780619Y-112801064D01*
X123950000Y-112835365D01*
X124850000Y-112835365D01*
X125008237Y-112805591D01*
X125153567Y-112712073D01*
X125251064Y-112569381D01*
X125285365Y-112400000D01*
X125285365Y-111900000D01*
X125255591Y-111741763D01*
X125162073Y-111596433D01*
X125019381Y-111498936D01*
X124850000Y-111464635D01*
X123950000Y-111464635D01*
X123791763Y-111494409D01*
X123646433Y-111587927D01*
X123622469Y-111623000D01*
X122679169Y-111623000D01*
X122662073Y-111596433D01*
X122519381Y-111498936D01*
X122350000Y-111464635D01*
X121450000Y-111464635D01*
X121291763Y-111494409D01*
X121146433Y-111587927D01*
X121122469Y-111623000D01*
X119479169Y-111623000D01*
X119462073Y-111596433D01*
X119319381Y-111498936D01*
X119150000Y-111464635D01*
X118250000Y-111464635D01*
X118091763Y-111494409D01*
X117946433Y-111587927D01*
X117922469Y-111623000D01*
X117821680Y-111623000D01*
X117701505Y-111332154D01*
X117469070Y-111099312D01*
X117165222Y-110973144D01*
X116836221Y-110972857D01*
X116532154Y-111098495D01*
X116299312Y-111330930D01*
X116173144Y-111634778D01*
X116172857Y-111963779D01*
X115735365Y-111963779D01*
X115735365Y-103750000D01*
X115705591Y-103591763D01*
X115612073Y-103446433D01*
X115469381Y-103348936D01*
X115300000Y-103314635D01*
X104500000Y-103314635D01*
X104341763Y-103344409D01*
X104196433Y-103437927D01*
X104098936Y-103580619D01*
X104064635Y-103750000D01*
X104064635Y-106819345D01*
X98045700Y-100800410D01*
X98101064Y-100719381D01*
X98135365Y-100550000D01*
X98135365Y-99650000D01*
X98105591Y-99491763D01*
X98012073Y-99346433D01*
X97944364Y-99300169D01*
X98003567Y-99262073D01*
X98101064Y-99119381D01*
X98135365Y-98950000D01*
X98135365Y-98050000D01*
X98264635Y-98050000D01*
X98264635Y-98950000D01*
X98294409Y-99108237D01*
X98387927Y-99253567D01*
X98530619Y-99351064D01*
X98700000Y-99385365D01*
X99200000Y-99385365D01*
X99358237Y-99355591D01*
X99503567Y-99262073D01*
X99601064Y-99119381D01*
X99619772Y-99027000D01*
X103900000Y-99027000D01*
X104101675Y-98986885D01*
X104272645Y-98872645D01*
X107440183Y-95705108D01*
X107580619Y-95801064D01*
X107750000Y-95835365D01*
X108650000Y-95835365D01*
X108808237Y-95805591D01*
X108953567Y-95712073D01*
X108977531Y-95677000D01*
X109450000Y-95677000D01*
X109651675Y-95636885D01*
X109822645Y-95522645D01*
X110471145Y-94874146D01*
X110585384Y-94703175D01*
X110585385Y-94703174D01*
X110625500Y-94501500D01*
X110625500Y-94331843D01*
X110702067Y-94282573D01*
X110732881Y-94237475D01*
X110756427Y-94274067D01*
X110899119Y-94371564D01*
X111068500Y-94405865D01*
X111668500Y-94405865D01*
X111826737Y-94376091D01*
X111972067Y-94282573D01*
X112002881Y-94237475D01*
X112026427Y-94274067D01*
X112169119Y-94371564D01*
X112338500Y-94405865D01*
X112507423Y-94405865D01*
X111340340Y-95572948D01*
X111236221Y-95572857D01*
X110932154Y-95698495D01*
X110699312Y-95930930D01*
X110573144Y-96234778D01*
X110572857Y-96563779D01*
X110698495Y-96867846D01*
X110741500Y-96910926D01*
X110741500Y-97542722D01*
X110734119Y-97553525D01*
X110710573Y-97516933D01*
X110625500Y-97458805D01*
X110625500Y-97298500D01*
X110585385Y-97096826D01*
X110536608Y-97023826D01*
X110471145Y-96925854D01*
X109822645Y-96277355D01*
X109651675Y-96163115D01*
X109450000Y-96123000D01*
X108979169Y-96123000D01*
X108962073Y-96096433D01*
X108819381Y-95998936D01*
X108650000Y-95964635D01*
X107750000Y-95964635D01*
X107591763Y-95994409D01*
X107446433Y-96087927D01*
X107348936Y-96230619D01*
X107314635Y-96400000D01*
X107314635Y-96900000D01*
X107344409Y-97058237D01*
X107437927Y-97203567D01*
X107580619Y-97301064D01*
X107750000Y-97335365D01*
X108650000Y-97335365D01*
X108808237Y-97305591D01*
X108953567Y-97212073D01*
X108977531Y-97177000D01*
X109231710Y-97177000D01*
X109536432Y-97481723D01*
X109494933Y-97508427D01*
X109397436Y-97651119D01*
X109363135Y-97820500D01*
X109363135Y-99370500D01*
X109392909Y-99528737D01*
X109471500Y-99650870D01*
X109471500Y-100098500D01*
X109519228Y-100338443D01*
X109655144Y-100541856D01*
X110856644Y-101743356D01*
X111060058Y-101879273D01*
X111300000Y-101927000D01*
X115248635Y-101927000D01*
X115248635Y-102316000D01*
X115278409Y-102474237D01*
X115371927Y-102619567D01*
X115514619Y-102717064D01*
X115684000Y-102751365D01*
X116103109Y-102751365D01*
X116120728Y-102839943D01*
X116236438Y-103013115D01*
X116256644Y-103043356D01*
X118663375Y-105450087D01*
X118663375Y-106600150D01*
X118693149Y-106758387D01*
X118786667Y-106903717D01*
X118929359Y-107001214D01*
X119098740Y-107035515D01*
X122598860Y-107035515D01*
X122757097Y-107005741D01*
X122902427Y-106912223D01*
X122999924Y-106769531D01*
X123034225Y-106600150D01*
X123034225Y-104199850D01*
X125165775Y-104199850D01*
X125165775Y-106600150D01*
X125195549Y-106758387D01*
X125289067Y-106903717D01*
X125431759Y-107001214D01*
X125601140Y-107035515D01*
X129101260Y-107035515D01*
X129141274Y-107027986D01*
X130723209Y-108609921D01*
X130722779Y-109102897D01*
X130916781Y-109572417D01*
X131275693Y-109931957D01*
X131744875Y-110126778D01*
X132252897Y-110127221D01*
X132722417Y-109933219D01*
X133081957Y-109574307D01*
X133276778Y-109105125D01*
X133277221Y-108597103D01*
X133083219Y-108127583D01*
X132724307Y-107768043D01*
X132255125Y-107573222D01*
X131747103Y-107572779D01*
X131543584Y-107656872D01*
X129536625Y-105649913D01*
X129536625Y-104199850D01*
X129506851Y-104041613D01*
X129413333Y-103896283D01*
X129270641Y-103798786D01*
X129101260Y-103764485D01*
X125601140Y-103764485D01*
X125442903Y-103794259D01*
X125297573Y-103887777D01*
X125200076Y-104030469D01*
X125165775Y-104199850D01*
X123034225Y-104199850D01*
X123004451Y-104041613D01*
X122910933Y-103896283D01*
X122768241Y-103798786D01*
X122598860Y-103764485D01*
X119098740Y-103764485D01*
X118940503Y-103794259D01*
X118843434Y-103856722D01*
X117734581Y-102747869D01*
X117874237Y-102721591D01*
X118019567Y-102628073D01*
X118117064Y-102485381D01*
X118151365Y-102316000D01*
X118151365Y-101500000D01*
X122573000Y-101500000D01*
X122643564Y-101854748D01*
X122844512Y-102155488D01*
X123145252Y-102356436D01*
X123500000Y-102427000D01*
X136600000Y-102427000D01*
X136954748Y-102356436D01*
X137255488Y-102155488D01*
X140075348Y-99335628D01*
X140092228Y-99310365D01*
X140276296Y-99034888D01*
X140346860Y-98680140D01*
X140346860Y-79000000D01*
X140276296Y-78645252D01*
X140075348Y-78344512D01*
X139774608Y-78143564D01*
X139419860Y-78073000D01*
X139065112Y-78143564D01*
X139031751Y-78165855D01*
X138850520Y-78165855D01*
X138692283Y-78195629D01*
X138546953Y-78289147D01*
X138500154Y-78357640D01*
X138461553Y-78297653D01*
X138318861Y-78200156D01*
X138149480Y-78165855D01*
X137351920Y-78165855D01*
X137193683Y-78195629D01*
X137048353Y-78289147D01*
X136950856Y-78431839D01*
X136942521Y-78473000D01*
X136420877Y-78473000D01*
X136405591Y-78391763D01*
X136312073Y-78246433D01*
X136169381Y-78148936D01*
X136000000Y-78114635D01*
X135500000Y-78114635D01*
X135341763Y-78144409D01*
X135196433Y-78237927D01*
X135098936Y-78380619D01*
X135064635Y-78550000D01*
X135064635Y-79450000D01*
X135094409Y-79608237D01*
X135187927Y-79753567D01*
X135330619Y-79851064D01*
X135500000Y-79885365D01*
X136000000Y-79885365D01*
X136158237Y-79855591D01*
X136303567Y-79762073D01*
X136401064Y-79619381D01*
X136419772Y-79527000D01*
X136940681Y-79527000D01*
X136946329Y-79557017D01*
X137039847Y-79702347D01*
X137182539Y-79799844D01*
X137351920Y-79834145D01*
X138149480Y-79834145D01*
X138307717Y-79804371D01*
X138453047Y-79710853D01*
X138492860Y-79652585D01*
X138492860Y-81846305D01*
X138461553Y-81797653D01*
X138318861Y-81700156D01*
X138149480Y-81665855D01*
X137351920Y-81665855D01*
X137193683Y-81695629D01*
X137048353Y-81789147D01*
X136950856Y-81931839D01*
X136942521Y-81973000D01*
X136420877Y-81973000D01*
X136405591Y-81891763D01*
X136312073Y-81746433D01*
X136169381Y-81648936D01*
X136000000Y-81614635D01*
X135500000Y-81614635D01*
X135341763Y-81644409D01*
X135196433Y-81737927D01*
X135098936Y-81880619D01*
X135064635Y-82050000D01*
X135064635Y-82950000D01*
X135094409Y-83108237D01*
X135187927Y-83253567D01*
X135330619Y-83351064D01*
X135500000Y-83385365D01*
X136000000Y-83385365D01*
X136158237Y-83355591D01*
X136303567Y-83262073D01*
X136401064Y-83119381D01*
X136419772Y-83027000D01*
X136940681Y-83027000D01*
X136946329Y-83057017D01*
X137039847Y-83202347D01*
X137182539Y-83299844D01*
X137351920Y-83334145D01*
X138149480Y-83334145D01*
X138307717Y-83304371D01*
X138453047Y-83210853D01*
X138492860Y-83152585D01*
X138492860Y-85346305D01*
X138461553Y-85297653D01*
X138318861Y-85200156D01*
X138149480Y-85165855D01*
X137351920Y-85165855D01*
X137193683Y-85195629D01*
X137048353Y-85289147D01*
X136950856Y-85431839D01*
X136942521Y-85473000D01*
X136420877Y-85473000D01*
X136405591Y-85391763D01*
X136312073Y-85246433D01*
X136169381Y-85148936D01*
X136000000Y-85114635D01*
X135500000Y-85114635D01*
X135341763Y-85144409D01*
X135196433Y-85237927D01*
X135098936Y-85380619D01*
X135064635Y-85550000D01*
X135064635Y-86450000D01*
X135094409Y-86608237D01*
X135187927Y-86753567D01*
X135330619Y-86851064D01*
X135500000Y-86885365D01*
X136000000Y-86885365D01*
X136158237Y-86855591D01*
X136303567Y-86762073D01*
X136401064Y-86619381D01*
X136419772Y-86527000D01*
X136940681Y-86527000D01*
X136946329Y-86557017D01*
X137039847Y-86702347D01*
X137182539Y-86799844D01*
X137351920Y-86834145D01*
X138149480Y-86834145D01*
X138307717Y-86804371D01*
X138453047Y-86710853D01*
X138492860Y-86652585D01*
X138492860Y-98296164D01*
X136216024Y-100573000D01*
X125280264Y-100573000D01*
X125351064Y-100469381D01*
X125385365Y-100300000D01*
X125385365Y-99800000D01*
X125355591Y-99641763D01*
X125262073Y-99496433D01*
X125119381Y-99398936D01*
X124950000Y-99364635D01*
X124050000Y-99364635D01*
X123891763Y-99394409D01*
X123746433Y-99487927D01*
X123648936Y-99630619D01*
X123614635Y-99800000D01*
X123614635Y-100300000D01*
X123644409Y-100458237D01*
X123718258Y-100573000D01*
X123500000Y-100573000D01*
X123145252Y-100643564D01*
X122844512Y-100844512D01*
X122643564Y-101145252D01*
X122573000Y-101500000D01*
X118151365Y-101500000D01*
X118151365Y-100577000D01*
X118613531Y-100577000D01*
X118619409Y-100608237D01*
X118712927Y-100753567D01*
X118855619Y-100851064D01*
X119025000Y-100885365D01*
X119775000Y-100885365D01*
X119933237Y-100855591D01*
X120078567Y-100762073D01*
X120176064Y-100619381D01*
X120210365Y-100450000D01*
X120210365Y-100105655D01*
X120214635Y-100109925D01*
X120214635Y-100400000D01*
X120244409Y-100558237D01*
X120337927Y-100703567D01*
X120480619Y-100801064D01*
X120650000Y-100835365D01*
X121550000Y-100835365D01*
X121708237Y-100805591D01*
X121853567Y-100712073D01*
X121951064Y-100569381D01*
X121985365Y-100400000D01*
X121985365Y-99900000D01*
X121955591Y-99741763D01*
X121862073Y-99596433D01*
X121719381Y-99498936D01*
X121550000Y-99464635D01*
X121059925Y-99464635D01*
X120210365Y-98615075D01*
X120210365Y-98300000D01*
X123614635Y-98300000D01*
X123614635Y-98800000D01*
X123644409Y-98958237D01*
X123737927Y-99103567D01*
X123880619Y-99201064D01*
X124050000Y-99235365D01*
X124950000Y-99235365D01*
X125108237Y-99205591D01*
X125253567Y-99112073D01*
X125277531Y-99077000D01*
X125717848Y-99077000D01*
X126133894Y-99493773D01*
X126694928Y-99726735D01*
X127302407Y-99727265D01*
X127863846Y-99495283D01*
X128293773Y-99066106D01*
X128526735Y-98505072D01*
X128527265Y-97897593D01*
X128295283Y-97336154D01*
X127866106Y-96906227D01*
X127305072Y-96673265D01*
X126697593Y-96672735D01*
X126136154Y-96904717D01*
X125706227Y-97333894D01*
X125473265Y-97894928D01*
X125473153Y-98023000D01*
X125279169Y-98023000D01*
X125262073Y-97996433D01*
X125119381Y-97898936D01*
X124950000Y-97864635D01*
X124050000Y-97864635D01*
X123891763Y-97894409D01*
X123746433Y-97987927D01*
X123648936Y-98130619D01*
X123614635Y-98300000D01*
X120210365Y-98300000D01*
X120210365Y-98150000D01*
X120180591Y-97991763D01*
X120087073Y-97846433D01*
X119944381Y-97748936D01*
X119775000Y-97714635D01*
X119025000Y-97714635D01*
X118866763Y-97744409D01*
X118721433Y-97837927D01*
X118623936Y-97980619D01*
X118589635Y-98150000D01*
X118589635Y-98950000D01*
X118619409Y-99108237D01*
X118712927Y-99253567D01*
X118780636Y-99299831D01*
X118721433Y-99337927D01*
X118623936Y-99480619D01*
X118615354Y-99523000D01*
X118208291Y-99523000D01*
X118035823Y-99350532D01*
X118061428Y-99312212D01*
X118171270Y-98760000D01*
X118061428Y-98207788D01*
X117748625Y-97739645D01*
X117280482Y-97426842D01*
X116728270Y-97317000D01*
X116671730Y-97317000D01*
X116231316Y-97404604D01*
X116083356Y-97256644D01*
X116065045Y-97244409D01*
X115879943Y-97120728D01*
X115640000Y-97073000D01*
X114200000Y-97073000D01*
X113960057Y-97120728D01*
X113774955Y-97244409D01*
X113756644Y-97256644D01*
X113628153Y-97385135D01*
X113608500Y-97385135D01*
X113450263Y-97414909D01*
X113304933Y-97508427D01*
X113207436Y-97651119D01*
X113173135Y-97820500D01*
X113173135Y-99370500D01*
X113202909Y-99528737D01*
X113296427Y-99674067D01*
X113439119Y-99771564D01*
X113608500Y-99805865D01*
X114208500Y-99805865D01*
X114366737Y-99776091D01*
X114512067Y-99682573D01*
X114609564Y-99539881D01*
X114643865Y-99370500D01*
X114643865Y-98327000D01*
X115314859Y-98327000D01*
X115228730Y-98760000D01*
X115338572Y-99312212D01*
X115651375Y-99780355D01*
X115753563Y-99848635D01*
X115684000Y-99848635D01*
X115525763Y-99878409D01*
X115380433Y-99971927D01*
X115282936Y-100114619D01*
X115248635Y-100284000D01*
X115248635Y-100673000D01*
X111559712Y-100673000D01*
X110725500Y-99838788D01*
X110725500Y-99648278D01*
X110732881Y-99637475D01*
X110756427Y-99674067D01*
X110899119Y-99771564D01*
X111068500Y-99805865D01*
X111668500Y-99805865D01*
X111826737Y-99776091D01*
X111972067Y-99682573D01*
X112069564Y-99539881D01*
X112103865Y-99370500D01*
X112103865Y-97820500D01*
X112074091Y-97662263D01*
X111995500Y-97540130D01*
X111995500Y-96974074D01*
X112100688Y-96869070D01*
X112226856Y-96565222D01*
X112226948Y-96459764D01*
X113409712Y-95277000D01*
X114863657Y-95277000D01*
X114912927Y-95353567D01*
X115055619Y-95451064D01*
X115225000Y-95485365D01*
X115975000Y-95485365D01*
X116133237Y-95455591D01*
X116278567Y-95362073D01*
X116376064Y-95219381D01*
X116410365Y-95050000D01*
X116410365Y-94838951D01*
X118725151Y-94838951D01*
X119031195Y-95579632D01*
X119597388Y-96146814D01*
X120337533Y-96454149D01*
X121138951Y-96454849D01*
X121879632Y-96148805D01*
X122446814Y-95582612D01*
X122583723Y-95252897D01*
X128222779Y-95252897D01*
X128416781Y-95722417D01*
X128775693Y-96081957D01*
X129244875Y-96276778D01*
X129752897Y-96277221D01*
X130222417Y-96083219D01*
X130581957Y-95724307D01*
X130776778Y-95255125D01*
X130777221Y-94747103D01*
X130583219Y-94277583D01*
X130224307Y-93918043D01*
X129755125Y-93723222D01*
X129247103Y-93722779D01*
X128777583Y-93916781D01*
X128418043Y-94275693D01*
X128223222Y-94744875D01*
X128222779Y-95252897D01*
X122583723Y-95252897D01*
X122754149Y-94842467D01*
X122754849Y-94041049D01*
X122448805Y-93300368D01*
X121882612Y-92733186D01*
X121142467Y-92425851D01*
X120341049Y-92425151D01*
X119600368Y-92731195D01*
X119033186Y-93297388D01*
X118725851Y-94037533D01*
X118725151Y-94838951D01*
X116410365Y-94838951D01*
X116410365Y-94250000D01*
X116380591Y-94091763D01*
X116290908Y-93952393D01*
X116353567Y-93912073D01*
X116451064Y-93769381D01*
X116485365Y-93600000D01*
X116485365Y-93100000D01*
X116455591Y-92941763D01*
X116362073Y-92796433D01*
X116219381Y-92698936D01*
X116050000Y-92664635D01*
X115150000Y-92664635D01*
X114991763Y-92694409D01*
X114846433Y-92787927D01*
X114748936Y-92930619D01*
X114714635Y-93100000D01*
X114714635Y-93600000D01*
X114744409Y-93758237D01*
X114837927Y-93903567D01*
X114910861Y-93953400D01*
X114863305Y-94023000D01*
X114633233Y-94023000D01*
X114643865Y-93970500D01*
X114643865Y-92420500D01*
X114640844Y-92404446D01*
X114668291Y-92377000D01*
X114820831Y-92377000D01*
X114837927Y-92403567D01*
X114980619Y-92501064D01*
X115150000Y-92535365D01*
X116050000Y-92535365D01*
X116208237Y-92505591D01*
X116353567Y-92412073D01*
X116451064Y-92269381D01*
X116484877Y-92102407D01*
X125472735Y-92102407D01*
X125704717Y-92663846D01*
X126133894Y-93093773D01*
X126694928Y-93326735D01*
X127302407Y-93327265D01*
X127863846Y-93095283D01*
X128293773Y-92666106D01*
X128526735Y-92105072D01*
X128526737Y-92102407D01*
X133472735Y-92102407D01*
X133704717Y-92663846D01*
X134133894Y-93093773D01*
X134373000Y-93193059D01*
X134373000Y-96806854D01*
X134136154Y-96904717D01*
X133706227Y-97333894D01*
X133473265Y-97894928D01*
X133472735Y-98502407D01*
X133704717Y-99063846D01*
X134133894Y-99493773D01*
X134694928Y-99726735D01*
X135302407Y-99727265D01*
X135863846Y-99495283D01*
X136293773Y-99066106D01*
X136526735Y-98505072D01*
X136527265Y-97897593D01*
X136295283Y-97336154D01*
X135866106Y-96906227D01*
X135627000Y-96806941D01*
X135627000Y-95933004D01*
X135775693Y-96081957D01*
X136244875Y-96276778D01*
X136752897Y-96277221D01*
X137222417Y-96083219D01*
X137581957Y-95724307D01*
X137776778Y-95255125D01*
X137777221Y-94747103D01*
X137583219Y-94277583D01*
X137224307Y-93918043D01*
X136755125Y-93723222D01*
X136247103Y-93722779D01*
X135777583Y-93916781D01*
X135627000Y-94067101D01*
X135627000Y-93193146D01*
X135863846Y-93095283D01*
X136293773Y-92666106D01*
X136526735Y-92105072D01*
X136527265Y-91497593D01*
X136295283Y-90936154D01*
X135866106Y-90506227D01*
X135305072Y-90273265D01*
X134697593Y-90272735D01*
X134136154Y-90504717D01*
X133706227Y-90933894D01*
X133473265Y-91494928D01*
X133472735Y-92102407D01*
X128526737Y-92102407D01*
X128527265Y-91497593D01*
X128295283Y-90936154D01*
X127866106Y-90506227D01*
X127305072Y-90273265D01*
X126697593Y-90272735D01*
X126136154Y-90504717D01*
X125706227Y-90933894D01*
X125473265Y-91494928D01*
X125472735Y-92102407D01*
X116484877Y-92102407D01*
X116485365Y-92100000D01*
X116485365Y-91600000D01*
X116455591Y-91441763D01*
X116362073Y-91296433D01*
X116294364Y-91250169D01*
X116353567Y-91212073D01*
X116451064Y-91069381D01*
X116485365Y-90900000D01*
X116485365Y-90400000D01*
X116455591Y-90241763D01*
X116362073Y-90096433D01*
X116219381Y-89998936D01*
X116050000Y-89964635D01*
X115150000Y-89964635D01*
X114991763Y-89994409D01*
X114846433Y-90087927D01*
X114748936Y-90230619D01*
X114714635Y-90400000D01*
X114714635Y-90900000D01*
X114744409Y-91058237D01*
X114837927Y-91203567D01*
X114905636Y-91249831D01*
X114846433Y-91287927D01*
X114822469Y-91323000D01*
X114450000Y-91323000D01*
X114248326Y-91363115D01*
X114077355Y-91477354D01*
X113560553Y-91994157D01*
X113450263Y-92014909D01*
X113304933Y-92108427D01*
X113274119Y-92153525D01*
X113250573Y-92116933D01*
X113165500Y-92058805D01*
X113165500Y-91988632D01*
X113208237Y-91980591D01*
X113353567Y-91887073D01*
X113451064Y-91744381D01*
X113485365Y-91575000D01*
X113485365Y-90825000D01*
X113455591Y-90666763D01*
X113362073Y-90521433D01*
X113219381Y-90423936D01*
X113050000Y-90389635D01*
X112250000Y-90389635D01*
X112091763Y-90419409D01*
X111946433Y-90512927D01*
X111848936Y-90655619D01*
X111814635Y-90825000D01*
X111814635Y-91290075D01*
X111119575Y-91985135D01*
X111068500Y-91985135D01*
X110910263Y-92014909D01*
X110764933Y-92108427D01*
X110734119Y-92153525D01*
X110710573Y-92116933D01*
X110567881Y-92019436D01*
X110398500Y-91985135D01*
X109798500Y-91985135D01*
X109640263Y-92014909D01*
X109494933Y-92108427D01*
X109397436Y-92251119D01*
X109363135Y-92420500D01*
X109363135Y-93970500D01*
X109392909Y-94128737D01*
X109486427Y-94274067D01*
X109542399Y-94312311D01*
X109231710Y-94623000D01*
X108979169Y-94623000D01*
X108962073Y-94596433D01*
X108819381Y-94498936D01*
X108650000Y-94464635D01*
X107750000Y-94464635D01*
X107591763Y-94494409D01*
X107446433Y-94587927D01*
X107422469Y-94623000D01*
X107250000Y-94623000D01*
X107048326Y-94663115D01*
X107048324Y-94663116D01*
X107048325Y-94663116D01*
X106877354Y-94777355D01*
X103681710Y-97973000D01*
X99620877Y-97973000D01*
X99605591Y-97891763D01*
X99512073Y-97746433D01*
X99369381Y-97648936D01*
X99200000Y-97614635D01*
X98700000Y-97614635D01*
X98541763Y-97644409D01*
X98396433Y-97737927D01*
X98298936Y-97880619D01*
X98264635Y-98050000D01*
X98135365Y-98050000D01*
X98105591Y-97891763D01*
X98012073Y-97746433D01*
X97869381Y-97648936D01*
X97700000Y-97614635D01*
X97200000Y-97614635D01*
X97041763Y-97644409D01*
X96896433Y-97737927D01*
X96799566Y-97879698D01*
X96762073Y-97821433D01*
X96619381Y-97723936D01*
X96450000Y-97689635D01*
X95650000Y-97689635D01*
X95491763Y-97719409D01*
X95346433Y-97812927D01*
X95300169Y-97880636D01*
X95262073Y-97821433D01*
X95119381Y-97723936D01*
X94950000Y-97689635D01*
X94834925Y-97689635D01*
X93022645Y-95877355D01*
X92851675Y-95763115D01*
X92650000Y-95723000D01*
X92235365Y-95723000D01*
X92235365Y-95350000D01*
X92205591Y-95191763D01*
X92112073Y-95046433D01*
X91969381Y-94948936D01*
X91800000Y-94914635D01*
X88200000Y-94914635D01*
X88041763Y-94944409D01*
X87896433Y-95037927D01*
X87798936Y-95180619D01*
X87764635Y-95350000D01*
X87764635Y-97150000D01*
X87794409Y-97308237D01*
X87887927Y-97453567D01*
X88030619Y-97551064D01*
X88200000Y-97585365D01*
X91800000Y-97585365D01*
X91958237Y-97555591D01*
X92103567Y-97462073D01*
X92201064Y-97319381D01*
X92235365Y-97150000D01*
X92235365Y-96777000D01*
X92431710Y-96777000D01*
X93725594Y-98070884D01*
X93714635Y-98125000D01*
X93714635Y-98875000D01*
X93744409Y-99033237D01*
X93837927Y-99178567D01*
X93980619Y-99276064D01*
X94023000Y-99284646D01*
X94023000Y-99320831D01*
X93996433Y-99337927D01*
X93898936Y-99480619D01*
X93864635Y-99650000D01*
X93864635Y-100550000D01*
X93894409Y-100708237D01*
X93987927Y-100853567D01*
X94130619Y-100951064D01*
X94300000Y-100985365D01*
X94800000Y-100985365D01*
X94958237Y-100955591D01*
X95103567Y-100862073D01*
X95201064Y-100719381D01*
X95235365Y-100550000D01*
X95235365Y-99650000D01*
X95205591Y-99491763D01*
X95112073Y-99346433D01*
X95077000Y-99322469D01*
X95077000Y-99286469D01*
X95108237Y-99280591D01*
X95253567Y-99187073D01*
X95299831Y-99119364D01*
X95337927Y-99178567D01*
X95480619Y-99276064D01*
X95565772Y-99293308D01*
X95496433Y-99337927D01*
X95398936Y-99480619D01*
X95364635Y-99650000D01*
X95364635Y-100550000D01*
X95394409Y-100708237D01*
X95487927Y-100853567D01*
X95630619Y-100951064D01*
X95800000Y-100985365D01*
X96300000Y-100985365D01*
X96458237Y-100955591D01*
X96603567Y-100862073D01*
X96701064Y-100719381D01*
X96719772Y-100627000D01*
X96779123Y-100627000D01*
X96794409Y-100708237D01*
X96887927Y-100853567D01*
X96923000Y-100877531D01*
X96923000Y-100950000D01*
X96963115Y-101151675D01*
X97077355Y-101322645D01*
X103173000Y-107418290D01*
X103173000Y-114173064D01*
X102936221Y-114172857D01*
X102632154Y-114298495D01*
X102399312Y-114530930D01*
X102273144Y-114834778D01*
X102272857Y-115163779D01*
X102398495Y-115467846D01*
X102630930Y-115700688D01*
X102859226Y-115795484D01*
X102677355Y-115977355D01*
X102563115Y-116148325D01*
X102556959Y-116179273D01*
X102529654Y-116316550D01*
X102496433Y-116337927D01*
X102398936Y-116480619D01*
X102364635Y-116650000D01*
X102364635Y-117550000D01*
X102394409Y-117708237D01*
X102487927Y-117853567D01*
X102523000Y-117877531D01*
X102523000Y-118020831D01*
X102496433Y-118037927D01*
X102398936Y-118180619D01*
X102364635Y-118350000D01*
X102364635Y-119250000D01*
X102394409Y-119408237D01*
X102487927Y-119553567D01*
X102630619Y-119651064D01*
X102800000Y-119685365D01*
X103300000Y-119685365D01*
X103458237Y-119655591D01*
X103603567Y-119562073D01*
X103701064Y-119419381D01*
X103735365Y-119250000D01*
X103735365Y-118350000D01*
X103705591Y-118191763D01*
X103612073Y-118046433D01*
X103577000Y-118022469D01*
X103577000Y-117879169D01*
X103603567Y-117862073D01*
X103701064Y-117719381D01*
X103735365Y-117550000D01*
X103735365Y-116650000D01*
X103705591Y-116491763D01*
X103685206Y-116460084D01*
X104518290Y-115627000D01*
X106181710Y-115627000D01*
X106229635Y-115674925D01*
X106229635Y-119900000D01*
X106231611Y-119910500D01*
X103112500Y-119910500D01*
X102757753Y-119981063D01*
X102457012Y-120182012D01*
X102367157Y-120271867D01*
X102077000Y-119981710D01*
X102077000Y-119579169D01*
X102103567Y-119562073D01*
X102201064Y-119419381D01*
X102235365Y-119250000D01*
X102235365Y-118350000D01*
X102205591Y-118191763D01*
X102112073Y-118046433D01*
X101969381Y-117948936D01*
X101800000Y-117914635D01*
X101300000Y-117914635D01*
X101141763Y-117944409D01*
X100996433Y-118037927D01*
X100898936Y-118180619D01*
X100864635Y-118350000D01*
X100864635Y-119250000D01*
X100894409Y-119408237D01*
X100987927Y-119553567D01*
X101023000Y-119577531D01*
X101023000Y-120200000D01*
X101057411Y-120373000D01*
X96418290Y-120373000D01*
X95927000Y-119881710D01*
X95927000Y-118248156D01*
X95931329Y-118251114D01*
X96100710Y-118285415D01*
X96900810Y-118285415D01*
X97059047Y-118255641D01*
X97202354Y-118163425D01*
X97330619Y-118251064D01*
X97500000Y-118285365D01*
X98000000Y-118285365D01*
X98158237Y-118255591D01*
X98303567Y-118162073D01*
X98401064Y-118019381D01*
X98435365Y-117850000D01*
X98435365Y-116950000D01*
X98405591Y-116791763D01*
X98312073Y-116646433D01*
X98169381Y-116548936D01*
X98000000Y-116514635D01*
X97500000Y-116514635D01*
X97341763Y-116544409D01*
X97196433Y-116637927D01*
X97151149Y-116704202D01*
X97070191Y-116648886D01*
X96900810Y-116614585D01*
X96100710Y-116614585D01*
X95942473Y-116644359D01*
X95927000Y-116654316D01*
X95927000Y-116063779D01*
X98372857Y-116063779D01*
X98498495Y-116367846D01*
X98723000Y-116592744D01*
X98723000Y-116620831D01*
X98696433Y-116637927D01*
X98598936Y-116780619D01*
X98564635Y-116950000D01*
X98564635Y-117850000D01*
X98594409Y-118008237D01*
X98687927Y-118153567D01*
X98830619Y-118251064D01*
X99000000Y-118285365D01*
X99500000Y-118285365D01*
X99658237Y-118255591D01*
X99803567Y-118162073D01*
X99901064Y-118019381D01*
X99935365Y-117850000D01*
X99935365Y-116950000D01*
X99905591Y-116791763D01*
X99812073Y-116646433D01*
X99777000Y-116622469D01*
X99777000Y-116492542D01*
X99900688Y-116369070D01*
X100026856Y-116065222D01*
X100027143Y-115736221D01*
X99901505Y-115432154D01*
X99669070Y-115199312D01*
X99365222Y-115073144D01*
X99036221Y-115072857D01*
X98732154Y-115198495D01*
X98499312Y-115430930D01*
X98373144Y-115734778D01*
X98372857Y-116063779D01*
X95927000Y-116063779D01*
X95927000Y-114785365D01*
X96300000Y-114785365D01*
X96458237Y-114755591D01*
X96603567Y-114662073D01*
X96701064Y-114519381D01*
X96735365Y-114350000D01*
X96735365Y-113450000D01*
X96705591Y-113291763D01*
X96612073Y-113146433D01*
X96522770Y-113085415D01*
X96900810Y-113085415D01*
X97059047Y-113055641D01*
X97202354Y-112963425D01*
X97330619Y-113051064D01*
X97500000Y-113085365D01*
X98000000Y-113085365D01*
X98158237Y-113055591D01*
X98303567Y-112962073D01*
X98401064Y-112819381D01*
X98435365Y-112650000D01*
X98435365Y-111750000D01*
X98405591Y-111591763D01*
X98312073Y-111446433D01*
X98169381Y-111348936D01*
X98000000Y-111314635D01*
X97500000Y-111314635D01*
X97341763Y-111344409D01*
X97196433Y-111437927D01*
X97151149Y-111504202D01*
X97070191Y-111448886D01*
X96900810Y-111414585D01*
X96100710Y-111414585D01*
X95942473Y-111444359D01*
X95927000Y-111454316D01*
X95927000Y-110963779D01*
X98372857Y-110963779D01*
X98498495Y-111267846D01*
X98684993Y-111454670D01*
X98598936Y-111580619D01*
X98564635Y-111750000D01*
X98564635Y-112650000D01*
X98594409Y-112808237D01*
X98687927Y-112953567D01*
X98830619Y-113051064D01*
X99000000Y-113085365D01*
X99500000Y-113085365D01*
X99658237Y-113055591D01*
X99803567Y-112962073D01*
X99901064Y-112819381D01*
X99935365Y-112650000D01*
X99935365Y-111750000D01*
X99905591Y-111591763D01*
X99812073Y-111446433D01*
X99777000Y-111422469D01*
X99777000Y-111392542D01*
X99900688Y-111269070D01*
X100026856Y-110965222D01*
X100027143Y-110636221D01*
X99901505Y-110332154D01*
X99669070Y-110099312D01*
X99365222Y-109973144D01*
X99036221Y-109972857D01*
X98732154Y-110098495D01*
X98499312Y-110330930D01*
X98373144Y-110634778D01*
X98372857Y-110963779D01*
X95927000Y-110963779D01*
X95927000Y-109585365D01*
X96300000Y-109585365D01*
X96458237Y-109555591D01*
X96603567Y-109462073D01*
X96701064Y-109319381D01*
X96735365Y-109150000D01*
X96735365Y-108250000D01*
X96705591Y-108091763D01*
X96612073Y-107946433D01*
X96522770Y-107885415D01*
X96900810Y-107885415D01*
X97059047Y-107855641D01*
X97202354Y-107763425D01*
X97330619Y-107851064D01*
X97500000Y-107885365D01*
X98000000Y-107885365D01*
X98158237Y-107855591D01*
X98303567Y-107762073D01*
X98401064Y-107619381D01*
X98435365Y-107450000D01*
X98435365Y-106550000D01*
X98405591Y-106391763D01*
X98312073Y-106246433D01*
X98169381Y-106148936D01*
X98000000Y-106114635D01*
X97500000Y-106114635D01*
X97341763Y-106144409D01*
X97196433Y-106237927D01*
X97151149Y-106304202D01*
X97070191Y-106248886D01*
X96900810Y-106214585D01*
X96100710Y-106214585D01*
X95942473Y-106244359D01*
X95927000Y-106254316D01*
X95927000Y-105663779D01*
X98372857Y-105663779D01*
X98498495Y-105967846D01*
X98723000Y-106192744D01*
X98723000Y-106220831D01*
X98696433Y-106237927D01*
X98598936Y-106380619D01*
X98564635Y-106550000D01*
X98564635Y-107450000D01*
X98594409Y-107608237D01*
X98687927Y-107753567D01*
X98830619Y-107851064D01*
X99000000Y-107885365D01*
X99500000Y-107885365D01*
X99658237Y-107855591D01*
X99803567Y-107762073D01*
X99901064Y-107619381D01*
X99935365Y-107450000D01*
X99935365Y-106550000D01*
X99905591Y-106391763D01*
X99812073Y-106246433D01*
X99777000Y-106222469D01*
X99777000Y-106092542D01*
X99900688Y-105969070D01*
X100026856Y-105665222D01*
X100027143Y-105336221D01*
X99901505Y-105032154D01*
X99669070Y-104799312D01*
X99365222Y-104673144D01*
X99036221Y-104672857D01*
X98732154Y-104798495D01*
X98499312Y-105030930D01*
X98373144Y-105334778D01*
X98372857Y-105663779D01*
X95927000Y-105663779D01*
X95927000Y-105218290D01*
X96422645Y-104722645D01*
X96536885Y-104551675D01*
X96577000Y-104350000D01*
X96577000Y-104279169D01*
X96603567Y-104262073D01*
X96701064Y-104119381D01*
X96735365Y-103950000D01*
X96735365Y-103050000D01*
X96705591Y-102891763D01*
X96612073Y-102746433D01*
X96577000Y-102722469D01*
X96577000Y-102385289D01*
X96626856Y-102265222D01*
X96627143Y-101936221D01*
X96501505Y-101632154D01*
X96269070Y-101399312D01*
X95965222Y-101273144D01*
X95636221Y-101272857D01*
X95332154Y-101398495D01*
X95099312Y-101630930D01*
X94973144Y-101934778D01*
X94972857Y-102263779D01*
X95098495Y-102567846D01*
X95330930Y-102800688D01*
X95426450Y-102840351D01*
X95398936Y-102880619D01*
X95364635Y-103050000D01*
X95364635Y-103950000D01*
X95394409Y-104108237D01*
X95453948Y-104200762D01*
X95027355Y-104627355D01*
X94913115Y-104798325D01*
X94905445Y-104836885D01*
X94873000Y-105000000D01*
X94873000Y-105264585D01*
X94411655Y-105264585D01*
X93971180Y-104824110D01*
X94409926Y-104385365D01*
X94800000Y-104385365D01*
X94958237Y-104355591D01*
X95103567Y-104262073D01*
X95201064Y-104119381D01*
X95235365Y-103950000D01*
X95235365Y-103050000D01*
X95205591Y-102891763D01*
X95112073Y-102746433D01*
X95047643Y-102702410D01*
X95036885Y-102648325D01*
X94922645Y-102477355D01*
X94426929Y-101981639D01*
X94427143Y-101736221D01*
X94301505Y-101432154D01*
X94069070Y-101199312D01*
X93765222Y-101073144D01*
X93436221Y-101072857D01*
X93132154Y-101198495D01*
X92899312Y-101430930D01*
X92773144Y-101734778D01*
X92772857Y-102063779D01*
X92898495Y-102367846D01*
X93130930Y-102600688D01*
X93434778Y-102726856D01*
X93681781Y-102727071D01*
X93888224Y-102933514D01*
X93864635Y-103050000D01*
X93864635Y-103440074D01*
X92681710Y-104623000D01*
X92235365Y-104623000D01*
X92235365Y-104250000D01*
X92205591Y-104091763D01*
X92112073Y-103946433D01*
X91969381Y-103848936D01*
X91800000Y-103814635D01*
X88200000Y-103814635D01*
X88041763Y-103844409D01*
X87896433Y-103937927D01*
X87798936Y-104080619D01*
X87764635Y-104250000D01*
X87764635Y-106050000D01*
X87794409Y-106208237D01*
X87887927Y-106353567D01*
X88030619Y-106451064D01*
X88200000Y-106485365D01*
X91800000Y-106485365D01*
X91958237Y-106455591D01*
X92103567Y-106362073D01*
X92201064Y-106219381D01*
X92235365Y-106050000D01*
X92235365Y-105677000D01*
X93333490Y-105677000D01*
X93666365Y-106009875D01*
X93666365Y-106500050D01*
X93696139Y-106658287D01*
X93789657Y-106803617D01*
X93932349Y-106901114D01*
X94101730Y-106935415D01*
X94873000Y-106935415D01*
X94873000Y-107829418D01*
X94800000Y-107814635D01*
X94300000Y-107814635D01*
X94141763Y-107844409D01*
X93996433Y-107937927D01*
X93898936Y-108080619D01*
X93864635Y-108250000D01*
X93864635Y-108640075D01*
X93431710Y-109073000D01*
X92235365Y-109073000D01*
X92235365Y-108700000D01*
X92205591Y-108541763D01*
X92112073Y-108396433D01*
X91969381Y-108298936D01*
X91800000Y-108264635D01*
X88200000Y-108264635D01*
X88041763Y-108294409D01*
X87896433Y-108387927D01*
X87798936Y-108530619D01*
X87764635Y-108700000D01*
X87764635Y-110500000D01*
X87794409Y-110658237D01*
X87887927Y-110803567D01*
X88030619Y-110901064D01*
X88200000Y-110935365D01*
X91800000Y-110935365D01*
X91958237Y-110905591D01*
X92103567Y-110812073D01*
X92201064Y-110669381D01*
X92235365Y-110500000D01*
X92235365Y-110127000D01*
X92583490Y-110127000D01*
X93666365Y-111209875D01*
X93666365Y-111700050D01*
X93696139Y-111858287D01*
X93789657Y-112003617D01*
X93932349Y-112101114D01*
X94101730Y-112135415D01*
X94873000Y-112135415D01*
X94873000Y-113029418D01*
X94800000Y-113014635D01*
X94300000Y-113014635D01*
X94141763Y-113044409D01*
X93996433Y-113137927D01*
X93898936Y-113280619D01*
X93864635Y-113450000D01*
X93864635Y-113523000D01*
X92235365Y-113523000D01*
X92235365Y-113150000D01*
X92205591Y-112991763D01*
X92112073Y-112846433D01*
X91969381Y-112748936D01*
X91800000Y-112714635D01*
X88200000Y-112714635D01*
X88041763Y-112744409D01*
X87896433Y-112837927D01*
X87798936Y-112980619D01*
X87764635Y-113150000D01*
X87764635Y-114950000D01*
X87794409Y-115108237D01*
X87887927Y-115253567D01*
X88030619Y-115351064D01*
X88200000Y-115385365D01*
X91800000Y-115385365D01*
X91958237Y-115355591D01*
X92103567Y-115262073D01*
X92201064Y-115119381D01*
X92235365Y-114950000D01*
X92235365Y-114577000D01*
X93938657Y-114577000D01*
X93987927Y-114653567D01*
X94023000Y-114677531D01*
X94023000Y-115679399D01*
X93943493Y-115694359D01*
X93798163Y-115787877D01*
X93700666Y-115930569D01*
X93666365Y-116099950D01*
X93666365Y-116900050D01*
X93696139Y-117058287D01*
X93789657Y-117203617D01*
X93932349Y-117301114D01*
X94101730Y-117335415D01*
X94873000Y-117335415D01*
X94873000Y-120100000D01*
X94913115Y-120301675D01*
X94960773Y-120373000D01*
X93066307Y-120373000D01*
X93025000Y-120364635D01*
X91775000Y-120364635D01*
X91730543Y-120373000D01*
X91083976Y-120373000D01*
X89235365Y-118524389D01*
X89235365Y-116700000D01*
X89205591Y-116541763D01*
X89112073Y-116396433D01*
X88969381Y-116298936D01*
X88800000Y-116264635D01*
X87000000Y-116264635D01*
X86841763Y-116294409D01*
X86696433Y-116387927D01*
X86598936Y-116530619D01*
X86564635Y-116700000D01*
X75435365Y-116700000D01*
X75405591Y-116541763D01*
X75312073Y-116396433D01*
X75169381Y-116298936D01*
X75000000Y-116264635D01*
X74576917Y-116264635D01*
X74885591Y-116066009D01*
X75234252Y-115555727D01*
X75356915Y-114950000D01*
X75356915Y-113150000D01*
X75250439Y-112584128D01*
X74916009Y-112064409D01*
X74405727Y-111715748D01*
X73800000Y-111593085D01*
X72352342Y-111593085D01*
X72000000Y-111523000D01*
X69827000Y-111523000D01*
X69827000Y-110797157D01*
X69840597Y-110730014D01*
X69887927Y-110803567D01*
X70030619Y-110901064D01*
X70200000Y-110935365D01*
X73800000Y-110935365D01*
X73958237Y-110905591D01*
X74103567Y-110812073D01*
X74201064Y-110669381D01*
X74235365Y-110500000D01*
X74235365Y-108700000D01*
X74205591Y-108541763D01*
X74112073Y-108396433D01*
X73969381Y-108298936D01*
X73800000Y-108264635D01*
X70200000Y-108264635D01*
X70041763Y-108294409D01*
X69896433Y-108387927D01*
X69886285Y-108402779D01*
X69840439Y-108159128D01*
X69827000Y-108138243D01*
X69827000Y-106258884D01*
X69887927Y-106353567D01*
X70030619Y-106451064D01*
X70200000Y-106485365D01*
X73800000Y-106485365D01*
X73958237Y-106455591D01*
X74103567Y-106362073D01*
X74201064Y-106219381D01*
X74235365Y-106050000D01*
X74235365Y-104250000D01*
X74205591Y-104091763D01*
X74112073Y-103946433D01*
X73969381Y-103848936D01*
X73800000Y-103814635D01*
X70200000Y-103814635D01*
X70041763Y-103844409D01*
X69896433Y-103937927D01*
X69827000Y-104039546D01*
X69827000Y-101808884D01*
X69887927Y-101903567D01*
X70030619Y-102001064D01*
X70200000Y-102035365D01*
X73800000Y-102035365D01*
X73958237Y-102005591D01*
X74103567Y-101912073D01*
X74201064Y-101769381D01*
X74235365Y-101600000D01*
X74235365Y-99800000D01*
X87764635Y-99800000D01*
X87764635Y-101600000D01*
X87794409Y-101758237D01*
X87887927Y-101903567D01*
X88030619Y-102001064D01*
X88200000Y-102035365D01*
X91800000Y-102035365D01*
X91958237Y-102005591D01*
X92103567Y-101912073D01*
X92201064Y-101769381D01*
X92235365Y-101600000D01*
X92235365Y-99800000D01*
X92205591Y-99641763D01*
X92112073Y-99496433D01*
X91969381Y-99398936D01*
X91800000Y-99364635D01*
X88200000Y-99364635D01*
X88041763Y-99394409D01*
X87896433Y-99487927D01*
X87798936Y-99630619D01*
X87764635Y-99800000D01*
X74235365Y-99800000D01*
X74205591Y-99641763D01*
X74112073Y-99496433D01*
X73969381Y-99398936D01*
X73800000Y-99364635D01*
X70200000Y-99364635D01*
X70041763Y-99394409D01*
X69896433Y-99487927D01*
X69827000Y-99589546D01*
X69827000Y-97358884D01*
X69887927Y-97453567D01*
X70030619Y-97551064D01*
X70200000Y-97585365D01*
X73800000Y-97585365D01*
X73958237Y-97555591D01*
X74103567Y-97462073D01*
X74201064Y-97319381D01*
X74235365Y-97150000D01*
X74235365Y-95350000D01*
X74205591Y-95191763D01*
X74112073Y-95046433D01*
X74015109Y-94980181D01*
X75772645Y-93222645D01*
X75886885Y-93051675D01*
X75927000Y-92850000D01*
X75927000Y-88018290D01*
X77718291Y-86227000D01*
X87835572Y-86227000D01*
X87798936Y-86280619D01*
X87764635Y-86450000D01*
X87764635Y-88250000D01*
X87794409Y-88408237D01*
X87887927Y-88553567D01*
X88030619Y-88651064D01*
X88200000Y-88685365D01*
X91640075Y-88685365D01*
X92073000Y-89118290D01*
X92073000Y-90569736D01*
X91969381Y-90498936D01*
X91800000Y-90464635D01*
X88200000Y-90464635D01*
X88041763Y-90494409D01*
X87896433Y-90587927D01*
X87798936Y-90730619D01*
X87764635Y-90900000D01*
X87764635Y-92700000D01*
X87794409Y-92858237D01*
X87887927Y-93003567D01*
X88030619Y-93101064D01*
X88200000Y-93135365D01*
X91800000Y-93135365D01*
X91958237Y-93105591D01*
X92073000Y-93031742D01*
X92073000Y-93900000D01*
X92113115Y-94101675D01*
X92227355Y-94272645D01*
X95327355Y-97372645D01*
X95498325Y-97486885D01*
X95700000Y-97527000D01*
X102900000Y-97527000D01*
X103101675Y-97486885D01*
X103272645Y-97372645D01*
X110968290Y-89677000D01*
X114820831Y-89677000D01*
X114837927Y-89703567D01*
X114980619Y-89801064D01*
X115150000Y-89835365D01*
X116050000Y-89835365D01*
X116208237Y-89805591D01*
X116353567Y-89712073D01*
X116377531Y-89677000D01*
X116550000Y-89677000D01*
X116751675Y-89636885D01*
X116922645Y-89522645D01*
X117472645Y-88972646D01*
X117586884Y-88801675D01*
X117586885Y-88801674D01*
X117627000Y-88600000D01*
X117627000Y-84142454D01*
X117800688Y-83969070D01*
X117926856Y-83665222D01*
X117927143Y-83336221D01*
X117801505Y-83032154D01*
X117569070Y-82799312D01*
X117265222Y-82673144D01*
X116936221Y-82672857D01*
X116632154Y-82798495D01*
X116399312Y-83030930D01*
X116273144Y-83334778D01*
X116272924Y-83587378D01*
X116210000Y-83574635D01*
X114990000Y-83574635D01*
X114831763Y-83604409D01*
X114781831Y-83636540D01*
X114326929Y-83181639D01*
X114327143Y-82936221D01*
X114201505Y-82632154D01*
X113969070Y-82399312D01*
X113952753Y-82392537D01*
X115928698Y-80416592D01*
X116354131Y-80240806D01*
X116473000Y-80122144D01*
X116473000Y-81300000D01*
X116513115Y-81501675D01*
X116627355Y-81672645D01*
X117877355Y-82922645D01*
X118048325Y-83036885D01*
X118250000Y-83077000D01*
X118520831Y-83077000D01*
X118537927Y-83103567D01*
X118680619Y-83201064D01*
X118850000Y-83235365D01*
X119240075Y-83235365D01*
X121381787Y-85377077D01*
X121347133Y-85399377D01*
X121249636Y-85542069D01*
X121215335Y-85711450D01*
X121215335Y-87908550D01*
X121245109Y-88066787D01*
X121338627Y-88212117D01*
X121481319Y-88309614D01*
X121650700Y-88343915D01*
X123149300Y-88343915D01*
X123307537Y-88314141D01*
X123452867Y-88220623D01*
X123550364Y-88077931D01*
X123584665Y-87908550D01*
X123584665Y-85711450D01*
X123554891Y-85553213D01*
X123461373Y-85407883D01*
X123318681Y-85310386D01*
X123149300Y-85276085D01*
X122771375Y-85276085D01*
X121859069Y-84363779D01*
X133172857Y-84363779D01*
X133298495Y-84667846D01*
X133530930Y-84900688D01*
X133834778Y-85026856D01*
X134163779Y-85027143D01*
X134467846Y-84901505D01*
X134700688Y-84669070D01*
X134826856Y-84365222D01*
X134827143Y-84036221D01*
X134777000Y-83914866D01*
X134777000Y-83279169D01*
X134803567Y-83262073D01*
X134901064Y-83119381D01*
X134935365Y-82950000D01*
X134935365Y-82050000D01*
X134905591Y-81891763D01*
X134812073Y-81746433D01*
X134669381Y-81648936D01*
X134500000Y-81614635D01*
X134000000Y-81614635D01*
X133841763Y-81644409D01*
X133696433Y-81737927D01*
X133598936Y-81880619D01*
X133564635Y-82050000D01*
X133564635Y-82950000D01*
X133594409Y-83108237D01*
X133687927Y-83253567D01*
X133723000Y-83277531D01*
X133723000Y-83419639D01*
X133532154Y-83498495D01*
X133299312Y-83730930D01*
X133173144Y-84034778D01*
X133172857Y-84363779D01*
X121859069Y-84363779D01*
X121313176Y-83817886D01*
X121334778Y-83826856D01*
X121663779Y-83827143D01*
X121967846Y-83701505D01*
X122200688Y-83469070D01*
X122326856Y-83165222D01*
X122327071Y-82918219D01*
X124072645Y-81172645D01*
X124186885Y-81001675D01*
X124218447Y-80842995D01*
X125522788Y-80842995D01*
X125709194Y-81294131D01*
X126054053Y-81639593D01*
X126504864Y-81826786D01*
X126992995Y-81827212D01*
X127444131Y-81640806D01*
X127789593Y-81295947D01*
X127976786Y-80845136D01*
X127977212Y-80357005D01*
X127790806Y-79905869D01*
X127445947Y-79560407D01*
X126995136Y-79373214D01*
X126507005Y-79372788D01*
X126055869Y-79559194D01*
X125710407Y-79904053D01*
X125523214Y-80354864D01*
X125522788Y-80842995D01*
X124218447Y-80842995D01*
X124227000Y-80800000D01*
X124227000Y-78818290D01*
X124718290Y-78327000D01*
X132381710Y-78327000D01*
X133427355Y-79372645D01*
X133567729Y-79466441D01*
X133594409Y-79608237D01*
X133687927Y-79753567D01*
X133830619Y-79851064D01*
X134000000Y-79885365D01*
X134500000Y-79885365D01*
X134658237Y-79855591D01*
X134803567Y-79762073D01*
X134901064Y-79619381D01*
X134935365Y-79450000D01*
X134935365Y-78550000D01*
X134905591Y-78391763D01*
X134812073Y-78246433D01*
X134669381Y-78148936D01*
X134500000Y-78114635D01*
X134000000Y-78114635D01*
X133841763Y-78144409D01*
X133749238Y-78203948D01*
X133047290Y-77502000D01*
X140498000Y-77502000D01*
X140498000Y-111137285D01*
X136973000Y-111137285D01*
X136973000Y-115862714D01*
X140498000Y-115862714D01*
X140498000Y-129498000D01*
X133110043Y-129498000D01*
X133402131Y-129206422D01*
X133726630Y-128424943D01*
X133727368Y-127578770D01*
X133404234Y-126796726D01*
X132806422Y-126197869D01*
X132024943Y-125873370D01*
X131178770Y-125872632D01*
X130396726Y-126195766D01*
X129797869Y-126793578D01*
X129473370Y-127575057D01*
X129472632Y-128421230D01*
X129795766Y-129203274D01*
X130089978Y-129498000D01*
X81034310Y-129498000D01*
X81267846Y-129401505D01*
X81500688Y-129169070D01*
X81626856Y-128865222D01*
X81627143Y-128536221D01*
X81501505Y-128232154D01*
X81269070Y-127999312D01*
X80965222Y-127873144D01*
X80636221Y-127872857D01*
X80332154Y-127998495D01*
X80099312Y-128230930D01*
X79973144Y-128534778D01*
X79973111Y-128573000D01*
X74568290Y-128573000D01*
X73685365Y-127690075D01*
X73685365Y-127300000D01*
X73655591Y-127141763D01*
X73562073Y-126996433D01*
X73419381Y-126898936D01*
X73250000Y-126864635D01*
X72350000Y-126864635D01*
X72191763Y-126894409D01*
X72046433Y-126987927D01*
X71948936Y-127130619D01*
X71914635Y-127300000D01*
X71914635Y-127800000D01*
X71944409Y-127958237D01*
X72037927Y-128103567D01*
X72180619Y-128201064D01*
X72350000Y-128235365D01*
X72740075Y-128235365D01*
X73977355Y-129472645D01*
X74015301Y-129498000D01*
X55202000Y-129498000D01*
X55202000Y-127119330D01*
X59449400Y-127119330D01*
X59449400Y-127480670D01*
X59547641Y-127974561D01*
X59827408Y-128393262D01*
X60246109Y-128673029D01*
X60740000Y-128771270D01*
X61233891Y-128673029D01*
X61652592Y-128393262D01*
X61932359Y-127974561D01*
X62010000Y-127584233D01*
X62087641Y-127974561D01*
X62367408Y-128393262D01*
X62786109Y-128673029D01*
X63280000Y-128771270D01*
X63773891Y-128673029D01*
X64192592Y-128393262D01*
X64472359Y-127974561D01*
X64570600Y-127480670D01*
X64570600Y-127119330D01*
X64510102Y-126815188D01*
X65698290Y-125627000D01*
X67830942Y-125627000D01*
X67530368Y-125751195D01*
X66963186Y-126317388D01*
X66655851Y-127057533D01*
X66655151Y-127858951D01*
X66961195Y-128599632D01*
X67527388Y-129166814D01*
X68267533Y-129474149D01*
X69068951Y-129474849D01*
X69809632Y-129168805D01*
X70376814Y-128602612D01*
X70684149Y-127862467D01*
X70684849Y-127061049D01*
X70378805Y-126320368D01*
X69812612Y-125753186D01*
X69508722Y-125627000D01*
X71951409Y-125627000D01*
X71948936Y-125630619D01*
X71914635Y-125800000D01*
X71914635Y-126300000D01*
X71944409Y-126458237D01*
X72037927Y-126603567D01*
X72180619Y-126701064D01*
X72350000Y-126735365D01*
X73250000Y-126735365D01*
X73408237Y-126705591D01*
X73553567Y-126612073D01*
X73651064Y-126469381D01*
X73685365Y-126300000D01*
X73685365Y-125800000D01*
X73655591Y-125641763D01*
X73562073Y-125496433D01*
X73419381Y-125398936D01*
X73266622Y-125368001D01*
X73172645Y-125227355D01*
X72672645Y-124727355D01*
X72501675Y-124613115D01*
X72300000Y-124573000D01*
X65480000Y-124573000D01*
X65278325Y-124613115D01*
X65107355Y-124727355D01*
X63854127Y-125980583D01*
X63773891Y-125926971D01*
X63280000Y-125828730D01*
X63052786Y-125873926D01*
X65199712Y-123727000D01*
X74040288Y-123727000D01*
X76656644Y-126343356D01*
X76860057Y-126479272D01*
X77100000Y-126527000D01*
X81837874Y-126527000D01*
X81600407Y-126764053D01*
X81413214Y-127214864D01*
X81412788Y-127702995D01*
X81599194Y-128154131D01*
X81944053Y-128499593D01*
X82394864Y-128686786D01*
X82882995Y-128687212D01*
X83334131Y-128500806D01*
X83679593Y-128155947D01*
X83866786Y-127705136D01*
X83867212Y-127217005D01*
X83680806Y-126765869D01*
X83442354Y-126527000D01*
X84377874Y-126527000D01*
X84140407Y-126764053D01*
X83953214Y-127214864D01*
X83952788Y-127702995D01*
X84139194Y-128154131D01*
X84484053Y-128499593D01*
X84934864Y-128686786D01*
X85422995Y-128687212D01*
X85874131Y-128500806D01*
X86219593Y-128155947D01*
X86406786Y-127705136D01*
X86407212Y-127217005D01*
X86220806Y-126765869D01*
X85982354Y-126527000D01*
X86917874Y-126527000D01*
X86680407Y-126764053D01*
X86493214Y-127214864D01*
X86492788Y-127702995D01*
X86679194Y-128154131D01*
X87024053Y-128499593D01*
X87474864Y-128686786D01*
X87962995Y-128687212D01*
X88414131Y-128500806D01*
X88759593Y-128155947D01*
X88946786Y-127705136D01*
X88947212Y-127217005D01*
X88760806Y-126765869D01*
X88522354Y-126527000D01*
X89457874Y-126527000D01*
X89220407Y-126764053D01*
X89033214Y-127214864D01*
X89032788Y-127702995D01*
X89219194Y-128154131D01*
X89564053Y-128499593D01*
X90014864Y-128686786D01*
X90502995Y-128687212D01*
X90954131Y-128500806D01*
X91299593Y-128155947D01*
X91486786Y-127705136D01*
X91487212Y-127217005D01*
X91300806Y-126765869D01*
X91062354Y-126527000D01*
X91340288Y-126527000D01*
X91706695Y-126893407D01*
X91573214Y-127214864D01*
X91572788Y-127702995D01*
X91759194Y-128154131D01*
X92104053Y-128499593D01*
X92554864Y-128686786D01*
X93042995Y-128687212D01*
X93494131Y-128500806D01*
X93839593Y-128155947D01*
X94026786Y-127705136D01*
X94026787Y-127702995D01*
X99192788Y-127702995D01*
X99379194Y-128154131D01*
X99724053Y-128499593D01*
X100174864Y-128686786D01*
X100662995Y-128687212D01*
X101114131Y-128500806D01*
X101459593Y-128155947D01*
X101646786Y-127705136D01*
X101646912Y-127560990D01*
X101651115Y-127539861D01*
X102763976Y-126427000D01*
X104798049Y-126427000D01*
X104460407Y-126764053D01*
X104273214Y-127214864D01*
X104272788Y-127702995D01*
X104459194Y-128154131D01*
X104804053Y-128499593D01*
X105254864Y-128686786D01*
X105742995Y-128687212D01*
X106194131Y-128500806D01*
X106539593Y-128155947D01*
X106726786Y-127705136D01*
X106727212Y-127217005D01*
X106540806Y-126765869D01*
X106202528Y-126427000D01*
X107338049Y-126427000D01*
X107000407Y-126764053D01*
X106813214Y-127214864D01*
X106812788Y-127702995D01*
X106999194Y-128154131D01*
X107344053Y-128499593D01*
X107794864Y-128686786D01*
X108282995Y-128687212D01*
X108734131Y-128500806D01*
X109079593Y-128155947D01*
X109266786Y-127705136D01*
X109266787Y-127702995D01*
X109352788Y-127702995D01*
X109539194Y-128154131D01*
X109884053Y-128499593D01*
X110334864Y-128686786D01*
X110822995Y-128687212D01*
X111274131Y-128500806D01*
X111619593Y-128155947D01*
X111806786Y-127705136D01*
X111806787Y-127702995D01*
X111892788Y-127702995D01*
X112079194Y-128154131D01*
X112424053Y-128499593D01*
X112874864Y-128686786D01*
X113362995Y-128687212D01*
X113814131Y-128500806D01*
X114159593Y-128155947D01*
X114346786Y-127705136D01*
X114347212Y-127217005D01*
X114207598Y-126879114D01*
X114434712Y-126652000D01*
X114732656Y-126652000D01*
X114620407Y-126764053D01*
X114433214Y-127214864D01*
X114432788Y-127702995D01*
X114619194Y-128154131D01*
X114964053Y-128499593D01*
X115414864Y-128686786D01*
X115902995Y-128687212D01*
X116354131Y-128500806D01*
X116699593Y-128155947D01*
X116886786Y-127705136D01*
X116887212Y-127217005D01*
X116858703Y-127148009D01*
X117102001Y-126904711D01*
X116973214Y-127214864D01*
X116972788Y-127702995D01*
X117159194Y-128154131D01*
X117504053Y-128499593D01*
X117954864Y-128686786D01*
X118442995Y-128687212D01*
X118894131Y-128500806D01*
X119239593Y-128155947D01*
X119426786Y-127705136D01*
X119427212Y-127217005D01*
X119240806Y-126765869D01*
X119002354Y-126527000D01*
X126150000Y-126527000D01*
X126389943Y-126479272D01*
X126593356Y-126343356D01*
X127959712Y-124977000D01*
X137595784Y-124977000D01*
X137925606Y-125307397D01*
X138362456Y-125488793D01*
X138835469Y-125489206D01*
X139272635Y-125308573D01*
X139607397Y-124974394D01*
X139788793Y-124537544D01*
X139789206Y-124064531D01*
X139608573Y-123627365D01*
X139274394Y-123292603D01*
X138837544Y-123111207D01*
X138364531Y-123110794D01*
X137927365Y-123291427D01*
X137592603Y-123625606D01*
X137552161Y-123723000D01*
X129177000Y-123723000D01*
X129177000Y-118500000D01*
X129129272Y-118260057D01*
X128993356Y-118056644D01*
X126957942Y-116021230D01*
X129472632Y-116021230D01*
X129795766Y-116803274D01*
X130393578Y-117402131D01*
X131175057Y-117726630D01*
X132021230Y-117727368D01*
X132803274Y-117404234D01*
X133402131Y-116806422D01*
X133726630Y-116024943D01*
X133727368Y-115178770D01*
X133404234Y-114396726D01*
X132806422Y-113797869D01*
X132024943Y-113473370D01*
X131178770Y-113472632D01*
X130396726Y-113795766D01*
X129797869Y-114393578D01*
X129473370Y-115175057D01*
X129472632Y-116021230D01*
X126957942Y-116021230D01*
X125150657Y-114213945D01*
X125153567Y-114212073D01*
X125251064Y-114069381D01*
X125285365Y-113900000D01*
X125285365Y-113400000D01*
X125255591Y-113241763D01*
X125162073Y-113096433D01*
X125019381Y-112998936D01*
X124850000Y-112964635D01*
X123950000Y-112964635D01*
X123791763Y-112994409D01*
X123646433Y-113087927D01*
X123548936Y-113230619D01*
X123514635Y-113400000D01*
X123514635Y-113900000D01*
X123544409Y-114058237D01*
X123637927Y-114203567D01*
X123780619Y-114301064D01*
X123782652Y-114301476D01*
X123773000Y-114350000D01*
X123820728Y-114589942D01*
X123956644Y-114793356D01*
X124136288Y-114973000D01*
X123409712Y-114973000D01*
X122650657Y-114213945D01*
X122653567Y-114212073D01*
X122751064Y-114069381D01*
X122785365Y-113900000D01*
X122785365Y-113400000D01*
X122755591Y-113241763D01*
X122662073Y-113096433D01*
X122519381Y-112998936D01*
X122350000Y-112964635D01*
X121450000Y-112964635D01*
X121291763Y-112994409D01*
X121146433Y-113087927D01*
X121048936Y-113230619D01*
X121014635Y-113400000D01*
X121014635Y-113900000D01*
X121044409Y-114058237D01*
X121137927Y-114203567D01*
X121280619Y-114301064D01*
X121282652Y-114301476D01*
X121273000Y-114350000D01*
X121320728Y-114589942D01*
X121456644Y-114793356D01*
X122706644Y-116043356D01*
X122910058Y-116179273D01*
X123150000Y-116227000D01*
X124040288Y-116227000D01*
X126873000Y-119059712D01*
X126873000Y-123040288D01*
X126240288Y-123673000D01*
X125127429Y-123673000D01*
X125108573Y-123627365D01*
X124774394Y-123292603D01*
X124337544Y-123111207D01*
X123864531Y-123110794D01*
X123427365Y-123291427D01*
X123092603Y-123625606D01*
X122911207Y-124062456D01*
X122911198Y-124073000D01*
X121895465Y-124073000D01*
X122446814Y-123522612D01*
X122754149Y-122782467D01*
X122754849Y-121981049D01*
X122448805Y-121240368D01*
X121882612Y-120673186D01*
X121142467Y-120365851D01*
X120341049Y-120365151D01*
X119600368Y-120671195D01*
X119327000Y-120944086D01*
X119327000Y-119927000D01*
X123072571Y-119927000D01*
X123091427Y-119972635D01*
X123425606Y-120307397D01*
X123862456Y-120488793D01*
X124335469Y-120489206D01*
X124772635Y-120308573D01*
X125107397Y-119974394D01*
X125288793Y-119537544D01*
X125289206Y-119064531D01*
X125108573Y-118627365D01*
X124774394Y-118292603D01*
X124337544Y-118111207D01*
X123864531Y-118110794D01*
X123427365Y-118291427D01*
X123092603Y-118625606D01*
X123072923Y-118673000D01*
X119327000Y-118673000D01*
X119327000Y-114350000D01*
X119317040Y-114299927D01*
X119453567Y-114212073D01*
X119551064Y-114069381D01*
X119585365Y-113900000D01*
X119585365Y-113400000D01*
X119555591Y-113241763D01*
X119462073Y-113096433D01*
X119319381Y-112998936D01*
X119150000Y-112964635D01*
X118250000Y-112964635D01*
X118091763Y-112994409D01*
X117946433Y-113087927D01*
X117848936Y-113230619D01*
X117814635Y-113400000D01*
X117814635Y-113900000D01*
X117844409Y-114058237D01*
X117937927Y-114203567D01*
X118080619Y-114301064D01*
X118082652Y-114301476D01*
X118073000Y-114350000D01*
X118073000Y-121240288D01*
X117856644Y-121456644D01*
X117720728Y-121660057D01*
X117673000Y-121900000D01*
X117673000Y-123390288D01*
X115665288Y-125398000D01*
X114175000Y-125398000D01*
X113935057Y-125445728D01*
X113731644Y-125581644D01*
X113080323Y-126232965D01*
X112877005Y-126232788D01*
X112425869Y-126419194D01*
X112080407Y-126764053D01*
X111893214Y-127214864D01*
X111892788Y-127702995D01*
X111806787Y-127702995D01*
X111807212Y-127217005D01*
X111620806Y-126765869D01*
X111275947Y-126420407D01*
X110825136Y-126233214D01*
X110337005Y-126232788D01*
X109885869Y-126419194D01*
X109540407Y-126764053D01*
X109353214Y-127214864D01*
X109352788Y-127702995D01*
X109266787Y-127702995D01*
X109267212Y-127217005D01*
X109080806Y-126765869D01*
X108735947Y-126420407D01*
X108285136Y-126233214D01*
X107939614Y-126232912D01*
X108055488Y-126155488D01*
X111152036Y-123058940D01*
X111212927Y-123153567D01*
X111355619Y-123251064D01*
X111525000Y-123285365D01*
X112275000Y-123285365D01*
X112433237Y-123255591D01*
X112578567Y-123162073D01*
X112676064Y-123019381D01*
X112710365Y-122850000D01*
X112710365Y-122155656D01*
X112727355Y-122172646D01*
X112739635Y-122180851D01*
X112739635Y-122300000D01*
X112769409Y-122458237D01*
X112862927Y-122603567D01*
X113005619Y-122701064D01*
X113175000Y-122735365D01*
X114425000Y-122735365D01*
X114583237Y-122705591D01*
X114728567Y-122612073D01*
X114826064Y-122469381D01*
X114860365Y-122300000D01*
X114860365Y-121300000D01*
X114830591Y-121141763D01*
X114737073Y-120996433D01*
X114594381Y-120898936D01*
X114425000Y-120864635D01*
X113263103Y-120864635D01*
X113296437Y-120814747D01*
X113367000Y-120460000D01*
X113367000Y-120258125D01*
X113438567Y-120212073D01*
X113536064Y-120069381D01*
X113570365Y-119900000D01*
X113570365Y-115300000D01*
X113540591Y-115141763D01*
X113447073Y-114996433D01*
X113304381Y-114898936D01*
X113135000Y-114864635D01*
X111745000Y-114864635D01*
X111586763Y-114894409D01*
X111441433Y-114987927D01*
X111343936Y-115130619D01*
X111309635Y-115300000D01*
X111309635Y-119900000D01*
X111339409Y-120058237D01*
X111414341Y-120174683D01*
X107016024Y-124573000D01*
X102380000Y-124573000D01*
X102025253Y-124643563D01*
X101724512Y-124844512D01*
X100336097Y-126232927D01*
X100177005Y-126232788D01*
X99725869Y-126419194D01*
X99380407Y-126764053D01*
X99193214Y-127214864D01*
X99192788Y-127702995D01*
X94026787Y-127702995D01*
X94027212Y-127217005D01*
X93840806Y-126765869D01*
X93495947Y-126420407D01*
X93045136Y-126233214D01*
X92819729Y-126233017D01*
X92043356Y-125456644D01*
X92026155Y-125445151D01*
X91839943Y-125320728D01*
X91600000Y-125273000D01*
X77359712Y-125273000D01*
X74743356Y-122656644D01*
X74735918Y-122651674D01*
X74539943Y-122520728D01*
X74300000Y-122473000D01*
X64940000Y-122473000D01*
X64700058Y-122520727D01*
X64496644Y-122656644D01*
X61227574Y-125925714D01*
X60740000Y-125828730D01*
X60246109Y-125926971D01*
X59827408Y-126206738D01*
X59547641Y-126625439D01*
X59449400Y-127119330D01*
X55202000Y-127119330D01*
X55202000Y-116573000D01*
X57215858Y-116573000D01*
X57215858Y-120127000D01*
X57330143Y-120127000D01*
X57330143Y-123427000D01*
X63269857Y-123427000D01*
X63269857Y-120127000D01*
X66584143Y-120127000D01*
X66584143Y-116573000D01*
X57215858Y-116573000D01*
X55202000Y-116573000D01*
X55202000Y-77502000D01*
X59293085Y-77502000D01*
X59293085Y-78342478D01*
X59293085Y-78342478D01*
G37*
X59293085Y-78342478D02*
X58965356Y-78832959D01*
X58773000Y-79800000D01*
X58773000Y-86673000D01*
X57100000Y-86673000D01*
X57053841Y-86681685D01*
X57011447Y-86708965D01*
X56983006Y-86750590D01*
X56973000Y-86800000D01*
X56973000Y-88635482D01*
X56915748Y-88719273D01*
X56793085Y-89325000D01*
X56793085Y-90075000D01*
X56899561Y-90640872D01*
X56973000Y-90754999D01*
X56973000Y-94135482D01*
X56915748Y-94219273D01*
X56793085Y-94825000D01*
X56793085Y-95575000D01*
X56899561Y-96140872D01*
X56973000Y-96254999D01*
X56973000Y-103935482D01*
X56915748Y-104019273D01*
X56793085Y-104625000D01*
X56793085Y-105375000D01*
X56899561Y-105940872D01*
X56973000Y-106054999D01*
X56973000Y-108435482D01*
X56915748Y-108519273D01*
X56793085Y-109125000D01*
X56793085Y-109875000D01*
X56899561Y-110440872D01*
X56973000Y-110554999D01*
X56973000Y-113000000D01*
X56981685Y-113046159D01*
X57008965Y-113088553D01*
X57050590Y-113116994D01*
X57100000Y-113127000D01*
X64053282Y-113127000D01*
X66763141Y-115836859D01*
X67582959Y-116384644D01*
X68550000Y-116577000D01*
X72000000Y-116577000D01*
X72352342Y-116506915D01*
X72815132Y-116506915D01*
X72798936Y-116530619D01*
X72764635Y-116700000D01*
X72764635Y-120300000D01*
X72794409Y-120458237D01*
X72887927Y-120603567D01*
X73030619Y-120701064D01*
X73200000Y-120735365D01*
X75000000Y-120735365D01*
X75158237Y-120705591D01*
X75303567Y-120612073D01*
X75401064Y-120469381D01*
X75435365Y-120300000D01*
X75435365Y-116700000D01*
X86564635Y-116700000D01*
X86564635Y-120300000D01*
X86594409Y-120458237D01*
X86687927Y-120603567D01*
X86830619Y-120701064D01*
X87000000Y-120735365D01*
X88800000Y-120735365D01*
X88820527Y-120731503D01*
X89589635Y-121500611D01*
X89589635Y-121950000D01*
X89619409Y-122108237D01*
X89712927Y-122253567D01*
X89855619Y-122351064D01*
X90025000Y-122385365D01*
X90775000Y-122385365D01*
X90933237Y-122355591D01*
X91078567Y-122262073D01*
X91102531Y-122227000D01*
X91733693Y-122227000D01*
X91775000Y-122235365D01*
X93025000Y-122235365D01*
X93069457Y-122227000D01*
X102650000Y-122227000D01*
X103004748Y-122156436D01*
X103305488Y-121955488D01*
X103496476Y-121764500D01*
X109337500Y-121764500D01*
X109692248Y-121693936D01*
X109992988Y-121492988D01*
X110555488Y-120930488D01*
X110593900Y-120873000D01*
X110756436Y-120629748D01*
X110827000Y-120275000D01*
X110827000Y-120258125D01*
X110898567Y-120212073D01*
X110996064Y-120069381D01*
X111030365Y-119900000D01*
X111030365Y-115300000D01*
X111000591Y-115141763D01*
X110907073Y-114996433D01*
X110827000Y-114941722D01*
X110827000Y-113585365D01*
X115300000Y-113585365D01*
X115458237Y-113555591D01*
X115603567Y-113462073D01*
X115701064Y-113319381D01*
X115735365Y-113150000D01*
X115735365Y-111963779D01*
X116172857Y-111963779D01*
X116298495Y-112267846D01*
X116530930Y-112500688D01*
X116834778Y-112626856D01*
X117133707Y-112627117D01*
X117148326Y-112636885D01*
X117350000Y-112677000D01*
X117920831Y-112677000D01*
X117937927Y-112703567D01*
X118080619Y-112801064D01*
X118250000Y-112835365D01*
X119150000Y-112835365D01*
X119308237Y-112805591D01*
X119453567Y-112712073D01*
X119477531Y-112677000D01*
X121120831Y-112677000D01*
X121137927Y-112703567D01*
X121280619Y-112801064D01*
X121450000Y-112835365D01*
X122350000Y-112835365D01*
X122508237Y-112805591D01*
X122653567Y-112712073D01*
X122677531Y-112677000D01*
X123620831Y-112677000D01*
X123637927Y-112703567D01*
X123780619Y-112801064D01*
X123950000Y-112835365D01*
X124850000Y-112835365D01*
X125008237Y-112805591D01*
X125153567Y-112712073D01*
X125251064Y-112569381D01*
X125285365Y-112400000D01*
X125285365Y-111900000D01*
X125255591Y-111741763D01*
X125162073Y-111596433D01*
X125019381Y-111498936D01*
X124850000Y-111464635D01*
X123950000Y-111464635D01*
X123791763Y-111494409D01*
X123646433Y-111587927D01*
X123622469Y-111623000D01*
X122679169Y-111623000D01*
X122662073Y-111596433D01*
X122519381Y-111498936D01*
X122350000Y-111464635D01*
X121450000Y-111464635D01*
X121291763Y-111494409D01*
X121146433Y-111587927D01*
X121122469Y-111623000D01*
X119479169Y-111623000D01*
X119462073Y-111596433D01*
X119319381Y-111498936D01*
X119150000Y-111464635D01*
X118250000Y-111464635D01*
X118091763Y-111494409D01*
X117946433Y-111587927D01*
X117922469Y-111623000D01*
X117821680Y-111623000D01*
X117701505Y-111332154D01*
X117469070Y-111099312D01*
X117165222Y-110973144D01*
X116836221Y-110972857D01*
X116532154Y-111098495D01*
X116299312Y-111330930D01*
X116173144Y-111634778D01*
X116172857Y-111963779D01*
X115735365Y-111963779D01*
X115735365Y-103750000D01*
X115705591Y-103591763D01*
X115612073Y-103446433D01*
X115469381Y-103348936D01*
X115300000Y-103314635D01*
X104500000Y-103314635D01*
X104341763Y-103344409D01*
X104196433Y-103437927D01*
X104098936Y-103580619D01*
X104064635Y-103750000D01*
X104064635Y-106819345D01*
X98045700Y-100800410D01*
X98101064Y-100719381D01*
X98135365Y-100550000D01*
X98135365Y-99650000D01*
X98105591Y-99491763D01*
X98012073Y-99346433D01*
X97944364Y-99300169D01*
X98003567Y-99262073D01*
X98101064Y-99119381D01*
X98135365Y-98950000D01*
X98135365Y-98050000D01*
X98264635Y-98050000D01*
X98264635Y-98950000D01*
X98294409Y-99108237D01*
X98387927Y-99253567D01*
X98530619Y-99351064D01*
X98700000Y-99385365D01*
X99200000Y-99385365D01*
X99358237Y-99355591D01*
X99503567Y-99262073D01*
X99601064Y-99119381D01*
X99619772Y-99027000D01*
X103900000Y-99027000D01*
X104101675Y-98986885D01*
X104272645Y-98872645D01*
X107440183Y-95705108D01*
X107580619Y-95801064D01*
X107750000Y-95835365D01*
X108650000Y-95835365D01*
X108808237Y-95805591D01*
X108953567Y-95712073D01*
X108977531Y-95677000D01*
X109450000Y-95677000D01*
X109651675Y-95636885D01*
X109822645Y-95522645D01*
X110471145Y-94874146D01*
X110585384Y-94703175D01*
X110585385Y-94703174D01*
X110625500Y-94501500D01*
X110625500Y-94331843D01*
X110702067Y-94282573D01*
X110732881Y-94237475D01*
X110756427Y-94274067D01*
X110899119Y-94371564D01*
X111068500Y-94405865D01*
X111668500Y-94405865D01*
X111826737Y-94376091D01*
X111972067Y-94282573D01*
X112002881Y-94237475D01*
X112026427Y-94274067D01*
X112169119Y-94371564D01*
X112338500Y-94405865D01*
X112507423Y-94405865D01*
X111340340Y-95572948D01*
X111236221Y-95572857D01*
X110932154Y-95698495D01*
X110699312Y-95930930D01*
X110573144Y-96234778D01*
X110572857Y-96563779D01*
X110698495Y-96867846D01*
X110741500Y-96910926D01*
X110741500Y-97542722D01*
X110734119Y-97553525D01*
X110710573Y-97516933D01*
X110625500Y-97458805D01*
X110625500Y-97298500D01*
X110585385Y-97096826D01*
X110536608Y-97023826D01*
X110471145Y-96925854D01*
X109822645Y-96277355D01*
X109651675Y-96163115D01*
X109450000Y-96123000D01*
X108979169Y-96123000D01*
X108962073Y-96096433D01*
X108819381Y-95998936D01*
X108650000Y-95964635D01*
X107750000Y-95964635D01*
X107591763Y-95994409D01*
X107446433Y-96087927D01*
X107348936Y-96230619D01*
X107314635Y-96400000D01*
X107314635Y-96900000D01*
X107344409Y-97058237D01*
X107437927Y-97203567D01*
X107580619Y-97301064D01*
X107750000Y-97335365D01*
X108650000Y-97335365D01*
X108808237Y-97305591D01*
X108953567Y-97212073D01*
X108977531Y-97177000D01*
X109231710Y-97177000D01*
X109536432Y-97481723D01*
X109494933Y-97508427D01*
X109397436Y-97651119D01*
X109363135Y-97820500D01*
X109363135Y-99370500D01*
X109392909Y-99528737D01*
X109471500Y-99650870D01*
X109471500Y-100098500D01*
X109519228Y-100338443D01*
X109655144Y-100541856D01*
X110856644Y-101743356D01*
X111060058Y-101879273D01*
X111300000Y-101927000D01*
X115248635Y-101927000D01*
X115248635Y-102316000D01*
X115278409Y-102474237D01*
X115371927Y-102619567D01*
X115514619Y-102717064D01*
X115684000Y-102751365D01*
X116103109Y-102751365D01*
X116120728Y-102839943D01*
X116236438Y-103013115D01*
X116256644Y-103043356D01*
X118663375Y-105450087D01*
X118663375Y-106600150D01*
X118693149Y-106758387D01*
X118786667Y-106903717D01*
X118929359Y-107001214D01*
X119098740Y-107035515D01*
X122598860Y-107035515D01*
X122757097Y-107005741D01*
X122902427Y-106912223D01*
X122999924Y-106769531D01*
X123034225Y-106600150D01*
X123034225Y-104199850D01*
X125165775Y-104199850D01*
X125165775Y-106600150D01*
X125195549Y-106758387D01*
X125289067Y-106903717D01*
X125431759Y-107001214D01*
X125601140Y-107035515D01*
X129101260Y-107035515D01*
X129141274Y-107027986D01*
X130723209Y-108609921D01*
X130722779Y-109102897D01*
X130916781Y-109572417D01*
X131275693Y-109931957D01*
X131744875Y-110126778D01*
X132252897Y-110127221D01*
X132722417Y-109933219D01*
X133081957Y-109574307D01*
X133276778Y-109105125D01*
X133277221Y-108597103D01*
X133083219Y-108127583D01*
X132724307Y-107768043D01*
X132255125Y-107573222D01*
X131747103Y-107572779D01*
X131543584Y-107656872D01*
X129536625Y-105649913D01*
X129536625Y-104199850D01*
X129506851Y-104041613D01*
X129413333Y-103896283D01*
X129270641Y-103798786D01*
X129101260Y-103764485D01*
X125601140Y-103764485D01*
X125442903Y-103794259D01*
X125297573Y-103887777D01*
X125200076Y-104030469D01*
X125165775Y-104199850D01*
X123034225Y-104199850D01*
X123004451Y-104041613D01*
X122910933Y-103896283D01*
X122768241Y-103798786D01*
X122598860Y-103764485D01*
X119098740Y-103764485D01*
X118940503Y-103794259D01*
X118843434Y-103856722D01*
X117734581Y-102747869D01*
X117874237Y-102721591D01*
X118019567Y-102628073D01*
X118117064Y-102485381D01*
X118151365Y-102316000D01*
X118151365Y-101500000D01*
X122573000Y-101500000D01*
X122643564Y-101854748D01*
X122844512Y-102155488D01*
X123145252Y-102356436D01*
X123500000Y-102427000D01*
X136600000Y-102427000D01*
X136954748Y-102356436D01*
X137255488Y-102155488D01*
X140075348Y-99335628D01*
X140092228Y-99310365D01*
X140276296Y-99034888D01*
X140346860Y-98680140D01*
X140346860Y-79000000D01*
X140276296Y-78645252D01*
X140075348Y-78344512D01*
X139774608Y-78143564D01*
X139419860Y-78073000D01*
X139065112Y-78143564D01*
X139031751Y-78165855D01*
X138850520Y-78165855D01*
X138692283Y-78195629D01*
X138546953Y-78289147D01*
X138500154Y-78357640D01*
X138461553Y-78297653D01*
X138318861Y-78200156D01*
X138149480Y-78165855D01*
X137351920Y-78165855D01*
X137193683Y-78195629D01*
X137048353Y-78289147D01*
X136950856Y-78431839D01*
X136942521Y-78473000D01*
X136420877Y-78473000D01*
X136405591Y-78391763D01*
X136312073Y-78246433D01*
X136169381Y-78148936D01*
X136000000Y-78114635D01*
X135500000Y-78114635D01*
X135341763Y-78144409D01*
X135196433Y-78237927D01*
X135098936Y-78380619D01*
X135064635Y-78550000D01*
X135064635Y-79450000D01*
X135094409Y-79608237D01*
X135187927Y-79753567D01*
X135330619Y-79851064D01*
X135500000Y-79885365D01*
X136000000Y-79885365D01*
X136158237Y-79855591D01*
X136303567Y-79762073D01*
X136401064Y-79619381D01*
X136419772Y-79527000D01*
X136940681Y-79527000D01*
X136946329Y-79557017D01*
X137039847Y-79702347D01*
X137182539Y-79799844D01*
X137351920Y-79834145D01*
X138149480Y-79834145D01*
X138307717Y-79804371D01*
X138453047Y-79710853D01*
X138492860Y-79652585D01*
X138492860Y-81846305D01*
X138461553Y-81797653D01*
X138318861Y-81700156D01*
X138149480Y-81665855D01*
X137351920Y-81665855D01*
X137193683Y-81695629D01*
X137048353Y-81789147D01*
X136950856Y-81931839D01*
X136942521Y-81973000D01*
X136420877Y-81973000D01*
X136405591Y-81891763D01*
X136312073Y-81746433D01*
X136169381Y-81648936D01*
X136000000Y-81614635D01*
X135500000Y-81614635D01*
X135341763Y-81644409D01*
X135196433Y-81737927D01*
X135098936Y-81880619D01*
X135064635Y-82050000D01*
X135064635Y-82950000D01*
X135094409Y-83108237D01*
X135187927Y-83253567D01*
X135330619Y-83351064D01*
X135500000Y-83385365D01*
X136000000Y-83385365D01*
X136158237Y-83355591D01*
X136303567Y-83262073D01*
X136401064Y-83119381D01*
X136419772Y-83027000D01*
X136940681Y-83027000D01*
X136946329Y-83057017D01*
X137039847Y-83202347D01*
X137182539Y-83299844D01*
X137351920Y-83334145D01*
X138149480Y-83334145D01*
X138307717Y-83304371D01*
X138453047Y-83210853D01*
X138492860Y-83152585D01*
X138492860Y-85346305D01*
X138461553Y-85297653D01*
X138318861Y-85200156D01*
X138149480Y-85165855D01*
X137351920Y-85165855D01*
X137193683Y-85195629D01*
X137048353Y-85289147D01*
X136950856Y-85431839D01*
X136942521Y-85473000D01*
X136420877Y-85473000D01*
X136405591Y-85391763D01*
X136312073Y-85246433D01*
X136169381Y-85148936D01*
X136000000Y-85114635D01*
X135500000Y-85114635D01*
X135341763Y-85144409D01*
X135196433Y-85237927D01*
X135098936Y-85380619D01*
X135064635Y-85550000D01*
X135064635Y-86450000D01*
X135094409Y-86608237D01*
X135187927Y-86753567D01*
X135330619Y-86851064D01*
X135500000Y-86885365D01*
X136000000Y-86885365D01*
X136158237Y-86855591D01*
X136303567Y-86762073D01*
X136401064Y-86619381D01*
X136419772Y-86527000D01*
X136940681Y-86527000D01*
X136946329Y-86557017D01*
X137039847Y-86702347D01*
X137182539Y-86799844D01*
X137351920Y-86834145D01*
X138149480Y-86834145D01*
X138307717Y-86804371D01*
X138453047Y-86710853D01*
X138492860Y-86652585D01*
X138492860Y-98296164D01*
X136216024Y-100573000D01*
X125280264Y-100573000D01*
X125351064Y-100469381D01*
X125385365Y-100300000D01*
X125385365Y-99800000D01*
X125355591Y-99641763D01*
X125262073Y-99496433D01*
X125119381Y-99398936D01*
X124950000Y-99364635D01*
X124050000Y-99364635D01*
X123891763Y-99394409D01*
X123746433Y-99487927D01*
X123648936Y-99630619D01*
X123614635Y-99800000D01*
X123614635Y-100300000D01*
X123644409Y-100458237D01*
X123718258Y-100573000D01*
X123500000Y-100573000D01*
X123145252Y-100643564D01*
X122844512Y-100844512D01*
X122643564Y-101145252D01*
X122573000Y-101500000D01*
X118151365Y-101500000D01*
X118151365Y-100577000D01*
X118613531Y-100577000D01*
X118619409Y-100608237D01*
X118712927Y-100753567D01*
X118855619Y-100851064D01*
X119025000Y-100885365D01*
X119775000Y-100885365D01*
X119933237Y-100855591D01*
X120078567Y-100762073D01*
X120176064Y-100619381D01*
X120210365Y-100450000D01*
X120210365Y-100105655D01*
X120214635Y-100109925D01*
X120214635Y-100400000D01*
X120244409Y-100558237D01*
X120337927Y-100703567D01*
X120480619Y-100801064D01*
X120650000Y-100835365D01*
X121550000Y-100835365D01*
X121708237Y-100805591D01*
X121853567Y-100712073D01*
X121951064Y-100569381D01*
X121985365Y-100400000D01*
X121985365Y-99900000D01*
X121955591Y-99741763D01*
X121862073Y-99596433D01*
X121719381Y-99498936D01*
X121550000Y-99464635D01*
X121059925Y-99464635D01*
X120210365Y-98615075D01*
X120210365Y-98300000D01*
X123614635Y-98300000D01*
X123614635Y-98800000D01*
X123644409Y-98958237D01*
X123737927Y-99103567D01*
X123880619Y-99201064D01*
X124050000Y-99235365D01*
X124950000Y-99235365D01*
X125108237Y-99205591D01*
X125253567Y-99112073D01*
X125277531Y-99077000D01*
X125717848Y-99077000D01*
X126133894Y-99493773D01*
X126694928Y-99726735D01*
X127302407Y-99727265D01*
X127863846Y-99495283D01*
X128293773Y-99066106D01*
X128526735Y-98505072D01*
X128527265Y-97897593D01*
X128295283Y-97336154D01*
X127866106Y-96906227D01*
X127305072Y-96673265D01*
X126697593Y-96672735D01*
X126136154Y-96904717D01*
X125706227Y-97333894D01*
X125473265Y-97894928D01*
X125473153Y-98023000D01*
X125279169Y-98023000D01*
X125262073Y-97996433D01*
X125119381Y-97898936D01*
X124950000Y-97864635D01*
X124050000Y-97864635D01*
X123891763Y-97894409D01*
X123746433Y-97987927D01*
X123648936Y-98130619D01*
X123614635Y-98300000D01*
X120210365Y-98300000D01*
X120210365Y-98150000D01*
X120180591Y-97991763D01*
X120087073Y-97846433D01*
X119944381Y-97748936D01*
X119775000Y-97714635D01*
X119025000Y-97714635D01*
X118866763Y-97744409D01*
X118721433Y-97837927D01*
X118623936Y-97980619D01*
X118589635Y-98150000D01*
X118589635Y-98950000D01*
X118619409Y-99108237D01*
X118712927Y-99253567D01*
X118780636Y-99299831D01*
X118721433Y-99337927D01*
X118623936Y-99480619D01*
X118615354Y-99523000D01*
X118208291Y-99523000D01*
X118035823Y-99350532D01*
X118061428Y-99312212D01*
X118171270Y-98760000D01*
X118061428Y-98207788D01*
X117748625Y-97739645D01*
X117280482Y-97426842D01*
X116728270Y-97317000D01*
X116671730Y-97317000D01*
X116231316Y-97404604D01*
X116083356Y-97256644D01*
X116065045Y-97244409D01*
X115879943Y-97120728D01*
X115640000Y-97073000D01*
X114200000Y-97073000D01*
X113960057Y-97120728D01*
X113774955Y-97244409D01*
X113756644Y-97256644D01*
X113628153Y-97385135D01*
X113608500Y-97385135D01*
X113450263Y-97414909D01*
X113304933Y-97508427D01*
X113207436Y-97651119D01*
X113173135Y-97820500D01*
X113173135Y-99370500D01*
X113202909Y-99528737D01*
X113296427Y-99674067D01*
X113439119Y-99771564D01*
X113608500Y-99805865D01*
X114208500Y-99805865D01*
X114366737Y-99776091D01*
X114512067Y-99682573D01*
X114609564Y-99539881D01*
X114643865Y-99370500D01*
X114643865Y-98327000D01*
X115314859Y-98327000D01*
X115228730Y-98760000D01*
X115338572Y-99312212D01*
X115651375Y-99780355D01*
X115753563Y-99848635D01*
X115684000Y-99848635D01*
X115525763Y-99878409D01*
X115380433Y-99971927D01*
X115282936Y-100114619D01*
X115248635Y-100284000D01*
X115248635Y-100673000D01*
X111559712Y-100673000D01*
X110725500Y-99838788D01*
X110725500Y-99648278D01*
X110732881Y-99637475D01*
X110756427Y-99674067D01*
X110899119Y-99771564D01*
X111068500Y-99805865D01*
X111668500Y-99805865D01*
X111826737Y-99776091D01*
X111972067Y-99682573D01*
X112069564Y-99539881D01*
X112103865Y-99370500D01*
X112103865Y-97820500D01*
X112074091Y-97662263D01*
X111995500Y-97540130D01*
X111995500Y-96974074D01*
X112100688Y-96869070D01*
X112226856Y-96565222D01*
X112226948Y-96459764D01*
X113409712Y-95277000D01*
X114863657Y-95277000D01*
X114912927Y-95353567D01*
X115055619Y-95451064D01*
X115225000Y-95485365D01*
X115975000Y-95485365D01*
X116133237Y-95455591D01*
X116278567Y-95362073D01*
X116376064Y-95219381D01*
X116410365Y-95050000D01*
X116410365Y-94838951D01*
X118725151Y-94838951D01*
X119031195Y-95579632D01*
X119597388Y-96146814D01*
X120337533Y-96454149D01*
X121138951Y-96454849D01*
X121879632Y-96148805D01*
X122446814Y-95582612D01*
X122583723Y-95252897D01*
X128222779Y-95252897D01*
X128416781Y-95722417D01*
X128775693Y-96081957D01*
X129244875Y-96276778D01*
X129752897Y-96277221D01*
X130222417Y-96083219D01*
X130581957Y-95724307D01*
X130776778Y-95255125D01*
X130777221Y-94747103D01*
X130583219Y-94277583D01*
X130224307Y-93918043D01*
X129755125Y-93723222D01*
X129247103Y-93722779D01*
X128777583Y-93916781D01*
X128418043Y-94275693D01*
X128223222Y-94744875D01*
X128222779Y-95252897D01*
X122583723Y-95252897D01*
X122754149Y-94842467D01*
X122754849Y-94041049D01*
X122448805Y-93300368D01*
X121882612Y-92733186D01*
X121142467Y-92425851D01*
X120341049Y-92425151D01*
X119600368Y-92731195D01*
X119033186Y-93297388D01*
X118725851Y-94037533D01*
X118725151Y-94838951D01*
X116410365Y-94838951D01*
X116410365Y-94250000D01*
X116380591Y-94091763D01*
X116290908Y-93952393D01*
X116353567Y-93912073D01*
X116451064Y-93769381D01*
X116485365Y-93600000D01*
X116485365Y-93100000D01*
X116455591Y-92941763D01*
X116362073Y-92796433D01*
X116219381Y-92698936D01*
X116050000Y-92664635D01*
X115150000Y-92664635D01*
X114991763Y-92694409D01*
X114846433Y-92787927D01*
X114748936Y-92930619D01*
X114714635Y-93100000D01*
X114714635Y-93600000D01*
X114744409Y-93758237D01*
X114837927Y-93903567D01*
X114910861Y-93953400D01*
X114863305Y-94023000D01*
X114633233Y-94023000D01*
X114643865Y-93970500D01*
X114643865Y-92420500D01*
X114640844Y-92404446D01*
X114668291Y-92377000D01*
X114820831Y-92377000D01*
X114837927Y-92403567D01*
X114980619Y-92501064D01*
X115150000Y-92535365D01*
X116050000Y-92535365D01*
X116208237Y-92505591D01*
X116353567Y-92412073D01*
X116451064Y-92269381D01*
X116484877Y-92102407D01*
X125472735Y-92102407D01*
X125704717Y-92663846D01*
X126133894Y-93093773D01*
X126694928Y-93326735D01*
X127302407Y-93327265D01*
X127863846Y-93095283D01*
X128293773Y-92666106D01*
X128526735Y-92105072D01*
X128526737Y-92102407D01*
X133472735Y-92102407D01*
X133704717Y-92663846D01*
X134133894Y-93093773D01*
X134373000Y-93193059D01*
X134373000Y-96806854D01*
X134136154Y-96904717D01*
X133706227Y-97333894D01*
X133473265Y-97894928D01*
X133472735Y-98502407D01*
X133704717Y-99063846D01*
X134133894Y-99493773D01*
X134694928Y-99726735D01*
X135302407Y-99727265D01*
X135863846Y-99495283D01*
X136293773Y-99066106D01*
X136526735Y-98505072D01*
X136527265Y-97897593D01*
X136295283Y-97336154D01*
X135866106Y-96906227D01*
X135627000Y-96806941D01*
X135627000Y-95933004D01*
X135775693Y-96081957D01*
X136244875Y-96276778D01*
X136752897Y-96277221D01*
X137222417Y-96083219D01*
X137581957Y-95724307D01*
X137776778Y-95255125D01*
X137777221Y-94747103D01*
X137583219Y-94277583D01*
X137224307Y-93918043D01*
X136755125Y-93723222D01*
X136247103Y-93722779D01*
X135777583Y-93916781D01*
X135627000Y-94067101D01*
X135627000Y-93193146D01*
X135863846Y-93095283D01*
X136293773Y-92666106D01*
X136526735Y-92105072D01*
X136527265Y-91497593D01*
X136295283Y-90936154D01*
X135866106Y-90506227D01*
X135305072Y-90273265D01*
X134697593Y-90272735D01*
X134136154Y-90504717D01*
X133706227Y-90933894D01*
X133473265Y-91494928D01*
X133472735Y-92102407D01*
X128526737Y-92102407D01*
X128527265Y-91497593D01*
X128295283Y-90936154D01*
X127866106Y-90506227D01*
X127305072Y-90273265D01*
X126697593Y-90272735D01*
X126136154Y-90504717D01*
X125706227Y-90933894D01*
X125473265Y-91494928D01*
X125472735Y-92102407D01*
X116484877Y-92102407D01*
X116485365Y-92100000D01*
X116485365Y-91600000D01*
X116455591Y-91441763D01*
X116362073Y-91296433D01*
X116294364Y-91250169D01*
X116353567Y-91212073D01*
X116451064Y-91069381D01*
X116485365Y-90900000D01*
X116485365Y-90400000D01*
X116455591Y-90241763D01*
X116362073Y-90096433D01*
X116219381Y-89998936D01*
X116050000Y-89964635D01*
X115150000Y-89964635D01*
X114991763Y-89994409D01*
X114846433Y-90087927D01*
X114748936Y-90230619D01*
X114714635Y-90400000D01*
X114714635Y-90900000D01*
X114744409Y-91058237D01*
X114837927Y-91203567D01*
X114905636Y-91249831D01*
X114846433Y-91287927D01*
X114822469Y-91323000D01*
X114450000Y-91323000D01*
X114248326Y-91363115D01*
X114077355Y-91477354D01*
X113560553Y-91994157D01*
X113450263Y-92014909D01*
X113304933Y-92108427D01*
X113274119Y-92153525D01*
X113250573Y-92116933D01*
X113165500Y-92058805D01*
X113165500Y-91988632D01*
X113208237Y-91980591D01*
X113353567Y-91887073D01*
X113451064Y-91744381D01*
X113485365Y-91575000D01*
X113485365Y-90825000D01*
X113455591Y-90666763D01*
X113362073Y-90521433D01*
X113219381Y-90423936D01*
X113050000Y-90389635D01*
X112250000Y-90389635D01*
X112091763Y-90419409D01*
X111946433Y-90512927D01*
X111848936Y-90655619D01*
X111814635Y-90825000D01*
X111814635Y-91290075D01*
X111119575Y-91985135D01*
X111068500Y-91985135D01*
X110910263Y-92014909D01*
X110764933Y-92108427D01*
X110734119Y-92153525D01*
X110710573Y-92116933D01*
X110567881Y-92019436D01*
X110398500Y-91985135D01*
X109798500Y-91985135D01*
X109640263Y-92014909D01*
X109494933Y-92108427D01*
X109397436Y-92251119D01*
X109363135Y-92420500D01*
X109363135Y-93970500D01*
X109392909Y-94128737D01*
X109486427Y-94274067D01*
X109542399Y-94312311D01*
X109231710Y-94623000D01*
X108979169Y-94623000D01*
X108962073Y-94596433D01*
X108819381Y-94498936D01*
X108650000Y-94464635D01*
X107750000Y-94464635D01*
X107591763Y-94494409D01*
X107446433Y-94587927D01*
X107422469Y-94623000D01*
X107250000Y-94623000D01*
X107048326Y-94663115D01*
X107048324Y-94663116D01*
X107048325Y-94663116D01*
X106877354Y-94777355D01*
X103681710Y-97973000D01*
X99620877Y-97973000D01*
X99605591Y-97891763D01*
X99512073Y-97746433D01*
X99369381Y-97648936D01*
X99200000Y-97614635D01*
X98700000Y-97614635D01*
X98541763Y-97644409D01*
X98396433Y-97737927D01*
X98298936Y-97880619D01*
X98264635Y-98050000D01*
X98135365Y-98050000D01*
X98105591Y-97891763D01*
X98012073Y-97746433D01*
X97869381Y-97648936D01*
X97700000Y-97614635D01*
X97200000Y-97614635D01*
X97041763Y-97644409D01*
X96896433Y-97737927D01*
X96799566Y-97879698D01*
X96762073Y-97821433D01*
X96619381Y-97723936D01*
X96450000Y-97689635D01*
X95650000Y-97689635D01*
X95491763Y-97719409D01*
X95346433Y-97812927D01*
X95300169Y-97880636D01*
X95262073Y-97821433D01*
X95119381Y-97723936D01*
X94950000Y-97689635D01*
X94834925Y-97689635D01*
X93022645Y-95877355D01*
X92851675Y-95763115D01*
X92650000Y-95723000D01*
X92235365Y-95723000D01*
X92235365Y-95350000D01*
X92205591Y-95191763D01*
X92112073Y-95046433D01*
X91969381Y-94948936D01*
X91800000Y-94914635D01*
X88200000Y-94914635D01*
X88041763Y-94944409D01*
X87896433Y-95037927D01*
X87798936Y-95180619D01*
X87764635Y-95350000D01*
X87764635Y-97150000D01*
X87794409Y-97308237D01*
X87887927Y-97453567D01*
X88030619Y-97551064D01*
X88200000Y-97585365D01*
X91800000Y-97585365D01*
X91958237Y-97555591D01*
X92103567Y-97462073D01*
X92201064Y-97319381D01*
X92235365Y-97150000D01*
X92235365Y-96777000D01*
X92431710Y-96777000D01*
X93725594Y-98070884D01*
X93714635Y-98125000D01*
X93714635Y-98875000D01*
X93744409Y-99033237D01*
X93837927Y-99178567D01*
X93980619Y-99276064D01*
X94023000Y-99284646D01*
X94023000Y-99320831D01*
X93996433Y-99337927D01*
X93898936Y-99480619D01*
X93864635Y-99650000D01*
X93864635Y-100550000D01*
X93894409Y-100708237D01*
X93987927Y-100853567D01*
X94130619Y-100951064D01*
X94300000Y-100985365D01*
X94800000Y-100985365D01*
X94958237Y-100955591D01*
X95103567Y-100862073D01*
X95201064Y-100719381D01*
X95235365Y-100550000D01*
X95235365Y-99650000D01*
X95205591Y-99491763D01*
X95112073Y-99346433D01*
X95077000Y-99322469D01*
X95077000Y-99286469D01*
X95108237Y-99280591D01*
X95253567Y-99187073D01*
X95299831Y-99119364D01*
X95337927Y-99178567D01*
X95480619Y-99276064D01*
X95565772Y-99293308D01*
X95496433Y-99337927D01*
X95398936Y-99480619D01*
X95364635Y-99650000D01*
X95364635Y-100550000D01*
X95394409Y-100708237D01*
X95487927Y-100853567D01*
X95630619Y-100951064D01*
X95800000Y-100985365D01*
X96300000Y-100985365D01*
X96458237Y-100955591D01*
X96603567Y-100862073D01*
X96701064Y-100719381D01*
X96719772Y-100627000D01*
X96779123Y-100627000D01*
X96794409Y-100708237D01*
X96887927Y-100853567D01*
X96923000Y-100877531D01*
X96923000Y-100950000D01*
X96963115Y-101151675D01*
X97077355Y-101322645D01*
X103173000Y-107418290D01*
X103173000Y-114173064D01*
X102936221Y-114172857D01*
X102632154Y-114298495D01*
X102399312Y-114530930D01*
X102273144Y-114834778D01*
X102272857Y-115163779D01*
X102398495Y-115467846D01*
X102630930Y-115700688D01*
X102859226Y-115795484D01*
X102677355Y-115977355D01*
X102563115Y-116148325D01*
X102556959Y-116179273D01*
X102529654Y-116316550D01*
X102496433Y-116337927D01*
X102398936Y-116480619D01*
X102364635Y-116650000D01*
X102364635Y-117550000D01*
X102394409Y-117708237D01*
X102487927Y-117853567D01*
X102523000Y-117877531D01*
X102523000Y-118020831D01*
X102496433Y-118037927D01*
X102398936Y-118180619D01*
X102364635Y-118350000D01*
X102364635Y-119250000D01*
X102394409Y-119408237D01*
X102487927Y-119553567D01*
X102630619Y-119651064D01*
X102800000Y-119685365D01*
X103300000Y-119685365D01*
X103458237Y-119655591D01*
X103603567Y-119562073D01*
X103701064Y-119419381D01*
X103735365Y-119250000D01*
X103735365Y-118350000D01*
X103705591Y-118191763D01*
X103612073Y-118046433D01*
X103577000Y-118022469D01*
X103577000Y-117879169D01*
X103603567Y-117862073D01*
X103701064Y-117719381D01*
X103735365Y-117550000D01*
X103735365Y-116650000D01*
X103705591Y-116491763D01*
X103685206Y-116460084D01*
X104518290Y-115627000D01*
X106181710Y-115627000D01*
X106229635Y-115674925D01*
X106229635Y-119900000D01*
X106231611Y-119910500D01*
X103112500Y-119910500D01*
X102757753Y-119981063D01*
X102457012Y-120182012D01*
X102367157Y-120271867D01*
X102077000Y-119981710D01*
X102077000Y-119579169D01*
X102103567Y-119562073D01*
X102201064Y-119419381D01*
X102235365Y-119250000D01*
X102235365Y-118350000D01*
X102205591Y-118191763D01*
X102112073Y-118046433D01*
X101969381Y-117948936D01*
X101800000Y-117914635D01*
X101300000Y-117914635D01*
X101141763Y-117944409D01*
X100996433Y-118037927D01*
X100898936Y-118180619D01*
X100864635Y-118350000D01*
X100864635Y-119250000D01*
X100894409Y-119408237D01*
X100987927Y-119553567D01*
X101023000Y-119577531D01*
X101023000Y-120200000D01*
X101057411Y-120373000D01*
X96418290Y-120373000D01*
X95927000Y-119881710D01*
X95927000Y-118248156D01*
X95931329Y-118251114D01*
X96100710Y-118285415D01*
X96900810Y-118285415D01*
X97059047Y-118255641D01*
X97202354Y-118163425D01*
X97330619Y-118251064D01*
X97500000Y-118285365D01*
X98000000Y-118285365D01*
X98158237Y-118255591D01*
X98303567Y-118162073D01*
X98401064Y-118019381D01*
X98435365Y-117850000D01*
X98435365Y-116950000D01*
X98405591Y-116791763D01*
X98312073Y-116646433D01*
X98169381Y-116548936D01*
X98000000Y-116514635D01*
X97500000Y-116514635D01*
X97341763Y-116544409D01*
X97196433Y-116637927D01*
X97151149Y-116704202D01*
X97070191Y-116648886D01*
X96900810Y-116614585D01*
X96100710Y-116614585D01*
X95942473Y-116644359D01*
X95927000Y-116654316D01*
X95927000Y-116063779D01*
X98372857Y-116063779D01*
X98498495Y-116367846D01*
X98723000Y-116592744D01*
X98723000Y-116620831D01*
X98696433Y-116637927D01*
X98598936Y-116780619D01*
X98564635Y-116950000D01*
X98564635Y-117850000D01*
X98594409Y-118008237D01*
X98687927Y-118153567D01*
X98830619Y-118251064D01*
X99000000Y-118285365D01*
X99500000Y-118285365D01*
X99658237Y-118255591D01*
X99803567Y-118162073D01*
X99901064Y-118019381D01*
X99935365Y-117850000D01*
X99935365Y-116950000D01*
X99905591Y-116791763D01*
X99812073Y-116646433D01*
X99777000Y-116622469D01*
X99777000Y-116492542D01*
X99900688Y-116369070D01*
X100026856Y-116065222D01*
X100027143Y-115736221D01*
X99901505Y-115432154D01*
X99669070Y-115199312D01*
X99365222Y-115073144D01*
X99036221Y-115072857D01*
X98732154Y-115198495D01*
X98499312Y-115430930D01*
X98373144Y-115734778D01*
X98372857Y-116063779D01*
X95927000Y-116063779D01*
X95927000Y-114785365D01*
X96300000Y-114785365D01*
X96458237Y-114755591D01*
X96603567Y-114662073D01*
X96701064Y-114519381D01*
X96735365Y-114350000D01*
X96735365Y-113450000D01*
X96705591Y-113291763D01*
X96612073Y-113146433D01*
X96522770Y-113085415D01*
X96900810Y-113085415D01*
X97059047Y-113055641D01*
X97202354Y-112963425D01*
X97330619Y-113051064D01*
X97500000Y-113085365D01*
X98000000Y-113085365D01*
X98158237Y-113055591D01*
X98303567Y-112962073D01*
X98401064Y-112819381D01*
X98435365Y-112650000D01*
X98435365Y-111750000D01*
X98405591Y-111591763D01*
X98312073Y-111446433D01*
X98169381Y-111348936D01*
X98000000Y-111314635D01*
X97500000Y-111314635D01*
X97341763Y-111344409D01*
X97196433Y-111437927D01*
X97151149Y-111504202D01*
X97070191Y-111448886D01*
X96900810Y-111414585D01*
X96100710Y-111414585D01*
X95942473Y-111444359D01*
X95927000Y-111454316D01*
X95927000Y-110963779D01*
X98372857Y-110963779D01*
X98498495Y-111267846D01*
X98684993Y-111454670D01*
X98598936Y-111580619D01*
X98564635Y-111750000D01*
X98564635Y-112650000D01*
X98594409Y-112808237D01*
X98687927Y-112953567D01*
X98830619Y-113051064D01*
X99000000Y-113085365D01*
X99500000Y-113085365D01*
X99658237Y-113055591D01*
X99803567Y-112962073D01*
X99901064Y-112819381D01*
X99935365Y-112650000D01*
X99935365Y-111750000D01*
X99905591Y-111591763D01*
X99812073Y-111446433D01*
X99777000Y-111422469D01*
X99777000Y-111392542D01*
X99900688Y-111269070D01*
X100026856Y-110965222D01*
X100027143Y-110636221D01*
X99901505Y-110332154D01*
X99669070Y-110099312D01*
X99365222Y-109973144D01*
X99036221Y-109972857D01*
X98732154Y-110098495D01*
X98499312Y-110330930D01*
X98373144Y-110634778D01*
X98372857Y-110963779D01*
X95927000Y-110963779D01*
X95927000Y-109585365D01*
X96300000Y-109585365D01*
X96458237Y-109555591D01*
X96603567Y-109462073D01*
X96701064Y-109319381D01*
X96735365Y-109150000D01*
X96735365Y-108250000D01*
X96705591Y-108091763D01*
X96612073Y-107946433D01*
X96522770Y-107885415D01*
X96900810Y-107885415D01*
X97059047Y-107855641D01*
X97202354Y-107763425D01*
X97330619Y-107851064D01*
X97500000Y-107885365D01*
X98000000Y-107885365D01*
X98158237Y-107855591D01*
X98303567Y-107762073D01*
X98401064Y-107619381D01*
X98435365Y-107450000D01*
X98435365Y-106550000D01*
X98405591Y-106391763D01*
X98312073Y-106246433D01*
X98169381Y-106148936D01*
X98000000Y-106114635D01*
X97500000Y-106114635D01*
X97341763Y-106144409D01*
X97196433Y-106237927D01*
X97151149Y-106304202D01*
X97070191Y-106248886D01*
X96900810Y-106214585D01*
X96100710Y-106214585D01*
X95942473Y-106244359D01*
X95927000Y-106254316D01*
X95927000Y-105663779D01*
X98372857Y-105663779D01*
X98498495Y-105967846D01*
X98723000Y-106192744D01*
X98723000Y-106220831D01*
X98696433Y-106237927D01*
X98598936Y-106380619D01*
X98564635Y-106550000D01*
X98564635Y-107450000D01*
X98594409Y-107608237D01*
X98687927Y-107753567D01*
X98830619Y-107851064D01*
X99000000Y-107885365D01*
X99500000Y-107885365D01*
X99658237Y-107855591D01*
X99803567Y-107762073D01*
X99901064Y-107619381D01*
X99935365Y-107450000D01*
X99935365Y-106550000D01*
X99905591Y-106391763D01*
X99812073Y-106246433D01*
X99777000Y-106222469D01*
X99777000Y-106092542D01*
X99900688Y-105969070D01*
X100026856Y-105665222D01*
X100027143Y-105336221D01*
X99901505Y-105032154D01*
X99669070Y-104799312D01*
X99365222Y-104673144D01*
X99036221Y-104672857D01*
X98732154Y-104798495D01*
X98499312Y-105030930D01*
X98373144Y-105334778D01*
X98372857Y-105663779D01*
X95927000Y-105663779D01*
X95927000Y-105218290D01*
X96422645Y-104722645D01*
X96536885Y-104551675D01*
X96577000Y-104350000D01*
X96577000Y-104279169D01*
X96603567Y-104262073D01*
X96701064Y-104119381D01*
X96735365Y-103950000D01*
X96735365Y-103050000D01*
X96705591Y-102891763D01*
X96612073Y-102746433D01*
X96577000Y-102722469D01*
X96577000Y-102385289D01*
X96626856Y-102265222D01*
X96627143Y-101936221D01*
X96501505Y-101632154D01*
X96269070Y-101399312D01*
X95965222Y-101273144D01*
X95636221Y-101272857D01*
X95332154Y-101398495D01*
X95099312Y-101630930D01*
X94973144Y-101934778D01*
X94972857Y-102263779D01*
X95098495Y-102567846D01*
X95330930Y-102800688D01*
X95426450Y-102840351D01*
X95398936Y-102880619D01*
X95364635Y-103050000D01*
X95364635Y-103950000D01*
X95394409Y-104108237D01*
X95453948Y-104200762D01*
X95027355Y-104627355D01*
X94913115Y-104798325D01*
X94905445Y-104836885D01*
X94873000Y-105000000D01*
X94873000Y-105264585D01*
X94411655Y-105264585D01*
X93971180Y-104824110D01*
X94409926Y-104385365D01*
X94800000Y-104385365D01*
X94958237Y-104355591D01*
X95103567Y-104262073D01*
X95201064Y-104119381D01*
X95235365Y-103950000D01*
X95235365Y-103050000D01*
X95205591Y-102891763D01*
X95112073Y-102746433D01*
X95047643Y-102702410D01*
X95036885Y-102648325D01*
X94922645Y-102477355D01*
X94426929Y-101981639D01*
X94427143Y-101736221D01*
X94301505Y-101432154D01*
X94069070Y-101199312D01*
X93765222Y-101073144D01*
X93436221Y-101072857D01*
X93132154Y-101198495D01*
X92899312Y-101430930D01*
X92773144Y-101734778D01*
X92772857Y-102063779D01*
X92898495Y-102367846D01*
X93130930Y-102600688D01*
X93434778Y-102726856D01*
X93681781Y-102727071D01*
X93888224Y-102933514D01*
X93864635Y-103050000D01*
X93864635Y-103440074D01*
X92681710Y-104623000D01*
X92235365Y-104623000D01*
X92235365Y-104250000D01*
X92205591Y-104091763D01*
X92112073Y-103946433D01*
X91969381Y-103848936D01*
X91800000Y-103814635D01*
X88200000Y-103814635D01*
X88041763Y-103844409D01*
X87896433Y-103937927D01*
X87798936Y-104080619D01*
X87764635Y-104250000D01*
X87764635Y-106050000D01*
X87794409Y-106208237D01*
X87887927Y-106353567D01*
X88030619Y-106451064D01*
X88200000Y-106485365D01*
X91800000Y-106485365D01*
X91958237Y-106455591D01*
X92103567Y-106362073D01*
X92201064Y-106219381D01*
X92235365Y-106050000D01*
X92235365Y-105677000D01*
X93333490Y-105677000D01*
X93666365Y-106009875D01*
X93666365Y-106500050D01*
X93696139Y-106658287D01*
X93789657Y-106803617D01*
X93932349Y-106901114D01*
X94101730Y-106935415D01*
X94873000Y-106935415D01*
X94873000Y-107829418D01*
X94800000Y-107814635D01*
X94300000Y-107814635D01*
X94141763Y-107844409D01*
X93996433Y-107937927D01*
X93898936Y-108080619D01*
X93864635Y-108250000D01*
X93864635Y-108640075D01*
X93431710Y-109073000D01*
X92235365Y-109073000D01*
X92235365Y-108700000D01*
X92205591Y-108541763D01*
X92112073Y-108396433D01*
X91969381Y-108298936D01*
X91800000Y-108264635D01*
X88200000Y-108264635D01*
X88041763Y-108294409D01*
X87896433Y-108387927D01*
X87798936Y-108530619D01*
X87764635Y-108700000D01*
X87764635Y-110500000D01*
X87794409Y-110658237D01*
X87887927Y-110803567D01*
X88030619Y-110901064D01*
X88200000Y-110935365D01*
X91800000Y-110935365D01*
X91958237Y-110905591D01*
X92103567Y-110812073D01*
X92201064Y-110669381D01*
X92235365Y-110500000D01*
X92235365Y-110127000D01*
X92583490Y-110127000D01*
X93666365Y-111209875D01*
X93666365Y-111700050D01*
X93696139Y-111858287D01*
X93789657Y-112003617D01*
X93932349Y-112101114D01*
X94101730Y-112135415D01*
X94873000Y-112135415D01*
X94873000Y-113029418D01*
X94800000Y-113014635D01*
X94300000Y-113014635D01*
X94141763Y-113044409D01*
X93996433Y-113137927D01*
X93898936Y-113280619D01*
X93864635Y-113450000D01*
X93864635Y-113523000D01*
X92235365Y-113523000D01*
X92235365Y-113150000D01*
X92205591Y-112991763D01*
X92112073Y-112846433D01*
X91969381Y-112748936D01*
X91800000Y-112714635D01*
X88200000Y-112714635D01*
X88041763Y-112744409D01*
X87896433Y-112837927D01*
X87798936Y-112980619D01*
X87764635Y-113150000D01*
X87764635Y-114950000D01*
X87794409Y-115108237D01*
X87887927Y-115253567D01*
X88030619Y-115351064D01*
X88200000Y-115385365D01*
X91800000Y-115385365D01*
X91958237Y-115355591D01*
X92103567Y-115262073D01*
X92201064Y-115119381D01*
X92235365Y-114950000D01*
X92235365Y-114577000D01*
X93938657Y-114577000D01*
X93987927Y-114653567D01*
X94023000Y-114677531D01*
X94023000Y-115679399D01*
X93943493Y-115694359D01*
X93798163Y-115787877D01*
X93700666Y-115930569D01*
X93666365Y-116099950D01*
X93666365Y-116900050D01*
X93696139Y-117058287D01*
X93789657Y-117203617D01*
X93932349Y-117301114D01*
X94101730Y-117335415D01*
X94873000Y-117335415D01*
X94873000Y-120100000D01*
X94913115Y-120301675D01*
X94960773Y-120373000D01*
X93066307Y-120373000D01*
X93025000Y-120364635D01*
X91775000Y-120364635D01*
X91730543Y-120373000D01*
X91083976Y-120373000D01*
X89235365Y-118524389D01*
X89235365Y-116700000D01*
X89205591Y-116541763D01*
X89112073Y-116396433D01*
X88969381Y-116298936D01*
X88800000Y-116264635D01*
X87000000Y-116264635D01*
X86841763Y-116294409D01*
X86696433Y-116387927D01*
X86598936Y-116530619D01*
X86564635Y-116700000D01*
X75435365Y-116700000D01*
X75405591Y-116541763D01*
X75312073Y-116396433D01*
X75169381Y-116298936D01*
X75000000Y-116264635D01*
X74576917Y-116264635D01*
X74885591Y-116066009D01*
X75234252Y-115555727D01*
X75356915Y-114950000D01*
X75356915Y-113150000D01*
X75250439Y-112584128D01*
X74916009Y-112064409D01*
X74405727Y-111715748D01*
X73800000Y-111593085D01*
X72352342Y-111593085D01*
X72000000Y-111523000D01*
X69827000Y-111523000D01*
X69827000Y-110797157D01*
X69840597Y-110730014D01*
X69887927Y-110803567D01*
X70030619Y-110901064D01*
X70200000Y-110935365D01*
X73800000Y-110935365D01*
X73958237Y-110905591D01*
X74103567Y-110812073D01*
X74201064Y-110669381D01*
X74235365Y-110500000D01*
X74235365Y-108700000D01*
X74205591Y-108541763D01*
X74112073Y-108396433D01*
X73969381Y-108298936D01*
X73800000Y-108264635D01*
X70200000Y-108264635D01*
X70041763Y-108294409D01*
X69896433Y-108387927D01*
X69886285Y-108402779D01*
X69840439Y-108159128D01*
X69827000Y-108138243D01*
X69827000Y-106258884D01*
X69887927Y-106353567D01*
X70030619Y-106451064D01*
X70200000Y-106485365D01*
X73800000Y-106485365D01*
X73958237Y-106455591D01*
X74103567Y-106362073D01*
X74201064Y-106219381D01*
X74235365Y-106050000D01*
X74235365Y-104250000D01*
X74205591Y-104091763D01*
X74112073Y-103946433D01*
X73969381Y-103848936D01*
X73800000Y-103814635D01*
X70200000Y-103814635D01*
X70041763Y-103844409D01*
X69896433Y-103937927D01*
X69827000Y-104039546D01*
X69827000Y-101808884D01*
X69887927Y-101903567D01*
X70030619Y-102001064D01*
X70200000Y-102035365D01*
X73800000Y-102035365D01*
X73958237Y-102005591D01*
X74103567Y-101912073D01*
X74201064Y-101769381D01*
X74235365Y-101600000D01*
X74235365Y-99800000D01*
X87764635Y-99800000D01*
X87764635Y-101600000D01*
X87794409Y-101758237D01*
X87887927Y-101903567D01*
X88030619Y-102001064D01*
X88200000Y-102035365D01*
X91800000Y-102035365D01*
X91958237Y-102005591D01*
X92103567Y-101912073D01*
X92201064Y-101769381D01*
X92235365Y-101600000D01*
X92235365Y-99800000D01*
X92205591Y-99641763D01*
X92112073Y-99496433D01*
X91969381Y-99398936D01*
X91800000Y-99364635D01*
X88200000Y-99364635D01*
X88041763Y-99394409D01*
X87896433Y-99487927D01*
X87798936Y-99630619D01*
X87764635Y-99800000D01*
X74235365Y-99800000D01*
X74205591Y-99641763D01*
X74112073Y-99496433D01*
X73969381Y-99398936D01*
X73800000Y-99364635D01*
X70200000Y-99364635D01*
X70041763Y-99394409D01*
X69896433Y-99487927D01*
X69827000Y-99589546D01*
X69827000Y-97358884D01*
X69887927Y-97453567D01*
X70030619Y-97551064D01*
X70200000Y-97585365D01*
X73800000Y-97585365D01*
X73958237Y-97555591D01*
X74103567Y-97462073D01*
X74201064Y-97319381D01*
X74235365Y-97150000D01*
X74235365Y-95350000D01*
X74205591Y-95191763D01*
X74112073Y-95046433D01*
X74015109Y-94980181D01*
X75772645Y-93222645D01*
X75886885Y-93051675D01*
X75927000Y-92850000D01*
X75927000Y-88018290D01*
X77718291Y-86227000D01*
X87835572Y-86227000D01*
X87798936Y-86280619D01*
X87764635Y-86450000D01*
X87764635Y-88250000D01*
X87794409Y-88408237D01*
X87887927Y-88553567D01*
X88030619Y-88651064D01*
X88200000Y-88685365D01*
X91640075Y-88685365D01*
X92073000Y-89118290D01*
X92073000Y-90569736D01*
X91969381Y-90498936D01*
X91800000Y-90464635D01*
X88200000Y-90464635D01*
X88041763Y-90494409D01*
X87896433Y-90587927D01*
X87798936Y-90730619D01*
X87764635Y-90900000D01*
X87764635Y-92700000D01*
X87794409Y-92858237D01*
X87887927Y-93003567D01*
X88030619Y-93101064D01*
X88200000Y-93135365D01*
X91800000Y-93135365D01*
X91958237Y-93105591D01*
X92073000Y-93031742D01*
X92073000Y-93900000D01*
X92113115Y-94101675D01*
X92227355Y-94272645D01*
X95327355Y-97372645D01*
X95498325Y-97486885D01*
X95700000Y-97527000D01*
X102900000Y-97527000D01*
X103101675Y-97486885D01*
X103272645Y-97372645D01*
X110968290Y-89677000D01*
X114820831Y-89677000D01*
X114837927Y-89703567D01*
X114980619Y-89801064D01*
X115150000Y-89835365D01*
X116050000Y-89835365D01*
X116208237Y-89805591D01*
X116353567Y-89712073D01*
X116377531Y-89677000D01*
X116550000Y-89677000D01*
X116751675Y-89636885D01*
X116922645Y-89522645D01*
X117472645Y-88972646D01*
X117586884Y-88801675D01*
X117586885Y-88801674D01*
X117627000Y-88600000D01*
X117627000Y-84142454D01*
X117800688Y-83969070D01*
X117926856Y-83665222D01*
X117927143Y-83336221D01*
X117801505Y-83032154D01*
X117569070Y-82799312D01*
X117265222Y-82673144D01*
X116936221Y-82672857D01*
X116632154Y-82798495D01*
X116399312Y-83030930D01*
X116273144Y-83334778D01*
X116272924Y-83587378D01*
X116210000Y-83574635D01*
X114990000Y-83574635D01*
X114831763Y-83604409D01*
X114781831Y-83636540D01*
X114326929Y-83181639D01*
X114327143Y-82936221D01*
X114201505Y-82632154D01*
X113969070Y-82399312D01*
X113952753Y-82392537D01*
X115928698Y-80416592D01*
X116354131Y-80240806D01*
X116473000Y-80122144D01*
X116473000Y-81300000D01*
X116513115Y-81501675D01*
X116627355Y-81672645D01*
X117877355Y-82922645D01*
X118048325Y-83036885D01*
X118250000Y-83077000D01*
X118520831Y-83077000D01*
X118537927Y-83103567D01*
X118680619Y-83201064D01*
X118850000Y-83235365D01*
X119240075Y-83235365D01*
X121381787Y-85377077D01*
X121347133Y-85399377D01*
X121249636Y-85542069D01*
X121215335Y-85711450D01*
X121215335Y-87908550D01*
X121245109Y-88066787D01*
X121338627Y-88212117D01*
X121481319Y-88309614D01*
X121650700Y-88343915D01*
X123149300Y-88343915D01*
X123307537Y-88314141D01*
X123452867Y-88220623D01*
X123550364Y-88077931D01*
X123584665Y-87908550D01*
X123584665Y-85711450D01*
X123554891Y-85553213D01*
X123461373Y-85407883D01*
X123318681Y-85310386D01*
X123149300Y-85276085D01*
X122771375Y-85276085D01*
X121859069Y-84363779D01*
X133172857Y-84363779D01*
X133298495Y-84667846D01*
X133530930Y-84900688D01*
X133834778Y-85026856D01*
X134163779Y-85027143D01*
X134467846Y-84901505D01*
X134700688Y-84669070D01*
X134826856Y-84365222D01*
X134827143Y-84036221D01*
X134777000Y-83914866D01*
X134777000Y-83279169D01*
X134803567Y-83262073D01*
X134901064Y-83119381D01*
X134935365Y-82950000D01*
X134935365Y-82050000D01*
X134905591Y-81891763D01*
X134812073Y-81746433D01*
X134669381Y-81648936D01*
X134500000Y-81614635D01*
X134000000Y-81614635D01*
X133841763Y-81644409D01*
X133696433Y-81737927D01*
X133598936Y-81880619D01*
X133564635Y-82050000D01*
X133564635Y-82950000D01*
X133594409Y-83108237D01*
X133687927Y-83253567D01*
X133723000Y-83277531D01*
X133723000Y-83419639D01*
X133532154Y-83498495D01*
X133299312Y-83730930D01*
X133173144Y-84034778D01*
X133172857Y-84363779D01*
X121859069Y-84363779D01*
X121313176Y-83817886D01*
X121334778Y-83826856D01*
X121663779Y-83827143D01*
X121967846Y-83701505D01*
X122200688Y-83469070D01*
X122326856Y-83165222D01*
X122327071Y-82918219D01*
X124072645Y-81172645D01*
X124186885Y-81001675D01*
X124218447Y-80842995D01*
X125522788Y-80842995D01*
X125709194Y-81294131D01*
X126054053Y-81639593D01*
X126504864Y-81826786D01*
X126992995Y-81827212D01*
X127444131Y-81640806D01*
X127789593Y-81295947D01*
X127976786Y-80845136D01*
X127977212Y-80357005D01*
X127790806Y-79905869D01*
X127445947Y-79560407D01*
X126995136Y-79373214D01*
X126507005Y-79372788D01*
X126055869Y-79559194D01*
X125710407Y-79904053D01*
X125523214Y-80354864D01*
X125522788Y-80842995D01*
X124218447Y-80842995D01*
X124227000Y-80800000D01*
X124227000Y-78818290D01*
X124718290Y-78327000D01*
X132381710Y-78327000D01*
X133427355Y-79372645D01*
X133567729Y-79466441D01*
X133594409Y-79608237D01*
X133687927Y-79753567D01*
X133830619Y-79851064D01*
X134000000Y-79885365D01*
X134500000Y-79885365D01*
X134658237Y-79855591D01*
X134803567Y-79762073D01*
X134901064Y-79619381D01*
X134935365Y-79450000D01*
X134935365Y-78550000D01*
X134905591Y-78391763D01*
X134812073Y-78246433D01*
X134669381Y-78148936D01*
X134500000Y-78114635D01*
X134000000Y-78114635D01*
X133841763Y-78144409D01*
X133749238Y-78203948D01*
X133047290Y-77502000D01*
X140498000Y-77502000D01*
X140498000Y-111137285D01*
X136973000Y-111137285D01*
X136973000Y-115862714D01*
X140498000Y-115862714D01*
X140498000Y-129498000D01*
X133110043Y-129498000D01*
X133402131Y-129206422D01*
X133726630Y-128424943D01*
X133727368Y-127578770D01*
X133404234Y-126796726D01*
X132806422Y-126197869D01*
X132024943Y-125873370D01*
X131178770Y-125872632D01*
X130396726Y-126195766D01*
X129797869Y-126793578D01*
X129473370Y-127575057D01*
X129472632Y-128421230D01*
X129795766Y-129203274D01*
X130089978Y-129498000D01*
X81034310Y-129498000D01*
X81267846Y-129401505D01*
X81500688Y-129169070D01*
X81626856Y-128865222D01*
X81627143Y-128536221D01*
X81501505Y-128232154D01*
X81269070Y-127999312D01*
X80965222Y-127873144D01*
X80636221Y-127872857D01*
X80332154Y-127998495D01*
X80099312Y-128230930D01*
X79973144Y-128534778D01*
X79973111Y-128573000D01*
X74568290Y-128573000D01*
X73685365Y-127690075D01*
X73685365Y-127300000D01*
X73655591Y-127141763D01*
X73562073Y-126996433D01*
X73419381Y-126898936D01*
X73250000Y-126864635D01*
X72350000Y-126864635D01*
X72191763Y-126894409D01*
X72046433Y-126987927D01*
X71948936Y-127130619D01*
X71914635Y-127300000D01*
X71914635Y-127800000D01*
X71944409Y-127958237D01*
X72037927Y-128103567D01*
X72180619Y-128201064D01*
X72350000Y-128235365D01*
X72740075Y-128235365D01*
X73977355Y-129472645D01*
X74015301Y-129498000D01*
X55202000Y-129498000D01*
X55202000Y-127119330D01*
X59449400Y-127119330D01*
X59449400Y-127480670D01*
X59547641Y-127974561D01*
X59827408Y-128393262D01*
X60246109Y-128673029D01*
X60740000Y-128771270D01*
X61233891Y-128673029D01*
X61652592Y-128393262D01*
X61932359Y-127974561D01*
X62010000Y-127584233D01*
X62087641Y-127974561D01*
X62367408Y-128393262D01*
X62786109Y-128673029D01*
X63280000Y-128771270D01*
X63773891Y-128673029D01*
X64192592Y-128393262D01*
X64472359Y-127974561D01*
X64570600Y-127480670D01*
X64570600Y-127119330D01*
X64510102Y-126815188D01*
X65698290Y-125627000D01*
X67830942Y-125627000D01*
X67530368Y-125751195D01*
X66963186Y-126317388D01*
X66655851Y-127057533D01*
X66655151Y-127858951D01*
X66961195Y-128599632D01*
X67527388Y-129166814D01*
X68267533Y-129474149D01*
X69068951Y-129474849D01*
X69809632Y-129168805D01*
X70376814Y-128602612D01*
X70684149Y-127862467D01*
X70684849Y-127061049D01*
X70378805Y-126320368D01*
X69812612Y-125753186D01*
X69508722Y-125627000D01*
X71951409Y-125627000D01*
X71948936Y-125630619D01*
X71914635Y-125800000D01*
X71914635Y-126300000D01*
X71944409Y-126458237D01*
X72037927Y-126603567D01*
X72180619Y-126701064D01*
X72350000Y-126735365D01*
X73250000Y-126735365D01*
X73408237Y-126705591D01*
X73553567Y-126612073D01*
X73651064Y-126469381D01*
X73685365Y-126300000D01*
X73685365Y-125800000D01*
X73655591Y-125641763D01*
X73562073Y-125496433D01*
X73419381Y-125398936D01*
X73266622Y-125368001D01*
X73172645Y-125227355D01*
X72672645Y-124727355D01*
X72501675Y-124613115D01*
X72300000Y-124573000D01*
X65480000Y-124573000D01*
X65278325Y-124613115D01*
X65107355Y-124727355D01*
X63854127Y-125980583D01*
X63773891Y-125926971D01*
X63280000Y-125828730D01*
X63052786Y-125873926D01*
X65199712Y-123727000D01*
X74040288Y-123727000D01*
X76656644Y-126343356D01*
X76860057Y-126479272D01*
X77100000Y-126527000D01*
X81837874Y-126527000D01*
X81600407Y-126764053D01*
X81413214Y-127214864D01*
X81412788Y-127702995D01*
X81599194Y-128154131D01*
X81944053Y-128499593D01*
X82394864Y-128686786D01*
X82882995Y-128687212D01*
X83334131Y-128500806D01*
X83679593Y-128155947D01*
X83866786Y-127705136D01*
X83867212Y-127217005D01*
X83680806Y-126765869D01*
X83442354Y-126527000D01*
X84377874Y-126527000D01*
X84140407Y-126764053D01*
X83953214Y-127214864D01*
X83952788Y-127702995D01*
X84139194Y-128154131D01*
X84484053Y-128499593D01*
X84934864Y-128686786D01*
X85422995Y-128687212D01*
X85874131Y-128500806D01*
X86219593Y-128155947D01*
X86406786Y-127705136D01*
X86407212Y-127217005D01*
X86220806Y-126765869D01*
X85982354Y-126527000D01*
X86917874Y-126527000D01*
X86680407Y-126764053D01*
X86493214Y-127214864D01*
X86492788Y-127702995D01*
X86679194Y-128154131D01*
X87024053Y-128499593D01*
X87474864Y-128686786D01*
X87962995Y-128687212D01*
X88414131Y-128500806D01*
X88759593Y-128155947D01*
X88946786Y-127705136D01*
X88947212Y-127217005D01*
X88760806Y-126765869D01*
X88522354Y-126527000D01*
X89457874Y-126527000D01*
X89220407Y-126764053D01*
X89033214Y-127214864D01*
X89032788Y-127702995D01*
X89219194Y-128154131D01*
X89564053Y-128499593D01*
X90014864Y-128686786D01*
X90502995Y-128687212D01*
X90954131Y-128500806D01*
X91299593Y-128155947D01*
X91486786Y-127705136D01*
X91487212Y-127217005D01*
X91300806Y-126765869D01*
X91062354Y-126527000D01*
X91340288Y-126527000D01*
X91706695Y-126893407D01*
X91573214Y-127214864D01*
X91572788Y-127702995D01*
X91759194Y-128154131D01*
X92104053Y-128499593D01*
X92554864Y-128686786D01*
X93042995Y-128687212D01*
X93494131Y-128500806D01*
X93839593Y-128155947D01*
X94026786Y-127705136D01*
X94026787Y-127702995D01*
X99192788Y-127702995D01*
X99379194Y-128154131D01*
X99724053Y-128499593D01*
X100174864Y-128686786D01*
X100662995Y-128687212D01*
X101114131Y-128500806D01*
X101459593Y-128155947D01*
X101646786Y-127705136D01*
X101646912Y-127560990D01*
X101651115Y-127539861D01*
X102763976Y-126427000D01*
X104798049Y-126427000D01*
X104460407Y-126764053D01*
X104273214Y-127214864D01*
X104272788Y-127702995D01*
X104459194Y-128154131D01*
X104804053Y-128499593D01*
X105254864Y-128686786D01*
X105742995Y-128687212D01*
X106194131Y-128500806D01*
X106539593Y-128155947D01*
X106726786Y-127705136D01*
X106727212Y-127217005D01*
X106540806Y-126765869D01*
X106202528Y-126427000D01*
X107338049Y-126427000D01*
X107000407Y-126764053D01*
X106813214Y-127214864D01*
X106812788Y-127702995D01*
X106999194Y-128154131D01*
X107344053Y-128499593D01*
X107794864Y-128686786D01*
X108282995Y-128687212D01*
X108734131Y-128500806D01*
X109079593Y-128155947D01*
X109266786Y-127705136D01*
X109266787Y-127702995D01*
X109352788Y-127702995D01*
X109539194Y-128154131D01*
X109884053Y-128499593D01*
X110334864Y-128686786D01*
X110822995Y-128687212D01*
X111274131Y-128500806D01*
X111619593Y-128155947D01*
X111806786Y-127705136D01*
X111806787Y-127702995D01*
X111892788Y-127702995D01*
X112079194Y-128154131D01*
X112424053Y-128499593D01*
X112874864Y-128686786D01*
X113362995Y-128687212D01*
X113814131Y-128500806D01*
X114159593Y-128155947D01*
X114346786Y-127705136D01*
X114347212Y-127217005D01*
X114207598Y-126879114D01*
X114434712Y-126652000D01*
X114732656Y-126652000D01*
X114620407Y-126764053D01*
X114433214Y-127214864D01*
X114432788Y-127702995D01*
X114619194Y-128154131D01*
X114964053Y-128499593D01*
X115414864Y-128686786D01*
X115902995Y-128687212D01*
X116354131Y-128500806D01*
X116699593Y-128155947D01*
X116886786Y-127705136D01*
X116887212Y-127217005D01*
X116858703Y-127148009D01*
X117102001Y-126904711D01*
X116973214Y-127214864D01*
X116972788Y-127702995D01*
X117159194Y-128154131D01*
X117504053Y-128499593D01*
X117954864Y-128686786D01*
X118442995Y-128687212D01*
X118894131Y-128500806D01*
X119239593Y-128155947D01*
X119426786Y-127705136D01*
X119427212Y-127217005D01*
X119240806Y-126765869D01*
X119002354Y-126527000D01*
X126150000Y-126527000D01*
X126389943Y-126479272D01*
X126593356Y-126343356D01*
X127959712Y-124977000D01*
X137595784Y-124977000D01*
X137925606Y-125307397D01*
X138362456Y-125488793D01*
X138835469Y-125489206D01*
X139272635Y-125308573D01*
X139607397Y-124974394D01*
X139788793Y-124537544D01*
X139789206Y-124064531D01*
X139608573Y-123627365D01*
X139274394Y-123292603D01*
X138837544Y-123111207D01*
X138364531Y-123110794D01*
X137927365Y-123291427D01*
X137592603Y-123625606D01*
X137552161Y-123723000D01*
X129177000Y-123723000D01*
X129177000Y-118500000D01*
X129129272Y-118260057D01*
X128993356Y-118056644D01*
X126957942Y-116021230D01*
X129472632Y-116021230D01*
X129795766Y-116803274D01*
X130393578Y-117402131D01*
X131175057Y-117726630D01*
X132021230Y-117727368D01*
X132803274Y-117404234D01*
X133402131Y-116806422D01*
X133726630Y-116024943D01*
X133727368Y-115178770D01*
X133404234Y-114396726D01*
X132806422Y-113797869D01*
X132024943Y-113473370D01*
X131178770Y-113472632D01*
X130396726Y-113795766D01*
X129797869Y-114393578D01*
X129473370Y-115175057D01*
X129472632Y-116021230D01*
X126957942Y-116021230D01*
X125150657Y-114213945D01*
X125153567Y-114212073D01*
X125251064Y-114069381D01*
X125285365Y-113900000D01*
X125285365Y-113400000D01*
X125255591Y-113241763D01*
X125162073Y-113096433D01*
X125019381Y-112998936D01*
X124850000Y-112964635D01*
X123950000Y-112964635D01*
X123791763Y-112994409D01*
X123646433Y-113087927D01*
X123548936Y-113230619D01*
X123514635Y-113400000D01*
X123514635Y-113900000D01*
X123544409Y-114058237D01*
X123637927Y-114203567D01*
X123780619Y-114301064D01*
X123782652Y-114301476D01*
X123773000Y-114350000D01*
X123820728Y-114589942D01*
X123956644Y-114793356D01*
X124136288Y-114973000D01*
X123409712Y-114973000D01*
X122650657Y-114213945D01*
X122653567Y-114212073D01*
X122751064Y-114069381D01*
X122785365Y-113900000D01*
X122785365Y-113400000D01*
X122755591Y-113241763D01*
X122662073Y-113096433D01*
X122519381Y-112998936D01*
X122350000Y-112964635D01*
X121450000Y-112964635D01*
X121291763Y-112994409D01*
X121146433Y-113087927D01*
X121048936Y-113230619D01*
X121014635Y-113400000D01*
X121014635Y-113900000D01*
X121044409Y-114058237D01*
X121137927Y-114203567D01*
X121280619Y-114301064D01*
X121282652Y-114301476D01*
X121273000Y-114350000D01*
X121320728Y-114589942D01*
X121456644Y-114793356D01*
X122706644Y-116043356D01*
X122910058Y-116179273D01*
X123150000Y-116227000D01*
X124040288Y-116227000D01*
X126873000Y-119059712D01*
X126873000Y-123040288D01*
X126240288Y-123673000D01*
X125127429Y-123673000D01*
X125108573Y-123627365D01*
X124774394Y-123292603D01*
X124337544Y-123111207D01*
X123864531Y-123110794D01*
X123427365Y-123291427D01*
X123092603Y-123625606D01*
X122911207Y-124062456D01*
X122911198Y-124073000D01*
X121895465Y-124073000D01*
X122446814Y-123522612D01*
X122754149Y-122782467D01*
X122754849Y-121981049D01*
X122448805Y-121240368D01*
X121882612Y-120673186D01*
X121142467Y-120365851D01*
X120341049Y-120365151D01*
X119600368Y-120671195D01*
X119327000Y-120944086D01*
X119327000Y-119927000D01*
X123072571Y-119927000D01*
X123091427Y-119972635D01*
X123425606Y-120307397D01*
X123862456Y-120488793D01*
X124335469Y-120489206D01*
X124772635Y-120308573D01*
X125107397Y-119974394D01*
X125288793Y-119537544D01*
X125289206Y-119064531D01*
X125108573Y-118627365D01*
X124774394Y-118292603D01*
X124337544Y-118111207D01*
X123864531Y-118110794D01*
X123427365Y-118291427D01*
X123092603Y-118625606D01*
X123072923Y-118673000D01*
X119327000Y-118673000D01*
X119327000Y-114350000D01*
X119317040Y-114299927D01*
X119453567Y-114212073D01*
X119551064Y-114069381D01*
X119585365Y-113900000D01*
X119585365Y-113400000D01*
X119555591Y-113241763D01*
X119462073Y-113096433D01*
X119319381Y-112998936D01*
X119150000Y-112964635D01*
X118250000Y-112964635D01*
X118091763Y-112994409D01*
X117946433Y-113087927D01*
X117848936Y-113230619D01*
X117814635Y-113400000D01*
X117814635Y-113900000D01*
X117844409Y-114058237D01*
X117937927Y-114203567D01*
X118080619Y-114301064D01*
X118082652Y-114301476D01*
X118073000Y-114350000D01*
X118073000Y-121240288D01*
X117856644Y-121456644D01*
X117720728Y-121660057D01*
X117673000Y-121900000D01*
X117673000Y-123390288D01*
X115665288Y-125398000D01*
X114175000Y-125398000D01*
X113935057Y-125445728D01*
X113731644Y-125581644D01*
X113080323Y-126232965D01*
X112877005Y-126232788D01*
X112425869Y-126419194D01*
X112080407Y-126764053D01*
X111893214Y-127214864D01*
X111892788Y-127702995D01*
X111806787Y-127702995D01*
X111807212Y-127217005D01*
X111620806Y-126765869D01*
X111275947Y-126420407D01*
X110825136Y-126233214D01*
X110337005Y-126232788D01*
X109885869Y-126419194D01*
X109540407Y-126764053D01*
X109353214Y-127214864D01*
X109352788Y-127702995D01*
X109266787Y-127702995D01*
X109267212Y-127217005D01*
X109080806Y-126765869D01*
X108735947Y-126420407D01*
X108285136Y-126233214D01*
X107939614Y-126232912D01*
X108055488Y-126155488D01*
X111152036Y-123058940D01*
X111212927Y-123153567D01*
X111355619Y-123251064D01*
X111525000Y-123285365D01*
X112275000Y-123285365D01*
X112433237Y-123255591D01*
X112578567Y-123162073D01*
X112676064Y-123019381D01*
X112710365Y-122850000D01*
X112710365Y-122155656D01*
X112727355Y-122172646D01*
X112739635Y-122180851D01*
X112739635Y-122300000D01*
X112769409Y-122458237D01*
X112862927Y-122603567D01*
X113005619Y-122701064D01*
X113175000Y-122735365D01*
X114425000Y-122735365D01*
X114583237Y-122705591D01*
X114728567Y-122612073D01*
X114826064Y-122469381D01*
X114860365Y-122300000D01*
X114860365Y-121300000D01*
X114830591Y-121141763D01*
X114737073Y-120996433D01*
X114594381Y-120898936D01*
X114425000Y-120864635D01*
X113263103Y-120864635D01*
X113296437Y-120814747D01*
X113367000Y-120460000D01*
X113367000Y-120258125D01*
X113438567Y-120212073D01*
X113536064Y-120069381D01*
X113570365Y-119900000D01*
X113570365Y-115300000D01*
X113540591Y-115141763D01*
X113447073Y-114996433D01*
X113304381Y-114898936D01*
X113135000Y-114864635D01*
X111745000Y-114864635D01*
X111586763Y-114894409D01*
X111441433Y-114987927D01*
X111343936Y-115130619D01*
X111309635Y-115300000D01*
X111309635Y-119900000D01*
X111339409Y-120058237D01*
X111414341Y-120174683D01*
X107016024Y-124573000D01*
X102380000Y-124573000D01*
X102025253Y-124643563D01*
X101724512Y-124844512D01*
X100336097Y-126232927D01*
X100177005Y-126232788D01*
X99725869Y-126419194D01*
X99380407Y-126764053D01*
X99193214Y-127214864D01*
X99192788Y-127702995D01*
X94026787Y-127702995D01*
X94027212Y-127217005D01*
X93840806Y-126765869D01*
X93495947Y-126420407D01*
X93045136Y-126233214D01*
X92819729Y-126233017D01*
X92043356Y-125456644D01*
X92026155Y-125445151D01*
X91839943Y-125320728D01*
X91600000Y-125273000D01*
X77359712Y-125273000D01*
X74743356Y-122656644D01*
X74735918Y-122651674D01*
X74539943Y-122520728D01*
X74300000Y-122473000D01*
X64940000Y-122473000D01*
X64700058Y-122520727D01*
X64496644Y-122656644D01*
X61227574Y-125925714D01*
X60740000Y-125828730D01*
X60246109Y-125926971D01*
X59827408Y-126206738D01*
X59547641Y-126625439D01*
X59449400Y-127119330D01*
X55202000Y-127119330D01*
X55202000Y-116573000D01*
X57215858Y-116573000D01*
X57215858Y-120127000D01*
X57330143Y-120127000D01*
X57330143Y-123427000D01*
X63269857Y-123427000D01*
X63269857Y-120127000D01*
X66584143Y-120127000D01*
X66584143Y-116573000D01*
X57215858Y-116573000D01*
X55202000Y-116573000D01*
X55202000Y-77502000D01*
X59293085Y-77502000D01*
X59293085Y-78342478D01*
G36*
X68233186Y-78057388D02*
X67925851Y-78797533D01*
X67925151Y-79598951D01*
X68231195Y-80339632D01*
X68797388Y-80906814D01*
X69537533Y-81214149D01*
X70338951Y-81214849D01*
X71079632Y-80908805D01*
X71646814Y-80342612D01*
X71954149Y-79602467D01*
X71954288Y-79442995D01*
X72268788Y-79442995D01*
X72455194Y-79894131D01*
X72800053Y-80239593D01*
X73250864Y-80426786D01*
X73738995Y-80427212D01*
X74190131Y-80240806D01*
X74535593Y-79895947D01*
X74722786Y-79445136D01*
X74722787Y-79442995D01*
X74808788Y-79442995D01*
X74995194Y-79894131D01*
X75340053Y-80239593D01*
X75790864Y-80426786D01*
X76278995Y-80427212D01*
X76730131Y-80240806D01*
X77075593Y-79895947D01*
X77262786Y-79445136D01*
X77262787Y-79442995D01*
X77348788Y-79442995D01*
X77535194Y-79894131D01*
X77880053Y-80239593D01*
X78330864Y-80426786D01*
X78818995Y-80427212D01*
X79270131Y-80240806D01*
X79615593Y-79895947D01*
X79802786Y-79445136D01*
X79802787Y-79442995D01*
X82428788Y-79442995D01*
X82615194Y-79894131D01*
X82960053Y-80239593D01*
X83410864Y-80426786D01*
X83898995Y-80427212D01*
X84350131Y-80240806D01*
X84695593Y-79895947D01*
X84880073Y-79451669D01*
X84916728Y-79635943D01*
X85052644Y-79839356D01*
X85196404Y-79935413D01*
X85500053Y-80239593D01*
X85950864Y-80426786D01*
X86438995Y-80427212D01*
X86890131Y-80240806D01*
X87235593Y-79895947D01*
X87422786Y-79445136D01*
X87422939Y-79270074D01*
X87456728Y-79439943D01*
X87589844Y-79639166D01*
X87695194Y-79894131D01*
X88040053Y-80239593D01*
X88490864Y-80426786D01*
X88978995Y-80427212D01*
X89430131Y-80240806D01*
X89775593Y-79895947D01*
X89962786Y-79445136D01*
X89962787Y-79442995D01*
X90048788Y-79442995D01*
X90235194Y-79894131D01*
X90580053Y-80239593D01*
X91030864Y-80426786D01*
X91518995Y-80427212D01*
X91970131Y-80240806D01*
X92315593Y-79895947D01*
X92502786Y-79445136D01*
X92502787Y-79442995D01*
X92588788Y-79442995D01*
X92775194Y-79894131D01*
X93120053Y-80239593D01*
X93570864Y-80426786D01*
X94058995Y-80427212D01*
X94510131Y-80240806D01*
X94855593Y-79895947D01*
X95042786Y-79445136D01*
X95042787Y-79442995D01*
X95128788Y-79442995D01*
X95315194Y-79894131D01*
X95660053Y-80239593D01*
X96110864Y-80426786D01*
X96598995Y-80427212D01*
X97050131Y-80240806D01*
X97395593Y-79895947D01*
X97582786Y-79445136D01*
X97582787Y-79442995D01*
X99192788Y-79442995D01*
X99379194Y-79894131D01*
X99724053Y-80239593D01*
X100174864Y-80426786D01*
X100662995Y-80427212D01*
X101114131Y-80240806D01*
X101459593Y-79895947D01*
X101646786Y-79445136D01*
X101646787Y-79442995D01*
X101732788Y-79442995D01*
X101919194Y-79894131D01*
X102264053Y-80239593D01*
X102714864Y-80426786D01*
X103202995Y-80427212D01*
X103329957Y-80374752D01*
X102640075Y-81064635D01*
X102250000Y-81064635D01*
X102091763Y-81094409D01*
X101946433Y-81187927D01*
X101848936Y-81330619D01*
X101814635Y-81500000D01*
X101814635Y-82000000D01*
X101844409Y-82158237D01*
X101937927Y-82303567D01*
X102080619Y-82401064D01*
X102250000Y-82435365D01*
X103150000Y-82435365D01*
X103308237Y-82405591D01*
X103453567Y-82312073D01*
X103551064Y-82169381D01*
X103585365Y-82000000D01*
X103585365Y-81609925D01*
X104068291Y-81127000D01*
X109000000Y-81127000D01*
X109201675Y-81086885D01*
X109372645Y-80972645D01*
X110040666Y-80304624D01*
X110334864Y-80426786D01*
X110822995Y-80427212D01*
X111274131Y-80240806D01*
X111619593Y-79895947D01*
X111806786Y-79445136D01*
X111807212Y-78957005D01*
X111620806Y-78505869D01*
X111275947Y-78160407D01*
X110825136Y-77973214D01*
X110337005Y-77972788D01*
X109885869Y-78159194D01*
X109540407Y-78504053D01*
X109353214Y-78954864D01*
X109352788Y-79442995D01*
X109370017Y-79484693D01*
X109165393Y-79689317D01*
X109266786Y-79445136D01*
X109267212Y-78957005D01*
X109080806Y-78505869D01*
X108735947Y-78160407D01*
X108285136Y-77973214D01*
X107797005Y-77972788D01*
X107345869Y-78159194D01*
X107000407Y-78504053D01*
X106813214Y-78954864D01*
X106812788Y-79442995D01*
X106999194Y-79894131D01*
X107177751Y-80073000D01*
X106362230Y-80073000D01*
X106539593Y-79895947D01*
X106726786Y-79445136D01*
X106727212Y-78957005D01*
X106540806Y-78505869D01*
X106195947Y-78160407D01*
X105745136Y-77973214D01*
X105257005Y-77972788D01*
X104805869Y-78159194D01*
X104460407Y-78504053D01*
X104273214Y-78954864D01*
X104272788Y-79442995D01*
X104459194Y-79894131D01*
X104637751Y-80073000D01*
X103850000Y-80073000D01*
X103815320Y-80079898D01*
X103999593Y-79895947D01*
X104186786Y-79445136D01*
X104187212Y-78957005D01*
X104000806Y-78505869D01*
X103655947Y-78160407D01*
X103205136Y-77973214D01*
X102717005Y-77972788D01*
X102265869Y-78159194D01*
X101920407Y-78504053D01*
X101733214Y-78954864D01*
X101732788Y-79442995D01*
X101646787Y-79442995D01*
X101647212Y-78957005D01*
X101460806Y-78505869D01*
X101115947Y-78160407D01*
X100665136Y-77973214D01*
X100177005Y-77972788D01*
X99725869Y-78159194D01*
X99380407Y-78504053D01*
X99193214Y-78954864D01*
X99192788Y-79442995D01*
X97582787Y-79442995D01*
X97583212Y-78957005D01*
X97396806Y-78505869D01*
X97051947Y-78160407D01*
X96601136Y-77973214D01*
X96113005Y-77972788D01*
X95661869Y-78159194D01*
X95316407Y-78504053D01*
X95129214Y-78954864D01*
X95128788Y-79442995D01*
X95042787Y-79442995D01*
X95043212Y-78957005D01*
X94856806Y-78505869D01*
X94511947Y-78160407D01*
X94061136Y-77973214D01*
X93573005Y-77972788D01*
X93121869Y-78159194D01*
X92776407Y-78504053D01*
X92589214Y-78954864D01*
X92588788Y-79442995D01*
X92502787Y-79442995D01*
X92503212Y-78957005D01*
X92316806Y-78505869D01*
X91971947Y-78160407D01*
X91521136Y-77973214D01*
X91033005Y-77972788D01*
X90581869Y-78159194D01*
X90236407Y-78504053D01*
X90049214Y-78954864D01*
X90048788Y-79442995D01*
X89962787Y-79442995D01*
X89963212Y-78957005D01*
X89776806Y-78505869D01*
X89431947Y-78160407D01*
X88981136Y-77973214D01*
X88493005Y-77972788D01*
X88041869Y-78159194D01*
X87696407Y-78504053D01*
X87589680Y-78761079D01*
X87456728Y-78960057D01*
X87423062Y-79129308D01*
X87423212Y-78957005D01*
X87236806Y-78505869D01*
X86891947Y-78160407D01*
X86441136Y-77973214D01*
X85953005Y-77972788D01*
X85501869Y-78159194D01*
X85156407Y-78504053D01*
X85049680Y-78761079D01*
X84916728Y-78960057D01*
X84883062Y-79129308D01*
X84883212Y-78957005D01*
X84696806Y-78505869D01*
X84351947Y-78160407D01*
X83901136Y-77973214D01*
X83413005Y-77972788D01*
X82961869Y-78159194D01*
X82616407Y-78504053D01*
X82429214Y-78954864D01*
X82428788Y-79442995D01*
X79802787Y-79442995D01*
X79803212Y-78957005D01*
X79616806Y-78505869D01*
X79271947Y-78160407D01*
X78821136Y-77973214D01*
X78333005Y-77972788D01*
X77881869Y-78159194D01*
X77536407Y-78504053D01*
X77349214Y-78954864D01*
X77348788Y-79442995D01*
X77262787Y-79442995D01*
X77263212Y-78957005D01*
X77076806Y-78505869D01*
X76731947Y-78160407D01*
X76281136Y-77973214D01*
X75793005Y-77972788D01*
X75341869Y-78159194D01*
X74996407Y-78504053D01*
X74809214Y-78954864D01*
X74808788Y-79442995D01*
X74722787Y-79442995D01*
X74723212Y-78957005D01*
X74536806Y-78505869D01*
X74191947Y-78160407D01*
X73741136Y-77973214D01*
X73253005Y-77972788D01*
X72801869Y-78159194D01*
X72456407Y-78504053D01*
X72269214Y-78954864D01*
X72268788Y-79442995D01*
X71954288Y-79442995D01*
X71954849Y-78801049D01*
X71648805Y-78060368D01*
X71091411Y-77502000D01*
X114954206Y-77502000D01*
X114898326Y-77513115D01*
X114898324Y-77513116D01*
X114898325Y-77513116D01*
X114727354Y-77627355D01*
X114027355Y-78327355D01*
X114009411Y-78354209D01*
X113815947Y-78160407D01*
X113365136Y-77973214D01*
X112877005Y-77972788D01*
X112425869Y-78159194D01*
X112080407Y-78504053D01*
X111893214Y-78954864D01*
X111892788Y-79442995D01*
X112079194Y-79894131D01*
X112424053Y-80239593D01*
X112874864Y-80426786D01*
X113362995Y-80427212D01*
X113472917Y-80381793D01*
X106681710Y-87173000D01*
X101420877Y-87173000D01*
X101405591Y-87091763D01*
X101312073Y-86946433D01*
X101169381Y-86848936D01*
X101000000Y-86814635D01*
X100500000Y-86814635D01*
X100341763Y-86844409D01*
X100196433Y-86937927D01*
X100098936Y-87080619D01*
X100064635Y-87250000D01*
X100064635Y-88150000D01*
X100094409Y-88308237D01*
X100187927Y-88453567D01*
X100297615Y-88528513D01*
X100166433Y-88612927D01*
X100068936Y-88755619D01*
X100034635Y-88925000D01*
X100034635Y-89575000D01*
X100064409Y-89733237D01*
X100157927Y-89878567D01*
X100300619Y-89976064D01*
X100470000Y-90010365D01*
X101530000Y-90010365D01*
X101688237Y-89980591D01*
X101833567Y-89887073D01*
X101931064Y-89744381D01*
X101965365Y-89575000D01*
X101965365Y-88925000D01*
X101935591Y-88766763D01*
X101842073Y-88621433D01*
X101699381Y-88523936D01*
X101530000Y-88489635D01*
X101527000Y-88489635D01*
X101527000Y-88227000D01*
X106900000Y-88227000D01*
X107101675Y-88186885D01*
X107272645Y-88072645D01*
X111373000Y-83972290D01*
X111373000Y-86881710D01*
X102981710Y-95273000D01*
X101527000Y-95273000D01*
X101527000Y-95110365D01*
X101530000Y-95110365D01*
X101688237Y-95080591D01*
X101833567Y-94987073D01*
X101931064Y-94844381D01*
X101965365Y-94675000D01*
X101965365Y-94025000D01*
X101935591Y-93866763D01*
X101842073Y-93721433D01*
X101699381Y-93623936D01*
X101530000Y-93589635D01*
X100470000Y-93589635D01*
X100311763Y-93619409D01*
X100166433Y-93712927D01*
X100068936Y-93855619D01*
X100034635Y-94025000D01*
X100034635Y-94675000D01*
X100064409Y-94833237D01*
X100157927Y-94978567D01*
X100172843Y-94988758D01*
X100096433Y-95037927D01*
X99998936Y-95180619D01*
X99964635Y-95350000D01*
X99964635Y-96250000D01*
X99994409Y-96408237D01*
X100036083Y-96473000D01*
X99764428Y-96473000D01*
X99801064Y-96419381D01*
X99835365Y-96250000D01*
X99835365Y-95350000D01*
X99805591Y-95191763D01*
X99712073Y-95046433D01*
X99629256Y-94989847D01*
X99633567Y-94987073D01*
X99731064Y-94844381D01*
X99765365Y-94675000D01*
X99765365Y-94025000D01*
X99735591Y-93866763D01*
X99642073Y-93721433D01*
X99499381Y-93623936D01*
X99330000Y-93589635D01*
X98270000Y-93589635D01*
X98111763Y-93619409D01*
X97966433Y-93712927D01*
X97868936Y-93855619D01*
X97834635Y-94025000D01*
X97834635Y-94675000D01*
X97864409Y-94833237D01*
X97957927Y-94978567D01*
X98100619Y-95076064D01*
X98270000Y-95110365D01*
X98273000Y-95110365D01*
X98273000Y-95273000D01*
X95418290Y-95273000D01*
X93827000Y-93681710D01*
X93827000Y-92863779D01*
X94872857Y-92863779D01*
X94998495Y-93167846D01*
X95230930Y-93400688D01*
X95534778Y-93526856D01*
X95863779Y-93527143D01*
X96167846Y-93401505D01*
X96335853Y-93233792D01*
X96412927Y-93353567D01*
X96555619Y-93451064D01*
X96725000Y-93485365D01*
X97475000Y-93485365D01*
X97633237Y-93455591D01*
X97778567Y-93362073D01*
X97876064Y-93219381D01*
X97910365Y-93050000D01*
X97910365Y-93004654D01*
X97957927Y-93078567D01*
X98100619Y-93176064D01*
X98270000Y-93210365D01*
X99330000Y-93210365D01*
X99488237Y-93180591D01*
X99633567Y-93087073D01*
X99731064Y-92944381D01*
X99765365Y-92775000D01*
X99765365Y-92125000D01*
X99735591Y-91966763D01*
X99642073Y-91821433D01*
X99612050Y-91800919D01*
X99633567Y-91787073D01*
X99731064Y-91644381D01*
X99765365Y-91475000D01*
X99765365Y-90825000D01*
X100034635Y-90825000D01*
X100034635Y-91475000D01*
X100064409Y-91633237D01*
X100157927Y-91778567D01*
X100187950Y-91799081D01*
X100166433Y-91812927D01*
X100068936Y-91955619D01*
X100034635Y-92125000D01*
X100034635Y-92775000D01*
X100064409Y-92933237D01*
X100157927Y-93078567D01*
X100300619Y-93176064D01*
X100470000Y-93210365D01*
X101530000Y-93210365D01*
X101688237Y-93180591D01*
X101800602Y-93108286D01*
X101819409Y-93208237D01*
X101912927Y-93353567D01*
X102055619Y-93451064D01*
X102225000Y-93485365D01*
X102975000Y-93485365D01*
X103133237Y-93455591D01*
X103278567Y-93362073D01*
X103376064Y-93219381D01*
X103410365Y-93050000D01*
X103410365Y-92250000D01*
X103380591Y-92091763D01*
X103287073Y-91946433D01*
X103144381Y-91848936D01*
X103143771Y-91848812D01*
X103278567Y-91762073D01*
X103284181Y-91753857D01*
X103330930Y-91800688D01*
X103634778Y-91926856D01*
X103963779Y-91927143D01*
X104267846Y-91801505D01*
X104500688Y-91569070D01*
X104626856Y-91265222D01*
X104627143Y-90936221D01*
X104501505Y-90632154D01*
X104269070Y-90399312D01*
X103965222Y-90273144D01*
X103636221Y-90272857D01*
X103332154Y-90398495D01*
X103325103Y-90405533D01*
X103287073Y-90346433D01*
X103144381Y-90248936D01*
X102975000Y-90214635D01*
X102225000Y-90214635D01*
X102066763Y-90244409D01*
X101921433Y-90337927D01*
X101823936Y-90480619D01*
X101818880Y-90505586D01*
X101699381Y-90423936D01*
X101530000Y-90389635D01*
X100470000Y-90389635D01*
X100311763Y-90419409D01*
X100166433Y-90512927D01*
X100068936Y-90655619D01*
X100034635Y-90825000D01*
X99765365Y-90825000D01*
X99735591Y-90666763D01*
X99642073Y-90521433D01*
X99499381Y-90423936D01*
X99330000Y-90389635D01*
X98270000Y-90389635D01*
X98111763Y-90419409D01*
X97966433Y-90512927D01*
X97910365Y-90594985D01*
X97910365Y-90550000D01*
X97880591Y-90391763D01*
X97787073Y-90246433D01*
X97644381Y-90148936D01*
X97475000Y-90114635D01*
X96725000Y-90114635D01*
X96566763Y-90144409D01*
X96421433Y-90237927D01*
X96323936Y-90380619D01*
X96289635Y-90550000D01*
X96289635Y-91350000D01*
X96319409Y-91508237D01*
X96412927Y-91653567D01*
X96555619Y-91751064D01*
X96725000Y-91785365D01*
X97475000Y-91785365D01*
X97633237Y-91755591D01*
X97755370Y-91677000D01*
X97892570Y-91677000D01*
X97957927Y-91778567D01*
X97987950Y-91799081D01*
X97966433Y-91812927D01*
X97891224Y-91923000D01*
X97752778Y-91923000D01*
X97644381Y-91848936D01*
X97475000Y-91814635D01*
X96725000Y-91814635D01*
X96566763Y-91844409D01*
X96421433Y-91937927D01*
X96323936Y-92080619D01*
X96315354Y-92123000D01*
X96292542Y-92123000D01*
X96169070Y-91999312D01*
X95865222Y-91873144D01*
X95536221Y-91872857D01*
X95232154Y-91998495D01*
X94999312Y-92230930D01*
X94873144Y-92534778D01*
X94872857Y-92863779D01*
X93827000Y-92863779D01*
X93827000Y-87572290D01*
X94327355Y-88072645D01*
X94498325Y-88186885D01*
X94700000Y-88227000D01*
X98273000Y-88227000D01*
X98273000Y-88489635D01*
X98270000Y-88489635D01*
X98111763Y-88519409D01*
X97966433Y-88612927D01*
X97868936Y-88755619D01*
X97834635Y-88925000D01*
X97834635Y-89575000D01*
X97864409Y-89733237D01*
X97957927Y-89878567D01*
X98100619Y-89976064D01*
X98270000Y-90010365D01*
X99330000Y-90010365D01*
X99488237Y-89980591D01*
X99633567Y-89887073D01*
X99731064Y-89744381D01*
X99765365Y-89575000D01*
X99765365Y-88925000D01*
X99735591Y-88766763D01*
X99642073Y-88621433D01*
X99570007Y-88572192D01*
X99658237Y-88555591D01*
X99803567Y-88462073D01*
X99901064Y-88319381D01*
X99935365Y-88150000D01*
X99935365Y-87250000D01*
X99905591Y-87091763D01*
X99812073Y-86946433D01*
X99669381Y-86848936D01*
X99500000Y-86814635D01*
X99000000Y-86814635D01*
X98841763Y-86844409D01*
X98696433Y-86937927D01*
X98598936Y-87080619D01*
X98580228Y-87173000D01*
X94918290Y-87173000D01*
X92572645Y-84827355D01*
X92401675Y-84713115D01*
X92200000Y-84673000D01*
X77300000Y-84673000D01*
X77098326Y-84713115D01*
X76927355Y-84827354D01*
X74527355Y-87227355D01*
X74413115Y-87398325D01*
X74377504Y-87577355D01*
X74373000Y-87600000D01*
X74373000Y-89581710D01*
X73490075Y-90464635D01*
X70200000Y-90464635D01*
X70041763Y-90494409D01*
X69896433Y-90587927D01*
X69827000Y-90689546D01*
X69827000Y-88458884D01*
X69887927Y-88553567D01*
X70030619Y-88651064D01*
X70200000Y-88685365D01*
X73800000Y-88685365D01*
X73958237Y-88655591D01*
X74103567Y-88562073D01*
X74201064Y-88419381D01*
X74235365Y-88250000D01*
X74235365Y-86450000D01*
X74205591Y-86291763D01*
X74112073Y-86146433D01*
X74015109Y-86080181D01*
X77568291Y-82527000D01*
X94831710Y-82527000D01*
X95414635Y-83109925D01*
X95414635Y-83575000D01*
X95444409Y-83733237D01*
X95537927Y-83878567D01*
X95680619Y-83976064D01*
X95723000Y-83984646D01*
X95723000Y-84013531D01*
X95691763Y-84019409D01*
X95546433Y-84112927D01*
X95448936Y-84255619D01*
X95414635Y-84425000D01*
X95414635Y-85175000D01*
X95444409Y-85333237D01*
X95537927Y-85478567D01*
X95680619Y-85576064D01*
X95850000Y-85610365D01*
X96650000Y-85610365D01*
X96808237Y-85580591D01*
X96953567Y-85487073D01*
X96999831Y-85419364D01*
X97037927Y-85478567D01*
X97180619Y-85576064D01*
X97350000Y-85610365D01*
X98150000Y-85610365D01*
X98308237Y-85580591D01*
X98372966Y-85538939D01*
X98372857Y-85663779D01*
X98498495Y-85967846D01*
X98730930Y-86200688D01*
X99034778Y-86326856D01*
X99363779Y-86327143D01*
X99667846Y-86201505D01*
X99900688Y-85969070D01*
X100026856Y-85665222D01*
X100027143Y-85336221D01*
X99901505Y-85032154D01*
X99669070Y-84799312D01*
X99365222Y-84673144D01*
X99118219Y-84672929D01*
X98872645Y-84427355D01*
X98701675Y-84313115D01*
X98558972Y-84284730D01*
X98555591Y-84266763D01*
X98462073Y-84121433D01*
X98319381Y-84023936D01*
X98203063Y-84000381D01*
X98308237Y-83980591D01*
X98453567Y-83887073D01*
X98516823Y-83794494D01*
X98519409Y-83808237D01*
X98612927Y-83953567D01*
X98755619Y-84051064D01*
X98925000Y-84085365D01*
X99675000Y-84085365D01*
X99833237Y-84055591D01*
X99978567Y-83962073D01*
X100076064Y-83819381D01*
X100084646Y-83777000D01*
X100220831Y-83777000D01*
X100237927Y-83803567D01*
X100380619Y-83901064D01*
X100550000Y-83935365D01*
X101450000Y-83935365D01*
X101608237Y-83905591D01*
X101753567Y-83812073D01*
X101777531Y-83777000D01*
X101920831Y-83777000D01*
X101937927Y-83803567D01*
X102080619Y-83901064D01*
X102250000Y-83935365D01*
X103150000Y-83935365D01*
X103308237Y-83905591D01*
X103453567Y-83812073D01*
X103551064Y-83669381D01*
X103585365Y-83500000D01*
X103585365Y-83000000D01*
X103555591Y-82841763D01*
X103462073Y-82696433D01*
X103319381Y-82598936D01*
X103150000Y-82564635D01*
X102250000Y-82564635D01*
X102091763Y-82594409D01*
X101946433Y-82687927D01*
X101922469Y-82723000D01*
X101779169Y-82723000D01*
X101762073Y-82696433D01*
X101619381Y-82598936D01*
X101450000Y-82564635D01*
X100550000Y-82564635D01*
X100391763Y-82594409D01*
X100246433Y-82687927D01*
X100222469Y-82723000D01*
X100086469Y-82723000D01*
X100080591Y-82691763D01*
X99987073Y-82546433D01*
X99844381Y-82448936D01*
X99675000Y-82414635D01*
X98925000Y-82414635D01*
X98766763Y-82444409D01*
X98621433Y-82537927D01*
X98544830Y-82650040D01*
X98462073Y-82521433D01*
X98319381Y-82423936D01*
X98150000Y-82389635D01*
X97350000Y-82389635D01*
X97191763Y-82419409D01*
X97046433Y-82512927D01*
X97000169Y-82580636D01*
X96962073Y-82521433D01*
X96819381Y-82423936D01*
X96650000Y-82389635D01*
X96184925Y-82389635D01*
X95422645Y-81627355D01*
X95251675Y-81513115D01*
X95050000Y-81473000D01*
X77350000Y-81473000D01*
X77148326Y-81513115D01*
X76977355Y-81627354D01*
X72590075Y-86014635D01*
X70200000Y-86014635D01*
X70041763Y-86044409D01*
X69896433Y-86137927D01*
X69798936Y-86280619D01*
X69764635Y-86450000D01*
X69764635Y-86693409D01*
X69749410Y-86683006D01*
X69700000Y-86673000D01*
X63827000Y-86673000D01*
X63827000Y-79800000D01*
X63634644Y-78832959D01*
X63306915Y-78342478D01*
X63306915Y-77502000D01*
X68789544Y-77502000D01*
X68233186Y-78057388D01*
X68233186Y-78057388D01*
G37*
X68233186Y-78057388D02*
X67925851Y-78797533D01*
X67925151Y-79598951D01*
X68231195Y-80339632D01*
X68797388Y-80906814D01*
X69537533Y-81214149D01*
X70338951Y-81214849D01*
X71079632Y-80908805D01*
X71646814Y-80342612D01*
X71954149Y-79602467D01*
X71954288Y-79442995D01*
X72268788Y-79442995D01*
X72455194Y-79894131D01*
X72800053Y-80239593D01*
X73250864Y-80426786D01*
X73738995Y-80427212D01*
X74190131Y-80240806D01*
X74535593Y-79895947D01*
X74722786Y-79445136D01*
X74722787Y-79442995D01*
X74808788Y-79442995D01*
X74995194Y-79894131D01*
X75340053Y-80239593D01*
X75790864Y-80426786D01*
X76278995Y-80427212D01*
X76730131Y-80240806D01*
X77075593Y-79895947D01*
X77262786Y-79445136D01*
X77262787Y-79442995D01*
X77348788Y-79442995D01*
X77535194Y-79894131D01*
X77880053Y-80239593D01*
X78330864Y-80426786D01*
X78818995Y-80427212D01*
X79270131Y-80240806D01*
X79615593Y-79895947D01*
X79802786Y-79445136D01*
X79802787Y-79442995D01*
X82428788Y-79442995D01*
X82615194Y-79894131D01*
X82960053Y-80239593D01*
X83410864Y-80426786D01*
X83898995Y-80427212D01*
X84350131Y-80240806D01*
X84695593Y-79895947D01*
X84880073Y-79451669D01*
X84916728Y-79635943D01*
X85052644Y-79839356D01*
X85196404Y-79935413D01*
X85500053Y-80239593D01*
X85950864Y-80426786D01*
X86438995Y-80427212D01*
X86890131Y-80240806D01*
X87235593Y-79895947D01*
X87422786Y-79445136D01*
X87422939Y-79270074D01*
X87456728Y-79439943D01*
X87589844Y-79639166D01*
X87695194Y-79894131D01*
X88040053Y-80239593D01*
X88490864Y-80426786D01*
X88978995Y-80427212D01*
X89430131Y-80240806D01*
X89775593Y-79895947D01*
X89962786Y-79445136D01*
X89962787Y-79442995D01*
X90048788Y-79442995D01*
X90235194Y-79894131D01*
X90580053Y-80239593D01*
X91030864Y-80426786D01*
X91518995Y-80427212D01*
X91970131Y-80240806D01*
X92315593Y-79895947D01*
X92502786Y-79445136D01*
X92502787Y-79442995D01*
X92588788Y-79442995D01*
X92775194Y-79894131D01*
X93120053Y-80239593D01*
X93570864Y-80426786D01*
X94058995Y-80427212D01*
X94510131Y-80240806D01*
X94855593Y-79895947D01*
X95042786Y-79445136D01*
X95042787Y-79442995D01*
X95128788Y-79442995D01*
X95315194Y-79894131D01*
X95660053Y-80239593D01*
X96110864Y-80426786D01*
X96598995Y-80427212D01*
X97050131Y-80240806D01*
X97395593Y-79895947D01*
X97582786Y-79445136D01*
X97582787Y-79442995D01*
X99192788Y-79442995D01*
X99379194Y-79894131D01*
X99724053Y-80239593D01*
X100174864Y-80426786D01*
X100662995Y-80427212D01*
X101114131Y-80240806D01*
X101459593Y-79895947D01*
X101646786Y-79445136D01*
X101646787Y-79442995D01*
X101732788Y-79442995D01*
X101919194Y-79894131D01*
X102264053Y-80239593D01*
X102714864Y-80426786D01*
X103202995Y-80427212D01*
X103329957Y-80374752D01*
X102640075Y-81064635D01*
X102250000Y-81064635D01*
X102091763Y-81094409D01*
X101946433Y-81187927D01*
X101848936Y-81330619D01*
X101814635Y-81500000D01*
X101814635Y-82000000D01*
X101844409Y-82158237D01*
X101937927Y-82303567D01*
X102080619Y-82401064D01*
X102250000Y-82435365D01*
X103150000Y-82435365D01*
X103308237Y-82405591D01*
X103453567Y-82312073D01*
X103551064Y-82169381D01*
X103585365Y-82000000D01*
X103585365Y-81609925D01*
X104068291Y-81127000D01*
X109000000Y-81127000D01*
X109201675Y-81086885D01*
X109372645Y-80972645D01*
X110040666Y-80304624D01*
X110334864Y-80426786D01*
X110822995Y-80427212D01*
X111274131Y-80240806D01*
X111619593Y-79895947D01*
X111806786Y-79445136D01*
X111807212Y-78957005D01*
X111620806Y-78505869D01*
X111275947Y-78160407D01*
X110825136Y-77973214D01*
X110337005Y-77972788D01*
X109885869Y-78159194D01*
X109540407Y-78504053D01*
X109353214Y-78954864D01*
X109352788Y-79442995D01*
X109370017Y-79484693D01*
X109165393Y-79689317D01*
X109266786Y-79445136D01*
X109267212Y-78957005D01*
X109080806Y-78505869D01*
X108735947Y-78160407D01*
X108285136Y-77973214D01*
X107797005Y-77972788D01*
X107345869Y-78159194D01*
X107000407Y-78504053D01*
X106813214Y-78954864D01*
X106812788Y-79442995D01*
X106999194Y-79894131D01*
X107177751Y-80073000D01*
X106362230Y-80073000D01*
X106539593Y-79895947D01*
X106726786Y-79445136D01*
X106727212Y-78957005D01*
X106540806Y-78505869D01*
X106195947Y-78160407D01*
X105745136Y-77973214D01*
X105257005Y-77972788D01*
X104805869Y-78159194D01*
X104460407Y-78504053D01*
X104273214Y-78954864D01*
X104272788Y-79442995D01*
X104459194Y-79894131D01*
X104637751Y-80073000D01*
X103850000Y-80073000D01*
X103815320Y-80079898D01*
X103999593Y-79895947D01*
X104186786Y-79445136D01*
X104187212Y-78957005D01*
X104000806Y-78505869D01*
X103655947Y-78160407D01*
X103205136Y-77973214D01*
X102717005Y-77972788D01*
X102265869Y-78159194D01*
X101920407Y-78504053D01*
X101733214Y-78954864D01*
X101732788Y-79442995D01*
X101646787Y-79442995D01*
X101647212Y-78957005D01*
X101460806Y-78505869D01*
X101115947Y-78160407D01*
X100665136Y-77973214D01*
X100177005Y-77972788D01*
X99725869Y-78159194D01*
X99380407Y-78504053D01*
X99193214Y-78954864D01*
X99192788Y-79442995D01*
X97582787Y-79442995D01*
X97583212Y-78957005D01*
X97396806Y-78505869D01*
X97051947Y-78160407D01*
X96601136Y-77973214D01*
X96113005Y-77972788D01*
X95661869Y-78159194D01*
X95316407Y-78504053D01*
X95129214Y-78954864D01*
X95128788Y-79442995D01*
X95042787Y-79442995D01*
X95043212Y-78957005D01*
X94856806Y-78505869D01*
X94511947Y-78160407D01*
X94061136Y-77973214D01*
X93573005Y-77972788D01*
X93121869Y-78159194D01*
X92776407Y-78504053D01*
X92589214Y-78954864D01*
X92588788Y-79442995D01*
X92502787Y-79442995D01*
X92503212Y-78957005D01*
X92316806Y-78505869D01*
X91971947Y-78160407D01*
X91521136Y-77973214D01*
X91033005Y-77972788D01*
X90581869Y-78159194D01*
X90236407Y-78504053D01*
X90049214Y-78954864D01*
X90048788Y-79442995D01*
X89962787Y-79442995D01*
X89963212Y-78957005D01*
X89776806Y-78505869D01*
X89431947Y-78160407D01*
X88981136Y-77973214D01*
X88493005Y-77972788D01*
X88041869Y-78159194D01*
X87696407Y-78504053D01*
X87589680Y-78761079D01*
X87456728Y-78960057D01*
X87423062Y-79129308D01*
X87423212Y-78957005D01*
X87236806Y-78505869D01*
X86891947Y-78160407D01*
X86441136Y-77973214D01*
X85953005Y-77972788D01*
X85501869Y-78159194D01*
X85156407Y-78504053D01*
X85049680Y-78761079D01*
X84916728Y-78960057D01*
X84883062Y-79129308D01*
X84883212Y-78957005D01*
X84696806Y-78505869D01*
X84351947Y-78160407D01*
X83901136Y-77973214D01*
X83413005Y-77972788D01*
X82961869Y-78159194D01*
X82616407Y-78504053D01*
X82429214Y-78954864D01*
X82428788Y-79442995D01*
X79802787Y-79442995D01*
X79803212Y-78957005D01*
X79616806Y-78505869D01*
X79271947Y-78160407D01*
X78821136Y-77973214D01*
X78333005Y-77972788D01*
X77881869Y-78159194D01*
X77536407Y-78504053D01*
X77349214Y-78954864D01*
X77348788Y-79442995D01*
X77262787Y-79442995D01*
X77263212Y-78957005D01*
X77076806Y-78505869D01*
X76731947Y-78160407D01*
X76281136Y-77973214D01*
X75793005Y-77972788D01*
X75341869Y-78159194D01*
X74996407Y-78504053D01*
X74809214Y-78954864D01*
X74808788Y-79442995D01*
X74722787Y-79442995D01*
X74723212Y-78957005D01*
X74536806Y-78505869D01*
X74191947Y-78160407D01*
X73741136Y-77973214D01*
X73253005Y-77972788D01*
X72801869Y-78159194D01*
X72456407Y-78504053D01*
X72269214Y-78954864D01*
X72268788Y-79442995D01*
X71954288Y-79442995D01*
X71954849Y-78801049D01*
X71648805Y-78060368D01*
X71091411Y-77502000D01*
X114954206Y-77502000D01*
X114898326Y-77513115D01*
X114898324Y-77513116D01*
X114898325Y-77513116D01*
X114727354Y-77627355D01*
X114027355Y-78327355D01*
X114009411Y-78354209D01*
X113815947Y-78160407D01*
X113365136Y-77973214D01*
X112877005Y-77972788D01*
X112425869Y-78159194D01*
X112080407Y-78504053D01*
X111893214Y-78954864D01*
X111892788Y-79442995D01*
X112079194Y-79894131D01*
X112424053Y-80239593D01*
X112874864Y-80426786D01*
X113362995Y-80427212D01*
X113472917Y-80381793D01*
X106681710Y-87173000D01*
X101420877Y-87173000D01*
X101405591Y-87091763D01*
X101312073Y-86946433D01*
X101169381Y-86848936D01*
X101000000Y-86814635D01*
X100500000Y-86814635D01*
X100341763Y-86844409D01*
X100196433Y-86937927D01*
X100098936Y-87080619D01*
X100064635Y-87250000D01*
X100064635Y-88150000D01*
X100094409Y-88308237D01*
X100187927Y-88453567D01*
X100297615Y-88528513D01*
X100166433Y-88612927D01*
X100068936Y-88755619D01*
X100034635Y-88925000D01*
X100034635Y-89575000D01*
X100064409Y-89733237D01*
X100157927Y-89878567D01*
X100300619Y-89976064D01*
X100470000Y-90010365D01*
X101530000Y-90010365D01*
X101688237Y-89980591D01*
X101833567Y-89887073D01*
X101931064Y-89744381D01*
X101965365Y-89575000D01*
X101965365Y-88925000D01*
X101935591Y-88766763D01*
X101842073Y-88621433D01*
X101699381Y-88523936D01*
X101530000Y-88489635D01*
X101527000Y-88489635D01*
X101527000Y-88227000D01*
X106900000Y-88227000D01*
X107101675Y-88186885D01*
X107272645Y-88072645D01*
X111373000Y-83972290D01*
X111373000Y-86881710D01*
X102981710Y-95273000D01*
X101527000Y-95273000D01*
X101527000Y-95110365D01*
X101530000Y-95110365D01*
X101688237Y-95080591D01*
X101833567Y-94987073D01*
X101931064Y-94844381D01*
X101965365Y-94675000D01*
X101965365Y-94025000D01*
X101935591Y-93866763D01*
X101842073Y-93721433D01*
X101699381Y-93623936D01*
X101530000Y-93589635D01*
X100470000Y-93589635D01*
X100311763Y-93619409D01*
X100166433Y-93712927D01*
X100068936Y-93855619D01*
X100034635Y-94025000D01*
X100034635Y-94675000D01*
X100064409Y-94833237D01*
X100157927Y-94978567D01*
X100172843Y-94988758D01*
X100096433Y-95037927D01*
X99998936Y-95180619D01*
X99964635Y-95350000D01*
X99964635Y-96250000D01*
X99994409Y-96408237D01*
X100036083Y-96473000D01*
X99764428Y-96473000D01*
X99801064Y-96419381D01*
X99835365Y-96250000D01*
X99835365Y-95350000D01*
X99805591Y-95191763D01*
X99712073Y-95046433D01*
X99629256Y-94989847D01*
X99633567Y-94987073D01*
X99731064Y-94844381D01*
X99765365Y-94675000D01*
X99765365Y-94025000D01*
X99735591Y-93866763D01*
X99642073Y-93721433D01*
X99499381Y-93623936D01*
X99330000Y-93589635D01*
X98270000Y-93589635D01*
X98111763Y-93619409D01*
X97966433Y-93712927D01*
X97868936Y-93855619D01*
X97834635Y-94025000D01*
X97834635Y-94675000D01*
X97864409Y-94833237D01*
X97957927Y-94978567D01*
X98100619Y-95076064D01*
X98270000Y-95110365D01*
X98273000Y-95110365D01*
X98273000Y-95273000D01*
X95418290Y-95273000D01*
X93827000Y-93681710D01*
X93827000Y-92863779D01*
X94872857Y-92863779D01*
X94998495Y-93167846D01*
X95230930Y-93400688D01*
X95534778Y-93526856D01*
X95863779Y-93527143D01*
X96167846Y-93401505D01*
X96335853Y-93233792D01*
X96412927Y-93353567D01*
X96555619Y-93451064D01*
X96725000Y-93485365D01*
X97475000Y-93485365D01*
X97633237Y-93455591D01*
X97778567Y-93362073D01*
X97876064Y-93219381D01*
X97910365Y-93050000D01*
X97910365Y-93004654D01*
X97957927Y-93078567D01*
X98100619Y-93176064D01*
X98270000Y-93210365D01*
X99330000Y-93210365D01*
X99488237Y-93180591D01*
X99633567Y-93087073D01*
X99731064Y-92944381D01*
X99765365Y-92775000D01*
X99765365Y-92125000D01*
X99735591Y-91966763D01*
X99642073Y-91821433D01*
X99612050Y-91800919D01*
X99633567Y-91787073D01*
X99731064Y-91644381D01*
X99765365Y-91475000D01*
X99765365Y-90825000D01*
X100034635Y-90825000D01*
X100034635Y-91475000D01*
X100064409Y-91633237D01*
X100157927Y-91778567D01*
X100187950Y-91799081D01*
X100166433Y-91812927D01*
X100068936Y-91955619D01*
X100034635Y-92125000D01*
X100034635Y-92775000D01*
X100064409Y-92933237D01*
X100157927Y-93078567D01*
X100300619Y-93176064D01*
X100470000Y-93210365D01*
X101530000Y-93210365D01*
X101688237Y-93180591D01*
X101800602Y-93108286D01*
X101819409Y-93208237D01*
X101912927Y-93353567D01*
X102055619Y-93451064D01*
X102225000Y-93485365D01*
X102975000Y-93485365D01*
X103133237Y-93455591D01*
X103278567Y-93362073D01*
X103376064Y-93219381D01*
X103410365Y-93050000D01*
X103410365Y-92250000D01*
X103380591Y-92091763D01*
X103287073Y-91946433D01*
X103144381Y-91848936D01*
X103143771Y-91848812D01*
X103278567Y-91762073D01*
X103284181Y-91753857D01*
X103330930Y-91800688D01*
X103634778Y-91926856D01*
X103963779Y-91927143D01*
X104267846Y-91801505D01*
X104500688Y-91569070D01*
X104626856Y-91265222D01*
X104627143Y-90936221D01*
X104501505Y-90632154D01*
X104269070Y-90399312D01*
X103965222Y-90273144D01*
X103636221Y-90272857D01*
X103332154Y-90398495D01*
X103325103Y-90405533D01*
X103287073Y-90346433D01*
X103144381Y-90248936D01*
X102975000Y-90214635D01*
X102225000Y-90214635D01*
X102066763Y-90244409D01*
X101921433Y-90337927D01*
X101823936Y-90480619D01*
X101818880Y-90505586D01*
X101699381Y-90423936D01*
X101530000Y-90389635D01*
X100470000Y-90389635D01*
X100311763Y-90419409D01*
X100166433Y-90512927D01*
X100068936Y-90655619D01*
X100034635Y-90825000D01*
X99765365Y-90825000D01*
X99735591Y-90666763D01*
X99642073Y-90521433D01*
X99499381Y-90423936D01*
X99330000Y-90389635D01*
X98270000Y-90389635D01*
X98111763Y-90419409D01*
X97966433Y-90512927D01*
X97910365Y-90594985D01*
X97910365Y-90550000D01*
X97880591Y-90391763D01*
X97787073Y-90246433D01*
X97644381Y-90148936D01*
X97475000Y-90114635D01*
X96725000Y-90114635D01*
X96566763Y-90144409D01*
X96421433Y-90237927D01*
X96323936Y-90380619D01*
X96289635Y-90550000D01*
X96289635Y-91350000D01*
X96319409Y-91508237D01*
X96412927Y-91653567D01*
X96555619Y-91751064D01*
X96725000Y-91785365D01*
X97475000Y-91785365D01*
X97633237Y-91755591D01*
X97755370Y-91677000D01*
X97892570Y-91677000D01*
X97957927Y-91778567D01*
X97987950Y-91799081D01*
X97966433Y-91812927D01*
X97891224Y-91923000D01*
X97752778Y-91923000D01*
X97644381Y-91848936D01*
X97475000Y-91814635D01*
X96725000Y-91814635D01*
X96566763Y-91844409D01*
X96421433Y-91937927D01*
X96323936Y-92080619D01*
X96315354Y-92123000D01*
X96292542Y-92123000D01*
X96169070Y-91999312D01*
X95865222Y-91873144D01*
X95536221Y-91872857D01*
X95232154Y-91998495D01*
X94999312Y-92230930D01*
X94873144Y-92534778D01*
X94872857Y-92863779D01*
X93827000Y-92863779D01*
X93827000Y-87572290D01*
X94327355Y-88072645D01*
X94498325Y-88186885D01*
X94700000Y-88227000D01*
X98273000Y-88227000D01*
X98273000Y-88489635D01*
X98270000Y-88489635D01*
X98111763Y-88519409D01*
X97966433Y-88612927D01*
X97868936Y-88755619D01*
X97834635Y-88925000D01*
X97834635Y-89575000D01*
X97864409Y-89733237D01*
X97957927Y-89878567D01*
X98100619Y-89976064D01*
X98270000Y-90010365D01*
X99330000Y-90010365D01*
X99488237Y-89980591D01*
X99633567Y-89887073D01*
X99731064Y-89744381D01*
X99765365Y-89575000D01*
X99765365Y-88925000D01*
X99735591Y-88766763D01*
X99642073Y-88621433D01*
X99570007Y-88572192D01*
X99658237Y-88555591D01*
X99803567Y-88462073D01*
X99901064Y-88319381D01*
X99935365Y-88150000D01*
X99935365Y-87250000D01*
X99905591Y-87091763D01*
X99812073Y-86946433D01*
X99669381Y-86848936D01*
X99500000Y-86814635D01*
X99000000Y-86814635D01*
X98841763Y-86844409D01*
X98696433Y-86937927D01*
X98598936Y-87080619D01*
X98580228Y-87173000D01*
X94918290Y-87173000D01*
X92572645Y-84827355D01*
X92401675Y-84713115D01*
X92200000Y-84673000D01*
X77300000Y-84673000D01*
X77098326Y-84713115D01*
X76927355Y-84827354D01*
X74527355Y-87227355D01*
X74413115Y-87398325D01*
X74377504Y-87577355D01*
X74373000Y-87600000D01*
X74373000Y-89581710D01*
X73490075Y-90464635D01*
X70200000Y-90464635D01*
X70041763Y-90494409D01*
X69896433Y-90587927D01*
X69827000Y-90689546D01*
X69827000Y-88458884D01*
X69887927Y-88553567D01*
X70030619Y-88651064D01*
X70200000Y-88685365D01*
X73800000Y-88685365D01*
X73958237Y-88655591D01*
X74103567Y-88562073D01*
X74201064Y-88419381D01*
X74235365Y-88250000D01*
X74235365Y-86450000D01*
X74205591Y-86291763D01*
X74112073Y-86146433D01*
X74015109Y-86080181D01*
X77568291Y-82527000D01*
X94831710Y-82527000D01*
X95414635Y-83109925D01*
X95414635Y-83575000D01*
X95444409Y-83733237D01*
X95537927Y-83878567D01*
X95680619Y-83976064D01*
X95723000Y-83984646D01*
X95723000Y-84013531D01*
X95691763Y-84019409D01*
X95546433Y-84112927D01*
X95448936Y-84255619D01*
X95414635Y-84425000D01*
X95414635Y-85175000D01*
X95444409Y-85333237D01*
X95537927Y-85478567D01*
X95680619Y-85576064D01*
X95850000Y-85610365D01*
X96650000Y-85610365D01*
X96808237Y-85580591D01*
X96953567Y-85487073D01*
X96999831Y-85419364D01*
X97037927Y-85478567D01*
X97180619Y-85576064D01*
X97350000Y-85610365D01*
X98150000Y-85610365D01*
X98308237Y-85580591D01*
X98372966Y-85538939D01*
X98372857Y-85663779D01*
X98498495Y-85967846D01*
X98730930Y-86200688D01*
X99034778Y-86326856D01*
X99363779Y-86327143D01*
X99667846Y-86201505D01*
X99900688Y-85969070D01*
X100026856Y-85665222D01*
X100027143Y-85336221D01*
X99901505Y-85032154D01*
X99669070Y-84799312D01*
X99365222Y-84673144D01*
X99118219Y-84672929D01*
X98872645Y-84427355D01*
X98701675Y-84313115D01*
X98558972Y-84284730D01*
X98555591Y-84266763D01*
X98462073Y-84121433D01*
X98319381Y-84023936D01*
X98203063Y-84000381D01*
X98308237Y-83980591D01*
X98453567Y-83887073D01*
X98516823Y-83794494D01*
X98519409Y-83808237D01*
X98612927Y-83953567D01*
X98755619Y-84051064D01*
X98925000Y-84085365D01*
X99675000Y-84085365D01*
X99833237Y-84055591D01*
X99978567Y-83962073D01*
X100076064Y-83819381D01*
X100084646Y-83777000D01*
X100220831Y-83777000D01*
X100237927Y-83803567D01*
X100380619Y-83901064D01*
X100550000Y-83935365D01*
X101450000Y-83935365D01*
X101608237Y-83905591D01*
X101753567Y-83812073D01*
X101777531Y-83777000D01*
X101920831Y-83777000D01*
X101937927Y-83803567D01*
X102080619Y-83901064D01*
X102250000Y-83935365D01*
X103150000Y-83935365D01*
X103308237Y-83905591D01*
X103453567Y-83812073D01*
X103551064Y-83669381D01*
X103585365Y-83500000D01*
X103585365Y-83000000D01*
X103555591Y-82841763D01*
X103462073Y-82696433D01*
X103319381Y-82598936D01*
X103150000Y-82564635D01*
X102250000Y-82564635D01*
X102091763Y-82594409D01*
X101946433Y-82687927D01*
X101922469Y-82723000D01*
X101779169Y-82723000D01*
X101762073Y-82696433D01*
X101619381Y-82598936D01*
X101450000Y-82564635D01*
X100550000Y-82564635D01*
X100391763Y-82594409D01*
X100246433Y-82687927D01*
X100222469Y-82723000D01*
X100086469Y-82723000D01*
X100080591Y-82691763D01*
X99987073Y-82546433D01*
X99844381Y-82448936D01*
X99675000Y-82414635D01*
X98925000Y-82414635D01*
X98766763Y-82444409D01*
X98621433Y-82537927D01*
X98544830Y-82650040D01*
X98462073Y-82521433D01*
X98319381Y-82423936D01*
X98150000Y-82389635D01*
X97350000Y-82389635D01*
X97191763Y-82419409D01*
X97046433Y-82512927D01*
X97000169Y-82580636D01*
X96962073Y-82521433D01*
X96819381Y-82423936D01*
X96650000Y-82389635D01*
X96184925Y-82389635D01*
X95422645Y-81627355D01*
X95251675Y-81513115D01*
X95050000Y-81473000D01*
X77350000Y-81473000D01*
X77148326Y-81513115D01*
X76977355Y-81627354D01*
X72590075Y-86014635D01*
X70200000Y-86014635D01*
X70041763Y-86044409D01*
X69896433Y-86137927D01*
X69798936Y-86280619D01*
X69764635Y-86450000D01*
X69764635Y-86693409D01*
X69749410Y-86683006D01*
X69700000Y-86673000D01*
X63827000Y-86673000D01*
X63827000Y-79800000D01*
X63634644Y-78832959D01*
X63306915Y-78342478D01*
X63306915Y-77502000D01*
X68789544Y-77502000D01*
X68233186Y-78057388D01*
M02*
