M48
;DRILL file {KiCad 5.0.1-33cea8e~68~ubuntu18.04.1} date Di 27 Nov 2018 01:55:20 CET
;FORMAT={-:-/ absolute / metric / decimal}
FMAT,2
METRIC,TZ
T1C0.400
T2C0.500
T3C0.800
T4C1.000
T5C1.016
T6C1.100
T7C1.200
T8C1.400
T9C1.500
T10C2.600
%
G90
G05
M71
T1
X55.927Y-110.746
X56.Y-128.9
X56.5Y-92.1
X62.2Y-92.8
X66.Y-110.6
X66.1Y-97.9
X66.1Y-104.3
X68.6Y-85.7
X69.1Y-89.6
X69.4Y-123.1
X72.4Y-125.7
X72.7Y-119.9
X76.1Y-120.7
X78.5Y-120.5
X79.7Y-121.1
X82.Y-86.5
X86.8Y-120.5
X89.2Y-86.6
X95.5Y-91.9
X97.3Y-119.2
X97.4Y-102.9
X97.4Y-111.1
X97.7Y-90.4
X97.8Y-87.4
X99.Y-88.3
X100.4Y-92.9
X100.6Y-90.8
X100.6Y-120.2
X100.7Y-86.7
X102.2Y-103.4
X103.Y-127.9
X103.1Y-114.9
X105.Y-104.
X105.Y-106.
X105.Y-108.
X105.Y-110.
X105.Y-112.
X105.5Y-119.4
X105.7Y-94.9
X106.8Y-80.4
X107.Y-104.
X107.Y-106.
X107.Y-108.
X107.Y-110.
X107.Y-112.
X107.8Y-122.7
X109.Y-104.
X109.Y-106.
X109.Y-108.
X109.Y-110.
X109.Y-112.
X109.1Y-91.3
X109.5Y-88.2
X110.4Y-85.3
X111.Y-104.
X111.Y-106.
X111.Y-108.
X111.Y-110.
X111.Y-112.
X111.368Y-96.431
X112.2Y-125.7
X112.7Y-88.2
X113.Y-104.
X113.Y-106.
X113.Y-108.
X113.Y-110.
X113.Y-112.
X113.95Y-96.15
X114.Y-89.9
X115.Y-82.9
X115.Y-104.
X115.Y-106.
X115.Y-108.
X115.Y-110.
X115.Y-112.
X117.Y-111.8
X118.8Y-87.3
X118.9Y-90.7
X120.6Y-86.1
X121.1Y-97.3
X122.4Y-89.2
X125.2Y-88.6
X138.Y-128.7
T2
X57.3Y-85.2
X65.5Y-85.1
T3
X122.4Y-79.19
X122.4Y-86.81
T4
X123.5Y-119.3
X123.5Y-121.8
X123.5Y-124.3
X138.Y-119.3
X138.Y-124.3
X126.75Y-80.6
X131.25Y-80.6
X73.496Y-79.2
X76.036Y-79.2
X78.576Y-79.2
X81.116Y-79.2
X82.64Y-127.46
X83.656Y-79.2
X85.18Y-127.46
X86.196Y-79.2
X87.72Y-127.46
X88.736Y-79.2
X90.26Y-127.46
X91.276Y-79.2
X92.8Y-127.46
X93.816Y-79.2
X95.34Y-127.46
X96.356Y-79.2
X97.88Y-127.46
X100.42Y-79.2
X100.42Y-127.46
X102.96Y-79.2
X105.5Y-79.2
X105.5Y-127.46
X108.04Y-79.2
X108.04Y-127.46
X110.58Y-79.2
X110.58Y-127.46
X113.12Y-79.2
X113.12Y-127.46
X115.66Y-79.2
X115.66Y-127.46
X118.2Y-79.2
X118.2Y-127.46
T5
X56.7Y-100.
X56.7Y-102.54
X56.7Y-105.08
X116.7Y-98.76
X116.7Y-101.3
T6
X131.8Y-104.95
X136.5Y-108.65
X137.8Y-104.95
T7
X125.5Y-83.1
X132.5Y-83.1
T8
X59.695Y-122.1
X63.505Y-122.1
T9
X128.Y-93.1
X128.Y-96.9
X135.5Y-91.7
X135.5Y-98.3
T10
X131.Y-115.6
X131.Y-128.
T0
M30
