%FSLAX45Y45*%
G04 Gerber Fmt 4.5, Leading zero omitted, Abs format (unit mm)*
G04 Created by KiCad (PCBNEW 5.0.1-33cea8e~68~ubuntu18.04.1) date Di 27 Nov 2018 01:55:21 CET*
%MOMM*%
%LPD*%
G01*
G04 APERTURE LIST*
%ADD10C,0.150000*%
%ADD11C,0.200000*%
%ADD12C,0.300000*%
G04 APERTURE END LIST*
D10*
X5470000Y-7700000D02*
X5470000Y-13000000D01*
X13950000Y-7700000D02*
X5470000Y-7700000D01*
X13950000Y-13000000D02*
X13950000Y-7700000D01*
X5470000Y-13000000D02*
X13950000Y-13000000D01*
D11*
X5572701Y-11054613D02*
X5612701Y-11094613D01*
X5612701Y-11054613D02*
X5572701Y-11094613D01*
X5580000Y-12870000D02*
X5620000Y-12910000D01*
X5620000Y-12870000D02*
X5580000Y-12910000D01*
X5630000Y-9190000D02*
X5670000Y-9230000D01*
X5670000Y-9190000D02*
X5630000Y-9230000D01*
X6200000Y-9260000D02*
X6240000Y-9300000D01*
X6240000Y-9260000D02*
X6200000Y-9300000D01*
X6580000Y-11040000D02*
X6620000Y-11080000D01*
X6620000Y-11040000D02*
X6580000Y-11080000D01*
X6590000Y-9770000D02*
X6630000Y-9810000D01*
X6630000Y-9770000D02*
X6590000Y-9810000D01*
X6590000Y-10410000D02*
X6630000Y-10450000D01*
X6630000Y-10410000D02*
X6590000Y-10450000D01*
X6840000Y-8550000D02*
X6880000Y-8590000D01*
X6880000Y-8550000D02*
X6840000Y-8590000D01*
X6890000Y-8940000D02*
X6930000Y-8980000D01*
X6930000Y-8940000D02*
X6890000Y-8980000D01*
X6920000Y-12290000D02*
X6960000Y-12330000D01*
X6960000Y-12290000D02*
X6920000Y-12330000D01*
X7220000Y-12550000D02*
X7260000Y-12590000D01*
X7260000Y-12550000D02*
X7220000Y-12590000D01*
X7250000Y-11970000D02*
X7290000Y-12010000D01*
X7290000Y-11970000D02*
X7250000Y-12010000D01*
X7590000Y-12050000D02*
X7630000Y-12090000D01*
X7630000Y-12050000D02*
X7590000Y-12090000D01*
X7830000Y-12030000D02*
X7870000Y-12070000D01*
X7870000Y-12030000D02*
X7830000Y-12070000D01*
X7950000Y-12090000D02*
X7990000Y-12130000D01*
X7990000Y-12090000D02*
X7950000Y-12130000D01*
X8180000Y-8630000D02*
X8220000Y-8670000D01*
X8220000Y-8630000D02*
X8180000Y-8670000D01*
X8660000Y-12030000D02*
X8700000Y-12070000D01*
X8700000Y-12030000D02*
X8660000Y-12070000D01*
X8900000Y-8640000D02*
X8940000Y-8680000D01*
X8940000Y-8640000D02*
X8900000Y-8680000D01*
X9530000Y-9170000D02*
X9570000Y-9210000D01*
X9570000Y-9170000D02*
X9530000Y-9210000D01*
X9710000Y-11900000D02*
X9750000Y-11940000D01*
X9750000Y-11900000D02*
X9710000Y-11940000D01*
X9720000Y-10270000D02*
X9760000Y-10310000D01*
X9760000Y-10270000D02*
X9720000Y-10310000D01*
X9720000Y-11090000D02*
X9760000Y-11130000D01*
X9760000Y-11090000D02*
X9720000Y-11130000D01*
X9750000Y-9020002D02*
X9790000Y-9060002D01*
X9790000Y-9020002D02*
X9750000Y-9060002D01*
X9760000Y-8720000D02*
X9800000Y-8760000D01*
X9800000Y-8720000D02*
X9760000Y-8760000D01*
X9880000Y-8810000D02*
X9920000Y-8850000D01*
X9920000Y-8810000D02*
X9880000Y-8850000D01*
X10020000Y-9270000D02*
X10060000Y-9310000D01*
X10060000Y-9270000D02*
X10020000Y-9310000D01*
X10040000Y-9060000D02*
X10080000Y-9100000D01*
X10080000Y-9060000D02*
X10040000Y-9100000D01*
X10040000Y-12000000D02*
X10080000Y-12040000D01*
X10080000Y-12000000D02*
X10040000Y-12040000D01*
X10050000Y-8650000D02*
X10090000Y-8690000D01*
X10090000Y-8650000D02*
X10050000Y-8690000D01*
X10200000Y-10320000D02*
X10240000Y-10360000D01*
X10240000Y-10320000D02*
X10200000Y-10360000D01*
X10280000Y-12770000D02*
X10320000Y-12810000D01*
X10320000Y-12770000D02*
X10280000Y-12810000D01*
X10290000Y-11470000D02*
X10330000Y-11510000D01*
X10330000Y-11470000D02*
X10290000Y-11510000D01*
X10480000Y-10380000D02*
X10520000Y-10420000D01*
X10520000Y-10380000D02*
X10480000Y-10420000D01*
X10480000Y-10580000D02*
X10520000Y-10620000D01*
X10520000Y-10580000D02*
X10480000Y-10620000D01*
X10480000Y-10780000D02*
X10520000Y-10820000D01*
X10520000Y-10780000D02*
X10480000Y-10820000D01*
X10480000Y-10980000D02*
X10520000Y-11020000D01*
X10520000Y-10980000D02*
X10480000Y-11020000D01*
X10480000Y-11180000D02*
X10520000Y-11220000D01*
X10520000Y-11180000D02*
X10480000Y-11220000D01*
X10530000Y-11920000D02*
X10570000Y-11960000D01*
X10570000Y-11920000D02*
X10530000Y-11960000D01*
X10550000Y-9470000D02*
X10590000Y-9510000D01*
X10590000Y-9470000D02*
X10550000Y-9510000D01*
X10660000Y-8020000D02*
X10700000Y-8060000D01*
X10700000Y-8020000D02*
X10660000Y-8060000D01*
X10680000Y-10380000D02*
X10720000Y-10420000D01*
X10720000Y-10380000D02*
X10680000Y-10420000D01*
X10680000Y-10580000D02*
X10720000Y-10620000D01*
X10720000Y-10580000D02*
X10680000Y-10620000D01*
X10680000Y-10780000D02*
X10720000Y-10820000D01*
X10720000Y-10780000D02*
X10680000Y-10820000D01*
X10680000Y-10980000D02*
X10720000Y-11020000D01*
X10720000Y-10980000D02*
X10680000Y-11020000D01*
X10680000Y-11180000D02*
X10720000Y-11220000D01*
X10720000Y-11180000D02*
X10680000Y-11220000D01*
X10760000Y-12250000D02*
X10800000Y-12290000D01*
X10800000Y-12250000D02*
X10760000Y-12290000D01*
X10880000Y-10380000D02*
X10920000Y-10420000D01*
X10920000Y-10380000D02*
X10880000Y-10420000D01*
X10880000Y-10580000D02*
X10920000Y-10620000D01*
X10920000Y-10580000D02*
X10880000Y-10620000D01*
X10880000Y-10780000D02*
X10920000Y-10820000D01*
X10920000Y-10780000D02*
X10880000Y-10820000D01*
X10880000Y-10980000D02*
X10920000Y-11020000D01*
X10920000Y-10980000D02*
X10880000Y-11020000D01*
X10880000Y-11180000D02*
X10920000Y-11220000D01*
X10920000Y-11180000D02*
X10880000Y-11220000D01*
X10890000Y-9110000D02*
X10930000Y-9150000D01*
X10930000Y-9110000D02*
X10890000Y-9150000D01*
X10930000Y-8800000D02*
X10970000Y-8840000D01*
X10970000Y-8800000D02*
X10930000Y-8840000D01*
X11020000Y-8510000D02*
X11060000Y-8550000D01*
X11060000Y-8510000D02*
X11020000Y-8550000D01*
X11080000Y-10380000D02*
X11120000Y-10420000D01*
X11120000Y-10380000D02*
X11080000Y-10420000D01*
X11080000Y-10580000D02*
X11120000Y-10620000D01*
X11120000Y-10580000D02*
X11080000Y-10620000D01*
X11080000Y-10780000D02*
X11120000Y-10820000D01*
X11120000Y-10780000D02*
X11080000Y-10820000D01*
X11080000Y-10980000D02*
X11120000Y-11020000D01*
X11120000Y-10980000D02*
X11080000Y-11020000D01*
X11080000Y-11180000D02*
X11120000Y-11220000D01*
X11120000Y-11180000D02*
X11080000Y-11220000D01*
X11116850Y-9623150D02*
X11156850Y-9663150D01*
X11156850Y-9623150D02*
X11116850Y-9663150D01*
X11200000Y-12550000D02*
X11240000Y-12590000D01*
X11240000Y-12550000D02*
X11200000Y-12590000D01*
X11250000Y-8800000D02*
X11290000Y-8840000D01*
X11290000Y-8800000D02*
X11250000Y-8840000D01*
X11280000Y-10380000D02*
X11320000Y-10420000D01*
X11320000Y-10380000D02*
X11280000Y-10420000D01*
X11280000Y-10580000D02*
X11320000Y-10620000D01*
X11320000Y-10580000D02*
X11280000Y-10620000D01*
X11280000Y-10780000D02*
X11320000Y-10820000D01*
X11320000Y-10780000D02*
X11280000Y-10820000D01*
X11280000Y-10980000D02*
X11320000Y-11020000D01*
X11320000Y-10980000D02*
X11280000Y-11020000D01*
X11280000Y-11180000D02*
X11320000Y-11220000D01*
X11320000Y-11180000D02*
X11280000Y-11220000D01*
X11375000Y-9595000D02*
X11415000Y-9635000D01*
X11415000Y-9595000D02*
X11375000Y-9635000D01*
X11380000Y-8970000D02*
X11420000Y-9010000D01*
X11420000Y-8970000D02*
X11380000Y-9010000D01*
X11480000Y-8270000D02*
X11520000Y-8310000D01*
X11520000Y-8270000D02*
X11480000Y-8310000D01*
X11480000Y-10380000D02*
X11520000Y-10420000D01*
X11520000Y-10380000D02*
X11480000Y-10420000D01*
X11480000Y-10580000D02*
X11520000Y-10620000D01*
X11520000Y-10580000D02*
X11480000Y-10620000D01*
X11480000Y-10780000D02*
X11520000Y-10820000D01*
X11520000Y-10780000D02*
X11480000Y-10820000D01*
X11480000Y-10980000D02*
X11520000Y-11020000D01*
X11520000Y-10980000D02*
X11480000Y-11020000D01*
X11480000Y-11180000D02*
X11520000Y-11220000D01*
X11520000Y-11180000D02*
X11480000Y-11220000D01*
X11680000Y-11160000D02*
X11720000Y-11200000D01*
X11720000Y-11160000D02*
X11680000Y-11200000D01*
X11860000Y-8710000D02*
X11900000Y-8750000D01*
X11900000Y-8710000D02*
X11860000Y-8750000D01*
X11870000Y-9050000D02*
X11910000Y-9090000D01*
X11910000Y-9050000D02*
X11870000Y-9090000D01*
X12040000Y-8590000D02*
X12080000Y-8630000D01*
X12080000Y-8590000D02*
X12040000Y-8630000D01*
X12090000Y-9710000D02*
X12130000Y-9750000D01*
X12130000Y-9710000D02*
X12090000Y-9750000D01*
X12220000Y-8900000D02*
X12260000Y-8940000D01*
X12260000Y-8900000D02*
X12220000Y-8940000D01*
X12500000Y-8840000D02*
X12540000Y-8880000D01*
X12540000Y-8840000D02*
X12500000Y-8880000D01*
X13780000Y-12850000D02*
X13820000Y-12890000D01*
X13820000Y-12850000D02*
X13780000Y-12890000D01*
X5755000Y-8520000D02*
G75*
G03X5755000Y-8520000I-25000J0D01*
G01*
X6575000Y-8510000D02*
G75*
G03X6575000Y-8510000I-25000J0D01*
G01*
X12240000Y-7878995D02*
X12240000Y-7959005D01*
X12199995Y-7919000D02*
X12280005Y-7919000D01*
X12240000Y-8640995D02*
X12240000Y-8721005D01*
X12199995Y-8681000D02*
X12280005Y-8681000D01*
X12385356Y-11965356D02*
X12385356Y-11894644D01*
X12314644Y-11894644D01*
X12314644Y-11965356D01*
X12385356Y-11965356D01*
X12385356Y-12215356D02*
X12385356Y-12144644D01*
X12314644Y-12144644D01*
X12314644Y-12215356D01*
X12385356Y-12215356D01*
X12385356Y-12465356D02*
X12385356Y-12394644D01*
X12314644Y-12394644D01*
X12314644Y-12465356D01*
X12385356Y-12465356D01*
X13835356Y-11965356D02*
X13835356Y-11894644D01*
X13764644Y-11894644D01*
X13764644Y-11965356D01*
X13835356Y-11965356D01*
X13835356Y-12465356D02*
X13835356Y-12394644D01*
X13764644Y-12394644D01*
X13764644Y-12465356D01*
X13835356Y-12465356D01*
X12710356Y-8095356D02*
X12710356Y-8024644D01*
X12639644Y-8024644D01*
X12639644Y-8095356D01*
X12710356Y-8095356D01*
X13160356Y-8095356D02*
X13160356Y-8024644D01*
X13089644Y-8024644D01*
X13089644Y-8095356D01*
X13160356Y-8095356D01*
X7384956Y-7955356D02*
X7384956Y-7884644D01*
X7314244Y-7884644D01*
X7314244Y-7955356D01*
X7384956Y-7955356D01*
X7638956Y-7955356D02*
X7638956Y-7884644D01*
X7568244Y-7884644D01*
X7568244Y-7955356D01*
X7638956Y-7955356D01*
X7892956Y-7955356D02*
X7892956Y-7884644D01*
X7822244Y-7884644D01*
X7822244Y-7955356D01*
X7892956Y-7955356D01*
X8146956Y-7955356D02*
X8146956Y-7884644D01*
X8076244Y-7884644D01*
X8076244Y-7955356D01*
X8146956Y-7955356D01*
X8299356Y-12781356D02*
X8299356Y-12710644D01*
X8228644Y-12710644D01*
X8228644Y-12781356D01*
X8299356Y-12781356D01*
X8400956Y-7955356D02*
X8400956Y-7884644D01*
X8330244Y-7884644D01*
X8330244Y-7955356D01*
X8400956Y-7955356D01*
X8553356Y-12781356D02*
X8553356Y-12710644D01*
X8482644Y-12710644D01*
X8482644Y-12781356D01*
X8553356Y-12781356D01*
X8654956Y-7955356D02*
X8654956Y-7884644D01*
X8584244Y-7884644D01*
X8584244Y-7955356D01*
X8654956Y-7955356D01*
X8807356Y-12781356D02*
X8807356Y-12710644D01*
X8736644Y-12710644D01*
X8736644Y-12781356D01*
X8807356Y-12781356D01*
X8908956Y-7955356D02*
X8908956Y-7884644D01*
X8838244Y-7884644D01*
X8838244Y-7955356D01*
X8908956Y-7955356D01*
X9061356Y-12781356D02*
X9061356Y-12710644D01*
X8990644Y-12710644D01*
X8990644Y-12781356D01*
X9061356Y-12781356D01*
X9162956Y-7955356D02*
X9162956Y-7884644D01*
X9092244Y-7884644D01*
X9092244Y-7955356D01*
X9162956Y-7955356D01*
X9315356Y-12781356D02*
X9315356Y-12710644D01*
X9244644Y-12710644D01*
X9244644Y-12781356D01*
X9315356Y-12781356D01*
X9416956Y-7955356D02*
X9416956Y-7884644D01*
X9346244Y-7884644D01*
X9346244Y-7955356D01*
X9416956Y-7955356D01*
X9569356Y-12781356D02*
X9569356Y-12710644D01*
X9498644Y-12710644D01*
X9498644Y-12781356D01*
X9569356Y-12781356D01*
X9670956Y-7955356D02*
X9670956Y-7884644D01*
X9600244Y-7884644D01*
X9600244Y-7955356D01*
X9670956Y-7955356D01*
X9823356Y-12781356D02*
X9823356Y-12710644D01*
X9752644Y-12710644D01*
X9752644Y-12781356D01*
X9823356Y-12781356D01*
X10077356Y-7955356D02*
X10077356Y-7884644D01*
X10006644Y-7884644D01*
X10006644Y-7955356D01*
X10077356Y-7955356D01*
X10077356Y-12781356D02*
X10077356Y-12710644D01*
X10006644Y-12710644D01*
X10006644Y-12781356D01*
X10077356Y-12781356D01*
X10331356Y-7955356D02*
X10331356Y-7884644D01*
X10260644Y-7884644D01*
X10260644Y-7955356D01*
X10331356Y-7955356D01*
X10585356Y-7955356D02*
X10585356Y-7884644D01*
X10514644Y-7884644D01*
X10514644Y-7955356D01*
X10585356Y-7955356D01*
X10585356Y-12781356D02*
X10585356Y-12710644D01*
X10514644Y-12710644D01*
X10514644Y-12781356D01*
X10585356Y-12781356D01*
X10839356Y-7955356D02*
X10839356Y-7884644D01*
X10768644Y-7884644D01*
X10768644Y-7955356D01*
X10839356Y-7955356D01*
X10839356Y-12781356D02*
X10839356Y-12710644D01*
X10768644Y-12710644D01*
X10768644Y-12781356D01*
X10839356Y-12781356D01*
X11093356Y-7955356D02*
X11093356Y-7884644D01*
X11022644Y-7884644D01*
X11022644Y-7955356D01*
X11093356Y-7955356D01*
X11093356Y-12781356D02*
X11093356Y-12710644D01*
X11022644Y-12710644D01*
X11022644Y-12781356D01*
X11093356Y-12781356D01*
X11347356Y-7955356D02*
X11347356Y-7884644D01*
X11276644Y-7884644D01*
X11276644Y-7955356D01*
X11347356Y-7955356D01*
X11347356Y-12781356D02*
X11347356Y-12710644D01*
X11276644Y-12710644D01*
X11276644Y-12781356D01*
X11347356Y-12781356D01*
X11601356Y-7955356D02*
X11601356Y-7884644D01*
X11530644Y-7884644D01*
X11530644Y-7955356D01*
X11601356Y-7955356D01*
X11601356Y-12781356D02*
X11601356Y-12710644D01*
X11530644Y-12710644D01*
X11530644Y-12781356D01*
X11601356Y-12781356D01*
X11855356Y-7955356D02*
X11855356Y-7884644D01*
X11784644Y-7884644D01*
X11784644Y-7955356D01*
X11855356Y-7955356D01*
X11855356Y-12781356D02*
X11855356Y-12710644D01*
X11784644Y-12710644D01*
X11784644Y-12781356D01*
X11855356Y-12781356D01*
X5670000Y-10050800D02*
X5720800Y-10000000D01*
X5670000Y-9949200D01*
X5619200Y-10000000D01*
X5670000Y-10050800D01*
X5670000Y-10304800D02*
X5720800Y-10254000D01*
X5670000Y-10203200D01*
X5619200Y-10254000D01*
X5670000Y-10304800D01*
X5670000Y-10558800D02*
X5720800Y-10508000D01*
X5670000Y-10457200D01*
X5619200Y-10508000D01*
X5670000Y-10558800D01*
X11670000Y-9926800D02*
X11720800Y-9876000D01*
X11670000Y-9825200D01*
X11619200Y-9876000D01*
X11670000Y-9926800D01*
X11670000Y-10180800D02*
X11720800Y-10130000D01*
X11670000Y-10079200D01*
X11619200Y-10130000D01*
X11670000Y-10180800D01*
X13125000Y-10440000D02*
X13235000Y-10550000D01*
X13235000Y-10440000D02*
X13125000Y-10550000D01*
X13235000Y-10495000D02*
G75*
G03X13235000Y-10495000I-55000J0D01*
G01*
X13595000Y-10810000D02*
X13705000Y-10920000D01*
X13705000Y-10810000D02*
X13595000Y-10920000D01*
X13705000Y-10865000D02*
G75*
G03X13705000Y-10865000I-55000J0D01*
G01*
X13725000Y-10440000D02*
X13835000Y-10550000D01*
X13835000Y-10440000D02*
X13725000Y-10550000D01*
X13835000Y-10495000D02*
G75*
G03X13835000Y-10495000I-55000J0D01*
G01*
X12490000Y-8250000D02*
X12610000Y-8370000D01*
X12610000Y-8250000D02*
X12490000Y-8370000D01*
X12550000Y-8250000D02*
X12550000Y-8370000D01*
X12490000Y-8310000D02*
X12610000Y-8310000D01*
X13190000Y-8250000D02*
X13310000Y-8370000D01*
X13310000Y-8250000D02*
X13190000Y-8370000D01*
X13250000Y-8250000D02*
X13250000Y-8370000D01*
X13190000Y-8310000D02*
X13310000Y-8310000D01*
X5899500Y-12140000D02*
X6039500Y-12280000D01*
X6039500Y-12140000D02*
X5899500Y-12280000D01*
X6018998Y-12259498D02*
X6018998Y-12160502D01*
X5920002Y-12160502D01*
X5920002Y-12259498D01*
X6018998Y-12259498D01*
X6280500Y-12140000D02*
X6420500Y-12280000D01*
X6420500Y-12140000D02*
X6280500Y-12280000D01*
X6399998Y-12259498D02*
X6399998Y-12160502D01*
X6301002Y-12160502D01*
X6301002Y-12259498D01*
X6399998Y-12259498D01*
X12725000Y-9235000D02*
X12875000Y-9385000D01*
X12875000Y-9235000D02*
X12725000Y-9385000D01*
X12800000Y-9385000D02*
X12875000Y-9310000D01*
X12800000Y-9235000D01*
X12725000Y-9310000D01*
X12800000Y-9385000D01*
X12725000Y-9615000D02*
X12875000Y-9765000D01*
X12875000Y-9615000D02*
X12725000Y-9765000D01*
X12800000Y-9765000D02*
X12875000Y-9690000D01*
X12800000Y-9615000D01*
X12725000Y-9690000D01*
X12800000Y-9765000D01*
X13475000Y-9095000D02*
X13625000Y-9245000D01*
X13625000Y-9095000D02*
X13475000Y-9245000D01*
X13550000Y-9245000D02*
X13625000Y-9170000D01*
X13550000Y-9095000D01*
X13475000Y-9170000D01*
X13550000Y-9245000D01*
X13475000Y-9755000D02*
X13625000Y-9905000D01*
X13625000Y-9755000D02*
X13475000Y-9905000D01*
X13550000Y-9905000D02*
X13625000Y-9830000D01*
X13550000Y-9755000D01*
X13475000Y-9830000D01*
X13550000Y-9905000D01*
X13100000Y-11430000D02*
X13100000Y-11690000D01*
X12970000Y-11560000D02*
X13230000Y-11560000D01*
X13230000Y-11560000D02*
G75*
G03X13230000Y-11560000I-130000J0D01*
G01*
X13100000Y-12670000D02*
X13100000Y-12930000D01*
X12970000Y-12800000D02*
X13230000Y-12800000D01*
X13230000Y-12800000D02*
G75*
G03X13230000Y-12800000I-130000J0D01*
G01*
D12*
X5748928Y-13473214D02*
X5748928Y-13173214D01*
X5820357Y-13173214D01*
X5863214Y-13187500D01*
X5891786Y-13216071D01*
X5906071Y-13244643D01*
X5920357Y-13301786D01*
X5920357Y-13344643D01*
X5906071Y-13401786D01*
X5891786Y-13430357D01*
X5863214Y-13458929D01*
X5820357Y-13473214D01*
X5748928Y-13473214D01*
X6048928Y-13473214D02*
X6048928Y-13273214D01*
X6048928Y-13330357D02*
X6063214Y-13301786D01*
X6077500Y-13287500D01*
X6106071Y-13273214D01*
X6134643Y-13273214D01*
X6234643Y-13473214D02*
X6234643Y-13273214D01*
X6234643Y-13173214D02*
X6220357Y-13187500D01*
X6234643Y-13201786D01*
X6248928Y-13187500D01*
X6234643Y-13173214D01*
X6234643Y-13201786D01*
X6420357Y-13473214D02*
X6391786Y-13458929D01*
X6377500Y-13430357D01*
X6377500Y-13173214D01*
X6577500Y-13473214D02*
X6548928Y-13458929D01*
X6534643Y-13430357D01*
X6534643Y-13173214D01*
X6920357Y-13473214D02*
X6920357Y-13173214D01*
X7020357Y-13387500D01*
X7120357Y-13173214D01*
X7120357Y-13473214D01*
X7391786Y-13473214D02*
X7391786Y-13316071D01*
X7377500Y-13287500D01*
X7348928Y-13273214D01*
X7291786Y-13273214D01*
X7263214Y-13287500D01*
X7391786Y-13458929D02*
X7363214Y-13473214D01*
X7291786Y-13473214D01*
X7263214Y-13458929D01*
X7248928Y-13430357D01*
X7248928Y-13401786D01*
X7263214Y-13373214D01*
X7291786Y-13358929D01*
X7363214Y-13358929D01*
X7391786Y-13344643D01*
X7534643Y-13273214D02*
X7534643Y-13573214D01*
X7534643Y-13287500D02*
X7563214Y-13273214D01*
X7620357Y-13273214D01*
X7648928Y-13287500D01*
X7663214Y-13301786D01*
X7677500Y-13330357D01*
X7677500Y-13416071D01*
X7663214Y-13444643D01*
X7648928Y-13458929D01*
X7620357Y-13473214D01*
X7563214Y-13473214D01*
X7534643Y-13458929D01*
X7806071Y-13444643D02*
X7820357Y-13458929D01*
X7806071Y-13473214D01*
X7791786Y-13458929D01*
X7806071Y-13444643D01*
X7806071Y-13473214D01*
X7806071Y-13287500D02*
X7820357Y-13301786D01*
X7806071Y-13316071D01*
X7791786Y-13301786D01*
X7806071Y-13287500D01*
X7806071Y-13316071D01*
X5422500Y-13947500D02*
X5462500Y-13987500D01*
X5462500Y-13947500D02*
X5422500Y-13987500D01*
X5806071Y-13803214D02*
X5834643Y-13803214D01*
X5863214Y-13817500D01*
X5877500Y-13831786D01*
X5891786Y-13860357D01*
X5906071Y-13917500D01*
X5906071Y-13988929D01*
X5891786Y-14046071D01*
X5877500Y-14074643D01*
X5863214Y-14088929D01*
X5834643Y-14103214D01*
X5806071Y-14103214D01*
X5777500Y-14088929D01*
X5763214Y-14074643D01*
X5748928Y-14046071D01*
X5734643Y-13988929D01*
X5734643Y-13917500D01*
X5748928Y-13860357D01*
X5763214Y-13831786D01*
X5777500Y-13817500D01*
X5806071Y-13803214D01*
X6034643Y-14074643D02*
X6048928Y-14088929D01*
X6034643Y-14103214D01*
X6020357Y-14088929D01*
X6034643Y-14074643D01*
X6034643Y-14103214D01*
X6306071Y-13903214D02*
X6306071Y-14103214D01*
X6234643Y-13788929D02*
X6163214Y-14003214D01*
X6348928Y-14003214D01*
X6520357Y-13803214D02*
X6548928Y-13803214D01*
X6577500Y-13817500D01*
X6591786Y-13831786D01*
X6606071Y-13860357D01*
X6620357Y-13917500D01*
X6620357Y-13988929D01*
X6606071Y-14046071D01*
X6591786Y-14074643D01*
X6577500Y-14088929D01*
X6548928Y-14103214D01*
X6520357Y-14103214D01*
X6491786Y-14088929D01*
X6477500Y-14074643D01*
X6463214Y-14046071D01*
X6448928Y-13988929D01*
X6448928Y-13917500D01*
X6463214Y-13860357D01*
X6477500Y-13831786D01*
X6491786Y-13817500D01*
X6520357Y-13803214D01*
X6748928Y-14103214D02*
X6748928Y-13903214D01*
X6748928Y-13931786D02*
X6763214Y-13917500D01*
X6791786Y-13903214D01*
X6834643Y-13903214D01*
X6863214Y-13917500D01*
X6877500Y-13946071D01*
X6877500Y-14103214D01*
X6877500Y-13946071D02*
X6891786Y-13917500D01*
X6920357Y-13903214D01*
X6963214Y-13903214D01*
X6991786Y-13917500D01*
X7006071Y-13946071D01*
X7006071Y-14103214D01*
X7148928Y-14103214D02*
X7148928Y-13903214D01*
X7148928Y-13931786D02*
X7163214Y-13917500D01*
X7191786Y-13903214D01*
X7234643Y-13903214D01*
X7263214Y-13917500D01*
X7277500Y-13946071D01*
X7277500Y-14103214D01*
X7277500Y-13946071D02*
X7291786Y-13917500D01*
X7320357Y-13903214D01*
X7363214Y-13903214D01*
X7391786Y-13917500D01*
X7406071Y-13946071D01*
X7406071Y-14103214D01*
X7991786Y-13788929D02*
X7734643Y-14174643D01*
X8377500Y-13803214D02*
X8406071Y-13803214D01*
X8434643Y-13817500D01*
X8448928Y-13831786D01*
X8463214Y-13860357D01*
X8477500Y-13917500D01*
X8477500Y-13988929D01*
X8463214Y-14046071D01*
X8448928Y-14074643D01*
X8434643Y-14088929D01*
X8406071Y-14103214D01*
X8377500Y-14103214D01*
X8348928Y-14088929D01*
X8334643Y-14074643D01*
X8320357Y-14046071D01*
X8306071Y-13988929D01*
X8306071Y-13917500D01*
X8320357Y-13860357D01*
X8334643Y-13831786D01*
X8348928Y-13817500D01*
X8377500Y-13803214D01*
X8606071Y-14074643D02*
X8620357Y-14088929D01*
X8606071Y-14103214D01*
X8591786Y-14088929D01*
X8606071Y-14074643D01*
X8606071Y-14103214D01*
X8806071Y-13803214D02*
X8834643Y-13803214D01*
X8863214Y-13817500D01*
X8877500Y-13831786D01*
X8891786Y-13860357D01*
X8906071Y-13917500D01*
X8906071Y-13988929D01*
X8891786Y-14046071D01*
X8877500Y-14074643D01*
X8863214Y-14088929D01*
X8834643Y-14103214D01*
X8806071Y-14103214D01*
X8777500Y-14088929D01*
X8763214Y-14074643D01*
X8748928Y-14046071D01*
X8734643Y-13988929D01*
X8734643Y-13917500D01*
X8748928Y-13860357D01*
X8763214Y-13831786D01*
X8777500Y-13817500D01*
X8806071Y-13803214D01*
X9191786Y-14103214D02*
X9020357Y-14103214D01*
X9106071Y-14103214D02*
X9106071Y-13803214D01*
X9077500Y-13846071D01*
X9048928Y-13874643D01*
X9020357Y-13888929D01*
X9448928Y-13803214D02*
X9391786Y-13803214D01*
X9363214Y-13817500D01*
X9348928Y-13831786D01*
X9320357Y-13874643D01*
X9306071Y-13931786D01*
X9306071Y-14046071D01*
X9320357Y-14074643D01*
X9334643Y-14088929D01*
X9363214Y-14103214D01*
X9420357Y-14103214D01*
X9448928Y-14088929D01*
X9463214Y-14074643D01*
X9477500Y-14046071D01*
X9477500Y-13974643D01*
X9463214Y-13946071D01*
X9448928Y-13931786D01*
X9420357Y-13917500D01*
X9363214Y-13917500D01*
X9334643Y-13931786D01*
X9320357Y-13946071D01*
X9306071Y-13974643D01*
X9591786Y-13803214D02*
X9591786Y-13860357D01*
X9706071Y-13803214D02*
X9706071Y-13860357D01*
X10148928Y-14217500D02*
X10134643Y-14203214D01*
X10106071Y-14160357D01*
X10091786Y-14131786D01*
X10077500Y-14088929D01*
X10063214Y-14017500D01*
X10063214Y-13960357D01*
X10077500Y-13888929D01*
X10091786Y-13846071D01*
X10106071Y-13817500D01*
X10134643Y-13774643D01*
X10148928Y-13760357D01*
X10306071Y-13931786D02*
X10277500Y-13917500D01*
X10263214Y-13903214D01*
X10248928Y-13874643D01*
X10248928Y-13860357D01*
X10263214Y-13831786D01*
X10277500Y-13817500D01*
X10306071Y-13803214D01*
X10363214Y-13803214D01*
X10391786Y-13817500D01*
X10406071Y-13831786D01*
X10420357Y-13860357D01*
X10420357Y-13874643D01*
X10406071Y-13903214D01*
X10391786Y-13917500D01*
X10363214Y-13931786D01*
X10306071Y-13931786D01*
X10277500Y-13946071D01*
X10263214Y-13960357D01*
X10248928Y-13988929D01*
X10248928Y-14046071D01*
X10263214Y-14074643D01*
X10277500Y-14088929D01*
X10306071Y-14103214D01*
X10363214Y-14103214D01*
X10391786Y-14088929D01*
X10406071Y-14074643D01*
X10420357Y-14046071D01*
X10420357Y-13988929D01*
X10406071Y-13960357D01*
X10391786Y-13946071D01*
X10363214Y-13931786D01*
X10520357Y-13803214D02*
X10706071Y-13803214D01*
X10606071Y-13917500D01*
X10648928Y-13917500D01*
X10677500Y-13931786D01*
X10691786Y-13946071D01*
X10706071Y-13974643D01*
X10706071Y-14046071D01*
X10691786Y-14074643D01*
X10677500Y-14088929D01*
X10648928Y-14103214D01*
X10563214Y-14103214D01*
X10534643Y-14088929D01*
X10520357Y-14074643D01*
X11063214Y-14103214D02*
X11063214Y-13803214D01*
X11191786Y-14103214D02*
X11191786Y-13946071D01*
X11177500Y-13917500D01*
X11148928Y-13903214D01*
X11106071Y-13903214D01*
X11077500Y-13917500D01*
X11063214Y-13931786D01*
X11377500Y-14103214D02*
X11348928Y-14088929D01*
X11334643Y-14074643D01*
X11320357Y-14046071D01*
X11320357Y-13960357D01*
X11334643Y-13931786D01*
X11348928Y-13917500D01*
X11377500Y-13903214D01*
X11420357Y-13903214D01*
X11448928Y-13917500D01*
X11463214Y-13931786D01*
X11477500Y-13960357D01*
X11477500Y-14046071D01*
X11463214Y-14074643D01*
X11448928Y-14088929D01*
X11420357Y-14103214D01*
X11377500Y-14103214D01*
X11648928Y-14103214D02*
X11620357Y-14088929D01*
X11606071Y-14060357D01*
X11606071Y-13803214D01*
X11877500Y-14088929D02*
X11848928Y-14103214D01*
X11791786Y-14103214D01*
X11763214Y-14088929D01*
X11748928Y-14060357D01*
X11748928Y-13946071D01*
X11763214Y-13917500D01*
X11791786Y-13903214D01*
X11848928Y-13903214D01*
X11877500Y-13917500D01*
X11891786Y-13946071D01*
X11891786Y-13974643D01*
X11748928Y-14003214D01*
X12006071Y-14088929D02*
X12034643Y-14103214D01*
X12091786Y-14103214D01*
X12120357Y-14088929D01*
X12134643Y-14060357D01*
X12134643Y-14046071D01*
X12120357Y-14017500D01*
X12091786Y-14003214D01*
X12048928Y-14003214D01*
X12020357Y-13988929D01*
X12006071Y-13960357D01*
X12006071Y-13946071D01*
X12020357Y-13917500D01*
X12048928Y-13903214D01*
X12091786Y-13903214D01*
X12120357Y-13917500D01*
X12234643Y-14217500D02*
X12248928Y-14203214D01*
X12277500Y-14160357D01*
X12291786Y-14131786D01*
X12306071Y-14088929D01*
X12320357Y-14017500D01*
X12320357Y-13960357D01*
X12306071Y-13888929D01*
X12291786Y-13846071D01*
X12277500Y-13817500D01*
X12248928Y-13774643D01*
X12234643Y-13760357D01*
X5462500Y-14363500D02*
G75*
G03X5462500Y-14363500I-25000J0D01*
G01*
X5806071Y-14199214D02*
X5834643Y-14199214D01*
X5863214Y-14213500D01*
X5877500Y-14227786D01*
X5891786Y-14256357D01*
X5906071Y-14313500D01*
X5906071Y-14384929D01*
X5891786Y-14442071D01*
X5877500Y-14470643D01*
X5863214Y-14484929D01*
X5834643Y-14499214D01*
X5806071Y-14499214D01*
X5777500Y-14484929D01*
X5763214Y-14470643D01*
X5748928Y-14442071D01*
X5734643Y-14384929D01*
X5734643Y-14313500D01*
X5748928Y-14256357D01*
X5763214Y-14227786D01*
X5777500Y-14213500D01*
X5806071Y-14199214D01*
X6034643Y-14470643D02*
X6048928Y-14484929D01*
X6034643Y-14499214D01*
X6020357Y-14484929D01*
X6034643Y-14470643D01*
X6034643Y-14499214D01*
X6320357Y-14199214D02*
X6177500Y-14199214D01*
X6163214Y-14342071D01*
X6177500Y-14327786D01*
X6206071Y-14313500D01*
X6277500Y-14313500D01*
X6306071Y-14327786D01*
X6320357Y-14342071D01*
X6334643Y-14370643D01*
X6334643Y-14442071D01*
X6320357Y-14470643D01*
X6306071Y-14484929D01*
X6277500Y-14499214D01*
X6206071Y-14499214D01*
X6177500Y-14484929D01*
X6163214Y-14470643D01*
X6520357Y-14199214D02*
X6548928Y-14199214D01*
X6577500Y-14213500D01*
X6591786Y-14227786D01*
X6606071Y-14256357D01*
X6620357Y-14313500D01*
X6620357Y-14384929D01*
X6606071Y-14442071D01*
X6591786Y-14470643D01*
X6577500Y-14484929D01*
X6548928Y-14499214D01*
X6520357Y-14499214D01*
X6491786Y-14484929D01*
X6477500Y-14470643D01*
X6463214Y-14442071D01*
X6448928Y-14384929D01*
X6448928Y-14313500D01*
X6463214Y-14256357D01*
X6477500Y-14227786D01*
X6491786Y-14213500D01*
X6520357Y-14199214D01*
X6748928Y-14499214D02*
X6748928Y-14299214D01*
X6748928Y-14327786D02*
X6763214Y-14313500D01*
X6791786Y-14299214D01*
X6834643Y-14299214D01*
X6863214Y-14313500D01*
X6877500Y-14342071D01*
X6877500Y-14499214D01*
X6877500Y-14342071D02*
X6891786Y-14313500D01*
X6920357Y-14299214D01*
X6963214Y-14299214D01*
X6991786Y-14313500D01*
X7006071Y-14342071D01*
X7006071Y-14499214D01*
X7148928Y-14499214D02*
X7148928Y-14299214D01*
X7148928Y-14327786D02*
X7163214Y-14313500D01*
X7191786Y-14299214D01*
X7234643Y-14299214D01*
X7263214Y-14313500D01*
X7277500Y-14342071D01*
X7277500Y-14499214D01*
X7277500Y-14342071D02*
X7291786Y-14313500D01*
X7320357Y-14299214D01*
X7363214Y-14299214D01*
X7391786Y-14313500D01*
X7406071Y-14342071D01*
X7406071Y-14499214D01*
X7991786Y-14184929D02*
X7734643Y-14570643D01*
X8377500Y-14199214D02*
X8406071Y-14199214D01*
X8434643Y-14213500D01*
X8448928Y-14227786D01*
X8463214Y-14256357D01*
X8477500Y-14313500D01*
X8477500Y-14384929D01*
X8463214Y-14442071D01*
X8448928Y-14470643D01*
X8434643Y-14484929D01*
X8406071Y-14499214D01*
X8377500Y-14499214D01*
X8348928Y-14484929D01*
X8334643Y-14470643D01*
X8320357Y-14442071D01*
X8306071Y-14384929D01*
X8306071Y-14313500D01*
X8320357Y-14256357D01*
X8334643Y-14227786D01*
X8348928Y-14213500D01*
X8377500Y-14199214D01*
X8606071Y-14470643D02*
X8620357Y-14484929D01*
X8606071Y-14499214D01*
X8591786Y-14484929D01*
X8606071Y-14470643D01*
X8606071Y-14499214D01*
X8806071Y-14199214D02*
X8834643Y-14199214D01*
X8863214Y-14213500D01*
X8877500Y-14227786D01*
X8891786Y-14256357D01*
X8906071Y-14313500D01*
X8906071Y-14384929D01*
X8891786Y-14442071D01*
X8877500Y-14470643D01*
X8863214Y-14484929D01*
X8834643Y-14499214D01*
X8806071Y-14499214D01*
X8777500Y-14484929D01*
X8763214Y-14470643D01*
X8748928Y-14442071D01*
X8734643Y-14384929D01*
X8734643Y-14313500D01*
X8748928Y-14256357D01*
X8763214Y-14227786D01*
X8777500Y-14213500D01*
X8806071Y-14199214D01*
X9020357Y-14227786D02*
X9034643Y-14213500D01*
X9063214Y-14199214D01*
X9134643Y-14199214D01*
X9163214Y-14213500D01*
X9177500Y-14227786D01*
X9191786Y-14256357D01*
X9191786Y-14284929D01*
X9177500Y-14327786D01*
X9006071Y-14499214D01*
X9191786Y-14499214D01*
X9377500Y-14199214D02*
X9406071Y-14199214D01*
X9434643Y-14213500D01*
X9448928Y-14227786D01*
X9463214Y-14256357D01*
X9477500Y-14313500D01*
X9477500Y-14384929D01*
X9463214Y-14442071D01*
X9448928Y-14470643D01*
X9434643Y-14484929D01*
X9406071Y-14499214D01*
X9377500Y-14499214D01*
X9348928Y-14484929D01*
X9334643Y-14470643D01*
X9320357Y-14442071D01*
X9306071Y-14384929D01*
X9306071Y-14313500D01*
X9320357Y-14256357D01*
X9334643Y-14227786D01*
X9348928Y-14213500D01*
X9377500Y-14199214D01*
X9591786Y-14199214D02*
X9591786Y-14256357D01*
X9706071Y-14199214D02*
X9706071Y-14256357D01*
X10148928Y-14613500D02*
X10134643Y-14599214D01*
X10106071Y-14556357D01*
X10091786Y-14527786D01*
X10077500Y-14484929D01*
X10063214Y-14413500D01*
X10063214Y-14356357D01*
X10077500Y-14284929D01*
X10091786Y-14242071D01*
X10106071Y-14213500D01*
X10134643Y-14170643D01*
X10148928Y-14156357D01*
X10248928Y-14227786D02*
X10263214Y-14213500D01*
X10291786Y-14199214D01*
X10363214Y-14199214D01*
X10391786Y-14213500D01*
X10406071Y-14227786D01*
X10420357Y-14256357D01*
X10420357Y-14284929D01*
X10406071Y-14327786D01*
X10234643Y-14499214D01*
X10420357Y-14499214D01*
X10777500Y-14499214D02*
X10777500Y-14199214D01*
X10906071Y-14499214D02*
X10906071Y-14342071D01*
X10891786Y-14313500D01*
X10863214Y-14299214D01*
X10820357Y-14299214D01*
X10791786Y-14313500D01*
X10777500Y-14327786D01*
X11091786Y-14499214D02*
X11063214Y-14484929D01*
X11048928Y-14470643D01*
X11034643Y-14442071D01*
X11034643Y-14356357D01*
X11048928Y-14327786D01*
X11063214Y-14313500D01*
X11091786Y-14299214D01*
X11134643Y-14299214D01*
X11163214Y-14313500D01*
X11177500Y-14327786D01*
X11191786Y-14356357D01*
X11191786Y-14442071D01*
X11177500Y-14470643D01*
X11163214Y-14484929D01*
X11134643Y-14499214D01*
X11091786Y-14499214D01*
X11363214Y-14499214D02*
X11334643Y-14484929D01*
X11320357Y-14456357D01*
X11320357Y-14199214D01*
X11591786Y-14484929D02*
X11563214Y-14499214D01*
X11506071Y-14499214D01*
X11477500Y-14484929D01*
X11463214Y-14456357D01*
X11463214Y-14342071D01*
X11477500Y-14313500D01*
X11506071Y-14299214D01*
X11563214Y-14299214D01*
X11591786Y-14313500D01*
X11606071Y-14342071D01*
X11606071Y-14370643D01*
X11463214Y-14399214D01*
X11720357Y-14484929D02*
X11748928Y-14499214D01*
X11806071Y-14499214D01*
X11834643Y-14484929D01*
X11848928Y-14456357D01*
X11848928Y-14442071D01*
X11834643Y-14413500D01*
X11806071Y-14399214D01*
X11763214Y-14399214D01*
X11734643Y-14384929D01*
X11720357Y-14356357D01*
X11720357Y-14342071D01*
X11734643Y-14313500D01*
X11763214Y-14299214D01*
X11806071Y-14299214D01*
X11834643Y-14313500D01*
X11948928Y-14613500D02*
X11963214Y-14599214D01*
X11991786Y-14556357D01*
X12006071Y-14527786D01*
X12020357Y-14484929D01*
X12034643Y-14413500D01*
X12034643Y-14356357D01*
X12020357Y-14284929D01*
X12006071Y-14242071D01*
X11991786Y-14213500D01*
X11963214Y-14170643D01*
X11948928Y-14156357D01*
X5422495Y-14719495D02*
X5422495Y-14799505D01*
X5382490Y-14759500D02*
X5462500Y-14759500D01*
X5806071Y-14595214D02*
X5834643Y-14595214D01*
X5863214Y-14609500D01*
X5877500Y-14623786D01*
X5891786Y-14652357D01*
X5906071Y-14709500D01*
X5906071Y-14780929D01*
X5891786Y-14838071D01*
X5877500Y-14866643D01*
X5863214Y-14880929D01*
X5834643Y-14895214D01*
X5806071Y-14895214D01*
X5777500Y-14880929D01*
X5763214Y-14866643D01*
X5748928Y-14838071D01*
X5734643Y-14780929D01*
X5734643Y-14709500D01*
X5748928Y-14652357D01*
X5763214Y-14623786D01*
X5777500Y-14609500D01*
X5806071Y-14595214D01*
X6034643Y-14866643D02*
X6048928Y-14880929D01*
X6034643Y-14895214D01*
X6020357Y-14880929D01*
X6034643Y-14866643D01*
X6034643Y-14895214D01*
X6220357Y-14723786D02*
X6191786Y-14709500D01*
X6177500Y-14695214D01*
X6163214Y-14666643D01*
X6163214Y-14652357D01*
X6177500Y-14623786D01*
X6191786Y-14609500D01*
X6220357Y-14595214D01*
X6277500Y-14595214D01*
X6306071Y-14609500D01*
X6320357Y-14623786D01*
X6334643Y-14652357D01*
X6334643Y-14666643D01*
X6320357Y-14695214D01*
X6306071Y-14709500D01*
X6277500Y-14723786D01*
X6220357Y-14723786D01*
X6191786Y-14738071D01*
X6177500Y-14752357D01*
X6163214Y-14780929D01*
X6163214Y-14838071D01*
X6177500Y-14866643D01*
X6191786Y-14880929D01*
X6220357Y-14895214D01*
X6277500Y-14895214D01*
X6306071Y-14880929D01*
X6320357Y-14866643D01*
X6334643Y-14838071D01*
X6334643Y-14780929D01*
X6320357Y-14752357D01*
X6306071Y-14738071D01*
X6277500Y-14723786D01*
X6520357Y-14595214D02*
X6548928Y-14595214D01*
X6577500Y-14609500D01*
X6591786Y-14623786D01*
X6606071Y-14652357D01*
X6620357Y-14709500D01*
X6620357Y-14780929D01*
X6606071Y-14838071D01*
X6591786Y-14866643D01*
X6577500Y-14880929D01*
X6548928Y-14895214D01*
X6520357Y-14895214D01*
X6491786Y-14880929D01*
X6477500Y-14866643D01*
X6463214Y-14838071D01*
X6448928Y-14780929D01*
X6448928Y-14709500D01*
X6463214Y-14652357D01*
X6477500Y-14623786D01*
X6491786Y-14609500D01*
X6520357Y-14595214D01*
X6748928Y-14895214D02*
X6748928Y-14695214D01*
X6748928Y-14723786D02*
X6763214Y-14709500D01*
X6791786Y-14695214D01*
X6834643Y-14695214D01*
X6863214Y-14709500D01*
X6877500Y-14738071D01*
X6877500Y-14895214D01*
X6877500Y-14738071D02*
X6891786Y-14709500D01*
X6920357Y-14695214D01*
X6963214Y-14695214D01*
X6991786Y-14709500D01*
X7006071Y-14738071D01*
X7006071Y-14895214D01*
X7148928Y-14895214D02*
X7148928Y-14695214D01*
X7148928Y-14723786D02*
X7163214Y-14709500D01*
X7191786Y-14695214D01*
X7234643Y-14695214D01*
X7263214Y-14709500D01*
X7277500Y-14738071D01*
X7277500Y-14895214D01*
X7277500Y-14738071D02*
X7291786Y-14709500D01*
X7320357Y-14695214D01*
X7363214Y-14695214D01*
X7391786Y-14709500D01*
X7406071Y-14738071D01*
X7406071Y-14895214D01*
X7991786Y-14580929D02*
X7734643Y-14966643D01*
X8377500Y-14595214D02*
X8406071Y-14595214D01*
X8434643Y-14609500D01*
X8448928Y-14623786D01*
X8463214Y-14652357D01*
X8477500Y-14709500D01*
X8477500Y-14780929D01*
X8463214Y-14838071D01*
X8448928Y-14866643D01*
X8434643Y-14880929D01*
X8406071Y-14895214D01*
X8377500Y-14895214D01*
X8348928Y-14880929D01*
X8334643Y-14866643D01*
X8320357Y-14838071D01*
X8306071Y-14780929D01*
X8306071Y-14709500D01*
X8320357Y-14652357D01*
X8334643Y-14623786D01*
X8348928Y-14609500D01*
X8377500Y-14595214D01*
X8606071Y-14866643D02*
X8620357Y-14880929D01*
X8606071Y-14895214D01*
X8591786Y-14880929D01*
X8606071Y-14866643D01*
X8606071Y-14895214D01*
X8806071Y-14595214D02*
X8834643Y-14595214D01*
X8863214Y-14609500D01*
X8877500Y-14623786D01*
X8891786Y-14652357D01*
X8906071Y-14709500D01*
X8906071Y-14780929D01*
X8891786Y-14838071D01*
X8877500Y-14866643D01*
X8863214Y-14880929D01*
X8834643Y-14895214D01*
X8806071Y-14895214D01*
X8777500Y-14880929D01*
X8763214Y-14866643D01*
X8748928Y-14838071D01*
X8734643Y-14780929D01*
X8734643Y-14709500D01*
X8748928Y-14652357D01*
X8763214Y-14623786D01*
X8777500Y-14609500D01*
X8806071Y-14595214D01*
X9006071Y-14595214D02*
X9191786Y-14595214D01*
X9091786Y-14709500D01*
X9134643Y-14709500D01*
X9163214Y-14723786D01*
X9177500Y-14738071D01*
X9191786Y-14766643D01*
X9191786Y-14838071D01*
X9177500Y-14866643D01*
X9163214Y-14880929D01*
X9134643Y-14895214D01*
X9048928Y-14895214D01*
X9020357Y-14880929D01*
X9006071Y-14866643D01*
X9306071Y-14623786D02*
X9320357Y-14609500D01*
X9348928Y-14595214D01*
X9420357Y-14595214D01*
X9448928Y-14609500D01*
X9463214Y-14623786D01*
X9477500Y-14652357D01*
X9477500Y-14680929D01*
X9463214Y-14723786D01*
X9291786Y-14895214D01*
X9477500Y-14895214D01*
X9591786Y-14595214D02*
X9591786Y-14652357D01*
X9706071Y-14595214D02*
X9706071Y-14652357D01*
X10148928Y-15009500D02*
X10134643Y-14995214D01*
X10106071Y-14952357D01*
X10091786Y-14923786D01*
X10077500Y-14880929D01*
X10063214Y-14809500D01*
X10063214Y-14752357D01*
X10077500Y-14680929D01*
X10091786Y-14638071D01*
X10106071Y-14609500D01*
X10134643Y-14566643D01*
X10148928Y-14552357D01*
X10248928Y-14623786D02*
X10263214Y-14609500D01*
X10291786Y-14595214D01*
X10363214Y-14595214D01*
X10391786Y-14609500D01*
X10406071Y-14623786D01*
X10420357Y-14652357D01*
X10420357Y-14680929D01*
X10406071Y-14723786D01*
X10234643Y-14895214D01*
X10420357Y-14895214D01*
X10777500Y-14895214D02*
X10777500Y-14595214D01*
X10906071Y-14895214D02*
X10906071Y-14738071D01*
X10891786Y-14709500D01*
X10863214Y-14695214D01*
X10820357Y-14695214D01*
X10791786Y-14709500D01*
X10777500Y-14723786D01*
X11091786Y-14895214D02*
X11063214Y-14880929D01*
X11048928Y-14866643D01*
X11034643Y-14838071D01*
X11034643Y-14752357D01*
X11048928Y-14723786D01*
X11063214Y-14709500D01*
X11091786Y-14695214D01*
X11134643Y-14695214D01*
X11163214Y-14709500D01*
X11177500Y-14723786D01*
X11191786Y-14752357D01*
X11191786Y-14838071D01*
X11177500Y-14866643D01*
X11163214Y-14880929D01*
X11134643Y-14895214D01*
X11091786Y-14895214D01*
X11363214Y-14895214D02*
X11334643Y-14880929D01*
X11320357Y-14852357D01*
X11320357Y-14595214D01*
X11591786Y-14880929D02*
X11563214Y-14895214D01*
X11506071Y-14895214D01*
X11477500Y-14880929D01*
X11463214Y-14852357D01*
X11463214Y-14738071D01*
X11477500Y-14709500D01*
X11506071Y-14695214D01*
X11563214Y-14695214D01*
X11591786Y-14709500D01*
X11606071Y-14738071D01*
X11606071Y-14766643D01*
X11463214Y-14795214D01*
X11720357Y-14880929D02*
X11748928Y-14895214D01*
X11806071Y-14895214D01*
X11834643Y-14880929D01*
X11848928Y-14852357D01*
X11848928Y-14838071D01*
X11834643Y-14809500D01*
X11806071Y-14795214D01*
X11763214Y-14795214D01*
X11734643Y-14780929D01*
X11720357Y-14752357D01*
X11720357Y-14738071D01*
X11734643Y-14709500D01*
X11763214Y-14695214D01*
X11806071Y-14695214D01*
X11834643Y-14709500D01*
X11948928Y-15009500D02*
X11963214Y-14995214D01*
X11991786Y-14952357D01*
X12006071Y-14923786D01*
X12020357Y-14880929D01*
X12034643Y-14809500D01*
X12034643Y-14752357D01*
X12020357Y-14680929D01*
X12006071Y-14638071D01*
X11991786Y-14609500D01*
X11963214Y-14566643D01*
X11948928Y-14552357D01*
X5447856Y-15190856D02*
X5447856Y-15120144D01*
X5377144Y-15120144D01*
X5377144Y-15190856D01*
X5447856Y-15190856D01*
X5906071Y-15291214D02*
X5734643Y-15291214D01*
X5820357Y-15291214D02*
X5820357Y-14991214D01*
X5791786Y-15034071D01*
X5763214Y-15062643D01*
X5734643Y-15076929D01*
X6034643Y-15262643D02*
X6048928Y-15276929D01*
X6034643Y-15291214D01*
X6020357Y-15276929D01*
X6034643Y-15262643D01*
X6034643Y-15291214D01*
X6234643Y-14991214D02*
X6263214Y-14991214D01*
X6291786Y-15005500D01*
X6306071Y-15019786D01*
X6320357Y-15048357D01*
X6334643Y-15105500D01*
X6334643Y-15176929D01*
X6320357Y-15234071D01*
X6306071Y-15262643D01*
X6291786Y-15276929D01*
X6263214Y-15291214D01*
X6234643Y-15291214D01*
X6206071Y-15276929D01*
X6191786Y-15262643D01*
X6177500Y-15234071D01*
X6163214Y-15176929D01*
X6163214Y-15105500D01*
X6177500Y-15048357D01*
X6191786Y-15019786D01*
X6206071Y-15005500D01*
X6234643Y-14991214D01*
X6520357Y-14991214D02*
X6548928Y-14991214D01*
X6577500Y-15005500D01*
X6591786Y-15019786D01*
X6606071Y-15048357D01*
X6620357Y-15105500D01*
X6620357Y-15176929D01*
X6606071Y-15234071D01*
X6591786Y-15262643D01*
X6577500Y-15276929D01*
X6548928Y-15291214D01*
X6520357Y-15291214D01*
X6491786Y-15276929D01*
X6477500Y-15262643D01*
X6463214Y-15234071D01*
X6448928Y-15176929D01*
X6448928Y-15105500D01*
X6463214Y-15048357D01*
X6477500Y-15019786D01*
X6491786Y-15005500D01*
X6520357Y-14991214D01*
X6748928Y-15291214D02*
X6748928Y-15091214D01*
X6748928Y-15119786D02*
X6763214Y-15105500D01*
X6791786Y-15091214D01*
X6834643Y-15091214D01*
X6863214Y-15105500D01*
X6877500Y-15134071D01*
X6877500Y-15291214D01*
X6877500Y-15134071D02*
X6891786Y-15105500D01*
X6920357Y-15091214D01*
X6963214Y-15091214D01*
X6991786Y-15105500D01*
X7006071Y-15134071D01*
X7006071Y-15291214D01*
X7148928Y-15291214D02*
X7148928Y-15091214D01*
X7148928Y-15119786D02*
X7163214Y-15105500D01*
X7191786Y-15091214D01*
X7234643Y-15091214D01*
X7263214Y-15105500D01*
X7277500Y-15134071D01*
X7277500Y-15291214D01*
X7277500Y-15134071D02*
X7291786Y-15105500D01*
X7320357Y-15091214D01*
X7363214Y-15091214D01*
X7391786Y-15105500D01*
X7406071Y-15134071D01*
X7406071Y-15291214D01*
X7991786Y-14976929D02*
X7734643Y-15362643D01*
X8377500Y-14991214D02*
X8406071Y-14991214D01*
X8434643Y-15005500D01*
X8448928Y-15019786D01*
X8463214Y-15048357D01*
X8477500Y-15105500D01*
X8477500Y-15176929D01*
X8463214Y-15234071D01*
X8448928Y-15262643D01*
X8434643Y-15276929D01*
X8406071Y-15291214D01*
X8377500Y-15291214D01*
X8348928Y-15276929D01*
X8334643Y-15262643D01*
X8320357Y-15234071D01*
X8306071Y-15176929D01*
X8306071Y-15105500D01*
X8320357Y-15048357D01*
X8334643Y-15019786D01*
X8348928Y-15005500D01*
X8377500Y-14991214D01*
X8606071Y-15262643D02*
X8620357Y-15276929D01*
X8606071Y-15291214D01*
X8591786Y-15276929D01*
X8606071Y-15262643D01*
X8606071Y-15291214D01*
X8806071Y-14991214D02*
X8834643Y-14991214D01*
X8863214Y-15005500D01*
X8877500Y-15019786D01*
X8891786Y-15048357D01*
X8906071Y-15105500D01*
X8906071Y-15176929D01*
X8891786Y-15234071D01*
X8877500Y-15262643D01*
X8863214Y-15276929D01*
X8834643Y-15291214D01*
X8806071Y-15291214D01*
X8777500Y-15276929D01*
X8763214Y-15262643D01*
X8748928Y-15234071D01*
X8734643Y-15176929D01*
X8734643Y-15105500D01*
X8748928Y-15048357D01*
X8763214Y-15019786D01*
X8777500Y-15005500D01*
X8806071Y-14991214D01*
X9006071Y-14991214D02*
X9191786Y-14991214D01*
X9091786Y-15105500D01*
X9134643Y-15105500D01*
X9163214Y-15119786D01*
X9177500Y-15134071D01*
X9191786Y-15162643D01*
X9191786Y-15234071D01*
X9177500Y-15262643D01*
X9163214Y-15276929D01*
X9134643Y-15291214D01*
X9048928Y-15291214D01*
X9020357Y-15276929D01*
X9006071Y-15262643D01*
X9334643Y-15291214D02*
X9391786Y-15291214D01*
X9420357Y-15276929D01*
X9434643Y-15262643D01*
X9463214Y-15219786D01*
X9477500Y-15162643D01*
X9477500Y-15048357D01*
X9463214Y-15019786D01*
X9448928Y-15005500D01*
X9420357Y-14991214D01*
X9363214Y-14991214D01*
X9334643Y-15005500D01*
X9320357Y-15019786D01*
X9306071Y-15048357D01*
X9306071Y-15119786D01*
X9320357Y-15148357D01*
X9334643Y-15162643D01*
X9363214Y-15176929D01*
X9420357Y-15176929D01*
X9448928Y-15162643D01*
X9463214Y-15148357D01*
X9477500Y-15119786D01*
X9591786Y-14991214D02*
X9591786Y-15048357D01*
X9706071Y-14991214D02*
X9706071Y-15048357D01*
X10148928Y-15405500D02*
X10134643Y-15391214D01*
X10106071Y-15348357D01*
X10091786Y-15319786D01*
X10077500Y-15276929D01*
X10063214Y-15205500D01*
X10063214Y-15148357D01*
X10077500Y-15076929D01*
X10091786Y-15034071D01*
X10106071Y-15005500D01*
X10134643Y-14962643D01*
X10148928Y-14948357D01*
X10234643Y-14991214D02*
X10420357Y-14991214D01*
X10320357Y-15105500D01*
X10363214Y-15105500D01*
X10391786Y-15119786D01*
X10406071Y-15134071D01*
X10420357Y-15162643D01*
X10420357Y-15234071D01*
X10406071Y-15262643D01*
X10391786Y-15276929D01*
X10363214Y-15291214D01*
X10277500Y-15291214D01*
X10248928Y-15276929D01*
X10234643Y-15262643D01*
X10563214Y-15291214D02*
X10620357Y-15291214D01*
X10648928Y-15276929D01*
X10663214Y-15262643D01*
X10691786Y-15219786D01*
X10706071Y-15162643D01*
X10706071Y-15048357D01*
X10691786Y-15019786D01*
X10677500Y-15005500D01*
X10648928Y-14991214D01*
X10591786Y-14991214D01*
X10563214Y-15005500D01*
X10548928Y-15019786D01*
X10534643Y-15048357D01*
X10534643Y-15119786D01*
X10548928Y-15148357D01*
X10563214Y-15162643D01*
X10591786Y-15176929D01*
X10648928Y-15176929D01*
X10677500Y-15162643D01*
X10691786Y-15148357D01*
X10706071Y-15119786D01*
X11063214Y-15291214D02*
X11063214Y-14991214D01*
X11191786Y-15291214D02*
X11191786Y-15134071D01*
X11177500Y-15105500D01*
X11148928Y-15091214D01*
X11106071Y-15091214D01*
X11077500Y-15105500D01*
X11063214Y-15119786D01*
X11377500Y-15291214D02*
X11348928Y-15276929D01*
X11334643Y-15262643D01*
X11320357Y-15234071D01*
X11320357Y-15148357D01*
X11334643Y-15119786D01*
X11348928Y-15105500D01*
X11377500Y-15091214D01*
X11420357Y-15091214D01*
X11448928Y-15105500D01*
X11463214Y-15119786D01*
X11477500Y-15148357D01*
X11477500Y-15234071D01*
X11463214Y-15262643D01*
X11448928Y-15276929D01*
X11420357Y-15291214D01*
X11377500Y-15291214D01*
X11648928Y-15291214D02*
X11620357Y-15276929D01*
X11606071Y-15248357D01*
X11606071Y-14991214D01*
X11877500Y-15276929D02*
X11848928Y-15291214D01*
X11791786Y-15291214D01*
X11763214Y-15276929D01*
X11748928Y-15248357D01*
X11748928Y-15134071D01*
X11763214Y-15105500D01*
X11791786Y-15091214D01*
X11848928Y-15091214D01*
X11877500Y-15105500D01*
X11891786Y-15134071D01*
X11891786Y-15162643D01*
X11748928Y-15191214D01*
X12006071Y-15276929D02*
X12034643Y-15291214D01*
X12091786Y-15291214D01*
X12120357Y-15276929D01*
X12134643Y-15248357D01*
X12134643Y-15234071D01*
X12120357Y-15205500D01*
X12091786Y-15191214D01*
X12048928Y-15191214D01*
X12020357Y-15176929D01*
X12006071Y-15148357D01*
X12006071Y-15134071D01*
X12020357Y-15105500D01*
X12048928Y-15091214D01*
X12091786Y-15091214D01*
X12120357Y-15105500D01*
X12234643Y-15405500D02*
X12248928Y-15391214D01*
X12277500Y-15348357D01*
X12291786Y-15319786D01*
X12306071Y-15276929D01*
X12320357Y-15205500D01*
X12320357Y-15148357D01*
X12306071Y-15076929D01*
X12291786Y-15034071D01*
X12277500Y-15005500D01*
X12248928Y-14962643D01*
X12234643Y-14948357D01*
X5411700Y-15602300D02*
X5462500Y-15551500D01*
X5411700Y-15500700D01*
X5360900Y-15551500D01*
X5411700Y-15602300D01*
X5906071Y-15687214D02*
X5734643Y-15687214D01*
X5820357Y-15687214D02*
X5820357Y-15387214D01*
X5791786Y-15430071D01*
X5763214Y-15458643D01*
X5734643Y-15472929D01*
X6034643Y-15658643D02*
X6048928Y-15672929D01*
X6034643Y-15687214D01*
X6020357Y-15672929D01*
X6034643Y-15658643D01*
X6034643Y-15687214D01*
X6234643Y-15387214D02*
X6263214Y-15387214D01*
X6291786Y-15401500D01*
X6306071Y-15415786D01*
X6320357Y-15444357D01*
X6334643Y-15501500D01*
X6334643Y-15572929D01*
X6320357Y-15630071D01*
X6306071Y-15658643D01*
X6291786Y-15672929D01*
X6263214Y-15687214D01*
X6234643Y-15687214D01*
X6206071Y-15672929D01*
X6191786Y-15658643D01*
X6177500Y-15630071D01*
X6163214Y-15572929D01*
X6163214Y-15501500D01*
X6177500Y-15444357D01*
X6191786Y-15415786D01*
X6206071Y-15401500D01*
X6234643Y-15387214D01*
X6448928Y-15415786D02*
X6463214Y-15401500D01*
X6491786Y-15387214D01*
X6563214Y-15387214D01*
X6591786Y-15401500D01*
X6606071Y-15415786D01*
X6620357Y-15444357D01*
X6620357Y-15472929D01*
X6606071Y-15515786D01*
X6434643Y-15687214D01*
X6620357Y-15687214D01*
X6748928Y-15687214D02*
X6748928Y-15487214D01*
X6748928Y-15515786D02*
X6763214Y-15501500D01*
X6791786Y-15487214D01*
X6834643Y-15487214D01*
X6863214Y-15501500D01*
X6877500Y-15530071D01*
X6877500Y-15687214D01*
X6877500Y-15530071D02*
X6891786Y-15501500D01*
X6920357Y-15487214D01*
X6963214Y-15487214D01*
X6991786Y-15501500D01*
X7006071Y-15530071D01*
X7006071Y-15687214D01*
X7148928Y-15687214D02*
X7148928Y-15487214D01*
X7148928Y-15515786D02*
X7163214Y-15501500D01*
X7191786Y-15487214D01*
X7234643Y-15487214D01*
X7263214Y-15501500D01*
X7277500Y-15530071D01*
X7277500Y-15687214D01*
X7277500Y-15530071D02*
X7291786Y-15501500D01*
X7320357Y-15487214D01*
X7363214Y-15487214D01*
X7391786Y-15501500D01*
X7406071Y-15530071D01*
X7406071Y-15687214D01*
X7991786Y-15372929D02*
X7734643Y-15758643D01*
X8377500Y-15387214D02*
X8406071Y-15387214D01*
X8434643Y-15401500D01*
X8448928Y-15415786D01*
X8463214Y-15444357D01*
X8477500Y-15501500D01*
X8477500Y-15572929D01*
X8463214Y-15630071D01*
X8448928Y-15658643D01*
X8434643Y-15672929D01*
X8406071Y-15687214D01*
X8377500Y-15687214D01*
X8348928Y-15672929D01*
X8334643Y-15658643D01*
X8320357Y-15630071D01*
X8306071Y-15572929D01*
X8306071Y-15501500D01*
X8320357Y-15444357D01*
X8334643Y-15415786D01*
X8348928Y-15401500D01*
X8377500Y-15387214D01*
X8606071Y-15658643D02*
X8620357Y-15672929D01*
X8606071Y-15687214D01*
X8591786Y-15672929D01*
X8606071Y-15658643D01*
X8606071Y-15687214D01*
X8806071Y-15387214D02*
X8834643Y-15387214D01*
X8863214Y-15401500D01*
X8877500Y-15415786D01*
X8891786Y-15444357D01*
X8906071Y-15501500D01*
X8906071Y-15572929D01*
X8891786Y-15630071D01*
X8877500Y-15658643D01*
X8863214Y-15672929D01*
X8834643Y-15687214D01*
X8806071Y-15687214D01*
X8777500Y-15672929D01*
X8763214Y-15658643D01*
X8748928Y-15630071D01*
X8734643Y-15572929D01*
X8734643Y-15501500D01*
X8748928Y-15444357D01*
X8763214Y-15415786D01*
X8777500Y-15401500D01*
X8806071Y-15387214D01*
X9163214Y-15487214D02*
X9163214Y-15687214D01*
X9091786Y-15372929D02*
X9020357Y-15587214D01*
X9206071Y-15587214D01*
X9377500Y-15387214D02*
X9406071Y-15387214D01*
X9434643Y-15401500D01*
X9448928Y-15415786D01*
X9463214Y-15444357D01*
X9477500Y-15501500D01*
X9477500Y-15572929D01*
X9463214Y-15630071D01*
X9448928Y-15658643D01*
X9434643Y-15672929D01*
X9406071Y-15687214D01*
X9377500Y-15687214D01*
X9348928Y-15672929D01*
X9334643Y-15658643D01*
X9320357Y-15630071D01*
X9306071Y-15572929D01*
X9306071Y-15501500D01*
X9320357Y-15444357D01*
X9334643Y-15415786D01*
X9348928Y-15401500D01*
X9377500Y-15387214D01*
X9591786Y-15387214D02*
X9591786Y-15444357D01*
X9706071Y-15387214D02*
X9706071Y-15444357D01*
X10148928Y-15801500D02*
X10134643Y-15787214D01*
X10106071Y-15744357D01*
X10091786Y-15715786D01*
X10077500Y-15672929D01*
X10063214Y-15601500D01*
X10063214Y-15544357D01*
X10077500Y-15472929D01*
X10091786Y-15430071D01*
X10106071Y-15401500D01*
X10134643Y-15358643D01*
X10148928Y-15344357D01*
X10406071Y-15387214D02*
X10263214Y-15387214D01*
X10248928Y-15530071D01*
X10263214Y-15515786D01*
X10291786Y-15501500D01*
X10363214Y-15501500D01*
X10391786Y-15515786D01*
X10406071Y-15530071D01*
X10420357Y-15558643D01*
X10420357Y-15630071D01*
X10406071Y-15658643D01*
X10391786Y-15672929D01*
X10363214Y-15687214D01*
X10291786Y-15687214D01*
X10263214Y-15672929D01*
X10248928Y-15658643D01*
X10777500Y-15687214D02*
X10777500Y-15387214D01*
X10906071Y-15687214D02*
X10906071Y-15530071D01*
X10891786Y-15501500D01*
X10863214Y-15487214D01*
X10820357Y-15487214D01*
X10791786Y-15501500D01*
X10777500Y-15515786D01*
X11091786Y-15687214D02*
X11063214Y-15672929D01*
X11048928Y-15658643D01*
X11034643Y-15630071D01*
X11034643Y-15544357D01*
X11048928Y-15515786D01*
X11063214Y-15501500D01*
X11091786Y-15487214D01*
X11134643Y-15487214D01*
X11163214Y-15501500D01*
X11177500Y-15515786D01*
X11191786Y-15544357D01*
X11191786Y-15630071D01*
X11177500Y-15658643D01*
X11163214Y-15672929D01*
X11134643Y-15687214D01*
X11091786Y-15687214D01*
X11363214Y-15687214D02*
X11334643Y-15672929D01*
X11320357Y-15644357D01*
X11320357Y-15387214D01*
X11591786Y-15672929D02*
X11563214Y-15687214D01*
X11506071Y-15687214D01*
X11477500Y-15672929D01*
X11463214Y-15644357D01*
X11463214Y-15530071D01*
X11477500Y-15501500D01*
X11506071Y-15487214D01*
X11563214Y-15487214D01*
X11591786Y-15501500D01*
X11606071Y-15530071D01*
X11606071Y-15558643D01*
X11463214Y-15587214D01*
X11720357Y-15672929D02*
X11748928Y-15687214D01*
X11806071Y-15687214D01*
X11834643Y-15672929D01*
X11848928Y-15644357D01*
X11848928Y-15630071D01*
X11834643Y-15601500D01*
X11806071Y-15587214D01*
X11763214Y-15587214D01*
X11734643Y-15572929D01*
X11720357Y-15544357D01*
X11720357Y-15530071D01*
X11734643Y-15501500D01*
X11763214Y-15487214D01*
X11806071Y-15487214D01*
X11834643Y-15501500D01*
X11948928Y-15801500D02*
X11963214Y-15787214D01*
X11991786Y-15744357D01*
X12006071Y-15715786D01*
X12020357Y-15672929D01*
X12034643Y-15601500D01*
X12034643Y-15544357D01*
X12020357Y-15472929D01*
X12006071Y-15430071D01*
X11991786Y-15401500D01*
X11963214Y-15358643D01*
X11948928Y-15344357D01*
X5352500Y-15892500D02*
X5462500Y-16002500D01*
X5462500Y-15892500D02*
X5352500Y-16002500D01*
X5462500Y-15947500D02*
G75*
G03X5462500Y-15947500I-55000J0D01*
G01*
X5906071Y-16083214D02*
X5734643Y-16083214D01*
X5820357Y-16083214D02*
X5820357Y-15783214D01*
X5791786Y-15826071D01*
X5763214Y-15854643D01*
X5734643Y-15868929D01*
X6034643Y-16054643D02*
X6048928Y-16068929D01*
X6034643Y-16083214D01*
X6020357Y-16068929D01*
X6034643Y-16054643D01*
X6034643Y-16083214D01*
X6334643Y-16083214D02*
X6163214Y-16083214D01*
X6248928Y-16083214D02*
X6248928Y-15783214D01*
X6220357Y-15826071D01*
X6191786Y-15854643D01*
X6163214Y-15868929D01*
X6520357Y-15783214D02*
X6548928Y-15783214D01*
X6577500Y-15797500D01*
X6591786Y-15811786D01*
X6606071Y-15840357D01*
X6620357Y-15897500D01*
X6620357Y-15968929D01*
X6606071Y-16026071D01*
X6591786Y-16054643D01*
X6577500Y-16068929D01*
X6548928Y-16083214D01*
X6520357Y-16083214D01*
X6491786Y-16068929D01*
X6477500Y-16054643D01*
X6463214Y-16026071D01*
X6448928Y-15968929D01*
X6448928Y-15897500D01*
X6463214Y-15840357D01*
X6477500Y-15811786D01*
X6491786Y-15797500D01*
X6520357Y-15783214D01*
X6748928Y-16083214D02*
X6748928Y-15883214D01*
X6748928Y-15911786D02*
X6763214Y-15897500D01*
X6791786Y-15883214D01*
X6834643Y-15883214D01*
X6863214Y-15897500D01*
X6877500Y-15926071D01*
X6877500Y-16083214D01*
X6877500Y-15926071D02*
X6891786Y-15897500D01*
X6920357Y-15883214D01*
X6963214Y-15883214D01*
X6991786Y-15897500D01*
X7006071Y-15926071D01*
X7006071Y-16083214D01*
X7148928Y-16083214D02*
X7148928Y-15883214D01*
X7148928Y-15911786D02*
X7163214Y-15897500D01*
X7191786Y-15883214D01*
X7234643Y-15883214D01*
X7263214Y-15897500D01*
X7277500Y-15926071D01*
X7277500Y-16083214D01*
X7277500Y-15926071D02*
X7291786Y-15897500D01*
X7320357Y-15883214D01*
X7363214Y-15883214D01*
X7391786Y-15897500D01*
X7406071Y-15926071D01*
X7406071Y-16083214D01*
X7991786Y-15768929D02*
X7734643Y-16154643D01*
X8377500Y-15783214D02*
X8406071Y-15783214D01*
X8434643Y-15797500D01*
X8448928Y-15811786D01*
X8463214Y-15840357D01*
X8477500Y-15897500D01*
X8477500Y-15968929D01*
X8463214Y-16026071D01*
X8448928Y-16054643D01*
X8434643Y-16068929D01*
X8406071Y-16083214D01*
X8377500Y-16083214D01*
X8348928Y-16068929D01*
X8334643Y-16054643D01*
X8320357Y-16026071D01*
X8306071Y-15968929D01*
X8306071Y-15897500D01*
X8320357Y-15840357D01*
X8334643Y-15811786D01*
X8348928Y-15797500D01*
X8377500Y-15783214D01*
X8606071Y-16054643D02*
X8620357Y-16068929D01*
X8606071Y-16083214D01*
X8591786Y-16068929D01*
X8606071Y-16054643D01*
X8606071Y-16083214D01*
X8806071Y-15783214D02*
X8834643Y-15783214D01*
X8863214Y-15797500D01*
X8877500Y-15811786D01*
X8891786Y-15840357D01*
X8906071Y-15897500D01*
X8906071Y-15968929D01*
X8891786Y-16026071D01*
X8877500Y-16054643D01*
X8863214Y-16068929D01*
X8834643Y-16083214D01*
X8806071Y-16083214D01*
X8777500Y-16068929D01*
X8763214Y-16054643D01*
X8748928Y-16026071D01*
X8734643Y-15968929D01*
X8734643Y-15897500D01*
X8748928Y-15840357D01*
X8763214Y-15811786D01*
X8777500Y-15797500D01*
X8806071Y-15783214D01*
X9163214Y-15883214D02*
X9163214Y-16083214D01*
X9091786Y-15768929D02*
X9020357Y-15983214D01*
X9206071Y-15983214D01*
X9291786Y-15783214D02*
X9477500Y-15783214D01*
X9377500Y-15897500D01*
X9420357Y-15897500D01*
X9448928Y-15911786D01*
X9463214Y-15926071D01*
X9477500Y-15954643D01*
X9477500Y-16026071D01*
X9463214Y-16054643D01*
X9448928Y-16068929D01*
X9420357Y-16083214D01*
X9334643Y-16083214D01*
X9306071Y-16068929D01*
X9291786Y-16054643D01*
X9591786Y-15783214D02*
X9591786Y-15840357D01*
X9706071Y-15783214D02*
X9706071Y-15840357D01*
X10148928Y-16197500D02*
X10134643Y-16183214D01*
X10106071Y-16140357D01*
X10091786Y-16111786D01*
X10077500Y-16068929D01*
X10063214Y-15997500D01*
X10063214Y-15940357D01*
X10077500Y-15868929D01*
X10091786Y-15826071D01*
X10106071Y-15797500D01*
X10134643Y-15754643D01*
X10148928Y-15740357D01*
X10234643Y-15783214D02*
X10420357Y-15783214D01*
X10320357Y-15897500D01*
X10363214Y-15897500D01*
X10391786Y-15911786D01*
X10406071Y-15926071D01*
X10420357Y-15954643D01*
X10420357Y-16026071D01*
X10406071Y-16054643D01*
X10391786Y-16068929D01*
X10363214Y-16083214D01*
X10277500Y-16083214D01*
X10248928Y-16068929D01*
X10234643Y-16054643D01*
X10777500Y-16083214D02*
X10777500Y-15783214D01*
X10906071Y-16083214D02*
X10906071Y-15926071D01*
X10891786Y-15897500D01*
X10863214Y-15883214D01*
X10820357Y-15883214D01*
X10791786Y-15897500D01*
X10777500Y-15911786D01*
X11091786Y-16083214D02*
X11063214Y-16068929D01*
X11048928Y-16054643D01*
X11034643Y-16026071D01*
X11034643Y-15940357D01*
X11048928Y-15911786D01*
X11063214Y-15897500D01*
X11091786Y-15883214D01*
X11134643Y-15883214D01*
X11163214Y-15897500D01*
X11177500Y-15911786D01*
X11191786Y-15940357D01*
X11191786Y-16026071D01*
X11177500Y-16054643D01*
X11163214Y-16068929D01*
X11134643Y-16083214D01*
X11091786Y-16083214D01*
X11363214Y-16083214D02*
X11334643Y-16068929D01*
X11320357Y-16040357D01*
X11320357Y-15783214D01*
X11591786Y-16068929D02*
X11563214Y-16083214D01*
X11506071Y-16083214D01*
X11477500Y-16068929D01*
X11463214Y-16040357D01*
X11463214Y-15926071D01*
X11477500Y-15897500D01*
X11506071Y-15883214D01*
X11563214Y-15883214D01*
X11591786Y-15897500D01*
X11606071Y-15926071D01*
X11606071Y-15954643D01*
X11463214Y-15983214D01*
X11720357Y-16068929D02*
X11748928Y-16083214D01*
X11806071Y-16083214D01*
X11834643Y-16068929D01*
X11848928Y-16040357D01*
X11848928Y-16026071D01*
X11834643Y-15997500D01*
X11806071Y-15983214D01*
X11763214Y-15983214D01*
X11734643Y-15968929D01*
X11720357Y-15940357D01*
X11720357Y-15926071D01*
X11734643Y-15897500D01*
X11763214Y-15883214D01*
X11806071Y-15883214D01*
X11834643Y-15897500D01*
X11948928Y-16197500D02*
X11963214Y-16183214D01*
X11991786Y-16140357D01*
X12006071Y-16111786D01*
X12020357Y-16068929D01*
X12034643Y-15997500D01*
X12034643Y-15940357D01*
X12020357Y-15868929D01*
X12006071Y-15826071D01*
X11991786Y-15797500D01*
X11963214Y-15754643D01*
X11948928Y-15740357D01*
X5342500Y-16283500D02*
X5462500Y-16403500D01*
X5462500Y-16283500D02*
X5342500Y-16403500D01*
X5402500Y-16283500D02*
X5402500Y-16403500D01*
X5342500Y-16343500D02*
X5462500Y-16343500D01*
X5906071Y-16479214D02*
X5734643Y-16479214D01*
X5820357Y-16479214D02*
X5820357Y-16179214D01*
X5791786Y-16222071D01*
X5763214Y-16250643D01*
X5734643Y-16264929D01*
X6034643Y-16450643D02*
X6048928Y-16464929D01*
X6034643Y-16479214D01*
X6020357Y-16464929D01*
X6034643Y-16450643D01*
X6034643Y-16479214D01*
X6163214Y-16207786D02*
X6177500Y-16193500D01*
X6206071Y-16179214D01*
X6277500Y-16179214D01*
X6306071Y-16193500D01*
X6320357Y-16207786D01*
X6334643Y-16236357D01*
X6334643Y-16264929D01*
X6320357Y-16307786D01*
X6148928Y-16479214D01*
X6334643Y-16479214D01*
X6520357Y-16179214D02*
X6548928Y-16179214D01*
X6577500Y-16193500D01*
X6591786Y-16207786D01*
X6606071Y-16236357D01*
X6620357Y-16293500D01*
X6620357Y-16364929D01*
X6606071Y-16422071D01*
X6591786Y-16450643D01*
X6577500Y-16464929D01*
X6548928Y-16479214D01*
X6520357Y-16479214D01*
X6491786Y-16464929D01*
X6477500Y-16450643D01*
X6463214Y-16422071D01*
X6448928Y-16364929D01*
X6448928Y-16293500D01*
X6463214Y-16236357D01*
X6477500Y-16207786D01*
X6491786Y-16193500D01*
X6520357Y-16179214D01*
X6748928Y-16479214D02*
X6748928Y-16279214D01*
X6748928Y-16307786D02*
X6763214Y-16293500D01*
X6791786Y-16279214D01*
X6834643Y-16279214D01*
X6863214Y-16293500D01*
X6877500Y-16322071D01*
X6877500Y-16479214D01*
X6877500Y-16322071D02*
X6891786Y-16293500D01*
X6920357Y-16279214D01*
X6963214Y-16279214D01*
X6991786Y-16293500D01*
X7006071Y-16322071D01*
X7006071Y-16479214D01*
X7148928Y-16479214D02*
X7148928Y-16279214D01*
X7148928Y-16307786D02*
X7163214Y-16293500D01*
X7191786Y-16279214D01*
X7234643Y-16279214D01*
X7263214Y-16293500D01*
X7277500Y-16322071D01*
X7277500Y-16479214D01*
X7277500Y-16322071D02*
X7291786Y-16293500D01*
X7320357Y-16279214D01*
X7363214Y-16279214D01*
X7391786Y-16293500D01*
X7406071Y-16322071D01*
X7406071Y-16479214D01*
X7991786Y-16164929D02*
X7734643Y-16550643D01*
X8377500Y-16179214D02*
X8406071Y-16179214D01*
X8434643Y-16193500D01*
X8448928Y-16207786D01*
X8463214Y-16236357D01*
X8477500Y-16293500D01*
X8477500Y-16364929D01*
X8463214Y-16422071D01*
X8448928Y-16450643D01*
X8434643Y-16464929D01*
X8406071Y-16479214D01*
X8377500Y-16479214D01*
X8348928Y-16464929D01*
X8334643Y-16450643D01*
X8320357Y-16422071D01*
X8306071Y-16364929D01*
X8306071Y-16293500D01*
X8320357Y-16236357D01*
X8334643Y-16207786D01*
X8348928Y-16193500D01*
X8377500Y-16179214D01*
X8606071Y-16450643D02*
X8620357Y-16464929D01*
X8606071Y-16479214D01*
X8591786Y-16464929D01*
X8606071Y-16450643D01*
X8606071Y-16479214D01*
X8806071Y-16179214D02*
X8834643Y-16179214D01*
X8863214Y-16193500D01*
X8877500Y-16207786D01*
X8891786Y-16236357D01*
X8906071Y-16293500D01*
X8906071Y-16364929D01*
X8891786Y-16422071D01*
X8877500Y-16450643D01*
X8863214Y-16464929D01*
X8834643Y-16479214D01*
X8806071Y-16479214D01*
X8777500Y-16464929D01*
X8763214Y-16450643D01*
X8748928Y-16422071D01*
X8734643Y-16364929D01*
X8734643Y-16293500D01*
X8748928Y-16236357D01*
X8763214Y-16207786D01*
X8777500Y-16193500D01*
X8806071Y-16179214D01*
X9163214Y-16279214D02*
X9163214Y-16479214D01*
X9091786Y-16164929D02*
X9020357Y-16379214D01*
X9206071Y-16379214D01*
X9291786Y-16179214D02*
X9491786Y-16179214D01*
X9363214Y-16479214D01*
X9591786Y-16179214D02*
X9591786Y-16236357D01*
X9706071Y-16179214D02*
X9706071Y-16236357D01*
X10148928Y-16593500D02*
X10134643Y-16579214D01*
X10106071Y-16536357D01*
X10091786Y-16507786D01*
X10077500Y-16464929D01*
X10063214Y-16393500D01*
X10063214Y-16336357D01*
X10077500Y-16264929D01*
X10091786Y-16222071D01*
X10106071Y-16193500D01*
X10134643Y-16150643D01*
X10148928Y-16136357D01*
X10248928Y-16207786D02*
X10263214Y-16193500D01*
X10291786Y-16179214D01*
X10363214Y-16179214D01*
X10391786Y-16193500D01*
X10406071Y-16207786D01*
X10420357Y-16236357D01*
X10420357Y-16264929D01*
X10406071Y-16307786D01*
X10234643Y-16479214D01*
X10420357Y-16479214D01*
X10777500Y-16479214D02*
X10777500Y-16179214D01*
X10906071Y-16479214D02*
X10906071Y-16322071D01*
X10891786Y-16293500D01*
X10863214Y-16279214D01*
X10820357Y-16279214D01*
X10791786Y-16293500D01*
X10777500Y-16307786D01*
X11091786Y-16479214D02*
X11063214Y-16464929D01*
X11048928Y-16450643D01*
X11034643Y-16422071D01*
X11034643Y-16336357D01*
X11048928Y-16307786D01*
X11063214Y-16293500D01*
X11091786Y-16279214D01*
X11134643Y-16279214D01*
X11163214Y-16293500D01*
X11177500Y-16307786D01*
X11191786Y-16336357D01*
X11191786Y-16422071D01*
X11177500Y-16450643D01*
X11163214Y-16464929D01*
X11134643Y-16479214D01*
X11091786Y-16479214D01*
X11363214Y-16479214D02*
X11334643Y-16464929D01*
X11320357Y-16436357D01*
X11320357Y-16179214D01*
X11591786Y-16464929D02*
X11563214Y-16479214D01*
X11506071Y-16479214D01*
X11477500Y-16464929D01*
X11463214Y-16436357D01*
X11463214Y-16322071D01*
X11477500Y-16293500D01*
X11506071Y-16279214D01*
X11563214Y-16279214D01*
X11591786Y-16293500D01*
X11606071Y-16322071D01*
X11606071Y-16350643D01*
X11463214Y-16379214D01*
X11720357Y-16464929D02*
X11748928Y-16479214D01*
X11806071Y-16479214D01*
X11834643Y-16464929D01*
X11848928Y-16436357D01*
X11848928Y-16422071D01*
X11834643Y-16393500D01*
X11806071Y-16379214D01*
X11763214Y-16379214D01*
X11734643Y-16364929D01*
X11720357Y-16336357D01*
X11720357Y-16322071D01*
X11734643Y-16293500D01*
X11763214Y-16279214D01*
X11806071Y-16279214D01*
X11834643Y-16293500D01*
X11948928Y-16593500D02*
X11963214Y-16579214D01*
X11991786Y-16536357D01*
X12006071Y-16507786D01*
X12020357Y-16464929D01*
X12034643Y-16393500D01*
X12034643Y-16336357D01*
X12020357Y-16264929D01*
X12006071Y-16222071D01*
X11991786Y-16193500D01*
X11963214Y-16150643D01*
X11948928Y-16136357D01*
X5322500Y-16669500D02*
X5462500Y-16809500D01*
X5462500Y-16669500D02*
X5322500Y-16809500D01*
X5441998Y-16788998D02*
X5441998Y-16690002D01*
X5343002Y-16690002D01*
X5343002Y-16788998D01*
X5441998Y-16788998D01*
X5906071Y-16875214D02*
X5734643Y-16875214D01*
X5820357Y-16875214D02*
X5820357Y-16575214D01*
X5791786Y-16618071D01*
X5763214Y-16646643D01*
X5734643Y-16660929D01*
X6034643Y-16846643D02*
X6048928Y-16860929D01*
X6034643Y-16875214D01*
X6020357Y-16860929D01*
X6034643Y-16846643D01*
X6034643Y-16875214D01*
X6306071Y-16675214D02*
X6306071Y-16875214D01*
X6234643Y-16560929D02*
X6163214Y-16775214D01*
X6348928Y-16775214D01*
X6520357Y-16575214D02*
X6548928Y-16575214D01*
X6577500Y-16589500D01*
X6591786Y-16603786D01*
X6606071Y-16632357D01*
X6620357Y-16689500D01*
X6620357Y-16760929D01*
X6606071Y-16818072D01*
X6591786Y-16846643D01*
X6577500Y-16860929D01*
X6548928Y-16875214D01*
X6520357Y-16875214D01*
X6491786Y-16860929D01*
X6477500Y-16846643D01*
X6463214Y-16818072D01*
X6448928Y-16760929D01*
X6448928Y-16689500D01*
X6463214Y-16632357D01*
X6477500Y-16603786D01*
X6491786Y-16589500D01*
X6520357Y-16575214D01*
X6748928Y-16875214D02*
X6748928Y-16675214D01*
X6748928Y-16703786D02*
X6763214Y-16689500D01*
X6791786Y-16675214D01*
X6834643Y-16675214D01*
X6863214Y-16689500D01*
X6877500Y-16718071D01*
X6877500Y-16875214D01*
X6877500Y-16718071D02*
X6891786Y-16689500D01*
X6920357Y-16675214D01*
X6963214Y-16675214D01*
X6991786Y-16689500D01*
X7006071Y-16718071D01*
X7006071Y-16875214D01*
X7148928Y-16875214D02*
X7148928Y-16675214D01*
X7148928Y-16703786D02*
X7163214Y-16689500D01*
X7191786Y-16675214D01*
X7234643Y-16675214D01*
X7263214Y-16689500D01*
X7277500Y-16718071D01*
X7277500Y-16875214D01*
X7277500Y-16718071D02*
X7291786Y-16689500D01*
X7320357Y-16675214D01*
X7363214Y-16675214D01*
X7391786Y-16689500D01*
X7406071Y-16718071D01*
X7406071Y-16875214D01*
X7991786Y-16560929D02*
X7734643Y-16946643D01*
X8377500Y-16575214D02*
X8406071Y-16575214D01*
X8434643Y-16589500D01*
X8448928Y-16603786D01*
X8463214Y-16632357D01*
X8477500Y-16689500D01*
X8477500Y-16760929D01*
X8463214Y-16818072D01*
X8448928Y-16846643D01*
X8434643Y-16860929D01*
X8406071Y-16875214D01*
X8377500Y-16875214D01*
X8348928Y-16860929D01*
X8334643Y-16846643D01*
X8320357Y-16818072D01*
X8306071Y-16760929D01*
X8306071Y-16689500D01*
X8320357Y-16632357D01*
X8334643Y-16603786D01*
X8348928Y-16589500D01*
X8377500Y-16575214D01*
X8606071Y-16846643D02*
X8620357Y-16860929D01*
X8606071Y-16875214D01*
X8591786Y-16860929D01*
X8606071Y-16846643D01*
X8606071Y-16875214D01*
X8806071Y-16575214D02*
X8834643Y-16575214D01*
X8863214Y-16589500D01*
X8877500Y-16603786D01*
X8891786Y-16632357D01*
X8906071Y-16689500D01*
X8906071Y-16760929D01*
X8891786Y-16818072D01*
X8877500Y-16846643D01*
X8863214Y-16860929D01*
X8834643Y-16875214D01*
X8806071Y-16875214D01*
X8777500Y-16860929D01*
X8763214Y-16846643D01*
X8748928Y-16818072D01*
X8734643Y-16760929D01*
X8734643Y-16689500D01*
X8748928Y-16632357D01*
X8763214Y-16603786D01*
X8777500Y-16589500D01*
X8806071Y-16575214D01*
X9177500Y-16575214D02*
X9034643Y-16575214D01*
X9020357Y-16718071D01*
X9034643Y-16703786D01*
X9063214Y-16689500D01*
X9134643Y-16689500D01*
X9163214Y-16703786D01*
X9177500Y-16718071D01*
X9191786Y-16746643D01*
X9191786Y-16818072D01*
X9177500Y-16846643D01*
X9163214Y-16860929D01*
X9134643Y-16875214D01*
X9063214Y-16875214D01*
X9034643Y-16860929D01*
X9020357Y-16846643D01*
X9463214Y-16575214D02*
X9320357Y-16575214D01*
X9306071Y-16718071D01*
X9320357Y-16703786D01*
X9348928Y-16689500D01*
X9420357Y-16689500D01*
X9448928Y-16703786D01*
X9463214Y-16718071D01*
X9477500Y-16746643D01*
X9477500Y-16818072D01*
X9463214Y-16846643D01*
X9448928Y-16860929D01*
X9420357Y-16875214D01*
X9348928Y-16875214D01*
X9320357Y-16860929D01*
X9306071Y-16846643D01*
X9591786Y-16575214D02*
X9591786Y-16632357D01*
X9706071Y-16575214D02*
X9706071Y-16632357D01*
X10148928Y-16989500D02*
X10134643Y-16975214D01*
X10106071Y-16932357D01*
X10091786Y-16903786D01*
X10077500Y-16860929D01*
X10063214Y-16789500D01*
X10063214Y-16732357D01*
X10077500Y-16660929D01*
X10091786Y-16618071D01*
X10106071Y-16589500D01*
X10134643Y-16546643D01*
X10148928Y-16532357D01*
X10248928Y-16603786D02*
X10263214Y-16589500D01*
X10291786Y-16575214D01*
X10363214Y-16575214D01*
X10391786Y-16589500D01*
X10406071Y-16603786D01*
X10420357Y-16632357D01*
X10420357Y-16660929D01*
X10406071Y-16703786D01*
X10234643Y-16875214D01*
X10420357Y-16875214D01*
X10777500Y-16875214D02*
X10777500Y-16575214D01*
X10906071Y-16875214D02*
X10906071Y-16718071D01*
X10891786Y-16689500D01*
X10863214Y-16675214D01*
X10820357Y-16675214D01*
X10791786Y-16689500D01*
X10777500Y-16703786D01*
X11091786Y-16875214D02*
X11063214Y-16860929D01*
X11048928Y-16846643D01*
X11034643Y-16818072D01*
X11034643Y-16732357D01*
X11048928Y-16703786D01*
X11063214Y-16689500D01*
X11091786Y-16675214D01*
X11134643Y-16675214D01*
X11163214Y-16689500D01*
X11177500Y-16703786D01*
X11191786Y-16732357D01*
X11191786Y-16818072D01*
X11177500Y-16846643D01*
X11163214Y-16860929D01*
X11134643Y-16875214D01*
X11091786Y-16875214D01*
X11363214Y-16875214D02*
X11334643Y-16860929D01*
X11320357Y-16832357D01*
X11320357Y-16575214D01*
X11591786Y-16860929D02*
X11563214Y-16875214D01*
X11506071Y-16875214D01*
X11477500Y-16860929D01*
X11463214Y-16832357D01*
X11463214Y-16718071D01*
X11477500Y-16689500D01*
X11506071Y-16675214D01*
X11563214Y-16675214D01*
X11591786Y-16689500D01*
X11606071Y-16718071D01*
X11606071Y-16746643D01*
X11463214Y-16775214D01*
X11720357Y-16860929D02*
X11748928Y-16875214D01*
X11806071Y-16875214D01*
X11834643Y-16860929D01*
X11848928Y-16832357D01*
X11848928Y-16818072D01*
X11834643Y-16789500D01*
X11806071Y-16775214D01*
X11763214Y-16775214D01*
X11734643Y-16760929D01*
X11720357Y-16732357D01*
X11720357Y-16718071D01*
X11734643Y-16689500D01*
X11763214Y-16675214D01*
X11806071Y-16675214D01*
X11834643Y-16689500D01*
X11948928Y-16989500D02*
X11963214Y-16975214D01*
X11991786Y-16932357D01*
X12006071Y-16903786D01*
X12020357Y-16860929D01*
X12034643Y-16789500D01*
X12034643Y-16732357D01*
X12020357Y-16660929D01*
X12006071Y-16618071D01*
X11991786Y-16589500D01*
X11963214Y-16546643D01*
X11948928Y-16532357D01*
X5312500Y-17060500D02*
X5462500Y-17210500D01*
X5462500Y-17060500D02*
X5312500Y-17210500D01*
X5387500Y-17210500D02*
X5462500Y-17135500D01*
X5387500Y-17060500D01*
X5312500Y-17135500D01*
X5387500Y-17210500D01*
X5906071Y-17271214D02*
X5734643Y-17271214D01*
X5820357Y-17271214D02*
X5820357Y-16971214D01*
X5791786Y-17014072D01*
X5763214Y-17042643D01*
X5734643Y-17056929D01*
X6034643Y-17242643D02*
X6048928Y-17256929D01*
X6034643Y-17271214D01*
X6020357Y-17256929D01*
X6034643Y-17242643D01*
X6034643Y-17271214D01*
X6320357Y-16971214D02*
X6177500Y-16971214D01*
X6163214Y-17114072D01*
X6177500Y-17099786D01*
X6206071Y-17085500D01*
X6277500Y-17085500D01*
X6306071Y-17099786D01*
X6320357Y-17114072D01*
X6334643Y-17142643D01*
X6334643Y-17214072D01*
X6320357Y-17242643D01*
X6306071Y-17256929D01*
X6277500Y-17271214D01*
X6206071Y-17271214D01*
X6177500Y-17256929D01*
X6163214Y-17242643D01*
X6520357Y-16971214D02*
X6548928Y-16971214D01*
X6577500Y-16985500D01*
X6591786Y-16999786D01*
X6606071Y-17028357D01*
X6620357Y-17085500D01*
X6620357Y-17156929D01*
X6606071Y-17214072D01*
X6591786Y-17242643D01*
X6577500Y-17256929D01*
X6548928Y-17271214D01*
X6520357Y-17271214D01*
X6491786Y-17256929D01*
X6477500Y-17242643D01*
X6463214Y-17214072D01*
X6448928Y-17156929D01*
X6448928Y-17085500D01*
X6463214Y-17028357D01*
X6477500Y-16999786D01*
X6491786Y-16985500D01*
X6520357Y-16971214D01*
X6748928Y-17271214D02*
X6748928Y-17071214D01*
X6748928Y-17099786D02*
X6763214Y-17085500D01*
X6791786Y-17071214D01*
X6834643Y-17071214D01*
X6863214Y-17085500D01*
X6877500Y-17114072D01*
X6877500Y-17271214D01*
X6877500Y-17114072D02*
X6891786Y-17085500D01*
X6920357Y-17071214D01*
X6963214Y-17071214D01*
X6991786Y-17085500D01*
X7006071Y-17114072D01*
X7006071Y-17271214D01*
X7148928Y-17271214D02*
X7148928Y-17071214D01*
X7148928Y-17099786D02*
X7163214Y-17085500D01*
X7191786Y-17071214D01*
X7234643Y-17071214D01*
X7263214Y-17085500D01*
X7277500Y-17114072D01*
X7277500Y-17271214D01*
X7277500Y-17114072D02*
X7291786Y-17085500D01*
X7320357Y-17071214D01*
X7363214Y-17071214D01*
X7391786Y-17085500D01*
X7406071Y-17114072D01*
X7406071Y-17271214D01*
X7991786Y-16956929D02*
X7734643Y-17342643D01*
X8377500Y-16971214D02*
X8406071Y-16971214D01*
X8434643Y-16985500D01*
X8448928Y-16999786D01*
X8463214Y-17028357D01*
X8477500Y-17085500D01*
X8477500Y-17156929D01*
X8463214Y-17214072D01*
X8448928Y-17242643D01*
X8434643Y-17256929D01*
X8406071Y-17271214D01*
X8377500Y-17271214D01*
X8348928Y-17256929D01*
X8334643Y-17242643D01*
X8320357Y-17214072D01*
X8306071Y-17156929D01*
X8306071Y-17085500D01*
X8320357Y-17028357D01*
X8334643Y-16999786D01*
X8348928Y-16985500D01*
X8377500Y-16971214D01*
X8606071Y-17242643D02*
X8620357Y-17256929D01*
X8606071Y-17271214D01*
X8591786Y-17256929D01*
X8606071Y-17242643D01*
X8606071Y-17271214D01*
X8806071Y-16971214D02*
X8834643Y-16971214D01*
X8863214Y-16985500D01*
X8877500Y-16999786D01*
X8891786Y-17028357D01*
X8906071Y-17085500D01*
X8906071Y-17156929D01*
X8891786Y-17214072D01*
X8877500Y-17242643D01*
X8863214Y-17256929D01*
X8834643Y-17271214D01*
X8806071Y-17271214D01*
X8777500Y-17256929D01*
X8763214Y-17242643D01*
X8748928Y-17214072D01*
X8734643Y-17156929D01*
X8734643Y-17085500D01*
X8748928Y-17028357D01*
X8763214Y-16999786D01*
X8777500Y-16985500D01*
X8806071Y-16971214D01*
X9177500Y-16971214D02*
X9034643Y-16971214D01*
X9020357Y-17114072D01*
X9034643Y-17099786D01*
X9063214Y-17085500D01*
X9134643Y-17085500D01*
X9163214Y-17099786D01*
X9177500Y-17114072D01*
X9191786Y-17142643D01*
X9191786Y-17214072D01*
X9177500Y-17242643D01*
X9163214Y-17256929D01*
X9134643Y-17271214D01*
X9063214Y-17271214D01*
X9034643Y-17256929D01*
X9020357Y-17242643D01*
X9334643Y-17271214D02*
X9391786Y-17271214D01*
X9420357Y-17256929D01*
X9434643Y-17242643D01*
X9463214Y-17199786D01*
X9477500Y-17142643D01*
X9477500Y-17028357D01*
X9463214Y-16999786D01*
X9448928Y-16985500D01*
X9420357Y-16971214D01*
X9363214Y-16971214D01*
X9334643Y-16985500D01*
X9320357Y-16999786D01*
X9306071Y-17028357D01*
X9306071Y-17099786D01*
X9320357Y-17128357D01*
X9334643Y-17142643D01*
X9363214Y-17156929D01*
X9420357Y-17156929D01*
X9448928Y-17142643D01*
X9463214Y-17128357D01*
X9477500Y-17099786D01*
X9591786Y-16971214D02*
X9591786Y-17028357D01*
X9706071Y-16971214D02*
X9706071Y-17028357D01*
X10148928Y-17385500D02*
X10134643Y-17371214D01*
X10106071Y-17328357D01*
X10091786Y-17299786D01*
X10077500Y-17256929D01*
X10063214Y-17185500D01*
X10063214Y-17128357D01*
X10077500Y-17056929D01*
X10091786Y-17014072D01*
X10106071Y-16985500D01*
X10134643Y-16942643D01*
X10148928Y-16928357D01*
X10391786Y-17071214D02*
X10391786Y-17271214D01*
X10320357Y-16956929D02*
X10248928Y-17171214D01*
X10434643Y-17171214D01*
X10777500Y-17271214D02*
X10777500Y-16971214D01*
X10906071Y-17271214D02*
X10906071Y-17114072D01*
X10891786Y-17085500D01*
X10863214Y-17071214D01*
X10820357Y-17071214D01*
X10791786Y-17085500D01*
X10777500Y-17099786D01*
X11091786Y-17271214D02*
X11063214Y-17256929D01*
X11048928Y-17242643D01*
X11034643Y-17214072D01*
X11034643Y-17128357D01*
X11048928Y-17099786D01*
X11063214Y-17085500D01*
X11091786Y-17071214D01*
X11134643Y-17071214D01*
X11163214Y-17085500D01*
X11177500Y-17099786D01*
X11191786Y-17128357D01*
X11191786Y-17214072D01*
X11177500Y-17242643D01*
X11163214Y-17256929D01*
X11134643Y-17271214D01*
X11091786Y-17271214D01*
X11363214Y-17271214D02*
X11334643Y-17256929D01*
X11320357Y-17228357D01*
X11320357Y-16971214D01*
X11591786Y-17256929D02*
X11563214Y-17271214D01*
X11506071Y-17271214D01*
X11477500Y-17256929D01*
X11463214Y-17228357D01*
X11463214Y-17114072D01*
X11477500Y-17085500D01*
X11506071Y-17071214D01*
X11563214Y-17071214D01*
X11591786Y-17085500D01*
X11606071Y-17114072D01*
X11606071Y-17142643D01*
X11463214Y-17171214D01*
X11720357Y-17256929D02*
X11748928Y-17271214D01*
X11806071Y-17271214D01*
X11834643Y-17256929D01*
X11848928Y-17228357D01*
X11848928Y-17214072D01*
X11834643Y-17185500D01*
X11806071Y-17171214D01*
X11763214Y-17171214D01*
X11734643Y-17156929D01*
X11720357Y-17128357D01*
X11720357Y-17114072D01*
X11734643Y-17085500D01*
X11763214Y-17071214D01*
X11806071Y-17071214D01*
X11834643Y-17085500D01*
X11948928Y-17385500D02*
X11963214Y-17371214D01*
X11991786Y-17328357D01*
X12006071Y-17299786D01*
X12020357Y-17256929D01*
X12034643Y-17185500D01*
X12034643Y-17128357D01*
X12020357Y-17056929D01*
X12006071Y-17014072D01*
X11991786Y-16985500D01*
X11963214Y-16942643D01*
X11948928Y-16928357D01*
X5332500Y-17401500D02*
X5332500Y-17661500D01*
X5202500Y-17531500D02*
X5462500Y-17531500D01*
X5462500Y-17531500D02*
G75*
G03X5462500Y-17531500I-130000J0D01*
G01*
X5734643Y-17395786D02*
X5748928Y-17381500D01*
X5777500Y-17367214D01*
X5848928Y-17367214D01*
X5877500Y-17381500D01*
X5891786Y-17395786D01*
X5906071Y-17424357D01*
X5906071Y-17452929D01*
X5891786Y-17495786D01*
X5720357Y-17667214D01*
X5906071Y-17667214D01*
X6034643Y-17638643D02*
X6048928Y-17652929D01*
X6034643Y-17667214D01*
X6020357Y-17652929D01*
X6034643Y-17638643D01*
X6034643Y-17667214D01*
X6306071Y-17367214D02*
X6248928Y-17367214D01*
X6220357Y-17381500D01*
X6206071Y-17395786D01*
X6177500Y-17438643D01*
X6163214Y-17495786D01*
X6163214Y-17610072D01*
X6177500Y-17638643D01*
X6191786Y-17652929D01*
X6220357Y-17667214D01*
X6277500Y-17667214D01*
X6306071Y-17652929D01*
X6320357Y-17638643D01*
X6334643Y-17610072D01*
X6334643Y-17538643D01*
X6320357Y-17510072D01*
X6306071Y-17495786D01*
X6277500Y-17481500D01*
X6220357Y-17481500D01*
X6191786Y-17495786D01*
X6177500Y-17510072D01*
X6163214Y-17538643D01*
X6520357Y-17367214D02*
X6548928Y-17367214D01*
X6577500Y-17381500D01*
X6591786Y-17395786D01*
X6606071Y-17424357D01*
X6620357Y-17481500D01*
X6620357Y-17552929D01*
X6606071Y-17610072D01*
X6591786Y-17638643D01*
X6577500Y-17652929D01*
X6548928Y-17667214D01*
X6520357Y-17667214D01*
X6491786Y-17652929D01*
X6477500Y-17638643D01*
X6463214Y-17610072D01*
X6448928Y-17552929D01*
X6448928Y-17481500D01*
X6463214Y-17424357D01*
X6477500Y-17395786D01*
X6491786Y-17381500D01*
X6520357Y-17367214D01*
X6748928Y-17667214D02*
X6748928Y-17467214D01*
X6748928Y-17495786D02*
X6763214Y-17481500D01*
X6791786Y-17467214D01*
X6834643Y-17467214D01*
X6863214Y-17481500D01*
X6877500Y-17510072D01*
X6877500Y-17667214D01*
X6877500Y-17510072D02*
X6891786Y-17481500D01*
X6920357Y-17467214D01*
X6963214Y-17467214D01*
X6991786Y-17481500D01*
X7006071Y-17510072D01*
X7006071Y-17667214D01*
X7148928Y-17667214D02*
X7148928Y-17467214D01*
X7148928Y-17495786D02*
X7163214Y-17481500D01*
X7191786Y-17467214D01*
X7234643Y-17467214D01*
X7263214Y-17481500D01*
X7277500Y-17510072D01*
X7277500Y-17667214D01*
X7277500Y-17510072D02*
X7291786Y-17481500D01*
X7320357Y-17467214D01*
X7363214Y-17467214D01*
X7391786Y-17481500D01*
X7406071Y-17510072D01*
X7406071Y-17667214D01*
X7991786Y-17352929D02*
X7734643Y-17738643D01*
X8377500Y-17367214D02*
X8406071Y-17367214D01*
X8434643Y-17381500D01*
X8448928Y-17395786D01*
X8463214Y-17424357D01*
X8477500Y-17481500D01*
X8477500Y-17552929D01*
X8463214Y-17610072D01*
X8448928Y-17638643D01*
X8434643Y-17652929D01*
X8406071Y-17667214D01*
X8377500Y-17667214D01*
X8348928Y-17652929D01*
X8334643Y-17638643D01*
X8320357Y-17610072D01*
X8306071Y-17552929D01*
X8306071Y-17481500D01*
X8320357Y-17424357D01*
X8334643Y-17395786D01*
X8348928Y-17381500D01*
X8377500Y-17367214D01*
X8606071Y-17638643D02*
X8620357Y-17652929D01*
X8606071Y-17667214D01*
X8591786Y-17652929D01*
X8606071Y-17638643D01*
X8606071Y-17667214D01*
X8906071Y-17667214D02*
X8734643Y-17667214D01*
X8820357Y-17667214D02*
X8820357Y-17367214D01*
X8791786Y-17410072D01*
X8763214Y-17438643D01*
X8734643Y-17452929D01*
X9091786Y-17367214D02*
X9120357Y-17367214D01*
X9148928Y-17381500D01*
X9163214Y-17395786D01*
X9177500Y-17424357D01*
X9191786Y-17481500D01*
X9191786Y-17552929D01*
X9177500Y-17610072D01*
X9163214Y-17638643D01*
X9148928Y-17652929D01*
X9120357Y-17667214D01*
X9091786Y-17667214D01*
X9063214Y-17652929D01*
X9048928Y-17638643D01*
X9034643Y-17610072D01*
X9020357Y-17552929D01*
X9020357Y-17481500D01*
X9034643Y-17424357D01*
X9048928Y-17395786D01*
X9063214Y-17381500D01*
X9091786Y-17367214D01*
X9306071Y-17395786D02*
X9320357Y-17381500D01*
X9348928Y-17367214D01*
X9420357Y-17367214D01*
X9448928Y-17381500D01*
X9463214Y-17395786D01*
X9477500Y-17424357D01*
X9477500Y-17452929D01*
X9463214Y-17495786D01*
X9291786Y-17667214D01*
X9477500Y-17667214D01*
X9591786Y-17367214D02*
X9591786Y-17424357D01*
X9706071Y-17367214D02*
X9706071Y-17424357D01*
X10148928Y-17781500D02*
X10134643Y-17767214D01*
X10106071Y-17724357D01*
X10091786Y-17695786D01*
X10077500Y-17652929D01*
X10063214Y-17581500D01*
X10063214Y-17524357D01*
X10077500Y-17452929D01*
X10091786Y-17410072D01*
X10106071Y-17381500D01*
X10134643Y-17338643D01*
X10148928Y-17324357D01*
X10248928Y-17395786D02*
X10263214Y-17381500D01*
X10291786Y-17367214D01*
X10363214Y-17367214D01*
X10391786Y-17381500D01*
X10406071Y-17395786D01*
X10420357Y-17424357D01*
X10420357Y-17452929D01*
X10406071Y-17495786D01*
X10234643Y-17667214D01*
X10420357Y-17667214D01*
X10777500Y-17667214D02*
X10777500Y-17367214D01*
X10906071Y-17667214D02*
X10906071Y-17510072D01*
X10891786Y-17481500D01*
X10863214Y-17467214D01*
X10820357Y-17467214D01*
X10791786Y-17481500D01*
X10777500Y-17495786D01*
X11091786Y-17667214D02*
X11063214Y-17652929D01*
X11048928Y-17638643D01*
X11034643Y-17610072D01*
X11034643Y-17524357D01*
X11048928Y-17495786D01*
X11063214Y-17481500D01*
X11091786Y-17467214D01*
X11134643Y-17467214D01*
X11163214Y-17481500D01*
X11177500Y-17495786D01*
X11191786Y-17524357D01*
X11191786Y-17610072D01*
X11177500Y-17638643D01*
X11163214Y-17652929D01*
X11134643Y-17667214D01*
X11091786Y-17667214D01*
X11363214Y-17667214D02*
X11334643Y-17652929D01*
X11320357Y-17624357D01*
X11320357Y-17367214D01*
X11591786Y-17652929D02*
X11563214Y-17667214D01*
X11506071Y-17667214D01*
X11477500Y-17652929D01*
X11463214Y-17624357D01*
X11463214Y-17510072D01*
X11477500Y-17481500D01*
X11506071Y-17467214D01*
X11563214Y-17467214D01*
X11591786Y-17481500D01*
X11606071Y-17510072D01*
X11606071Y-17538643D01*
X11463214Y-17567214D01*
X11720357Y-17652929D02*
X11748928Y-17667214D01*
X11806071Y-17667214D01*
X11834643Y-17652929D01*
X11848928Y-17624357D01*
X11848928Y-17610072D01*
X11834643Y-17581500D01*
X11806071Y-17567214D01*
X11763214Y-17567214D01*
X11734643Y-17552929D01*
X11720357Y-17524357D01*
X11720357Y-17510072D01*
X11734643Y-17481500D01*
X11763214Y-17467214D01*
X11806071Y-17467214D01*
X11834643Y-17481500D01*
X11948928Y-17781500D02*
X11963214Y-17767214D01*
X11991786Y-17724357D01*
X12006071Y-17695786D01*
X12020357Y-17652929D01*
X12034643Y-17581500D01*
X12034643Y-17524357D01*
X12020357Y-17452929D01*
X12006071Y-17410072D01*
X11991786Y-17381500D01*
X11963214Y-17338643D01*
X11948928Y-17324357D01*
M02*
