G04 #@! TF.GenerationSoftware,KiCad,Pcbnew,5.0.1-33cea8e~68~ubuntu18.04.1*
G04 #@! TF.CreationDate,2018-11-27T01:55:08+01:00*
G04 #@! TF.ProjectId,ArduTrxDMRShield,41726475547278444D52536869656C64,x1.0*
G04 #@! TF.SameCoordinates,Original*
G04 #@! TF.FileFunction,Copper,L2,Bot,Signal*
G04 #@! TF.FilePolarity,Positive*
%FSLAX46Y46*%
G04 Gerber Fmt 4.6, Leading zero omitted, Abs format (unit mm)*
G04 Created by KiCad (PCBNEW 5.0.1-33cea8e~68~ubuntu18.04.1) date Di 27 Nov 2018 01:55:08 CET*
%MOMM*%
%LPD*%
G01*
G04 APERTURE LIST*
G04 #@! TA.AperFunction,NonConductor*
%ADD10C,0.300000*%
G04 #@! TD*
G04 #@! TA.AperFunction,ComponentPad*
%ADD11O,2.032000X1.727200*%
G04 #@! TD*
G04 #@! TA.AperFunction,ComponentPad*
%ADD12R,2.032000X1.727200*%
G04 #@! TD*
G04 #@! TA.AperFunction,ComponentPad*
%ADD13C,1.600000*%
G04 #@! TD*
G04 #@! TA.AperFunction,SMDPad,CuDef*
%ADD14R,1.650000X5.600000*%
G04 #@! TD*
G04 #@! TA.AperFunction,ComponentPad*
%ADD15C,1.524000*%
G04 #@! TD*
G04 #@! TA.AperFunction,ComponentPad*
%ADD16C,3.400000*%
G04 #@! TD*
G04 #@! TA.AperFunction,ComponentPad*
%ADD17C,1.700000*%
G04 #@! TD*
G04 #@! TA.AperFunction,ComponentPad*
%ADD18C,1.800000*%
G04 #@! TD*
G04 #@! TA.AperFunction,ComponentPad*
%ADD19O,2.032000X2.032000*%
G04 #@! TD*
G04 #@! TA.AperFunction,ComponentPad*
%ADD20R,2.032000X2.032000*%
G04 #@! TD*
G04 #@! TA.AperFunction,ComponentPad*
%ADD21O,1.498600X2.197100*%
G04 #@! TD*
G04 #@! TA.AperFunction,ComponentPad*
%ADD22R,1.498600X2.197100*%
G04 #@! TD*
G04 #@! TA.AperFunction,ComponentPad*
%ADD23C,2.200000*%
G04 #@! TD*
G04 #@! TA.AperFunction,WasherPad*
%ADD24C,1.700000*%
G04 #@! TD*
G04 #@! TA.AperFunction,ViaPad*
%ADD25C,0.800000*%
G04 #@! TD*
G04 #@! TA.AperFunction,ViaPad*
%ADD26C,1.100000*%
G04 #@! TD*
G04 #@! TA.AperFunction,Conductor*
%ADD27C,0.200000*%
G04 #@! TD*
G04 #@! TA.AperFunction,Conductor*
%ADD28C,0.400000*%
G04 #@! TD*
G04 #@! TA.AperFunction,Conductor*
%ADD29C,1.000000*%
G04 #@! TD*
G04 #@! TA.AperFunction,Conductor*
%ADD30C,0.254000*%
G04 #@! TD*
G04 APERTURE END LIST*
D10*
X138678571Y-111871428D02*
X137178571Y-111871428D01*
X137750000Y-111871428D02*
X137678571Y-112014285D01*
X137678571Y-112300000D01*
X137750000Y-112442857D01*
X137821428Y-112514285D01*
X137964285Y-112585714D01*
X138392857Y-112585714D01*
X138535714Y-112514285D01*
X138607142Y-112442857D01*
X138678571Y-112300000D01*
X138678571Y-112014285D01*
X138607142Y-111871428D01*
X138678571Y-113442857D02*
X138607142Y-113300000D01*
X138535714Y-113228571D01*
X138392857Y-113157142D01*
X137964285Y-113157142D01*
X137821428Y-113228571D01*
X137750000Y-113300000D01*
X137678571Y-113442857D01*
X137678571Y-113657142D01*
X137750000Y-113800000D01*
X137821428Y-113871428D01*
X137964285Y-113942857D01*
X138392857Y-113942857D01*
X138535714Y-113871428D01*
X138607142Y-113800000D01*
X138678571Y-113657142D01*
X138678571Y-113442857D01*
X137678571Y-114371428D02*
X137678571Y-114942857D01*
X137178571Y-114585714D02*
X138464285Y-114585714D01*
X138607142Y-114657142D01*
X138678571Y-114800000D01*
X138678571Y-114942857D01*
X89771428Y-84200000D02*
X89828571Y-84142857D01*
X89942857Y-83971428D01*
X90000000Y-83857142D01*
X90057142Y-83685714D01*
X90114285Y-83400000D01*
X90114285Y-83171428D01*
X90057142Y-82885714D01*
X90000000Y-82714285D01*
X89942857Y-82600000D01*
X89828571Y-82428571D01*
X89771428Y-82371428D01*
X88800000Y-83685714D02*
X88914285Y-83742857D01*
X89142857Y-83742857D01*
X89257142Y-83685714D01*
X89314285Y-83628571D01*
X89371428Y-83514285D01*
X89371428Y-83171428D01*
X89314285Y-83057142D01*
X89257142Y-83000000D01*
X89142857Y-82942857D01*
X88914285Y-82942857D01*
X88800000Y-83000000D01*
X88400000Y-84200000D02*
X88342857Y-84142857D01*
X88228571Y-83971428D01*
X88171428Y-83857142D01*
X88114285Y-83685714D01*
X88057142Y-83400000D01*
X88057142Y-83171428D01*
X88114285Y-82885714D01*
X88171428Y-82714285D01*
X88228571Y-82600000D01*
X88342857Y-82428571D01*
X88400000Y-82371428D01*
X86628571Y-82657142D02*
X86571428Y-82600000D01*
X86457142Y-82542857D01*
X86171428Y-82542857D01*
X86057142Y-82600000D01*
X86000000Y-82657142D01*
X85942857Y-82771428D01*
X85942857Y-82885714D01*
X86000000Y-83057142D01*
X86685714Y-83742857D01*
X85942857Y-83742857D01*
X85200000Y-82542857D02*
X85085714Y-82542857D01*
X84971428Y-82600000D01*
X84914285Y-82657142D01*
X84857142Y-82771428D01*
X84800000Y-83000000D01*
X84800000Y-83285714D01*
X84857142Y-83514285D01*
X84914285Y-83628571D01*
X84971428Y-83685714D01*
X85085714Y-83742857D01*
X85200000Y-83742857D01*
X85314285Y-83685714D01*
X85371428Y-83628571D01*
X85428571Y-83514285D01*
X85485714Y-83285714D01*
X85485714Y-83000000D01*
X85428571Y-82771428D01*
X85371428Y-82657142D01*
X85314285Y-82600000D01*
X85200000Y-82542857D01*
X83657142Y-83742857D02*
X84342857Y-83742857D01*
X84000000Y-83742857D02*
X84000000Y-82542857D01*
X84114285Y-82714285D01*
X84228571Y-82828571D01*
X84342857Y-82885714D01*
X82971428Y-83057142D02*
X83085714Y-83000000D01*
X83142857Y-82942857D01*
X83200000Y-82828571D01*
X83200000Y-82771428D01*
X83142857Y-82657142D01*
X83085714Y-82600000D01*
X82971428Y-82542857D01*
X82742857Y-82542857D01*
X82628571Y-82600000D01*
X82571428Y-82657142D01*
X82514285Y-82771428D01*
X82514285Y-82828571D01*
X82571428Y-82942857D01*
X82628571Y-83000000D01*
X82742857Y-83057142D01*
X82971428Y-83057142D01*
X83085714Y-83114285D01*
X83142857Y-83171428D01*
X83200000Y-83285714D01*
X83200000Y-83514285D01*
X83142857Y-83628571D01*
X83085714Y-83685714D01*
X82971428Y-83742857D01*
X82742857Y-83742857D01*
X82628571Y-83685714D01*
X82571428Y-83628571D01*
X82514285Y-83514285D01*
X82514285Y-83285714D01*
X82571428Y-83171428D01*
X82628571Y-83114285D01*
X82742857Y-83057142D01*
X80571428Y-82942857D02*
X80571428Y-83914285D01*
X80628571Y-84028571D01*
X80685714Y-84085714D01*
X80800000Y-84142857D01*
X80971428Y-84142857D01*
X81085714Y-84085714D01*
X80571428Y-83685714D02*
X80685714Y-83742857D01*
X80914285Y-83742857D01*
X81028571Y-83685714D01*
X81085714Y-83628571D01*
X81142857Y-83514285D01*
X81142857Y-83171428D01*
X81085714Y-83057142D01*
X81028571Y-83000000D01*
X80914285Y-82942857D01*
X80685714Y-82942857D01*
X80571428Y-83000000D01*
X79542857Y-83685714D02*
X79657142Y-83742857D01*
X79885714Y-83742857D01*
X80000000Y-83685714D01*
X80057142Y-83571428D01*
X80057142Y-83114285D01*
X80000000Y-83000000D01*
X79885714Y-82942857D01*
X79657142Y-82942857D01*
X79542857Y-83000000D01*
X79485714Y-83114285D01*
X79485714Y-83228571D01*
X80057142Y-83342857D01*
X78971428Y-82942857D02*
X78971428Y-83742857D01*
X78971428Y-83057142D02*
X78914285Y-83000000D01*
X78800000Y-82942857D01*
X78628571Y-82942857D01*
X78514285Y-83000000D01*
X78457142Y-83114285D01*
X78457142Y-83742857D01*
X77428571Y-83685714D02*
X77542857Y-83742857D01*
X77771428Y-83742857D01*
X77885714Y-83685714D01*
X77942857Y-83571428D01*
X77942857Y-83114285D01*
X77885714Y-83000000D01*
X77771428Y-82942857D01*
X77542857Y-82942857D01*
X77428571Y-83000000D01*
X77371428Y-83114285D01*
X77371428Y-83228571D01*
X77942857Y-83342857D01*
X76857142Y-83742857D02*
X76857142Y-82942857D01*
X76857142Y-83171428D02*
X76800000Y-83057142D01*
X76742857Y-83000000D01*
X76628571Y-82942857D01*
X76514285Y-82942857D01*
X75600000Y-83742857D02*
X75600000Y-83114285D01*
X75657142Y-83000000D01*
X75771428Y-82942857D01*
X76000000Y-82942857D01*
X76114285Y-83000000D01*
X75600000Y-83685714D02*
X75714285Y-83742857D01*
X76000000Y-83742857D01*
X76114285Y-83685714D01*
X76171428Y-83571428D01*
X76171428Y-83457142D01*
X76114285Y-83342857D01*
X76000000Y-83285714D01*
X75714285Y-83285714D01*
X75600000Y-83228571D01*
X75200000Y-82942857D02*
X74742857Y-82942857D01*
X75028571Y-82542857D02*
X75028571Y-83571428D01*
X74971428Y-83685714D01*
X74857142Y-83742857D01*
X74742857Y-83742857D01*
X74342857Y-83742857D02*
X74342857Y-82942857D01*
X74342857Y-82542857D02*
X74400000Y-82600000D01*
X74342857Y-82657142D01*
X74285714Y-82600000D01*
X74342857Y-82542857D01*
X74342857Y-82657142D01*
X73600000Y-83742857D02*
X73714285Y-83685714D01*
X73771428Y-83628571D01*
X73828571Y-83514285D01*
X73828571Y-83171428D01*
X73771428Y-83057142D01*
X73714285Y-83000000D01*
X73600000Y-82942857D01*
X73428571Y-82942857D01*
X73314285Y-83000000D01*
X73257142Y-83057142D01*
X73200000Y-83171428D01*
X73200000Y-83514285D01*
X73257142Y-83628571D01*
X73314285Y-83685714D01*
X73428571Y-83742857D01*
X73600000Y-83742857D01*
X72685714Y-82942857D02*
X72685714Y-83742857D01*
X72685714Y-83057142D02*
X72628571Y-83000000D01*
X72514285Y-82942857D01*
X72342857Y-82942857D01*
X72228571Y-83000000D01*
X72171428Y-83114285D01*
X72171428Y-83742857D01*
X71600000Y-83742857D02*
X71600000Y-82942857D01*
X71600000Y-83057142D02*
X71542857Y-83000000D01*
X71428571Y-82942857D01*
X71257142Y-82942857D01*
X71142857Y-83000000D01*
X71085714Y-83114285D01*
X71085714Y-83742857D01*
X71085714Y-83114285D02*
X71028571Y-83000000D01*
X70914285Y-82942857D01*
X70742857Y-82942857D01*
X70628571Y-83000000D01*
X70571428Y-83114285D01*
X70571428Y-83742857D01*
X69485714Y-83742857D02*
X69485714Y-83114285D01*
X69542857Y-83000000D01*
X69657142Y-82942857D01*
X69885714Y-82942857D01*
X70000000Y-83000000D01*
X69485714Y-83685714D02*
X69600000Y-83742857D01*
X69885714Y-83742857D01*
X70000000Y-83685714D01*
X70057142Y-83571428D01*
X70057142Y-83457142D01*
X70000000Y-83342857D01*
X69885714Y-83285714D01*
X69600000Y-83285714D01*
X69485714Y-83228571D01*
X68914285Y-83742857D02*
X68914285Y-82542857D01*
X68800000Y-83285714D02*
X68457142Y-83742857D01*
X68457142Y-82942857D02*
X68914285Y-83400000D01*
X67485714Y-83685714D02*
X67600000Y-83742857D01*
X67828571Y-83742857D01*
X67942857Y-83685714D01*
X68000000Y-83571428D01*
X68000000Y-83114285D01*
X67942857Y-83000000D01*
X67828571Y-82942857D01*
X67600000Y-82942857D01*
X67485714Y-83000000D01*
X67428571Y-83114285D01*
X67428571Y-83228571D01*
X68000000Y-83342857D01*
D11*
G04 #@! TO.P,CN5,3*
G04 #@! TO.N,Net-(CN5-Pad3)*
X56700000Y-105080000D03*
G04 #@! TO.P,CN5,2*
G04 #@! TO.N,+5V*
X56700000Y-102540000D03*
D12*
G04 #@! TO.P,CN5,1*
G04 #@! TO.N,GND*
X56700000Y-100000000D03*
G04 #@! TD*
D13*
G04 #@! TO.P,CN2,0*
G04 #@! TO.N,/RXD*
X118200000Y-79200000D03*
G04 #@! TO.P,CN2,8*
G04 #@! TO.N,/KEYPAD_8*
X96356000Y-79200000D03*
G04 #@! TO.P,CN2,9*
G04 #@! TO.N,/KEYPAD_9*
X93816000Y-79200000D03*
G04 #@! TO.P,CN2,10*
G04 #@! TO.N,/KEYPAD_10*
X91276000Y-79200000D03*
G04 #@! TO.P,CN2,11*
G04 #@! TO.N,/PTT_Q_1*
X88736000Y-79200000D03*
G04 #@! TO.P,CN2,12*
G04 #@! TO.N,/PD_Q_1*
X86196000Y-79200000D03*
G04 #@! TO.P,CN2,13*
G04 #@! TO.N,Net-(CN2-Pad13)*
X83656000Y-79200000D03*
G04 #@! TO.P,CN2,14*
G04 #@! TO.N,GND*
X81116000Y-79200000D03*
G04 #@! TO.P,CN2,15*
G04 #@! TO.N,Net-(CN2-Pad15)*
X78576000Y-79200000D03*
G04 #@! TO.P,CN2,16*
G04 #@! TO.N,Net-(CN2-Pad16)*
X76036000Y-79200000D03*
G04 #@! TO.P,CN2,17*
G04 #@! TO.N,Net-(CN2-Pad17)*
X73496000Y-79200000D03*
G04 #@! TO.P,CN2,1*
G04 #@! TO.N,/TXD*
X115660000Y-79200000D03*
G04 #@! TO.P,CN2,2*
G04 #@! TO.N,/SQ_R*
X113120000Y-79200000D03*
G04 #@! TO.P,CN2,3*
G04 #@! TO.N,/MIC_IN_R*
X110580000Y-79200000D03*
G04 #@! TO.P,CN2,4*
G04 #@! TO.N,/KEYPAD_4*
X108040000Y-79200000D03*
G04 #@! TO.P,CN2,5*
G04 #@! TO.N,/KEYPAD_5*
X105500000Y-79200000D03*
G04 #@! TO.P,CN2,6*
G04 #@! TO.N,/PTT_Q_2*
X102960000Y-79200000D03*
G04 #@! TO.P,CN2,7*
G04 #@! TO.N,/PD_Q_2*
X100420000Y-79200000D03*
G04 #@! TO.P,CN2,24*
G04 #@! TO.N,VIN*
X100420000Y-127460000D03*
G04 #@! TO.P,CN2,25*
G04 #@! TO.N,GND*
X97880000Y-127460000D03*
G04 #@! TO.P,CN2,26*
X95340000Y-127460000D03*
G04 #@! TO.P,CN2,27*
G04 #@! TO.N,+5V*
X92800000Y-127460000D03*
G04 #@! TO.P,CN2,28*
G04 #@! TO.N,Net-(CN2-Pad28)*
X90260000Y-127460000D03*
G04 #@! TO.P,CN2,29*
G04 #@! TO.N,Net-(CN2-Pad29)*
X87720000Y-127460000D03*
G04 #@! TO.P,CN2,30*
G04 #@! TO.N,VIO*
X85180000Y-127460000D03*
G04 #@! TO.P,CN2,31*
G04 #@! TO.N,Net-(CN2-Pad31)*
X82640000Y-127460000D03*
G04 #@! TO.P,CN2,18*
G04 #@! TO.N,/ENC_SW*
X118200000Y-127460000D03*
G04 #@! TO.P,CN2,19*
G04 #@! TO.N,/ENC_B*
X115660000Y-127460000D03*
G04 #@! TO.P,CN2,20*
G04 #@! TO.N,/ENC_A*
X113120000Y-127460000D03*
G04 #@! TO.P,CN2,21*
G04 #@! TO.N,/AF_OUT_R*
X110580000Y-127460000D03*
G04 #@! TO.P,CN2,22*
G04 #@! TO.N,/GPS_RX*
X108040000Y-127460000D03*
G04 #@! TO.P,CN2,23*
G04 #@! TO.N,/KEYPAD_A0*
X105500000Y-127460000D03*
G04 #@! TD*
D14*
G04 #@! TO.P,CN1,5*
G04 #@! TO.N,GND*
X57175000Y-79800000D03*
G04 #@! TO.P,CN1,4*
X65425000Y-79800000D03*
G04 #@! TD*
D15*
G04 #@! TO.P,SW2,A*
G04 #@! TO.N,/ENC_A*
X123500000Y-119300000D03*
G04 #@! TO.P,SW2,C*
G04 #@! TO.N,GND*
X123500000Y-121800000D03*
G04 #@! TO.P,SW2,E*
G04 #@! TO.N,/ENC_SW*
X138000000Y-124300000D03*
G04 #@! TO.P,SW2,B*
G04 #@! TO.N,/ENC_B*
X123500000Y-124300000D03*
G04 #@! TO.P,SW2,D*
G04 #@! TO.N,GND*
X138000000Y-119300000D03*
D16*
G04 #@! TO.P,SW2,0*
G04 #@! TO.N,N/C*
X131000000Y-115600000D03*
X131000000Y-128000000D03*
G04 #@! TD*
D17*
G04 #@! TO.P,CN4,1*
G04 #@! TO.N,GND*
X137800000Y-104950000D03*
G04 #@! TO.P,CN4,2*
X136500000Y-108650000D03*
G04 #@! TO.P,CN4,3*
G04 #@! TO.N,/SPKR*
X131800000Y-104950000D03*
G04 #@! TD*
D13*
G04 #@! TO.P,SW1,3*
G04 #@! TO.N,/PTT*
X126750000Y-80600000D03*
G04 #@! TO.P,SW1,2*
G04 #@! TO.N,GND*
X131250000Y-80600000D03*
D18*
G04 #@! TO.P,SW1,1*
X132500000Y-83100000D03*
G04 #@! TO.P,SW1,4*
X125500000Y-83100000D03*
G04 #@! TD*
D19*
G04 #@! TO.P,CN6,2*
G04 #@! TO.N,Net-(C12-Pad1)*
X116700000Y-98760000D03*
D20*
G04 #@! TO.P,CN6,1*
G04 #@! TO.N,Net-(C15-Pad1)*
X116700000Y-101300000D03*
G04 #@! TD*
D21*
G04 #@! TO.P,S1,2*
G04 #@! TO.N,/RXD*
X122400000Y-79190000D03*
D22*
G04 #@! TO.P,S1,1*
G04 #@! TO.N,/RXD_S*
X122400000Y-86810000D03*
G04 #@! TD*
D23*
G04 #@! TO.P,CN3,3*
G04 #@! TO.N,Net-(CN3-Pad3)*
X135500000Y-98300000D03*
X135500000Y-91700000D03*
G04 #@! TO.P,CN3,1*
G04 #@! TO.N,/PTT*
X128000000Y-93100000D03*
G04 #@! TO.P,CN3,2*
G04 #@! TO.N,/MIC*
X128000000Y-96900000D03*
D24*
G04 #@! TO.P,CN3,*
G04 #@! TO.N,*
X132000000Y-92500000D03*
X132000000Y-97500000D03*
G04 #@! TD*
D23*
G04 #@! TO.P,CN7,2*
G04 #@! TO.N,GND*
X63505000Y-122100000D03*
G04 #@! TO.P,CN7,1*
G04 #@! TO.N,VIN*
X59695000Y-122100000D03*
G04 #@! TD*
D25*
G04 #@! TO.N,GND*
X113950000Y-96150000D03*
X121100000Y-97300000D03*
X109100000Y-91300000D03*
X112200000Y-125700000D03*
X68600000Y-85700000D03*
X56500000Y-92100000D03*
D26*
X57300000Y-85200000D03*
X65500000Y-85100000D03*
D25*
X106800000Y-80400000D03*
X114000000Y-89900000D03*
X103100000Y-114900000D03*
X118800000Y-87300000D03*
X118900000Y-90700000D03*
X97400000Y-102900000D03*
X79700000Y-121100000D03*
X97300000Y-119200000D03*
X105500000Y-119400000D03*
X107800000Y-122700000D03*
X103000000Y-127900000D03*
X97400000Y-111100000D03*
X102200000Y-103400000D03*
X66100000Y-97900000D03*
X69100000Y-89600000D03*
X62200000Y-92800000D03*
X66100000Y-104300000D03*
X66000000Y-110600000D03*
X120600000Y-86100000D03*
X138000000Y-128700000D03*
X56000000Y-128900000D03*
X100700000Y-86700000D03*
X100600000Y-90800000D03*
X95500000Y-91900000D03*
G04 #@! TO.N,/MIC_IN*
X97700000Y-90400020D03*
X97800000Y-87400000D03*
G04 #@! TO.N,VCC*
X111000000Y-108000000D03*
X113000000Y-106000000D03*
X113000000Y-108000000D03*
X113000000Y-110000000D03*
X109000000Y-110000000D03*
X109000000Y-112000000D03*
X111000000Y-112000000D03*
X115000000Y-112000000D03*
X115000000Y-110000000D03*
X115000000Y-108000000D03*
X115000000Y-106000000D03*
X115000000Y-104000000D03*
X113000000Y-104000000D03*
X111000000Y-106000000D03*
X109000000Y-106000000D03*
X105000000Y-106000000D03*
X105000000Y-108000000D03*
X105000000Y-110000000D03*
X105000000Y-112000000D03*
X107000000Y-112000000D03*
X107000000Y-110000000D03*
X107000000Y-108000000D03*
X107000000Y-106000000D03*
X109000000Y-104000000D03*
X107000000Y-104000000D03*
X105000000Y-104000000D03*
X109000000Y-108000000D03*
X111000000Y-110000000D03*
X113000000Y-112000000D03*
X111368500Y-96431500D03*
X111000000Y-104000000D03*
G04 #@! TO.N,/GPS_RX*
X69400000Y-123100000D03*
X55927012Y-110746130D03*
G04 #@! TO.N,/AF_OUT_R*
X100600000Y-120200000D03*
G04 #@! TO.N,+5V*
X72400000Y-125700000D03*
G04 #@! TO.N,/SQ_R*
X115000000Y-82900000D03*
G04 #@! TO.N,/PD*
X82000000Y-86500000D03*
X72700000Y-119900000D03*
G04 #@! TO.N,/PTT*
X89200000Y-86600000D03*
X76100000Y-120700000D03*
G04 #@! TO.N,/MIC*
X110400000Y-85300000D03*
G04 #@! TO.N,VIO*
X117000000Y-111800000D03*
X105700000Y-94900000D03*
X109500000Y-88200000D03*
X112700000Y-88200000D03*
G04 #@! TO.N,+3V3*
X99000000Y-88300000D03*
X100400000Y-92900000D03*
X122400000Y-89200000D03*
X78500000Y-120500000D03*
G04 #@! TO.N,/TRANSMIT*
X86800000Y-120500000D03*
X125200000Y-88600000D03*
G04 #@! TD*
D27*
G04 #@! TO.N,GND*
X113950000Y-96150000D02*
X113900000Y-96100000D01*
X95600000Y-89200000D02*
X95700000Y-89200000D01*
D28*
X65400000Y-85200000D02*
X57300000Y-85200000D01*
X65500000Y-85100000D02*
X65400000Y-85200000D01*
D27*
X81116000Y-80331370D02*
X81116000Y-79200000D01*
X81184630Y-80400000D02*
X81116000Y-80331370D01*
X106800000Y-80400000D02*
X81184630Y-80400000D01*
X114000000Y-96100000D02*
X113950000Y-96150000D01*
X114000000Y-89900000D02*
X114000000Y-96100000D01*
X112200000Y-124000000D02*
X112200000Y-125700000D01*
X118800000Y-90600000D02*
X118900000Y-90700000D01*
X79700000Y-121100000D02*
X97400000Y-103400000D01*
X97400000Y-103400000D02*
X97400000Y-102900000D01*
G04 #@! TO.N,/MIC_IN*
X97700000Y-90400020D02*
X97700000Y-87500000D01*
X97700000Y-87500000D02*
X97800000Y-87400000D01*
D29*
G04 #@! TO.N,VCC*
X111000000Y-96800000D02*
X111368500Y-96431500D01*
X111000000Y-104000000D02*
X111000000Y-96800000D01*
D27*
G04 #@! TO.N,/GPS_RX*
X106400000Y-129100000D02*
X108040000Y-127460000D01*
X82200000Y-129100000D02*
X74100000Y-129100000D01*
X82200000Y-129100000D02*
X106400000Y-129100000D01*
X74100000Y-129100000D02*
X68200000Y-123200000D01*
X69400000Y-123100000D02*
X68300000Y-123100000D01*
X68300000Y-123100000D02*
X68200000Y-123200000D01*
X68200000Y-123200000D02*
X68100000Y-123200000D01*
X68100000Y-123200000D02*
X65000000Y-126300000D01*
X56600000Y-126300000D02*
X55300000Y-125000000D01*
X65000000Y-126300000D02*
X56600000Y-126300000D01*
X55300000Y-125000000D02*
X55300000Y-111500000D01*
X55300000Y-111500000D02*
X55927012Y-110872988D01*
X55927012Y-110872988D02*
X55927012Y-110746130D01*
G04 #@! TO.N,/AF_OUT_R*
X101545685Y-120580000D02*
X103700000Y-120580000D01*
X101165685Y-120200000D02*
X101545685Y-120580000D01*
X100600000Y-120200000D02*
X101165685Y-120200000D01*
X103700000Y-120580000D02*
X110580000Y-127460000D01*
D28*
G04 #@! TO.N,+5V*
X69784001Y-122299999D02*
X68000001Y-122299999D01*
X72400000Y-125700000D02*
X72400000Y-124915998D01*
X72400000Y-124915998D02*
X69784001Y-122299999D01*
X68000001Y-122299999D02*
X64800000Y-125500000D01*
X64800000Y-125500000D02*
X56800000Y-125500000D01*
X56800000Y-125500000D02*
X55900000Y-124600000D01*
X55900000Y-124600000D02*
X55900000Y-111957144D01*
X56727013Y-111130131D02*
X56727013Y-110127013D01*
X55900000Y-111957144D02*
X56727013Y-111130131D01*
X56547600Y-102540000D02*
X56700000Y-102540000D01*
X55283990Y-108683990D02*
X55283990Y-103803610D01*
X55283990Y-103803610D02*
X56547600Y-102540000D01*
X56727013Y-110127013D02*
X55283990Y-108683990D01*
D27*
G04 #@! TO.N,/SQ_R*
X113120000Y-81020000D02*
X115000000Y-82900000D01*
X113120000Y-79200000D02*
X113120000Y-81020000D01*
G04 #@! TO.N,/PD*
X74100000Y-117934315D02*
X74100000Y-94400000D01*
X72700000Y-119900000D02*
X72700000Y-119334315D01*
X82000000Y-86500000D02*
X74100000Y-94400000D01*
X72700000Y-119334315D02*
X74100000Y-117934315D01*
G04 #@! TO.N,/PTT*
X126750000Y-80600000D02*
X126750000Y-84050000D01*
X126750000Y-84050000D02*
X126400000Y-84400000D01*
X126750000Y-80600000D02*
X126750000Y-80850000D01*
X117000000Y-84400000D02*
X126400000Y-84400000D01*
X94599996Y-86600000D02*
X89200000Y-86600000D01*
X89200000Y-86600000D02*
X77200000Y-98600000D01*
X94900000Y-86299996D02*
X94599996Y-86600000D01*
X96799996Y-84400000D02*
X94900000Y-86299996D01*
X110400000Y-84400000D02*
X96799996Y-84400000D01*
X117000000Y-84400000D02*
X110400000Y-84400000D01*
X128000000Y-86000000D02*
X126400000Y-84400000D01*
X128000000Y-93100000D02*
X128000000Y-86000000D01*
X76100000Y-115600000D02*
X77200000Y-114500000D01*
X76100000Y-120700000D02*
X76100000Y-115600000D01*
X77200000Y-114500000D02*
X77200000Y-98600000D01*
G04 #@! TO.N,/MIC*
X111165685Y-85100000D02*
X110965685Y-85300000D01*
X126300000Y-95200000D02*
X126300000Y-92200000D01*
X110965685Y-85300000D02*
X110400000Y-85300000D01*
X127400000Y-91100000D02*
X127400000Y-86200000D01*
X126300000Y-85100000D02*
X111165685Y-85100000D01*
X126300000Y-92200000D02*
X127400000Y-91100000D01*
X128000000Y-96900000D02*
X126300000Y-95200000D01*
X127400000Y-86200000D02*
X126300000Y-85100000D01*
D28*
G04 #@! TO.N,VIO*
X85180000Y-127460000D02*
X85180000Y-126620000D01*
X85180000Y-126620000D02*
X85900000Y-125900000D01*
D27*
X85180000Y-126620000D02*
X85900000Y-125900000D01*
X104934315Y-95100000D02*
X104800000Y-95100000D01*
X105134315Y-94900000D02*
X104934315Y-95100000D01*
X105700000Y-94900000D02*
X105134315Y-94900000D01*
D28*
X104800000Y-95700000D02*
X104800000Y-92315998D01*
X104800000Y-95700000D02*
X104800000Y-95100000D01*
X108915998Y-88200000D02*
X108615998Y-88500000D01*
X109500000Y-88200000D02*
X108915998Y-88200000D01*
X104800000Y-92315998D02*
X108615998Y-88500000D01*
X110100000Y-88200000D02*
X112700000Y-88200000D01*
X109500000Y-88200000D02*
X110100000Y-88200000D01*
D27*
X101300000Y-116100000D02*
X101300000Y-115500000D01*
X101300000Y-117900000D02*
X101300000Y-116100000D01*
D28*
X101300000Y-117900000D02*
X114700000Y-117900000D01*
X117000000Y-115600000D02*
X117000000Y-111800000D01*
X114700000Y-117900000D02*
X117000000Y-115600000D01*
X101300000Y-115500000D02*
X101300000Y-117900000D01*
X101300000Y-117900000D02*
X99800000Y-117900000D01*
X99800000Y-117900000D02*
X91800000Y-125900000D01*
X85900000Y-125900000D02*
X90700000Y-125900000D01*
X91800000Y-125900000D02*
X90700000Y-125900000D01*
X104800000Y-96500000D02*
X104800000Y-95700000D01*
X104800000Y-96907120D02*
X104800000Y-96500000D01*
X101300000Y-100407120D02*
X104800000Y-96907120D01*
X101300000Y-116100000D02*
X101300000Y-100407120D01*
D27*
G04 #@! TO.N,+3V3*
X99000000Y-88300000D02*
X99000000Y-93000000D01*
D28*
X99100000Y-92900000D02*
X99000000Y-93000000D01*
X100400000Y-92900000D02*
X99100000Y-92900000D01*
X99000000Y-88300000D02*
X99000000Y-97200000D01*
X78500000Y-117700000D02*
X78500000Y-120500000D01*
X99000000Y-97200000D02*
X78500000Y-117700000D01*
X106400000Y-88300000D02*
X99000000Y-88300000D01*
X107700000Y-87000000D02*
X106400000Y-88300000D01*
X118100000Y-89200000D02*
X115900000Y-87000000D01*
X115900000Y-87000000D02*
X107700000Y-87000000D01*
X122400000Y-89200000D02*
X118100000Y-89200000D01*
D27*
G04 #@! TO.N,/TRANSMIT*
X104000000Y-97000000D02*
X100400000Y-100600000D01*
X104000000Y-92408878D02*
X104000000Y-97000000D01*
X108908878Y-87500000D02*
X104000000Y-92408878D01*
X125200000Y-88600000D02*
X123900000Y-89900000D01*
X121900000Y-89900000D02*
X121800001Y-89800001D01*
X100400000Y-104500000D02*
X86800000Y-118100000D01*
X123900000Y-89900000D02*
X121900000Y-89900000D01*
X121800001Y-89800001D02*
X117100001Y-89800001D01*
X86800000Y-118100000D02*
X86800000Y-120500000D01*
X117100001Y-89800001D02*
X114800000Y-87500000D01*
X100400000Y-100600000D02*
X100400000Y-104500000D01*
X114800000Y-87500000D02*
X108908878Y-87500000D01*
G04 #@! TD*
D30*
G04 #@! TO.N,GND*
G36*
X68232190Y-78058878D02*
X67925500Y-78799291D01*
X67925500Y-79600709D01*
X68232190Y-80341122D01*
X68798878Y-80907810D01*
X69539291Y-81214500D01*
X70340709Y-81214500D01*
X71081122Y-80907810D01*
X71647810Y-80341122D01*
X71954500Y-79600709D01*
X71954500Y-78955935D01*
X72269000Y-78955935D01*
X72269000Y-79444065D01*
X72455800Y-79895039D01*
X72800961Y-80240200D01*
X73251935Y-80427000D01*
X73740065Y-80427000D01*
X74191039Y-80240200D01*
X74536200Y-79895039D01*
X74723000Y-79444065D01*
X74723000Y-78955935D01*
X74809000Y-78955935D01*
X74809000Y-79444065D01*
X74995800Y-79895039D01*
X75340961Y-80240200D01*
X75791935Y-80427000D01*
X76280065Y-80427000D01*
X76731039Y-80240200D01*
X77076200Y-79895039D01*
X77263000Y-79444065D01*
X77263000Y-78955935D01*
X77349000Y-78955935D01*
X77349000Y-79444065D01*
X77535800Y-79895039D01*
X77880961Y-80240200D01*
X78331935Y-80427000D01*
X78820065Y-80427000D01*
X79271039Y-80240200D01*
X79616200Y-79895039D01*
X79803000Y-79444065D01*
X79803000Y-78955935D01*
X82429000Y-78955935D01*
X82429000Y-79444065D01*
X82615800Y-79895039D01*
X82960961Y-80240200D01*
X83411935Y-80427000D01*
X83900065Y-80427000D01*
X84351039Y-80240200D01*
X84696200Y-79895039D01*
X84883000Y-79444065D01*
X84883000Y-78955935D01*
X84969000Y-78955935D01*
X84969000Y-79444065D01*
X85155800Y-79895039D01*
X85500961Y-80240200D01*
X85951935Y-80427000D01*
X86440065Y-80427000D01*
X86891039Y-80240200D01*
X87236200Y-79895039D01*
X87423000Y-79444065D01*
X87423000Y-78955935D01*
X87509000Y-78955935D01*
X87509000Y-79444065D01*
X87695800Y-79895039D01*
X88040961Y-80240200D01*
X88491935Y-80427000D01*
X88980065Y-80427000D01*
X89431039Y-80240200D01*
X89776200Y-79895039D01*
X89963000Y-79444065D01*
X89963000Y-78955935D01*
X90049000Y-78955935D01*
X90049000Y-79444065D01*
X90235800Y-79895039D01*
X90580961Y-80240200D01*
X91031935Y-80427000D01*
X91520065Y-80427000D01*
X91971039Y-80240200D01*
X92316200Y-79895039D01*
X92503000Y-79444065D01*
X92503000Y-78955935D01*
X92589000Y-78955935D01*
X92589000Y-79444065D01*
X92775800Y-79895039D01*
X93120961Y-80240200D01*
X93571935Y-80427000D01*
X94060065Y-80427000D01*
X94511039Y-80240200D01*
X94856200Y-79895039D01*
X95043000Y-79444065D01*
X95043000Y-78955935D01*
X95129000Y-78955935D01*
X95129000Y-79444065D01*
X95315800Y-79895039D01*
X95660961Y-80240200D01*
X96111935Y-80427000D01*
X96600065Y-80427000D01*
X97051039Y-80240200D01*
X97396200Y-79895039D01*
X97583000Y-79444065D01*
X97583000Y-78955935D01*
X99193000Y-78955935D01*
X99193000Y-79444065D01*
X99379800Y-79895039D01*
X99724961Y-80240200D01*
X100175935Y-80427000D01*
X100664065Y-80427000D01*
X101115039Y-80240200D01*
X101460200Y-79895039D01*
X101647000Y-79444065D01*
X101647000Y-78955935D01*
X101733000Y-78955935D01*
X101733000Y-79444065D01*
X101919800Y-79895039D01*
X102264961Y-80240200D01*
X102715935Y-80427000D01*
X103204065Y-80427000D01*
X103655039Y-80240200D01*
X104000200Y-79895039D01*
X104187000Y-79444065D01*
X104187000Y-78955935D01*
X104273000Y-78955935D01*
X104273000Y-79444065D01*
X104459800Y-79895039D01*
X104804961Y-80240200D01*
X105255935Y-80427000D01*
X105744065Y-80427000D01*
X106195039Y-80240200D01*
X106540200Y-79895039D01*
X106727000Y-79444065D01*
X106727000Y-78955935D01*
X106813000Y-78955935D01*
X106813000Y-79444065D01*
X106999800Y-79895039D01*
X107344961Y-80240200D01*
X107795935Y-80427000D01*
X108284065Y-80427000D01*
X108735039Y-80240200D01*
X109080200Y-79895039D01*
X109267000Y-79444065D01*
X109267000Y-78955935D01*
X109353000Y-78955935D01*
X109353000Y-79444065D01*
X109539800Y-79895039D01*
X109884961Y-80240200D01*
X110335935Y-80427000D01*
X110824065Y-80427000D01*
X111275039Y-80240200D01*
X111620200Y-79895039D01*
X111807000Y-79444065D01*
X111807000Y-78955935D01*
X111893000Y-78955935D01*
X111893000Y-79444065D01*
X112079800Y-79895039D01*
X112424961Y-80240200D01*
X112593001Y-80309804D01*
X112593001Y-80968098D01*
X112582677Y-81020000D01*
X112623578Y-81225625D01*
X112710654Y-81355944D01*
X112710658Y-81355948D01*
X112740056Y-81399945D01*
X112784053Y-81429343D01*
X114173000Y-82818290D01*
X114173000Y-83064501D01*
X114298903Y-83368458D01*
X114531542Y-83601097D01*
X114835499Y-83727000D01*
X115164501Y-83727000D01*
X115468458Y-83601097D01*
X115701097Y-83368458D01*
X115827000Y-83064501D01*
X115827000Y-82735499D01*
X115701097Y-82431542D01*
X115468458Y-82198903D01*
X115164501Y-82073000D01*
X114918290Y-82073000D01*
X113647000Y-80801710D01*
X113647000Y-80309804D01*
X113815039Y-80240200D01*
X114160200Y-79895039D01*
X114347000Y-79444065D01*
X114347000Y-78955935D01*
X114433000Y-78955935D01*
X114433000Y-79444065D01*
X114619800Y-79895039D01*
X114964961Y-80240200D01*
X115415935Y-80427000D01*
X115904065Y-80427000D01*
X116355039Y-80240200D01*
X116700200Y-79895039D01*
X116887000Y-79444065D01*
X116887000Y-78955935D01*
X116973000Y-78955935D01*
X116973000Y-79444065D01*
X117159800Y-79895039D01*
X117504961Y-80240200D01*
X117955935Y-80427000D01*
X118444065Y-80427000D01*
X118895039Y-80240200D01*
X119240200Y-79895039D01*
X119427000Y-79444065D01*
X119427000Y-78955935D01*
X119331301Y-78724896D01*
X121223700Y-78724896D01*
X121223700Y-79655105D01*
X121291950Y-79998219D01*
X121551936Y-80387315D01*
X121941032Y-80647300D01*
X122400000Y-80738595D01*
X122858969Y-80647300D01*
X123248065Y-80387315D01*
X123508050Y-79998219D01*
X123576300Y-79655104D01*
X123576300Y-78724895D01*
X123508050Y-78381781D01*
X123248065Y-77992685D01*
X122858968Y-77732700D01*
X122400000Y-77641405D01*
X121941031Y-77732700D01*
X121551935Y-77992685D01*
X121291950Y-78381782D01*
X121223700Y-78724896D01*
X119331301Y-78724896D01*
X119240200Y-78504961D01*
X118895039Y-78159800D01*
X118444065Y-77973000D01*
X117955935Y-77973000D01*
X117504961Y-78159800D01*
X117159800Y-78504961D01*
X116973000Y-78955935D01*
X116887000Y-78955935D01*
X116700200Y-78504961D01*
X116355039Y-78159800D01*
X115904065Y-77973000D01*
X115415935Y-77973000D01*
X114964961Y-78159800D01*
X114619800Y-78504961D01*
X114433000Y-78955935D01*
X114347000Y-78955935D01*
X114160200Y-78504961D01*
X113815039Y-78159800D01*
X113364065Y-77973000D01*
X112875935Y-77973000D01*
X112424961Y-78159800D01*
X112079800Y-78504961D01*
X111893000Y-78955935D01*
X111807000Y-78955935D01*
X111620200Y-78504961D01*
X111275039Y-78159800D01*
X110824065Y-77973000D01*
X110335935Y-77973000D01*
X109884961Y-78159800D01*
X109539800Y-78504961D01*
X109353000Y-78955935D01*
X109267000Y-78955935D01*
X109080200Y-78504961D01*
X108735039Y-78159800D01*
X108284065Y-77973000D01*
X107795935Y-77973000D01*
X107344961Y-78159800D01*
X106999800Y-78504961D01*
X106813000Y-78955935D01*
X106727000Y-78955935D01*
X106540200Y-78504961D01*
X106195039Y-78159800D01*
X105744065Y-77973000D01*
X105255935Y-77973000D01*
X104804961Y-78159800D01*
X104459800Y-78504961D01*
X104273000Y-78955935D01*
X104187000Y-78955935D01*
X104000200Y-78504961D01*
X103655039Y-78159800D01*
X103204065Y-77973000D01*
X102715935Y-77973000D01*
X102264961Y-78159800D01*
X101919800Y-78504961D01*
X101733000Y-78955935D01*
X101647000Y-78955935D01*
X101460200Y-78504961D01*
X101115039Y-78159800D01*
X100664065Y-77973000D01*
X100175935Y-77973000D01*
X99724961Y-78159800D01*
X99379800Y-78504961D01*
X99193000Y-78955935D01*
X97583000Y-78955935D01*
X97396200Y-78504961D01*
X97051039Y-78159800D01*
X96600065Y-77973000D01*
X96111935Y-77973000D01*
X95660961Y-78159800D01*
X95315800Y-78504961D01*
X95129000Y-78955935D01*
X95043000Y-78955935D01*
X94856200Y-78504961D01*
X94511039Y-78159800D01*
X94060065Y-77973000D01*
X93571935Y-77973000D01*
X93120961Y-78159800D01*
X92775800Y-78504961D01*
X92589000Y-78955935D01*
X92503000Y-78955935D01*
X92316200Y-78504961D01*
X91971039Y-78159800D01*
X91520065Y-77973000D01*
X91031935Y-77973000D01*
X90580961Y-78159800D01*
X90235800Y-78504961D01*
X90049000Y-78955935D01*
X89963000Y-78955935D01*
X89776200Y-78504961D01*
X89431039Y-78159800D01*
X88980065Y-77973000D01*
X88491935Y-77973000D01*
X88040961Y-78159800D01*
X87695800Y-78504961D01*
X87509000Y-78955935D01*
X87423000Y-78955935D01*
X87236200Y-78504961D01*
X86891039Y-78159800D01*
X86440065Y-77973000D01*
X85951935Y-77973000D01*
X85500961Y-78159800D01*
X85155800Y-78504961D01*
X84969000Y-78955935D01*
X84883000Y-78955935D01*
X84696200Y-78504961D01*
X84351039Y-78159800D01*
X83900065Y-77973000D01*
X83411935Y-77973000D01*
X82960961Y-78159800D01*
X82615800Y-78504961D01*
X82429000Y-78955935D01*
X79803000Y-78955935D01*
X79616200Y-78504961D01*
X79271039Y-78159800D01*
X78820065Y-77973000D01*
X78331935Y-77973000D01*
X77880961Y-78159800D01*
X77535800Y-78504961D01*
X77349000Y-78955935D01*
X77263000Y-78955935D01*
X77076200Y-78504961D01*
X76731039Y-78159800D01*
X76280065Y-77973000D01*
X75791935Y-77973000D01*
X75340961Y-78159800D01*
X74995800Y-78504961D01*
X74809000Y-78955935D01*
X74723000Y-78955935D01*
X74536200Y-78504961D01*
X74191039Y-78159800D01*
X73740065Y-77973000D01*
X73251935Y-77973000D01*
X72800961Y-78159800D01*
X72455800Y-78504961D01*
X72269000Y-78955935D01*
X71954500Y-78955935D01*
X71954500Y-78799291D01*
X71647810Y-78058878D01*
X71090932Y-77502000D01*
X138998001Y-77502000D01*
X138998000Y-110937285D01*
X136418000Y-110937285D01*
X136418000Y-115662714D01*
X138998000Y-115662714D01*
X138998000Y-123616500D01*
X138673514Y-123292014D01*
X138236507Y-123111000D01*
X137763493Y-123111000D01*
X137326486Y-123292014D01*
X136992014Y-123626486D01*
X136811000Y-124063493D01*
X136811000Y-124536507D01*
X136992014Y-124973514D01*
X137326486Y-125307986D01*
X137763493Y-125489000D01*
X138236507Y-125489000D01*
X138673514Y-125307986D01*
X138998000Y-124983500D01*
X138998000Y-129498000D01*
X132510031Y-129498000D01*
X132803183Y-129204848D01*
X133127000Y-128423087D01*
X133127000Y-127576913D01*
X132803183Y-126795152D01*
X132204848Y-126196817D01*
X131423087Y-125873000D01*
X130576913Y-125873000D01*
X129795152Y-126196817D01*
X129196817Y-126795152D01*
X128873000Y-127576913D01*
X128873000Y-128423087D01*
X129196817Y-129204848D01*
X129489969Y-129498000D01*
X106752924Y-129498000D01*
X106779945Y-129479945D01*
X106809345Y-129435945D01*
X107627895Y-128617395D01*
X107795935Y-128687000D01*
X108284065Y-128687000D01*
X108735039Y-128500200D01*
X109080200Y-128155039D01*
X109267000Y-127704065D01*
X109267000Y-127215935D01*
X109080200Y-126764961D01*
X108735039Y-126419800D01*
X108284065Y-126233000D01*
X107795935Y-126233000D01*
X107344961Y-126419800D01*
X106999800Y-126764961D01*
X106813000Y-127215935D01*
X106813000Y-127704065D01*
X106882605Y-127872105D01*
X106181710Y-128573000D01*
X106019285Y-128573000D01*
X106195039Y-128500200D01*
X106540200Y-128155039D01*
X106727000Y-127704065D01*
X106727000Y-127215935D01*
X106540200Y-126764961D01*
X106195039Y-126419800D01*
X105744065Y-126233000D01*
X105255935Y-126233000D01*
X104804961Y-126419800D01*
X104459800Y-126764961D01*
X104273000Y-127215935D01*
X104273000Y-127704065D01*
X104459800Y-128155039D01*
X104804961Y-128500200D01*
X104980715Y-128573000D01*
X100939285Y-128573000D01*
X101115039Y-128500200D01*
X101460200Y-128155039D01*
X101647000Y-127704065D01*
X101647000Y-127215935D01*
X101460200Y-126764961D01*
X101115039Y-126419800D01*
X100664065Y-126233000D01*
X100175935Y-126233000D01*
X99724961Y-126419800D01*
X99379800Y-126764961D01*
X99193000Y-127215935D01*
X99193000Y-127704065D01*
X99379800Y-128155039D01*
X99724961Y-128500200D01*
X99900715Y-128573000D01*
X93319285Y-128573000D01*
X93495039Y-128500200D01*
X93840200Y-128155039D01*
X94027000Y-127704065D01*
X94027000Y-127215935D01*
X93840200Y-126764961D01*
X93495039Y-126419800D01*
X93044065Y-126233000D01*
X92555935Y-126233000D01*
X92225123Y-126370027D01*
X92252041Y-126352041D01*
X92287021Y-126299691D01*
X98551213Y-120035499D01*
X99773000Y-120035499D01*
X99773000Y-120364501D01*
X99898903Y-120668458D01*
X100131542Y-120901097D01*
X100435499Y-121027000D01*
X100764501Y-121027000D01*
X101068458Y-120901097D01*
X101094975Y-120874580D01*
X101136341Y-120915947D01*
X101165740Y-120959945D01*
X101209737Y-120989343D01*
X101209740Y-120989346D01*
X101303847Y-121052226D01*
X101340060Y-121076423D01*
X101493782Y-121107000D01*
X101493786Y-121107000D01*
X101545684Y-121117323D01*
X101597582Y-121107000D01*
X103481710Y-121107000D01*
X109422604Y-127047895D01*
X109353000Y-127215935D01*
X109353000Y-127704065D01*
X109539800Y-128155039D01*
X109884961Y-128500200D01*
X110335935Y-128687000D01*
X110824065Y-128687000D01*
X111275039Y-128500200D01*
X111620200Y-128155039D01*
X111807000Y-127704065D01*
X111807000Y-127215935D01*
X111893000Y-127215935D01*
X111893000Y-127704065D01*
X112079800Y-128155039D01*
X112424961Y-128500200D01*
X112875935Y-128687000D01*
X113364065Y-128687000D01*
X113815039Y-128500200D01*
X114160200Y-128155039D01*
X114347000Y-127704065D01*
X114347000Y-127215935D01*
X114433000Y-127215935D01*
X114433000Y-127704065D01*
X114619800Y-128155039D01*
X114964961Y-128500200D01*
X115415935Y-128687000D01*
X115904065Y-128687000D01*
X116355039Y-128500200D01*
X116700200Y-128155039D01*
X116887000Y-127704065D01*
X116887000Y-127215935D01*
X116973000Y-127215935D01*
X116973000Y-127704065D01*
X117159800Y-128155039D01*
X117504961Y-128500200D01*
X117955935Y-128687000D01*
X118444065Y-128687000D01*
X118895039Y-128500200D01*
X119240200Y-128155039D01*
X119427000Y-127704065D01*
X119427000Y-127215935D01*
X119240200Y-126764961D01*
X118895039Y-126419800D01*
X118444065Y-126233000D01*
X117955935Y-126233000D01*
X117504961Y-126419800D01*
X117159800Y-126764961D01*
X116973000Y-127215935D01*
X116887000Y-127215935D01*
X116700200Y-126764961D01*
X116355039Y-126419800D01*
X115904065Y-126233000D01*
X115415935Y-126233000D01*
X114964961Y-126419800D01*
X114619800Y-126764961D01*
X114433000Y-127215935D01*
X114347000Y-127215935D01*
X114160200Y-126764961D01*
X113815039Y-126419800D01*
X113364065Y-126233000D01*
X112875935Y-126233000D01*
X112424961Y-126419800D01*
X112079800Y-126764961D01*
X111893000Y-127215935D01*
X111807000Y-127215935D01*
X111620200Y-126764961D01*
X111275039Y-126419800D01*
X110824065Y-126233000D01*
X110335935Y-126233000D01*
X110167895Y-126302604D01*
X105844582Y-121979291D01*
X118725500Y-121979291D01*
X118725500Y-122780709D01*
X119032190Y-123521122D01*
X119598878Y-124087810D01*
X120339291Y-124394500D01*
X121140709Y-124394500D01*
X121881122Y-124087810D01*
X121905439Y-124063493D01*
X122311000Y-124063493D01*
X122311000Y-124536507D01*
X122492014Y-124973514D01*
X122826486Y-125307986D01*
X123263493Y-125489000D01*
X123736507Y-125489000D01*
X124173514Y-125307986D01*
X124507986Y-124973514D01*
X124689000Y-124536507D01*
X124689000Y-124063493D01*
X124507986Y-123626486D01*
X124173514Y-123292014D01*
X123736507Y-123111000D01*
X123263493Y-123111000D01*
X122826486Y-123292014D01*
X122492014Y-123626486D01*
X122311000Y-124063493D01*
X121905439Y-124063493D01*
X122447810Y-123521122D01*
X122754500Y-122780709D01*
X122754500Y-121979291D01*
X122447810Y-121238878D01*
X121881122Y-120672190D01*
X121140709Y-120365500D01*
X120339291Y-120365500D01*
X119598878Y-120672190D01*
X119032190Y-121238878D01*
X118725500Y-121979291D01*
X105844582Y-121979291D01*
X104109345Y-120244055D01*
X104079945Y-120200055D01*
X103905625Y-120083577D01*
X103751903Y-120053000D01*
X103751898Y-120053000D01*
X103700000Y-120042677D01*
X103648102Y-120053000D01*
X101763976Y-120053000D01*
X101575030Y-119864055D01*
X101545630Y-119820055D01*
X101371310Y-119703577D01*
X101248754Y-119679199D01*
X101068458Y-119498903D01*
X100764501Y-119373000D01*
X100435499Y-119373000D01*
X100131542Y-119498903D01*
X99898903Y-119731542D01*
X99773000Y-120035499D01*
X98551213Y-120035499D01*
X99523219Y-119063493D01*
X122311000Y-119063493D01*
X122311000Y-119536507D01*
X122492014Y-119973514D01*
X122826486Y-120307986D01*
X123263493Y-120489000D01*
X123736507Y-120489000D01*
X124173514Y-120307986D01*
X124507986Y-119973514D01*
X124689000Y-119536507D01*
X124689000Y-119063493D01*
X124507986Y-118626486D01*
X124173514Y-118292014D01*
X123736507Y-118111000D01*
X123263493Y-118111000D01*
X122826486Y-118292014D01*
X122492014Y-118626486D01*
X122311000Y-119063493D01*
X99523219Y-119063493D01*
X100059712Y-118527000D01*
X101238250Y-118527000D01*
X101300000Y-118539283D01*
X101361750Y-118527000D01*
X114638254Y-118527000D01*
X114700000Y-118539282D01*
X114761746Y-118527000D01*
X114761750Y-118527000D01*
X114944643Y-118490620D01*
X115152041Y-118352041D01*
X115187020Y-118299691D01*
X117399694Y-116087018D01*
X117452041Y-116052041D01*
X117590620Y-115844643D01*
X117627000Y-115661750D01*
X117627000Y-115661746D01*
X117639282Y-115600001D01*
X117627000Y-115538256D01*
X117627000Y-115176913D01*
X128873000Y-115176913D01*
X128873000Y-116023087D01*
X129196817Y-116804848D01*
X129795152Y-117403183D01*
X130576913Y-117727000D01*
X131423087Y-117727000D01*
X132204848Y-117403183D01*
X132803183Y-116804848D01*
X133127000Y-116023087D01*
X133127000Y-115176913D01*
X132803183Y-114395152D01*
X132204848Y-113796817D01*
X131423087Y-113473000D01*
X130576913Y-113473000D01*
X129795152Y-113796817D01*
X129196817Y-114395152D01*
X128873000Y-115176913D01*
X117627000Y-115176913D01*
X117627000Y-112342555D01*
X117701097Y-112268458D01*
X117827000Y-111964501D01*
X117827000Y-111635499D01*
X117701097Y-111331542D01*
X117468458Y-111098903D01*
X117164501Y-110973000D01*
X116835499Y-110973000D01*
X116531542Y-111098903D01*
X116327000Y-111303445D01*
X116327000Y-104695989D01*
X130523000Y-104695989D01*
X130523000Y-105204011D01*
X130717412Y-105673362D01*
X131076638Y-106032588D01*
X131545989Y-106227000D01*
X132054011Y-106227000D01*
X132523362Y-106032588D01*
X132882588Y-105673362D01*
X133077000Y-105204011D01*
X133077000Y-104695989D01*
X132882588Y-104226638D01*
X132523362Y-103867412D01*
X132054011Y-103673000D01*
X131545989Y-103673000D01*
X131076638Y-103867412D01*
X130717412Y-104226638D01*
X130523000Y-104695989D01*
X116327000Y-104695989D01*
X116327000Y-103000000D01*
X116294497Y-102836594D01*
X116237549Y-102751365D01*
X117716000Y-102751365D01*
X117882607Y-102718225D01*
X118023850Y-102623850D01*
X118118225Y-102482607D01*
X118151365Y-102316000D01*
X118151365Y-100284000D01*
X118118225Y-100117393D01*
X118023850Y-99976150D01*
X117882607Y-99881775D01*
X117716000Y-99848635D01*
X117668074Y-99848635D01*
X117740345Y-99800345D01*
X118059276Y-99323031D01*
X118171270Y-98760000D01*
X118059276Y-98196969D01*
X117740345Y-97719655D01*
X117263031Y-97400724D01*
X116842123Y-97317000D01*
X116557877Y-97317000D01*
X116136969Y-97400724D01*
X115659655Y-97719655D01*
X115340724Y-98196969D01*
X115228730Y-98760000D01*
X115340724Y-99323031D01*
X115659655Y-99800345D01*
X115731926Y-99848635D01*
X115684000Y-99848635D01*
X115517393Y-99881775D01*
X115376150Y-99976150D01*
X115281775Y-100117393D01*
X115248635Y-100284000D01*
X115248635Y-102316000D01*
X115281775Y-102482607D01*
X115342173Y-102573000D01*
X111927000Y-102573000D01*
X111927000Y-97183975D01*
X112088548Y-97022427D01*
X112241714Y-96793198D01*
X112313661Y-96431500D01*
X112241714Y-96069802D01*
X112036829Y-95763171D01*
X111730198Y-95558286D01*
X111368500Y-95486339D01*
X111006802Y-95558286D01*
X110777573Y-95711452D01*
X110409074Y-96079951D01*
X110331671Y-96131670D01*
X110279952Y-96209073D01*
X110126786Y-96438303D01*
X110054839Y-96800000D01*
X110073001Y-96891305D01*
X110073000Y-102573000D01*
X103900000Y-102573000D01*
X103736594Y-102605503D01*
X103598065Y-102698065D01*
X103505503Y-102836594D01*
X103473000Y-103000000D01*
X103473000Y-114600000D01*
X103505503Y-114763406D01*
X103598065Y-114901935D01*
X103736594Y-114994497D01*
X103900000Y-115027000D01*
X115900000Y-115027000D01*
X116063406Y-114994497D01*
X116201935Y-114901935D01*
X116294497Y-114763406D01*
X116327000Y-114600000D01*
X116327000Y-112296555D01*
X116373001Y-112342556D01*
X116373000Y-115340288D01*
X114440289Y-117273000D01*
X101927000Y-117273000D01*
X101927000Y-100666831D01*
X105199694Y-97394138D01*
X105252041Y-97359161D01*
X105304972Y-97279945D01*
X105354630Y-97205626D01*
X105390620Y-97151763D01*
X105427000Y-96968870D01*
X105427000Y-96968866D01*
X105439282Y-96907121D01*
X105427000Y-96845376D01*
X105427000Y-95682058D01*
X105535499Y-95727000D01*
X105864501Y-95727000D01*
X106168458Y-95601097D01*
X106401097Y-95368458D01*
X106527000Y-95064501D01*
X106527000Y-94735499D01*
X106401097Y-94431542D01*
X106168458Y-94198903D01*
X105864501Y-94073000D01*
X105535499Y-94073000D01*
X105427000Y-94117942D01*
X105427000Y-94039291D01*
X118725500Y-94039291D01*
X118725500Y-94840709D01*
X119032190Y-95581122D01*
X119598878Y-96147810D01*
X120339291Y-96454500D01*
X121140709Y-96454500D01*
X121881122Y-96147810D01*
X122447810Y-95581122D01*
X122754500Y-94840709D01*
X122754500Y-94039291D01*
X122447810Y-93298878D01*
X121881122Y-92732190D01*
X121140709Y-92425500D01*
X120339291Y-92425500D01*
X119598878Y-92732190D01*
X119032190Y-93298878D01*
X118725500Y-94039291D01*
X105427000Y-94039291D01*
X105427000Y-92575709D01*
X109081090Y-88921620D01*
X109335499Y-89027000D01*
X109664501Y-89027000D01*
X109968458Y-88901097D01*
X110042555Y-88827000D01*
X112157445Y-88827000D01*
X112231542Y-88901097D01*
X112535499Y-89027000D01*
X112864501Y-89027000D01*
X113168458Y-88901097D01*
X113401097Y-88668458D01*
X113527000Y-88364501D01*
X113527000Y-88035499D01*
X113523480Y-88027000D01*
X114581710Y-88027000D01*
X116690658Y-90135949D01*
X116720056Y-90179946D01*
X116764053Y-90209344D01*
X116764056Y-90209347D01*
X116894376Y-90296424D01*
X117048098Y-90327001D01*
X117048102Y-90327001D01*
X117100001Y-90337324D01*
X117151900Y-90327001D01*
X121590479Y-90327001D01*
X121694375Y-90396423D01*
X121848097Y-90427000D01*
X121848102Y-90427000D01*
X121900000Y-90437323D01*
X121951898Y-90427000D01*
X123848102Y-90427000D01*
X123900000Y-90437323D01*
X123951898Y-90427000D01*
X123951903Y-90427000D01*
X124105625Y-90396423D01*
X124279945Y-90279945D01*
X124309345Y-90235945D01*
X125118291Y-89427000D01*
X125364501Y-89427000D01*
X125668458Y-89301097D01*
X125901097Y-89068458D01*
X126027000Y-88764501D01*
X126027000Y-88435499D01*
X125901097Y-88131542D01*
X125668458Y-87898903D01*
X125364501Y-87773000D01*
X125035499Y-87773000D01*
X124731542Y-87898903D01*
X124498903Y-88131542D01*
X124373000Y-88435499D01*
X124373000Y-88681709D01*
X123681710Y-89373000D01*
X123223480Y-89373000D01*
X123227000Y-89364501D01*
X123227000Y-89035499D01*
X123101097Y-88731542D01*
X122868458Y-88498903D01*
X122564501Y-88373000D01*
X122235499Y-88373000D01*
X121931542Y-88498903D01*
X121857445Y-88573000D01*
X118359711Y-88573000D01*
X116387021Y-86600310D01*
X116352041Y-86547959D01*
X116144643Y-86409380D01*
X115961750Y-86373000D01*
X115961746Y-86373000D01*
X115900000Y-86360718D01*
X115838254Y-86373000D01*
X107761746Y-86373000D01*
X107700000Y-86360718D01*
X107638254Y-86373000D01*
X107638250Y-86373000D01*
X107455528Y-86409346D01*
X107455357Y-86409380D01*
X107300308Y-86512980D01*
X107300307Y-86512981D01*
X107247959Y-86547959D01*
X107212981Y-86600307D01*
X106140289Y-87673000D01*
X99542555Y-87673000D01*
X99468458Y-87598903D01*
X99164501Y-87473000D01*
X98835499Y-87473000D01*
X98627000Y-87559363D01*
X98627000Y-87235499D01*
X98501097Y-86931542D01*
X98268458Y-86698903D01*
X97964501Y-86573000D01*
X97635499Y-86573000D01*
X97331542Y-86698903D01*
X97098903Y-86931542D01*
X96973000Y-87235499D01*
X96973000Y-87564501D01*
X97098903Y-87868458D01*
X97173001Y-87942556D01*
X97173000Y-89757465D01*
X96998903Y-89931562D01*
X96873000Y-90235519D01*
X96873000Y-90564521D01*
X96998903Y-90868478D01*
X97231542Y-91101117D01*
X97535499Y-91227020D01*
X97864501Y-91227020D01*
X98168458Y-91101117D01*
X98373000Y-90896575D01*
X98373001Y-92938251D01*
X98360718Y-93000000D01*
X98373001Y-93061749D01*
X98373001Y-96940287D01*
X78100310Y-117212979D01*
X78047959Y-117247959D01*
X77909380Y-117455358D01*
X77873000Y-117638251D01*
X77873000Y-117638254D01*
X77860718Y-117700000D01*
X77873000Y-117761746D01*
X77873001Y-119957444D01*
X77798903Y-120031542D01*
X77673000Y-120335499D01*
X77673000Y-120664501D01*
X77798903Y-120968458D01*
X78031542Y-121201097D01*
X78335499Y-121327000D01*
X78664501Y-121327000D01*
X78968458Y-121201097D01*
X79201097Y-120968458D01*
X79327000Y-120664501D01*
X79327000Y-120335499D01*
X79201097Y-120031542D01*
X79127000Y-119957445D01*
X79127000Y-117959711D01*
X99399693Y-97687019D01*
X99452041Y-97652041D01*
X99528693Y-97537324D01*
X99590620Y-97444643D01*
X99603489Y-97379945D01*
X99627000Y-97261750D01*
X99627000Y-97261747D01*
X99639282Y-97200001D01*
X99627000Y-97138255D01*
X99627000Y-93527000D01*
X99857445Y-93527000D01*
X99931542Y-93601097D01*
X100235499Y-93727000D01*
X100564501Y-93727000D01*
X100868458Y-93601097D01*
X101101097Y-93368458D01*
X101227000Y-93064501D01*
X101227000Y-92735499D01*
X101101097Y-92431542D01*
X100868458Y-92198903D01*
X100564501Y-92073000D01*
X100235499Y-92073000D01*
X99931542Y-92198903D01*
X99857445Y-92273000D01*
X99627000Y-92273000D01*
X99627000Y-88927000D01*
X106338254Y-88927000D01*
X106400000Y-88939282D01*
X106461746Y-88927000D01*
X106461750Y-88927000D01*
X106644643Y-88890620D01*
X106852041Y-88752041D01*
X106887020Y-88699691D01*
X107959712Y-87627000D01*
X108036587Y-87627000D01*
X103664055Y-91999533D01*
X103620055Y-92028933D01*
X103503577Y-92203254D01*
X103473000Y-92356976D01*
X103473000Y-92356980D01*
X103462677Y-92408878D01*
X103473000Y-92460776D01*
X103473001Y-96781708D01*
X100064055Y-100190655D01*
X100020055Y-100220055D01*
X99903577Y-100394376D01*
X99873000Y-100548098D01*
X99873000Y-100548102D01*
X99862677Y-100600000D01*
X99873000Y-100651898D01*
X99873001Y-104281709D01*
X86464055Y-117690655D01*
X86420055Y-117720055D01*
X86303577Y-117894376D01*
X86273000Y-118048098D01*
X86273000Y-118048102D01*
X86262677Y-118100000D01*
X86273000Y-118151898D01*
X86273001Y-119857444D01*
X86098903Y-120031542D01*
X85973000Y-120335499D01*
X85973000Y-120664501D01*
X86098903Y-120968458D01*
X86331542Y-121201097D01*
X86635499Y-121327000D01*
X86964501Y-121327000D01*
X87268458Y-121201097D01*
X87501097Y-120968458D01*
X87627000Y-120664501D01*
X87627000Y-120335499D01*
X87501097Y-120031542D01*
X87327000Y-119857445D01*
X87327000Y-118318290D01*
X100673001Y-104972289D01*
X100673000Y-115438250D01*
X100673000Y-115438251D01*
X100673001Y-117273000D01*
X99861744Y-117273000D01*
X99799999Y-117260718D01*
X99738254Y-117273000D01*
X99738250Y-117273000D01*
X99555357Y-117309380D01*
X99347959Y-117447959D01*
X99312981Y-117500307D01*
X91540289Y-125273000D01*
X85961746Y-125273000D01*
X85900000Y-125260718D01*
X85838254Y-125273000D01*
X85838250Y-125273000D01*
X85655357Y-125309380D01*
X85447959Y-125447959D01*
X85412979Y-125500310D01*
X84780308Y-126132981D01*
X84727960Y-126167959D01*
X84692982Y-126220307D01*
X84692981Y-126220308D01*
X84589380Y-126375358D01*
X84589122Y-126376655D01*
X84484961Y-126419800D01*
X84139800Y-126764961D01*
X83953000Y-127215935D01*
X83953000Y-127704065D01*
X84139800Y-128155039D01*
X84484961Y-128500200D01*
X84660715Y-128573000D01*
X83159285Y-128573000D01*
X83335039Y-128500200D01*
X83680200Y-128155039D01*
X83867000Y-127704065D01*
X83867000Y-127215935D01*
X83680200Y-126764961D01*
X83335039Y-126419800D01*
X82884065Y-126233000D01*
X82395935Y-126233000D01*
X81944961Y-126419800D01*
X81599800Y-126764961D01*
X81413000Y-127215935D01*
X81413000Y-127704065D01*
X81599800Y-128155039D01*
X81944961Y-128500200D01*
X82120715Y-128573000D01*
X74318291Y-128573000D01*
X72272291Y-126527000D01*
X72564501Y-126527000D01*
X72868458Y-126401097D01*
X73101097Y-126168458D01*
X73227000Y-125864501D01*
X73227000Y-125535499D01*
X73101097Y-125231542D01*
X73027000Y-125157445D01*
X73027000Y-124977742D01*
X73039282Y-124915997D01*
X73027000Y-124854252D01*
X73027000Y-124854248D01*
X72990620Y-124671355D01*
X72852041Y-124463957D01*
X72799693Y-124428979D01*
X70271021Y-121900308D01*
X70236042Y-121847958D01*
X70028644Y-121709379D01*
X69845751Y-121672999D01*
X69845747Y-121672999D01*
X69784001Y-121660717D01*
X69722255Y-121672999D01*
X68061747Y-121672999D01*
X68000001Y-121660717D01*
X67938255Y-121672999D01*
X67938251Y-121672999D01*
X67755358Y-121709379D01*
X67547960Y-121847958D01*
X67512980Y-121900309D01*
X64540289Y-124873000D01*
X57059712Y-124873000D01*
X56527000Y-124340289D01*
X56527000Y-121796261D01*
X58168000Y-121796261D01*
X58168000Y-122403739D01*
X58400472Y-122964976D01*
X58830024Y-123394528D01*
X59391261Y-123627000D01*
X59998739Y-123627000D01*
X60559976Y-123394528D01*
X60989528Y-122964976D01*
X61222000Y-122403739D01*
X61222000Y-121796261D01*
X60989528Y-121235024D01*
X60559976Y-120805472D01*
X59998739Y-120573000D01*
X59391261Y-120573000D01*
X58830024Y-120805472D01*
X58400472Y-121235024D01*
X58168000Y-121796261D01*
X56527000Y-121796261D01*
X56527000Y-119735499D01*
X71873000Y-119735499D01*
X71873000Y-120064501D01*
X71998903Y-120368458D01*
X72231542Y-120601097D01*
X72535499Y-120727000D01*
X72864501Y-120727000D01*
X73168458Y-120601097D01*
X73234056Y-120535499D01*
X75273000Y-120535499D01*
X75273000Y-120864501D01*
X75398903Y-121168458D01*
X75631542Y-121401097D01*
X75935499Y-121527000D01*
X76264501Y-121527000D01*
X76568458Y-121401097D01*
X76801097Y-121168458D01*
X76927000Y-120864501D01*
X76927000Y-120535499D01*
X76801097Y-120231542D01*
X76627000Y-120057445D01*
X76627000Y-115818290D01*
X77535948Y-114909343D01*
X77579945Y-114879945D01*
X77609343Y-114835948D01*
X77609346Y-114835945D01*
X77696422Y-114705626D01*
X77696423Y-114705625D01*
X77727000Y-114551903D01*
X77727000Y-114551898D01*
X77737323Y-114500000D01*
X77727000Y-114448102D01*
X77727000Y-98818290D01*
X89118291Y-87427000D01*
X89364501Y-87427000D01*
X89668458Y-87301097D01*
X89842555Y-87127000D01*
X94548098Y-87127000D01*
X94599996Y-87137323D01*
X94651894Y-87127000D01*
X94651899Y-87127000D01*
X94805621Y-87096423D01*
X94979941Y-86979945D01*
X95009341Y-86935945D01*
X95309346Y-86635940D01*
X97018287Y-84927000D01*
X109659363Y-84927000D01*
X109573000Y-85135499D01*
X109573000Y-85464501D01*
X109698903Y-85768458D01*
X109931542Y-86001097D01*
X110235499Y-86127000D01*
X110564501Y-86127000D01*
X110868458Y-86001097D01*
X111048754Y-85820801D01*
X111171310Y-85796423D01*
X111345630Y-85679945D01*
X111375030Y-85635945D01*
X111383975Y-85627000D01*
X121232133Y-85627000D01*
X121215335Y-85711450D01*
X121215335Y-87908550D01*
X121248475Y-88075157D01*
X121342850Y-88216400D01*
X121484093Y-88310775D01*
X121650700Y-88343915D01*
X123149300Y-88343915D01*
X123315907Y-88310775D01*
X123457150Y-88216400D01*
X123551525Y-88075157D01*
X123584665Y-87908550D01*
X123584665Y-85711450D01*
X123567867Y-85627000D01*
X126081710Y-85627000D01*
X126873001Y-86418292D01*
X126873000Y-90881709D01*
X125964053Y-91790657D01*
X125920056Y-91820055D01*
X125890658Y-91864052D01*
X125890654Y-91864056D01*
X125803578Y-91994375D01*
X125762677Y-92200000D01*
X125773001Y-92251903D01*
X125773000Y-95148102D01*
X125762677Y-95200000D01*
X125773000Y-95251898D01*
X125773000Y-95251902D01*
X125803577Y-95405624D01*
X125920055Y-95579945D01*
X125964055Y-95609345D01*
X126612994Y-96258285D01*
X126473000Y-96596261D01*
X126473000Y-97203739D01*
X126705472Y-97764976D01*
X127135024Y-98194528D01*
X127696261Y-98427000D01*
X128303739Y-98427000D01*
X128864976Y-98194528D01*
X129294528Y-97764976D01*
X129509499Y-97245989D01*
X130723000Y-97245989D01*
X130723000Y-97754011D01*
X130917412Y-98223362D01*
X131276638Y-98582588D01*
X131745989Y-98777000D01*
X132254011Y-98777000D01*
X132723362Y-98582588D01*
X133082588Y-98223362D01*
X133176656Y-97996261D01*
X133973000Y-97996261D01*
X133973000Y-98603739D01*
X134205472Y-99164976D01*
X134635024Y-99594528D01*
X135196261Y-99827000D01*
X135803739Y-99827000D01*
X136364976Y-99594528D01*
X136794528Y-99164976D01*
X137027000Y-98603739D01*
X137027000Y-97996261D01*
X136794528Y-97435024D01*
X136364976Y-97005472D01*
X135803739Y-96773000D01*
X135196261Y-96773000D01*
X134635024Y-97005472D01*
X134205472Y-97435024D01*
X133973000Y-97996261D01*
X133176656Y-97996261D01*
X133277000Y-97754011D01*
X133277000Y-97245989D01*
X133082588Y-96776638D01*
X132723362Y-96417412D01*
X132254011Y-96223000D01*
X131745989Y-96223000D01*
X131276638Y-96417412D01*
X130917412Y-96776638D01*
X130723000Y-97245989D01*
X129509499Y-97245989D01*
X129527000Y-97203739D01*
X129527000Y-96596261D01*
X129294528Y-96035024D01*
X128864976Y-95605472D01*
X128303739Y-95373000D01*
X127696261Y-95373000D01*
X127358285Y-95512994D01*
X126827000Y-94981710D01*
X126827000Y-94086504D01*
X127135024Y-94394528D01*
X127696261Y-94627000D01*
X128303739Y-94627000D01*
X128864976Y-94394528D01*
X129294528Y-93964976D01*
X129527000Y-93403739D01*
X129527000Y-92796261D01*
X129299070Y-92245989D01*
X130723000Y-92245989D01*
X130723000Y-92754011D01*
X130917412Y-93223362D01*
X131276638Y-93582588D01*
X131745989Y-93777000D01*
X132254011Y-93777000D01*
X132723362Y-93582588D01*
X133082588Y-93223362D01*
X133277000Y-92754011D01*
X133277000Y-92245989D01*
X133082588Y-91776638D01*
X132723362Y-91417412D01*
X132672300Y-91396261D01*
X133973000Y-91396261D01*
X133973000Y-92003739D01*
X134205472Y-92564976D01*
X134635024Y-92994528D01*
X135196261Y-93227000D01*
X135803739Y-93227000D01*
X136364976Y-92994528D01*
X136794528Y-92564976D01*
X137027000Y-92003739D01*
X137027000Y-91396261D01*
X136794528Y-90835024D01*
X136364976Y-90405472D01*
X135803739Y-90173000D01*
X135196261Y-90173000D01*
X134635024Y-90405472D01*
X134205472Y-90835024D01*
X133973000Y-91396261D01*
X132672300Y-91396261D01*
X132254011Y-91223000D01*
X131745989Y-91223000D01*
X131276638Y-91417412D01*
X130917412Y-91776638D01*
X130723000Y-92245989D01*
X129299070Y-92245989D01*
X129294528Y-92235024D01*
X128864976Y-91805472D01*
X128527000Y-91665478D01*
X128527000Y-86051899D01*
X128537323Y-86000000D01*
X128527000Y-85948101D01*
X128527000Y-85948097D01*
X128497324Y-85798903D01*
X128496423Y-85794374D01*
X128409346Y-85664055D01*
X128409343Y-85664052D01*
X128379945Y-85620055D01*
X128335947Y-85590657D01*
X127148086Y-84402796D01*
X127159343Y-84385948D01*
X127159346Y-84385945D01*
X127246423Y-84255626D01*
X127258606Y-84194375D01*
X127277000Y-84101903D01*
X127277000Y-84101899D01*
X127287323Y-84050000D01*
X127277000Y-83998101D01*
X127277000Y-81709804D01*
X127445039Y-81640200D01*
X127790200Y-81295039D01*
X127977000Y-80844065D01*
X127977000Y-80355935D01*
X127790200Y-79904961D01*
X127445039Y-79559800D01*
X126994065Y-79373000D01*
X126505935Y-79373000D01*
X126054961Y-79559800D01*
X125709800Y-79904961D01*
X125523000Y-80355935D01*
X125523000Y-80844065D01*
X125709800Y-81295039D01*
X126054961Y-81640200D01*
X126223000Y-81709804D01*
X126223001Y-83831709D01*
X126181710Y-83873000D01*
X96851893Y-83873000D01*
X96799995Y-83862677D01*
X96748097Y-83873000D01*
X96748093Y-83873000D01*
X96594371Y-83903577D01*
X96594369Y-83903578D01*
X96594370Y-83903578D01*
X96464051Y-83990654D01*
X96464048Y-83990657D01*
X96420051Y-84020055D01*
X96390653Y-84064053D01*
X94381706Y-86073000D01*
X89842555Y-86073000D01*
X89668458Y-85898903D01*
X89364501Y-85773000D01*
X89035499Y-85773000D01*
X88731542Y-85898903D01*
X88498903Y-86131542D01*
X88373000Y-86435499D01*
X88373000Y-86681709D01*
X76864053Y-98190657D01*
X76820056Y-98220055D01*
X76790658Y-98264052D01*
X76790654Y-98264056D01*
X76703578Y-98394375D01*
X76662677Y-98600000D01*
X76673001Y-98651903D01*
X76673000Y-114281709D01*
X75764053Y-115190657D01*
X75720056Y-115220055D01*
X75690658Y-115264052D01*
X75690654Y-115264056D01*
X75603578Y-115394375D01*
X75562677Y-115600000D01*
X75573001Y-115651903D01*
X75573000Y-120057445D01*
X75398903Y-120231542D01*
X75273000Y-120535499D01*
X73234056Y-120535499D01*
X73401097Y-120368458D01*
X73527000Y-120064501D01*
X73527000Y-119735499D01*
X73401097Y-119431542D01*
X73374580Y-119405025D01*
X74435948Y-118343658D01*
X74479945Y-118314260D01*
X74509343Y-118270263D01*
X74509346Y-118270260D01*
X74593280Y-118144644D01*
X74596423Y-118139940D01*
X74627000Y-117986218D01*
X74627000Y-117986213D01*
X74637323Y-117934315D01*
X74627000Y-117882417D01*
X74627000Y-94618290D01*
X81918291Y-87327000D01*
X82164501Y-87327000D01*
X82468458Y-87201097D01*
X82701097Y-86968458D01*
X82827000Y-86664501D01*
X82827000Y-86335499D01*
X82701097Y-86031542D01*
X82468458Y-85798903D01*
X82164501Y-85673000D01*
X81835499Y-85673000D01*
X81531542Y-85798903D01*
X81298903Y-86031542D01*
X81173000Y-86335499D01*
X81173000Y-86581709D01*
X73764053Y-93990657D01*
X73720056Y-94020055D01*
X73690658Y-94064052D01*
X73690654Y-94064056D01*
X73603578Y-94194375D01*
X73562677Y-94400000D01*
X73573001Y-94451903D01*
X73573000Y-117716024D01*
X72364053Y-118924972D01*
X72320056Y-118954370D01*
X72290658Y-118998367D01*
X72290654Y-118998371D01*
X72240789Y-119073000D01*
X72203578Y-119128690D01*
X72179200Y-119251245D01*
X71998903Y-119431542D01*
X71873000Y-119735499D01*
X56527000Y-119735499D01*
X56527000Y-112216855D01*
X57126707Y-111617149D01*
X57179054Y-111582172D01*
X57317633Y-111374774D01*
X57354013Y-111191881D01*
X57354013Y-111191878D01*
X57366295Y-111130132D01*
X57354013Y-111068386D01*
X57354013Y-110188759D01*
X57366295Y-110127013D01*
X57354013Y-110065267D01*
X57354013Y-110065263D01*
X57317633Y-109882370D01*
X57179054Y-109674972D01*
X57126706Y-109639994D01*
X55910990Y-108424279D01*
X55910990Y-106206821D01*
X56044033Y-106295718D01*
X56420489Y-106370600D01*
X56979511Y-106370600D01*
X57355967Y-106295718D01*
X57782870Y-106010470D01*
X58068118Y-105583567D01*
X58168284Y-105080000D01*
X58068118Y-104576433D01*
X57782870Y-104149530D01*
X57355967Y-103864282D01*
X57083074Y-103810000D01*
X57355967Y-103755718D01*
X57782870Y-103470470D01*
X58068118Y-103043567D01*
X58168284Y-102540000D01*
X58068118Y-102036433D01*
X57782870Y-101609530D01*
X57355967Y-101324282D01*
X56979511Y-101249400D01*
X56420489Y-101249400D01*
X56044033Y-101324282D01*
X55617130Y-101609530D01*
X55331882Y-102036433D01*
X55231716Y-102540000D01*
X55302920Y-102897968D01*
X55202000Y-102998889D01*
X55202000Y-81834000D01*
X66623000Y-81834000D01*
X66623000Y-84788000D01*
X90977000Y-84788000D01*
X90977000Y-81834000D01*
X66623000Y-81834000D01*
X55202000Y-81834000D01*
X55202000Y-77502000D01*
X68789068Y-77502000D01*
X68232190Y-78058878D01*
X68232190Y-78058878D01*
G37*
X68232190Y-78058878D02*
X67925500Y-78799291D01*
X67925500Y-79600709D01*
X68232190Y-80341122D01*
X68798878Y-80907810D01*
X69539291Y-81214500D01*
X70340709Y-81214500D01*
X71081122Y-80907810D01*
X71647810Y-80341122D01*
X71954500Y-79600709D01*
X71954500Y-78955935D01*
X72269000Y-78955935D01*
X72269000Y-79444065D01*
X72455800Y-79895039D01*
X72800961Y-80240200D01*
X73251935Y-80427000D01*
X73740065Y-80427000D01*
X74191039Y-80240200D01*
X74536200Y-79895039D01*
X74723000Y-79444065D01*
X74723000Y-78955935D01*
X74809000Y-78955935D01*
X74809000Y-79444065D01*
X74995800Y-79895039D01*
X75340961Y-80240200D01*
X75791935Y-80427000D01*
X76280065Y-80427000D01*
X76731039Y-80240200D01*
X77076200Y-79895039D01*
X77263000Y-79444065D01*
X77263000Y-78955935D01*
X77349000Y-78955935D01*
X77349000Y-79444065D01*
X77535800Y-79895039D01*
X77880961Y-80240200D01*
X78331935Y-80427000D01*
X78820065Y-80427000D01*
X79271039Y-80240200D01*
X79616200Y-79895039D01*
X79803000Y-79444065D01*
X79803000Y-78955935D01*
X82429000Y-78955935D01*
X82429000Y-79444065D01*
X82615800Y-79895039D01*
X82960961Y-80240200D01*
X83411935Y-80427000D01*
X83900065Y-80427000D01*
X84351039Y-80240200D01*
X84696200Y-79895039D01*
X84883000Y-79444065D01*
X84883000Y-78955935D01*
X84969000Y-78955935D01*
X84969000Y-79444065D01*
X85155800Y-79895039D01*
X85500961Y-80240200D01*
X85951935Y-80427000D01*
X86440065Y-80427000D01*
X86891039Y-80240200D01*
X87236200Y-79895039D01*
X87423000Y-79444065D01*
X87423000Y-78955935D01*
X87509000Y-78955935D01*
X87509000Y-79444065D01*
X87695800Y-79895039D01*
X88040961Y-80240200D01*
X88491935Y-80427000D01*
X88980065Y-80427000D01*
X89431039Y-80240200D01*
X89776200Y-79895039D01*
X89963000Y-79444065D01*
X89963000Y-78955935D01*
X90049000Y-78955935D01*
X90049000Y-79444065D01*
X90235800Y-79895039D01*
X90580961Y-80240200D01*
X91031935Y-80427000D01*
X91520065Y-80427000D01*
X91971039Y-80240200D01*
X92316200Y-79895039D01*
X92503000Y-79444065D01*
X92503000Y-78955935D01*
X92589000Y-78955935D01*
X92589000Y-79444065D01*
X92775800Y-79895039D01*
X93120961Y-80240200D01*
X93571935Y-80427000D01*
X94060065Y-80427000D01*
X94511039Y-80240200D01*
X94856200Y-79895039D01*
X95043000Y-79444065D01*
X95043000Y-78955935D01*
X95129000Y-78955935D01*
X95129000Y-79444065D01*
X95315800Y-79895039D01*
X95660961Y-80240200D01*
X96111935Y-80427000D01*
X96600065Y-80427000D01*
X97051039Y-80240200D01*
X97396200Y-79895039D01*
X97583000Y-79444065D01*
X97583000Y-78955935D01*
X99193000Y-78955935D01*
X99193000Y-79444065D01*
X99379800Y-79895039D01*
X99724961Y-80240200D01*
X100175935Y-80427000D01*
X100664065Y-80427000D01*
X101115039Y-80240200D01*
X101460200Y-79895039D01*
X101647000Y-79444065D01*
X101647000Y-78955935D01*
X101733000Y-78955935D01*
X101733000Y-79444065D01*
X101919800Y-79895039D01*
X102264961Y-80240200D01*
X102715935Y-80427000D01*
X103204065Y-80427000D01*
X103655039Y-80240200D01*
X104000200Y-79895039D01*
X104187000Y-79444065D01*
X104187000Y-78955935D01*
X104273000Y-78955935D01*
X104273000Y-79444065D01*
X104459800Y-79895039D01*
X104804961Y-80240200D01*
X105255935Y-80427000D01*
X105744065Y-80427000D01*
X106195039Y-80240200D01*
X106540200Y-79895039D01*
X106727000Y-79444065D01*
X106727000Y-78955935D01*
X106813000Y-78955935D01*
X106813000Y-79444065D01*
X106999800Y-79895039D01*
X107344961Y-80240200D01*
X107795935Y-80427000D01*
X108284065Y-80427000D01*
X108735039Y-80240200D01*
X109080200Y-79895039D01*
X109267000Y-79444065D01*
X109267000Y-78955935D01*
X109353000Y-78955935D01*
X109353000Y-79444065D01*
X109539800Y-79895039D01*
X109884961Y-80240200D01*
X110335935Y-80427000D01*
X110824065Y-80427000D01*
X111275039Y-80240200D01*
X111620200Y-79895039D01*
X111807000Y-79444065D01*
X111807000Y-78955935D01*
X111893000Y-78955935D01*
X111893000Y-79444065D01*
X112079800Y-79895039D01*
X112424961Y-80240200D01*
X112593001Y-80309804D01*
X112593001Y-80968098D01*
X112582677Y-81020000D01*
X112623578Y-81225625D01*
X112710654Y-81355944D01*
X112710658Y-81355948D01*
X112740056Y-81399945D01*
X112784053Y-81429343D01*
X114173000Y-82818290D01*
X114173000Y-83064501D01*
X114298903Y-83368458D01*
X114531542Y-83601097D01*
X114835499Y-83727000D01*
X115164501Y-83727000D01*
X115468458Y-83601097D01*
X115701097Y-83368458D01*
X115827000Y-83064501D01*
X115827000Y-82735499D01*
X115701097Y-82431542D01*
X115468458Y-82198903D01*
X115164501Y-82073000D01*
X114918290Y-82073000D01*
X113647000Y-80801710D01*
X113647000Y-80309804D01*
X113815039Y-80240200D01*
X114160200Y-79895039D01*
X114347000Y-79444065D01*
X114347000Y-78955935D01*
X114433000Y-78955935D01*
X114433000Y-79444065D01*
X114619800Y-79895039D01*
X114964961Y-80240200D01*
X115415935Y-80427000D01*
X115904065Y-80427000D01*
X116355039Y-80240200D01*
X116700200Y-79895039D01*
X116887000Y-79444065D01*
X116887000Y-78955935D01*
X116973000Y-78955935D01*
X116973000Y-79444065D01*
X117159800Y-79895039D01*
X117504961Y-80240200D01*
X117955935Y-80427000D01*
X118444065Y-80427000D01*
X118895039Y-80240200D01*
X119240200Y-79895039D01*
X119427000Y-79444065D01*
X119427000Y-78955935D01*
X119331301Y-78724896D01*
X121223700Y-78724896D01*
X121223700Y-79655105D01*
X121291950Y-79998219D01*
X121551936Y-80387315D01*
X121941032Y-80647300D01*
X122400000Y-80738595D01*
X122858969Y-80647300D01*
X123248065Y-80387315D01*
X123508050Y-79998219D01*
X123576300Y-79655104D01*
X123576300Y-78724895D01*
X123508050Y-78381781D01*
X123248065Y-77992685D01*
X122858968Y-77732700D01*
X122400000Y-77641405D01*
X121941031Y-77732700D01*
X121551935Y-77992685D01*
X121291950Y-78381782D01*
X121223700Y-78724896D01*
X119331301Y-78724896D01*
X119240200Y-78504961D01*
X118895039Y-78159800D01*
X118444065Y-77973000D01*
X117955935Y-77973000D01*
X117504961Y-78159800D01*
X117159800Y-78504961D01*
X116973000Y-78955935D01*
X116887000Y-78955935D01*
X116700200Y-78504961D01*
X116355039Y-78159800D01*
X115904065Y-77973000D01*
X115415935Y-77973000D01*
X114964961Y-78159800D01*
X114619800Y-78504961D01*
X114433000Y-78955935D01*
X114347000Y-78955935D01*
X114160200Y-78504961D01*
X113815039Y-78159800D01*
X113364065Y-77973000D01*
X112875935Y-77973000D01*
X112424961Y-78159800D01*
X112079800Y-78504961D01*
X111893000Y-78955935D01*
X111807000Y-78955935D01*
X111620200Y-78504961D01*
X111275039Y-78159800D01*
X110824065Y-77973000D01*
X110335935Y-77973000D01*
X109884961Y-78159800D01*
X109539800Y-78504961D01*
X109353000Y-78955935D01*
X109267000Y-78955935D01*
X109080200Y-78504961D01*
X108735039Y-78159800D01*
X108284065Y-77973000D01*
X107795935Y-77973000D01*
X107344961Y-78159800D01*
X106999800Y-78504961D01*
X106813000Y-78955935D01*
X106727000Y-78955935D01*
X106540200Y-78504961D01*
X106195039Y-78159800D01*
X105744065Y-77973000D01*
X105255935Y-77973000D01*
X104804961Y-78159800D01*
X104459800Y-78504961D01*
X104273000Y-78955935D01*
X104187000Y-78955935D01*
X104000200Y-78504961D01*
X103655039Y-78159800D01*
X103204065Y-77973000D01*
X102715935Y-77973000D01*
X102264961Y-78159800D01*
X101919800Y-78504961D01*
X101733000Y-78955935D01*
X101647000Y-78955935D01*
X101460200Y-78504961D01*
X101115039Y-78159800D01*
X100664065Y-77973000D01*
X100175935Y-77973000D01*
X99724961Y-78159800D01*
X99379800Y-78504961D01*
X99193000Y-78955935D01*
X97583000Y-78955935D01*
X97396200Y-78504961D01*
X97051039Y-78159800D01*
X96600065Y-77973000D01*
X96111935Y-77973000D01*
X95660961Y-78159800D01*
X95315800Y-78504961D01*
X95129000Y-78955935D01*
X95043000Y-78955935D01*
X94856200Y-78504961D01*
X94511039Y-78159800D01*
X94060065Y-77973000D01*
X93571935Y-77973000D01*
X93120961Y-78159800D01*
X92775800Y-78504961D01*
X92589000Y-78955935D01*
X92503000Y-78955935D01*
X92316200Y-78504961D01*
X91971039Y-78159800D01*
X91520065Y-77973000D01*
X91031935Y-77973000D01*
X90580961Y-78159800D01*
X90235800Y-78504961D01*
X90049000Y-78955935D01*
X89963000Y-78955935D01*
X89776200Y-78504961D01*
X89431039Y-78159800D01*
X88980065Y-77973000D01*
X88491935Y-77973000D01*
X88040961Y-78159800D01*
X87695800Y-78504961D01*
X87509000Y-78955935D01*
X87423000Y-78955935D01*
X87236200Y-78504961D01*
X86891039Y-78159800D01*
X86440065Y-77973000D01*
X85951935Y-77973000D01*
X85500961Y-78159800D01*
X85155800Y-78504961D01*
X84969000Y-78955935D01*
X84883000Y-78955935D01*
X84696200Y-78504961D01*
X84351039Y-78159800D01*
X83900065Y-77973000D01*
X83411935Y-77973000D01*
X82960961Y-78159800D01*
X82615800Y-78504961D01*
X82429000Y-78955935D01*
X79803000Y-78955935D01*
X79616200Y-78504961D01*
X79271039Y-78159800D01*
X78820065Y-77973000D01*
X78331935Y-77973000D01*
X77880961Y-78159800D01*
X77535800Y-78504961D01*
X77349000Y-78955935D01*
X77263000Y-78955935D01*
X77076200Y-78504961D01*
X76731039Y-78159800D01*
X76280065Y-77973000D01*
X75791935Y-77973000D01*
X75340961Y-78159800D01*
X74995800Y-78504961D01*
X74809000Y-78955935D01*
X74723000Y-78955935D01*
X74536200Y-78504961D01*
X74191039Y-78159800D01*
X73740065Y-77973000D01*
X73251935Y-77973000D01*
X72800961Y-78159800D01*
X72455800Y-78504961D01*
X72269000Y-78955935D01*
X71954500Y-78955935D01*
X71954500Y-78799291D01*
X71647810Y-78058878D01*
X71090932Y-77502000D01*
X138998001Y-77502000D01*
X138998000Y-110937285D01*
X136418000Y-110937285D01*
X136418000Y-115662714D01*
X138998000Y-115662714D01*
X138998000Y-123616500D01*
X138673514Y-123292014D01*
X138236507Y-123111000D01*
X137763493Y-123111000D01*
X137326486Y-123292014D01*
X136992014Y-123626486D01*
X136811000Y-124063493D01*
X136811000Y-124536507D01*
X136992014Y-124973514D01*
X137326486Y-125307986D01*
X137763493Y-125489000D01*
X138236507Y-125489000D01*
X138673514Y-125307986D01*
X138998000Y-124983500D01*
X138998000Y-129498000D01*
X132510031Y-129498000D01*
X132803183Y-129204848D01*
X133127000Y-128423087D01*
X133127000Y-127576913D01*
X132803183Y-126795152D01*
X132204848Y-126196817D01*
X131423087Y-125873000D01*
X130576913Y-125873000D01*
X129795152Y-126196817D01*
X129196817Y-126795152D01*
X128873000Y-127576913D01*
X128873000Y-128423087D01*
X129196817Y-129204848D01*
X129489969Y-129498000D01*
X106752924Y-129498000D01*
X106779945Y-129479945D01*
X106809345Y-129435945D01*
X107627895Y-128617395D01*
X107795935Y-128687000D01*
X108284065Y-128687000D01*
X108735039Y-128500200D01*
X109080200Y-128155039D01*
X109267000Y-127704065D01*
X109267000Y-127215935D01*
X109080200Y-126764961D01*
X108735039Y-126419800D01*
X108284065Y-126233000D01*
X107795935Y-126233000D01*
X107344961Y-126419800D01*
X106999800Y-126764961D01*
X106813000Y-127215935D01*
X106813000Y-127704065D01*
X106882605Y-127872105D01*
X106181710Y-128573000D01*
X106019285Y-128573000D01*
X106195039Y-128500200D01*
X106540200Y-128155039D01*
X106727000Y-127704065D01*
X106727000Y-127215935D01*
X106540200Y-126764961D01*
X106195039Y-126419800D01*
X105744065Y-126233000D01*
X105255935Y-126233000D01*
X104804961Y-126419800D01*
X104459800Y-126764961D01*
X104273000Y-127215935D01*
X104273000Y-127704065D01*
X104459800Y-128155039D01*
X104804961Y-128500200D01*
X104980715Y-128573000D01*
X100939285Y-128573000D01*
X101115039Y-128500200D01*
X101460200Y-128155039D01*
X101647000Y-127704065D01*
X101647000Y-127215935D01*
X101460200Y-126764961D01*
X101115039Y-126419800D01*
X100664065Y-126233000D01*
X100175935Y-126233000D01*
X99724961Y-126419800D01*
X99379800Y-126764961D01*
X99193000Y-127215935D01*
X99193000Y-127704065D01*
X99379800Y-128155039D01*
X99724961Y-128500200D01*
X99900715Y-128573000D01*
X93319285Y-128573000D01*
X93495039Y-128500200D01*
X93840200Y-128155039D01*
X94027000Y-127704065D01*
X94027000Y-127215935D01*
X93840200Y-126764961D01*
X93495039Y-126419800D01*
X93044065Y-126233000D01*
X92555935Y-126233000D01*
X92225123Y-126370027D01*
X92252041Y-126352041D01*
X92287021Y-126299691D01*
X98551213Y-120035499D01*
X99773000Y-120035499D01*
X99773000Y-120364501D01*
X99898903Y-120668458D01*
X100131542Y-120901097D01*
X100435499Y-121027000D01*
X100764501Y-121027000D01*
X101068458Y-120901097D01*
X101094975Y-120874580D01*
X101136341Y-120915947D01*
X101165740Y-120959945D01*
X101209737Y-120989343D01*
X101209740Y-120989346D01*
X101303847Y-121052226D01*
X101340060Y-121076423D01*
X101493782Y-121107000D01*
X101493786Y-121107000D01*
X101545684Y-121117323D01*
X101597582Y-121107000D01*
X103481710Y-121107000D01*
X109422604Y-127047895D01*
X109353000Y-127215935D01*
X109353000Y-127704065D01*
X109539800Y-128155039D01*
X109884961Y-128500200D01*
X110335935Y-128687000D01*
X110824065Y-128687000D01*
X111275039Y-128500200D01*
X111620200Y-128155039D01*
X111807000Y-127704065D01*
X111807000Y-127215935D01*
X111893000Y-127215935D01*
X111893000Y-127704065D01*
X112079800Y-128155039D01*
X112424961Y-128500200D01*
X112875935Y-128687000D01*
X113364065Y-128687000D01*
X113815039Y-128500200D01*
X114160200Y-128155039D01*
X114347000Y-127704065D01*
X114347000Y-127215935D01*
X114433000Y-127215935D01*
X114433000Y-127704065D01*
X114619800Y-128155039D01*
X114964961Y-128500200D01*
X115415935Y-128687000D01*
X115904065Y-128687000D01*
X116355039Y-128500200D01*
X116700200Y-128155039D01*
X116887000Y-127704065D01*
X116887000Y-127215935D01*
X116973000Y-127215935D01*
X116973000Y-127704065D01*
X117159800Y-128155039D01*
X117504961Y-128500200D01*
X117955935Y-128687000D01*
X118444065Y-128687000D01*
X118895039Y-128500200D01*
X119240200Y-128155039D01*
X119427000Y-127704065D01*
X119427000Y-127215935D01*
X119240200Y-126764961D01*
X118895039Y-126419800D01*
X118444065Y-126233000D01*
X117955935Y-126233000D01*
X117504961Y-126419800D01*
X117159800Y-126764961D01*
X116973000Y-127215935D01*
X116887000Y-127215935D01*
X116700200Y-126764961D01*
X116355039Y-126419800D01*
X115904065Y-126233000D01*
X115415935Y-126233000D01*
X114964961Y-126419800D01*
X114619800Y-126764961D01*
X114433000Y-127215935D01*
X114347000Y-127215935D01*
X114160200Y-126764961D01*
X113815039Y-126419800D01*
X113364065Y-126233000D01*
X112875935Y-126233000D01*
X112424961Y-126419800D01*
X112079800Y-126764961D01*
X111893000Y-127215935D01*
X111807000Y-127215935D01*
X111620200Y-126764961D01*
X111275039Y-126419800D01*
X110824065Y-126233000D01*
X110335935Y-126233000D01*
X110167895Y-126302604D01*
X105844582Y-121979291D01*
X118725500Y-121979291D01*
X118725500Y-122780709D01*
X119032190Y-123521122D01*
X119598878Y-124087810D01*
X120339291Y-124394500D01*
X121140709Y-124394500D01*
X121881122Y-124087810D01*
X121905439Y-124063493D01*
X122311000Y-124063493D01*
X122311000Y-124536507D01*
X122492014Y-124973514D01*
X122826486Y-125307986D01*
X123263493Y-125489000D01*
X123736507Y-125489000D01*
X124173514Y-125307986D01*
X124507986Y-124973514D01*
X124689000Y-124536507D01*
X124689000Y-124063493D01*
X124507986Y-123626486D01*
X124173514Y-123292014D01*
X123736507Y-123111000D01*
X123263493Y-123111000D01*
X122826486Y-123292014D01*
X122492014Y-123626486D01*
X122311000Y-124063493D01*
X121905439Y-124063493D01*
X122447810Y-123521122D01*
X122754500Y-122780709D01*
X122754500Y-121979291D01*
X122447810Y-121238878D01*
X121881122Y-120672190D01*
X121140709Y-120365500D01*
X120339291Y-120365500D01*
X119598878Y-120672190D01*
X119032190Y-121238878D01*
X118725500Y-121979291D01*
X105844582Y-121979291D01*
X104109345Y-120244055D01*
X104079945Y-120200055D01*
X103905625Y-120083577D01*
X103751903Y-120053000D01*
X103751898Y-120053000D01*
X103700000Y-120042677D01*
X103648102Y-120053000D01*
X101763976Y-120053000D01*
X101575030Y-119864055D01*
X101545630Y-119820055D01*
X101371310Y-119703577D01*
X101248754Y-119679199D01*
X101068458Y-119498903D01*
X100764501Y-119373000D01*
X100435499Y-119373000D01*
X100131542Y-119498903D01*
X99898903Y-119731542D01*
X99773000Y-120035499D01*
X98551213Y-120035499D01*
X99523219Y-119063493D01*
X122311000Y-119063493D01*
X122311000Y-119536507D01*
X122492014Y-119973514D01*
X122826486Y-120307986D01*
X123263493Y-120489000D01*
X123736507Y-120489000D01*
X124173514Y-120307986D01*
X124507986Y-119973514D01*
X124689000Y-119536507D01*
X124689000Y-119063493D01*
X124507986Y-118626486D01*
X124173514Y-118292014D01*
X123736507Y-118111000D01*
X123263493Y-118111000D01*
X122826486Y-118292014D01*
X122492014Y-118626486D01*
X122311000Y-119063493D01*
X99523219Y-119063493D01*
X100059712Y-118527000D01*
X101238250Y-118527000D01*
X101300000Y-118539283D01*
X101361750Y-118527000D01*
X114638254Y-118527000D01*
X114700000Y-118539282D01*
X114761746Y-118527000D01*
X114761750Y-118527000D01*
X114944643Y-118490620D01*
X115152041Y-118352041D01*
X115187020Y-118299691D01*
X117399694Y-116087018D01*
X117452041Y-116052041D01*
X117590620Y-115844643D01*
X117627000Y-115661750D01*
X117627000Y-115661746D01*
X117639282Y-115600001D01*
X117627000Y-115538256D01*
X117627000Y-115176913D01*
X128873000Y-115176913D01*
X128873000Y-116023087D01*
X129196817Y-116804848D01*
X129795152Y-117403183D01*
X130576913Y-117727000D01*
X131423087Y-117727000D01*
X132204848Y-117403183D01*
X132803183Y-116804848D01*
X133127000Y-116023087D01*
X133127000Y-115176913D01*
X132803183Y-114395152D01*
X132204848Y-113796817D01*
X131423087Y-113473000D01*
X130576913Y-113473000D01*
X129795152Y-113796817D01*
X129196817Y-114395152D01*
X128873000Y-115176913D01*
X117627000Y-115176913D01*
X117627000Y-112342555D01*
X117701097Y-112268458D01*
X117827000Y-111964501D01*
X117827000Y-111635499D01*
X117701097Y-111331542D01*
X117468458Y-111098903D01*
X117164501Y-110973000D01*
X116835499Y-110973000D01*
X116531542Y-111098903D01*
X116327000Y-111303445D01*
X116327000Y-104695989D01*
X130523000Y-104695989D01*
X130523000Y-105204011D01*
X130717412Y-105673362D01*
X131076638Y-106032588D01*
X131545989Y-106227000D01*
X132054011Y-106227000D01*
X132523362Y-106032588D01*
X132882588Y-105673362D01*
X133077000Y-105204011D01*
X133077000Y-104695989D01*
X132882588Y-104226638D01*
X132523362Y-103867412D01*
X132054011Y-103673000D01*
X131545989Y-103673000D01*
X131076638Y-103867412D01*
X130717412Y-104226638D01*
X130523000Y-104695989D01*
X116327000Y-104695989D01*
X116327000Y-103000000D01*
X116294497Y-102836594D01*
X116237549Y-102751365D01*
X117716000Y-102751365D01*
X117882607Y-102718225D01*
X118023850Y-102623850D01*
X118118225Y-102482607D01*
X118151365Y-102316000D01*
X118151365Y-100284000D01*
X118118225Y-100117393D01*
X118023850Y-99976150D01*
X117882607Y-99881775D01*
X117716000Y-99848635D01*
X117668074Y-99848635D01*
X117740345Y-99800345D01*
X118059276Y-99323031D01*
X118171270Y-98760000D01*
X118059276Y-98196969D01*
X117740345Y-97719655D01*
X117263031Y-97400724D01*
X116842123Y-97317000D01*
X116557877Y-97317000D01*
X116136969Y-97400724D01*
X115659655Y-97719655D01*
X115340724Y-98196969D01*
X115228730Y-98760000D01*
X115340724Y-99323031D01*
X115659655Y-99800345D01*
X115731926Y-99848635D01*
X115684000Y-99848635D01*
X115517393Y-99881775D01*
X115376150Y-99976150D01*
X115281775Y-100117393D01*
X115248635Y-100284000D01*
X115248635Y-102316000D01*
X115281775Y-102482607D01*
X115342173Y-102573000D01*
X111927000Y-102573000D01*
X111927000Y-97183975D01*
X112088548Y-97022427D01*
X112241714Y-96793198D01*
X112313661Y-96431500D01*
X112241714Y-96069802D01*
X112036829Y-95763171D01*
X111730198Y-95558286D01*
X111368500Y-95486339D01*
X111006802Y-95558286D01*
X110777573Y-95711452D01*
X110409074Y-96079951D01*
X110331671Y-96131670D01*
X110279952Y-96209073D01*
X110126786Y-96438303D01*
X110054839Y-96800000D01*
X110073001Y-96891305D01*
X110073000Y-102573000D01*
X103900000Y-102573000D01*
X103736594Y-102605503D01*
X103598065Y-102698065D01*
X103505503Y-102836594D01*
X103473000Y-103000000D01*
X103473000Y-114600000D01*
X103505503Y-114763406D01*
X103598065Y-114901935D01*
X103736594Y-114994497D01*
X103900000Y-115027000D01*
X115900000Y-115027000D01*
X116063406Y-114994497D01*
X116201935Y-114901935D01*
X116294497Y-114763406D01*
X116327000Y-114600000D01*
X116327000Y-112296555D01*
X116373001Y-112342556D01*
X116373000Y-115340288D01*
X114440289Y-117273000D01*
X101927000Y-117273000D01*
X101927000Y-100666831D01*
X105199694Y-97394138D01*
X105252041Y-97359161D01*
X105304972Y-97279945D01*
X105354630Y-97205626D01*
X105390620Y-97151763D01*
X105427000Y-96968870D01*
X105427000Y-96968866D01*
X105439282Y-96907121D01*
X105427000Y-96845376D01*
X105427000Y-95682058D01*
X105535499Y-95727000D01*
X105864501Y-95727000D01*
X106168458Y-95601097D01*
X106401097Y-95368458D01*
X106527000Y-95064501D01*
X106527000Y-94735499D01*
X106401097Y-94431542D01*
X106168458Y-94198903D01*
X105864501Y-94073000D01*
X105535499Y-94073000D01*
X105427000Y-94117942D01*
X105427000Y-94039291D01*
X118725500Y-94039291D01*
X118725500Y-94840709D01*
X119032190Y-95581122D01*
X119598878Y-96147810D01*
X120339291Y-96454500D01*
X121140709Y-96454500D01*
X121881122Y-96147810D01*
X122447810Y-95581122D01*
X122754500Y-94840709D01*
X122754500Y-94039291D01*
X122447810Y-93298878D01*
X121881122Y-92732190D01*
X121140709Y-92425500D01*
X120339291Y-92425500D01*
X119598878Y-92732190D01*
X119032190Y-93298878D01*
X118725500Y-94039291D01*
X105427000Y-94039291D01*
X105427000Y-92575709D01*
X109081090Y-88921620D01*
X109335499Y-89027000D01*
X109664501Y-89027000D01*
X109968458Y-88901097D01*
X110042555Y-88827000D01*
X112157445Y-88827000D01*
X112231542Y-88901097D01*
X112535499Y-89027000D01*
X112864501Y-89027000D01*
X113168458Y-88901097D01*
X113401097Y-88668458D01*
X113527000Y-88364501D01*
X113527000Y-88035499D01*
X113523480Y-88027000D01*
X114581710Y-88027000D01*
X116690658Y-90135949D01*
X116720056Y-90179946D01*
X116764053Y-90209344D01*
X116764056Y-90209347D01*
X116894376Y-90296424D01*
X117048098Y-90327001D01*
X117048102Y-90327001D01*
X117100001Y-90337324D01*
X117151900Y-90327001D01*
X121590479Y-90327001D01*
X121694375Y-90396423D01*
X121848097Y-90427000D01*
X121848102Y-90427000D01*
X121900000Y-90437323D01*
X121951898Y-90427000D01*
X123848102Y-90427000D01*
X123900000Y-90437323D01*
X123951898Y-90427000D01*
X123951903Y-90427000D01*
X124105625Y-90396423D01*
X124279945Y-90279945D01*
X124309345Y-90235945D01*
X125118291Y-89427000D01*
X125364501Y-89427000D01*
X125668458Y-89301097D01*
X125901097Y-89068458D01*
X126027000Y-88764501D01*
X126027000Y-88435499D01*
X125901097Y-88131542D01*
X125668458Y-87898903D01*
X125364501Y-87773000D01*
X125035499Y-87773000D01*
X124731542Y-87898903D01*
X124498903Y-88131542D01*
X124373000Y-88435499D01*
X124373000Y-88681709D01*
X123681710Y-89373000D01*
X123223480Y-89373000D01*
X123227000Y-89364501D01*
X123227000Y-89035499D01*
X123101097Y-88731542D01*
X122868458Y-88498903D01*
X122564501Y-88373000D01*
X122235499Y-88373000D01*
X121931542Y-88498903D01*
X121857445Y-88573000D01*
X118359711Y-88573000D01*
X116387021Y-86600310D01*
X116352041Y-86547959D01*
X116144643Y-86409380D01*
X115961750Y-86373000D01*
X115961746Y-86373000D01*
X115900000Y-86360718D01*
X115838254Y-86373000D01*
X107761746Y-86373000D01*
X107700000Y-86360718D01*
X107638254Y-86373000D01*
X107638250Y-86373000D01*
X107455528Y-86409346D01*
X107455357Y-86409380D01*
X107300308Y-86512980D01*
X107300307Y-86512981D01*
X107247959Y-86547959D01*
X107212981Y-86600307D01*
X106140289Y-87673000D01*
X99542555Y-87673000D01*
X99468458Y-87598903D01*
X99164501Y-87473000D01*
X98835499Y-87473000D01*
X98627000Y-87559363D01*
X98627000Y-87235499D01*
X98501097Y-86931542D01*
X98268458Y-86698903D01*
X97964501Y-86573000D01*
X97635499Y-86573000D01*
X97331542Y-86698903D01*
X97098903Y-86931542D01*
X96973000Y-87235499D01*
X96973000Y-87564501D01*
X97098903Y-87868458D01*
X97173001Y-87942556D01*
X97173000Y-89757465D01*
X96998903Y-89931562D01*
X96873000Y-90235519D01*
X96873000Y-90564521D01*
X96998903Y-90868478D01*
X97231542Y-91101117D01*
X97535499Y-91227020D01*
X97864501Y-91227020D01*
X98168458Y-91101117D01*
X98373000Y-90896575D01*
X98373001Y-92938251D01*
X98360718Y-93000000D01*
X98373001Y-93061749D01*
X98373001Y-96940287D01*
X78100310Y-117212979D01*
X78047959Y-117247959D01*
X77909380Y-117455358D01*
X77873000Y-117638251D01*
X77873000Y-117638254D01*
X77860718Y-117700000D01*
X77873000Y-117761746D01*
X77873001Y-119957444D01*
X77798903Y-120031542D01*
X77673000Y-120335499D01*
X77673000Y-120664501D01*
X77798903Y-120968458D01*
X78031542Y-121201097D01*
X78335499Y-121327000D01*
X78664501Y-121327000D01*
X78968458Y-121201097D01*
X79201097Y-120968458D01*
X79327000Y-120664501D01*
X79327000Y-120335499D01*
X79201097Y-120031542D01*
X79127000Y-119957445D01*
X79127000Y-117959711D01*
X99399693Y-97687019D01*
X99452041Y-97652041D01*
X99528693Y-97537324D01*
X99590620Y-97444643D01*
X99603489Y-97379945D01*
X99627000Y-97261750D01*
X99627000Y-97261747D01*
X99639282Y-97200001D01*
X99627000Y-97138255D01*
X99627000Y-93527000D01*
X99857445Y-93527000D01*
X99931542Y-93601097D01*
X100235499Y-93727000D01*
X100564501Y-93727000D01*
X100868458Y-93601097D01*
X101101097Y-93368458D01*
X101227000Y-93064501D01*
X101227000Y-92735499D01*
X101101097Y-92431542D01*
X100868458Y-92198903D01*
X100564501Y-92073000D01*
X100235499Y-92073000D01*
X99931542Y-92198903D01*
X99857445Y-92273000D01*
X99627000Y-92273000D01*
X99627000Y-88927000D01*
X106338254Y-88927000D01*
X106400000Y-88939282D01*
X106461746Y-88927000D01*
X106461750Y-88927000D01*
X106644643Y-88890620D01*
X106852041Y-88752041D01*
X106887020Y-88699691D01*
X107959712Y-87627000D01*
X108036587Y-87627000D01*
X103664055Y-91999533D01*
X103620055Y-92028933D01*
X103503577Y-92203254D01*
X103473000Y-92356976D01*
X103473000Y-92356980D01*
X103462677Y-92408878D01*
X103473000Y-92460776D01*
X103473001Y-96781708D01*
X100064055Y-100190655D01*
X100020055Y-100220055D01*
X99903577Y-100394376D01*
X99873000Y-100548098D01*
X99873000Y-100548102D01*
X99862677Y-100600000D01*
X99873000Y-100651898D01*
X99873001Y-104281709D01*
X86464055Y-117690655D01*
X86420055Y-117720055D01*
X86303577Y-117894376D01*
X86273000Y-118048098D01*
X86273000Y-118048102D01*
X86262677Y-118100000D01*
X86273000Y-118151898D01*
X86273001Y-119857444D01*
X86098903Y-120031542D01*
X85973000Y-120335499D01*
X85973000Y-120664501D01*
X86098903Y-120968458D01*
X86331542Y-121201097D01*
X86635499Y-121327000D01*
X86964501Y-121327000D01*
X87268458Y-121201097D01*
X87501097Y-120968458D01*
X87627000Y-120664501D01*
X87627000Y-120335499D01*
X87501097Y-120031542D01*
X87327000Y-119857445D01*
X87327000Y-118318290D01*
X100673001Y-104972289D01*
X100673000Y-115438250D01*
X100673000Y-115438251D01*
X100673001Y-117273000D01*
X99861744Y-117273000D01*
X99799999Y-117260718D01*
X99738254Y-117273000D01*
X99738250Y-117273000D01*
X99555357Y-117309380D01*
X99347959Y-117447959D01*
X99312981Y-117500307D01*
X91540289Y-125273000D01*
X85961746Y-125273000D01*
X85900000Y-125260718D01*
X85838254Y-125273000D01*
X85838250Y-125273000D01*
X85655357Y-125309380D01*
X85447959Y-125447959D01*
X85412979Y-125500310D01*
X84780308Y-126132981D01*
X84727960Y-126167959D01*
X84692982Y-126220307D01*
X84692981Y-126220308D01*
X84589380Y-126375358D01*
X84589122Y-126376655D01*
X84484961Y-126419800D01*
X84139800Y-126764961D01*
X83953000Y-127215935D01*
X83953000Y-127704065D01*
X84139800Y-128155039D01*
X84484961Y-128500200D01*
X84660715Y-128573000D01*
X83159285Y-128573000D01*
X83335039Y-128500200D01*
X83680200Y-128155039D01*
X83867000Y-127704065D01*
X83867000Y-127215935D01*
X83680200Y-126764961D01*
X83335039Y-126419800D01*
X82884065Y-126233000D01*
X82395935Y-126233000D01*
X81944961Y-126419800D01*
X81599800Y-126764961D01*
X81413000Y-127215935D01*
X81413000Y-127704065D01*
X81599800Y-128155039D01*
X81944961Y-128500200D01*
X82120715Y-128573000D01*
X74318291Y-128573000D01*
X72272291Y-126527000D01*
X72564501Y-126527000D01*
X72868458Y-126401097D01*
X73101097Y-126168458D01*
X73227000Y-125864501D01*
X73227000Y-125535499D01*
X73101097Y-125231542D01*
X73027000Y-125157445D01*
X73027000Y-124977742D01*
X73039282Y-124915997D01*
X73027000Y-124854252D01*
X73027000Y-124854248D01*
X72990620Y-124671355D01*
X72852041Y-124463957D01*
X72799693Y-124428979D01*
X70271021Y-121900308D01*
X70236042Y-121847958D01*
X70028644Y-121709379D01*
X69845751Y-121672999D01*
X69845747Y-121672999D01*
X69784001Y-121660717D01*
X69722255Y-121672999D01*
X68061747Y-121672999D01*
X68000001Y-121660717D01*
X67938255Y-121672999D01*
X67938251Y-121672999D01*
X67755358Y-121709379D01*
X67547960Y-121847958D01*
X67512980Y-121900309D01*
X64540289Y-124873000D01*
X57059712Y-124873000D01*
X56527000Y-124340289D01*
X56527000Y-121796261D01*
X58168000Y-121796261D01*
X58168000Y-122403739D01*
X58400472Y-122964976D01*
X58830024Y-123394528D01*
X59391261Y-123627000D01*
X59998739Y-123627000D01*
X60559976Y-123394528D01*
X60989528Y-122964976D01*
X61222000Y-122403739D01*
X61222000Y-121796261D01*
X60989528Y-121235024D01*
X60559976Y-120805472D01*
X59998739Y-120573000D01*
X59391261Y-120573000D01*
X58830024Y-120805472D01*
X58400472Y-121235024D01*
X58168000Y-121796261D01*
X56527000Y-121796261D01*
X56527000Y-119735499D01*
X71873000Y-119735499D01*
X71873000Y-120064501D01*
X71998903Y-120368458D01*
X72231542Y-120601097D01*
X72535499Y-120727000D01*
X72864501Y-120727000D01*
X73168458Y-120601097D01*
X73234056Y-120535499D01*
X75273000Y-120535499D01*
X75273000Y-120864501D01*
X75398903Y-121168458D01*
X75631542Y-121401097D01*
X75935499Y-121527000D01*
X76264501Y-121527000D01*
X76568458Y-121401097D01*
X76801097Y-121168458D01*
X76927000Y-120864501D01*
X76927000Y-120535499D01*
X76801097Y-120231542D01*
X76627000Y-120057445D01*
X76627000Y-115818290D01*
X77535948Y-114909343D01*
X77579945Y-114879945D01*
X77609343Y-114835948D01*
X77609346Y-114835945D01*
X77696422Y-114705626D01*
X77696423Y-114705625D01*
X77727000Y-114551903D01*
X77727000Y-114551898D01*
X77737323Y-114500000D01*
X77727000Y-114448102D01*
X77727000Y-98818290D01*
X89118291Y-87427000D01*
X89364501Y-87427000D01*
X89668458Y-87301097D01*
X89842555Y-87127000D01*
X94548098Y-87127000D01*
X94599996Y-87137323D01*
X94651894Y-87127000D01*
X94651899Y-87127000D01*
X94805621Y-87096423D01*
X94979941Y-86979945D01*
X95009341Y-86935945D01*
X95309346Y-86635940D01*
X97018287Y-84927000D01*
X109659363Y-84927000D01*
X109573000Y-85135499D01*
X109573000Y-85464501D01*
X109698903Y-85768458D01*
X109931542Y-86001097D01*
X110235499Y-86127000D01*
X110564501Y-86127000D01*
X110868458Y-86001097D01*
X111048754Y-85820801D01*
X111171310Y-85796423D01*
X111345630Y-85679945D01*
X111375030Y-85635945D01*
X111383975Y-85627000D01*
X121232133Y-85627000D01*
X121215335Y-85711450D01*
X121215335Y-87908550D01*
X121248475Y-88075157D01*
X121342850Y-88216400D01*
X121484093Y-88310775D01*
X121650700Y-88343915D01*
X123149300Y-88343915D01*
X123315907Y-88310775D01*
X123457150Y-88216400D01*
X123551525Y-88075157D01*
X123584665Y-87908550D01*
X123584665Y-85711450D01*
X123567867Y-85627000D01*
X126081710Y-85627000D01*
X126873001Y-86418292D01*
X126873000Y-90881709D01*
X125964053Y-91790657D01*
X125920056Y-91820055D01*
X125890658Y-91864052D01*
X125890654Y-91864056D01*
X125803578Y-91994375D01*
X125762677Y-92200000D01*
X125773001Y-92251903D01*
X125773000Y-95148102D01*
X125762677Y-95200000D01*
X125773000Y-95251898D01*
X125773000Y-95251902D01*
X125803577Y-95405624D01*
X125920055Y-95579945D01*
X125964055Y-95609345D01*
X126612994Y-96258285D01*
X126473000Y-96596261D01*
X126473000Y-97203739D01*
X126705472Y-97764976D01*
X127135024Y-98194528D01*
X127696261Y-98427000D01*
X128303739Y-98427000D01*
X128864976Y-98194528D01*
X129294528Y-97764976D01*
X129509499Y-97245989D01*
X130723000Y-97245989D01*
X130723000Y-97754011D01*
X130917412Y-98223362D01*
X131276638Y-98582588D01*
X131745989Y-98777000D01*
X132254011Y-98777000D01*
X132723362Y-98582588D01*
X133082588Y-98223362D01*
X133176656Y-97996261D01*
X133973000Y-97996261D01*
X133973000Y-98603739D01*
X134205472Y-99164976D01*
X134635024Y-99594528D01*
X135196261Y-99827000D01*
X135803739Y-99827000D01*
X136364976Y-99594528D01*
X136794528Y-99164976D01*
X137027000Y-98603739D01*
X137027000Y-97996261D01*
X136794528Y-97435024D01*
X136364976Y-97005472D01*
X135803739Y-96773000D01*
X135196261Y-96773000D01*
X134635024Y-97005472D01*
X134205472Y-97435024D01*
X133973000Y-97996261D01*
X133176656Y-97996261D01*
X133277000Y-97754011D01*
X133277000Y-97245989D01*
X133082588Y-96776638D01*
X132723362Y-96417412D01*
X132254011Y-96223000D01*
X131745989Y-96223000D01*
X131276638Y-96417412D01*
X130917412Y-96776638D01*
X130723000Y-97245989D01*
X129509499Y-97245989D01*
X129527000Y-97203739D01*
X129527000Y-96596261D01*
X129294528Y-96035024D01*
X128864976Y-95605472D01*
X128303739Y-95373000D01*
X127696261Y-95373000D01*
X127358285Y-95512994D01*
X126827000Y-94981710D01*
X126827000Y-94086504D01*
X127135024Y-94394528D01*
X127696261Y-94627000D01*
X128303739Y-94627000D01*
X128864976Y-94394528D01*
X129294528Y-93964976D01*
X129527000Y-93403739D01*
X129527000Y-92796261D01*
X129299070Y-92245989D01*
X130723000Y-92245989D01*
X130723000Y-92754011D01*
X130917412Y-93223362D01*
X131276638Y-93582588D01*
X131745989Y-93777000D01*
X132254011Y-93777000D01*
X132723362Y-93582588D01*
X133082588Y-93223362D01*
X133277000Y-92754011D01*
X133277000Y-92245989D01*
X133082588Y-91776638D01*
X132723362Y-91417412D01*
X132672300Y-91396261D01*
X133973000Y-91396261D01*
X133973000Y-92003739D01*
X134205472Y-92564976D01*
X134635024Y-92994528D01*
X135196261Y-93227000D01*
X135803739Y-93227000D01*
X136364976Y-92994528D01*
X136794528Y-92564976D01*
X137027000Y-92003739D01*
X137027000Y-91396261D01*
X136794528Y-90835024D01*
X136364976Y-90405472D01*
X135803739Y-90173000D01*
X135196261Y-90173000D01*
X134635024Y-90405472D01*
X134205472Y-90835024D01*
X133973000Y-91396261D01*
X132672300Y-91396261D01*
X132254011Y-91223000D01*
X131745989Y-91223000D01*
X131276638Y-91417412D01*
X130917412Y-91776638D01*
X130723000Y-92245989D01*
X129299070Y-92245989D01*
X129294528Y-92235024D01*
X128864976Y-91805472D01*
X128527000Y-91665478D01*
X128527000Y-86051899D01*
X128537323Y-86000000D01*
X128527000Y-85948101D01*
X128527000Y-85948097D01*
X128497324Y-85798903D01*
X128496423Y-85794374D01*
X128409346Y-85664055D01*
X128409343Y-85664052D01*
X128379945Y-85620055D01*
X128335947Y-85590657D01*
X127148086Y-84402796D01*
X127159343Y-84385948D01*
X127159346Y-84385945D01*
X127246423Y-84255626D01*
X127258606Y-84194375D01*
X127277000Y-84101903D01*
X127277000Y-84101899D01*
X127287323Y-84050000D01*
X127277000Y-83998101D01*
X127277000Y-81709804D01*
X127445039Y-81640200D01*
X127790200Y-81295039D01*
X127977000Y-80844065D01*
X127977000Y-80355935D01*
X127790200Y-79904961D01*
X127445039Y-79559800D01*
X126994065Y-79373000D01*
X126505935Y-79373000D01*
X126054961Y-79559800D01*
X125709800Y-79904961D01*
X125523000Y-80355935D01*
X125523000Y-80844065D01*
X125709800Y-81295039D01*
X126054961Y-81640200D01*
X126223000Y-81709804D01*
X126223001Y-83831709D01*
X126181710Y-83873000D01*
X96851893Y-83873000D01*
X96799995Y-83862677D01*
X96748097Y-83873000D01*
X96748093Y-83873000D01*
X96594371Y-83903577D01*
X96594369Y-83903578D01*
X96594370Y-83903578D01*
X96464051Y-83990654D01*
X96464048Y-83990657D01*
X96420051Y-84020055D01*
X96390653Y-84064053D01*
X94381706Y-86073000D01*
X89842555Y-86073000D01*
X89668458Y-85898903D01*
X89364501Y-85773000D01*
X89035499Y-85773000D01*
X88731542Y-85898903D01*
X88498903Y-86131542D01*
X88373000Y-86435499D01*
X88373000Y-86681709D01*
X76864053Y-98190657D01*
X76820056Y-98220055D01*
X76790658Y-98264052D01*
X76790654Y-98264056D01*
X76703578Y-98394375D01*
X76662677Y-98600000D01*
X76673001Y-98651903D01*
X76673000Y-114281709D01*
X75764053Y-115190657D01*
X75720056Y-115220055D01*
X75690658Y-115264052D01*
X75690654Y-115264056D01*
X75603578Y-115394375D01*
X75562677Y-115600000D01*
X75573001Y-115651903D01*
X75573000Y-120057445D01*
X75398903Y-120231542D01*
X75273000Y-120535499D01*
X73234056Y-120535499D01*
X73401097Y-120368458D01*
X73527000Y-120064501D01*
X73527000Y-119735499D01*
X73401097Y-119431542D01*
X73374580Y-119405025D01*
X74435948Y-118343658D01*
X74479945Y-118314260D01*
X74509343Y-118270263D01*
X74509346Y-118270260D01*
X74593280Y-118144644D01*
X74596423Y-118139940D01*
X74627000Y-117986218D01*
X74627000Y-117986213D01*
X74637323Y-117934315D01*
X74627000Y-117882417D01*
X74627000Y-94618290D01*
X81918291Y-87327000D01*
X82164501Y-87327000D01*
X82468458Y-87201097D01*
X82701097Y-86968458D01*
X82827000Y-86664501D01*
X82827000Y-86335499D01*
X82701097Y-86031542D01*
X82468458Y-85798903D01*
X82164501Y-85673000D01*
X81835499Y-85673000D01*
X81531542Y-85798903D01*
X81298903Y-86031542D01*
X81173000Y-86335499D01*
X81173000Y-86581709D01*
X73764053Y-93990657D01*
X73720056Y-94020055D01*
X73690658Y-94064052D01*
X73690654Y-94064056D01*
X73603578Y-94194375D01*
X73562677Y-94400000D01*
X73573001Y-94451903D01*
X73573000Y-117716024D01*
X72364053Y-118924972D01*
X72320056Y-118954370D01*
X72290658Y-118998367D01*
X72290654Y-118998371D01*
X72240789Y-119073000D01*
X72203578Y-119128690D01*
X72179200Y-119251245D01*
X71998903Y-119431542D01*
X71873000Y-119735499D01*
X56527000Y-119735499D01*
X56527000Y-112216855D01*
X57126707Y-111617149D01*
X57179054Y-111582172D01*
X57317633Y-111374774D01*
X57354013Y-111191881D01*
X57354013Y-111191878D01*
X57366295Y-111130132D01*
X57354013Y-111068386D01*
X57354013Y-110188759D01*
X57366295Y-110127013D01*
X57354013Y-110065267D01*
X57354013Y-110065263D01*
X57317633Y-109882370D01*
X57179054Y-109674972D01*
X57126706Y-109639994D01*
X55910990Y-108424279D01*
X55910990Y-106206821D01*
X56044033Y-106295718D01*
X56420489Y-106370600D01*
X56979511Y-106370600D01*
X57355967Y-106295718D01*
X57782870Y-106010470D01*
X58068118Y-105583567D01*
X58168284Y-105080000D01*
X58068118Y-104576433D01*
X57782870Y-104149530D01*
X57355967Y-103864282D01*
X57083074Y-103810000D01*
X57355967Y-103755718D01*
X57782870Y-103470470D01*
X58068118Y-103043567D01*
X58168284Y-102540000D01*
X58068118Y-102036433D01*
X57782870Y-101609530D01*
X57355967Y-101324282D01*
X56979511Y-101249400D01*
X56420489Y-101249400D01*
X56044033Y-101324282D01*
X55617130Y-101609530D01*
X55331882Y-102036433D01*
X55231716Y-102540000D01*
X55302920Y-102897968D01*
X55202000Y-102998889D01*
X55202000Y-81834000D01*
X66623000Y-81834000D01*
X66623000Y-84788000D01*
X90977000Y-84788000D01*
X90977000Y-81834000D01*
X66623000Y-81834000D01*
X55202000Y-81834000D01*
X55202000Y-77502000D01*
X68789068Y-77502000D01*
X68232190Y-78058878D01*
G36*
X73690657Y-129435948D02*
X73720055Y-129479945D01*
X73747076Y-129498000D01*
X55202000Y-129498000D01*
X55202000Y-127059291D01*
X66655500Y-127059291D01*
X66655500Y-127860709D01*
X66962190Y-128601122D01*
X67528878Y-129167810D01*
X68269291Y-129474500D01*
X69070709Y-129474500D01*
X69811122Y-129167810D01*
X70377810Y-128601122D01*
X70684500Y-127860709D01*
X70684500Y-127059291D01*
X70377810Y-126318878D01*
X69811122Y-125752190D01*
X69070709Y-125445500D01*
X68269291Y-125445500D01*
X67528878Y-125752190D01*
X66962190Y-126318878D01*
X66655500Y-127059291D01*
X55202000Y-127059291D01*
X55202000Y-125647290D01*
X56190656Y-126635947D01*
X56220055Y-126679945D01*
X56264052Y-126709343D01*
X56264055Y-126709346D01*
X56347289Y-126764961D01*
X56394375Y-126796423D01*
X56548097Y-126827000D01*
X56548101Y-126827000D01*
X56600000Y-126837323D01*
X56651899Y-126827000D01*
X64948102Y-126827000D01*
X65000000Y-126837323D01*
X65051898Y-126827000D01*
X65051903Y-126827000D01*
X65205625Y-126796423D01*
X65379945Y-126679945D01*
X65409345Y-126635945D01*
X68150000Y-123895290D01*
X73690657Y-129435948D01*
X73690657Y-129435948D01*
G37*
X73690657Y-129435948D02*
X73720055Y-129479945D01*
X73747076Y-129498000D01*
X55202000Y-129498000D01*
X55202000Y-127059291D01*
X66655500Y-127059291D01*
X66655500Y-127860709D01*
X66962190Y-128601122D01*
X67528878Y-129167810D01*
X68269291Y-129474500D01*
X69070709Y-129474500D01*
X69811122Y-129167810D01*
X70377810Y-128601122D01*
X70684500Y-127860709D01*
X70684500Y-127059291D01*
X70377810Y-126318878D01*
X69811122Y-125752190D01*
X69070709Y-125445500D01*
X68269291Y-125445500D01*
X67528878Y-125752190D01*
X66962190Y-126318878D01*
X66655500Y-127059291D01*
X55202000Y-127059291D01*
X55202000Y-125647290D01*
X56190656Y-126635947D01*
X56220055Y-126679945D01*
X56264052Y-126709343D01*
X56264055Y-126709346D01*
X56347289Y-126764961D01*
X56394375Y-126796423D01*
X56548097Y-126827000D01*
X56548101Y-126827000D01*
X56600000Y-126837323D01*
X56651899Y-126827000D01*
X64948102Y-126827000D01*
X65000000Y-126837323D01*
X65051898Y-126827000D01*
X65051903Y-126827000D01*
X65205625Y-126796423D01*
X65379945Y-126679945D01*
X65409345Y-126635945D01*
X68150000Y-123895290D01*
X73690657Y-129435948D01*
G04 #@! TO.N,VCC*
G36*
X115773000Y-114473000D02*
X104027000Y-114473000D01*
X104027000Y-103127000D01*
X115773000Y-103127000D01*
X115773000Y-114473000D01*
X115773000Y-114473000D01*
G37*
X115773000Y-114473000D02*
X104027000Y-114473000D01*
X104027000Y-103127000D01*
X115773000Y-103127000D01*
X115773000Y-114473000D01*
G04 #@! TD*
M02*
