%FSLAX45Y45*%
G04 Gerber Fmt 4.5, Leading zero omitted, Abs format (unit mm)*
G04 Created by KiCad (PCBNEW 5.0.1-33cea8e~68~ubuntu18.04.1) date Di 27 Nov 2018 01:55:21 CET*
%MOMM*%
%LPD*%
G01*
G04 APERTURE LIST*
%ADD10C,0.150000*%
%ADD11C,0.200000*%
%ADD12C,0.300000*%
G04 APERTURE END LIST*
D10*
X5470000Y-7700000D02*
X5470000Y-13000000D01*
X13950000Y-7700000D02*
X5470000Y-7700000D01*
X13950000Y-13000000D02*
X13950000Y-7700000D01*
X5470000Y-13000000D02*
X13950000Y-13000000D01*
D11*
X13142500Y-9192500D02*
X13257500Y-9307500D01*
X13257500Y-9192500D02*
X13142500Y-9307500D01*
X13142500Y-9692500D02*
X13257500Y-9807500D01*
X13257500Y-9692500D02*
X13142500Y-9807500D01*
X7025750Y-12746000D02*
G75*
G03X7025750Y-12746000I-158750J0D01*
G01*
X7152750Y-7920000D02*
G75*
G03X7152750Y-7920000I-158750J0D01*
G01*
X12232750Y-9444000D02*
G75*
G03X12232750Y-9444000I-158750J0D01*
G01*
X12232750Y-12238000D02*
G75*
G03X12232750Y-12238000I-158750J0D01*
G01*
D12*
X5748928Y-13473214D02*
X5748928Y-13173214D01*
X5820357Y-13173214D01*
X5863214Y-13187500D01*
X5891786Y-13216071D01*
X5906071Y-13244643D01*
X5920357Y-13301786D01*
X5920357Y-13344643D01*
X5906071Y-13401786D01*
X5891786Y-13430357D01*
X5863214Y-13458929D01*
X5820357Y-13473214D01*
X5748928Y-13473214D01*
X6048928Y-13473214D02*
X6048928Y-13273214D01*
X6048928Y-13330357D02*
X6063214Y-13301786D01*
X6077500Y-13287500D01*
X6106071Y-13273214D01*
X6134643Y-13273214D01*
X6234643Y-13473214D02*
X6234643Y-13273214D01*
X6234643Y-13173214D02*
X6220357Y-13187500D01*
X6234643Y-13201786D01*
X6248928Y-13187500D01*
X6234643Y-13173214D01*
X6234643Y-13201786D01*
X6420357Y-13473214D02*
X6391786Y-13458929D01*
X6377500Y-13430357D01*
X6377500Y-13173214D01*
X6577500Y-13473214D02*
X6548928Y-13458929D01*
X6534643Y-13430357D01*
X6534643Y-13173214D01*
X6920357Y-13473214D02*
X6920357Y-13173214D01*
X7020357Y-13387500D01*
X7120357Y-13173214D01*
X7120357Y-13473214D01*
X7391786Y-13473214D02*
X7391786Y-13316071D01*
X7377500Y-13287500D01*
X7348928Y-13273214D01*
X7291786Y-13273214D01*
X7263214Y-13287500D01*
X7391786Y-13458929D02*
X7363214Y-13473214D01*
X7291786Y-13473214D01*
X7263214Y-13458929D01*
X7248928Y-13430357D01*
X7248928Y-13401786D01*
X7263214Y-13373214D01*
X7291786Y-13358929D01*
X7363214Y-13358929D01*
X7391786Y-13344643D01*
X7534643Y-13273214D02*
X7534643Y-13573214D01*
X7534643Y-13287500D02*
X7563214Y-13273214D01*
X7620357Y-13273214D01*
X7648928Y-13287500D01*
X7663214Y-13301786D01*
X7677500Y-13330357D01*
X7677500Y-13416071D01*
X7663214Y-13444643D01*
X7648928Y-13458929D01*
X7620357Y-13473214D01*
X7563214Y-13473214D01*
X7534643Y-13458929D01*
X7806071Y-13444643D02*
X7820357Y-13458929D01*
X7806071Y-13473214D01*
X7791786Y-13458929D01*
X7806071Y-13444643D01*
X7806071Y-13473214D01*
X7806071Y-13287500D02*
X7820357Y-13301786D01*
X7806071Y-13316071D01*
X7791786Y-13301786D01*
X7806071Y-13287500D01*
X7806071Y-13316071D01*
X5347500Y-13910000D02*
X5462500Y-14025000D01*
X5462500Y-13910000D02*
X5347500Y-14025000D01*
X5906071Y-14103214D02*
X5734643Y-14103214D01*
X5820357Y-14103214D02*
X5820357Y-13803214D01*
X5791786Y-13846071D01*
X5763214Y-13874643D01*
X5734643Y-13888929D01*
X6034643Y-14074643D02*
X6048928Y-14088929D01*
X6034643Y-14103214D01*
X6020357Y-14088929D01*
X6034643Y-14074643D01*
X6034643Y-14103214D01*
X6334643Y-14103214D02*
X6163214Y-14103214D01*
X6248928Y-14103214D02*
X6248928Y-13803214D01*
X6220357Y-13846071D01*
X6191786Y-13874643D01*
X6163214Y-13888929D01*
X6606071Y-13803214D02*
X6463214Y-13803214D01*
X6448928Y-13946071D01*
X6463214Y-13931786D01*
X6491786Y-13917500D01*
X6563214Y-13917500D01*
X6591786Y-13931786D01*
X6606071Y-13946071D01*
X6620357Y-13974643D01*
X6620357Y-14046071D01*
X6606071Y-14074643D01*
X6591786Y-14088929D01*
X6563214Y-14103214D01*
X6491786Y-14103214D01*
X6463214Y-14088929D01*
X6448928Y-14074643D01*
X6748928Y-14103214D02*
X6748928Y-13903214D01*
X6748928Y-13931786D02*
X6763214Y-13917500D01*
X6791786Y-13903214D01*
X6834643Y-13903214D01*
X6863214Y-13917500D01*
X6877500Y-13946071D01*
X6877500Y-14103214D01*
X6877500Y-13946071D02*
X6891786Y-13917500D01*
X6920357Y-13903214D01*
X6963214Y-13903214D01*
X6991786Y-13917500D01*
X7006071Y-13946071D01*
X7006071Y-14103214D01*
X7148928Y-14103214D02*
X7148928Y-13903214D01*
X7148928Y-13931786D02*
X7163214Y-13917500D01*
X7191786Y-13903214D01*
X7234643Y-13903214D01*
X7263214Y-13917500D01*
X7277500Y-13946071D01*
X7277500Y-14103214D01*
X7277500Y-13946071D02*
X7291786Y-13917500D01*
X7320357Y-13903214D01*
X7363214Y-13903214D01*
X7391786Y-13917500D01*
X7406071Y-13946071D01*
X7406071Y-14103214D01*
X7991786Y-13788929D02*
X7734643Y-14174643D01*
X8377500Y-13803214D02*
X8406071Y-13803214D01*
X8434643Y-13817500D01*
X8448928Y-13831786D01*
X8463214Y-13860357D01*
X8477500Y-13917500D01*
X8477500Y-13988929D01*
X8463214Y-14046071D01*
X8448928Y-14074643D01*
X8434643Y-14088929D01*
X8406071Y-14103214D01*
X8377500Y-14103214D01*
X8348928Y-14088929D01*
X8334643Y-14074643D01*
X8320357Y-14046071D01*
X8306071Y-13988929D01*
X8306071Y-13917500D01*
X8320357Y-13860357D01*
X8334643Y-13831786D01*
X8348928Y-13817500D01*
X8377500Y-13803214D01*
X8606071Y-14074643D02*
X8620357Y-14088929D01*
X8606071Y-14103214D01*
X8591786Y-14088929D01*
X8606071Y-14074643D01*
X8606071Y-14103214D01*
X8806071Y-13803214D02*
X8834643Y-13803214D01*
X8863214Y-13817500D01*
X8877500Y-13831786D01*
X8891786Y-13860357D01*
X8906071Y-13917500D01*
X8906071Y-13988929D01*
X8891786Y-14046071D01*
X8877500Y-14074643D01*
X8863214Y-14088929D01*
X8834643Y-14103214D01*
X8806071Y-14103214D01*
X8777500Y-14088929D01*
X8763214Y-14074643D01*
X8748928Y-14046071D01*
X8734643Y-13988929D01*
X8734643Y-13917500D01*
X8748928Y-13860357D01*
X8763214Y-13831786D01*
X8777500Y-13817500D01*
X8806071Y-13803214D01*
X9163214Y-13903214D02*
X9163214Y-14103214D01*
X9091786Y-13788929D02*
X9020357Y-14003214D01*
X9206071Y-14003214D01*
X9463214Y-13803214D02*
X9320357Y-13803214D01*
X9306071Y-13946071D01*
X9320357Y-13931786D01*
X9348928Y-13917500D01*
X9420357Y-13917500D01*
X9448928Y-13931786D01*
X9463214Y-13946071D01*
X9477500Y-13974643D01*
X9477500Y-14046071D01*
X9463214Y-14074643D01*
X9448928Y-14088929D01*
X9420357Y-14103214D01*
X9348928Y-14103214D01*
X9320357Y-14088929D01*
X9306071Y-14074643D01*
X9591786Y-13803214D02*
X9591786Y-13860357D01*
X9706071Y-13803214D02*
X9706071Y-13860357D01*
X10148928Y-14217500D02*
X10134643Y-14203214D01*
X10106071Y-14160357D01*
X10091786Y-14131786D01*
X10077500Y-14088929D01*
X10063214Y-14017500D01*
X10063214Y-13960357D01*
X10077500Y-13888929D01*
X10091786Y-13846071D01*
X10106071Y-13817500D01*
X10134643Y-13774643D01*
X10148928Y-13760357D01*
X10248928Y-13831786D02*
X10263214Y-13817500D01*
X10291786Y-13803214D01*
X10363214Y-13803214D01*
X10391786Y-13817500D01*
X10406071Y-13831786D01*
X10420357Y-13860357D01*
X10420357Y-13888929D01*
X10406071Y-13931786D01*
X10234643Y-14103214D01*
X10420357Y-14103214D01*
X10777500Y-14103214D02*
X10777500Y-13803214D01*
X10906071Y-14103214D02*
X10906071Y-13946071D01*
X10891786Y-13917500D01*
X10863214Y-13903214D01*
X10820357Y-13903214D01*
X10791786Y-13917500D01*
X10777500Y-13931786D01*
X11091786Y-14103214D02*
X11063214Y-14088929D01*
X11048928Y-14074643D01*
X11034643Y-14046071D01*
X11034643Y-13960357D01*
X11048928Y-13931786D01*
X11063214Y-13917500D01*
X11091786Y-13903214D01*
X11134643Y-13903214D01*
X11163214Y-13917500D01*
X11177500Y-13931786D01*
X11191786Y-13960357D01*
X11191786Y-14046071D01*
X11177500Y-14074643D01*
X11163214Y-14088929D01*
X11134643Y-14103214D01*
X11091786Y-14103214D01*
X11363214Y-14103214D02*
X11334643Y-14088929D01*
X11320357Y-14060357D01*
X11320357Y-13803214D01*
X11591786Y-14088929D02*
X11563214Y-14103214D01*
X11506071Y-14103214D01*
X11477500Y-14088929D01*
X11463214Y-14060357D01*
X11463214Y-13946071D01*
X11477500Y-13917500D01*
X11506071Y-13903214D01*
X11563214Y-13903214D01*
X11591786Y-13917500D01*
X11606071Y-13946071D01*
X11606071Y-13974643D01*
X11463214Y-14003214D01*
X11720357Y-14088929D02*
X11748928Y-14103214D01*
X11806071Y-14103214D01*
X11834643Y-14088929D01*
X11848928Y-14060357D01*
X11848928Y-14046071D01*
X11834643Y-14017500D01*
X11806071Y-14003214D01*
X11763214Y-14003214D01*
X11734643Y-13988929D01*
X11720357Y-13960357D01*
X11720357Y-13946071D01*
X11734643Y-13917500D01*
X11763214Y-13903214D01*
X11806071Y-13903214D01*
X11834643Y-13917500D01*
X11948928Y-14217500D02*
X11963214Y-14203214D01*
X11991786Y-14160357D01*
X12006071Y-14131786D01*
X12020357Y-14088929D01*
X12034643Y-14017500D01*
X12034643Y-13960357D01*
X12020357Y-13888929D01*
X12006071Y-13846071D01*
X11991786Y-13817500D01*
X11963214Y-13774643D01*
X11948928Y-13760357D01*
X12491786Y-14217500D02*
X12477500Y-14203214D01*
X12448928Y-14160357D01*
X12434643Y-14131786D01*
X12420357Y-14088929D01*
X12406071Y-14017500D01*
X12406071Y-13960357D01*
X12420357Y-13888929D01*
X12434643Y-13846071D01*
X12448928Y-13817500D01*
X12477500Y-13774643D01*
X12491786Y-13760357D01*
X12606071Y-13903214D02*
X12606071Y-14103214D01*
X12606071Y-13931786D02*
X12620357Y-13917500D01*
X12648928Y-13903214D01*
X12691786Y-13903214D01*
X12720357Y-13917500D01*
X12734643Y-13946071D01*
X12734643Y-14103214D01*
X12920357Y-14103214D02*
X12891786Y-14088929D01*
X12877500Y-14074643D01*
X12863214Y-14046071D01*
X12863214Y-13960357D01*
X12877500Y-13931786D01*
X12891786Y-13917500D01*
X12920357Y-13903214D01*
X12963214Y-13903214D01*
X12991786Y-13917500D01*
X13006071Y-13931786D01*
X13020357Y-13960357D01*
X13020357Y-14046071D01*
X13006071Y-14074643D01*
X12991786Y-14088929D01*
X12963214Y-14103214D01*
X12920357Y-14103214D01*
X13106071Y-13903214D02*
X13220357Y-13903214D01*
X13148928Y-13803214D02*
X13148928Y-14060357D01*
X13163214Y-14088929D01*
X13191786Y-14103214D01*
X13220357Y-14103214D01*
X13548928Y-13903214D02*
X13548928Y-14203214D01*
X13548928Y-13917500D02*
X13577500Y-13903214D01*
X13634643Y-13903214D01*
X13663214Y-13917500D01*
X13677500Y-13931786D01*
X13691786Y-13960357D01*
X13691786Y-14046071D01*
X13677500Y-14074643D01*
X13663214Y-14088929D01*
X13634643Y-14103214D01*
X13577500Y-14103214D01*
X13548928Y-14088929D01*
X13863214Y-14103214D02*
X13834643Y-14088929D01*
X13820357Y-14060357D01*
X13820357Y-13803214D01*
X14106071Y-14103214D02*
X14106071Y-13946071D01*
X14091786Y-13917500D01*
X14063214Y-13903214D01*
X14006071Y-13903214D01*
X13977500Y-13917500D01*
X14106071Y-14088929D02*
X14077500Y-14103214D01*
X14006071Y-14103214D01*
X13977500Y-14088929D01*
X13963214Y-14060357D01*
X13963214Y-14031786D01*
X13977500Y-14003214D01*
X14006071Y-13988929D01*
X14077500Y-13988929D01*
X14106071Y-13974643D01*
X14206071Y-13903214D02*
X14320357Y-13903214D01*
X14248928Y-13803214D02*
X14248928Y-14060357D01*
X14263214Y-14088929D01*
X14291786Y-14103214D01*
X14320357Y-14103214D01*
X14534643Y-14088929D02*
X14506071Y-14103214D01*
X14448928Y-14103214D01*
X14420357Y-14088929D01*
X14406071Y-14060357D01*
X14406071Y-13946071D01*
X14420357Y-13917500D01*
X14448928Y-13903214D01*
X14506071Y-13903214D01*
X14534643Y-13917500D01*
X14548928Y-13946071D01*
X14548928Y-13974643D01*
X14406071Y-14003214D01*
X14806071Y-14103214D02*
X14806071Y-13803214D01*
X14806071Y-14088929D02*
X14777500Y-14103214D01*
X14720357Y-14103214D01*
X14691786Y-14088929D01*
X14677500Y-14074643D01*
X14663214Y-14046071D01*
X14663214Y-13960357D01*
X14677500Y-13931786D01*
X14691786Y-13917500D01*
X14720357Y-13903214D01*
X14777500Y-13903214D01*
X14806071Y-13917500D01*
X14920357Y-14217500D02*
X14934643Y-14203214D01*
X14963214Y-14160357D01*
X14977500Y-14131786D01*
X14991786Y-14088929D01*
X15006071Y-14017500D01*
X15006071Y-13960357D01*
X14991786Y-13888929D01*
X14977500Y-13846071D01*
X14963214Y-13817500D01*
X14934643Y-13774643D01*
X14920357Y-13760357D01*
X5462500Y-14363500D02*
G75*
G03X5462500Y-14363500I-158750J0D01*
G01*
X5720357Y-14199214D02*
X5906071Y-14199214D01*
X5806071Y-14313500D01*
X5848928Y-14313500D01*
X5877500Y-14327786D01*
X5891786Y-14342071D01*
X5906071Y-14370643D01*
X5906071Y-14442071D01*
X5891786Y-14470643D01*
X5877500Y-14484929D01*
X5848928Y-14499214D01*
X5763214Y-14499214D01*
X5734643Y-14484929D01*
X5720357Y-14470643D01*
X6034643Y-14470643D02*
X6048928Y-14484929D01*
X6034643Y-14499214D01*
X6020357Y-14484929D01*
X6034643Y-14470643D01*
X6034643Y-14499214D01*
X6334643Y-14499214D02*
X6163214Y-14499214D01*
X6248928Y-14499214D02*
X6248928Y-14199214D01*
X6220357Y-14242071D01*
X6191786Y-14270643D01*
X6163214Y-14284929D01*
X6434643Y-14199214D02*
X6634643Y-14199214D01*
X6506071Y-14499214D01*
X6748928Y-14499214D02*
X6748928Y-14299214D01*
X6748928Y-14327786D02*
X6763214Y-14313500D01*
X6791786Y-14299214D01*
X6834643Y-14299214D01*
X6863214Y-14313500D01*
X6877500Y-14342071D01*
X6877500Y-14499214D01*
X6877500Y-14342071D02*
X6891786Y-14313500D01*
X6920357Y-14299214D01*
X6963214Y-14299214D01*
X6991786Y-14313500D01*
X7006071Y-14342071D01*
X7006071Y-14499214D01*
X7148928Y-14499214D02*
X7148928Y-14299214D01*
X7148928Y-14327786D02*
X7163214Y-14313500D01*
X7191786Y-14299214D01*
X7234643Y-14299214D01*
X7263214Y-14313500D01*
X7277500Y-14342071D01*
X7277500Y-14499214D01*
X7277500Y-14342071D02*
X7291786Y-14313500D01*
X7320357Y-14299214D01*
X7363214Y-14299214D01*
X7391786Y-14313500D01*
X7406071Y-14342071D01*
X7406071Y-14499214D01*
X7991786Y-14184929D02*
X7734643Y-14570643D01*
X8377500Y-14199214D02*
X8406071Y-14199214D01*
X8434643Y-14213500D01*
X8448928Y-14227786D01*
X8463214Y-14256357D01*
X8477500Y-14313500D01*
X8477500Y-14384929D01*
X8463214Y-14442071D01*
X8448928Y-14470643D01*
X8434643Y-14484929D01*
X8406071Y-14499214D01*
X8377500Y-14499214D01*
X8348928Y-14484929D01*
X8334643Y-14470643D01*
X8320357Y-14442071D01*
X8306071Y-14384929D01*
X8306071Y-14313500D01*
X8320357Y-14256357D01*
X8334643Y-14227786D01*
X8348928Y-14213500D01*
X8377500Y-14199214D01*
X8606071Y-14470643D02*
X8620357Y-14484929D01*
X8606071Y-14499214D01*
X8591786Y-14484929D01*
X8606071Y-14470643D01*
X8606071Y-14499214D01*
X8906071Y-14499214D02*
X8734643Y-14499214D01*
X8820357Y-14499214D02*
X8820357Y-14199214D01*
X8791786Y-14242071D01*
X8763214Y-14270643D01*
X8734643Y-14284929D01*
X9020357Y-14227786D02*
X9034643Y-14213500D01*
X9063214Y-14199214D01*
X9134643Y-14199214D01*
X9163214Y-14213500D01*
X9177500Y-14227786D01*
X9191786Y-14256357D01*
X9191786Y-14284929D01*
X9177500Y-14327786D01*
X9006071Y-14499214D01*
X9191786Y-14499214D01*
X9463214Y-14199214D02*
X9320357Y-14199214D01*
X9306071Y-14342071D01*
X9320357Y-14327786D01*
X9348928Y-14313500D01*
X9420357Y-14313500D01*
X9448928Y-14327786D01*
X9463214Y-14342071D01*
X9477500Y-14370643D01*
X9477500Y-14442071D01*
X9463214Y-14470643D01*
X9448928Y-14484929D01*
X9420357Y-14499214D01*
X9348928Y-14499214D01*
X9320357Y-14484929D01*
X9306071Y-14470643D01*
X9591786Y-14199214D02*
X9591786Y-14256357D01*
X9706071Y-14199214D02*
X9706071Y-14256357D01*
X10148928Y-14613500D02*
X10134643Y-14599214D01*
X10106071Y-14556357D01*
X10091786Y-14527786D01*
X10077500Y-14484929D01*
X10063214Y-14413500D01*
X10063214Y-14356357D01*
X10077500Y-14284929D01*
X10091786Y-14242071D01*
X10106071Y-14213500D01*
X10134643Y-14170643D01*
X10148928Y-14156357D01*
X10391786Y-14299214D02*
X10391786Y-14499214D01*
X10320357Y-14184929D02*
X10248928Y-14399214D01*
X10434643Y-14399214D01*
X10777500Y-14499214D02*
X10777500Y-14199214D01*
X10906071Y-14499214D02*
X10906071Y-14342071D01*
X10891786Y-14313500D01*
X10863214Y-14299214D01*
X10820357Y-14299214D01*
X10791786Y-14313500D01*
X10777500Y-14327786D01*
X11091786Y-14499214D02*
X11063214Y-14484929D01*
X11048928Y-14470643D01*
X11034643Y-14442071D01*
X11034643Y-14356357D01*
X11048928Y-14327786D01*
X11063214Y-14313500D01*
X11091786Y-14299214D01*
X11134643Y-14299214D01*
X11163214Y-14313500D01*
X11177500Y-14327786D01*
X11191786Y-14356357D01*
X11191786Y-14442071D01*
X11177500Y-14470643D01*
X11163214Y-14484929D01*
X11134643Y-14499214D01*
X11091786Y-14499214D01*
X11363214Y-14499214D02*
X11334643Y-14484929D01*
X11320357Y-14456357D01*
X11320357Y-14199214D01*
X11591786Y-14484929D02*
X11563214Y-14499214D01*
X11506071Y-14499214D01*
X11477500Y-14484929D01*
X11463214Y-14456357D01*
X11463214Y-14342071D01*
X11477500Y-14313500D01*
X11506071Y-14299214D01*
X11563214Y-14299214D01*
X11591786Y-14313500D01*
X11606071Y-14342071D01*
X11606071Y-14370643D01*
X11463214Y-14399214D01*
X11720357Y-14484929D02*
X11748928Y-14499214D01*
X11806071Y-14499214D01*
X11834643Y-14484929D01*
X11848928Y-14456357D01*
X11848928Y-14442071D01*
X11834643Y-14413500D01*
X11806071Y-14399214D01*
X11763214Y-14399214D01*
X11734643Y-14384929D01*
X11720357Y-14356357D01*
X11720357Y-14342071D01*
X11734643Y-14313500D01*
X11763214Y-14299214D01*
X11806071Y-14299214D01*
X11834643Y-14313500D01*
X11948928Y-14613500D02*
X11963214Y-14599214D01*
X11991786Y-14556357D01*
X12006071Y-14527786D01*
X12020357Y-14484929D01*
X12034643Y-14413500D01*
X12034643Y-14356357D01*
X12020357Y-14284929D01*
X12006071Y-14242071D01*
X11991786Y-14213500D01*
X11963214Y-14170643D01*
X11948928Y-14156357D01*
X12491786Y-14613500D02*
X12477500Y-14599214D01*
X12448928Y-14556357D01*
X12434643Y-14527786D01*
X12420357Y-14484929D01*
X12406071Y-14413500D01*
X12406071Y-14356357D01*
X12420357Y-14284929D01*
X12434643Y-14242071D01*
X12448928Y-14213500D01*
X12477500Y-14170643D01*
X12491786Y-14156357D01*
X12606071Y-14299214D02*
X12606071Y-14499214D01*
X12606071Y-14327786D02*
X12620357Y-14313500D01*
X12648928Y-14299214D01*
X12691786Y-14299214D01*
X12720357Y-14313500D01*
X12734643Y-14342071D01*
X12734643Y-14499214D01*
X12920357Y-14499214D02*
X12891786Y-14484929D01*
X12877500Y-14470643D01*
X12863214Y-14442071D01*
X12863214Y-14356357D01*
X12877500Y-14327786D01*
X12891786Y-14313500D01*
X12920357Y-14299214D01*
X12963214Y-14299214D01*
X12991786Y-14313500D01*
X13006071Y-14327786D01*
X13020357Y-14356357D01*
X13020357Y-14442071D01*
X13006071Y-14470643D01*
X12991786Y-14484929D01*
X12963214Y-14499214D01*
X12920357Y-14499214D01*
X13106071Y-14299214D02*
X13220357Y-14299214D01*
X13148928Y-14199214D02*
X13148928Y-14456357D01*
X13163214Y-14484929D01*
X13191786Y-14499214D01*
X13220357Y-14499214D01*
X13548928Y-14299214D02*
X13548928Y-14599214D01*
X13548928Y-14313500D02*
X13577500Y-14299214D01*
X13634643Y-14299214D01*
X13663214Y-14313500D01*
X13677500Y-14327786D01*
X13691786Y-14356357D01*
X13691786Y-14442071D01*
X13677500Y-14470643D01*
X13663214Y-14484929D01*
X13634643Y-14499214D01*
X13577500Y-14499214D01*
X13548928Y-14484929D01*
X13863214Y-14499214D02*
X13834643Y-14484929D01*
X13820357Y-14456357D01*
X13820357Y-14199214D01*
X14106071Y-14499214D02*
X14106071Y-14342071D01*
X14091786Y-14313500D01*
X14063214Y-14299214D01*
X14006071Y-14299214D01*
X13977500Y-14313500D01*
X14106071Y-14484929D02*
X14077500Y-14499214D01*
X14006071Y-14499214D01*
X13977500Y-14484929D01*
X13963214Y-14456357D01*
X13963214Y-14427786D01*
X13977500Y-14399214D01*
X14006071Y-14384929D01*
X14077500Y-14384929D01*
X14106071Y-14370643D01*
X14206071Y-14299214D02*
X14320357Y-14299214D01*
X14248928Y-14199214D02*
X14248928Y-14456357D01*
X14263214Y-14484929D01*
X14291786Y-14499214D01*
X14320357Y-14499214D01*
X14534643Y-14484929D02*
X14506071Y-14499214D01*
X14448928Y-14499214D01*
X14420357Y-14484929D01*
X14406071Y-14456357D01*
X14406071Y-14342071D01*
X14420357Y-14313500D01*
X14448928Y-14299214D01*
X14506071Y-14299214D01*
X14534643Y-14313500D01*
X14548928Y-14342071D01*
X14548928Y-14370643D01*
X14406071Y-14399214D01*
X14806071Y-14499214D02*
X14806071Y-14199214D01*
X14806071Y-14484929D02*
X14777500Y-14499214D01*
X14720357Y-14499214D01*
X14691786Y-14484929D01*
X14677500Y-14470643D01*
X14663214Y-14442071D01*
X14663214Y-14356357D01*
X14677500Y-14327786D01*
X14691786Y-14313500D01*
X14720357Y-14299214D01*
X14777500Y-14299214D01*
X14806071Y-14313500D01*
X14920357Y-14613500D02*
X14934643Y-14599214D01*
X14963214Y-14556357D01*
X14977500Y-14527786D01*
X14991786Y-14484929D01*
X15006071Y-14413500D01*
X15006071Y-14356357D01*
X14991786Y-14284929D01*
X14977500Y-14242071D01*
X14963214Y-14213500D01*
X14934643Y-14170643D01*
X14920357Y-14156357D01*
M02*
